<?xml version="1.0" encoding="utf-8"?>
<!-- Generator: Adobe Illustrator 19.1.0, SVG Export Plug-In . SVG Version: 6.00 Build 0)  -->
<svg version="1.1" id="app_x5F_world--parent" xmlns="http://www.w3.org/2000/svg" xmlns:xlink="http://www.w3.org/1999/xlink"
	 x="0px" y="0px" width="1024px" height="576px" viewBox="0 0 1024 576" style="enable-background:new 0 0 1024 576;"
	 xml:space="preserve" preserveAspectRatio="none">
	 
	 <image xlink:href="https://s3.amazonaws.com/zoom-feature/maps-png/ipad/World-ipad.png" width="100%" height="100%" x="0" y="0" />


<rect id="app_x5F_UAE--zoom" x="614.9" y="252.3" style="fill:none;" width="92.3" height="51.7"/>
<rect id="app_x5F_Lebanon-region--zoom" x="438.9" y="165.3" style="fill:none;" width="59.7" height="34.1"/>
<rect id="app_x5F_Oman--zoom" x="657.6" y="274.7" style="fill:none;" width="72" height="40.5"/>
<g id="NorthPoint" transform="translate(1831.070256, 181.453972) rotate(56.000000) translate(-1831.070256, -181.453972) translate(1792.570256, 137.953972)">
	<path id="Fill-933_1_" style="fill:#8A1538;" d="M-516.6,726.1l4.1,5.2l-6-1.9L-516.6,726.1z M-519.5,730.7l10.7,2.8l-6.9-8.5
		l-10.7-2.8L-519.5,730.7z M-516.6,726.1l4.1,5.2l-6-1.9L-516.6,726.1z M-519.5,730.7l10.7,2.8l-6.9-8.5l-10.7-2.8L-519.5,730.7z
		 M-516.6,726.1l4.1,5.2l-6-1.9L-516.6,726.1z M-508.8,733.5l-6.9-8.5l-10.7-2.8l6.9,8.5L-508.8,733.5z M-523.3,717.1
		c5.9-2.9,13-0.5,15.9,5.4s0.5,13-5.4,15.9s-13,0.5-15.9-5.4C-531.6,727.1-529.2,720.1-523.3,717.1z M-511.5,740.9
		c7.3-3.6,10.1-12.5,6.6-19.5c-3.6-7.3-12.3-10-19.6-6.4s-10,12.4-6.6,19.5C-527.3,741.4-518.7,744.3-511.5,740.9z M-516.6,726.1
		l4.1,5.2l-6-1.9L-516.6,726.1z M-519.5,730.7l10.7,2.8l-6.9-8.5l-10.7-2.8L-519.5,730.7z M-516.6,726.1l4.1,5.2l-6-1.9
		L-516.6,726.1z M-519.5,730.7l10.7,2.8l-6.9-8.5l-10.7-2.8L-519.5,730.7z M-516.6,726.1l4.1,5.2l-6-1.9L-516.6,726.1z
		 M-519.5,730.7l10.7,2.8l-6.9-8.5l-10.7-2.8L-519.5,730.7z M-516.6,726.1l4.1,5.2l-6-1.9L-516.6,726.1z M-519.5,730.7l10.7,2.8
		l-6.9-8.5l-10.7-2.8L-519.5,730.7z"/>
	<g id="Back-Copy-5_1_" transform="translate(34.000000, 0.000000)">
		
			<text transform="matrix(0.5505 -0.8348 0.8348 0.5505 -567.0508 720.6644)" style="fill:#8A1538; font-family:'ArialMT'; font-size:7.4024px;">N</text>
	</g>
</g>
<g id="app_x5F_Iraq--marker">
	<rect id="app_x5F_Iraq--tap" x="532.3" y="177.8" style="fill:#FFFFFF;fill-opacity:0;" width="20" height="20"/>
	<polygon id="Fill-124" style="fill:#8A1538;" points="536,180.8 536,193.6 540.2,193.6 542.3,195.9 544.4,193.6 548.8,193.6 
		548.8,180.8 	"/>
	<g id="Group" transform="translate(5.000000, 5.000000)">
		<path id="Path" style="fill:#FFFFFF;" d="M537,179c-2,0-3.4,1.2-3.4,3v3.4h1.1c0,0,0-1.8,0-3.4c0-1.7,1.3-2.8,2.6-3.1
			c0.1,0,0.1,0,0.1,0H537V179z"/>
		<path id="Path_1_" style="fill:#FFFFFF;" d="M537.2,179c-0.2,0.1-0.4,0.1-0.6,0.3c-0.9,0.6-1.4,1.6-1.4,2.6c0,0.1,0,0.1,0,0.2l0,0
			v0.1v3.3h1.1v-3.3c0-0.2,0.2-0.4,0.4-0.5l0.5,0.5l0.5-0.5c0.2,0.1,0.2,0.3,0.2,0.5v3.3h1.1v-3.3c0-1.1-0.7-1.9-1.8-1.9
			c-0.3,0-0.4,0.1-0.6,0.2l0,0c0.2-0.3,0.6-0.4,1-0.4l0,0c0.1,0,0.4,0,0.5,0.1c1,0.2,1.9,1.1,1.9,2.1c0,0.1,0,0.1,0,0.1v3.3h1.1
			v-3.3c0-1.5-1-2.8-2.5-3.1c-0.1,0-0.2-0.1-0.2-0.1c-0.1,0-0.2-0.1-0.4-0.1C537.7,178.9,537.5,178.9,537.2,179z"/>
	</g>
</g>
<g id="app_x5F_Kuwait--marker">
	<rect id="app_x5F_Kuwait--tap" x="581.8" y="218.9" style="fill:#FFFFFF;fill-opacity:0;" width="20" height="20"/>
	<polygon id="Fill-124_1_" style="fill:#8A1538;" points="585.6,221.9 585.6,234.7 589.8,234.7 591.8,237 594,234.7 598.4,234.7 
		598.4,221.9 	"/>
	<g id="Group_1_" transform="translate(5.000000, 5.000000)">
		<path id="Path_2_" style="fill:#FFFFFF;" d="M586.6,220.1c-2,0-3.4,1.3-3.4,3.1v3.3h1.1c0,0,0-1.7,0-3.3c0-1.7,1.3-2.9,2.6-3.1
			c0.1,0,0.1,0,0.1,0H586.6L586.6,220.1z"/>
		<path id="Path_3_" style="fill:#FFFFFF;" d="M586.8,220.2c-0.2,0.1-0.4,0.1-0.6,0.3c-0.9,0.6-1.4,1.6-1.4,2.6c0,0.1,0,0.1,0,0.2
			l0,0v0.1v3.7h1.1v-3.7c0-0.2,0.2-0.4,0.4-0.5l0.5,0.5l0.5-0.5c0.2,0.1,0.2,0.3,0.2,0.5v3.7h1.1v-3.7c0-1.1-0.7-1.9-1.8-1.9
			c-0.3,0-0.4,0.1-0.6,0.2l0,0c0.2-0.3,0.6-0.4,1-0.4l0,0c0.1,0,0.4,0,0.5,0.1c1,0.2,1.9,1.1,1.9,2.1c0,0.1,0,0.1,0,0.1v3.7h1.1
			v-3.7c0-1.5-1-2.8-2.5-3.1c-0.1,0-0.2-0.1-0.2-0.1c-0.1,0-0.2-0.1-0.4-0.1C587.2,220,587.1,220.1,586.8,220.2z"/>
	</g>
</g>
<g id="app_x5F_Georgia--marker">
	<rect id="app_x5F_Georgia--tap" x="522.7" y="80" style="fill:#FFFFFF;fill-opacity:0;" width="20" height="20"/>
	<polygon id="Fill-124_2_" style="fill:#8A1538;" points="525.9,83.2 525.9,96 530.2,96 532.3,98.3 534.4,96 538.7,96 538.7,83.2 	
		"/>
	<g id="Group_2_" transform="translate(5.000000, 5.000000)">
		<path id="Path_4_" style="fill:#FFFFFF;" d="M527,81.4c-2,0-3.5,1.3-3.5,3.1v3.3h1.1c0,0,0-1.7,0-3.3c0-1.7,1.4-2.8,2.6-3.1
			c0.1,0,0.2,0,0.1,0H527z"/>
		<path id="Path_5_" style="fill:#FFFFFF;" d="M527.2,81.5c-0.2,0.1-0.4,0.1-0.6,0.3c-0.9,0.6-1.4,1.6-1.4,2.6c0,0.1,0,0.1,0,0.2
			l0,0v0.1V88h1.6v-3.3c0-0.2,0-0.4,0.2-0.5l0.4,0.5l0.3-0.5c0.2,0.1,0.1,0.3,0.1,0.5V88h1.6v-3.3c0-1.1-1-1.9-2-1.9
			c-0.3,0-0.5,0.1-0.7,0.2l0,0c0.2-0.3,0.6-0.4,1-0.4l0,0c0.1,0,0.3,0,0.4,0.1c1,0.2,1.8,1.1,1.8,2.1c0,0.1,0,0.1,0,0.1v3.2h1.1
			v-3.2c0-1.5-0.9-2.8-2.5-3.1c-0.1,0-0.2-0.1-0.2-0.1c-0.1,0-0.2-0.1-0.4-0.1C527.6,81.3,527.4,81.4,527.2,81.5z"/>
	</g>
</g>
<g id="app_x5F_Armenia--marker">
	<rect id="app_x5F_Armenia--tap" x="540" y="100.5" style="fill:#FFFFFF;fill-opacity:0;" width="20" height="20"/>
	<polygon id="Fill-124_3_" style="fill:#8A1538;" points="543.7,103.5 543.7,115.7 547.8,115.7 550,118 552.1,115.7 556,115.7 
		556,103.5 	"/>
	<g id="Group_3_" transform="translate(5.000000, 5.000000)">
		<path id="Path_6_" style="fill:#FFFFFF;" d="M544.7,101.1c-2,0-3.3,1.6-3.3,3.4v3.5h1.1c0,0,0-1.9,0-3.5c0-1.7,1.3-3,2.6-3.3
			c0.1,0,0.1-0.2,0.1-0.2h-0.5C544.7,101,544.7,101.1,544.7,101.1z"/>
		<path id="Path_7_" style="fill:#FFFFFF;" d="M544.9,101.5c-0.2,0.1-0.3,0.1-0.6,0.3c-0.9,0.6-1.4,1.6-1.4,2.6c0,0.1,0,0.1,0,0.2
			l0,0v0.1v3.5h1.1v-3.5c0-0.2,0.2-0.4,0.3-0.5l0.5,0.5l0.5-0.5c0.2,0.1,0.3,0.3,0.3,0.5v3.5h1.1v-3.5c0-1.1-0.8-1.9-1.8-1.9
			c-0.3,0-0.5,0.1-0.6,0.2l0,0c0.2-0.3,0.6-0.4,1-0.4l0,0c0.1,0,0.1,0,0.2,0.1c1,0.2,1.7,1.1,1.7,2.1c0,0.1,0,0.1,0,0.1v3.4h1.6
			v-3.4c0-1.5-1-2.8-2.5-3.1c-0.1,0-0.2-0.1-0.2-0.1c-0.1,0-0.2-0.1-0.4-0.1C545.3,101.4,545.1,101.5,544.9,101.5z"/>
	</g>
</g>
<g id="app_x5F_Jordan--marker">
	<rect id="app_x5F_Jordan--tap" x="474.4" y="202.2" style="fill:#FFFFFF;fill-opacity:0;" width="20" height="20"/>
	<polygon id="Fill-124_4_" style="fill:#8A1538;" points="477.9,205.9 477.9,218.1 482.2,218.1 484.3,220.4 486.4,218.1 
		490.7,218.1 490.7,205.9 	"/>
	<g id="Group_4_" transform="translate(5.000000, 5.000000)">
		<path id="Path_8_" style="fill:#FFFFFF;" d="M479,203.5c-2,0-3.5,1.5-3.5,3.3v3.6h1.1c0,0,0-2,0-3.6c0-1.7,1.4-2.9,2.6-3.2
			c0.1-0.1,0.2-0.1,0.1-0.1L479,203.5L479,203.5z"/>
		<path id="Path_9_" style="fill:#FFFFFF;" d="M479.3,203.8c-0.2,0.1-0.5,0.1-0.7,0.3c-0.9,0.6-0.9,1.6-1.5,2.6c0,0.1,0,0.1,0,0.2
			l0,0v0.1v3.6h1.6V207c0-0.2,0-0.4,0.2-0.5l0.5,0.5l0.3-0.5c0.2,0.1,0.1,0.3,0.1,0.5v3.6h1.6V207c0-1.1-0.9-1.9-1.9-1.9
			c-0.3,0-0.5,0.1-0.7,0.2l0,0c0.2-0.3,0.6-0.4,1-0.4l0,0c0.1,0,0.3,0,0.4,0.1c1,0.2,1.8,1.1,1.8,2.1c0,0.1,0,0.1,0,0.1v3.6h1.1
			v-3.6c0-1.5-0.9-2.8-2.4-3.1c-0.1,0-0.1-0.1-0.2-0.1s-0.2-0.1-0.4-0.1C479.6,203.7,479.5,203.7,479.3,203.8z"/>
	</g>
</g>
<g id="app_x5F_Bahrain--marker">
	<rect id="app_x5F_Bahrain--tap" x="609" y="251.3" style="fill:#FFFFFF;fill-opacity:0;" width="20" height="20"/>
	<polygon id="Fill-124_5_" style="fill:#8A1538;" points="612.8,255.2 612.8,268 617.1,268 619.3,270.3 621.4,268 625.6,268 
		625.6,255.2 	"/>
	<g id="Group_5_" transform="translate(5.000000, 5.000000)">
		<path id="Path_10_" style="fill:#FFFFFF;" d="M614,253.4c-2,0-3.5,1.4-3.5,3.3v3.7h1.1c0,0,0-2.1,0-3.7c0-1.7,1.4-2.9,2.7-3.2
			c0.1,0,0.2-0.1,0.2-0.1L614,253.4L614,253.4z"/>
		<path id="Path_11_" style="fill:#FFFFFF;" d="M614.2,253.6c-0.2,0.1-0.5,0.1-0.7,0.3c-0.9,0.6-0.9,1.6-1.5,2.6c0,0.1,0,0.1,0,0.2
			l0,0v0.1v3.6h1.6v-3.6c0-0.2,0-0.4,0.2-0.5l0.5,0.5l0.3-0.5c0.2,0.1,0.1,0.3,0.1,0.5v3.6h1.6v-3.6c0-1.1-0.9-1.9-1.9-1.9
			c-0.3,0-0.5,0.1-0.7,0.2l0,0c0.2-0.3,0.6-0.4,1-0.4l0,0c0.1,0,0.3,0,0.4,0.1c1,0.2,1.8,1.1,1.8,2.1c0,0.1,0,0.1,0,0.1v3.6h1.1V257
			c0-1.5-0.9-2.8-2.5-3.1c-0.1,0-0.2-0.1-0.2-0.1c-0.2-0.1-0.3-0.1-0.4-0.1C614.6,253.5,614.4,253.6,614.2,253.6z"/>
	</g>
</g>
<g id="app_x5F_Qatar--marker">
	<rect id="app_x5F_Qatar--tap" x="618.3" y="269.5" style="fill:#FFFFFF;fill-opacity:0;" width="20" height="20"/>
	<polygon id="Fill-124_6_" style="fill:#8A1538;" points="621.9,272.5 621.9,285.3 626.1,285.3 628.3,287.6 630.3,285.3 
		634.7,285.3 634.7,272.5 	"/>
	<g id="Group_6_" transform="translate(5.000000, 5.000000)">
		<path id="Path_12_" style="fill:#FFFFFF;" d="M623,270.7c-2,0-3.5,1.3-3.5,3.1v3.3h1.1c0,0,0-1.7,0-3.3c0-1.7,1.4-2.8,2.6-3.1
			c0.1,0,0.2,0,0.1,0H623z"/>
		<path id="Path_13_" style="fill:#FFFFFF;" d="M623.2,270.8c-0.2,0.1-0.4,0.1-0.6,0.3c-0.9,0.6-1.4,1.6-1.4,2.6c0,0.1,0,0.1,0,0.2
			l0,0v0.1v3.3h1.6V274c0-0.2,0-0.4,0.2-0.5l0.4,0.5l0.3-0.5c0.2,0.1,0.1,0.3,0.1,0.5v3.3h1.6V274c0-1.1-1-1.9-2-1.9
			c-0.3,0-0.5,0.1-0.7,0.2l0,0c0.2-0.3,0.6-0.4,1-0.4l0,0c0.1,0,0.3,0,0.4,0.1c1,0.2,1.8,1.1,1.8,2.1c0,0.1,0,0.1,0,0.1v3.3h1.1
			v-3.3c0-1.5-0.9-2.8-2.5-3.1c-0.1,0-0.2-0.1-0.2-0.1c-0.1,0-0.2-0.1-0.4-0.1C623.6,270.7,623.4,270.7,623.2,270.8z"/>
	</g>
</g>
<g id="app_x5F_Saudi--marker">
	<rect id="app_x5F_Saudi--tap" x="565.9" y="294.9" style="fill:#FFFFFF;fill-opacity:0;" width="20" height="20"/>
	<polygon id="Fill-124_7_" style="fill:#8A1538;" points="569.6,298.1 569.6,310.4 573.9,310.4 576.1,312.7 578.2,310.4 
		582.4,310.4 582.4,298.1 	"/>
	<g id="Group_7_" transform="translate(5.000000, 5.000000)">
		<path id="Path_14_" style="fill:#FFFFFF;" d="M570.8,295.8c-2,0-3.5,1.5-3.5,3.3v3.6h1.1c0,0,0-2,0-3.6c0-1.7,1.4-2.9,2.7-3.2
			c0.1,0,0.2-0.1,0.2-0.1H570.8z"/>
		<path id="Path_15_" style="fill:#FFFFFF;" d="M571,296.1c-0.2,0.1-0.5,0.1-0.7,0.3c-0.9,0.6-0.9,1.6-1.5,2.6c0,0.1,0,0.1,0,0.2
			l0,0v0.1v3.6h1.6v-3.6c0-0.2,0-0.4,0.2-0.5l0.5,0.5l0.3-0.5c0.2,0.1,0.1,0.3,0.1,0.5v3.6h1.6v-3.6c0-1.1-0.9-1.9-1.9-1.9
			c-0.3,0-0.5,0.1-0.7,0.2l0,0c0.2-0.3,0.6-0.4,1-0.4l0,0c0.1,0,0.3,0,0.4,0.1c1,0.2,1.8,1.1,1.8,2.1c0,0.1,0,0.1,0,0.1v3.5h1.1
			v-3.5c0-1.5-0.9-2.8-2.5-3.1c-0.1,0-0.2-0.1-0.2-0.1c-0.1,0-0.2-0.1-0.4-0.1C571.4,296,571.2,296,571,296.1z"/>
	</g>
</g>
<g id="app_x5F_Pakistan--marker">
	<rect id="app_x5F_Pakistan--tap" x="767.9" y="247.1" style="fill:#FFFFFF;fill-opacity:0;" width="20" height="20"/>
	<polygon id="Fill-124_8_" style="fill:#8A1538;" points="771.7,250.1 771.7,262.4 775.9,262.4 778,264.7 780.2,262.4 784.5,262.4 
		784.5,250.1 	"/>
	<g id="Group_8_" transform="translate(5.000000, 5.000000)">
		<path id="Path_16_" style="fill:#FFFFFF;" d="M772.8,247.8c-2,0-3.4,1.5-3.4,3.4v3.6h1.1c0,0,0-2,0-3.6c0-1.7,1.3-3,2.6-3.2
			c0.1,0,0.1-0.1,0.1-0.1L772.8,247.8L772.8,247.8z"/>
		<path id="Path_17_" style="fill:#FFFFFF;" d="M773,248.1c-0.2,0.1-0.4,0.1-0.6,0.3c-0.9,0.6-1.4,1.6-1.4,2.6c0,0.1,0,0.1,0,0.2
			l0,0v0.1v3.5h1.1v-3.5c0-0.2,0.2-0.4,0.4-0.5l0.5,0.5l0.5-0.5c0.2,0.1,0.2,0.3,0.2,0.5v3.5h1.1v-3.5c0-1.1-0.7-1.9-1.8-1.9
			c-0.3,0-0.4,0-0.6,0.1l0,0c0.2-0.3,0.6-0.5,0.9-0.5l0,0c0.2,0,0.3,0,0.4,0c1,0.5,1.6,1.2,1.6,2.2c0,0.1,0,0.1,0,0.1v3.6h1.6v-3.6
			c0-1.5-1-2.7-2.6-3.1c-0.1,0-0.2-0.1-0.3-0.1s-0.2-0.1-0.4-0.1C773.4,248,773.2,248,773,248.1z"/>
	</g>
</g>
<g id="app_x5F_Kazakhstan--marker">
	<rect id="app_x5F_Kazakhstan--tap" x="749.3" y="72.5" style="fill:#FFFFFF;fill-opacity:0;" width="20" height="20"/>
	<polygon id="Fill-124_9_" style="fill:#8A1538;" points="753.1,75.7 753.1,88.5 757.4,88.5 759.6,90.8 761.7,88.5 765.9,88.5 
		765.9,75.7 	"/>
	<g id="Group_9_" transform="translate(5.000000, 5.000000)">
		<path id="Path_18_" style="fill:#FFFFFF;" d="M754.3,73.9c-2,0-3.6,1.4-3.6,3.2v3.7h1.1c0,0,0-2.1,0-3.7c0-1.7,1.4-2.7,2.7-3.2
			c0.1,0,0.2,0,0.2,0H754.3z"/>
		<path id="Path_19_" style="fill:#FFFFFF;" d="M754.5,74.1c-0.2,0.1-0.2,0.1-0.4,0.3c-0.9,0.6-1.2,1.6-1.2,2.6c0,0.1,0,0.1,0,0.2
			l0,0v0.1V81h1.1v-3.7c0-0.2,0.1-0.4,0.2-0.5l0.5,0.5l0.6-0.5c0.2,0.1,0.3,0.3,0.3,0.5V81h1.1v-3.7c0-1.1-0.9-1.9-1.9-1.9
			c-0.3,0-0.5,0.1-0.7,0.2l0,0c0.2-0.3,0.6-0.4,1-0.4l0,0c0.1,0,0.3,0,0.4,0.1c1,0.2,1.8,1.1,1.8,2.1c0,0.1,0,0.1,0,0.1v3.6h1.1
			v-3.6c0-1.5-0.9-2.8-2.4-3.1c-0.1,0-0.1-0.1-0.2-0.1c-0.1,0-0.2-0.1-0.3-0.1C754.9,73.9,754.7,74,754.5,74.1z"/>
	</g>
</g>
<g id="app_x5F_Egypt--marker">
	<rect id="app_x5F_Egypt--tap" x="415.9" y="254.3" style="fill:#FFFFFF;fill-opacity:0;" width="20" height="20"/>
	<polygon id="Fill-124_10_" style="fill:#8A1538;" points="419.2,257.1 419.2,269.9 423.6,269.9 425.8,272.2 427.9,269.9 432,269.9 
		432,257.1 	"/>
	<g id="Group_10_" transform="translate(5.000000, 5.000000)">
		<path id="Path_20_" style="fill:#FFFFFF;" d="M420.5,255.3c-2,0-3.6,1.4-3.6,3.3v3.7h1.6c0,0,0-2.1,0-3.7c0-1.7,1.2-2.9,2.5-3.2
			c0.1,0,0-0.1-0.1-0.1L420.5,255.3L420.5,255.3z"/>
		<path id="Path_21_" style="fill:#FFFFFF;" d="M420.7,255.4c-0.2,0.1-0.2,0.1-0.5,0.3c-0.9,0.6-1.3,1.6-1.3,2.6c0,0.1,0,0.1,0,0.2
			l0,0v0.1v3.6h1.1v-3.7c0-0.2,0.1-0.4,0.2-0.5l0.5,0.5l0.6-0.5c0.2,0.1,0.3,0.3,0.3,0.5v3.7h1.1v-3.7c0-1.1-0.9-1.9-1.9-1.9
			c-0.3,0-0.5,0.1-0.7,0.2l0,0c0.2-0.3,0.6-0.4,1-0.4l0,0c0.1,0,0.2,0,0.3,0.1c1,0.2,1.8,1.1,1.8,2.1c0,0.1,0,0.1,0,0.1v3.6h1.1
			v-3.6c0-1.5-0.8-2.8-2.4-3.2c-0.1,0-0.1-0.1-0.1-0.1c-0.2,0-0.3,0-0.5,0C421.1,255.3,420.9,255.4,420.7,255.4z"/>
	</g>
</g>
<g id="app_x5F_Kenya--marker">
	<rect id="app_x5F_Kenya--tap" x="501.7" y="530.6" style="fill:#FFFFFF;fill-opacity:0;" width="20" height="20"/>
	<polygon id="Fill-124_11_" style="fill:#8A1538;" points="505.6,533.9 505.6,546.1 509.6,546.1 511.7,548.4 513.8,546.1 
		517.9,546.1 517.9,533.9 	"/>
	<g id="Group_11_" transform="translate(5.000000, 5.000000)">
		<path id="Path_22_" style="fill:#FFFFFF;" d="M506.5,531.5c-2,0-3.2,1.5-3.2,3.3v3.6h1.1c0,0,0-2,0-3.6c0-1.7,1.1-2.9,2.7-3.1
			v-0.2H506.5L506.5,531.5z"/>
		<path id="Path_23_" style="fill:#FFFFFF;" d="M506.7,531.8c-0.2,0.1-0.3,0.1-0.5,0.3c-0.9,0.6-1.3,1.6-1.3,2.6c0,0.1,0,0.1,0,0.2
			l0,0v0.1v3.6h1.1V535c0-0.2,0.1-0.4,0.3-0.5l0.5,0.5l0.5-0.5c0.2,0.1,0.3,0.3,0.3,0.5v3.6h1.1V535c0-1.1-0.9-1.9-1.9-1.9
			c-0.3,0-0.5,0.1-0.7,0.2l0,0c0.2-0.3,0.6-0.4,1-0.4l0,0c0.1,0,0.2,0,0.3,0.1c1,0.2,1.8,1.1,1.8,2.1c0,0.1,0,0.1,0,0.1v3.5h1.1
			v-3.5c0-1.5-0.8-2.8-2.3-3.1c-0.1,0-0.1-0.1-0.2-0.1s-0.2-0.1-0.3-0.1C507,531.7,506.9,531.7,506.7,531.8z"/>
	</g>
</g>
<g id="app_x5F_Lebanon-region--button">
	<polygon id="tap_x5F_area_2_" style="fill:#FFFFFF;fill-opacity:0;" points="491.4,141.4 496,193.3 352,194.1 352,146.4 	"/>
	<rect id="app_x5F_Lebanon-region--tap" x="468.1" y="166.7" style="fill:#FFFFFF;fill-opacity:0;" width="20" height="20"/>
	<path id="Line-4-Copy-5" style="fill:none;stroke:#8A1538;stroke-width:1.0667;" d="M472.5,176h-27.7"/>
	<g transform="translate(856.000000, 319.000000)">
		<polygon id="Fill-124_12_" style="fill:#8A1538;" points="-384.5,-149.9 -384.5,-137.1 -380.2,-137.1 -378,-134.8 -375.9,-137.1 
			-371.7,-137.1 -371.7,-149.9 		"/>
		<g id="Group_12_" transform="translate(5.000000, 5.000000)">
			<path id="Path_24_" style="fill:#FFFFFF;" d="M-383.3-151.7c-2,0-3.6,1.3-3.6,3.1v3.3h1.1c0,0,0-1.7,0-3.3c0-1.7,1.4-2.9,2.7-3.1
				c0.1,0,0.2,0,0.2,0H-383.3L-383.3-151.7z"/>
			<path id="Path_25_" style="fill:#FFFFFF;" d="M-383.1-151.6c-0.2,0.1-0.2,0.1-0.4,0.3c-0.9,0.6-1.2,1.6-1.2,2.6
				c0,0.1,0,0.1,0,0.2l0,0v0.1v3.7h1.1v-3.7c0-0.2,0.1-0.4,0.2-0.5l0.5,0.5l0.6-0.5c0.2,0.1,0.3,0.3,0.3,0.5v3.7h1.1v-3.7
				c0-1.1-0.9-1.9-1.9-1.9c-0.3,0-0.5,0.1-0.7,0.2l0,0c0.2-0.3,0.6-0.4,1-0.4l0,0c0.1,0,0.3,0,0.4,0.1c1,0.2,1.8,1.1,1.8,2.1
				c0,0.1,0,0.1,0,0.1v3.7h1.1v-3.7c0-1.5-0.9-2.8-2.5-3.1c-0.1,0-0.2-0.1-0.2-0.1c-0.1,0-0.2-0.1-0.4-0.1
				C-382.7-151.7-382.9-151.7-383.1-151.6z"/>
		</g>
	</g>
	<g>
		<g>
			<path style="fill:#575756;" d="M420.8,184.5h-0.5v-2.7h0.7c0.9,0,1.5,0.5,1.5,1.4s-0.5,1.3-1.4,1.3 M420.8,181.3h-1.1v3.7h1.3
				c1.1,0,1.8-0.7,1.8-1.8c0-1.1-0.7-1.9-1.8-1.9"/>
			<path style="fill:none;stroke:#575756;stroke-width:0.5333;stroke-miterlimit:10;" d="M420.8,184.8H420v-3.2h1
				c0.9,0,1.5,0.8,1.5,1.7c0,0.9-0.5,1.6-1.4,1.6 M420.8,181.1h-1.3v3.7h1.5c1.1,0,1.8-0.7,1.8-1.8s-0.7-1.9-1.8-1.9"/>
			<path style="fill:#575756;" d="M425.1,184.5H424v-1.6h0.9c0.7,0,1.1,0.4,1.1,0.9S425.7,184.6,425.1,184.5 M424,181.9h1
				c0.4,0,0.9,0,0.9,0.5s-0.5,0.6-1,0.6H424V181.9z M425.7,183c0.3-0.1,0.5-0.5,0.5-0.8c0-0.6-0.4-0.9-1.2-0.9h-1.5v3.7h1.5
				c0.8,0,1.3-0.4,1.3-1.1C426.3,183.5,426.1,183.1,425.7,183"/>
			<path style="fill:none;stroke:#575756;stroke-width:0.5333;stroke-miterlimit:10;" d="M425.1,184.8h-0.8v-1.6h0.6
				c0.7,0,1.1,0.4,1.1,0.9C426,184.5,425.7,184.8,425.1,184.8 M424.3,181.6h0.7c0.4,0,0.9,0,0.9,0.5s-0.5,0.6-1,0.6h-0.6V181.6z
				 M425.7,183c0.3-0.1,0.5-0.6,0.5-0.9c0-0.6-0.4-1.1-1.2-1.1h-1.2v3.7h1.3c0.8,0,1.3-0.3,1.3-1C426.3,183.4,426.1,183.1,425.7,183
				"/>
			<polygon style="fill:#575756;" points="432.7,181.3 431.6,183.1 430.6,181.3 430.2,181.3 431.5,183.5 431.5,185.1 431.8,185.1 
				431.8,183.5 433.1,181.3 			"/>
			<polygon style="fill:none;stroke:#575756;stroke-width:0.5333;stroke-miterlimit:10;" points="432.7,181.1 431.6,182.8 
				430.6,181.1 430.2,181.1 431.7,183.5 431.7,184.8 431.8,184.8 431.8,183.2 433.1,181.1 			"/>
			<polygon style="fill:#575756;" points="434.1,181.3 434.1,185.1 436.3,185.1 436.3,184.5 434.1,184.5 434.1,182.9 436.3,182.9 
				436.3,182.9 434.1,182.9 434.1,181.9 436.3,181.9 436.3,181.3 			"/>
			<polygon style="fill:none;stroke:#575756;stroke-width:0.5333;stroke-miterlimit:10;" points="433.9,181.1 433.9,184.8 
				436.5,184.8 436.5,184.8 434.4,184.8 434.4,183.2 436,183.2 436,182.7 434.4,182.7 434.4,181.6 436.5,181.6 436.5,181.1 			"/>
			<polygon style="fill:#575756;" points="440,181.4 440,182.9 437.9,182.9 437.9,181.3 437.3,181.3 437.3,185.1 437.9,185.1 
				437.9,182.9 440,182.9 440,185.2 440,185.2 			"/>
			<polygon style="fill:none;stroke:#575756;stroke-width:0.5333;stroke-miterlimit:10;" points="439.7,181.1 439.7,182.7 
				437.6,182.7 437.6,181.2 437.6,181.2 437.6,184.9 437.6,184.9 437.6,183.2 439.7,183.2 439.7,184.8 440.3,184.8 440.3,181.1 			
				"/>
			<path style="fill:#575756;" d="M428.6,181.3L427,185h0.3l0.5-1.1h1.7l0.5,1.1h0.3l-1.6-3.7H428.6z M428.7,181.8l0.7,1.7H428
				L428.7,181.8z"/>
			<path style="fill:none;stroke:#575756;stroke-width:0.5333;stroke-miterlimit:10;" d="M428.6,181.1l-1.6,3.7h0.3l0.5-1.1h1.7
				l0.5,1.1h0.3l-1.6-3.7H428.6z M428.7,182l0.7,1.7H428L428.7,182z"/>
		</g>
		<g>
			<g>
				<g>
					<g>
						<g>
							<g>
								<g>
									<g>
										<g>
											<g>
												<g>
													<g>
														<g>
															<g>
																<g>
																	<defs>
																		<polygon id="SVGID_1_" points="408.6,168.2 403,169.6 410.6,169.6 418.7,164 418.7,159.5 396,159.4 
																																					"/>
																	</defs>
																	<clipPath id="SVGID_2_">
																		<use xlink:href="#SVGID_1_"  style="overflow:visible;"/>
																	</clipPath>
																	<path style="clip-path:url(#SVGID_2_);fill:none;stroke:#72B63A;stroke-width:0.2263;stroke-linecap:round;" d="
																		M409.4,169.2c0.6,0.3,1.4-0.1,1.4,0.3c-0.1,0.3-1,0.4-1,0.4"/>
																</g>
															</g>
														</g>
													</g>
												</g>
											</g>
										</g>
									</g>
								</g>
							</g>
						</g>
					</g>
				</g>
			</g>
			<g>
				<g>
					<g>
						<g>
							<g>
								<g>
									<g>
										<g>
											<g>
												<g>
													<g>
														<g>
															<g>
																<g>
																	<defs>
																		<polygon id="SVGID_3_" points="408.6,168.2 403,169.6 410.6,169.6 418.7,164 418.7,159.5 396,159.4 
																																					"/>
																	</defs>
																	<clipPath id="SVGID_4_">
																		<use xlink:href="#SVGID_3_"  style="overflow:visible;"/>
																	</clipPath>
																	<path style="clip-path:url(#SVGID_4_);fill:none;stroke:#67B448;stroke-width:0.2263;stroke-linecap:round;" d="
																		M408.5,168.5c1.2,0.6,2.9-0.2,2.8,0.5c-0.1,0.5-1.9,0.8-1.9,0.8"/>
																</g>
															</g>
														</g>
													</g>
												</g>
											</g>
										</g>
									</g>
								</g>
							</g>
						</g>
					</g>
				</g>
			</g>
			<g>
				<g>
					<g>
						<g>
							<g>
								<g>
									<g>
										<g>
											<g>
												<g>
													<g>
														<g>
															<g>
																<g>
																	<defs>
																		<polygon id="SVGID_5_" points="408.6,168.2 403,169.6 410.6,169.6 418.7,164 418.7,159.5 396,159.4 
																																					"/>
																	</defs>
																	<clipPath id="SVGID_6_">
																		<use xlink:href="#SVGID_5_"  style="overflow:visible;"/>
																	</clipPath>
																	<path style="clip-path:url(#SVGID_6_);fill:none;stroke:#5FB356;stroke-width:0.2263;stroke-linecap:round;" d="
																		M407.5,167.9c1.8,1,4.4-0.2,4.2,0.7c-0.1,0.8-2.8,1.2-2.8,1.2"/>
																</g>
															</g>
														</g>
													</g>
												</g>
											</g>
										</g>
									</g>
								</g>
							</g>
						</g>
					</g>
				</g>
			</g>
			<g>
				<g>
					<g>
						<g>
							<g>
								<g>
									<g>
										<g>
											<g>
												<g>
													<g>
														<g>
															<g>
																<g>
																	<defs>
																		<polygon id="SVGID_7_" points="408.6,168.2 403,169.6 410.6,169.6 418.7,164 418.7,159.5 396,159.4 
																																					"/>
																	</defs>
																	<clipPath id="SVGID_8_">
																		<use xlink:href="#SVGID_7_"  style="overflow:visible;"/>
																	</clipPath>
																	<path style="clip-path:url(#SVGID_8_);fill:none;stroke:#50B061;stroke-width:0.2263;stroke-linecap:round;" d="
																		M406.6,167.2c2.3,1.3,5.9-0.3,5.7,1c-0.2,1.1-3.7,1.6-3.7,1.6"/>
																</g>
															</g>
														</g>
													</g>
												</g>
											</g>
										</g>
									</g>
								</g>
							</g>
						</g>
					</g>
				</g>
			</g>
			<g>
				<g>
					<g>
						<g>
							<g>
								<g>
									<g>
										<g>
											<g>
												<g>
													<g>
														<g>
															<g>
																<g>
																	<defs>
																		<polygon id="SVGID_9_" points="408.6,168.2 403,169.6 410.6,169.6 418.7,164 418.7,159.5 396,159.4 
																																					"/>
																	</defs>
																	<clipPath id="SVGID_10_">
																		<use xlink:href="#SVGID_9_"  style="overflow:visible;"/>
																	</clipPath>
																	<path style="clip-path:url(#SVGID_10_);fill:none;stroke:#44AF6E;stroke-width:0.2263;stroke-linecap:round;" d="
																		M405.7,166.6c2.9,1.7,7.3-0.4,7,1.2c-0.2,1.3-4.7,2-4.7,2"/>
																</g>
															</g>
														</g>
													</g>
												</g>
											</g>
										</g>
									</g>
								</g>
							</g>
						</g>
					</g>
				</g>
			</g>
			<g>
				<g>
					<g>
						<g>
							<g>
								<g>
									<g>
										<g>
											<g>
												<g>
													<g>
														<g>
															<g>
																<g>
																	<defs>
																		<polygon id="SVGID_11_" points="408.6,168.2 403,169.6 410.6,169.6 418.7,164 418.7,159.5 396,159.4 
																																					"/>
																	</defs>
																	<clipPath id="SVGID_12_">
																		<use xlink:href="#SVGID_11_"  style="overflow:visible;"/>
																	</clipPath>
																	<path style="clip-path:url(#SVGID_12_);fill:none;stroke:#2EAD7A;stroke-width:0.2263;stroke-linecap:round;" d="
																		M404.7,165.9c3.5,2,8.7-0.5,8.5,1.4c-0.3,1.6-5.6,2.4-5.6,2.4"/>
																</g>
															</g>
														</g>
													</g>
												</g>
											</g>
										</g>
									</g>
								</g>
							</g>
						</g>
					</g>
				</g>
			</g>
			<g>
				<g>
					<g>
						<g>
							<g>
								<g>
									<g>
										<g>
											<g>
												<g>
													<g>
														<g>
															<g>
																<g>
																	<defs>
																		<polygon id="SVGID_13_" points="408.6,168.2 403,169.6 410.6,169.6 418.7,164 418.7,159.5 396,159.4 
																																					"/>
																	</defs>
																	<clipPath id="SVGID_14_">
																		<use xlink:href="#SVGID_13_"  style="overflow:visible;"/>
																	</clipPath>
																	<path style="clip-path:url(#SVGID_14_);fill:none;stroke:#15AC85;stroke-width:0.2263;stroke-linecap:round;" d="
																		M403.7,165.3c4.1,2.3,10.2-0.5,9.9,1.7c-0.3,1.9-6.6,2.8-6.6,2.8"/>
																</g>
															</g>
														</g>
													</g>
												</g>
											</g>
										</g>
									</g>
								</g>
							</g>
						</g>
					</g>
				</g>
			</g>
			<g>
				<g>
					<g>
						<g>
							<g>
								<g>
									<g>
										<g>
											<g>
												<g>
													<g>
														<g>
															<g>
																<g>
																	<defs>
																		<polygon id="SVGID_15_" points="408.6,168.2 403,169.6 410.6,169.6 418.7,164 418.7,159.5 396,159.4 
																																					"/>
																	</defs>
																	<clipPath id="SVGID_16_">
																		<use xlink:href="#SVGID_15_"  style="overflow:visible;"/>
																	</clipPath>
																	<path style="clip-path:url(#SVGID_16_);fill:none;stroke:#00AB90;stroke-width:0.2263;stroke-linecap:round;" d="
																		M402.8,164.6c4.6,2.6,11.7-0.6,11.3,1.9c-0.3,2.2-7.5,3.3-7.5,3.3"/>
																</g>
															</g>
														</g>
													</g>
												</g>
											</g>
										</g>
									</g>
								</g>
							</g>
						</g>
					</g>
				</g>
			</g>
			<g>
				<g>
					<g>
						<g>
							<g>
								<g>
									<g>
										<g>
											<g>
												<g>
													<g>
														<g>
															<g>
																<g>
																	<defs>
																		<polygon id="SVGID_30_" points="408.6,168.2 403,169.6 410.6,169.6 418.7,164 418.7,159.5 396,159.4 
																																					"/>
																	</defs>
																	<clipPath id="SVGID_31_">
																		<use xlink:href="#SVGID_30_"  style="overflow:visible;"/>
																	</clipPath>
																	<path style="clip-path:url(#SVGID_31_);fill:none;stroke:#00A99B;stroke-width:0.2263;stroke-linecap:round;" d="
																		M401.9,163.9c5.2,2.9,13.1-0.7,12.7,2.2c-0.4,2.5-8.4,3.6-8.4,3.6"/>
																</g>
															</g>
														</g>
													</g>
												</g>
											</g>
										</g>
									</g>
								</g>
							</g>
						</g>
					</g>
				</g>
			</g>
			<g>
				<g>
					<g>
						<g>
							<g>
								<g>
									<g>
										<g>
											<g>
												<g>
													<g>
														<g>
															<g>
																<g>
																	<defs>
																		<polygon id="SVGID_32_" points="408.6,168.2 403,169.6 410.6,169.6 418.7,164 418.7,159.5 396,159.4 
																																					"/>
																	</defs>
																	<clipPath id="SVGID_34_">
																		<use xlink:href="#SVGID_32_"  style="overflow:visible;"/>
																	</clipPath>
																	<path style="clip-path:url(#SVGID_34_);fill:none;stroke:#00A8A5;stroke-width:0.2263;stroke-linecap:round;" d="
																		M400.9,163.3c5.8,3.3,14.6-0.8,14.1,2.4c-0.4,2.7-9.3,4.1-9.3,4.1"/>
																</g>
															</g>
														</g>
													</g>
												</g>
											</g>
										</g>
									</g>
								</g>
							</g>
						</g>
					</g>
				</g>
			</g>
			<g>
				<g>
					<g>
						<g>
							<g>
								<g>
									<g>
										<g>
											<g>
												<g>
													<g>
														<g>
															<g>
																<g>
																	<defs>
																		<polygon id="SVGID_35_" points="408.6,168.2 403,169.6 410.6,169.6 418.7,164 418.7,159.5 396,159.4 
																																					"/>
																	</defs>
																	<clipPath id="SVGID_36_">
																		<use xlink:href="#SVGID_35_"  style="overflow:visible;"/>
																	</clipPath>
																	<path style="clip-path:url(#SVGID_36_);fill:none;stroke:#00A6AF;stroke-width:0.2263;stroke-linecap:round;" d="
																		M400,162.7c6.4,3.6,16.1-0.9,15.5,2.7c-0.5,3-10.3,4.4-10.3,4.4"/>
																</g>
															</g>
														</g>
													</g>
												</g>
											</g>
										</g>
									</g>
								</g>
							</g>
						</g>
					</g>
				</g>
			</g>
			<g>
				<g>
					<g>
						<g>
							<g>
								<g>
									<g>
										<g>
											<g>
												<g>
													<g>
														<g>
															<g>
																<g>
																	<defs>
																		<polygon id="SVGID_37_" points="408.6,168.2 403,169.6 410.6,169.6 418.7,164 418.7,159.5 396,159.4 
																																					"/>
																	</defs>
																	<clipPath id="SVGID_38_">
																		<use xlink:href="#SVGID_37_"  style="overflow:visible;"/>
																	</clipPath>
																	<path style="clip-path:url(#SVGID_38_);fill:none;stroke:#00A5B8;stroke-width:0.2263;stroke-linecap:round;" d="
																		M399,162c7,3.9,17.5-1,17,2.9c-0.5,3.3-11.3,4.9-11.3,4.9"/>
																</g>
															</g>
														</g>
													</g>
												</g>
											</g>
										</g>
									</g>
								</g>
							</g>
						</g>
					</g>
				</g>
			</g>
			<g>
				<g>
					<g>
						<g>
							<g>
								<g>
									<g>
										<g>
											<g>
												<g>
													<g>
														<g>
															<g>
																<g>
																	<defs>
																		<polygon id="SVGID_39_" points="408.6,168.2 403,169.6 410.6,169.6 418.7,164 418.7,159.5 396,159.4 
																																					"/>
																	</defs>
																	<clipPath id="SVGID_40_">
																		<use xlink:href="#SVGID_39_"  style="overflow:visible;"/>
																	</clipPath>
																	<path style="clip-path:url(#SVGID_40_);fill:none;stroke:#00A4C1;stroke-width:0.2263;stroke-linecap:round;" d="
																		M398.1,161.4c7.5,4.3,19-1,18.3,3.1c-0.5,3.5-12.2,5.2-12.2,5.2"/>
																</g>
															</g>
														</g>
													</g>
												</g>
											</g>
										</g>
									</g>
								</g>
							</g>
						</g>
					</g>
				</g>
			</g>
			<g>
				<g>
					<g>
						<g>
							<g>
								<g>
									<g>
										<g>
											<g>
												<g>
													<g>
														<g>
															<g>
																<g>
																	<defs>
																		<polygon id="SVGID_41_" points="408.6,168.2 403,169.6 410.6,169.6 418.7,164 418.7,159.5 396,159.4 
																																					"/>
																	</defs>
																	<clipPath id="SVGID_42_">
																		<use xlink:href="#SVGID_41_"  style="overflow:visible;"/>
																	</clipPath>
																	<path style="clip-path:url(#SVGID_42_);fill:none;stroke:#00A2C9;stroke-width:0.2263;stroke-linecap:round;" d="
																		M397.1,160.7c8.1,4.6,20.4-1.1,19.7,3.4c-0.6,3.8-13.1,5.7-13.1,5.7"/>
																</g>
															</g>
														</g>
													</g>
												</g>
											</g>
										</g>
									</g>
								</g>
							</g>
						</g>
					</g>
				</g>
			</g>
			<g>
				<g>
					<g>
						<g>
							<g>
								<g>
									<g>
										<g>
											<g>
												<g>
													<g>
														<g>
															<g>
																<g>
																	<defs>
																		<polygon id="SVGID_43_" points="408.6,168.2 403,169.6 410.6,169.6 418.7,164 418.7,159.5 396,159.4 
																																					"/>
																	</defs>
																	<clipPath id="SVGID_44_">
																		<use xlink:href="#SVGID_43_"  style="overflow:visible;"/>
																	</clipPath>
																	<path style="clip-path:url(#SVGID_44_);fill:none;stroke:#00A1D2;stroke-width:0.2263;stroke-linecap:round;" d="
																		M396.2,160.1c8.7,4.9,21.9-1.2,21.2,3.6c-0.6,4.1-14,6.1-14,6.1"/>
																</g>
															</g>
														</g>
													</g>
												</g>
											</g>
										</g>
									</g>
								</g>
							</g>
						</g>
					</g>
				</g>
			</g>
			<g>
				<g>
					<g>
						<g>
							<g>
								<g>
									<g>
										<g>
											<g>
												<g>
													<g>
														<g>
															<g>
																<g>
																	<defs>
																		<polygon id="SVGID_45_" points="408.6,168.2 403,169.6 410.6,169.6 418.7,164 418.7,159.5 396,159.4 
																																					"/>
																	</defs>
																	<clipPath id="SVGID_46_">
																		<use xlink:href="#SVGID_45_"  style="overflow:visible;"/>
																	</clipPath>
																	<path style="clip-path:url(#SVGID_46_);fill:none;stroke:#009FDA;stroke-width:0.2263;stroke-linecap:round;" d="
																		M395.3,159.4c9.3,5.2,23.4-1.3,22.6,3.9c-0.6,4.3-15,6.5-15,6.5"/>
																</g>
															</g>
														</g>
													</g>
												</g>
											</g>
										</g>
									</g>
								</g>
							</g>
						</g>
					</g>
				</g>
			</g>
			<g>
				<g>
					<g>
						<g>
							<g>
								<g>
									<g>
										<g>
											<g>
												<g>
													<g>
														<g>
															<g>
																<g>
																	<defs>
																		<polygon id="SVGID_49_" points="408.6,168.2 403,169.6 410.6,169.6 418.7,164 418.7,159.5 396,159.4 
																																					"/>
																	</defs>
																	<clipPath id="SVGID_50_">
																		<use xlink:href="#SVGID_49_"  style="overflow:visible;"/>
																	</clipPath>
																	<path style="clip-path:url(#SVGID_50_);fill:none;stroke:#009EE2;stroke-width:0.2263;stroke-linecap:round;" d="
																		M394.3,158.8c9.9,5.5,24.9-1.3,24,4.1c-0.7,4.6-15.9,6.9-15.9,6.9"/>
																</g>
															</g>
														</g>
													</g>
												</g>
											</g>
										</g>
									</g>
								</g>
							</g>
						</g>
					</g>
				</g>
			</g>
		</g>
		<polygon style="fill:#0E2243;" points="378.1,172.8 376.6,177.3 375.2,172.8 374.1,172.8 376.2,178.7 377.1,178.7 378.6,174.3 
			380.1,178.7 380.9,178.7 382.9,172.8 381.9,172.8 380.5,177.3 379,172.8 		"/>
		<g>
			<path style="fill:#0E2243;" d="M384.6,179c-0.8,0-1.5-0.4-1.5-1.3l0,0c0-0.9,0.7-1.3,1.8-1.3c0.5,0,0.7,0.3,1.2,0.3l0,0v-0.3
				c0-0.6-0.4-1-1.1-1c-0.5,0-0.9,0.1-1.3,0.3l-0.3-0.7c0.5-0.2,1-0.4,1.7-0.4c1.3,0,2,0.6,2,1.9v2.3H386v-0.3l-0.1,0.1
				C385.8,178.8,385.3,179,384.6,179 M385.1,176.9c-0.7,0-1.1,0.3-1.1,0.7l0,0c0,0.4,0.3,0.7,0.9,0.7c0.7,0,1.2-0.4,1.2-1V177l0,0
				C386.1,176.9,385.5,176.9,385.1,176.9"/>
			<path style="fill:#0E2243;" d="M389.5,179c-0.9,0-1.3-0.4-1.3-1.3v-2.3h-0.5v-1.1h0.5v-1.1h1.1v1.1h1.6v1.1h-1.6v2.1
				c0,0.4,0.2,0.6,0.5,0.6c0.2,0,0.5-0.1,0.5-0.1v0.7C390.4,178.9,389.9,179,389.5,179"/>
			<path style="fill:#0E2243;" d="M393.7,179c-1.3,0-2.3-1-2.3-2.3s0.9-2.3,2.2-2.3c1.5,0,2.1,1.3,2.1,2.4c0,0.1,0,0.2,0,0.2l0,0
				h-3.2v0.1c0,0.7,0.6,1.2,1.3,1.2c0.5,0,0.8-0.2,1.2-0.5l0.5,0.5C395.1,178.8,394.5,179,393.7,179 M393.6,175.2
				c-0.6,0-1.1,0.5-1.1,1.2v0.1h2.1v-0.1C394.7,175.7,394.3,175.2,393.6,175.2"/>
			<path style="fill:#0E2243;" d="M396.8,178.9v-4.5h1.1v1.1c0-0.5,0.5-1.1,1.3-1.1h0.3v1l0,0c0,0-1.6,0.7-1.6,1.8v1.4h-1.1V178.9
				L396.8,178.9z"/>
			<path style="fill:#0E2243;" d="M400.5,178.7v-3.2H400v-1.1h0.5v-0.3c0-1,0.4-1.4,1.3-1.4c0.4,0,0.8,0.1,0.8,0.1v0.8
				c0-0.1-0.3-0.1-0.5-0.1c-0.4,0-0.6,0.3-0.6,0.7v0.2h1.1v1.1h-1.1v3.2L400.5,178.7L400.5,178.7z"/>
			<path style="fill:#0E2243;" d="M403.7,178.9v-4.5h1.1v1.1c0-0.5,0.5-1,1.6-1l0,0v0.9l0,0c0,0-1.6,0.7-1.6,1.8v1.4h-1.1V178.9z"/>
			<path style="fill:#0E2243;" d="M409.3,179c-1.3,0-2.3-1-2.3-2.3s1-2.3,2.3-2.3c1.3,0,2.3,1,2.3,2.3
				C411.7,178,410.7,179,409.3,179 M409.3,175.3c-0.8,0-1.4,0.6-1.4,1.5s0.6,1.5,1.4,1.5c0.8,0,1.4-0.6,1.4-1.5
				C410.8,175.9,410.2,175.3,409.3,175.3"/>
			<path style="fill:#0E2243;" d="M415.5,178.7v-2.2c0-0.7-0.4-1.1-1-1.1s-1.1,0.5-1.1,1.2v2.2h-0.5v-4.3h0.5v0.9l0.2-0.1
				c0.4-0.5,0.9-0.8,1.4-0.8c1,0,1.6,0.6,1.6,1.7v2.6h-1.1C415.5,178.8,415.5,178.7,415.5,178.7z"/>
			<path style="fill:#0E2243;" d="M419.4,179c-0.9,0-1.3-0.4-1.3-1.3v-2.3h-0.5v-1.1h0.5v-1.1h1.1v1.1h1.1v1.1h-1.1v2.1
				c0,0.4,0.2,0.6,0.5,0.6c0.2,0,0.5-0.1,0.5-0.1v0.7C420.3,178.9,419.8,179,419.4,179"/>
			<path style="fill:#0E2243;" d="M426.9,179c-1.7,0-3-1.3-3-3c0-1.8,1.3-3,3-3c1.2,0,1.8,0.4,2.3,0.9l-0.6,0.7
				c-0.5-0.5-1.1-0.7-1.7-0.7c-1.1,0-2,0.9-2,2.1s0.9,2.2,2,2.2c0.7,0,1.2-0.3,1.7-0.7l0.6,0.6C428.5,178.7,427.8,179,426.9,179"/>
		</g>
		<path style="fill:#0E2243;" d="M430.4,174.4h0.5v4.3h-0.5V174.4z M430.2,172.9h1v0.9h-1V172.9z"/>
		<path style="fill:#0E2243;" d="M433.8,179c-0.9,0-1.3-0.4-1.3-1.3v-2.3H432v-1.1h0.5v-1.1h1.1v1.1h1.6v1.1h-1.6v2.1
			c0,0.4,0.2,0.6,0.5,0.6c0.2,0,0.5-0.1,0.5-0.1v0.7C434.7,178.9,434.1,179,433.8,179"/>
		<path style="fill:#0E2243;" d="M437,180.3c-0.4,0-0.7-0.1-1-0.3l0.3-0.7c0.2,0.1,0.4,0.2,0.6,0.2c0.3,0,0.5-0.2,0.7-0.6l0,0
			l-1.9-4.5h1l1.3,3.4l1.2-3.4h1l-1.8,4.6C438.1,179.9,437.7,180.3,437,180.3"/>
	</g>
</g>
<g id="app_x5F_Oman--button">
	<rect id="tap_x5F_area" x="711.3" y="298" style="fill:#FFFFFF;fill-opacity:0;" width="84.1" height="62.7"/>
	<path id="Line-4-Copy-4" style="fill:none;stroke:#8A1538;stroke-width:1.0667;" d="M725.3,332.3H697"/>
	<rect id="app_x5F_Oman--tap" x="681" y="322.7" style="fill:#FFFFFF;fill-opacity:0;" width="20" height="20"/>
	<g transform="translate(1260.000000, 608.000000)">
		<polygon id="Fill-124_14_" style="fill:#8A1538;" points="-575.2,-282.7 -575.2,-269.9 -571.1,-269.9 -569,-267.6 -566.9,-269.9 
			-562.9,-269.9 -562.9,-282.7 		"/>
		<g id="Group_14_" transform="translate(5.000000, 5.000000)">
			<path id="Path_28_" style="fill:#FFFFFF;" d="M-574.3-284.5c-2,0-3.3,1.2-3.3,3v3.4h1.1c0,0,0-1.8,0-3.4c0-1.7,1.3-2.8,2.5-3.1
				c0.1,0,0.1,0,0,0L-574.3-284.5L-574.3-284.5z"/>
			<path id="Path_29_" style="fill:#FFFFFF;" d="M-574-284.5c-0.2,0.1-0.3,0.1-0.6,0.3c-0.9,0.6-1.4,1.6-1.4,2.6c0,0.1,0,0.1,0,0.2
				l0,0v0.1v3.3h1.1v-3.4c0-0.2,0.2-0.4,0.3-0.5l0.5,0.5l0.5-0.5c0.2,0.1,0.3,0.3,0.3,0.5v3.4h1.1v-3.4c0-1.1-0.8-1.9-1.8-1.9
				c-0.3,0-0.5,0.1-0.6,0.2l0,0c0.2-0.3,0.6-0.4,1-0.4l0,0c0.1,0,0.1,0,0.2,0.1c1,0.2,1.7,1.1,1.7,2.1c0,0.1,0,0.1,0,0.1v3.3h1.6
				v-3.3c0-1.5-1-2.8-2.5-3.1c-0.1,0-0.2-0.1-0.2-0.1c-0.1,0-0.2-0.1-0.4-0.1C-573.6-284.6-573.8-284.6-574-284.5z"/>
		</g>
	</g>
	<g>
		<path style="fill:#002D74;" d="M736.4,326.3c0-0.4-0.3-0.7-0.7-0.7c-0.4,0-0.7,0.3-0.7,0.7s0.3,0.7,0.7,0.7
			C736.1,327.1,736.4,326.8,736.4,326.3 M776.7,331c0-0.4-0.3-0.7-0.7-0.7s-0.7,0.3-0.7,0.7s0.3,0.7,0.7,0.7
			C776.4,331.8,776.7,331.4,776.7,331 M735.5,320h-3.2v1.6h3.3c0.5,0,0.9-0.1,1.2,0.3c0.3,0.3,0.4,0.7,0.5,0.7h-2l0,0h-1
			c-1,0-1.8,0.5-2.4,1c-0.6,0.6-1,1.5-1,2.4c0,1,0.3,1.8,1,2.4c0.6,0.6,1.4,1,2.4,1h4.3v-1.6h-4.5c-0.5,0-0.9-0.2-1.2-0.5
			s-0.5-0.9-0.5-1.3c0-0.5,0.2-1,0.5-1.3s0.7-0.6,1.2-0.6h1.1l0,0h3.4v-1.4c0-0.8-0.3-1.4-0.9-1.9c-0.6-0.6-1.4-0.9-2.4-0.9
			 M775.5,329.6h1.1V320h-1.1V329.6z M757.7,326.9c0.2,0,0.4,1,0.8,1.3c0.7,0.7,1.6,1.3,2.7,1.3c0.1,0,0.1,0,0.2,0
			c1,0,1.9-0.5,2.7-1.3c0.4-0.4,0.7-0.9,0.9-1.4h5.4l0,0c1,0,1.6-0.2,2.3-0.9c0.6-0.6,0.9-1.4,0.9-2.4v-3.7H772v3.8
			c0,0.5,0,0.8-0.4,1.2c-0.4,0.3-0.6,0.4-1.1,0.4h-5.4v0.3c0-1.1-0.2-2-0.9-2.7c-0.7-0.7-1.5-1.2-2.6-1.2c-1.1-0.1-2,0.3-2.8,1.1
			s-1.1,1.7-1.1,2.8v-0.3h-10.1v-1.8l0,0c0-1-0.2-1.8-0.9-2.5c-0.6-0.7-1.4-1.1-2.3-1.1c-1-0.1-1.8,0.3-2.5,1s-1,1.5-1,2.6
			c0,1,0.3,1.7,1,2.4c0.6,0.7,1.5,1,2.4,1c0.1,0,0.1,0,0.2,0c0.1,0,0.2,0,0.3,0h1.6c-0.1,0-0.2,0.3-0.3,0.5c-0.3,0.3-0.6,0.6-1,0.6
			H741v1.6h4.1c0.8,0,1.5-0.5,2.1-1c0.4-0.4,0.7-1.1,0.9-1.6L757.7,326.9L757.7,326.9z M759.5,323.8c0.5-0.5,1-0.6,1.7-0.6h0.1l0,0
			c0.6,0,1.2,0.1,1.6,0.6c0.5,0.5,0.7,1,0.7,1.7s-0.2,1.3-0.7,1.8s-1.1,0.7-1.8,0.7l0,0c-0.6,0-1.2-0.3-1.7-0.7
			c-0.4-0.5-0.6-1-0.6-1.7C758.8,324.9,759,324.3,759.5,323.8 M743.9,325.3L743.9,325.3C743.8,325.3,743.8,325.3,743.9,325.3
			L743.9,325.3c-0.6,0-1.1-0.1-1.5-0.5c-0.4-0.4-0.6-0.9-0.5-1.4c0-0.6,0.2-1,0.6-1.3c0.4-0.4,0.9-0.5,1.4-0.5c0,0,0,0,0.1,0l0,0
			c0.5,0,1.1,0.1,1.5,0.5c0.4,0.4,0.2,0.8,0.7,1.4v0.1v1.8l0,0l0,0h-1.9L743.9,325.3L743.9,325.3z M775.5,339.2
			c0,0.5-0.3,0.9-0.7,1.2s-0.9,0.5-1.5,0.5v1.5c1.1,0,1.7-0.3,2.3-1c0.6-0.6,0.9-1.4,0.9-2.5v-6.2h-1.1L775.5,339.2L775.5,339.2z
			 M773.3,332.8h-1.6v4.4c0,0.5-0.1,0.9-0.4,1.2c-0.4,0.3-0.8,0.6-1.3,0.6s-1.1-0.3-1.4-0.6c-0.4-0.4-0.6-0.7-0.6-1.2v-4.4h-1.1v4.3
			c0,1,0.2,1.8,0.9,2.5c0.6,0.6,1.4,1,2.3,1c1,0,1.7-0.3,2.3-1c0.6-0.6,0.9-1.4,0.9-2.5L773.3,332.8L773.3,332.8z M761.3,332.7
			c-1.1-0.1-2,0.3-2.8,1.1s-1.2,1.7-1.2,2.8s0.4,1.8,1.1,2.6c0.7,0.7,1.6,1,2.7,1c0.1,0,0.1,0,0.2,0c1,0,1.9-0.2,2.7-1
			s1.2-1.7,1.2-2.7c0-1.1-0.4-1.9-1.1-2.7C763.3,333.1,762.3,332.7,761.3,332.7 M762.9,338.4c-0.5,0.5-1.1,0.7-1.8,0.7l0,0
			c-0.6,0-1.2-0.3-1.7-0.8s-0.7-1.1-0.6-1.8c0-0.7,0.3-1.4,0.7-1.9c0.5-0.5,1-0.8,1.7-0.8h0.1l0,0c0.6,0,1.2,0.3,1.7,0.8
			s0.7,1.1,0.7,1.8C763.6,337.2,763.4,337.9,762.9,338.4 M740.3,340.3h1.6v-9.1h-1.6V340.3z M735,332.7c-1.1-0.1-2,0.3-2.8,1.1
			s-1.2,1.7-1.2,2.8s0.4,1.8,1.1,2.6c0.7,0.7,1.6,1.1,2.7,1.1c0.1,0,0.1,0,0.2,0c0.8,0,1.7-0.1,2.2-0.5v0.5h1.6v-3.6
			c0-1-0.3-2-1-2.7C736.9,333.1,736.1,332.7,735,332.7 M736.5,338.4c-0.5,0.5-1,0.8-1.7,0.8c-0.1,0-0.1,0-0.1,0
			c-0.6,0-1.2-0.3-1.7-0.8s-0.7-1.1-0.6-1.8c0-0.7,0.3-1.2,0.7-1.7c0.5-0.5,1.1-0.7,1.7-0.7c0.6,0,1.2,0.2,1.7,0.7s0.7,1.1,0.7,1.7
			C737.3,337.3,737,337.9,736.5,338.4 M752.2,331.2c-0.1,0-0.2-0.1-0.3-0.1c-0.2,0-0.3-0.1-0.5-0.1c-0.4,0-0.6,0.1-0.9,0.2
			c-0.2,0.1-0.5,0.2-0.8,0.4c-1.4,0.9-1.9,2.5-1.9,3.9v4.7h1.6v-4.6c0-0.3,0.2-0.6,0.5-0.8l0.7,0.8l0.6-0.8c0.2,0.2,0.3,0.5,0.3,0.8
			v4.6h1.6v-4.6c0-3-2.7-3-3.6-2.7c1.2-1.4,4.7-0.5,4.7,2.7v4.6h1.6v-4.6C755.7,333.4,754.4,331.7,752.2,331.2 M761.3,342.8
			c0.1,0,0.2-0.1,0.2-0.2c0-0.1-0.1-0.2-0.2-0.2c-0.1,0-0.2,0.1-0.2,0.2S761.2,342.8,761.3,342.8 M761.9,342.8
			c0.1,0,0.2-0.1,0.2-0.2c0-0.1-0.1-0.2-0.2-0.2c-0.1,0-0.2,0.1-0.2,0.2C761.7,342.7,761.8,342.8,761.9,342.8 M769.2,343.3
			c-0.7,0.1-1.2,0.7-1.2,1.4c0,0.1,0-0.1,0.1,0.4h-1.4c0.1-0.5-0.2-0.4-0.2-0.5v-1l0,0v0.9c0,0.4-0.3,0.6-0.5,0.6h-0.4
			c0.1-0.5-0.1-0.3-0.1-0.5v-1.1H765v1c0,0.4,0.2,0.6-0.1,0.6h-0.5c0,0,0-0.3,0-0.4v-1.2h-0.5v1.1c0,0.3,0,0.5-0.2,0.5h-0.9h-0.4
			c-0.1,0-0.2,0-0.3-0.1c0.2-0.1,0.3-0.2,0.4-0.4c0.1-0.2,0.2-0.4,0.2-0.6c0-0.3-0.1-0.5-0.3-0.6c-0.2-0.2-0.4-0.3-0.7-0.3
			s-0.5,0.1-0.7,0.3s-0.3,0.4-0.3,0.6s0.1,0.4,0.2,0.6c0.1,0.2,0.2,0.3,0.4,0.4c-0.1,0.1-0.2,0.1-0.3,0.1h-1.1h-1.8v-0.2
			c0-1-0.3-1.5-1-1.5c-0.5,0-1.2,0.3-1.2,0.9v-1.9h-0.5v1.5l0,0v1.2h-0.5v0.5h5h0.9c0.3,0,0.4,0,0.5,0c0.2-0.5,0.3-0.1,0.5-0.2
			c0.2,0.1,0.3-0.3,0.5,0.2c0.1,0,0.3,0,0.5,0h0.1h1.3h4.2c0.3,0,0.6,0.5,1.1,0.4c0.7-0.1,1.2-0.7,1.2-1.4
			C770.5,343.8,769.9,343.2,769.2,343.3 M757.3,344.5h-1.8c0.2-0.5,0.8-1.1,1.3-1.1c0.4,0,0.7,0.3,0.7,1
			C757.4,344.5,757.4,344.5,757.3,344.5 M761.6,344.6c-0.2-0.1-0.3-0.2-0.4-0.3c-0.1-0.1-0.1-0.3-0.1-0.4c0-0.3,0.2-0.5,0.5-0.5
			c0.2,0,0.3,0.1,0.4,0.2c0.1,0.1,0.2,0.2,0.2,0.4s-0.1,0.3-0.2,0.4C761.9,344.4,761.8,344.5,761.6,344.6 M769.3,345.3
			c-0.5,0-0.9-0.4-0.9-0.8c0-0.5,0.4-0.9,0.8-0.9c0.5,0,0.9,0.4,0.9,0.8C770.1,345,769.7,345.3,769.3,345.3"/>
		<path style="fill:#00A6D6;" d="M750.6,331.2C750.7,331.2,750.6,331.2,750.6,331.2c-1.9,0-3.9,2-3.9,4.4v4.7h-1.6v-4.7
			c0-2.6,2.2-4.4,5.1-4.4H750.6z M752,342.9v1.1c0,0.2,0.2,0.4,0.4,0.6c0.2,0.2,0.2,0.3,0.7,0.3v0.4c-0.5,0-0.8-0.1-1.1-0.4
			c-0.3-0.3-0.5-0.5-0.5-0.9v-1.7h0.5V342.9h1.1l0,0H752L752,342.9z M744.6,345.3c-0.3,0-0.6-0.1-0.9-0.3l0.3-0.3
			c0.2,0.2,0.4,0.3,0.6,0.3c0.3,0,0.4-0.2,0.4-0.4s-0.3-0.5-0.5-0.5h-0.1c-0.3,0-0.7-0.2-0.7-0.6c0-0.4,0.4-0.6,0.9-0.6
			c0.3,0,0.5,0.1,0.8,0.3l-0.3,0.3c-0.2-0.1-0.3-0.2-0.5-0.2s-0.4,0.2-0.4,0.4s0.3-0.1,0.5,0.4h0.1c0.4,0,0.7,0.2,0.7,0.6
			S745.2,345.3,744.6,345.3 M746,344.1c0-0.4,0.1-0.6,0.4-0.9s0.5-0.4,0.9-0.4c0.3,0,0.6,0.1,0.9,0.4l-0.3,0.3
			c-0.2-0.2-0.4-0.3-0.6-0.3s-0.4,0.1-0.6,0.3s-0.3,0.4-0.3,0.6s0.1,0.4,0.3,0.6c0.2,0.2,0.4,0.3,0.6,0.3s0.4-0.1,0.6-0.3l0.3,0.3
			c-0.3,0.3-0.5,0.4-0.9,0.4c-0.4,0-0.6-0.1-0.9-0.4C746.1,344.7,746,344.4,746,344.1L746,344.1z M743.3,344c0,0.5-0.1,0.7-0.3,0.9
			c-0.2,0.2-0.5,0.4-0.7,0.4c-0.3,0-0.4-0.1-0.6-0.3s-0.2-0.5-0.2-0.7v-1.2l0,0v1.2c0,0.2,0.2,0.3,0.3,0.5c0.1,0.1,0.3,0.2,0.5,0.2
			s0.3-0.1,0.5-0.2c0.1-0.1,0.2-0.3,0.2-0.5V343h0.5v1.1L743.3,344L743.3,344z M740.3,343.7c0-0.2-0.1-0.3-0.2-0.4
			c-0.1-0.1-0.2-0.2-0.4-0.2s-0.3,0.1-0.3,0.2c-0.1,0.1-0.1,0.3-0.1,0.4v1.3h-0.5v-1.3c0-0.2,0-0.3-0.1-0.4
			c-0.1-0.1-0.2-0.2-0.3-0.2c-0.2,0-0.3,0.1-0.4,0.2c-0.1,0.1-0.2,0.3-0.2,0.4v1.3h-0.5v-1.3c0-0.3,0.2-0.5,0.3-0.7
			c0.2-0.2,0.5-0.3,0.7-0.3c0.3,0,0.6,0.1,0.8,0.4c0.2-0.2,0.4-0.4,0.7-0.4c0.3,0,0.6,0.1,0.8,0.3s0.3,0.4,0.3,0.7v1.3h-0.5
			L740.3,343.7L740.3,343.7z M750.9,344.9c0,0.3-0.6,0.4-1,0.4c-0.3,0-0.7-0.1-0.9-0.4c-0.2-0.3-0.4-0.5-0.4-0.9s0.1-0.6,0.3-0.9
			c0.3-0.3,0.5-0.4,0.9-0.4c0.4,0,0.5,0.1,0.8,0.4s0.3,0.5,0.3,0.9v1.1l0,0V344.9L750.9,344.9z M750.7,344.1c0-0.2-0.1-0.4-0.3-0.6
			c-0.2-0.2-0.4-0.3-0.6-0.3s-0.4,0.1-0.6,0.3s-0.3,0.4-0.3,0.6c0,0.2,0.1,0.4,0.3,0.6c0.2,0.2,0.4,0.3,0.6,0.3s0.4-0.1,0.6-0.3
			C750.6,344.5,750.7,344.3,750.7,344.1"/>
	</g>
</g>
<g id="app_x5F_UAE--button">
	<polygon id="tap_x5F_area_1_" style="fill:#FFFFFF;fill-opacity:0;" points="651.5,368.5 646.8,500.8 749,500.8 739.3,368.5 	"/>
	<g>
		<path id="Line-4-Copy" style="fill:none;stroke:#8A1538;stroke-width:1.0667;" d="M664,282.1v168.5"/>
		<path id="Line-4-Copy-2" style="fill:none;stroke:#8A1538;stroke-width:1.0667;" d="M678.4,450.7h-14.9"/>
		<path id="Line-4-Copy-3" style="fill:none;stroke:#8A1538;stroke-width:1.0667;" d="M678.4,404.3h-14.9"/>
	</g>
	<g transform="translate(1209.000000, 521.000000)">
		<polygon id="Fill-124_13_" style="fill:#8A1538;" points="-551.4,-241.5 -551.4,-228.7 -547,-228.7 -544.9,-226.4 -542.8,-228.7 
			-538.6,-228.7 -538.6,-241.5 		"/>
		<g id="Group_13_" transform="translate(5.000000, 5.000000)">
			<path id="Path_26_" style="fill:#FFFFFF;" d="M-550.2-243.9c-2,0-3.6,1.7-3.6,3.5v3.4h1.1c0,0,0-1.8,0-3.4c0-1.7,1.4-3,2.7-3.3
				c0.1,0,0.2-0.2,0.2-0.2H-550.2z"/>
			<path id="Path_27_" style="fill:#FFFFFF;" d="M-549.9-243.4c-0.2,0.1-0.2,0.1-0.4,0.3c-0.9,0.6-1.2,1.6-1.2,2.6
				c0,0.1,0,0.1,0,0.2l0,0v0.1v3.4h1.1v-3.4c0-0.2,0.1-0.4,0.2-0.5l0.5,0.5l0.6-0.5c0.2,0.1,0.3,0.3,0.3,0.5v3.4h1.1v-3.4
				c0-1.1-0.9-1.9-1.9-1.9c-0.3,0-0.5,0.1-0.7,0.2l0,0c0.2-0.3,0.6-0.4,1-0.4l0,0c0.1,0,0.3,0,0.4,0.1c1,0.2,1.8,1.1,1.8,2.1
				c0,0.1,0,0.1,0,0.1v3.3h1.1v-3.3c0-1.5-0.9-2.8-2.4-3.1c-0.1,0-0.1-0.1-0.2-0.1c-0.1,0-0.2-0.1-0.3-0.1
				C-549.5-243.5-549.7-243.4-549.9-243.4z"/>
		</g>
	</g>
	<rect id="app_x5F_UAE--tap" x="653.9" y="276.1" style="fill:#FFFFFF;fill-opacity:0;" width="20" height="20"/>
	<g>
		<g id="XMLID_211_">
			<path id="XMLID_224_" style="fill:#001C71;" d="M688,417.2c0,0-1,0.8-1.6,0.8c-0.6,0-1.1-0.2-1.5-0.6c-0.4-0.4-0.6-0.9-0.6-1.5
				s0.2-1.1,0.6-1.6c0.4-0.4,1-0.6,1.6-0.6c0.6,0,1.1,0.2,1.5,0.6c0.4,0.4,0.6,1,0.6,1.6v2.3h-0.5L688,417.2L688,417.2L688,417.2z
				 M688,415.8c0-0.4-0.2-0.7-0.4-1.1c-0.3-0.3-0.6-0.4-1.1-0.4s-0.7,0.2-1.1,0.4c-0.3,0.3-0.4,0.6-0.4,1.1s0.2,0.7,0.4,1.1
				c0.3,0.3,0.6,0.4,1.1,0.4s0.7-0.2,1.1-0.4C687.8,416.6,688,416.3,688,415.8"/>
			<rect id="XMLID_223_" x="689.6" y="411.7" style="fill:#001C71;" width="1.1" height="6.4"/>
			<polygon id="XMLID_222_" style="fill:#001C71;" points="696.1,414.4 693.9,414.4 693.9,413.3 697.4,413.3 695,417.1 697.6,417.1 
				697.6,418.1 693.7,418.1 			"/>
			<path id="XMLID_219_" style="fill:#001C71;" d="M701.7,417.1c-0.4,0-1,0.8-1.6,0.8c-0.6,0-1.1-0.2-1.5-0.6
				c-0.4-0.4-0.6-0.9-0.6-1.5s0.2-1.1,0.6-1.6c0.4-0.4,1-0.6,1.6-0.6c0.6,0,1.2,0.2,1.6,0.6s0.7,1,0.7,1.6v2.3h-1.1V417L701.7,417.1
				L701.7,417.1z M701.7,415.8c0-0.4-0.2-0.7-0.4-1.1c-0.3-0.3-0.6-0.4-1.1-0.4s-0.7,0.2-1.1,0.4c-0.3,0.3-0.4,0.6-0.4,1.1
				s0.2,0.7,0.4,1.1c0.3,0.3,0.6,0.4,1.1,0.4s0.7-0.2,1.1-0.4C701.5,416.6,701.7,416.3,701.7,415.8"/>
			<path id="XMLID_218_" style="fill:#001C71;" d="M706.7,415.5c0-0.3-0.2-0.6-0.4-0.8s-0.5-0.3-0.9-0.3c-0.4,0-0.7,0.1-0.9,0.3
				s-0.5,0.5-0.5,0.8v2.7h-0.5v-6.4h0.5v2.5c0.5-0.4,0.9-0.6,1.4-0.6s1,0.2,1.3,0.6c0.3,0.4,0.5,0.8,0.5,1.3v2.7h-0.5V415.5
				L706.7,415.5z"/>
			<path id="XMLID_215_" style="fill:#001C71;" d="M708.4,412.2h0.7v0.7h-0.7V412.2z M708.3,413.3h1.1v4.8h-1.1V413.3z"/>
			<path id="XMLID_212_" style="fill:#001C71;" d="M713.8,417.1c-0.4,0-1,0.8-1.6,0.8c-0.6,0-1.1-0.2-1.5-0.6
				c-0.4-0.4-0.6-0.9-0.6-1.5s0.2-1.1,0.6-1.6c0.4-0.4,1-0.6,1.6-0.6c0.6,0,1.3,0.2,1.7,0.6c0.4,0.4,0.7,1,0.7,1.6v2.3h-1.1V417
				L713.8,417.1L713.8,417.1z M713.8,415.8c0-0.4-0.2-0.7-0.4-1.1c-0.3-0.3-0.6-0.4-1.1-0.4c-0.4,0-0.7,0.2-1.1,0.4
				c-0.3,0.3-0.4,0.6-0.4,1.1s0.2,0.7,0.4,1.1c0.3,0.3,0.6,0.4,1.1,0.4c0.4,0,0.7-0.2,1.1-0.4C713.6,416.6,713.8,416.3,713.8,415.8"
				/>
		</g>
		<path id="XMLID_198_" style="fill:#001C71;" d="M686.3,403.8h-0.7v0.7h0.7V403.8z M712,407.8c0,0.3-0.2,0.6-0.4,0.9
			c-0.2,0.2-0.6,0.4-0.9,0.4h-3v-2.7h-0.5v3.5c0,0.3-0.1,0.6-0.3,0.8c-0.2,0.2-0.8,0.3-0.8,0.3v0.7c0.5,0,0.8-0.2,1.2-0.6
			c0.4-0.4,0.4-0.8,0.4-1.3v-0.3h3.1h-0.1c0.4,0,0.9-0.2,1.2-0.5c0.4-0.4,0.6-0.7,0.6-1.2v-4.6H712V407.8L712,407.8z M692.3,411.1
			h0.7v-0.7h-0.7V411.1z M687.4,403.8h-0.7v0.7h0.7V403.8z M707.9,405.1h-0.7v0.7h0.7V405.1z M693.3,411.1h0.7v-0.7h-0.7V411.1z
			 M700.4,405.3c-0.1,0-0.2-0.1-0.4-0.1c-0.1,0-0.2-0.2-0.3-0.2c-0.2,0-0.3-0.2-0.5-0.2c-0.1,0-0.1,0-0.2,0c-0.3,0-0.5,0.2-0.8,0.3
			c-0.3,0.1-0.7,0.3-0.7,0.5v0.8c0-0.2,0.4-0.3,0.7-0.4c0.3-0.1,0.5-0.1,0.8-0.1h0.1l0,0c0.7,0,1.3,0.3,1.3,0.3
			c0.7,0.4,1.2,1.2,1.2,2.3c0,0.2,0,0-0.1,0.6h-1.3c0.2-0.5,0.3-0.6,0.3-1s-0.2-0.8-0.4-1.1c-0.3-0.3-0.6-0.5-1.1-0.5
			c-0.4,0-0.7,0.2-1.1,0.4c-0.4,0.2-0.4,0.7-0.4,1.1c0,0.4,0.1,0.5,0.4,1h-3.4c-0.3,0-0.5-0.1-0.7-0.3s-0.4-0.5-0.4-0.7
			c0,0,0,0.1,0,0v-2.7h-0.5c0,0,0,2.6,0,2.7c0,0.3-0.1,0.5-0.3,0.7c-0.2,0.2-0.5,0.3-0.8,0.3h-1.9l0,0c-0.3,0-0.6-0.1-0.8-0.3
			c-0.2-0.2-0.4-0.4-0.4-0.7l0,0c0,0,0-0.3,0-0.4v-0.2c0-0.6-0.1-1.1-0.5-1.6c-0.4-0.4-0.9-0.6-1.5-0.6c-0.6,0-1.1,0.2-1.6,0.6
			c-0.4,0.4-0.6,1-0.6,1.6s0.2,1.1,0.6,1.5c0.4,0.4,1,0.6,1.5,0.6c0.6,0,1.2-0.2,1.6-0.7c0,0,0.2-0.2,0.2-0.3l0.1,0.2
			c0.1,0.1,0.2,0.2,0.2,0.3c0.4,0.4,0.7,0.5,1.2,0.5v-0.1h2l0,0c0.4,0,0.9-0.2,1.2-0.5c0.1-0.1,0.2-0.1,0.2-0.2
			c0.1,0.1,0.1,0.1,0.2,0.2c0.3,0.3,0.6,0.5,1,0.5h7.9c0.1,0,0.2-0.7,0.2-1.1c0-0.8-0.2-1.5-0.6-2.1
			C701.5,405.9,701,405.5,700.4,405.3z M687.6,408.6c-0.3,0.3-0.6,0.4-1.1,0.4s-0.7-0.2-1.1-0.4c-0.3-0.3-0.4-0.6-0.4-1.1
			c0-0.4,0.2-0.7,0.4-1.1c0.3-0.3,0.6-0.4,1.1-0.4s0.7,0.2,1.1,0.4c0.3,0.3,0.4,0.6,0.4,1.1C688,407.9,687.8,408.3,687.6,408.6z
			 M699.6,408.6c-0.2,0.2-0.3,0.2-0.5,0.2c-0.2,0-0.4-0.1-0.5-0.2c-0.2-0.2-0.2-0.3-0.2-0.6c0-0.2,0.1-0.4,0.2-0.5
			c0.2-0.2,0.3-0.2,0.6-0.2c0.2,0,0.4,0.1,0.5,0.2c0.2,0.2,0.2,0.3,0.2,0.5C699.8,408.3,699.8,408.5,699.6,408.6z M704.5,409.6h0.5
			v-5.9h-0.5V409.6z M713.6,403.2v6.4h1.1v-6.4H713.6z"/>
		<g id="XMLID_71_">
			<g id="XMLID_87_">
				<path id="XMLID_197_" style="fill:#0075C9;" d="M684.4,423.5c0,0-0.1-0.3-0.2-0.4c-0.1-0.1-0.3-0.2-0.5-0.2
					c-0.2,0-0.2,0.1-0.4,0.2c-0.1,0.1-0.1,0.3-0.1,0.5v1.5h-0.5v-3.7h0.5v1.5c0-0.2,0.4-0.4,0.7-0.4c0.3,0,0.5,0.1,0.7,0.3
					s0.2,0.5,0.2,0.7v1.5h-0.5v-1.6L684.4,423.5L684.4,423.5z"/>
				<path id="XMLID_194_" style="fill:#0075C9;" d="M687.7,424.5c-0.3,0.5-0.6,0.5-1,0.5c-0.4,0-0.6-0.1-0.9-0.3
					c-0.3-0.3-0.4-0.6-0.4-0.9c0-0.4,0.1-0.7,0.4-0.9c0.3-0.3,0.6-0.4,0.9-0.4c0.4,0,0.7,0.1,0.9,0.4c0.3,0.3,0.4,0.6,0.4,0.9v1.3
					h-0.5v-0.5L687.7,424.5L687.7,424.5z M687.7,423.8c0-0.3-0.1-0.5-0.3-0.6c-0.2-0.2-0.4-0.3-0.6-0.3c-0.3,0-0.4,0.1-0.6,0.3
					s-0.3,0.4-0.3,0.6c0,0.3,0.1,0.5,0.3,0.6c0.2,0.2,0.4,0.3,0.6,0.3c0.3,0,0.4-0.1,0.6-0.3C687.6,424.2,687.7,424,687.7,423.8"/>
				<path id="XMLID_193_" style="fill:#0075C9;" d="M689.9,422.9c-0.2,0-0.4,0-0.5,0.2c-0.1,0.1-0.3,0.3-0.3,0.5v1.5h-0.5v-1.5
					c0-0.3,0.1-0.5,0.3-0.7c0.2-0.2,0.7-0.3,0.7-0.3v0.4L689.9,422.9L689.9,422.9z"/>
				<path id="XMLID_96_" style="fill:#0075C9;" d="M691.1,424.5c0,0.5-0.1,0.7-0.3,0.9s-0.7,0.5-0.7,0.5v-0.4c0,0,0.3-0.1,0.4-0.2
					c0.1-0.1,0.1-0.3,0.1-0.5v-2.3h0.5V424.5L691.1,424.5L691.1,424.5z M690.7,421.7h0.4v0.4h-0.4V421.7z"/>
				<path id="XMLID_91_" style="fill:#0075C9;" d="M693.9,424.5c-0.3,0.5-0.6,0.5-1,0.5c-0.4,0-0.6-0.1-0.9-0.3
					c-0.3-0.3-0.4-0.6-0.4-0.9c0-0.4,0.1-0.7,0.4-0.9c0.3-0.3,0.6-0.4,0.9-0.4c0.4,0,0.8,0.1,1,0.4c0.3,0.3,0.5,0.6,0.5,0.9v1.3
					h-0.5V424.5L693.9,424.5L693.9,424.5z M693.9,423.8c0-0.3-0.1-0.5-0.3-0.6c-0.2-0.2-0.4-0.3-0.6-0.3c-0.3,0-0.4,0.1-0.6,0.3
					s-0.3,0.4-0.3,0.6c0,0.3,0.1,0.5,0.3,0.6c0.2,0.2,0.4,0.3,0.6,0.3c0.3,0,0.4-0.1,0.6-0.3C693.8,424.2,693.9,424,693.9,423.8"/>
				<path id="XMLID_90_" style="fill:#0075C9;" d="M696.9,423.5c0,0-0.1-0.3-0.2-0.4c-0.1-0.1-0.3-0.2-0.5-0.2
					c-0.2,0-0.3,0.1-0.5,0.2c-0.1,0.1-0.2,0.3-0.2,0.5v1.5H695v-3.7h0.5v1.5c0.2-0.2,0.5-0.4,0.7-0.4c0.3,0,0.5,0.1,0.7,0.3
					c0.2,0.2,0.2,0.5,0.2,0.7v1.5h-0.5v-1.6L696.9,423.5L696.9,423.5z"/>
				<path id="XMLID_88_" style="fill:#0075C9;" d="M681,425.1c-0.3,0-0.6-0.1-0.9-0.3l0.3-0.3c0.2,0.2,0.4,0.3,0.6,0.3
					c0.3,0,0.4-0.1,0.4-0.3s-0.3-0.4-0.5-0.4h-0.1c-0.3,0-0.7-0.3-0.7-0.7s0.4-0.7,0.9-0.7c0.3,0,0.5,0.1,0.8,0.3l-0.3,0.3
					c-0.2-0.1-0.3-0.2-0.5-0.2c-0.3,0-0.4,0.1-0.4,0.3s0.3,0.3,0.5,0.3h0.1c0.4,0,0.7,0.3,0.7,0.8
					C681.9,424.7,681.5,425.1,681,425.1"/>
			</g>
			<g id="XMLID_72_">
				<path id="XMLID_86_" style="fill:#0075C9;" d="M702.4,422.3c0.2,0,0.3-0.1,0.3-0.3s-0.1-0.3-0.3-0.3c-0.2,0-0.3,0.1-0.3,0.3
					S702.2,422.3,702.4,422.3z"/>
				<path id="XMLID_85_" style="fill:#0075C9;" d="M703,422.3c0.2,0,0.3-0.1,0.3-0.3s-0.1-0.3-0.3-0.3c-0.2,0-0.3,0.1-0.3,0.3
					S702.9,422.3,703,422.3z"/>
				<path id="XMLID_81_" style="fill:#0075C9;" d="M705.7,423.4c0,0.3,0.3,0.7,0.8,0.7c0.3,0,0.2-0.1,0.7-0.2v0.1
					c0,0.3-0.3,0.5-0.6,0.5h-2.7c-0.3,0-0.4-0.1-0.4-0.5v-1.3l0,0c-0.2,0-0.4-0.1-0.6-0.1c-0.9,0-1.4,0.4-1.4,1.1s0.6,1,1.2,1
					c0.2,0,0.3,0,0.5,0c0.2,0.3,0.5,0.3,0.6,0.3h2.9c0.4,0,1-0.3,1-1.1v-1.6h-0.6C706.1,422.4,705.7,422.8,705.7,423.4z
					 M706.5,423.8c-0.2,0-0.4-0.1-0.4-0.4c0-0.3,0.3-0.5,0.9-0.5v0.4c0,0.1,0,0.1,0,0.1C707,423.6,706.8,423.8,706.5,423.8z
					 M702.7,422.9c0.1,0,0.2,0,0.2,0v1.6c0,0-0.1,0-0.2,0c-0.4,0-0.8-0.3-0.8-0.8C701.9,423.3,702.2,422.9,702.7,422.9z"/>
				<path id="XMLID_80_" style="fill:#0075C9;" d="M707.1,422.2L707.1,422.2c0.2,0,0.3-0.1,0.3-0.3s-0.1-0.3-0.3-0.3
					c-0.2,0-0.3,0.1-0.3,0.3C706.8,422.1,707,422.2,707.1,422.2z"/>
				<path id="XMLID_79_" style="fill:#0075C9;" d="M706.5,422.2L706.5,422.2c0.2,0,0.3-0.1,0.3-0.3s-0.1-0.3-0.3-0.3
					c-0.2,0-0.3,0.1-0.3,0.3C706.2,422.1,706.3,422.2,706.5,422.2z"/>
				<path id="XMLID_78_" style="fill:#0075C9;" d="M708.3,423.3v1.4c0,0.9,0.1,0.9-0.3,0.9h-0.1v0.4l0,0c0.7,0,0.9-0.4,0.9-1.1v-1.8
					L708.3,423.3L708.3,423.3z"/>
				<path id="XMLID_77_" style="fill:#0075C9;" d="M713.8,421.9c0,0.2,0.1,0.3,0.3,0.3l0,0c0.2,0,0.3-0.1,0.3-0.3s-0.1-0.3-0.3-0.3
					C713.9,421.6,713.8,421.8,713.8,421.9z"/>
				<path id="XMLID_76_" style="fill:#0075C9;" d="M713.4,422.2L713.4,422.2c0.2,0,0.3-0.1,0.3-0.3s-0.1-0.3-0.3-0.3
					c-0.2,0-0.3,0.1-0.3,0.3C713.2,422.1,713.3,422.2,713.4,422.2z"/>
				<path id="XMLID_75_" style="fill:#0075C9;" d="M713.7,421.7L713.7,421.7c0.2,0,0.3-0.1,0.3-0.3s-0.1-0.3-0.3-0.3
					c-0.2,0-0.3,0.1-0.3,0.3C713.4,421.5,713.5,421.7,713.7,421.7z"/>
				<path id="XMLID_74_" style="fill:#0075C9;" d="M717,424c0,0-0.1,0.5-0.5,0.5h-0.6c-0.2,0-0.4,0-0.5-0.1
					c-0.1-0.1-0.3-0.2-0.3-0.4v-1.4l-0.5,0.2v1.2c0,0.3,0.1,0.7-0.3,0.7c-0.3,0-0.3-0.3-0.3-0.5V423l-0.5,0.2v1
					c0,0.4-0.2,0.6-0.5,0.6s-0.6-0.3-0.6-0.5v-1.1l-0.5,0.2v0.8c0,0.4-0.1,0.5-0.4,0.5h-1.1c-0.3,0-0.7-0.2-0.7-0.6v-2.3v0.2v2.2
					c0,0.7,0.2,1.1,0.6,1.1h1.3l0,0c0.3,0,0.5-0.2,0.6-0.5c0.2,0.3,0.4,0.4,0.7,0.4c0.3,0,0.5-0.2,0.6-0.5c0.2,0.3,0.4,0.4,0.7,0.4
					c0.1,0,0.5,0,0.7-0.4c0.2,0.3,0.4,0.5,0.7,0.5h0.6l0,0l0,0l0,0c0.4,0,0.7-0.4,0.7-1.1v-2.3l-0.5,0.2v2.2L717,424L717,424z"/>
			</g>
		</g>
		<g id="XMLID_15_">
			<g id="XMLID_68_">
				<g>
					
						<linearGradient id="SVGID_51_" gradientUnits="userSpaceOnUse" x1="698.1953" y1="387.2394" x2="688.2896" y2="398.4879" gradientTransform="matrix(1 0 0 1 0 4)">
						<stop  offset="0" style="stop-color:#E34126"/>
						<stop  offset="1" style="stop-color:#FFC333"/>
					</linearGradient>
					<path id="SVGID_48_" style="fill:url(#SVGID_51_);" d="M689.1,394.7v5.9h3.2v-6c0,0.1-0.5,0.1-0.7,0.1c-0.6,0-1.1-0.1-1.7-0.4
						c-0.3,0.3-0.5,0.3-0.8,0.6 M696,391.5c-0.4,0.4-1.1,1-1.4,1.7c-0.2,0.2-0.2,0.4-0.7,0.6v6.8h2.1c0,0-0.1-0.6-0.1-0.9
						c-0.1-0.4-0.4-0.7-0.3-1c0.3-1.5,1.2-1.1,1.5-2.6c0.1-0.5-0.1-0.9,0.5-1.4v-3.5C697.1,391.2,696.5,391.3,696,391.5"/>
				</g>
			</g>
			<g id="XMLID_65_">
				<g>
					
						<linearGradient id="SVGID_52_" gradientUnits="userSpaceOnUse" x1="697.7757" y1="386.7868" x2="713.2813" y2="387.2155" gradientTransform="matrix(1 0 0 1 0 4)">
						<stop  offset="0" style="stop-color:#007496"/>
						<stop  offset="0.417" style="stop-color:#007496"/>
						<stop  offset="1" style="stop-color:#5BCAF4"/>
					</linearGradient>
					<path id="SVGID_47_" style="fill:url(#SVGID_52_);" d="M703.7,388.2c-0.3,0.2-0.6,0.2-1,0.2c-0.6-0.1-1.3-0.1-2,0.9
						c0.4,0.4,0.6,0.9,0.6,1.5v0.7c0,0,0.4,0,0.6,0c0.4,0,0.9,0.1,1.1,0.2c0.5,0.1,0.9,0.3,1.5,0.5v-1.3c0-1.1-0.1-2-0.5-2.8
						C703.9,388.2,703.8,388.2,703.7,388.2 M705.5,387.5c0.5,0.9,0.6,2,0.6,3.3v2.5c0.5,0.2,0.7,0.5,1,0.8c0.9,0.6,1.7,1.3,2.7,2.1
						c0-2.6,0-5.4,0-5.5c0-1.8-0.6-3.4-1.4-4.7C707.7,386.6,706.5,387.1,705.5,387.5"/>
				</g>
			</g>
			<g id="XMLID_62_">
				<g>
					
						<linearGradient id="SVGID_53_" gradientUnits="userSpaceOnUse" x1="698.7132" y1="385.3647" x2="678.4339" y2="387.8479" gradientTransform="matrix(1 0 0 1 0 4)">
						<stop  offset="0" style="stop-color:#D83C73"/>
						<stop  offset="0.1992" style="stop-color:#CE3869"/>
						<stop  offset="0.5406" style="stop-color:#B32E4D"/>
						<stop  offset="0.9803" style="stop-color:#871D21"/>
						<stop  offset="1" style="stop-color:#851C1F"/>
					</linearGradient>
					<path id="SVGID_33_" style="fill:url(#SVGID_53_);" d="M693.9,390.4v1.7c1.1-0.3,1.4-0.5,1.9-0.6s1.3-0.2,1.3-0.3v-0.5
						c0-0.6,0.4-1.2,0.9-1.6l1.2,1.3c-0.3-0.5-0.6-1.1-1-1.5c-0.9-0.2-2.4-0.6-3.8-1.1C694.1,388.8,693.9,389.6,693.9,390.4
						 M689.1,390.4v4.8c0-0.2,0.3-0.2,0.3-0.2c0.7-0.5,1.8-1.7,2.9-2.1v-2.2c0-1.2,0.3-2.3,0.7-3.4c-0.5-0.3-1-0.5-1.4-0.8
						c-0.1-0.1-0.2-0.2-0.3-0.3c-0.1,0-0.4-0.3-0.7-0.5C689.6,387,689.1,388.6,689.1,390.4"/>
				</g>
			</g>
			<g id="XMLID_58_">
				<g>
					
						<linearGradient id="SVGID_54_" gradientUnits="userSpaceOnUse" x1="689" y1="389.2" x2="697.5527" y2="389.2" gradientTransform="matrix(1 0 0 1 0 4)">
						<stop  offset="0" style="stop-color:#EF5136"/>
						<stop  offset="0.4045" style="stop-color:#CB3740"/>
						<stop  offset="0.7805" style="stop-color:#AF2447"/>
						<stop  offset="1" style="stop-color:#A51D4A"/>
					</linearGradient>
					<path id="SVGID_29_" style="fill:url(#SVGID_54_);" d="M689.1,394.7v0.5c0.5,0,2-0.6,2.5-0.6c0.3,0,0.7,0,0.7-0.1v-1.8
						c-1.1,0.4-2.5,1.4-3.3,2.1 M693.9,392v1.8c0.5-0.2,0.6-0.4,0.7-0.6c0.8-1.3,1.9-1.6,3-1.9v-0.1c-1.1,0.2-2.1,0.6-3.7,1"/>
				</g>
			</g>
			<g id="XMLID_55_">
				<g>
					
						<linearGradient id="SVGID_55_" gradientUnits="userSpaceOnUse" x1="700.9049" y1="386.652" x2="711.492" y2="398.0003" gradientTransform="matrix(1 0 0 1 0 4)">
						<stop  offset="0" style="stop-color:#698735"/>
						<stop  offset="1" style="stop-color:#D1D747"/>
					</linearGradient>
					<path id="SVGID_28_" style="fill:url(#SVGID_55_);" d="M706.4,398.6c0.1,0.2,0.1,0.3,0.1,0.5c0.8,0.5,1.5,0.9,2.2,1.4h1.2
						c0,0,0-1.2,0-2.8c-0.5-0.5-0.8-1-1.2-1.7c-0.5-0.7-1-1.4-1.4-1.9c-0.4-0.4-0.6-0.7-0.8-0.9L706.4,398.6L706.4,398.6z
						 M701.3,391.5v3c0,0.1,0.2,0.1,0.2,0.1c1,0.5,1.8,1.3,2.5,2c0.2,0.2,0.4,0.3,0.4,0.4v-4.8c-1.1-0.4-2-0.7-2.7-0.7H701.3"/>
				</g>
			</g>
			<g id="XMLID_54_">
				<g>
					
						<linearGradient id="SVGID_56_" gradientUnits="userSpaceOnUse" x1="707.444" y1="391.95" x2="712.15" y2="391.95" gradientTransform="matrix(1 0 0 1 0 4)">
						<stop  offset="0" style="stop-color:#698735"/>
						<stop  offset="1" style="stop-color:#095B83"/>
					</linearGradient>
					<path id="SVGID_27_" style="fill:url(#SVGID_56_);" d="M708.7,396c0.4,0.6,0.7,1.2,1.2,1.7c0-0.5,0-1,0-1.4
						c-1.1-0.8-1.6-1.5-2.5-2.1C707.8,394.6,708.1,395.3,708.7,396"/>
				</g>
			</g>
			<g id="XMLID_50_">
				<g>
					
						<linearGradient id="SVGID_57_" gradientUnits="userSpaceOnUse" x1="701.9113" y1="387.4685" x2="702.8755" y2="402.8279" gradientTransform="matrix(1 0 0 1 0 4)">
						<stop  offset="0" style="stop-color:#698735"/>
						<stop  offset="1" style="stop-color:#D1D747"/>
					</linearGradient>
					<path id="SVGID_26_" style="fill:url(#SVGID_57_);" d="M706.1,400.5h3c-0.9-0.5-2-1-2.5-1.4V399c0,0-0.5,0-0.5-0.1V400.5z
						 M695.8,399.6c0.1,0.1,0.2,0.4,0.2,0.9h1.1V397C697.1,398,696.3,398.9,695.8,399.6 M701.3,400.5h3.2v-3.2
						c-1.1-0.9-2.7-2-3.2-2.8V400.5z"/>
				</g>
			</g>
			
				<linearGradient id="SVGID_58_" gradientUnits="userSpaceOnUse" x1="695.4987" y1="393.55" x2="698.2596" y2="393.55" gradientTransform="matrix(1 0 0 1 0 4)">
				<stop  offset="0" style="stop-color:#AD5F28"/>
				<stop  offset="1" style="stop-color:#215A4A"/>
			</linearGradient>
			<path id="SVGID_25_" style="fill:url(#SVGID_58_);" d="M696.8,396.1c-0.3,1.5-1,1-1.3,2.5c-0.1,0.2,0.2,0.9,0.3,1.9h0.3
				c0.3-1.1,1-2.2,1-3.4v-2.5C697.1,395.1,696.9,395.6,696.8,396.1"/>
			<g id="XMLID_45_">
				<g>
					
						<linearGradient id="SVGID_59_" gradientUnits="userSpaceOnUse" x1="701.3207" y1="393.5" x2="709.4926" y2="393.5" gradientTransform="matrix(1 0 0 1 0 4)">
						<stop  offset="0" style="stop-color:#698735"/>
						<stop  offset="1" style="stop-color:#215A4A"/>
					</linearGradient>
					<path id="SVGID_24_" style="fill:url(#SVGID_59_);" d="M706.1,399.3c1.1,0.5,2,0.7,2.7,1.3h0.7c-0.5-0.5-1.8-1.5-3.4-2.3
						L706.1,399.3L706.1,399.3z M701.3,394.6c0.7,0.9,2.2,1.9,3.2,3.2v-0.9c0-0.2-0.3-0.3-0.4-0.4c-0.7-0.7-1.5-1.4-2.5-2
						c-0.1-0.1-0.2-0.1-0.2-0.1L701.3,394.6L701.3,394.6z"/>
				</g>
			</g>
			<g id="XMLID_44_">
				<g>
					
						<linearGradient id="SVGID_60_" gradientUnits="userSpaceOnUse" x1="698.8315" y1="388.0716" x2="698.7208" y2="376.1546" gradientTransform="matrix(1 0 0 1 0 4)">
						<stop  offset="0" style="stop-color:#B12850"/>
						<stop  offset="1" style="stop-color:#007497"/>
					</linearGradient>
					<path id="SVGID_23_" style="fill:url(#SVGID_60_);" d="M700.7,384.4c0.2-0.9,0.4-2,0.9-2.5c-0.2,0-0.3,0-0.5,0
						c-0.7,0-1.2,0.1-1.8,0.3c-0.4,0.2-0.9,0.3-1.4,0.7c-0.8,0.5-1.4,1.1-2,1.8c1.3,1.5,2.7,4.4,3.4,5.9l0.2,0.2l0.6-0.8
						c0.2-1,0.2-2.2,0.6-2.7c-0.1-0.2-0.1-0.3-0.1-0.4c0-0.2,0-0.6,0.1-1.3c-1.3-0.2-2.5-0.1-3.1,0.2
						C698.2,384.8,699.4,384.3,700.7,384.4z"/>
				</g>
			</g>
			
				<linearGradient id="SVGID_61_" gradientUnits="userSpaceOnUse" x1="700.3539" y1="385.7657" x2="694.9841" y2="375.3048" gradientTransform="matrix(1 0 0 1 0 4)">
				<stop  offset="0" style="stop-color:#B12850"/>
				<stop  offset="1" style="stop-color:#007497"/>
			</linearGradient>
			<path id="SVGID_22_" style="fill:url(#SVGID_61_);" d="M699.3,381.9c0.1,0,0.1,0.1,0.2,0c0.2-0.1,0.3,0,0.2,0H699.3L699.3,381.9
				L699.3,381.9h-0.6c-0.4,0-0.7-0.1-1.1,0l0,0c-1.5,0.2-2.9,0.6-4.1,1.2c0.1,0.1,0.2,0.1,0.3,0.2c0.5,0.2,0.9,0.4,1.4,0.7
				c0.1,0,0.1,0.1,0.1,0.1C696.4,382.9,697.8,382.2,699.3,381.9L699.3,381.9z M699.3,381.9L699.3,381.9L699.3,381.9L699.3,381.9z"/>
			
				<linearGradient id="SVGID_62_" gradientUnits="userSpaceOnUse" x1="698.639" y1="388.338" x2="708.5644" y2="375.4974" gradientTransform="matrix(1 0 0 1 0 4)">
				<stop  offset="0" style="stop-color:#007496"/>
				<stop  offset="1" style="stop-color:#5BCAF4"/>
			</linearGradient>
			<path id="SVGID_21_" style="fill:url(#SVGID_62_);" d="M700.7,387c-0.1,0.1-0.5,0.4-0.9,3.1l0.9-1c0.1,0.1,0.2,0.1,0.3,0.2
				c0.3-0.5,0.6-1,0.8-1c0.1,0,0.2,0,0.3,0c0.4,0,0.5,0.3,1.3,0.1c0.1-0.1,0.5-0.3,0.8-0.5c-0.6-1.2-1.7-1.9-2.8-2.2
				C701,386.3,700.8,387,700.7,387 M702.2,382.8c-0.2,0.5-0.3,1-0.5,1.4c0,0-0.1,0.1-0.1,0.3c1.4,0.3,2.7,1.1,3.6,2.5
				c0.9-0.6,1.9-1,2.9-1.3c-1.2-1.8-3-3-5.4-3.6c-0.1,0-0.2-0.1-0.4-0.1C702.4,382.2,702.3,382.5,702.2,382.8"/>
			
				<linearGradient id="SVGID_63_" gradientUnits="userSpaceOnUse" x1="703.2607" y1="383.05" x2="708.4269" y2="383.05" gradientTransform="matrix(1 0 0 1 0 4)">
				<stop  offset="0" style="stop-color:#00678C"/>
				<stop  offset="1" style="stop-color:#1461AD"/>
			</linearGradient>
			<path id="SVGID_20_" style="fill:url(#SVGID_63_);" d="M703.3,388.5c0.3-0.1,0.6-0.2,0.9-0.3c-0.1-0.1-0.1-0.2-0.1-0.3
				C703.7,388.2,703.4,388.4,703.3,388.5 M705.3,386.9c0.2,0.2,0.3,0.4,0.4,0.6c1-0.5,2-1,2.8-1.5c-0.1-0.1-0.2-0.3-0.2-0.4
				C707.2,385.9,706.2,386.3,705.3,386.9"/>
			
				<linearGradient id="XMLID_2_" gradientUnits="userSpaceOnUse" x1="700.0549" y1="383.1" x2="701.2727" y2="383.1" gradientTransform="matrix(1 0 0 1 0 4)">
				<stop  offset="0" style="stop-color:#00678C"/>
				<stop  offset="1" style="stop-color:#19469C"/>
			</linearGradient>
			<path id="XMLID_31_" style="fill:url(#XMLID_2_);" d="M700.5,386.8c0,0.1-0.5,1.9-0.4,2c0.1-0.1,0.6-1.7,0.7-1.8
				c0.1-0.1,0.3-0.7,0.5-1.4c-0.2-0.1-0.5-0.1-0.7-0.2C700.5,386.1,700.5,386.7,700.5,386.8"/>
			
				<linearGradient id="XMLID_3_" gradientUnits="userSpaceOnUse" x1="700.7235" y1="379.1" x2="702.3768" y2="379.1" gradientTransform="matrix(1 0 0 1 0 4)">
				<stop  offset="0" style="stop-color:#00678C"/>
				<stop  offset="1" style="stop-color:#19469C"/>
			</linearGradient>
			<path id="XMLID_30_" style="fill:url(#XMLID_3_);" d="M700.7,384.4c0.3,0,0.6,0.1,1,0.1c0.1-0.2,0.1-0.3,0.1-0.3
				c0.2-0.4,0.3-0.9,0.5-1.4c0.1-0.3,0.1-0.6,0.1-0.9c-0.1,0-0.2-0.1-0.3-0.1c-0.2,0-0.3-0.1-0.5-0.1
				C701.2,382.7,700.9,383.6,700.7,384.4"/>
			
				<linearGradient id="SVGID_64_" gradientUnits="userSpaceOnUse" x1="700.5652" y1="388.6328" x2="689.8179" y2="378.0687" gradientTransform="matrix(1 0 0 1 0 4)">
				<stop  offset="0" style="stop-color:#B12850"/>
				<stop  offset="1" style="stop-color:#604B9E"/>
			</linearGradient>
			<path id="SVGID_19_" style="fill:url(#SVGID_64_);" d="M694.4,387.7c0.9,0.3,1.4,0.5,1.9,0.9c0.4,0.3,1.5,0.8,1.5,0.8
				s0.1-0.1,0.2-0.3l1.3,1.6c-0.3-0.5-0.6-1.3-1.2-2.4c-0.2-0.3-0.5-0.9-0.6-0.9c-0.3-0.2-0.9-1.3-1.9-2.4
				C695.1,385.8,694.7,386.8,694.4,387.7 M690.6,385.7c0.2,0.1,0.3,0.3,0.5,0.4c0.8,0.1,1.3,0.7,1.9,1.1c0.5-1.1,1.2-2.1,2-2.9
				c-0.3-0.3-0.7-0.6-1.1-0.9c0,0-0.2-0.2-0.4-0.4C692.3,383.7,691.3,384.6,690.6,385.7"/>
			
				<linearGradient id="SVGID_65_" gradientUnits="userSpaceOnUse" x1="690.5486" y1="383.4293" x2="697.8292" y2="383.4293" gradientTransform="matrix(1 0 0 1 0 4)">
				<stop  offset="0" style="stop-color:#521A57"/>
				<stop  offset="0.4741" style="stop-color:#5C2250"/>
				<stop  offset="1" style="stop-color:#6D3044"/>
			</linearGradient>
			<path id="SVGID_18_" style="fill:url(#SVGID_65_);" d="M694.4,387.9c1.2,0.5,2.4,1,3.5,1.4l0,0c-0.5-0.3-2-1.2-3.3-1.9
				C694.5,387.6,694.4,387.7,694.4,387.9 M690.6,385.7c0.4,0.3,0.9,0.6,0.9,0.7c0.4,0.3,1,0.6,1.5,0.9c0.1-0.2,0.2-0.4,0.2-0.5
				c-0.1-0.1-0.2-0.1-0.3-0.1C692.3,386.4,691.5,385.7,690.6,385.7C690.6,385.5,690.6,385.6,690.6,385.7"/>
			
				<linearGradient id="SVGID_66_" gradientUnits="userSpaceOnUse" x1="693.37" y1="382.85" x2="699.3794" y2="382.85" gradientTransform="matrix(1 0 0 1 0 4)">
				<stop  offset="0" style="stop-color:#842447"/>
				<stop  offset="1" style="stop-color:#392663"/>
			</linearGradient>
			<path id="SVGID_17_" style="fill:url(#SVGID_66_);" d="M695.5,385.2c0.7,0.9,1.4,1.9,1.8,3c0.2,0.4,0.4,0.8,0.6,1.1
				c0.1-0.1,0.1-0.1,0.2-0.2l1.3,1.6c-0.4-0.9-2-4.4-3.5-6C695.8,384.9,695.6,385,695.5,385.2 M694.8,384.4c0.1-0.1,0.3-0.3,0.4-0.4
				c-0.1,0-0.1-0.1-0.1-0.1c-0.4-0.3-1.1-0.6-1.5-0.9C694,383.5,694.4,383.9,694.8,384.4 M693.4,383.1L693.4,383.1
				c0.1,0,0.1,0.1,0.2,0.1C693.5,383.1,693.4,383.1,693.4,383.1C693.4,383,693.4,383,693.4,383.1"/>
		</g>
	</g>
	<g>
		<g>
			<path d="M690.8,461.6c0,0.2,0.2,0.3,0.4,0.3h1.9l-0.7,1.1h-2.3l-0.1-4.8c0,0,0.1-0.1,0.4-0.6c0.2-0.3,0.3-0.4,0.4-0.5
				C690.8,457.8,690.7,461.3,690.8,461.6 M699.2,458.7v4.3c0-0.1,0.7-0.2,0.8-1c0.1-0.7,0.1-2.8,0-4.4
				C699.6,458.2,699.2,458.2,699.2,458.7 M716.3,459l-0.7,1.2c0.4,0.4,0.6,0.9,0.7,1.3l0,0c0.1,0.4,0.2,0.7,0.2,1.2
				c-0.1-0.5-0.3-0.8-0.4-0.8h-2c-0.2,0-0.3-0.2-0.3-0.2c-0.1-0.4-0.2-1-0.3-1.7c-0.1-0.6-0.1-1.2-0.1-1.8c-0.1-0.4-0.1-0.8-0.1-1.1
				c-0.2,0.1-0.3,0.3-0.4,0.5c-0.1,0.2-0.2,0.4-0.2,0.6c0,0.6,0,1.1-0.1,1.3c-0.1,0.5-0.2,1-0.5,1.3c-0.1,0.1-0.2,0.2-0.2,0.3v0.1
				v0.1c0,0.2,0.1,0.5-0.1,0.7l0.1,0.1V462c0-0.7-0.5-2.5-1.1-3.2c-0.5-0.6-1.3-1.3-1.9-1.5c-0.2,0.6-0.3,1.1-0.3,1.6
				c0,0.2,1.3,1,1.4,1l0.2-0.1l0,0c0.9,0.7,1.1,1.6,1.1,1.7c0,0.3-0.5,0.7-1.6,1.2l-2.1,0.8h-0.1h0.1h0.4c2.2,0,3.6-0.3,4.1-1.4
				c0.2-0.6,0.4-1,0.5-1.3l0.1-0.1l0.1,0.1c0.1,0.3,0.2,0.7,0.2,1.2c0,0.4,0.1,0.5,0.1,1h3.7c0.3-1.1,0.4-1.3,0.4-1.8
				C717.3,460.3,717,459.6,716.3,459 M697.5,457.4c-0.1-0.2-0.1-0.3-0.2-0.4c-0.2,0.3-0.5,0.6-0.7,1.2c-0.1,0.1-0.1,0.3,0.1,0.4
				c0.1,0.1,0.2,0.2,0.2,0.2l0,0c0.1,0.2,0.2,2.5,0.2,2.8l0,0c0,0.3,0,0.6-0.2,1.1c0-0.4-0.1-0.9-0.1-0.9H695v-0.2
				c0-0.1,0-0.1,0.1-0.3c0.1-0.2,0.1-0.4,0.1-0.6c0-0.3-0.1-0.6-0.5-0.9c-0.3-0.2-0.6-0.3-0.9-0.3c-0.5,0-0.7,0.2-1,0.4
				c-0.2,0.2-0.4,0.5-0.6,1.1c0.3-0.1,0.4-0.1,0.4-0.1c0.4,0,0.8,0.2,1.1,0.6c0.1,0.1,0.7,0.7,0.9,1.2h2.8c0.1,0,0.2-0.1,0.2-0.1
				c0.1-0.1,0.1-0.1,0.2-0.6c0.1-0.4,0.1-0.6,0.1-0.8l0.1-2.2l0.4-0.9C698.1,458.1,697.5,457.5,697.5,457.4 M707.5,458.1
				c-0.3-0.2-0.8-0.7-0.9-0.9c-0.1-0.2-0.1-0.3-0.2-0.4c-0.2,0.3-0.5,0.6-0.7,1.2c-0.1,0.1-0.1,0.3,0.1,0.4c0.1,0.1,0.2,0.2,0.2,0.2
				l0,0c0.1,0.2,0.4,2.3,0.4,2.7c0,0.1,0.1,0.3,0.1,0.5c0.1,0.3,0.1,0.7-0.3,1.3c0.1-0.3,0.1-0.5,0.1-0.7c-0.2,0.1-0.3,0.2-0.5,0.2
				c-0.4,0.1-0.8,0.2-1.1,0.2c-0.4,0-0.7-0.1-1-0.3s-0.5-0.5-0.5-0.9c0-0.2,0.1-0.4,0.3-0.8c0.1-0.1,0-0.1,0-0.1l0,0l0,0
				c-0.1,0-0.4,0.2-0.6,0.6c-0.3,0.6-0.3,0.9-0.3,1.3c0,0.5,0.2,0.7,0.5,1c0.3,0.2,0.7,0.3,1.2,0.3c0.6,0,1.3-0.2,1.8-0.5
				c0.6-0.4,0.8-0.8,1-1.4c0.1-0.1,0.2-0.4,0.2-0.8l-0.2-2.2L707.5,458.1z M687.7,460.4c0,0-0.4-0.5-0.5-0.6
				c-0.2-0.1-0.3-0.2-0.4-0.2c-0.2,0-0.4,0.1-0.4,0.3c0,0,0,0,0,0.1c0,0.6,0.7,0.8,1.2,0.6L687.7,460.4z M688.5,459.6
				c0.3,0.7,0.4,1.1,0.4,1.8l-0.3,1.5h-5.7c-0.4,0-0.7,0-1-0.3c-0.3-0.3-0.4-0.7-0.4-1.1c0-0.3,0.1-0.6,0.2-1.1
				c0.2-0.5,0.3-0.8,0.4-0.9c0.1,0,0.1,0.1,0.1,0.1c0,0.1,0,0.3-0.1,0.5c-0.1,0.2-0.1,0.4-0.1,0.5c0,0.3,0.1,0.6,0.3,0.9
				c0.2,0.2,0.5,0.4,0.7,0.4h4.7c0.1,0,0.2,0.5,0.3,0.9c0.1-0.4,0.1-0.8,0-1.1l0,0c0-0.1-0.1-0.3-0.1-0.5c-0.1-0.4-0.2-0.7-0.2-0.7
				l-0.1,0.1c-0.3,0.4-0.7,0.8-1.2,0.8c-0.3,0-0.4-0.1-0.6-0.2c-0.3-0.2-0.4-0.3-0.4-0.6c0-0.4,0.2-0.9,0.7-1.3
				c0.5-0.5,0.9-0.7,1.3-0.7C687.8,458.5,688.2,458.8,688.5,459.6 M685.2,457.9l0.7,0.7l0.7-0.7l-0.7-0.7L685.2,457.9z M693.2,458.2
				l0.7,0.7l0.7-0.7l-0.7-0.7L693.2,458.2z M713.9,457.8l0.7,0.7l0.7-0.7l-0.7-0.7L713.9,457.8z M715.2,457.8l0.7,0.7l0.7-0.7
				l-0.7-0.7L715.2,457.8z M712.9,467.7c-0.6,0-1.4,0.4-1.4,0.8l0,0V466l-1.1,0.2v5.8h1.1v-3.3l0,0c0-0.1,0.2-0.2,0.4-0.2
				c0.5,0,0.7,0.3,0.7,1l0,0v2.5h1.6v-2.9C714.1,468.2,713.6,467.7,712.9,467.7 M698.3,472h1.3l-2.2-6l-0.8,0.1l-2.4,5.9h0.7
				l0.6-1.6h1.3l-0.1-0.5h-1l1-2.3L698.3,472z M684.3,472h1.1v-5.9l-1.1,0.2V472z M691.2,472h1.1v-5.9l-1.1,0.2V472z M676.8,466.7
				h1.6l0,0v5.3h1.1v-5.3l0,0h1.6v-0.5h-4.3V466.7L676.8,466.7z M681.8,466.6l0.7,0.7l0.7-0.7l-0.7-0.7L681.8,466.6z M682.1,472h1.1
				v-4.2l-1.1,0.2V472z M700.3,472h1.6v-5.9l-1.6,0.2V472z M707.8,471c-0.3,0.2-0.5,0.3-0.9,0.3c-1,0-2-1-2-2.6c0-1.2,0.6-2,1.5-2
				c0.7,0,1.3,0.5,1.3,1.2l1.3-0.2c-0.1-1.1-1.1-1.7-2.4-1.7c-1.5,0-2.9,1.1-2.9,3.1c0,1.8,1.1,2.9,2.4,2.9c0.8,0,1.6-0.4,1.6-0.9
				v0.8h1.1v-2.7l-1.2,0.2L707.8,471L707.8,471z M716.8,467.6c-0.4,0-0.8,0.1-1.1,0.3c-0.3,0.2-0.5,0.6-0.6,1.1
				c0.3-0.3,0.9-0.5,1.3-0.5c0.5,0,1,0.2,1,1v0.7v1c-0.5,0.1-0.5,0.2-0.7,0.2c-0.4,0-0.7-0.3-0.7-0.6s0.2-0.7,0.2-0.7
				c-0.8,0.3-1.2,0.7-1.2,1.2s0.5,0.9,1,0.9s0.9-0.4,1.4-0.9v0.7h1.1v-2.6C718.4,468.4,717.9,467.6,716.8,467.6 M688.2,467.6
				c-0.4,0-0.7,0.1-1,0.3c-0.3,0.2-0.5,0.6-0.6,1.1c0.3-0.3,0.7-0.5,1.1-0.5c0.5,0,0.9,0.2,0.9,1v0.7v1c0,0.1-0.3,0.2-0.5,0.2
				c-0.4,0-0.6-0.3-0.6-0.6s0.2-0.7,0.2-0.7c-0.8,0.3-1.2,0.7-1.2,1.2s0.3,0.9,0.9,0.9s1.2-0.4,1.2-0.9v0.7h1.1v-2.6
				C690.1,468.4,689.3,467.6,688.2,467.6 M721.1,467.7L721.1,467.7c0-0.7,0.1-1,0.7-1c0.2,0,0.3,0,0.4,0.1c-0.1-0.4-0.3-0.7-0.9-0.7
				c-0.9,0-1.2,0.6-1.2,1.4v0.2H719v0.5h1.1v3.7h1.1v-3.7h1.1v-0.5H721.1z M683.1,477.2c0.7,0,1.1-0.7,1.1-1.3c0-0.5-0.3-1.2-1-1.2
				h-0.5v2.5H683.1 M683.2,474.7c0.9,0,1.4,0.6,1.4,1.3s-0.5,1.4-1.4,1.4h-1v-2.7H683.2 M688,474.7h-0.5v1.8c0,0.4,0,0.8-0.5,0.8
				s-0.5-0.4-0.5-0.8v-1.8H686v1.8c0,0.6,0.4,1.1,1.1,1.1c0.6,0,1.1-0.5,1.1-1.1v-1.8H688z M690.8,477.4c0.3,0,0.5-0.3,0.5-0.6
				s-0.2-0.6-0.5-0.6h-0.6v1.1L690.8,477.4 M690.1,475.7h0.6c0.3,0,0.5-0.1,0.5-0.3s-0.2-0.3-0.5-0.3h-0.6V475.7z M691.1,476
				c0.4,0.1,0.5,0.3,0.5,0.6c0,0.4-0.3,0.7-1,0.7h-1.1v-2.7h1.1c0.6,0,0.9,0.4,0.9,0.7S691.4,475.9,691.1,476 M697.1,477.4
				L697.1,477.4v-2.7l0,0V477.4z M694.8,476.3l-0.6-1.3l-0.6,1.3H694.8z M695.7,477.3h-0.4l-0.3-0.5h-1.4l-0.3,0.5h-0.4l1.3-2.7h0.4
				L695.7,477.3z M714.8,475.2c1.1,0,1.6,0.5,1.6,2.1h-2.5l0.2-0.5h1.9c-0.1-0.5-0.4-1.1-1.2-1.1h-0.3L714.8,475.2L714.8,475.2z
				 M712.5,476.8v-1.4v-0.1v2h-4.4l-0.1-0.5H712.5L712.5,476.8z M706.1,477.3v-1.6h-1.5c-0.6,0-0.9,0.1-0.9,0.5
				c0,0.2,0.1,0.3,0.3,0.4l0.3,0.2c0.3,0.2,0.5,0.4,0.5,0.6c0,0.5-0.6,0.9-1.7,0.9c-1.2,0-1.8-0.5-1.8-1.7v-0.2h0.5v0.2
				c0,1.1,0.4,1.4,1.4,1.4c0.9,0,1.2-0.2,1.2-0.5c0-0.2-0.1-0.3-0.3-0.4l-0.3-0.2c-0.3-0.2-0.4-0.5-0.4-0.7c0-0.4,0.4-0.9,1.2-0.9
				h1.6v1.6h2.1v0.5L706.1,477.3L706.1,477.3z M712.6,477.7l0.3,0.3l-0.3,0.3l-0.3-0.3L712.6,477.7z M702.9,478.3l0.3,0.3l-0.3,0.3
				l-0.3-0.3L702.9,478.3z M703.4,478.3l0.3,0.3l-0.3,0.3l-0.3-0.3L703.4,478.3z"/>
		</g>
		<g>
			<path d="M701.3,450.1v3.2h3.2V450c-0.5,0.2-1.1,0.2-1.8,0.2h-1.4V450.1z"/>
			<path d="M702.7,438.9c-0.9-0.5-2.1-1-3.3-1c-0.7,0-1.4,0.2-2,0.5l0,0c0.7-0.8,1.7-1.1,2.8-1.2l0,0c0.4,0,0.7-0.1,1.1,0
				c1.4,0.2,2.7,0.7,3.6,1.8c1.5,0,2.9,0,3.9,0c-1.1-2.1-3.2-3.8-6-4.4c-0.2-0.1-0.4-0.1-0.6-0.1c-0.3-0.1-0.6,0-1,0
				c-0.7,0-1.2,0.1-1.8,0.3c-0.4,0.2-0.9,0.3-1.4,0.7c-1.5,0.9-2.5,2.2-3.1,3.7c0.4-0.1,0.7-0.2,1.2-0.2
				C697.6,438.9,700.2,438.9,702.7,438.9z"/>
			<path d="M708.6,447.8c-0.6,0.6-1.4,1.1-2,1.5v4.1h3.2c0,0,0-4.3,0-7.2C709.3,446.7,709.1,447.3,708.6,447.8z"/>
			<path d="M703.9,440.5c-2.9,0-6.1,0-8.1,0c-0.6,0-1.2,0.1-1.7,0.3c-0.1,0.6-0.3,1.4-0.3,1.9c0,0.2,0,0.3,0,0.5l0,0v0.1v5.2h3.2
				v-5.2c0-0.6,0.4-1.2,0.9-1.5l1.4,1.5l1.3-1.5c0.4,0.4,0.7,1,0.7,1.5v5.2h1.4c0.6,0,1.3,0.1,1.8-0.1v-5.1
				C704.5,442.4,704.4,441.6,703.9,440.5z"/>
			<path d="M706,440.7c0.4,0.7,0.7,1.6,0.7,2.5c0,0.1,0,0.2,0,0.3v4.1c0-0.2,0.5-0.5,0.9-0.8c1.1-1.1,1.9-2.6,2.2-4.2
				c-0.1-0.6-0.1-1.2-0.3-1.8C708.6,440.6,707.4,440.6,706,440.7z"/>
			<path d="M689.1,453.3h3.2c0,0,0-1.6,0-3.2h-3.2V453.3z"/>
			<path d="M692.4,441.7c-1.7,1.1-2.8,2.9-3.4,5.1v1.8h3.2c0-1.6,0-3.5,0-5.3C692.3,442.7,692.3,442.2,692.4,441.7z"/>
			<rect x="693.9" y="450.1" width="3.2" height="3.2"/>
			<path d="M693,439.8c1.2-2.9,3.8-4.9,6.5-5.5c0.2-0.1,0.3-0.2,0.2-0.2h-1c-5.7,0-9.6,3.9-9.7,8.9C690,441.5,691.4,440.4,693,439.8
				z"/>
			<path style="fill:#5E6738;" d="M702.8,448.5h-1.4v1.6h1.4c0.6,0,1.2,0,1.8-0.2v-1.5C704,448.6,703.4,448.5,702.8,448.5z"/>
			<path style="fill:#5E6738;" d="M709.9,446.1c0-1.5,0-2.7,0-2.7c0-0.3-0.1-0.6-0.1-0.9c-0.4,1.7-1.1,3.1-2.2,4.2
				c-0.3,0.3-0.9,0.6-0.9,0.8v1.8c0.5-0.4,1.3-0.9,2-1.5C709.1,447.3,709.3,446.7,709.9,446.1z"/>
			<path style="fill:#5E6738;" d="M689.1,448.5v1.6h3.2c0-0.5,0-1.1,0-1.6H689.1z"/>
			<rect x="693.9" y="448.5" style="fill:#5E6738;" width="3.2" height="1.6"/>
			<path style="fill:#5E6738;" d="M689.1,446.8c0.5-2.2,1.8-4,3.4-5.1c0.1-0.7,0.3-1.3,0.6-2c-1.6,0.6-2.9,1.8-4,3.4
				c0,0.1,0,0.1,0,0.2V446.8L689.1,446.8z"/>
			<path style="fill:#5E6738;" d="M695.9,440.5c2,0,5.2,0,8.1,0c-0.3-0.5-0.7-1.1-1.3-1.6c-2.5,0-5.1,0-6.8,0
				c-0.4,0-0.8,0.2-1.2,0.2c-0.2,0.5-0.4,1-0.5,1.6C694.8,440.6,695.4,440.5,695.9,440.5z"/>
			<path style="fill:#5E6738;" d="M705.9,440.5c1.4,0,2.6,0,3.5,0c-0.2-0.5-0.4-1.1-0.6-1.6c-1.1,0-2.5,0-3.9,0
				C705.3,439.5,705.6,440,705.9,440.5z"/>
		</g>
	</g>
</g>
</svg>
