<svg xmlns="http://www.w3.org/2000/svg" xmlns:xlink="http://www.w3.org/1999/xlink" viewBox="0 0 1920 1080"><defs><style>.cls-1,.cls-22,.cls-23,.cls-49,.cls-50,.cls-51,.cls-52,.cls-53,.cls-54{fill:none;}.cls-2{fill:#007dc3;}.cls-3{clip-path:url(#clip-path);}.cls-4{fill:#652b7c;}.cls-5,.cls-8{font-size:18px;}.cls-12,.cls-36,.cls-5,.cls-56,.cls-8{fill:#70737b;}.cls-10,.cls-5{font-family:MarselisPro-Bold, Marselis Pro;}.cls-10,.cls-6{font-weight:700;}.cls-12,.cls-7,.cls-8{font-family:MarselisPro-Light, Marselis Pro;}.cls-9{letter-spacing:-0.01em;}.cls-11{letter-spacing:-0.02em;}.cls-12{font-size:14px;}.cls-13{letter-spacing:-0.01em;}.cls-14{letter-spacing:-0.06em;}.cls-15{letter-spacing:-0.02em;}.cls-16{clip-path:url(#clip-path-2);}.cls-17{fill:#ef4937;}.cls-18{clip-path:url(#clip-path-3);}.cls-19,.cls-26{fill:#ffcd34;}.cls-20{clip-path:url(#clip-path-4);}.cls-21{fill:#f37c20;}.cls-22,.cls-49,.cls-50,.cls-51,.cls-52,.cls-53{stroke:#70737b;}.cls-22,.cls-23,.cls-26,.cls-27,.cls-28,.cls-49,.cls-50,.cls-51,.cls-52,.cls-53,.cls-54,.cls-55{stroke-miterlimit:10;}.cls-23,.cls-26,.cls-27,.cls-28{stroke:#fff;}.cls-24{clip-path:url(#clip-path-5);}.cls-25{fill:#163682;}.cls-27,.cls-30{fill:#81c241;}.cls-28,.cls-32{fill:#00779f;}.cls-29{clip-path:url(#clip-path-7);}.cls-31{clip-path:url(#clip-path-8);}.cls-33{opacity:0.7;}.cls-34{fill:#727781;}.cls-35{clip-path:url(#clip-path-9);}.cls-37{clip-path:url(#clip-path-10);}.cls-38{clip-path:url(#clip-path-11);}.cls-39{clip-path:url(#clip-path-12);}.cls-40{clip-path:url(#clip-path-13);}.cls-41{clip-path:url(#clip-path-14);}.cls-42{clip-path:url(#clip-path-15);}.cls-43{clip-path:url(#clip-path-16);}.cls-44{clip-path:url(#clip-path-17);}.cls-45{clip-path:url(#clip-path-18);}.cls-46{clip-path:url(#clip-path-19);}.cls-47{clip-path:url(#clip-path-20);}.cls-48{clip-path:url(#clip-path-21);}.cls-49,.cls-50,.cls-51,.cls-52,.cls-53,.cls-54{stroke-width:0.5px;}.cls-50{stroke-dasharray:1.03 2.06 1.03 2.06;}.cls-51{stroke-dasharray:1.03 2.06 1.03 2.06 1.03 2.06;}.cls-52{stroke-dasharray:0.96 1.92 0.96 1.92;}.cls-53{stroke-dasharray:0.96 1.92 0.96 1.92 0.96 1.92;}.cls-54{stroke:#bcbcbc;opacity:0.75;}.cls-55,.cls-60{fill:#fff;}.cls-55{stroke:#727781;stroke-width:0.95px;opacity:0.5;}.cls-56{font-size:13.87px;font-family:MarselisPro, Marselis Pro;}.cls-57{letter-spacing:-0.01em;}.cls-58{letter-spacing:0em;}.cls-59{clip-path:url(#clip-path-22);}.cls-61{fill:url(#radial-gradient);}.cls-62{fill:url(#radial-gradient-2);}.cls-63{fill:url(#radial-gradient-3);}.cls-64{fill:url(#radial-gradient-4);}.cls-65{fill:url(#radial-gradient-5);}.cls-66{fill:url(#radial-gradient-6);}.cls-67{fill:url(#radial-gradient-12);}</style><clipPath id="clip-path"><rect class="cls-1" x="948.12" y="238.24" width="25.01" height="43.76"/></clipPath><clipPath id="clip-path-2"><rect class="cls-1" x="1647.5" y="409.85" width="26.28" height="43.76"/></clipPath><clipPath id="clip-path-3"><rect class="cls-1" x="1655.36" y="799.25" width="23.27" height="43.76"/></clipPath><clipPath id="clip-path-4"><rect class="cls-1" x="270.21" y="873.29" width="47.58" height="43.76"/></clipPath><clipPath id="clip-path-5"><rect class="cls-1" x="1105" y="341.85" width="80.83" height="43.9"/></clipPath><clipPath id="clip-path-7"><rect class="cls-1" x="1538" y="519.91" width="63.8" height="41.09"/></clipPath><clipPath id="clip-path-8"><rect class="cls-1" x="1547.24" y="856.57" width="70.94" height="33.04"/></clipPath><clipPath id="clip-path-9"><rect class="cls-1" x="80.75" y="173.5" width="25.79" height="26.26"/></clipPath><clipPath id="clip-path-10"><rect class="cls-1" x="1455.21" y="736.18" width="25.79" height="26.26"/></clipPath><clipPath id="clip-path-11"><rect class="cls-1" x="600.96" y="435.55" width="25.79" height="26.26"/></clipPath><clipPath id="clip-path-12"><rect class="cls-1" x="80.75" y="247.64" width="24.67" height="24.67"/></clipPath><clipPath id="clip-path-13"><rect class="cls-1" x="707.13" y="455.18" width="24.67" height="24.67"/></clipPath><clipPath id="clip-path-14"><rect class="cls-1" x="80.75" y="316.17" width="32.3" height="28.3"/></clipPath><clipPath id="clip-path-15"><rect class="cls-1" x="646.84" y="521.42" width="32.3" height="28.3"/></clipPath><clipPath id="clip-path-16"><rect class="cls-1" x="789.35" y="848.34" width="32.3" height="28.3"/></clipPath><clipPath id="clip-path-17"><rect class="cls-1" x="1004.17" y="785.25" width="32.3" height="28.3"/></clipPath><clipPath id="clip-path-18"><rect class="cls-1" x="80.75" y="388.51" width="29" height="28.3"/></clipPath><clipPath id="clip-path-19"><rect class="cls-1" x="828.63" y="656.85" width="29" height="28.3"/></clipPath><clipPath id="clip-path-20"><rect class="cls-1" x="80.75" y="463.32" width="24.17" height="25.37"/></clipPath><clipPath id="clip-path-21"><rect class="cls-1" x="903.91" y="690.85" width="24.17" height="25.37"/></clipPath><clipPath id="clip-path-22"><path id="SVGID" class="cls-2" d="M703.89,181a19.85,19.85,0,0,0-4.64,2.22c-8.07,5-11.69,14.24-12.06,23.17,0,.5,0,1,0,1.52h0V240h10.5V208.29a6.45,6.45,0,0,1,2.33-5l4.14,5,4.14-5a6.45,6.45,0,0,1,2.33,5V240h10.5V208.29a17,17,0,0,0-17-17,16.74,16.74,0,0,0-6.27,1.2h0a11.81,11.81,0,0,1,8.94-3.86h0a17.09,17.09,0,0,1,3.39.27,19.25,19.25,0,0,1,16.4,18.71c0,.35,0,.72,0,1.08V240h10.49s0-31.3,0-31.54c0-13.66-8.21-24.61-22.2-27.87-.51-.12-1.32-.28-2.05-.38a23.55,23.55,0,0,0-3.19-.25,16.88,16.88,0,0,0-5.82,1m-2-1.4c-18.11,0-30.76,12.2-30.76,28.39v32h10.51s0-17.61,0-32c0-15.06,11.42-25.8,22.88-28.13.46-.1,1-.24.46-.24Z"/></clipPath><radialGradient id="radial-gradient" cx="732.07" cy="190.35" r="20.24" gradientUnits="userSpaceOnUse"><stop offset="0" stop-color="#fff"/><stop offset="0.37" stop-color="#fff" stop-opacity="0.99"/><stop offset="0.51" stop-color="#fff" stop-opacity="0.97"/><stop offset="0.6" stop-color="#fff" stop-opacity="0.92"/><stop offset="0.68" stop-color="#fff" stop-opacity="0.85"/><stop offset="0.75" stop-color="#fff" stop-opacity="0.77"/><stop offset="0.8" stop-color="#fff" stop-opacity="0.66"/><stop offset="0.86" stop-color="#fff" stop-opacity="0.53"/><stop offset="0.91" stop-color="#fff" stop-opacity="0.39"/><stop offset="0.95" stop-color="#fff" stop-opacity="0.22"/><stop offset="0.99" stop-color="#fff" stop-opacity="0.04"/><stop offset="1" stop-color="#fff" stop-opacity="0"/></radialGradient><radialGradient id="radial-gradient-2" cx="731.97" cy="190.36" r="20.16" xlink:href="#radial-gradient"/><radialGradient id="radial-gradient-3" cx="731.93" cy="190.39" r="20.11" xlink:href="#radial-gradient"/><radialGradient id="radial-gradient-4" cx="731.93" cy="190.39" r="20.1" xlink:href="#radial-gradient"/><radialGradient id="radial-gradient-5" cx="731.94" cy="190.4" r="20.1" xlink:href="#radial-gradient"/><radialGradient id="radial-gradient-6" cx="731.93" cy="190.34" r="20.15" xlink:href="#radial-gradient"/><radialGradient id="radial-gradient-12" cx="732.42" cy="190.33" r="20.57" xlink:href="#radial-gradient"/></defs><title>AL_ZAHIA_MAP_VECTORS</title><g id="icons"><g class="cls-3"><path class="cls-4" d="M969.39,276.28a6.07,6.07,0,0,0-5.8,4.55H961.2V279.3c1.82-2.48,3.73-3.74,5.69-3.74a5.2,5.2,0,0,1,2.56.72h-.06m-17.52,0h-.06a5.2,5.2,0,0,1,2.56-.72c2,0,3.87,1.26,5.69,3.74v1.53h-2.4a6,6,0,0,0-5.79-4.55m6.33-11.59-.15-.91-.74.54a2.43,2.43,0,0,1-1.44.47,2.52,2.52,0,0,1-1.45-4.54l1-.74-1.18-.3a2.68,2.68,0,0,1,.48-5.27l1.51-.08-1.19-1a2.48,2.48,0,0,1,1.49-4.41h0l1.36.06-.84-1a2.21,2.21,0,0,1,1.36-3.61l.94-.13-.55-.79a2.28,2.28,0,0,1,1.61-3.6,2.23,2.23,0,0,1,2.42,2.07,2.27,2.27,0,0,1-.4,1.52l-.57.81,1,.11a2.21,2.21,0,0,1,1.43,3.62l-.83,1,1.3-.06h.09a2.45,2.45,0,0,1,2.42,2.47,2.49,2.49,0,0,1-.93,1.95l-1.15.91,1.45.13a2.69,2.69,0,0,1,.51,5.24l-1.06.31.86.7a2.55,2.55,0,0,1,.92,2,2.5,2.5,0,0,1-2.47,2.51,2.41,2.41,0,0,1-1.42-.46l-.77-.56-.13,1a2.46,2.46,0,0,1-4.87.09m13.72,12.08a7.22,7.22,0,0,0-5-2.38c-2,0-3.9,1-5.69,3.07v-9.58a3,3,0,0,1,4.19-2,3.65,3.65,0,0,0,3.61-3.68,3.74,3.74,0,0,0-.72-2.21,3.87,3.87,0,0,0-.51-6.92,3.65,3.65,0,0,0-2.09-5.6,3.47,3.47,0,0,0,.25-1,3.4,3.4,0,0,0-2.16-3.46,3.49,3.49,0,0,0,.22-1.57,3.38,3.38,0,0,0-3.36-3.14h-.3a3.44,3.44,0,0,0-3.07,3.73,3.4,3.4,0,0,0,.24,1,3.39,3.39,0,0,0-2.08,3.43,3.47,3.47,0,0,0,.25,1,3.67,3.67,0,0,0-2.11,5.57,3.88,3.88,0,0,0-.52,7,3.72,3.72,0,0,0-.78,2.28,3.66,3.66,0,0,0,3.61,3.69,3,3,0,0,1,4.19,1.92v9.58c-1.79-2-3.7-3.07-5.69-3.07a7.19,7.19,0,0,0-5,2.38l-1.22,1.42,1.79-.47a7.88,7.88,0,0,1,2-.27c3.93,0,4.77,3.92,4.8,4.08l.09.47h7.74l.09-.47c0-.17.85-4.08,4.8-4.08a7.74,7.74,0,0,1,2,.27l1.8.47Z"/></g><text class="cls-5" transform="translate(981.26 257.95)"><tspan class="cls-6">Al Lilac </tspan><tspan class="cls-7"><tspan x="0" y="18">Neighbourhood</tspan></tspan></text><text class="cls-8" transform="translate(645.26 697.8)">Futu<tspan class="cls-9" x="35.66" y="0">r</tspan><tspan x="41.76" y="0">e</tspan><tspan class="cls-10"><tspan x="0" y="21.6" xml:space="preserve">NEIGHBOURHOODS  </tspan></tspan></text><text class="cls-8" transform="translate(1683.15 428.53)">Al Jouri <tspan x="0" y="18">Neighbourhood</tspan></text><text class="cls-5" transform="translate(324.99 895)"><tspan class="cls-6">Ga<tspan class="cls-11" x="21.89" y="0">r</tspan><tspan x="28.46" y="0">den</tspan></tspan><tspan class="cls-7"><tspan x="0" y="18">Apartments</tspan></tspan></text><text class="cls-12" transform="translate(136.08 193.92)">Mosque</text><text class="cls-12" transform="translate(136.08 264.67)">Futu<tspan class="cls-13" x="27.73" y="0">r</tspan><tspan x="32.48" y="0">e </tspan><tspan class="cls-14" x="43.27" y="0">T</tspan><tspan class="cls-13" x="49.59" y="0">o</tspan><tspan x="57.06" y="0">wn Cent</tspan><tspan class="cls-13" x="106.57" y="0">r</tspan><tspan x="111.31" y="0">e</tspan></text><text class="cls-12" transform="translate(136.08 335.42)">Community Park</text><text class="cls-12" transform="translate(136.08 406.17)">Cent<tspan class="cls-15" x="27.52" y="0">r</tspan><tspan x="32.1" y="0">al Park</tspan></text><text class="cls-12" transform="translate(136.08 476.92)">Clubhouse</text><text class="cls-12" transform="translate(136.08 547.13)">Access</text><g class="cls-16"><path class="cls-17" d="M1663.06,436.81c-.65-.62-1.69-1.88-1.56-3s1.45-2.08,2.22-2.51c.64.62,1.69,1.88,1.56,3s-1.45,2.08-2.22,2.52m1.09-6.68a.56.56,0,0,0-.58-.07c-.12.05-2.91,1.39-3.18,3.6s2.14,4.22,2.24,4.3a.51.51,0,0,0,.35.13.64.64,0,0,0,.23,0c.12-.06,2.91-1.39,3.18-3.6s-2.14-4.22-2.24-4.31"/><path class="cls-17" d="M1668.65,444.33a6.18,6.18,0,0,1-1.81.31h0a2.27,2.27,0,0,1-1.46-.42c-.86-.69-1-2.35-1-3.27a6.46,6.46,0,0,1,1.81-.31,2.29,2.29,0,0,1,1.46.42c.86.69,1,2.35,1,3.27m-.28-4.2a3.33,3.33,0,0,0-2.14-.66,7.5,7.5,0,0,0-2.54.51.59.59,0,0,0-.36.48c0,.13-.32,3.33,1.37,4.69a3.3,3.3,0,0,0,2.14.66h0a7.5,7.5,0,0,0,2.54-.51.58.58,0,0,0,.35-.48c0-.13.33-3.33-1.36-4.69"/><path class="cls-17" d="M1670.89,438a1.8,1.8,0,0,1-.71.13,5.07,5.07,0,0,1-2.48-.9c.19-.89.72-2.47,1.72-2.9a1.58,1.58,0,0,1,.71-.14,5.11,5.11,0,0,1,2.48.9c-.2.89-.72,2.47-1.72,2.91m-18.31-11.6,0,0h0a9,9,0,0,1-3.69-9.55,5.48,5.48,0,0,1,.17-.67c.06-.11.17-.28.22-.36a.7.7,0,0,1,.66-.34.7.7,0,0,1,.45.25l.27.32.38.45a20.93,20.93,0,0,0,4.32,3.6l0,0,.18.11.06,0a19.54,19.54,0,0,0,5.07,2.08l.54.1.39.08a.75.75,0,0,1,.44.29,1,1,0,0,1,.12.88,2.58,2.58,0,0,1-.55.93,7.27,7.27,0,0,1-5.57,2.72,6.82,6.82,0,0,1-3.45-.93m-.38-13.19c0-.19.09-.37.14-.56l.19-.29a.5.5,0,0,1,.48-.25.52.52,0,0,1,.33.18l.23.27.32.39a18,18,0,0,0,3.7,3.08l.05,0,.16.09,0,0a16.67,16.67,0,0,0,4.33,1.78l.47.09.33.06h.09a17.66,17.66,0,0,1-1.48,1,3.55,3.55,0,0,1-5.58,0,19.71,19.71,0,0,1-3.94-3.19v0a7.81,7.81,0,0,1,.12-2.73m4.7-2c.42-.25.56-.17,1,.05a4.46,4.46,0,0,0,.78.33.53.53,0,0,0,.3.09h.18a.51.51,0,0,0,.3-.09,3.89,3.89,0,0,0,.78-.33c.43-.22.57-.3,1-.05.61.36.83,1.62.87,2.14a16.2,16.2,0,0,1-2.32,1.75l-.72.4c-.26-.13-.52-.27-.77-.42a18.08,18.08,0,0,1-2.26-1.67c0-.48.24-1.83.88-2.2m7.12,1.85s.19-.21.32-.38l.22-.26a.54.54,0,0,1,.31-.17.46.46,0,0,1,.44.24c0,.06.13.2.18.28s.09.35.13.53a7.46,7.46,0,0,1,.16,2.26s0,0,0,0l-.2.24a18.52,18.52,0,0,1-1.34,1.31l-1-.19-.35-.07-.42-.08a14.36,14.36,0,0,1-2.1-.7l.07,0,0,0a17.13,17.13,0,0,0,3.57-3m3.41,2.62a.65.65,0,0,1,.6.3l.21.35c.06.2.11.41.16.63a8.52,8.52,0,0,1-3.5,9,6.52,6.52,0,0,1-4.07.87,8.83,8.83,0,0,0,1.61-1.51,3.89,3.89,0,0,0,.77-1.32,2.2,2.2,0,0,0-.29-2,1.86,1.86,0,0,0-1.11-.74l-.41-.08-.49-.09-.44-.13c.51-.24,1-.51,1.54-.8l0,0,.18-.11,0,0a19.57,19.57,0,0,0,4.12-3.43l.35-.42.27-.31a.61.61,0,0,1,.41-.23m6.12,18.64a6.68,6.68,0,0,0-3.42-1.32,2.8,2.8,0,0,0-1.14.23c-1.8.79-2.35,3.51-2.45,4.07-2.36.61-5.7,1.58-7.37,4.61V427.82l.19-.08a7.75,7.75,0,0,0,2.23.35,7.65,7.65,0,0,0,3.77-1l.05,0,.1-.06,0,0a9.77,9.77,0,0,0,3.93-10.26,10.88,10.88,0,0,0-.54-1.37,1.57,1.57,0,0,0-1.64-.8,1.45,1.45,0,0,0-.41.1c0-.53-.12-1.06-.19-1.59a4.08,4.08,0,0,0-.48-1.21,1.6,1.6,0,0,0-1.48-.73,1.57,1.57,0,0,0-1,.56l-.64.74a3.33,3.33,0,0,0-1.32-2.24,1.81,1.81,0,0,0-2,0,3,3,0,0,1-.69.28,2.94,2.94,0,0,1-.68-.28,1.81,1.81,0,0,0-2,0,3.43,3.43,0,0,0-1.34,2.31c-.11-.11-.81-.92-.86-1a1.57,1.57,0,0,0-1-.56,1.61,1.61,0,0,0-1.52.74c-.08.12-.25.41-.25.41a.31.31,0,0,0-.06.13c-.07.23-.14.47-.19.71a10.09,10.09,0,0,0-.21,1.73,1.76,1.76,0,0,0-.9-.38,1.8,1.8,0,0,0-1.7.83,5.6,5.6,0,0,0-.56,1.43,10.31,10.31,0,0,0,4.11,10.76l.05,0,.11.07.06,0a8.07,8.07,0,0,0,4,1.06,7.69,7.69,0,0,0,2-.28V453a.58.58,0,0,0,.56.58.57.57,0,0,0,.56-.58v-6.72c0-5.46,3.95-6.92,7.89-7.94a.56.56,0,0,0,.17-.09,6,6,0,0,0,3,1,2.86,2.86,0,0,0,1.14-.22c2-.86,2.44-4,2.46-4.18a.61.61,0,0,0-.23-.56"/></g><text class="cls-5" transform="translate(1688.22 816.8)"><tspan class="cls-6">Al Narjis</tspan><tspan class="cls-7"><tspan x="0" y="18">Neighbourhood</tspan></tspan></text><g class="cls-18"><path class="cls-19" d="M1676.2,808.5c-.58,1.17-1.8,3.59-3.46,4.27a.6.6,0,0,0-.33.35.58.58,0,0,0,.06.48c.85,1.47.8,3.87.77,5a10.41,10.41,0,0,0,0,1.18,8.69,8.69,0,0,0-1.11-.35c-1.18-.3-3.64-.94-4.73-2.32a.56.56,0,0,0-.89,0c-1.09,1.38-3.55,2-4.73,2.32a8.69,8.69,0,0,0-1.11.35,10.41,10.41,0,0,0,0-1.18c0-1.16-.08-3.56.77-5a.54.54,0,0,0,0-.48.56.56,0,0,0-.32-.35c-1.66-.68-2.88-3.1-3.46-4.27a10.57,10.57,0,0,0-.58-1,9.59,9.59,0,0,0,1.14-.23,14.36,14.36,0,0,1,3.47-.56,4.9,4.9,0,0,1,1.45.19.54.54,0,0,0,.46-.06.56.56,0,0,0,.26-.39,11,11,0,0,1,2.33-4.22,11.69,11.69,0,0,0,.67-1,11.69,11.69,0,0,0,.67,1,10.92,10.92,0,0,1,2.34,4.22.56.56,0,0,0,.26.39.54.54,0,0,0,.46.06,4.9,4.9,0,0,1,1.45-.19,14.36,14.36,0,0,1,3.47.56,9.59,9.59,0,0,0,1.14.23,10.57,10.57,0,0,0-.58,1m-8.39,21.81a10.4,10.4,0,0,1,4.51-3.19,4.24,4.24,0,0,0-1.06,3.57c.35,1.52-.49,5.2-2,7.33a3.39,3.39,0,0,1-1.74,1.45v-9a.56.56,0,0,0,.25-.16m10.75-23.65a.55.55,0,0,0-.3-.33.53.53,0,0,0-.41,0,1.59,1.59,0,0,1-.36,0,6.49,6.49,0,0,1-1.57-.24,15.22,15.22,0,0,0-3.75-.6,6.47,6.47,0,0,0-1.2.1,13,13,0,0,0-2.42-4.15,4.6,4.6,0,0,1-1-1.7.47.47,0,0,0-.16-.38.57.57,0,0,0-.42-.15.56.56,0,0,0-.41.15.51.51,0,0,0-.15.39,4.7,4.7,0,0,1-1,1.69,13.1,13.1,0,0,0-2.41,4.15,6.55,6.55,0,0,0-1.2-.1,15.22,15.22,0,0,0-3.75.6,6.49,6.49,0,0,1-1.57.24,1.59,1.59,0,0,1-.36,0,.53.53,0,0,0-.41,0,.57.57,0,0,0-.31.32.59.59,0,0,0,0,.45.55.55,0,0,0,.28.3,4.87,4.87,0,0,1,1.11,1.62c.59,1.17,1.75,3.49,3.49,4.53a12.59,12.59,0,0,0-.65,5.09,4.68,4.68,0,0,1-.23,2,.52.52,0,0,0-.1.4.56.56,0,0,0,.23.38.58.58,0,0,0,.36.15h.06a.49.49,0,0,0,.36-.21,4.63,4.63,0,0,1,1.79-.74,12.86,12.86,0,0,0,4.34-1.76v23.61a.57.57,0,1,0,1.13,0v-1.78a4.06,4.06,0,0,0,2.66-2c1.71-2.47,2.56-6.47,2.14-8.26-.45-2,2.11-3.8,2.14-3.81a.59.59,0,0,0,.21-.68.57.57,0,0,0-.59-.38,10.56,10.56,0,0,0-6.56,3.31V818.81a12.59,12.59,0,0,0,4.34,1.77,4.63,4.63,0,0,1,1.79.74.53.53,0,0,0,.35.21.58.58,0,0,0,.43-.14.51.51,0,0,0,.23-.37.53.53,0,0,0-.1-.41,4.68,4.68,0,0,1-.23-2,12.59,12.59,0,0,0-.65-5.09c1.74-1,2.9-3.36,3.49-4.53a4.57,4.57,0,0,1,1.11-1.62.52.52,0,0,0,.27-.31.56.56,0,0,0,0-.44"/><path class="cls-19" d="M1670.8,812a3.69,3.69,0,0,0-.46.74,3.08,3.08,0,0,0-.19.89,1.55,1.55,0,0,1-.2.71,1.39,1.39,0,0,1-.7.2,3.33,3.33,0,0,0-.87.2,3.54,3.54,0,0,0-.73.48,1.47,1.47,0,0,1-.65.37,1.44,1.44,0,0,1-.66-.37,3.54,3.54,0,0,0-.73-.48,3.33,3.33,0,0,0-.87-.2,1.39,1.39,0,0,1-.7-.2,1.34,1.34,0,0,1-.19-.71,4,4,0,0,0-.2-.89,3.32,3.32,0,0,0-.47-.74.79.79,0,0,1,0-1.34,3.39,3.39,0,0,0,.47-.75,4,4,0,0,0,.2-.88,1.38,1.38,0,0,1,.19-.72,1.5,1.5,0,0,1,.7-.2,3.33,3.33,0,0,0,.87-.2,3.14,3.14,0,0,0,.73-.47,1.48,1.48,0,0,1,.66-.38,1.5,1.5,0,0,1,.65.38,3.14,3.14,0,0,0,.73.47,3.33,3.33,0,0,0,.87.2,1.5,1.5,0,0,1,.7.2,1.59,1.59,0,0,1,.2.72,3.09,3.09,0,0,0,.19.88,3.76,3.76,0,0,0,.46.75.78.78,0,0,1,0,1.34m.59-2.53a2.75,2.75,0,0,1-.12-.6,2.26,2.26,0,0,0-.52-1.38,2.13,2.13,0,0,0-1.35-.52,2.08,2.08,0,0,1-.58-.13,1.87,1.87,0,0,1-.47-.32,1.81,1.81,0,0,0-2.71,0,1.87,1.87,0,0,1-.47.32,2.08,2.08,0,0,1-.58.13,2.16,2.16,0,0,0-1.35.52,2.26,2.26,0,0,0-.52,1.38,2.75,2.75,0,0,1-.12.6,2.91,2.91,0,0,1-.31.48,2.32,2.32,0,0,0-.61,1.38,2.35,2.35,0,0,0,.61,1.38,2.55,2.55,0,0,1,.31.48,2.65,2.65,0,0,1,.12.59,2.21,2.21,0,0,0,.52,1.38,2.17,2.17,0,0,0,1.35.53,2.55,2.55,0,0,1,.58.12,2.62,2.62,0,0,1,.47.32,1.79,1.79,0,0,0,2.71,0,2.62,2.62,0,0,1,.47-.32,2.55,2.55,0,0,1,.58-.12,2.15,2.15,0,0,0,1.35-.53,2.21,2.21,0,0,0,.52-1.38,2.65,2.65,0,0,1,.12-.59,2.55,2.55,0,0,1,.31-.48,2.35,2.35,0,0,0,.61-1.38,2.32,2.32,0,0,0-.61-1.38,2.91,2.91,0,0,1-.31-.48"/><path class="cls-19" d="M1667.62,810.76h-1.25a.58.58,0,0,0,0,1.16h1.25a.58.58,0,0,0,0-1.16"/></g><g class="cls-20"><path class="cls-21" d="M313.78,883.21a6.06,6.06,0,0,0-5.81-7.75,2.34,2.34,0,0,0-.72.08,4.23,4.23,0,0,0-3.74-2.25,4.08,4.08,0,0,0-3.75,2.35,5.5,5.5,0,0,0-5,4,6.8,6.8,0,0,0-5.2,4.43l-.26,1.14a7.1,7.1,0,0,0-.09,1.06,6.88,6.88,0,0,0,2.9,5.57,5.08,5.08,0,0,0,.17,4.72l.95-.67a3.86,3.86,0,0,1-.48-1.85,4,4,0,0,1,.61-2.11l.35-.49-.55-.32a5.59,5.59,0,0,1,2.09-10.39l.43-.1.07-.36a4.41,4.41,0,0,1,4.32-3.53,3.47,3.47,0,0,0,.42,0l.12-.33a3.08,3.08,0,0,1,5.73-.06l.16.45.48-.1a5.4,5.4,0,0,1,1-.1,4.93,4.93,0,0,1,4.56,6.75l-.26.55.6.21a5.59,5.59,0,0,1-.33,10.68l-.35.13-.06.3a8,8,0,0,1-7.81,6.29.68.68,0,0,1-.23,0l0-4a8.81,8.81,0,0,0,8.19-8.77.57.57,0,0,0-.57-.57.58.58,0,0,0-.57.57,7.64,7.64,0,0,1-7.08,7.59l0-7.08a4.67,4.67,0,0,0,4.09-4.62.56.56,0,0,0-.57-.57.57.57,0,0,0-.57.57,3.51,3.51,0,0,1-3,3.44v-9.27a.58.58,0,0,0-.57-.57.57.57,0,0,0-.57.57l0,5.88a3.58,3.58,0,0,1-2.93-3.48.58.58,0,0,0-1.15,0,4.72,4.72,0,0,0,4.12,4.66l0,7.08a7.69,7.69,0,0,1-7-7.62.57.57,0,0,0-.57-.58.58.58,0,0,0-.57.58,8.9,8.9,0,0,0,8.23,8.79l0,7.29a8.21,8.21,0,0,1-2.84-1.11l.1,1.37a9.12,9.12,0,0,0,2.78.93v13.92a.57.57,0,0,0,.57.57.58.58,0,0,0,.57-.57l0-13.84h.2a9.18,9.18,0,0,0,8.82-6.84,6.72,6.72,0,0,0,4.66-6.41,6.85,6.85,0,0,0-4-6.19"/><path class="cls-21" d="M297.64,915c0,.77-.28,1-1.08,1H293.3c-.82,0-1.07-.25-1.07-1.08v-13.5a2.7,2.7,0,1,1,5.4-.08c0,6.88,0,6.78,0,13.65m-6.58-7.7h-2.75v-3.49h2.75Zm-3.89,7.5c0,1-.21,1.21-1.23,1.22h-3c-1,0-1.24-.24-1.24-1.23V901.33a2.71,2.71,0,0,1,5.34-.76,5.32,5.32,0,0,1,.09.93v13.26Zm-6.55-7.51h-2.8v-3.46h2.8Zm-3.89,7.54c0,.93-.26,1.18-1.21,1.19h-3c-1,0-1.21-.25-1.21-1.26V901.45a2.74,2.74,0,1,1,5.46,0Zm22-13.37a4.54,4.54,0,0,0-.56-2.06,3.67,3.67,0,0,0-4.4-1.74,3.79,3.79,0,0,0-2.67,3.64c0,.79,0,.55,0,1.35h-2.86v-1.18a4.48,4.48,0,0,0-.61-2.19,3.67,3.67,0,0,0-4.4-1.6,3.79,3.79,0,0,0-2.59,3.7v1.29h-2.88c0-.89,0-.7,0-1.54a3.76,3.76,0,0,0-3.83-3.63,3.7,3.7,0,0,0-3.73,3.71c0,6.92,0,6.87,0,13.79a1.84,1.84,0,0,0,2,2.08c1.08,0,2.17,0,3.25,0,1.65,0,2.3-.63,2.3-2.29v-6.28h2.85v6.36a1.94,1.94,0,0,0,2.22,2.21H286c1.63,0,2.26-.65,2.27-2.3v-6.29h2.86v6.49a1.9,1.9,0,0,0,2.12,2.1c1.11,0,2.22,0,3.33,0a1.94,1.94,0,0,0,2.18-2.19Z"/></g><line class="cls-22" x1="1024.67" y1="386.95" x2="1024.67" y2="289.43"/><line class="cls-23" x1="1144" y1="569.47" x2="1144" y2="403.36"/><line class="cls-23" x1="1409" y1="536.81" x2="1523.28" y2="536.81"/><line class="cls-22" x1="1539.24" y1="432" x2="1636.76" y2="432"/><line class="cls-22" x1="1009.17" y1="386.95" x2="1040.17" y2="386.95"/><line class="cls-22" x1="1539.24" y1="416.5" x2="1539.24" y2="447.5"/><line class="cls-22" x1="528.29" y1="896.99" x2="430.77" y2="896.99"/><line class="cls-22" x1="528.29" y1="912.49" x2="528.29" y2="881.49"/><line class="cls-22" x1="1547.24" y1="821.13" x2="1644.76" y2="821.13"/><line class="cls-22" x1="1547.24" y1="805.63" x2="1547.24" y2="836.63"/><g class="cls-24"><path class="cls-25" d="M1157.21,378.09a3.22,3.22,0,1,0-3.22,3.22,3.24,3.24,0,0,0,3.22-3.22m1.54,0a4.69,4.69,0,0,1-4.61,4.74,4.32,4.32,0,0,1-3.37-1.52v4.45h-1.54v-7.67a4.76,4.76,0,1,1,9.52,0"/><path class="cls-25" d="M1168.22,378.09a3.23,3.23,0,1,0-3.23,3.22,3.25,3.25,0,0,0,3.23-3.22m0,4.61v-1.39a4.52,4.52,0,0,1-6.65.12,4.77,4.77,0,1,1,8.18-3.34v4.61Z"/><path class="cls-25" d="M1176,373.33v1.54a2.45,2.45,0,0,0-2.45,2.45v5.38H1172v-5.38a4.12,4.12,0,0,1,4-4"/></g><polygon class="cls-25" points="1177.85 369.56 1177.85 382.7 1179.38 382.7 1179.38 379.93 1180.14 379.18 1183.67 382.7 1185.84 382.7 1181.23 378.09 1185.84 373.48 1183.67 373.48 1179.38 377.77 1179.38 369.56 1177.85 369.56"/><g class="cls-24"><path class="cls-19" d="M1126.49,367.21a5.74,5.74,0,0,1-3.38-1.21l1.05-1.18a4.15,4.15,0,0,0,2.41,1c1,0,1.64-.48,1.64-1.21s-1-1.15-2-1.51l-.16-.06c-1.26-.47-2.55-1.14-2.55-2.61s1.33-2.68,3.3-2.68a4.74,4.74,0,0,1,3,1.05l-1.09,1.07a3.31,3.31,0,0,0-1.83-.7c-.89,0-1.52.46-1.52,1.15s1,1.05,1.94,1.4l.11,0c1.37.51,2.6,1.1,2.6,2.72s-1.41,2.78-3.51,2.78"/><path class="cls-19" d="M1133.23,361.71h6.26a3.14,3.14,0,0,0-1.4-1.94,3.23,3.23,0,0,0-4.45,1,4.19,4.19,0,0,0-.41,1m5.81,2.53,1.3.85a4.78,4.78,0,0,1-8.64-1.61,4.55,4.55,0,0,1,.65-3.58,4.76,4.76,0,0,1,8.7,3.33l-7.82,0a3.13,3.13,0,0,0,1.39,1.95,3.19,3.19,0,0,0,4.42-1"/><path class="cls-19" d="M1149.41,367.08V361.7a2.46,2.46,0,0,0-4.91,0v5.38H1143V361.7a4,4,0,1,1,8,0v5.38Z"/><path class="cls-19" d="M1155.9,367.21a5.74,5.74,0,0,1-3.38-1.21l1.06-1.18a4.13,4.13,0,0,0,2.4,1c1,0,1.64-.48,1.64-1.21s-1-1.15-2-1.51l-.16-.06c-1.26-.47-2.55-1.14-2.55-2.61s1.34-2.68,3.3-2.68a4.74,4.74,0,0,1,3,1.05l-1.09,1.07a3.31,3.31,0,0,0-1.83-.7c-.89,0-1.52.46-1.52,1.15s1,1.05,1.94,1.4l.11,0c1.37.51,2.6,1.1,2.6,2.72s-1.41,2.78-3.51,2.78"/><path class="cls-19" d="M1169,362.47a3.23,3.23,0,1,0-3.23,3.22,3.25,3.25,0,0,0,3.23-3.22m1.53,0a4.76,4.76,0,1,1-4.76-4.76,4.74,4.74,0,0,1,4.76,4.76"/><path class="cls-19" d="M1176.38,357.71v1.54a2.46,2.46,0,0,0-2.46,2.45v5.38h-1.54V361.7a4.12,4.12,0,0,1,4-4"/><path class="cls-19" d="M1177.85,357.86h1.54v5.37a2.46,2.46,0,0,0,4.92,0v-5.37h1.53v8.3a4.76,4.76,0,0,1-4.76,4.74v-1.53a3.25,3.25,0,0,0,3.23-3.06,3.94,3.94,0,0,1-2.46.9,4.12,4.12,0,0,1-4-4Z"/><path class="cls-19" d="M1113.8,350.32a.42.42,0,0,1-.28-.1.46.46,0,0,1-.07-.63,2.68,2.68,0,0,0,.59-1.69,2.73,2.73,0,1,0-4.87,1.69.45.45,0,0,1-.07.63.42.42,0,0,1-.28.1.46.46,0,0,1-.36-.17,3.63,3.63,0,1,1,5.7,0,.46.46,0,0,1-.36.17m1.84,1.38a.48.48,0,0,1-.29-.1.47.47,0,0,1-.07-.64,5,5,0,0,0,1.1-3.14,5.07,5.07,0,0,0-10.13,0,5,5,0,0,0,1.09,3.14.47.47,0,0,1,.1.34.51.51,0,0,1-.17.3.48.48,0,0,1-.28.1.47.47,0,0,1-.36-.18,5.91,5.91,0,0,1-1.29-3.7,6,6,0,0,1,11.94,0,5.91,5.91,0,0,1-1.29,3.7.47.47,0,0,1-.35.18m-9.69,5.39a11.29,11.29,0,0,1,1.11,2,12,12,0,0,0,1.88,3.55l.08.09a6.12,6.12,0,0,1,1.52,2.22,9.37,9.37,0,0,1,.4,1.2.2.2,0,0,0,.19.14h6a.3.3,0,0,0,.3-.28,8.26,8.26,0,0,1,.29-1.92c.07-.21.15-.38.22-.54l.16-.32,0-.09a4.69,4.69,0,0,0,.31-.91,21.1,21.1,0,0,0,.13-3.42v-2.7a1.06,1.06,0,0,0-.09-.42c-.11-.24-.28-.39-.46-.39h-.1c-.15,0-.23.2-.23.39a.46.46,0,0,1-.46.45.47.47,0,0,1-.48-.45v-.61a1,1,0,0,0,0-.37c-.19-.46-.35-.51-.55-.53-.43,0-.58.08-.63,1.06a.45.45,0,0,1-.46.43.46.46,0,0,1-.45-.45v-.93a.91.91,0,0,0-.17-.56.71.71,0,0,0-.48-.31c-.48,0-.65.14-.71.58l-.1.7a.46.46,0,0,1-.45.39.45.45,0,0,1-.45-.43l-.38-6.81c-.07-.6-.37-.68-.65-.68s-.6.23-.65.69l-.48,10.23a.46.46,0,0,1-.18.34.47.47,0,0,1-.28.09h-.09a.47.47,0,0,1-.3-.17,7.21,7.21,0,0,0-1.46-1.44,1.65,1.65,0,0,0-.91-.28,1.48,1.48,0,0,0-1,.34l-.06,0Zm5.18,10.12a1.08,1.08,0,0,1-1.06-.83,8.15,8.15,0,0,0-.37-1.08,5.3,5.3,0,0,0-1.34-1.95l-.09-.09a12.85,12.85,0,0,1-2.06-3.83,10.59,10.59,0,0,0-1.06-1.91.89.89,0,0,1,.07-1.08,2.36,2.36,0,0,1,1.71-.72,2.56,2.56,0,0,1,1.39.42,4.53,4.53,0,0,1,.83.68l.15.15.43-9.16a1.55,1.55,0,0,1,1.55-1.53,1.49,1.49,0,0,1,1.55,1.5l.28,5,.12-.05a1.92,1.92,0,0,1,.79-.15,1.57,1.57,0,0,1,1.21.67.76.76,0,0,1,.12.19l.05.07.08,0a1.67,1.67,0,0,1,.75-.15,1.59,1.59,0,0,1,1.39,1.1l0,.08.08,0a1,1,0,0,1,.25,0h.09a1.4,1.4,0,0,1,1.29.93,2,2,0,0,1,.17.78v2.36a20.8,20.8,0,0,1-.16,4,6.29,6.29,0,0,1-.45,1.23l0,.07a6.49,6.49,0,0,0-.27.64,7.65,7.65,0,0,0-.24,1.69,1.21,1.21,0,0,1-1.2,1.12Z"/></g><circle class="cls-26" cx="1144" cy="573.24" r="4.02"/><circle class="cls-27" cx="1404.94" cy="536.81" r="4.02"/><line class="cls-23" x1="1332.1" y1="871.67" x2="1528.23" y2="871.67"/><circle class="cls-28" cx="1328.02" cy="871.67" r="4.02"/><g class="cls-29"><path class="cls-30" d="M1557.4,536.23a4.52,4.52,0,0,0,4.4-3.55l0-.23.27-.1a3.12,3.12,0,0,0,.19-6l-.47-.16.2-.44a2.67,2.67,0,0,0,.2-1,2.72,2.72,0,0,0-2.73-2.72,3.27,3.27,0,0,0-.53.05l-.38.08-.12-.36a1.67,1.67,0,0,0-3.1,0l-.08.22,0,0s0,0-.3,0a2.44,2.44,0,0,0-2.4,2l0,.28-.32.07a3.12,3.12,0,0,0-1.18,5.8l.43.24-.27.39a2.18,2.18,0,0,0-.34,1.16,2.21,2.21,0,0,0,2.2,2.2l.31,0,.24,0,.18.2a4.54,4.54,0,0,0,2.7,1.73v-4a5.26,5.26,0,0,1-4.74-5.2.45.45,0,0,1,.9,0,4.33,4.33,0,0,0,3.84,4.28v-3.87a2.81,2.81,0,0,1-2.36-2.79.45.45,0,0,1,.45-.44.44.44,0,0,1,.44.44,2,2,0,0,0,1.47,1.87v-3.26a.46.46,0,0,1,.47-.44.45.45,0,0,1,.44.45v5.22a1.92,1.92,0,0,0,1.49-1.85.45.45,0,1,1,.89,0,2.83,2.83,0,0,1-2.37,2.77v3.87a4.31,4.31,0,0,0,3.86-4.27.45.45,0,0,1,.89,0,5.22,5.22,0,0,1-4.75,5.18v2.11h0m-15.77-.31a3.6,3.6,0,0,0,2.95,2.32V534a3.2,3.2,0,0,1-2.76-3.19.45.45,0,1,1,.9,0,2.33,2.33,0,0,0,1.86,2.27v-3.49a.46.46,0,0,1,.46-.45.45.45,0,0,1,.45.45v5.51a2.31,2.31,0,0,0,1.88-2.26.45.45,0,0,1,.9,0,3.2,3.2,0,0,1-2.76,3.17l0,2.22a3.58,3.58,0,0,0,3-2.55l.08-.27.31,0a3.15,3.15,0,0,0,2.11-1,3.09,3.09,0,0,1-.73-3.51,4.08,4.08,0,0,1-1.65-3.25,2.9,2.9,0,0,1,0-.56,2.23,2.23,0,0,0-1-.25,2,2,0,0,0-.55.08l-.45.13-.11-.44a1.54,1.54,0,0,0-1.47-1.09,1.52,1.52,0,0,0-1.48,1.17l-.11.42-.41-.09a3.74,3.74,0,0,0-.54,0,3.21,3.21,0,0,0-2.87,4.67l.15.31-.25.21a2.07,2.07,0,0,0,1.43,3.56h.2l.35,0Zm15.31,6.55a.45.45,0,0,1-.45-.44v-5a5.53,5.53,0,0,1-3.28-1.92H1553a3,3,0,0,1-1.33-.32,4.08,4.08,0,0,1-2.52,1.38,4.43,4.43,0,0,1-3.7,2.93V542a.45.45,0,0,1-.89,0v-2.88a4.55,4.55,0,0,1-3.7-2.65h0a2.94,2.94,0,0,1-2.18-4.85,3.62,3.62,0,0,1-.32-1.55,4.11,4.11,0,0,1,4.11-4.11h.3a2.44,2.44,0,0,1,4.42-.12h.4a3,3,0,0,1,1.2.26,4,4,0,0,1,3-2.5,3.28,3.28,0,0,1,2.89-2.35,2.47,2.47,0,0,1,2.25-1.36,2.57,2.57,0,0,1,2.22,1.28,1.73,1.73,0,0,1,.36,0,3.62,3.62,0,0,1,3.61,3.62,3.57,3.57,0,0,1-.12.92,4.07,4.07,0,0,1,2.3,3.64,4,4,0,0,1-2.71,3.8,5.44,5.44,0,0,1-5.22,4V542a.44.44,0,0,1-.44.44"/><path class="cls-30" d="M1570.79,533.11H1574v1.52h-3.21v3.11a3.08,3.08,0,0,0,.94,2.25,3.14,3.14,0,0,0,2.27,1v1.53a4.54,4.54,0,0,1-3.35-1.39,4.59,4.59,0,0,1-1.4-3.35v-8.54h1.54Z"/><path class="cls-30" d="M1580.17,533v1.54a2.45,2.45,0,0,0-2.45,2.46v5.37h-1.54V537a4.12,4.12,0,0,1,4-4"/><path class="cls-30" d="M1582.91,537h6.26a3.15,3.15,0,0,0-1.39-2,3.23,3.23,0,0,0-4.46,1,4,4,0,0,0-.41,1m5.81,2.53,1.3.84a4.78,4.78,0,0,1-8.64-1.61,4.52,4.52,0,0,1,.65-3.57,4.76,4.76,0,0,1,8.71,3.33l-7.83,0a3.21,3.21,0,0,0,5.81,1"/><path class="cls-30" d="M1593.91,537h6.26a3.13,3.13,0,0,0-1.4-2,3.22,3.22,0,0,0-4.45,1,3.66,3.66,0,0,0-.41,1m5.81,2.53,1.29.84a4.74,4.74,0,0,1-6.54,1.38,4.66,4.66,0,0,1-2.09-3,4.52,4.52,0,0,1,.64-3.57,4.76,4.76,0,0,1,8.71,3.33l-7.82,0a3.14,3.14,0,0,0,1.39,1.94,3.19,3.19,0,0,0,4.42-1"/><path class="cls-25" d="M1573.15,553.33a3.23,3.23,0,1,0-3.22,3.22,3.24,3.24,0,0,0,3.22-3.22m1.54,0a4.7,4.7,0,0,1-4.61,4.75,4.35,4.35,0,0,1-3.38-1.53V561h-1.53v-7.67a4.76,4.76,0,0,1,9.52,0"/><path class="cls-25" d="M1584.15,553.33a3.23,3.23,0,1,0-3.23,3.22,3.25,3.25,0,0,0,3.23-3.22m0,4.61v-1.39a4.5,4.5,0,0,1-6.65.12,4.71,4.71,0,0,1-1.34-3.34,4.76,4.76,0,0,1,9.52,0v4.61Z"/><path class="cls-25" d="M1591.93,548.57v1.54a2.46,2.46,0,0,0-2.46,2.46v5.37h-1.54v-5.37a4.13,4.13,0,0,1,4-4"/></g><polygon class="cls-25" points="1593.79 544.81 1593.79 557.94 1595.32 557.94 1595.32 555.18 1596.07 554.42 1599.6 557.94 1601.77 557.94 1597.16 553.33 1601.77 548.73 1599.6 548.73 1595.32 553.01 1595.32 544.81 1593.79 544.81"/><g class="cls-31"><path class="cls-32" d="M1565.66,861.71a1.84,1.84,0,0,0-1.51,1.09c-.3.47-.46.68-.74.68s-.45-.21-.75-.68a1.58,1.58,0,0,0-3,0c-.3.47-.46.68-.75.68s-.44-.21-.74-.68a1.84,1.84,0,0,0-1.5-1.09,1.81,1.81,0,0,0-1.5,1.09c-.3.47-.46.68-.75.68s-.44-.21-.74-.68a1.58,1.58,0,0,0-3,0c-.29.47-.46.68-.74.68s-.45-.21-.74-.68a1.84,1.84,0,0,0-1.51-1.09.44.44,0,0,0-.44.44.44.44,0,0,0,.44.44c.29,0,.45.2.75.68a1.58,1.58,0,0,0,3,0c.3-.48.46-.68.75-.68s.44.2.74.68a1.58,1.58,0,0,0,3,0c.3-.48.46-.68.75-.68s.44.2.74.68a1.58,1.58,0,0,0,3,0c.3-.48.46-.68.75-.68s.44.2.74.68a1.84,1.84,0,0,0,1.51,1.09,1.81,1.81,0,0,0,1.5-1.09c.3-.48.46-.68.75-.68a.44.44,0,0,0,.44-.44.44.44,0,0,0-.44-.44"/><path class="cls-32" d="M1565.66,865.05a1.85,1.85,0,0,0-1.51,1.1c-.3.47-.46.68-.74.68s-.45-.21-.75-.68a1.57,1.57,0,0,0-3,0c-.3.47-.46.68-.75.68s-.44-.21-.74-.68a1.85,1.85,0,0,0-1.5-1.1,1.82,1.82,0,0,0-1.5,1.1c-.3.47-.46.68-.75.68s-.44-.21-.74-.68a1.83,1.83,0,0,0-1.5-1.1,1.85,1.85,0,0,0-1.51,1.1c-.29.47-.46.68-.74.68s-.45-.21-.75-.68a1.8,1.8,0,0,0-1.5-1.1.44.44,0,0,0-.44.44.44.44,0,0,0,.44.44c.29,0,.45.21.75.69a1.57,1.57,0,0,0,3,0c.3-.47.46-.68.75-.68s.44.21.74.69a1.57,1.57,0,0,0,3,0c.3-.47.46-.68.75-.68s.44.21.74.69a1.57,1.57,0,0,0,3,0c.3-.47.46-.68.75-.68s.44.21.74.69a1.84,1.84,0,0,0,1.51,1.09,1.81,1.81,0,0,0,1.5-1.09c.3-.48.46-.69.75-.69a.44.44,0,0,0,.44-.44.44.44,0,0,0-.44-.44"/><path class="cls-32" d="M1565.66,868.4a1.83,1.83,0,0,0-1.51,1.1c-.3.47-.46.68-.74.68s-.45-.21-.75-.68a1.57,1.57,0,0,0-3,0c-.3.47-.46.68-.75.68s-.44-.21-.74-.68a1.57,1.57,0,0,0-3,0c-.3.47-.46.68-.75.68s-.44-.21-.74-.68a1.83,1.83,0,0,0-1.5-1.1,1.85,1.85,0,0,0-1.51,1.1c-.29.47-.46.68-.74.68s-.45-.21-.74-.68a1.83,1.83,0,0,0-1.51-1.1.44.44,0,0,0-.44.44.44.44,0,0,0,.44.44c.29,0,.45.21.75.69a1.57,1.57,0,0,0,3,0c.3-.47.46-.68.75-.68s.44.21.74.68a1.57,1.57,0,0,0,3,0c.3-.47.46-.68.75-.68s.44.21.74.68a1.57,1.57,0,0,0,3,0c.3-.47.46-.68.75-.68s.44.21.74.68a1.83,1.83,0,0,0,1.51,1.1,1.8,1.8,0,0,0,1.5-1.1c.3-.47.46-.68.75-.68a.44.44,0,0,0,.44-.44.44.44,0,0,0-.44-.44"/><path class="cls-32" d="M1548.35,860.45h.05c2.66-.31,3.39-1.3,4-2.1a2,2,0,0,1,.8-.76,1.59,1.59,0,0,1,.64-.13,1.66,1.66,0,0,1,1.52,1,1.21,1.21,0,0,1-.65,1.59.84.84,0,0,1-.35.07.89.89,0,0,1-.82-.53.62.62,0,0,1,.33-.81.47.47,0,0,0,.24-.24.5.5,0,0,0,0-.34.45.45,0,0,0-.41-.27.58.58,0,0,0-.18,0,1.51,1.51,0,0,0-.81.82,1.46,1.46,0,0,0,0,1.14,1.79,1.79,0,0,0,1.64,1.07,1.86,1.86,0,0,0,.7-.14,2.06,2.06,0,0,0,1.21-1.38.57.57,0,0,0,.13-.08,7.63,7.63,0,0,0,.84-.89,3,3,0,0,1,1-.9,1.59,1.59,0,0,1,.64-.13,1.66,1.66,0,0,1,1.52,1,1.21,1.21,0,0,1-.65,1.59.84.84,0,0,1-.35.07,1,1,0,0,1-.33-.06.94.94,0,0,1-.49-.47.64.64,0,0,1,0-.47.58.58,0,0,1,.33-.34.43.43,0,0,0,.24-.24.5.5,0,0,0,0-.34.45.45,0,0,0-.41-.27.58.58,0,0,0-.18,0,1.51,1.51,0,0,0-.81.82,1.46,1.46,0,0,0,0,1.14,1.79,1.79,0,0,0,1.64,1.07,1.86,1.86,0,0,0,.7-.14,2.12,2.12,0,0,0,1.23-1.44l0,0a8.58,8.58,0,0,0,.84-.89,2.94,2.94,0,0,1,1-.9,1.56,1.56,0,0,1,.64-.13,1.65,1.65,0,0,1,1.51,1,1.2,1.2,0,0,1-.65,1.59.8.8,0,0,1-.34.07.89.89,0,0,1-.82-.53.59.59,0,0,1,0-.47.57.57,0,0,1,.34-.34.47.47,0,0,0,.24-.24.45.45,0,0,0,0-.34.45.45,0,0,0-.41-.27.47.47,0,0,0-.17,0,1.51,1.51,0,0,0-.81.82,1.41,1.41,0,0,0,0,1.14,1.78,1.78,0,0,0,1.64,1.07,1.81,1.81,0,0,0,.69-.14,2.07,2.07,0,0,0,1.12-2.74,2.49,2.49,0,0,0-1.38-1.34,2.57,2.57,0,0,0-1.94,0,3.65,3.65,0,0,0-1.33,1.14l-.24.29s0-.07,0-.11a2.5,2.5,0,0,0-1.39-1.34,2.53,2.53,0,0,0-.94-.18,2.66,2.66,0,0,0-1,.2,3.56,3.56,0,0,0-1.32,1.15l-.32.35-.06-.18a2.55,2.55,0,0,0-2.34-1.52,2.61,2.61,0,0,0-1,.2,2.79,2.79,0,0,0-1.17,1.05c-.51.7-1.09,1.48-3.36,1.75a.43.43,0,0,0-.3.16.44.44,0,0,0-.09.33.44.44,0,0,0,.44.39"/><path class="cls-32" d="M1581.17,861.71h1.53v5.68a3.63,3.63,0,0,1-3.53,3.69,3.3,3.3,0,0,1-2.76-1.32,3.36,3.36,0,0,1-2.76,1.32,3.64,3.64,0,0,1-3.54-3.69v-5.68h1.54v5.68a2.08,2.08,0,0,0,2,2.15,2,2,0,0,0,2-2.15v-5.68h1.54v5.68a2,2,0,0,0,2,2.15,2.09,2.09,0,0,0,2-2.15Z"/><path class="cls-32" d="M1592.55,866.32a3.23,3.23,0,1,0-3.23,3.22,3.25,3.25,0,0,0,3.23-3.22m0,4.61v-1.39a4.33,4.33,0,0,1-3.38,1.52,4.39,4.39,0,0,1-3.27-1.4,4.77,4.77,0,1,1,8.18-3.34v4.61Z"/><path class="cls-32" d="M1597.8,861.71H1601v1.52h-3.21v3.12a3.08,3.08,0,0,0,.94,2.25,3.14,3.14,0,0,0,2.27.95v1.53a4.75,4.75,0,0,1-4.75-4.74v-8.55h1.54Z"/><path class="cls-32" d="M1604.45,865.56h6.26a3.16,3.16,0,0,0-1.39-1.94,3.24,3.24,0,0,0-4.46,1,4.19,4.19,0,0,0-.41,1m5.81,2.53,1.3.85a4.78,4.78,0,0,1-8.64-1.61,4.52,4.52,0,0,1,.65-3.57,4.76,4.76,0,0,1,8.71,3.32l-7.83,0a3.21,3.21,0,0,0,5.81,1"/><path class="cls-32" d="M1618.18,861.56v1.54a2.46,2.46,0,0,0-2.46,2.46v5.37h-1.54v-5.37a4.13,4.13,0,0,1,4-4"/><path class="cls-25" d="M1589.56,881.94a3.23,3.23,0,1,0-3.23,3.22,3.25,3.25,0,0,0,3.23-3.22m1.53,0a4.69,4.69,0,0,1-4.6,4.74,4.34,4.34,0,0,1-3.38-1.52v4.45h-1.53v-7.67a4.76,4.76,0,1,1,9.51,0"/><path class="cls-25" d="M1600.56,881.94a3.23,3.23,0,1,0-3.23,3.22,3.25,3.25,0,0,0,3.23-3.22m0,4.61v-1.39a4.33,4.33,0,0,1-3.38,1.52,4.39,4.39,0,0,1-3.27-1.4,4.77,4.77,0,1,1,8.18-3.34v4.61Z"/><path class="cls-25" d="M1608.34,877.18v1.54a2.46,2.46,0,0,0-2.46,2.46v5.37h-1.54v-5.37a4.12,4.12,0,0,1,4-4"/></g><polygon class="cls-25" points="1610.2 873.41 1610.2 886.55 1611.73 886.55 1611.73 883.79 1612.48 883.03 1616.01 886.55 1618.18 886.55 1613.57 881.94 1618.18 877.33 1616.01 877.33 1611.73 881.62 1611.73 873.41 1610.2 873.41"/><g class="cls-33"><path class="cls-34" d="M1553.37,732.8v-7.44h-.92v7.44h-4.56c0-4.36,0-8.64,0-12.94a1.38,1.38,0,0,1,1.37-1.35c.59,0,1.17,0,1.76,0a1.47,1.47,0,0,1,1.44,1.52h.87a2.24,2.24,0,0,0-2.37-2.39c-.57,0-1.14,0-1.7,0a3,3,0,0,0-1.06.26,2.3,2.3,0,0,0-1.2,2.26c0,4,0,8,0,11.94v.69h-.85v.88h8.06v-.88c-.28,0-.53,0-.85,0"/><path class="cls-34" d="M1569.24,720.86h-20.36a.47.47,0,0,0-.47.48v2.24a.48.48,0,0,0,.47.49h20.36a.49.49,0,0,0,.48-.49v-2.24a.48.48,0,0,0-.48-.48m-20,2.35v-1.5h1.38l-1.12,1.5Zm1.31,0,1.13-1.5H1555l-1.13,1.5Zm4.37,0,1.13-1.5h3.31l-1.13,1.5Zm4.37,0,1.13-1.5h3.31l-1.13,1.5Zm4.36,0,1.13-1.5h3.31l-1.13,1.5Zm5.22,0H1568l.85-1.12Z"/></g><g class="cls-33"><path class="cls-34" d="M860.37,1014.8v-7.44h-.92v7.44h-4.56c0-4.36,0-8.64,0-12.94a1.38,1.38,0,0,1,1.37-1.35c.59,0,1.17,0,1.76,0a1.47,1.47,0,0,1,1.44,1.52h.87a2.24,2.24,0,0,0-2.37-2.39c-.57,0-1.14,0-1.7,0a3,3,0,0,0-1.06.26,2.3,2.3,0,0,0-1.2,2.26c0,4,0,8,0,11.94v.69h-.85v.88h8.06v-.88c-.28,0-.53,0-.85,0"/><path class="cls-34" d="M876.24,1002.86H855.88a.47.47,0,0,0-.47.48v2.24a.48.48,0,0,0,.47.49h20.36a.49.49,0,0,0,.48-.49v-2.24a.48.48,0,0,0-.48-.48m-20,2.35v-1.5h1.38l-1.12,1.5Zm1.31,0,1.13-1.5H862l-1.13,1.5Zm4.37,0,1.13-1.5h3.31l-1.13,1.5Zm4.37,0,1.13-1.5h3.31l-1.13,1.5Zm4.36,0,1.13-1.5h3.31l-1.13,1.5Zm5.22,0H875l.85-1.12Z"/></g><g class="cls-33"><path class="cls-34" d="M531.63,773v-7.45h-.93V773h-4.55c0-4.37,0-8.65,0-12.94a1.37,1.37,0,0,1,1.37-1.35c.59,0,1.17,0,1.76,0a1.46,1.46,0,0,1,1.43,1.53h.88a2.24,2.24,0,0,0-2.37-2.4c-.57,0-1.14,0-1.7,0a2.9,2.9,0,0,0-1.06.26,2.31,2.31,0,0,0-1.2,2.27c0,4,0,8,0,11.93v.7h-.85v.87h8.06V773c-.28,0-.53,0-.85,0"/><path class="cls-34" d="M547.5,761.09H527.14a.48.48,0,0,0-.47.48v2.25a.48.48,0,0,0,.47.48H547.5a.49.49,0,0,0,.48-.48v-2.25a.49.49,0,0,0-.48-.48m-20,2.36v-1.51h1.38l-1.12,1.51Zm1.31,0,1.13-1.51h3.31l-1.13,1.51Zm4.37,0,1.13-1.51h3.31l-1.13,1.51Zm4.37,0,1.13-1.51H542l-1.13,1.51Zm4.36,0,1.13-1.51h3.31l-1.13,1.51Zm5.22,0h-.85l.85-1.13Z"/></g><g class="cls-33"><path class="cls-34" d="M88.92,549.51v-9.1H88v9.1H83.48c0-5.33,0-10.57,0-15.82A1.55,1.55,0,0,1,84.85,532a17,17,0,0,1,1.75,0c.86,0,1.38.79,1.43,1.86h.87c0-1.77-.92-2.91-2.36-2.93-.56,0-1.13,0-1.69,0a2.38,2.38,0,0,0-1.06.32,3,3,0,0,0-1.19,2.76q0,7.29,0,14.59v.85h-.86v1.07h8v-1.07c-.28,0-.53,0-.85,0"/><path class="cls-34" d="M104.7,534.91H84.47a.54.54,0,0,0-.48.59v2.74a.54.54,0,0,0,.48.59H104.7a.54.54,0,0,0,.48-.59V535.5a.54.54,0,0,0-.48-.59m-19.87,2.88V536h1.38l-1.13,1.84Zm1.3,0L87.25,536h3.3l-1.12,1.84Zm4.34,0L91.6,536h3.29l-1.12,1.84Zm4.35,0L95.94,536h3.29l-1.12,1.84Zm4.34,0,1.12-1.84h3.29l-1.12,1.84Zm5.18,0h-.84l.84-1.38Z"/></g><g class="cls-33"><path class="cls-34" d="M531.63,596v-7.45h-.93V596h-4.55c0-4.37,0-8.65,0-12.94a1.37,1.37,0,0,1,1.37-1.35c.59,0,1.17,0,1.76,0a1.46,1.46,0,0,1,1.43,1.53h.88a2.24,2.24,0,0,0-2.37-2.4c-.57,0-1.14,0-1.7,0a2.9,2.9,0,0,0-1.06.26,2.31,2.31,0,0,0-1.2,2.27c0,4,0,8,0,11.93v.7h-.85v.87h8.06V596c-.28,0-.53,0-.85,0"/><path class="cls-34" d="M547.5,584.09H527.14a.48.48,0,0,0-.47.48v2.25a.48.48,0,0,0,.47.48H547.5a.49.49,0,0,0,.48-.48v-2.25a.49.49,0,0,0-.48-.48m-20,2.36v-1.51h1.38l-1.12,1.51Zm1.31,0,1.13-1.51h3.31l-1.13,1.51Zm4.37,0,1.13-1.51h3.31l-1.13,1.51Zm4.37,0,1.13-1.51H542l-1.13,1.51Zm4.36,0,1.13-1.51h3.31l-1.13,1.51Zm5.22,0h-.85l.85-1.13Z"/></g><g class="cls-33"><g class="cls-35"><path class="cls-36" d="M91.06,176.5a1.86,1.86,0,0,0,.55-.1,1.87,1.87,0,0,1-1.34-1.16,1.56,1.56,0,0,1,.34-1.73H90.5a1.52,1.52,0,0,0-.86.81,1.58,1.58,0,0,0,0,1.19,1.65,1.65,0,0,0,.44.63v1.17h.42v-.9l.21,0a1.67,1.67,0,0,0,.39.05m12.09,13.18h-2.21v2.23h2.21Zm-3.35,0H97.59v2.23H99.8Zm5.66,9H95.36v-8.18A2.37,2.37,0,0,0,93,188.12H87.74a2.37,2.37,0,0,0-2.37,2.37v8.18H81.84V187a.74.74,0,0,1,.74-.73h22.14a.74.74,0,0,1,.74.73ZM95.39,185.2H85.27v-.1h0V184H95.39v1.17Zm0-2.22H85.28a5.05,5.05,0,0,1,10.06,0m-8.88,7.51a1.28,1.28,0,0,1,1.28-1.28H93a1.28,1.28,0,0,1,1.28,1.28v8.18H86.46Zm20.08,9.27V187a1.82,1.82,0,0,0-1.82-1.82H96.48v-1.7a6.17,6.17,0,0,0-12.34,0v1.7H82.58A1.82,1.82,0,0,0,80.76,187v12.74Z"/></g></g><g class="cls-33"><g class="cls-37"><path class="cls-36" d="M1465.52,739.18a1.74,1.74,0,0,0,.54-.09,1.88,1.88,0,0,1-1.33-1.16,1.57,1.57,0,0,1,.34-1.74H1465a1.59,1.59,0,0,0-.87.82,1.55,1.55,0,0,0,0,1.18,1.75,1.75,0,0,0,.44.64V740h.41v-.89l.21,0a1.33,1.33,0,0,0,.4,0m12.09,13.18h-2.21v2.24h2.21Zm-3.35,0H1472v2.24h2.22Zm5.65,9h-10.1v-8.19a2.36,2.36,0,0,0-2.36-2.36h-5.26a2.36,2.36,0,0,0-2.36,2.36v8.19h-3.53V749.71a.73.73,0,0,1,.73-.73h22.15a.73.73,0,0,1,.73.73Zm-10.06-13.47h-10.13v-.1h0v-1.08h10.16v1.18Zm-.06-2.23h-10a5,5,0,0,1,10,0m-8.88,7.51a1.29,1.29,0,0,1,1.28-1.28h5.26a1.29,1.29,0,0,1,1.28,1.28v8.19h-7.82Zm20.09,9.28V749.71a1.82,1.82,0,0,0-1.82-1.82h-8.25v-1.71a6.17,6.17,0,0,0-12.33,0v1.71H1457a1.82,1.82,0,0,0-1.82,1.82v12.74Z"/></g></g><g class="cls-33"><g class="cls-38"><path class="cls-36" d="M611.26,438.55a1.86,1.86,0,0,0,.55-.1,1.86,1.86,0,0,1-1.33-1.16,1.56,1.56,0,0,1,.34-1.73h-.11a1.51,1.51,0,0,0-.87.81,1.56,1.56,0,0,0,0,1.18,1.93,1.93,0,0,0,.45.64v1.17h.41v-.9l.21,0a1.32,1.32,0,0,0,.39.06m12.09,13.17h-2.21V454h2.21Zm-3.35,0h-2.21V454H620Zm5.66,9h-10.1v-8.19a2.37,2.37,0,0,0-2.37-2.36h-5.25a2.37,2.37,0,0,0-2.37,2.36v8.19H602V449.07a.74.74,0,0,1,.74-.73h22.14a.74.74,0,0,1,.74.73Zm-10.07-13.47H605.47v-.1h0v-1.07h10.16v1.17Zm-.05-2.22h-10a5,5,0,0,1,10,0m-8.88,7.5a1.27,1.27,0,0,1,1.28-1.27h5.25a1.27,1.27,0,0,1,1.28,1.27v8.19h-7.81Zm20.09,9.28V449.07a1.83,1.83,0,0,0-1.83-1.82h-8.24v-1.7a6.17,6.17,0,1,0-12.33,0v1.7h-1.57a1.82,1.82,0,0,0-1.82,1.82v12.74Z"/></g></g><g class="cls-33"><g class="cls-39"><path class="cls-36" d="M94.54,260a1.45,1.45,0,1,0-1.45,1.46A1.45,1.45,0,0,0,94.54,260m5.13,0a6.61,6.61,0,1,1-6.61-6.6,6.61,6.61,0,0,1,6.61,6.6m1,0a7.66,7.66,0,1,0-7.66,7.66,7.66,7.66,0,0,0,7.66-7.66m3.58,0a11.21,11.21,0,1,1-11.21-11.21A11.21,11.21,0,0,1,104.3,260m1.12,0a12.34,12.34,0,1,0-12.33,12.34A12.33,12.33,0,0,0,105.42,260"/></g></g><g class="cls-33"><g class="cls-40"><path class="cls-36" d="M720.92,467.51a1.46,1.46,0,1,0-1.46,1.45,1.45,1.45,0,0,0,1.46-1.45m5.12,0a6.6,6.6,0,1,1-6.6-6.6,6.59,6.59,0,0,1,6.6,6.6m1.05,0a7.65,7.65,0,1,0-7.65,7.65,7.64,7.64,0,0,0,7.65-7.65m3.59,0a11.22,11.22,0,1,1-11.22-11.21,11.21,11.21,0,0,1,11.22,11.21m1.12,0a12.34,12.34,0,1,0-12.34,12.33,12.34,12.34,0,0,0,12.34-12.33"/></g></g><g class="cls-33"><g class="cls-41"><path class="cls-36" d="M96.87,336.2H84v-1.69H96.87Zm-11.21,1.12h9.53v2.24H85.66Zm11.77-3.93h-14a.55.55,0,0,0-.56.56v2.81a.57.57,0,0,0,.56.56h1.12v2.24H81.17c-.56,0-.56,1.12,0,1.12h1.12v3.21a.55.55,0,0,0,.55.55.57.57,0,0,0,.57-.55v-3.21H96.9v3.21a.55.55,0,0,0,.55.55.57.57,0,0,0,.57-.55v-3.21h1.1c.55,0,.55-1.12,0-1.12H96.31v-2.24h1.12a.57.57,0,0,0,.56-.56V334c0-.56-.25-.56-.56-.56m-13.51-5.07h1.72v-1.1H83.92Zm-.36-5.3h1.73v-1.1H83.56Zm1.71,2H87v-1.1H85.27Zm4.26,1.07H87.81v1.1h1.72ZM89.46,325h1.72v-1.1H89.46Zm1,4.3h1.72v-1.1H90.43Zm2.25-3H94.4v-1.1H92.68Zm14-3.71-2,2.66,2.8,3.6a.59.59,0,0,1,0,.71l-2.14,2.81a4.77,4.77,0,0,1-1.75,1.43l-.26.12v-6.69a.53.53,0,0,0-.53-.53.54.54,0,0,0-.55.53V334l-.38-.18a4.82,4.82,0,0,1-1.74-1.43l-2.14-2.81a.59.59,0,0,1,0-.71l2.8-3.6-2-2.66a.57.57,0,0,1,0-.72l3.69-4.53a.32.32,0,0,1,.48,0l3.75,4.53a.59.59,0,0,1,0,.72m.83.64a1.62,1.62,0,0,0,0-2l-3.74-4.53a1.38,1.38,0,0,0-1.06-.49,1.32,1.32,0,0,0-1,.5l-3.7,4.53a1.62,1.62,0,0,0,0,2l1.54,2-2.31,3a1.65,1.65,0,0,0,0,2L99.23,333a6,6,0,0,0,2.13,1.73l.83.4v8.81a.53.53,0,0,0,.53.53.55.55,0,0,0,.55-.53v-8.86l.72-.35a5.93,5.93,0,0,0,2.12-1.73l2.15-2.81a1.65,1.65,0,0,0,0-2l-2.31-3Zm5.2,9.53-2.21-2.32,1.44-1.54a1.28,1.28,0,0,0,0-1.85l-3.46-3.41-.57.91,3.29,3.24a.27.27,0,0,1,0,.4L109,330.44l2.89,3a.25.25,0,0,1,0,.38l-2.14,2.29a4.75,4.75,0,0,1-1.74,1.16l-.32.12v-3.72a.52.52,0,0,0-.53-.52.54.54,0,0,0-.55.52v3.75l-.39-.15a4.79,4.79,0,0,1-1.75-1.16l-.45-.49v1.5l0,0a6.19,6.19,0,0,0,1.78,1.08l.77.3v5.35a.53.53,0,0,0,.53.53.54.54,0,0,0,.55-.53v-5.38l.7-.27a5.9,5.9,0,0,0,2.13-1.42l2.14-2.29a1.3,1.3,0,0,0,0-1.83"/></g></g><g class="cls-33"><g class="cls-42"><path class="cls-36" d="M663,541.45H650.07v-1.68H663Zm-11.21,1.12h9.53v2.24h-9.53Zm11.77-3.92h-14a.55.55,0,0,0-.56.56V542a.56.56,0,0,0,.56.56h1.12v2.24h-3.37c-.56,0-.56,1.12,0,1.12h1.12v3.21a.55.55,0,0,0,.55.55.57.57,0,0,0,.57-.55v-3.21H663v3.21a.55.55,0,0,0,.55.55.57.57,0,0,0,.57-.55v-3.21h1.1c.55,0,.55-1.12,0-1.12H662.4v-2.24h1.12a.56.56,0,0,0,.56-.56v-2.8c0-.56-.25-.56-.56-.56M650,533.57h1.72v-1.09H650Zm-.36-5.3h1.73v-1.1h-1.73Zm1.71,2h1.72v-1.1h-1.72Zm4.26,1.07H653.9v1.1h1.72Zm-.07-1.07h1.72v-1.1h-1.72Zm1,4.3h1.72v-1.1h-1.72Zm2.25-3h1.72v-1.1h-1.72Zm14-3.7-2,2.65,2.8,3.6a.59.59,0,0,1,0,.71l-2.14,2.82a4.84,4.84,0,0,1-1.75,1.42l-.27.13v-6.7a.52.52,0,0,0-.52-.53.54.54,0,0,0-.55.53v6.75l-.38-.18a4.89,4.89,0,0,1-1.74-1.42L664,534.8a.59.59,0,0,1,0-.71l2.8-3.6-2-2.65a.59.59,0,0,1,0-.73l3.69-4.53a.32.32,0,0,1,.48,0l3.75,4.53a.6.6,0,0,1,0,.73m.83.63a1.62,1.62,0,0,0,0-2l-3.74-4.53a1.38,1.38,0,0,0-1.06-.49,1.32,1.32,0,0,0-1,.5l-3.7,4.53a1.62,1.62,0,0,0,0,2l1.54,2-2.31,3a1.65,1.65,0,0,0,0,2l2.14,2.81a5.76,5.76,0,0,0,2.13,1.73l.83.4v8.81a.53.53,0,0,0,.53.53.54.54,0,0,0,.54-.53v-8.86l.73-.35a5.73,5.73,0,0,0,2.12-1.73l2.15-2.81a1.65,1.65,0,0,0,0-2l-2.31-3Zm5.2,9.54-2.21-2.33,1.44-1.53a1.3,1.3,0,0,0,0-1.86l-3.46-3.41-.57.92,3.29,3.24a.26.26,0,0,1,0,.39l-2.12,2.26,2.89,3a.25.25,0,0,1,0,.38l-2.14,2.3a4.85,4.85,0,0,1-1.74,1.15l-.32.13V539a.53.53,0,0,0-.53-.53.54.54,0,0,0-.55.53v3.75l-.39-.16a4.9,4.9,0,0,1-1.75-1.15l-.45-.5v1.51l0,0a6,6,0,0,0,1.78,1.08l.77.3v5.35a.53.53,0,0,0,.53.53.54.54,0,0,0,.55-.53v-5.38l.7-.27a5.9,5.9,0,0,0,2.13-1.42l2.14-2.29a1.29,1.29,0,0,0,0-1.82"/></g></g><g class="cls-33"><g class="cls-43"><path class="cls-36" d="M805.47,868.36h-12.9v-1.68h12.9Zm-11.22,1.13h9.53v2.24h-9.53ZM806,865.56H792a.55.55,0,0,0-.56.56v2.81a.57.57,0,0,0,.56.56h1.12v2.24h-3.36c-.56,0-.56,1.12,0,1.12h1.12v3.21a.55.55,0,0,0,.55.55.56.56,0,0,0,.56-.55v-3.21h13.49v3.21a.55.55,0,0,0,.55.55.57.57,0,0,0,.57-.55v-3.21h1.1c.56,0,.56-1.12,0-1.12H804.9v-2.24H806a.57.57,0,0,0,.56-.56v-2.81c0-.56-.26-.56-.56-.56m-13.52-5.07h1.72v-1.1h-1.72Zm-.35-5.31h1.72v-1.09h-1.72Zm1.7,2h1.72V856.1h-1.72Zm4.26,1.08h-1.71v1.1h1.71Zm-.07-1.08h1.72V856.1h-1.72Zm1,4.3h1.72V860.4H799Zm2.25-3H803v-1.1h-1.72Zm14-3.71-2,2.66L816,861a.57.57,0,0,1,0,.71l-2.14,2.81a4.82,4.82,0,0,1-1.74,1.43l-.27.12v-6.69a.53.53,0,0,0-.53-.53.54.54,0,0,0-.55.53v6.74l-.37-.17a4.85,4.85,0,0,1-1.75-1.43l-2.14-2.81a.59.59,0,0,1,0-.71l2.8-3.6-2-2.66a.57.57,0,0,1,0-.72L811,849.5a.32.32,0,0,1,.48,0l3.75,4.53a.57.57,0,0,1,0,.72m.83.64a1.62,1.62,0,0,0,0-2l-3.75-4.53a1.36,1.36,0,0,0-1-.49,1.34,1.34,0,0,0-1,.5l-3.69,4.52a1.62,1.62,0,0,0,0,2l1.54,2-2.3,3a1.64,1.64,0,0,0,0,2l2.14,2.81A5.93,5.93,0,0,0,810,866.9l.83.4v8.81a.53.53,0,0,0,.53.53.54.54,0,0,0,.55-.53v-8.86l.72-.35a6,6,0,0,0,2.13-1.73l2.14-2.81a1.65,1.65,0,0,0,0-2l-2.3-3Zm5.2,9.53-2.2-2.32,1.44-1.54a1.29,1.29,0,0,0,0-1.85L817,855.8l-.56.91,3.28,3.24a.25.25,0,0,1,0,.39l-2.12,2.27,2.89,3a.26.26,0,0,1,0,.39l-2.14,2.29a4.79,4.79,0,0,1-1.75,1.16l-.32.12v-3.72a.53.53,0,0,0-.53-.53.56.56,0,0,0-.55.53v3.75l-.39-.15a4.75,4.75,0,0,1-1.74-1.16l-.46-.49v1.5l.05,0a5.62,5.62,0,0,0,1.77,1.08l.77.31v5.35a.53.53,0,0,0,.53.53.54.54,0,0,0,.55-.53v-5.38l.71-.28a5.8,5.8,0,0,0,2.12-1.41l2.14-2.3a1.28,1.28,0,0,0,0-1.82"/></g></g><g class="cls-33"><g class="cls-44"><path class="cls-36" d="M1020.28,805.27h-12.89v-1.68h12.89Zm-11.21,1.13h9.53v2.24h-9.53Zm11.77-3.93h-14a.55.55,0,0,0-.56.56v2.81a.57.57,0,0,0,.56.56H1008v2.24h-3.36c-.56,0-.56,1.12,0,1.12h1.12V813a.55.55,0,0,0,.54.55.57.57,0,0,0,.57-.55v-3.21h13.49V813a.55.55,0,0,0,.55.55.57.57,0,0,0,.57-.55v-3.21h1.1c.56,0,.56-1.12,0-1.12h-2.81V806.4h1.12a.57.57,0,0,0,.57-.56V803c0-.56-.26-.56-.57-.56m-13.51-5.07h1.72v-1.1h-1.72Zm-.35-5.3h1.72V791H1007Zm1.7,2h1.72V793h-1.72Zm4.26,1.08h-1.72v1.1h1.72Zm-.07-1.08h1.72V793h-1.72Zm1,4.3h1.72v-1.09h-1.72Zm2.25-3h1.72v-1.1h-1.72Zm14-3.71-2,2.66,2.8,3.6a.59.59,0,0,1,0,.71l-2.14,2.81a4.82,4.82,0,0,1-1.74,1.43l-.27.12V796.3a.53.53,0,0,0-.53-.53.54.54,0,0,0-.55.53V803l-.37-.17a4.77,4.77,0,0,1-1.75-1.43l-2.14-2.81a.59.59,0,0,1,0-.71l2.8-3.6-2-2.66a.57.57,0,0,1,0-.72l3.69-4.53a.32.32,0,0,1,.48,0l3.75,4.53a.59.59,0,0,1,0,.72m.83.64a1.64,1.64,0,0,0,0-2l-3.75-4.53a1.36,1.36,0,0,0-1-.49,1.34,1.34,0,0,0-1,.5l-3.69,4.52a1.62,1.62,0,0,0,0,2l1.54,2-2.3,3a1.62,1.62,0,0,0,0,2l2.14,2.81a5.93,5.93,0,0,0,2.12,1.73l.83.4V813a.53.53,0,0,0,.53.53.54.54,0,0,0,.55-.53v-8.86l.72-.35a6,6,0,0,0,2.13-1.73l2.14-2.81a1.65,1.65,0,0,0,0-2l-2.3-3Zm5.2,9.53-2.21-2.32,1.45-1.54a1.29,1.29,0,0,0,0-1.85l-3.46-3.41-.56.91,3.28,3.24a.26.26,0,0,1,0,.39l-2.12,2.27,2.89,3a.26.26,0,0,1,0,.39l-2.15,2.29a4.67,4.67,0,0,1-1.74,1.16l-.32.12v-3.72a.53.53,0,0,0-.53-.53.55.55,0,0,0-.55.53v3.75l-.39-.15a4.67,4.67,0,0,1-1.74-1.16l-.46-.49v1.5l0,0a5.78,5.78,0,0,0,1.78,1.08l.77.31V813a.53.53,0,0,0,.53.53.54.54,0,0,0,.55-.53v-5.38l.7-.28A5.76,5.76,0,0,0,1034,806l2.14-2.3a1.29,1.29,0,0,0,0-1.82"/></g></g><g class="cls-33"><g class="cls-45"><path class="cls-36" d="M86.82,409.66h9.53v2.24H86.82Zm-1.68-2.8H98v1.68H85.14ZM82.34,413h1.11v3.21a.55.55,0,0,0,.55.54.56.56,0,0,0,.57-.54V413H98.06v3.21a.55.55,0,0,0,.55.54.56.56,0,0,0,.57-.54V413h1.1c.56,0,.56-1.13,0-1.13H97.47v-2.24h1.12a.56.56,0,0,0,.56-.56v-2.8c0-.56-.25-.56-.56-.56h-14a.55.55,0,0,0-.56.56v2.8a.56.56,0,0,0,.56.56H85.7v2.24H82.34c-.57,0-.57,1.13,0,1.13m4.78-9.36a6.53,6.53,0,0,1-.66-2.82,6.61,6.61,0,0,1,6.6-6.61,6.51,6.51,0,0,1,3,.75l.6-.87A7.61,7.61,0,0,0,86,403.67Zm6-4.27a1.45,1.45,0,1,0,1.45,1.45,1.45,1.45,0,0,0-1.45-1.45m5.61-8.25.64-.92a12.31,12.31,0,0,0-18.59,10.62,12.44,12.44,0,0,0,.34,2.82h1.16a10.9,10.9,0,0,1-.37-2.82,11.2,11.2,0,0,1,16.82-9.7m9.88,10.75-2.14,2.81a4.84,4.84,0,0,1-1.75,1.42l-.26.13v-6.7a.53.53,0,0,0-.53-.53.55.55,0,0,0-.55.53v6.75l-.37-.18a4.84,4.84,0,0,1-1.75-1.42l-2.14-2.81a.59.59,0,0,1,0-.71l2.8-3.61-2-2.65a.59.59,0,0,1,0-.73l3.69-4.52a.3.3,0,0,1,.24-.12h0a.32.32,0,0,1,.24.11l3.75,4.54a.59.59,0,0,1,0,.72l-2,2.65,2.8,3.61a.59.59,0,0,1,0,.71m.83-1.36-2.31-3,1.54-2a1.62,1.62,0,0,0,0-2L104.86,389a1.36,1.36,0,0,0-1.06-.5,1.39,1.39,0,0,0-1,.5l-3.69,4.53a1.62,1.62,0,0,0,0,2l1.54,2-2.31,3a1.65,1.65,0,0,0,0,2l2.15,2.81a5.86,5.86,0,0,0,2.12,1.74l.83.39v8.81a.52.52,0,0,0,.53.53.54.54,0,0,0,.55-.53v-8.86l.72-.34a5.86,5.86,0,0,0,2.12-1.74l2.15-2.81a1.65,1.65,0,0,0,0-2"/></g></g><g class="cls-33"><g class="cls-46"><path class="cls-36" d="M834.69,678h9.53v2.24h-9.53ZM833,675.2h12.9v1.68H833Zm-2.8,6.16h1.12v3.21a.55.55,0,0,0,.55.55.56.56,0,0,0,.56-.55v-3.21h13.49v3.21a.55.55,0,0,0,.55.55.57.57,0,0,0,.57-.55v-3.21h1.1c.56,0,.56-1.12,0-1.12h-2.8V678h1.12a.57.57,0,0,0,.56-.56v-2.8c0-.57-.26-.57-.56-.57h-14a.55.55,0,0,0-.56.57v2.8a.57.57,0,0,0,.56.56h1.12v2.24h-3.36c-.56,0-.56,1.12,0,1.12M835,672a6.54,6.54,0,0,1-.66-2.83,6.61,6.61,0,0,1,6.61-6.6,6.51,6.51,0,0,1,3,.74l.6-.86A7.62,7.62,0,0,0,833.84,672Zm6-4.28a1.46,1.46,0,1,0,1.45,1.45,1.45,1.45,0,0,0-1.45-1.45m5.61-8.24.64-.93a12.32,12.32,0,0,0-18.58,10.62A12,12,0,0,0,829,672h1.15a11.43,11.43,0,0,1-.37-2.83,11.19,11.19,0,0,1,16.82-9.69m9.89,10.74-2.15,2.82a4.89,4.89,0,0,1-1.74,1.42l-.27.13v-6.7a.53.53,0,0,0-.53-.53.54.54,0,0,0-.55.53v6.75l-.37-.18a4.93,4.93,0,0,1-1.75-1.42L847,670.23a.57.57,0,0,1,0-.71l2.79-3.6-2-2.65a.59.59,0,0,1,0-.73l3.69-4.53a.32.32,0,0,1,.24-.11h0a.3.3,0,0,1,.24.11l3.75,4.53a.59.59,0,0,1,0,.73l-2,2.65,2.8,3.6a.59.59,0,0,1,0,.71m.82-1.35-2.3-3,1.53-2a1.62,1.62,0,0,0,0-2l-3.75-4.53a1.36,1.36,0,0,0-1.05-.49,1.34,1.34,0,0,0-1,.5l-3.69,4.52a1.64,1.64,0,0,0,0,2l1.54,2-2.3,3a1.62,1.62,0,0,0,0,2l2.14,2.81a5.83,5.83,0,0,0,2.12,1.73l.83.4v8.81a.53.53,0,0,0,.53.53.54.54,0,0,0,.55-.53v-8.86l.72-.35a5.86,5.86,0,0,0,2.13-1.73l2.14-2.81a1.64,1.64,0,0,0,0-2"/></g></g><g class="cls-33"><g class="cls-47"><path class="cls-36" d="M93.1,483.64a6,6,0,0,0,1.84-.24V482a5.32,5.32,0,0,1-1.8.28c-1.54,0-1.89-1.17-1.89-2.8s.35-2.77,1.89-2.77a5.59,5.59,0,0,1,1.8.27v-1.4a5.72,5.72,0,0,0-1.84-.25c-2.45,0-3.6,1.52-3.6,4.15s1.15,4.18,3.6,4.18m10.63-8.05a.24.24,0,0,1-.2.13h-2.86V487.3a.22.22,0,0,1-.21.21H85.23c-.06,0-.1,0-.17-.09a.19.19,0,0,1,0-.12V475.72H82.15a.19.19,0,0,1-.1,0,.21.21,0,0,1-.09-.11.2.2,0,0,1,0-.22l10.7-10.79a.18.18,0,0,1,.14-.06l.15.06,10.72,10.82a.23.23,0,0,1,0,.2m1-.86a1.57,1.57,0,0,0-.17-.21L93.83,463.74a1.33,1.33,0,0,0-.55-.35,1.44,1.44,0,0,0-1.43.34l-10.69,10.8a1.37,1.37,0,0,0-.3,1.5l.07.15a1.38,1.38,0,0,0,1.22.72h1.68v10.4a1.37,1.37,0,0,0,.26.81,1.62,1.62,0,0,0,.32.32,1.4,1.4,0,0,0,.82.26h15.23a1.39,1.39,0,0,0,1.39-1.39V476.9h1.68a1.39,1.39,0,0,0,1.16-2.17"/></g></g><g class="cls-33"><g class="cls-48"><path class="cls-36" d="M916.25,711.16a6.06,6.06,0,0,0,1.85-.24v-1.41a5.59,5.59,0,0,1-1.8.27c-1.54,0-1.89-1.17-1.89-2.79s.35-2.78,1.89-2.78a5.32,5.32,0,0,1,1.8.28v-1.41a5.74,5.74,0,0,0-1.85-.25c-2.44,0-3.59,1.52-3.59,4.16s1.15,4.17,3.59,4.17m10.64-8a.22.22,0,0,1-.2.13h-2.87v11.58a.2.2,0,0,1-.2.21H908.38s-.09,0-.17-.09a.27.27,0,0,1,0-.12V703.24h-2.87a.19.19,0,0,1-.1,0,.22.22,0,0,1-.09-.1.21.21,0,0,1,0-.23l10.69-10.79A.22.22,0,0,1,916,692l.15.06,10.72,10.82a.23.23,0,0,1,0,.2m1-.86a1.06,1.06,0,0,0-.17-.2L917,691.26a1.42,1.42,0,0,0-.55-.34,1.4,1.4,0,0,0-1.43.34l-10.69,10.79a1.39,1.39,0,0,0-.3,1.51l.07.14a1.39,1.39,0,0,0,.55.55,1.45,1.45,0,0,0,.67.17H907v10.4a1.35,1.35,0,0,0,.26.81,1.22,1.22,0,0,0,.32.32,1.39,1.39,0,0,0,.81.26h15.24a1.39,1.39,0,0,0,1.39-1.39v-10.4h1.68a1.39,1.39,0,0,0,1.29-.85,1.41,1.41,0,0,0-.13-1.32"/></g></g><line class="cls-49" x1="586" y1="490" x2="586.5" y2="490"/><line class="cls-50" x1="588.56" y1="490" x2="593.7" y2="490"/><line class="cls-51" x1="594.72" y1="490" x2="741.73" y2="490"/><line class="cls-49" x1="742.76" y1="490" x2="743.26" y2="490"/><line class="cls-49" x1="743.26" y1="420.69" x2="743.26" y2="421.19"/><line class="cls-52" x1="743.26" y1="423.12" x2="743.26" y2="427.93"/><line class="cls-53" x1="743.26" y1="428.89" x2="743.26" y2="488.54"/><line class="cls-49" x1="743.26" y1="489.5" x2="743.26" y2="490"/><line class="cls-54" x1="74.72" y1="219.71" x2="258" y2="219.71"/><line class="cls-54" x1="74.72" y1="155.21" x2="258" y2="155.21"/><line class="cls-54" x1="74.72" y1="297.21" x2="258" y2="297.21"/><line class="cls-54" x1="74.72" y1="367.71" x2="258" y2="367.71"/><line class="cls-54" x1="74.72" y1="438.21" x2="258" y2="438.21"/><line class="cls-54" x1="74.72" y1="508.71" x2="258" y2="508.71"/><line class="cls-54" x1="74.72" y1="572.21" x2="258" y2="572.21"/></g><g id="logo"><path class="cls-55" d="M816.07,154.21H632.44s-18.29-1.26-27.77,9.85L587,194.65c.11,8,0,194.11,0,194.11H796.64a19.56,19.56,0,0,0,19.43-19.68Z"/><path class="cls-36" d="M624.66,365.9c.12-.14.17-.19.21-.25a93.27,93.27,0,0,0,7.78-13.72,17.74,17.74,0,0,0,1.5-4.66c.84-6.17-5.07-11.49-11.23-10.3a9.51,9.51,0,0,0-7.09,12.77c2.23,5.74,5.48,10.92,8.83,16.16m1.14-30.75c.52.11,1.05.2,1.57.33a11.24,11.24,0,0,1,8.55,11,13.53,13.53,0,0,1-1.24,4.95,91,91,0,0,1-8.22,14.8c-.46.71-1,1.35-1.54,2h-.44a2.81,2.81,0,0,1-.54-.49,99.87,99.87,0,0,1-9.3-16.46c-1.34-3.18-1.7-6.39-.15-9.59a11,11,0,0,1,8.77-6.46,2.19,2.19,0,0,0,.33-.12Z"/><path class="cls-36" d="M624.7,341.78a4.55,4.55,0,0,0-4.57,4.5,4.56,4.56,0,1,0,9.12,0,4.55,4.55,0,0,0-4.55-4.51m0,10.75a6.21,6.21,0,1,1,6.23-6.21,6.24,6.24,0,0,1-6.23,6.21"/><text class="cls-56" transform="translate(649 346.43)">Under Con<tspan class="cls-57" x="64.01" y="0">s</tspan><tspan x="70.42" y="0">truction</tspan></text><text class="cls-56" transform="translate(649 365.84)">Opening La<tspan class="cls-58" x="69.51" y="0">t</tspan><tspan x="74.51" y="0">e 2020</tspan></text><path id="SVGID-2" data-name="SVGID" class="cls-2" d="M703.89,181a19.85,19.85,0,0,0-4.64,2.22c-8.07,5-11.69,14.24-12.06,23.17,0,.5,0,1,0,1.52h0V240h10.5V208.29a6.45,6.45,0,0,1,2.33-5l4.14,5,4.14-5a6.45,6.45,0,0,1,2.33,5V240h10.5V208.29a17,17,0,0,0-17-17,16.74,16.74,0,0,0-6.27,1.2h0a11.81,11.81,0,0,1,8.94-3.86h0a17.09,17.09,0,0,1,3.39.27,19.25,19.25,0,0,1,16.4,18.71c0,.35,0,.72,0,1.08V240h10.49s0-31.3,0-31.54c0-13.66-8.21-24.61-22.2-27.87-.51-.12-1.32-.28-2.05-.38a23.55,23.55,0,0,0-3.19-.25,16.88,16.88,0,0,0-5.82,1m-2-1.4c-18.11,0-30.76,12.2-30.76,28.39v32h10.51s0-17.61,0-32c0-15.06,11.42-25.8,22.88-28.13.46-.1,1-.24.46-.24Z"/><g class="cls-59"><path class="cls-60" d="M696.17,182.26a14.86,14.86,0,0,1,2.21-.39,13.61,13.61,0,0,1-2.23-.29,14.41,14.41,0,0,1-.38-2.21,14.88,14.88,0,0,1-.29,2.23,14.82,14.82,0,0,1-2.21.38,16.59,16.59,0,0,1,2.23.29,16.14,16.14,0,0,1,.38,2.22,13.61,13.61,0,0,1,.29-2.23"/><path class="cls-60" d="M689,188.86a15.31,15.31,0,0,1,2.21-.39,13.53,13.53,0,0,1-2.22-.29,14.86,14.86,0,0,1-.39-2.21,13.61,13.61,0,0,1-.29,2.23,14.82,14.82,0,0,1-2.21.38,13.61,13.61,0,0,1,2.23.29,16.33,16.33,0,0,1,.38,2.21,13.41,13.41,0,0,1,.29-2.22"/><path class="cls-60" d="M690.27,183.69a7.93,7.93,0,0,1,1.35-.23,9.38,9.38,0,0,1-1.35-.18,9.2,9.2,0,0,1-.24-1.35,8.16,8.16,0,0,1-.18,1.36,7.63,7.63,0,0,1-1.35.23,9.46,9.46,0,0,1,1.36.18,9.43,9.43,0,0,1,.24,1.35,7.81,7.81,0,0,1,.17-1.36"/><path class="cls-60" d="M686.09,192.21a9.2,9.2,0,0,1,1.35-.24,7.91,7.91,0,0,1-1.36-.17,7.93,7.93,0,0,1-.23-1.35,9.63,9.63,0,0,1-.18,1.36,10.52,10.52,0,0,1-1.35.23,8.16,8.16,0,0,1,1.36.18,8.75,8.75,0,0,1,.23,1.35,9.46,9.46,0,0,1,.18-1.36"/><path class="cls-60" d="M700.56,188a9,9,0,0,1,1.35-.23,9.63,9.63,0,0,1-1.36-.18,8.75,8.75,0,0,1-.23-1.35,9.46,9.46,0,0,1-.18,1.36,7.63,7.63,0,0,1-1.35.23,9.46,9.46,0,0,1,1.36.18,7.63,7.63,0,0,1,.23,1.35,9.46,9.46,0,0,1,.18-1.36"/><path class="cls-60" d="M705.36,194.6a9.15,9.15,0,0,1,1.35-.23,9.63,9.63,0,0,1-1.36-.18,8.75,8.75,0,0,1-.23-1.35,9.46,9.46,0,0,1-.18,1.36,7.63,7.63,0,0,1-1.35.23,9.46,9.46,0,0,1,1.36.18,9.43,9.43,0,0,1,.24,1.35,7.81,7.81,0,0,1,.17-1.36"/><path class="cls-60" d="M684.12,187.73a8.75,8.75,0,0,1,1.35-.23,9.46,9.46,0,0,1-1.36-.18,7.63,7.63,0,0,1-.23-1.35,9.46,9.46,0,0,1-.18,1.36,7.93,7.93,0,0,1-1.35.23,9.63,9.63,0,0,1,1.36.18,10.82,10.82,0,0,1,.23,1.35,8.16,8.16,0,0,1,.18-1.36"/><path class="cls-60" d="M700.56,183.86a9,9,0,0,1,1.35-.23,9.63,9.63,0,0,1-1.36-.18,8.75,8.75,0,0,1-.23-1.35,9.46,9.46,0,0,1-.18,1.36,9.2,9.2,0,0,1-1.35.24,7.81,7.81,0,0,1,1.36.17,7.93,7.93,0,0,1,.23,1.35,9.63,9.63,0,0,1,.18-1.36"/><path class="cls-60" d="M705.81,183.34a16.17,16.17,0,0,1,2.27-.4,14.35,14.35,0,0,1-2.29-.29,14.59,14.59,0,0,1-.39-2.28,16.19,16.19,0,0,1-.3,2.29,15,15,0,0,1-2.28.4,14.43,14.43,0,0,1,2.3.29,16,16,0,0,1,.39,2.28,13.58,13.58,0,0,1,.3-2.29"/><path class="cls-60" d="M699.31,195.51a15,15,0,0,1,2.28-.4,15.68,15.68,0,0,1-2.29-.29,15,15,0,0,1-.4-2.28,14.35,14.35,0,0,1-.29,2.29,15,15,0,0,1-2.28.4,14.35,14.35,0,0,1,2.29.29,16.48,16.48,0,0,1,.4,2.28,14.35,14.35,0,0,1,.29-2.29"/><path class="cls-60" d="M696,190.17a15.18,15.18,0,0,1,2.27-.4,14.27,14.27,0,0,1-2.28-.29,15,15,0,0,1-.4-2.28,13.58,13.58,0,0,1-.3,2.29,14.77,14.77,0,0,1-2.27.4,14.35,14.35,0,0,1,2.29.29,16,16,0,0,1,.39,2.28,16.19,16.19,0,0,1,.3-2.29"/><path class="cls-60" d="M674,222.37a.34.34,0,0,1,.34.06l.11.1a.73.73,0,0,0,.23,1,.74.74,0,0,0,1-.24.76.76,0,0,0-.24-1,.74.74,0,0,0-.88.1v-.22c0-.12-.12-.2-.21-.24-.36-.19-.78.29-1.07,0s-.29-.42-.29-.42a.91.91,0,0,0,.18.6A.75.75,0,0,0,674,222.37Z"/><path class="cls-60" d="M677.64,225.19a.73.73,0,0,0,1-.29.74.74,0,0,0-.29-1,.75.75,0,0,0-1,.3A.74.74,0,0,0,677.64,225.19Z"/><path class="cls-60" d="M689.49,216.74a.72.72,0,1,0-1-1.08.73.73,0,0,0-.07,1A.72.72,0,0,0,689.49,216.74Z"/><path class="cls-60" d="M677.35,203.67a4.13,4.13,0,1,1,.68-7.26l.17.11-1.51,2-.14-.07a1.63,1.63,0,0,0-1.41-.08,1.65,1.65,0,1,0,1.26,3,1.63,1.63,0,0,0,1-1l0-.16,2.46.32,0,.2a4.14,4.14,0,0,1-2.45,3Z"/><path class="cls-60" d="M675.85,211.92a2.52,2.52,0,0,1-1.33-1.39,2.48,2.48,0,0,1,0-1.91,2.51,2.51,0,0,1,4.76.55l0,.12-1.49.16,0-.09a1,1,0,0,0-.56-.65,1,1,0,1,0-.8,1.83,1,1,0,0,0,.85,0l.09,0,.89,1.21-.11.07a2.48,2.48,0,0,1-2.32.17Z"/><path class="cls-60" d="M674.68,217.16a1.47,1.47,0,0,1-1-.51,1.54,1.54,0,0,1-.37-1.09,1.5,1.5,0,0,1,2.79-.65l0,.06-.81.4,0-.05a.59.59,0,0,0-.45-.25.6.6,0,0,0-.64.56.61.61,0,0,0,.56.64.57.57,0,0,0,.47-.2l0,0,.74.5,0,.06a1.49,1.49,0,0,1-1.28.57Z"/><path class="cls-61" d="M716,195.35l-4.14,1.47.47,1.25,4.6-1.8C716.9,196.2,716.26,195.56,716,195.35Z"/><path class="cls-62" d="M718,197.52l-4.61,2.63.68,1.15,4.58-2.82C718.43,198.17,718,197.53,718,197.52Z"/><path class="cls-63" d="M719.49,200.17v0l0,0-.12-.26-4,3.31.87,1,3.58-3.19C719.73,200.71,719.61,200.43,719.49,200.17Z"/><path class="cls-64" d="M720.67,203.82v0l-.24-1-2.51,3,1,.84,1.81-2.32-.09-.46Z"/><polygon class="cls-65" points="720.88 207.91 721.15 208.06 721.13 207.48 720.88 207.91"/><path class="cls-66" d="M732.69,194.88h0v0l4.37,11.14a30.79,30.79,0,0,0-.56-4h0a.64.64,0,0,1,0-.07h0v-.19a.11.11,0,0,1,0-.05v-.08h0s0,0,0-.06h0s0-.05,0-.07h0a.74.74,0,0,1,0-.14l-2.89-6.73,0,0h0l0,0L735,197c-.07-.17-.13-.33-.2-.49l0,0v0l0,0v0c-.28-.65-.59-1.28-.92-1.89h0l0-.05h0v0a4.82,4.82,0,0,0-2.52-8.93,4.72,4.72,0,0,0-3.46,1.46,29.36,29.36,0,0,0-5.57-3.75l5.12,4.29,0,0L716.81,181s-3.17-.75-3.32-.77l-.13.22,13.55,7.73,0,0-14.53-5.68-.47,1.25,14.72,5.2a.06.06,0,0,0,0,0l-15.32-3-.23,1.32,15.4,2.51v0L713,189.68c.54.24,2.94,1.19,3,1.21l10.52-.18a.09.09,0,0,1,0,0l-8.38,1.37,1.07.91,7.46-1.47v0l-6.4,2.26c.16.17.65.77.72.85l6-2.34h0l0,0h0l-5.12,2.93.61.81,4.93-3h0l0,0h0l-4.43,3.7c.11.17.53.71.6.82l4.37-3.9h0l0,0h0l-3.9,4.68c.18.33.38.62.54,1l4-5.12h0v0L725,200.68c.17.44.4.77.54,1.24l3.79-7.19,0,0,0,0v0l-3.3,9.34s.35,2.71.35,2.71L730.15,195v0h0v0l-2.51,15.43,1.32.19,2-15.5v0h0v0l.27,15.63,1.33,0-.78-15.61v0h0v0l3,15.34,1.31-.28-3.54-15.23Z"/><path class="cls-60" d="M694.86,223.66v-2.15c-.39.38-.76.77-1.05,1.11v2.57a41.72,41.72,0,0,0-2.08,4.18L691,231v-2.93c-.36.75-.8,1.66-1.06,2.22v2.79c-1.51,2.7-3.4,4.72-6.67,4.72a7.91,7.91,0,0,1-4.38-1.3v-1.87l-1-.79v2c-.24-.17-.48-.34-.71-.52a22.53,22.53,0,0,0-2.3-1.56v-1.8a11.62,11.62,0,0,0-1.06-.51v1.78a10.89,10.89,0,0,0-5.62-.82l.09,1a9.61,9.61,0,0,1,5.53.92v7.93h1.06V235c.57.36,1.12.77,1.67,1.18s.88.65,1.34,1V242h1v-4.22a8.89,8.89,0,0,0,4.38,1.12,7.75,7.75,0,0,0,6.67-3.78v6.74H691v-8.46c.61-1.14,1.17-2.35,1.71-3.56.37-.82.74-1.63,1.12-2.4v14.33h1.05V225.48c1.33-2.12,3-3.6,5.56-3.55l0-1.05A6.65,6.65,0,0,0,694.86,223.66Z"/><path class="cls-60" d="M700.38,217.56a9.25,9.25,0,0,0-3.79.75,1,1,0,0,0-.12-1.14l-.09-.08-.36.33.09.06a.56.56,0,0,1,.13.39.54.54,0,0,1-.18.35.53.53,0,0,1-.74-.05.56.56,0,0,1-.05-.08l-.36.33.05.06a1,1,0,0,0,.65.34,10.77,10.77,0,0,0-3.07,2.91.69.69,0,0,0,.07-.29,1,1,0,0,0-.24-.72h0L692,221h0a.53.53,0,0,1,.13.38.52.52,0,0,1-.91.31l-.36.32a1,1,0,0,0,.75.33,1,1,0,0,0,.64-.23,36.29,36.29,0,0,0-2.92,5.64c-1.65,3.7-3.07,6.89-6,6.89-2.09,0-3.52-1.1-5.17-2.38l0,0a.76.76,0,0,0,.21,0,1,1,0,0,0,.91-.54l0-.08-.44-.24a.19.19,0,0,1,0,.08.54.54,0,0,1-.73.22.53.53,0,0,1-.22-.73l.06-.07-.44-.24a.35.35,0,0,1,0,.08,1,1,0,0,0,0,.95,14,14,0,0,0-3.76-2.14,1,1,0,0,0,.7-.51l0-.07-.44-.24s0,.05,0,.07a.55.55,0,0,1-.74.22.55.55,0,0,1-.21-.73.18.18,0,0,1,.05-.07l-.44-.23,0,.06a1,1,0,0,0,.17,1.21,12.55,12.55,0,0,0-4.65-.24l.13,1a10.72,10.72,0,0,1,5.51.62h0a9.65,9.65,0,0,1,1.06.5h0a21,21,0,0,1,2.74,1.89c.19.15.92.71,1.43,1.07a7.47,7.47,0,0,0,4.39,1.54c3,0,4.66-2.61,6.13-5.75v0c.13-.3,1-2.17,1.47-3.21v0a26.51,26.51,0,0,1,2.11-3.91,2.68,2.68,0,0,1,.22-.35l.38-.48.12-.15h0a11.39,11.39,0,0,1,1.49-1.52l.09-.05a7.81,7.81,0,0,1,5-1.65h0v-1.05Z"/><path class="cls-60" d="M739.26,223.33,737,221a.52.52,0,0,0-.62-.1l-2.54,1.33a.42.42,0,0,0-.09-.14l-14.58-14.83a.51.51,0,0,0-.4-.16.55.55,0,0,0-.39.2l-7,8.68a.54.54,0,0,0,0,.66c.09.11,8.58,10.66,9.75,12.13a1.37,1.37,0,0,1,.2,1.48l-.27.5-.29.5c-.05.1-.15.26-.4.68s-.38.5-.58.52c-.58.07-1.5-.87-2.11-1.49l-.23-.25-10.35-10.52-.75.74,1.12,1.14-.33,0a2.64,2.64,0,0,0,0,5.27,2.6,2.6,0,0,0,1.84-.76,2.55,2.55,0,0,0,.79-1.86,1.71,1.71,0,0,0,0-.31l5.73,5.83-.33,0a2.67,2.67,0,0,0-1.85.75,2.64,2.64,0,1,0,4.45,1.57,3.19,3.19,0,0,0,2,1h.19a1.88,1.88,0,0,0,1.37-1l.4-.68.3-.52.27-.49a2.23,2.23,0,0,0,.25-1.37l14-7.39,2,2a.52.52,0,0,0,.74,0A.53.53,0,0,0,739.26,223.33Zm-31.06,2.49a1.63,1.63,0,0,1-2.24,0,1.59,1.59,0,0,1,1.13-2.69,1.58,1.58,0,0,1,1.11,2.71Zm8,8.14a1.63,1.63,0,0,1-2.24,0,1.61,1.61,0,0,1-.45-1.12,1.59,1.59,0,0,1,1.58-1.57A1.58,1.58,0,0,1,716.2,234Zm10.33-17.67-2.24,2.2-2.06-2.08,2.25-2.21Zm-7.72-7.85,2.14,2.17h0l.74.75h0l2,2.08-2.25,2.22-2.06-2.08,1.9-1.87-.75-.74-1.89,1.86-1.9-1.91Zm3.1,9.15,1.62,1.64-2.24,2.21-2-2.09,1.87-1.83-.76-.74-1.85,1.82-2-2.09,1.84-1.8-.75-.74-1.83,1.79-1.55-1.58,2-2.42,1.59,1.6h0l1.53,1.56h0l1.14,1.14Zm-3,2.93,1.21,1.22h0l1.53,1.56h0l1.69,1.71-2.19,2.16-1.84-2.29,1.6-1.58-.75-.74-1.52,1.49-1.84-2.29,1.34-1.32-.75-.74-1.26,1.24c-.65-.82-1.28-1.6-1.84-2.29l1-1-.75-.74-1,.93-1.2-1.49,1.07-1.32,1.12,1.13h0l1.53,1.56h0L717.4,219Zm3.19,7.89c-.06-.09-.12-.19-.19-.28l-.11-.13,2.27-2.24,1,1.07Zm4-2.1L724.82,225l1.91-1.87-.76-.74-1.89,1.86L722,222.19l2.25-2.21,1.75,1.77h0l1.54,1.56h0l1.46,1.47Zm3.91-2.05-2.17-2.2,1.74-1.71-.75-.74-1.73,1.71L725,219.24l2.24-2.2,1.75,1.78h0l1.54,1.56h0l2.33,2.37Z"/><path class="cls-60" d="M696.17,182.26a14.86,14.86,0,0,1,2.21-.39,13.61,13.61,0,0,1-2.23-.29,14.41,14.41,0,0,1-.38-2.21,14.88,14.88,0,0,1-.29,2.23,14.82,14.82,0,0,1-2.21.38,16.59,16.59,0,0,1,2.23.29,16.14,16.14,0,0,1,.38,2.22,13.61,13.61,0,0,1,.29-2.23"/><path class="cls-60" d="M689,188.86a15.31,15.31,0,0,1,2.21-.39,13.53,13.53,0,0,1-2.22-.29,14.86,14.86,0,0,1-.39-2.21,13.61,13.61,0,0,1-.29,2.23,14.82,14.82,0,0,1-2.21.38,13.61,13.61,0,0,1,2.23.29,16.33,16.33,0,0,1,.38,2.21,13.41,13.41,0,0,1,.29-2.22"/><path class="cls-60" d="M690.27,183.69a7.93,7.93,0,0,1,1.35-.23,9.38,9.38,0,0,1-1.35-.18,9.2,9.2,0,0,1-.24-1.35,8.16,8.16,0,0,1-.18,1.36,7.63,7.63,0,0,1-1.35.23,9.46,9.46,0,0,1,1.36.18,9.43,9.43,0,0,1,.24,1.35,7.81,7.81,0,0,1,.17-1.36"/><path class="cls-60" d="M686.09,192.21a9.2,9.2,0,0,1,1.35-.24,7.91,7.91,0,0,1-1.36-.17,7.93,7.93,0,0,1-.23-1.35,9.63,9.63,0,0,1-.18,1.36,10.52,10.52,0,0,1-1.35.23,8.16,8.16,0,0,1,1.36.18,8.75,8.75,0,0,1,.23,1.35,9.46,9.46,0,0,1,.18-1.36"/><path class="cls-60" d="M700.56,188a9,9,0,0,1,1.35-.23,9.63,9.63,0,0,1-1.36-.18,8.75,8.75,0,0,1-.23-1.35,9.46,9.46,0,0,1-.18,1.36,7.63,7.63,0,0,1-1.35.23,9.46,9.46,0,0,1,1.36.18,7.63,7.63,0,0,1,.23,1.35,9.46,9.46,0,0,1,.18-1.36"/><path class="cls-60" d="M705.36,194.6a9.15,9.15,0,0,1,1.35-.23,9.63,9.63,0,0,1-1.36-.18,8.75,8.75,0,0,1-.23-1.35,9.46,9.46,0,0,1-.18,1.36,7.63,7.63,0,0,1-1.35.23,9.46,9.46,0,0,1,1.36.18,9.43,9.43,0,0,1,.24,1.35,7.81,7.81,0,0,1,.17-1.36"/><path class="cls-60" d="M684.12,187.73a8.75,8.75,0,0,1,1.35-.23,9.46,9.46,0,0,1-1.36-.18,7.63,7.63,0,0,1-.23-1.35,9.46,9.46,0,0,1-.18,1.36,7.93,7.93,0,0,1-1.35.23,9.63,9.63,0,0,1,1.36.18,10.82,10.82,0,0,1,.23,1.35,8.16,8.16,0,0,1,.18-1.36"/><path class="cls-60" d="M700.56,183.86a9,9,0,0,1,1.35-.23,9.63,9.63,0,0,1-1.36-.18,8.75,8.75,0,0,1-.23-1.35,9.46,9.46,0,0,1-.18,1.36,9.2,9.2,0,0,1-1.35.24,7.81,7.81,0,0,1,1.36.17,7.93,7.93,0,0,1,.23,1.35,9.63,9.63,0,0,1,.18-1.36"/><path class="cls-60" d="M705.81,183.34a16.17,16.17,0,0,1,2.27-.4,14.35,14.35,0,0,1-2.29-.29,14.59,14.59,0,0,1-.39-2.28,16.19,16.19,0,0,1-.3,2.29,15,15,0,0,1-2.28.4,14.43,14.43,0,0,1,2.3.29,16,16,0,0,1,.39,2.28,13.58,13.58,0,0,1,.3-2.29"/><path class="cls-60" d="M699.31,195.51a15,15,0,0,1,2.28-.4,15.68,15.68,0,0,1-2.29-.29,15,15,0,0,1-.4-2.28,14.35,14.35,0,0,1-.29,2.29,15,15,0,0,1-2.28.4,14.35,14.35,0,0,1,2.29.29,16.48,16.48,0,0,1,.4,2.28,14.35,14.35,0,0,1,.29-2.29"/><path class="cls-60" d="M696,190.17a15.18,15.18,0,0,1,2.27-.4,14.27,14.27,0,0,1-2.28-.29,15,15,0,0,1-.4-2.28,13.58,13.58,0,0,1-.3,2.29,14.77,14.77,0,0,1-2.27.4,14.35,14.35,0,0,1,2.29.29,16,16,0,0,1,.39,2.28,16.19,16.19,0,0,1,.3-2.29"/><path class="cls-60" d="M674,222.37a.34.34,0,0,1,.34.06l.11.1a.73.73,0,0,0,.23,1,.74.74,0,0,0,1-.24.76.76,0,0,0-.24-1,.74.74,0,0,0-.88.1v-.22c0-.12-.12-.2-.21-.24-.36-.19-.78.29-1.07,0s-.29-.42-.29-.42a.91.91,0,0,0,.18.6A.75.75,0,0,0,674,222.37Z"/><path class="cls-60" d="M677.64,225.19a.73.73,0,0,0,1-.29.74.74,0,0,0-.29-1,.75.75,0,0,0-1,.3A.74.74,0,0,0,677.64,225.19Z"/><path class="cls-60" d="M689.49,216.74a.72.72,0,1,0-1-1.08.73.73,0,0,0-.07,1A.72.72,0,0,0,689.49,216.74Z"/><path class="cls-60" d="M677.35,203.67a4.13,4.13,0,1,1,.68-7.26l.17.11-1.51,2-.14-.07a1.63,1.63,0,0,0-1.41-.08,1.65,1.65,0,1,0,1.26,3,1.63,1.63,0,0,0,1-1l0-.16,2.46.32,0,.2a4.14,4.14,0,0,1-2.45,3Z"/><path class="cls-60" d="M675.85,211.92a2.52,2.52,0,0,1-1.33-1.39,2.48,2.48,0,0,1,0-1.91,2.51,2.51,0,0,1,4.76.55l0,.12-1.49.16,0-.09a1,1,0,0,0-.56-.65,1,1,0,1,0-.8,1.83,1,1,0,0,0,.85,0l.09,0,.89,1.21-.11.07a2.48,2.48,0,0,1-2.32.17Z"/><path class="cls-60" d="M674.68,217.16a1.47,1.47,0,0,1-1-.51,1.54,1.54,0,0,1-.37-1.09,1.5,1.5,0,0,1,2.79-.65l0,.06-.81.4,0-.05a.59.59,0,0,0-.45-.25.6.6,0,0,0-.64.56.61.61,0,0,0,.56.64.57.57,0,0,0,.47-.2l0,0,.74.5,0,.06a1.49,1.49,0,0,1-1.28.57Z"/><path class="cls-61" d="M716,195.35l-4.14,1.47.47,1.25,4.6-1.8C716.9,196.2,716.26,195.56,716,195.35Z"/><path class="cls-62" d="M718,197.52l-4.61,2.63.68,1.15,4.58-2.82C718.43,198.17,718,197.53,718,197.52Z"/><path class="cls-63" d="M719.49,200.17v0l0,0-.12-.26-4,3.31.87,1,3.58-3.19C719.73,200.71,719.61,200.43,719.49,200.17Z"/><path class="cls-64" d="M720.67,203.82v0l-.24-1-2.51,3,1,.84,1.81-2.32-.09-.46Z"/><polygon class="cls-65" points="720.88 207.91 721.15 208.06 721.13 207.48 720.88 207.91"/><path class="cls-60" d="M694.86,223.66v-2.15c-.39.38-.76.77-1.05,1.11v2.57a41.72,41.72,0,0,0-2.08,4.18L691,231v-2.93c-.36.75-.8,1.66-1.06,2.22v2.79c-1.51,2.7-3.4,4.72-6.67,4.72a7.91,7.91,0,0,1-4.38-1.3v-1.87l-1-.79v2c-.24-.17-.48-.34-.71-.52a22.53,22.53,0,0,0-2.3-1.56v-1.8a11.62,11.62,0,0,0-1.06-.51v1.78a10.89,10.89,0,0,0-5.62-.82l.09,1a9.61,9.61,0,0,1,5.53.92v7.93h1.06V235c.57.36,1.12.77,1.67,1.18s.88.65,1.34,1V242h1v-4.22a8.89,8.89,0,0,0,4.38,1.12,7.75,7.75,0,0,0,6.67-3.78v6.74H691v-8.46c.61-1.14,1.17-2.35,1.71-3.56.37-.82.74-1.63,1.12-2.4v14.33h1.05V225.48c1.33-2.12,3-3.6,5.56-3.55l0-1.05A6.65,6.65,0,0,0,694.86,223.66Z"/><path class="cls-60" d="M700.38,217.56a9.25,9.25,0,0,0-3.79.75,1,1,0,0,0-.12-1.14l-.09-.08-.36.33.09.06a.56.56,0,0,1,.13.39.54.54,0,0,1-.18.35.53.53,0,0,1-.74-.05.56.56,0,0,1-.05-.08l-.36.33.05.06a1,1,0,0,0,.65.34,10.77,10.77,0,0,0-3.07,2.91.69.69,0,0,0,.07-.29,1,1,0,0,0-.24-.72h0L692,221h0a.53.53,0,0,1,.13.38.52.52,0,0,1-.91.31l-.36.32a1,1,0,0,0,.75.33,1,1,0,0,0,.64-.23,36.29,36.29,0,0,0-2.92,5.64c-1.65,3.7-3.07,6.89-6,6.89-2.09,0-3.52-1.1-5.17-2.38l0,0a.76.76,0,0,0,.21,0,1,1,0,0,0,.91-.54l0-.08-.44-.24a.19.19,0,0,1,0,.08.54.54,0,0,1-.73.22.53.53,0,0,1-.22-.73l.06-.07-.44-.24a.35.35,0,0,1,0,.08,1,1,0,0,0,0,.95,14,14,0,0,0-3.76-2.14,1,1,0,0,0,.7-.51l0-.07-.44-.24s0,.05,0,.07a.55.55,0,0,1-.74.22.55.55,0,0,1-.21-.73.18.18,0,0,1,.05-.07l-.44-.23,0,.06a1,1,0,0,0,.17,1.21,12.55,12.55,0,0,0-4.65-.24l.13,1a10.72,10.72,0,0,1,5.51.62h0a9.65,9.65,0,0,1,1.06.5h0a21,21,0,0,1,2.74,1.89c.19.15.92.71,1.43,1.07a7.47,7.47,0,0,0,4.39,1.54c3,0,4.66-2.61,6.13-5.75v0c.13-.3,1-2.17,1.47-3.21v0a26.51,26.51,0,0,1,2.11-3.91,2.68,2.68,0,0,1,.22-.35l.38-.48.12-.15h0a11.39,11.39,0,0,1,1.49-1.52l.09-.05a7.81,7.81,0,0,1,5-1.65h0v-1.05Z"/><path class="cls-60" d="M739.26,223.33,737,221a.52.52,0,0,0-.62-.1l-2.54,1.33a.42.42,0,0,0-.09-.14l-14.58-14.83a.51.51,0,0,0-.4-.16.55.55,0,0,0-.39.2l-7,8.68a.54.54,0,0,0,0,.66c.09.11,8.58,10.66,9.75,12.13a1.37,1.37,0,0,1,.2,1.48l-.27.5-.29.5c-.05.1-.15.26-.4.68s-.38.5-.58.52c-.58.07-1.5-.87-2.11-1.49l-.23-.25-10.35-10.52-.75.74,1.12,1.14-.33,0a2.64,2.64,0,0,0,0,5.27,2.6,2.6,0,0,0,1.84-.76,2.55,2.55,0,0,0,.79-1.86,1.71,1.71,0,0,0,0-.31l5.73,5.83-.33,0a2.67,2.67,0,0,0-1.85.75,2.64,2.64,0,1,0,4.45,1.57,3.19,3.19,0,0,0,2,1h.19a1.88,1.88,0,0,0,1.37-1l.4-.68.3-.52.27-.49a2.23,2.23,0,0,0,.25-1.37l14-7.39,2,2a.52.52,0,0,0,.74,0A.53.53,0,0,0,739.26,223.33Zm-31.06,2.49a1.63,1.63,0,0,1-2.24,0,1.59,1.59,0,0,1,1.13-2.69,1.58,1.58,0,0,1,1.11,2.71Zm8,8.14a1.63,1.63,0,0,1-2.24,0,1.61,1.61,0,0,1-.45-1.12,1.59,1.59,0,0,1,1.58-1.57A1.58,1.58,0,0,1,716.2,234Zm10.33-17.67-2.24,2.2-2.06-2.08,2.25-2.21Zm-7.72-7.85,2.14,2.17h0l.74.75h0l2,2.08-2.25,2.22-2.06-2.08,1.9-1.87-.75-.74-1.89,1.86-1.9-1.91Zm3.1,9.15,1.62,1.64-2.24,2.21-2-2.09,1.87-1.83-.76-.74-1.85,1.82-2-2.09,1.84-1.8-.75-.74-1.83,1.79-1.55-1.58,2-2.42,1.59,1.6h0l1.53,1.56h0l1.14,1.14Zm-3,2.93,1.21,1.22h0l1.53,1.56h0l1.69,1.71-2.19,2.16-1.84-2.29,1.6-1.58-.75-.74-1.52,1.49-1.84-2.29,1.34-1.32-.75-.74-1.26,1.24c-.65-.82-1.28-1.6-1.84-2.29l1-1-.75-.74-1,.93-1.2-1.49,1.07-1.32,1.12,1.13h0l1.53,1.56h0L717.4,219Zm3.19,7.89c-.06-.09-.12-.19-.19-.28l-.11-.13,2.27-2.24,1,1.07Zm4-2.1L724.82,225l1.91-1.87-.76-.74-1.89,1.86L722,222.19l2.25-2.21,1.75,1.77h0l1.54,1.56h0l1.46,1.47Zm3.91-2.05-2.17-2.2,1.74-1.71-.75-.74-1.73,1.71L725,219.24l2.24-2.2,1.75,1.78h0l1.54,1.56h0l2.33,2.37Z"/><path class="cls-60" d="M673.87,226.08a2,2,0,0,0,.88.37c.13,0,.22-.29.31-.49l.35-1.05a.54.54,0,0,0,0-.22l.79-.33a.26.26,0,0,0,.1-.07l.75-.86a.28.28,0,0,0,0-.39.28.28,0,0,0-.4,0l-.7.8-.72.31a.67.67,0,0,0-.3-.19.71.71,0,0,0-.92.45l-.27.81C673.72,225.3,673.45,225.8,673.87,226.08Z"/><path class="cls-60" d="M676.77,227.69a2.07,2.07,0,0,0,.88.37c.15,0,.27-.34.31-.51l.33-1,.88-.37.09-.05,1-.95a.29.29,0,0,0,0-.4.27.27,0,0,0-.39,0l-.93.91-.63.26a.71.71,0,0,0-.43-.38.72.72,0,0,0-.92.46l-.28.8C676.62,226.89,676.35,227.41,676.77,227.69Z"/><path class="cls-60" d="M679.63,227.13a.18.18,0,0,0-.24.08l-.49.9-.59-.36c-.07.24-.26.7-.66.7a2.23,2.23,0,0,1-1.09-.44,1,1,0,0,1-.25-1.36l-.91-.51c-.09.22-.24.7-.65.7a2.25,2.25,0,0,1-1.09-.43,1,1,0,0,1-.24-1.35l-.29-.15a.18.18,0,0,0-.24.08l-.28.52-.83,1.51,8.29,4.49a1.38,1.38,0,0,0,.28-.42C681.14,229.24,681,227.93,679.63,227.13Z"/><path class="cls-60" d="M691.58,218.52a2,2,0,0,0,.64-.67c0-.12-.22-.34-.4-.45l-.86-.7,0-.92a.3.3,0,0,0,0-.1l-.54-1.2a.27.27,0,0,0-.36-.14.28.28,0,0,0-.13.36l.52,1.15,0,.66a.75.75,0,0,0-.5.26.71.71,0,0,0,.11,1l.73.59S691.18,218.83,691.58,218.52Z"/><path class="cls-60" d="M696,216.07a2.44,2.44,0,0,0-3.3-.75s-.18.11,0,.24l.61.69a10.4,10.4,0,0,0-.95.67l-.22.2c.2.14.6.47.47.86a2.32,2.32,0,0,1-.77.85.84.84,0,0,1-.53.19,1.18,1.18,0,0,1-.83-.4c-.73.65-1.5,1.3-1.7,1.47a.17.17,0,0,0,0,.24l.34.39,1.1,1.27h0l6.09-5.53A2.31,2.31,0,0,0,696,216.07Z"/><polygon class="cls-67" points="712.6 193.02 711.05 193.28 711.28 194.59 714.29 194 712.6 193.02"/><path class="cls-67" d="M712.6,193l-1.55.26.23,1.31,3-.59C714.1,193.87,712.61,193,712.6,193Z"/></g><path class="cls-2" d="M651.67,283.44c.33,0,.63.18.63.85v14.2c0,.68-.3.86-.63.86v.27h3.93v-.27c-.34,0-.63-.18-.63-.86v-14.2c0-.67.29-.85.63-.85v-.28h-3.93Z"/><path class="cls-2" d="M667.85,283.16H657.72c-.56,0-.67-.22-.67-.54h-.27V286h.27c0-.32.11-.55.67-.55h3.73v13.07c0,.68-.29.86-.63.86v.27h3.94v-.27c-.34,0-.64-.18-.64-.86V285.42h3.73c.57,0,.68.23.68.55h.27v-3.35h-.27C668.53,282.94,668.42,283.16,667.85,283.16Z"/><path class="cls-2" d="M679.46,283.44c.23,0,.32.15.32.29a.44.44,0,0,1-.07.29l-3,5.84-3.17-5.63a1.38,1.38,0,0,1-.2-.5c0-.18.11-.25.41-.29v-.28h-3.94v.28a1.22,1.22,0,0,1,.84.7l4.61,8.16v6.19c0,.68-.29.86-.63.86v.27h3.93v-.27c-.34,0-.63-.18-.63-.86V292.3l4-7.64c.36-.7.49-1,1.15-1.22v-.28h-3.62Z"/><path class="cls-2" d="M713.49,297.36H706v-5h4.71c.56,0,.67.23.67.54h.27v-3.34h-.27c0,.32-.11.54-.67.54H706v-4.66h7.28c.57,0,.68.23.68.55h.27v-3.35h-.27c0,.32-.11.54-.68.54H702.66v.28c.34,0,.64.18.64.85v14.2c0,.68-.3.86-.64.86v.27h10.83c.57,0,.68.23.68.54h.27v-3.34h-.27C714.17,297.13,714.06,297.36,713.49,297.36Z"/><path class="cls-2" d="M725.89,283.44c.33,0,.63.18.63.85v10.63h0l-6.55-10.49c-.18-.29-.3-.43-.3-.66s.09-.27.32-.33v-.28h-4.18v.28c.34,0,.63.18.63.85v14.2c0,.68-.29.86-.63.86v.27h3.57v-.27c-.34,0-.63-.18-.63-.86V286.78h0L726,298.47a1.33,1.33,0,0,1,.32.68c0,.15-.09.2-.36.2v.27h3.55v-.27c-.34,0-.64-.18-.64-.86v-14.2c0-.67.3-.85.64-.85v-.28h-3.57Z"/><path class="cls-2" d="M741.44,283.16H731.31c-.57,0-.68-.22-.68-.54h-.27V286h.27c0-.32.11-.55.68-.55H735v13.07c0,.68-.29.86-.63.86v.27h3.93v-.27c-.34,0-.63-.18-.63-.86V285.42h3.73c.56,0,.67.23.67.55h.28v-3.35h-.28C742.11,282.94,742,283.16,741.44,283.16Z"/><path class="cls-2" d="M755.41,298.58l-3.1-6.13c2.4-.4,3.71-2,3.71-5,0-2.31-1.65-4.3-5.27-4.3h-7.5v.28c.24,0,.54.18.54.85v14.2c0,.68-.3.86-.64.86v.27h3.94v-.27c-.34,0-.63-.18-.63-.86v-5.94h3l3,5.87a.93.93,0,0,1,.16.5.44.44,0,0,1-.45.43v.27h4.29v-.27A1.15,1.15,0,0,1,755.41,298.58Zm-8.95-8.16v-5.13H750c2.35,0,3.32.59,3.32,2.67,0,1.67-.66,2.46-2.83,2.46Z"/><path class="cls-2" d="M769.06,296.82c0,.31-.11.54-.68.54h-7.53v-5h4.71c.56,0,.68.23.68.54h.27v-3.34h-.27c0,.32-.12.54-.68.54h-4.71v-4.66h7.28c.57,0,.68.23.68.55h.27v-3.35h-.27c0,.32-.11.54-.68.54H757.56v.28c.33,0,.63.18.63.85v14.2c0,.68-.3.86-.63.86v.27h10.82c.57,0,.68.23.68.54h.27v-3.34Z"/><path class="cls-2" d="M649.32,279.23h0a13.12,13.12,0,0,0-4.14-.88,11.48,11.48,0,0,0-11.49,11.48c0,9.61,8.52,11.3,11.49,11.3a13.42,13.42,0,0,0,3.86-.54l.15,0c.54,0,.65.23.65.54h.28v-.17h0v-4.75c-1.49,2.19-4.94,2.12-4.94,2.12a8.47,8.47,0,1,1,0-16.93s3.7-.15,5.08,2V282h0v-3.34H650C650,279,649.91,279.46,649.32,279.23Z"/><path class="cls-2" d="M701,278.69h-.28c0,.31-.08.76-.66.54a13.05,13.05,0,0,0-4.14-.88,11.48,11.48,0,0,0-11.49,11.48c0,9.61,8.51,11.3,11.49,11.3a13.48,13.48,0,0,0,3.86-.54l.15,0c.53,0,.64.23.64.54h.28v-4.91c-1.49,2.19-4.94,2.12-4.94,2.12a8.47,8.47,0,1,1,0-16.93s3.7-.15,5.08,2v-4.54h0Z"/><path class="cls-2" d="M643.64,314.25h-1.08L642,312.8h-2.73l-.59,1.45h-1l2.54-6.05h.94Zm-3-4.79-1,2.41h2Z"/><path class="cls-2" d="M647.3,308.24h1v5.05h3v1H647.3Z"/><path class="cls-2" d="M660.14,309.18v-.94h4.62V309l-3.41,4.3h3.41v.93H660v-.78l3.41-4.29Z"/><path class="cls-2" d="M674.23,314.25h-1.07l-.59-1.45h-2.73l-.59,1.45h-1l2.54-6.05h.94Zm-3-4.79-1,2.41h2Z"/><path class="cls-2" d="M678.91,311.72v2.53h-1v-6h1v2.5h2.75v-2.5h1v6h-1v-2.53Z"/><path class="cls-2" d="M687.91,308.24v6h-1v-6Z"/><path class="cls-2" d="M697.66,314.25h-1.07L696,312.8h-2.73l-.59,1.45h-1l2.54-6.05h.94Zm-3-4.79-1,2.41h2Z"/><path class="cls-2" d="M768.81,263.75v-12c0-.35.21-.62.47-.62v-.28h-3.4v.28a.58.58,0,0,1,.49.64v10.35h-4.25V251.79c0-.35.21-.63.47-.63v-.28H759.2v.28c.26,0,.48.29.48.64v10.35h-4.31V251.79c0-.35.2-.63.47-.63v-.28h-3.4v.28a.58.58,0,0,1,.49.64v10.35h-8.37V251.74c0-.33.22-.58.46-.58v-.28h-3.39v.28c.27,0,.48.29.48.64v10.35H730.82V251.79c0-.35.2-.63.47-.63v-.28H727.9v.28c.26,0,.47.27.48.62v10.37h-10V249l-.26.34a2.66,2.66,0,0,1-1.6,1.23h-2.24a4.57,4.57,0,0,0-3.45,1.37,6.45,6.45,0,0,0-1.52,4.69v8.76l-.19,0a15.69,15.69,0,0,1-3.54.45h-.05a9.16,9.16,0,0,1-6.63-2.94,10,10,0,0,1-2.8-7,9.44,9.44,0,0,1,9.44-9.43h.15a7.2,7.2,0,0,1,4.85,2l.24.27V244l-.26.4c-.21.32-.49.47-.69.38a12.54,12.54,0,0,0-4.3-.92A12.21,12.21,0,0,0,693.37,256c0,10.16,9,12.45,12.2,12.45a27.28,27.28,0,0,0,5.4-.57.71.71,0,0,1,.74.35l.26.41v-5.3c0-.16,0-5,0-6.87a3.06,3.06,0,0,1,3.34-3.33,4.94,4.94,0,0,1,.84.07l.21,0,0,11.37h52.95v-.28C768.94,264.34,768.81,263.92,768.81,263.75Z"/><path class="cls-2" d="M741.78,266.76a1.36,1.36,0,1,0,1.36,1.36A1.36,1.36,0,0,0,741.78,266.76Z"/><path class="cls-2" d="M661.07,249.35a1.36,1.36,0,1,0-1.36-1.36A1.36,1.36,0,0,0,661.07,249.35Z"/><path class="cls-2" d="M650.82,249.35a1.36,1.36,0,1,0-1.35-1.36A1.36,1.36,0,0,0,650.82,249.35Z"/><path class="cls-2" d="M654.1,249.35a1.36,1.36,0,1,0-1.35-1.36A1.35,1.35,0,0,0,654.1,249.35Z"/><path class="cls-2" d="M703.59,270.79a1.36,1.36,0,1,0,1.37,1.36A1.36,1.36,0,0,0,703.59,270.79Z"/><path class="cls-2" d="M706.91,270.79a1.36,1.36,0,1,0,1.36,1.36A1.37,1.37,0,0,0,706.91,270.79Z"/><path class="cls-2" d="M745.09,266.76a1.36,1.36,0,1,0,1.36,1.36A1.37,1.37,0,0,0,745.09,266.76Z"/><path class="cls-2" d="M727.9,249.38a1.37,1.37,0,1,0-1.37-1.36A1.36,1.36,0,0,0,727.9,249.38Z"/><path class="cls-2" d="M731.2,249.38a1.37,1.37,0,1,0-1.37-1.36A1.36,1.36,0,0,0,731.2,249.38Z"/><path class="cls-2" d="M685,251.16c.26,0,.47.28.48.62v10.35h-4.22V251.79c0-.35.21-.63.47-.63v-.28h-3.39v.28c.26,0,.48.29.48.64v10.33h-4.28V251.79c0-.35.2-.63.46-.63v-.28h-3.39v.28c.27,0,.48.29.48.64v10.33h-10V251.79c0-.35.2-.63.47-.63v-.28h-3.39v.28c.26,0,.48.29.48.64v10.33h-6.08V251.79c0-.35.21-.63.47-.63v-.28h-3.39v.28c.27,0,.48.29.48.64v10.33h-8.67V251.79c0-.35.2-.63.47-.63v-.28h-3.39v.28c.26,0,.48.29.48.64,0,0,0,13.06,0,13.23a3,3,0,0,1-.77,2.33,3.22,3.22,0,0,1-2.3.65,5.57,5.57,0,0,1-3-.82l-.42-.28.21.45a4.64,4.64,0,0,0,4.2,3,3.86,3.86,0,0,0,3.74-2.48,8,8,0,0,0,.67-2.94v-.25h46.14a.72.72,0,0,1-.59-.8V263h0V251.79c0-.35.21-.63.47-.63v-.28H685Z"/><rect class="cls-2" x="712.34" y="306" width="1.1" height="1.25"/><rect class="cls-2" x="713.81" y="306" width="1.1" height="1.25"/><rect class="cls-2" x="731.99" y="314.72" width="1.1" height="1.25"/><rect class="cls-2" x="733.46" y="314.72" width="1.1" height="1.25"/><path class="cls-2" d="M748.41,307.75l-.18,0v1.1l.11,0a3.61,3.61,0,0,1,2.54,3.56,3.84,3.84,0,0,1-.07.76h-1.24a2.56,2.56,0,0,0,.38-1.41,2.12,2.12,0,0,0-2.14-2.33,2.17,2.17,0,0,0-2.19,2.34,2.56,2.56,0,0,0,.37,1.41H734.4a3.24,3.24,0,0,0,.15-1.05v-3.28h-1.09v2.93a2.46,2.46,0,0,1-.15,1c-.13.26-.4.38-.83.38H716.72c-.82,0-1.3-.6-1.3-1.64v-3.76h-2.53c-1.35,0-2.29,1.18-2.29,2.87s.93,2.83,2.15,2.83a2.08,2.08,0,0,0,1.68-.69,2.17,2.17,0,0,0,2.2,1.46h35.12l0-.11a7.27,7.27,0,0,0,.17-1.58,5.15,5.15,0,0,0-.82-2.93A4.75,4.75,0,0,0,748.41,307.75Zm.43,4c0,1.3-.59,1.45-1,1.45-.66,0-1.06-.52-1.06-1.35,0-.54.14-1.44,1.1-1.44S748.84,311.11,748.84,311.72Zm-34.52-3.06v1.84c0,1.39-.45,2.06-1.31,2.06s-1.32-.84-1.32-2,.56-1.94,1.35-1.94Z"/><rect class="cls-2" x="753.72" y="306.67" width="1.08" height="7.58"/><rect class="cls-2" x="757.62" y="307.08" width="1.1" height="1.25"/><path class="cls-2" d="M765.39,311.77a2.06,2.06,0,0,1-.16,1,.82.82,0,0,1-.82.39H758.7v-4.33h-1.08v4.45c0,1.22-.44,1.76-1.43,1.76H756v1.06h.16a2.47,2.47,0,0,0,2.48-1.85h6c.82,0,1.8-.37,1.8-2.13v-5.45h-1.08Z"/><rect class="cls-2" x="768.25" y="306.67" width="1.08" height="7.58"/></g></svg>