<?xml version="1.0" encoding="utf-8"?>
<!-- Generator: Adobe Illustrator 19.1.0, SVG Export Plug-In . SVG Version: 6.00 Build 0)  -->
<svg version="1.1" xmlns="http://www.w3.org/2000/svg" xmlns:xlink="http://www.w3.org/1999/xlink" x="0px" y="0px" width="1920px"
	 height="1080px" viewBox="0 0 1920 1080" style="enable-background:new 0 0 1920 1080;" xml:space="preserve">
<g id="Harmony_x5F_tap">
	<path style="opacity:0.5;fill:#e37747;" d="M561.1,772.8l6.7-4.3c2.9-1.8,5.3-4.3,7-7.2l11.3-18.8c1.4-2.3,3.1-4.4,5-6.2l6.8-6.2
		c4.4-4,6.2-10.2,4.6-16l-4.9-17.9c-1.8-6.5,0.3-13.5,5.5-17.9l25.8-22.1l27.1-15.2c5.8-3.2,12.8-3.1,18.4,0.3l43.4,26.1
		c5.6,3.4,11.9,5.6,18.4,6.5l52.8,7.2c3.8,0.5,7.6,0.4,11.3-0.5l60.4-13.6c6.9-1.6,14.1-0.2,20,3.7l51.5,34.5c3.4,2.3,7,4,10.8,5.3
		l36,12.2c10.5,3.5,19.8,9.8,26.9,18.2l20.9,24.4c3.5,4.1,8.4,6.8,13.7,7.6l73.7,10.5c4.6,0.7,8.8,2.7,12.1,6l9.7,9.4
		c1,0.9,1.8,2,2.5,3.2l7,11.7c1.2,2,2,4.1,2.4,6.4l4.7,26.9c0.9,5.2-1.5,10.3-6.1,12.9l-10.6,5.9l-46.2,11.5
		c-1.2,0.3-2.4,0.5-3.7,0.5l-83.2,3.2l-241.5,4.5c0,0-72-0.9-147.5-46.3c0,0-41.1-29.9-56.1-50.1C554,783.9,555.5,776.4,561.1,772.8
		z"/>
</g>
<g id="Serenity_x5F_tap">
	<path style="opacity:0.5;fill:#FDB913;" d="M642.3,600.1c-3.7-6.1-3.2-13.9,1.4-19.3c7.7-9.1,21.4-19.8,39.4-11.8l24.3,9.6
		c2.6,1,5.3,1.7,8.1,1.9c4.3,0.3,12.5,2.4,20.4,12.6c1.8,2.4,4.2,4.3,6.9,5.7c8.4,4.6,26.4,12.2,45,5.8c1.7-0.6,3.3-1.5,4.7-2.5
		c7.5-5.7,41-26.4,112.2-7.2c0,0,20.4,6.2,37.7,22.7c0,0,28.8,24.9,64.6,28.2c0,0,27.3,1,46,34c1.7,3,4.1,5.6,7,7.5
		c8.3,5.2,26.5,13.9,48.8,7.7c0,0,25.8-2.6,46.4,15.8c0,0,8.1,8.7,16.3,12.9c6.1,3.2,9.9,9.7,9,16.5c-0.7,6.1-3.4,14.4-9.9,25.2l0,0
		c-2.4,4-2.2,9.1,0.7,12.9l15.7,21c4.9,6.6,5,15.6,0.2,22.2c-3.3,4.5-8.2,9.3-15.5,12.5c0,0-17.8-3.1-24.6-19.3
		c0,0-1.8-14.7-26-32.2c0,0-32.9-3.1-38.4,1.1c0,0-24.4,8-37.1-1.1c0,0-26-17.1-41-47.3c0,0-11.1-21.8-51.1-23.1
		c0,0-27.1-2.7-59.5-34.2c0,0-19.7-22.4-50.4-9.1c0,0-46.6,17.3-71.9,14.2c0,0-40.4-3.1-72.4-25.4c0,0-43.7-27.8-46.8-40.2
		L642.3,600.1z"/>
</g>
</svg>
