<?xml version="1.0" encoding="utf-8"?>
<!-- Generator: Adobe Illustrator 22.0.1, SVG Export Plug-In . SVG Version: 6.00 Build 0)  -->
<svg version="1.1" id="PhaseA_x5F_tap" xmlns="http://www.w3.org/2000/svg" xmlns:xlink="http://www.w3.org/1999/xlink" x="0px"
	 y="0px" width="1920px" height="1080px" viewBox="0 0 1920 1080" style="enable-background:new 0 0 1920 1080;"
	 xml:space="preserve">
<g id="LWPOLYLINE_3_">
	<path style="fill:none;stroke:#000000;stroke-width:0.1;stroke-linecap:round;stroke-linejoin:round;stroke-miterlimit:10;" d="
		M991.7,886.8"/>
</g>
<path id="PhaseA_x5F_tap" style="fill:#FDB913;fill-opacity:0.5;stroke:#000000;stroke-width:0.1;stroke-linecap:round;stroke-linejoin:round;stroke-miterlimit:10;" d="
	M1494.5,818.2c-49.4-6-95.6-28-131.5-62.5c-4.3-4.1-8.3-8.6-12-13.3l-7.6-0.9l-1.2,1l-26.1,21.6c-4.8,4-9.3,8.2-13.5,12.8
	c-4.7,5.1-9.7,9.9-15,14.3l-16.7,13.9l-54.6-64.8c-9,10.3-23,14.9-36.4,11.8c-6.2-1.9-12.1-4.9-17.2-8.9c-2.4-1.9-4.6-3.9-6.6-6.2
	c-5-4.5-10.8-8.1-16.9-10.8c-2.8-1.2-5.7-2.3-8.7-3.1c-6.9-1.9-14-2.7-21.2-2.3c-2.5,0.1-5,0.4-7.4,0.8c-4.6,0.8-9.4,0.9-14.1,0.5
	c-6.3-0.7-12.4-2.5-18-5.3c-6.4-3.3-12.1-7.8-16.6-13.4c-1.3-1.7-2.6-3.4-3.7-5.2c-3.4-5.4-7.6-10.3-12.4-14.6
	c-0.5-0.4-0.9-0.8-1.4-1.2c-3.2-2.7-6.6-5-10.2-7.1c-8.2-4.6-17.2-7.5-26.5-8.5c-0.3,0-0.7-0.1-1-0.1c-3.8-0.3-7.6-1-11.2-2.1
	c-4-1.2-7.9-2.7-11.7-4.3c-6.7-2.9-13.2-6.5-19.2-10.7c-2.5-1.8-5-3.6-7.4-5.6c-3.2-2.9-6.5-5.5-9.9-8.1c-0.2-0.2-0.5-0.4-0.7-0.5
	c-7.5-5.4-15.5-10-23.9-13.8c-8.8-3.9-17.9-6.7-27.3-8.6c-9.5-1.9-19.2-2.6-28.9-2.3c-9.9,0.3-19.7,1.8-29.2,4.3
	c-8.1,2.2-15.9,5.1-23.5,8.8c-1.2,0.6-2.4,1.2-3.6,1.8c-1.3,0.5-2.6,0.9-3.9,1.3c-6.1,1.8-12.5,2.6-18.8,2.2
	c-7.2-0.4-14.3-2.3-20.8-5.6c-0.2-0.1-0.4-0.2-0.6-0.3c-6.2-3.2-11.7-7.6-16.3-12.9l-17.5,19.2l-9,9.9l-17.7,19.4l-3.8,4.2l-6.3-5.7
	l-5.2-2.3h-7.5l-7.3,2.3l-5.8,4.5l-6.3,4.8l-8.3,4l-9.8,4.2l-8.7,5.2l-6.8,4.5l-5.7,5.2l-5,6l-4.3,4.8l-1.7,3.5l-1.5,4.2v3.2
	l2.3,3.7l2.7,4.5l3.8,5.9c0,0.1,0,0.2,0.1,0.3c2.8,10.5,1.5,13.3-1.3,18.7l-13.5,12l-5,7.3l-7.3,11.5l-6.3,8.2l-14.7,9.7
	c16.8,19.1,41.3,42,62.1,55.8l0,0l-23.8,48.6l-23.5,42.9l-11.5,23.8l-11.1,27.5l-0.3,34.7l116.5,1.2l326.5,2.5l371.7,2.9l154.1,1.3
	l-0.3-64.5l-0.6-70v-64.7l2.1-16.2C1515.7,819.1,1504.2,819.4,1494.5,818.2z"/>
</svg>
