<?xml version="1.0" encoding="utf-8"?>
<!-- Generator: Adobe Illustrator 22.0.1, SVG Export Plug-In . SVG Version: 6.00 Build 0)  -->
<svg version="1.1" id="PhaseA_x5F_tap" xmlns="http://www.w3.org/2000/svg" xmlns:xlink="http://www.w3.org/1999/xlink" x="0px"
	 y="0px" viewBox="0 0 1920 1080" style="enable-background:new 0 0 1920 1080;"
	 xml:space="preserve" preserveAspectRatio="none">
	 <image xlink:href="https://imagination-maf.github.io/src/images/overalls/overview-tilalalghaf.png" width="100%" height="100%" x="0" y="0" />
<g id="LWPOLYLINE_3_">
	<path style="fill:none;stroke:#000000;stroke-width:0.1;stroke-linecap:round;stroke-linejoin:round;stroke-miterlimit:10;" d="
		M991.7,886.8"/>
</g>
<path id="PhaseA_x5F_tap" style="fill:#FDB913;fill-opacity:0.5;stroke:#000000;stroke-width:0.1;stroke-linecap:round;stroke-linejoin:round;stroke-miterlimit:10;" d="
	M636.5,667.1l-7.2,10.7l-5.5,7.1l-8.2,9.6l-5.8,7.5L592,716.8c15.3,17.6,39.5,38.5,58.5,51.2
	l0,0c0,0,46.8,21.6,90.6,35.1c0,0,23.4,4.9,39,4l112,2.8l74.8,1.5l4.1-6.3c1-1.6,2.6-2.6,4.4-3l2.6-0.5c2-0.5,4.1-0.4,6,0.4l4.6,1.5
	l4.8,3.1l6.1,3c0,0,50.2,3.8,92.4-5.4c0,0,40.1,1.6,84.4-50.6l35.2-26.2l28.5-25.5l-41-44.8c-4.1,4.7-9.5,11.5-16.9,14.7
	s-16.6,2.7-22.8,1.3c-5.7-1.7-11-4.5-15.7-8.2c-2.2-1.7-4.2-3.6-6-5.7c-4.6-4.1-9.8-7.4-15.4-9.9c-2.6-1.1-5.2-2.1-7.9-2.9
	c-6.3-1.7-12.9-2.5-19.4-2.1c-2.3,0.1-4.6,0.4-6.8,0.7c-4.3,0.7-8.6,0.8-12.9,0.5c-5.7-0.6-11.3-2.3-16.4-4.9
	c-5.9-3-11-7.2-15.2-12.3c-1.2-1.5-2.4-3.1-3.4-4.8c-3.1-5-6.9-9.5-11.3-13.4c-0.5-0.4-0.8-0.7-1.3-1.1c-2.9-2.5-6-4.6-9.3-6.5
	c-7.5-4.2-15.7-6.9-24.2-7.8c-0.3,0-0.6-0.1-0.9-0.1c-3.5-0.3-6.9-0.9-10.2-1.9c-3.6-1.1-7.2-2.5-10.7-4c-6.1-2.7-12-6-17.5-9.8
	c-2.3-1.7-4.6-3.3-6.8-5.2c-2.9-2.7-5.9-5.1-9-7.5c-0.2-0.2-0.5-0.4-0.6-0.5c-6.8-4.9-14.1-9.2-21.8-12.7
	c-16.1-7.2-33.7-10.6-51.3-10c-16.7,0.6-33.2,4.7-48.2,12.1c-1.1,0.6-2.2,1.1-3.3,1.7s-2.4,0.8-3.6,1.2c-5.6,1.7-11.1,4-16.8,3.6
	c-6.6-0.4-11.1-0.9-17.1-3c-0.2-0.1-8.4-3.5-8.6-3.6c-5.7-2.9-8.4-3.1-20.1-14.3L722,580.1l-12,18l-14-5.5l-8.5,0.5l-7.8,1.4
	l-7.6,3.7l-9,3.9l-7.9,4.8L649,611l-5.2,4.8l-4.6,5.5l-3.9,4.4l-1.6,3.2l-1.4,3.9v2.9l2.1,3.4l2.5,4.1l0.8,5"/>
</svg>