<?xml version="1.0" encoding="utf-8"?>
<!-- Generator: Adobe Illustrator 19.1.0, SVG Export Plug-In . SVG Version: 6.00 Build 0)  -->
<svg version="1.1" xmlns="http://www.w3.org/2000/svg" xmlns:xlink="http://www.w3.org/1999/xlink"	
	 viewBox="0 0 1920 1080" style="enable-background:new 0 0 1920 1080;" xml:space="preserve" preserveAspectRatio="none">

	 <image xlink:href="https://s3.amazonaws.com/zoom-feature/masterplan/overview-almouj.png" width="100%" height="100%" x="0" y="0" />
<g id="box">
	<g id="Sector_3_x5F_tap">
		<path fill="#fff" fill-opacity="0" d="M829.9,889.7l0.3,0.1c15.4,8.8,33.8,13.8,56.2,15.2c15.9,1,32.6,1.2,47.5-4.6l0.5-0.2c0.5-1.1,1.3-2,2.3-2.5
			c1-0.5,1.9-1.1,2.8-1.7c1.8-1.2,3.8-2.3,5.9-3.2c0.5-0.6,1.1-1.2,1.7-1.9c2.4-2.8,4.2-5.8,5.6-9.4c1.6-4,2.2-8,2.9-12.3
			c0.2-1.4,0.4-2.8,0.7-4.2c0.5-2.7,1.2-5.4,1.9-8c0.7-2.6,1.4-5.2,1.9-7.9c0.5-2.9,0.6-5.9,0.8-8.9c0.1-2.8,0.3-5.7,0.7-8.6
			c0.4-2.7-0.9-5.2-2.3-7.9c-0.7-1.4-1.5-2.8-2-4.3c-0.3-0.3-0.6-0.7-0.9-1l0,0c-1.6-2.2-3-4.6-4.4-6.9c-1.1-1.8-2.1-3.6-3.3-5.3
			c-1.1-1.1-2.1-2.3-3.1-3.4l-0.3-0.4c-2.7-2-5.9-3.8-8.9-5.3c-9.6-4.9-20.7-6.8-31.4-8.6c-2.2-0.4-4.4-0.7-6.6-1.1
			c-1.1-0.2-2-0.6-2.7-1.2c-0.5,0-0.9-0.1-1.4-0.2c-0.2,0-0.4-0.1-0.6-0.2l-0.3,0c-0.3,0-0.5,0-0.8,0l-1.2,0l0.2-1.3
			c-4.5-0.5-8.9-1.1-13.1-1.6l-0.2,1.2l-1-0.2c-24.1-5.8-49-9.6-73.1-13.3l-2.2-0.3c-3.9-0.6-7.8-1.3-12-2.1
			c-13.6-2.5-27.6-5.1-40.9-3.7c-0.5,1.2-1.4,2.2-2.7,2.9c-3.7,1.9-7.1,4.6-10.3,7.1c-3,2.4-6.1,4.8-9.5,6.8
			c-1.3,0.7-2.5,1.5-3.6,2.4c-0.4,1.2-0.8,2.4-1.3,3.5c-0.9,2.4-1.9,4.8-2.9,7.2c-2.1,5-4.2,10.2-5.6,15.5c-1.5,5.8-1.5,12-1.4,17.9
			c0.1,4.4,0.1,8.9-0.5,13.4c-0.1,0.8-0.4,1.6-0.7,2.4c4.8,15.7,16.5,28.3,33.1,35.5c13.6,5.9,28.5,7.6,39.9,8.5
			c10.7,0.8,21.6,1.2,32.1,1.6c4.4,0.2,8.8,0.3,13.1,0.5c0.2,0,0.5,0,0.7,0L829.9,889.7z"/>
	</g>
	<g id="Sector_4_x5F_tap">
		<path fill="#fff" fill-opacity="0" d="M905,769.8l20,1.7l0.2,0.1l35.5,16.4l0.2,0.2c0.1,0.1,7.5,9.8,17.9,11.4c3.9-1,12.6-6.8,18.5-22.6l4.2-13.1l28.5-51
			l61.4,33.2c2.9-0.2,24.3-1.3,38.5,10.7c3.5,3,13.5,1.5,17.1,0.7l0.3-0.1l0.3,0.1c0.1,0,7.4,3,13.8-0.9c5.7-3.5,9-11.2,9.9-22.8
			l0-0.6l17.7-9.1l1.6-36.2c-10.3-0.5-88.9-4.5-105-13.2c-0.3-0.2-31.4-18.8-64.7-42.7c-44-31.7-71-57.4-80.2-76.4l-52,27.7
			l-55.1,17.6c-1.2,1.5-7.7,11.2,1.3,28.1l12.1,18.2l8.1,28.7l20.3,19.9l24.5,19.3l27,9.8l-1.2,1.1c-0.1,0.1-8.3,8-20.6,42.4
			L905,769.8z"/>
	</g>
	<g id="Sector_1_x5F_tap">
		<path fill="#fff" fill-opacity="0" d="M425.2,825.7c16.9,37,106.9,34.2,109.8,34.1c56.7-9.9,126.2-41.1,130.7-43.2c33.5-44.7,33.7-99.4,33.6-104.9l-48.9-40.9
			l-0.1-0.2l-32.2-69.2l-88,51.2l-0.4-0.1l-90.1-15.8l-0.4,17.7L425.2,825.7z"/>
	</g>
	<g id="Sector_2_x5F_tap">
		<path fill="#fff" fill-opacity="0" d="M753.7,741.7L753.7,741.7l123.5,20.9l20.7-37.2l0.2-0.1c0,0,0.1-0.2,0-0.9c-0.4-2.6-4.9-10.8-37.7-31.1l-0.2-0.2l-0.1-0.3
			l-35.6-74.9L769,553.7c-3.2-1.1-34.8-11.3-51.5-6.7L632,593.9l-12.1,6.5l36.5,72.7l44.1,36.8l12.9-7.9l0.4,0.1
			c0.5,0.2,12.3,4.1,13.6,13c0.6,1.1,4.1,7.3,8.9,13.5c6.7,8.7,12.7,13.2,17.3,13.1L753.7,741.7z"/>
	</g>
	<g id="Siraj_x5F_tap">
		<path fill="#fff" fill-opacity="0" d="M403.8,615.5c8.3,1.9,17.7,3.4,19.5,2.8l0.1-0.3l0.5-0.2c0.1,0,2.6-1,3.4-6.2l6-45c0-0.2,0-1-0.3-1.3
			c-0.1-0.1-0.2-0.3-0.6-0.3l-21.5-2.7L403.8,615.5z"/>
	</g>
	<g id="Almeria_South_x5F_tap">
		<polygon fill="#fff" fill-opacity="0" points="380.4,612.1 400.7,615.1 407.9,559.1 378.3,522.9 336.8,553.2 338.5,560.8 		"/>
	</g>
	<g id="Almeria_North_x5F_tap">
		<polygon fill="#fff" fill-opacity="0" points="412.6,556.6 433.5,558.2 442.1,505.3 425.9,486.6 383.1,517 		"/>
	</g>
	<g id="Neem_x5F_tap">
		<polygon fill="#fff" fill-opacity="0" points="564.6,522.7 618.3,530.5 639.2,516.3 652.1,446.4 657.7,440.5 649.1,430.9 569.7,490.8 		"/>
	</g>
	<g id="Marsa_1_x5F_tap">
		<polygon fill="#fff" fill-opacity="0" points="509.9,516.6 559.5,520.4 561.3,488.1 530,448.4 523.2,453.2 517.2,445.2 488.4,468.7 505.7,496.1 505.7,496.3
			"/>
	</g>
	<g id="Marsa_2_x5F_tap">
		<polygon fill="#fff" fill-opacity="0" points="532.5,439.4 568.9,488.8 647.9,429.3 629.1,400.9 604.6,418.7 585.6,396.9 		"/>
	</g>
	<g id="Marsa_3_x5F_tap">
		<polygon fill="#fff" fill-opacity="0" points="635.8,402.4 663,435.2 720,391.7 695.1,357.9 675.4,372 684.8,384.7 667.5,396.9 658.9,385.9 		"/>
	</g>
	<g id="The_Gardens_x5F_tap">
		<polygon fill="#fff" fill-opacity="0" points="697.6,479.6 747.8,490.9 763.9,420.1 738.2,412.7 721.3,393.2 664.2,436.7 		"/>
	</g>
	<g id="Liwan_x5F_tap">
		<path fill="#fff" fill-opacity="0" d="M760.5,493l17.6,4.4l48.1-29.3c0.4-0.5,2.7-3.5-0.2-7.7l-19.9-32l-29.3-6L760.5,493z"/>
	</g>
	<g id="Acacia_x5F_tap">
		<path fill="#fff" fill-opacity="0" d="M634,527.9c6.9,17.1,13.3,23.9,17.6,26.6c4,2.5,6.6,1.9,7.1,1.8c39.1-24.1,75.1-27.1,80.7-27.4l8.2-30.3l-53.5-14.1
			l-28.7-34.2c-0.7-1.4-1.6-2.2-2.7-2.4c-1.6-0.3-3.2,0.6-3.9,1.1l-13.7,70.9L634,527.9z"/>
	</g>
	<g id="Marsa_Gardens_x5F_tap">
		<path fill="#fff" fill-opacity="0" d="M739.2,410.8H768c11.9-11,11.6-40.2,11.6-40.5l0-0.1l0-0.1c3.8-25.9-20-45.8-23.9-48.9l-58.9,35.6L739.2,410.8z"/>
	</g>
	<g id="Juman_1_x5F_tap">
		<polygon fill="#fff" fill-opacity="0" points="675.3,290 711.7,343.9 748.1,322.1 709.7,267.9 		"/>
	</g>
	<g id="Juman_2_x5F_tap">
		<path fill="#fff" fill-opacity="0" d="M677.7,214.9l-37.8,23.6c0,0,14.2,24.9,15.7,28.4s14.2,22.6,14.2,22.6l42.4-27.2L677.7,214.9z"/>
	</g>
	<g id="Almeria_East_x5F_tap">
		<polygon fill="#fff" fill-opacity="0" points="442.1,560.3 483.3,564.1 520.6,540.5 520.6,523.1 444.1,510.7 		"/>
	</g>
	<g id="Luban_x5F_tap">
		<path fill="#fff" fill-opacity="0" d="M527.6,539.7l42.9,61.6l16.9-6.3h9l41.8-24.2l0.2,0c1.7-0.3,3.7-6.1,4.6-11.4l-14.3-26.6l-12.9,5.5l-0.3,0L528,523.5
			L527.6,539.7z"/>
	</g>
	<g id="Reehan_Gardens_x5F_tap">
		<polygon fill="#fff" fill-opacity="0" points="1139.8,907.8 1139.8,950.7 1369,947.3 1375.9,847.8 1262.6,812.7 1167.4,800.9 1157,835 		"/>
	</g>
	<g id="Reehan_Residence_x5F_tap">
		<polygon fill="#fff" fill-opacity="0" points="1377.9,848.3 1371,947.3 1577.2,940.1 1588.8,838.8 1530.4,823 1491.4,823 1430.1,836.8 1383.1,849.2 		"/>
	</g>
	<g id="Ghadeer_Parks_x5F_tap">
		<path fill="#fff" fill-opacity="0" d="M353.6,832.6c-17.5,0-39.1-4.4-40.4-4.7l-62.9-8.1c-17.9-1.8-45.9-36.8-47.1-38.3l-0.8-1l13.8-6.5l41.5-34.3l-40.9-50.8
			l-5.2-21.1l49.6-38.4l36,37.8l25.4-17.8l26.6,31.3l33.2,5.1L376,823.9c-0.3,2-1.3,3.7-3.1,5C369,831.7,361.7,832.6,353.6,832.6z"
			/>
	</g>
	<g id="Beach_Link_x5F_tap">
		<path fill="#fff" fill-opacity="0" d="M1383,849.2l-0.3-0.1l-120.2-36.4l-59.8-7.5l2.7-23.5l60.8,4.9c2.2,0.3,53.1,7.7,62,12.4c18.2,7.9,38.4,15.5,40.9,14.4
			l0.3-0.4l0.5,0c0.4,0,39.6,3.1,61.5-2.3c1.6-0.5,39.4-11.6,52.8-8.8l53.6-1.1l55.7,12.4l-2.7,26l-58.9-16.6l-35.4-1.5L1383,849.2z
			"/>
	</g>
	<g id="Zunairah_x5F_tap">
		<polygon fill="#fff" fill-opacity="0" points="1207.5,780.2 1289.9,790.3 1368.2,813.4 1541,801.6 1541.1,801.6 1593.5,811.1 1599.7,727.4 1537.4,722.8
			1387.9,711.1 1194.6,686.7 1192.9,723.5 1192.9,723.7 1169.7,778.6 1169.7,797.2 1205.1,801.8 		"/>
	</g>
</g>
</svg>
