<?xml version="1.0" encoding="utf-8"?>
<!-- Generator: Adobe Illustrator 19.1.0, SVG Export Plug-In . SVG Version: 6.00 Build 0)  -->
<svg version="1.1" id="app_x5F_Lebanon-region--parent"
	 xmlns="http://www.w3.org/2000/svg" xmlns:xlink="http://www.w3.org/1999/xlink" x="0px" y="0px" width="3840px" height="2160px"
	 viewBox="0 0 3840 2160" style="enable-background:new 0 0 3840 2160;" xml:space="preserve">
<g id="app_x5_Dummy--marker">
	<rect x="1920" y="-1080" width="2" height="2"/>
</g>
<g id="app_x5F_region--data" style="display:none;">
	<polygon style="display:inline;fill:#E0DAD5;stroke:#FFFFFF;stroke-width:4;stroke-miterlimit:10;" points="4162.4,-1730.4 
		4071.4,-1671 4064.4,-1664 4060.8,-1660.6 4050.4,-1643 4043.4,-1625.6 4043.4,-1618.6 4043.4,-1597.6 4043.4,-1587 
		4043.4,-1559.2 4095.8,-1510.2 4130.8,-1475.2 4144.8,-1461.2 4155.4,-1447.2 4162.4,-1436.6 4165.8,-1415.6 4155.4,-1415.6 
		4137.8,-1426.2 4127.4,-1433.2 4099.4,-1433.2 4088.8,-1426.2 4071.4,-1426.2 4064.4,-1422.6 4060.8,-1422.6 4057.4,-1415.6 
		4050.4,-1405.2 4039.8,-1398.2 4029.4,-1405.2 4015.4,-1415.6 4005,-1422.6 3987.4,-1422.6 3973.4,-1426.2 3938.4,-1426.2 
		3928,-1422.6 3917.4,-1415.6 3907,-1398.2 3907,-1387.8 3900,-1370.2 3900,-1356.2 3907,-1342.2 3889.4,-1314.2 3840.6,-1289.8 
		3753,-1247.8 3725,-1237.4 3697.2,-1237.4 3662.2,-1226.8 3623.6,-1233.8 3613.2,-1233.8 3602.6,-1226.8 3595.6,-1226.8 
		3574.6,-1216.4 3553.6,-1198.8 3452.2,-1205.8 3434.8,-1205.8 3399.8,-1198.8 3385.8,-1195.4 3382.4,-1188.4 3364.8,-1188.4 
		3354.4,-1188.4 3329.8,-1195.4 3319.4,-1198.8 3225,-1233.8 3214.4,-1237.4 3176,-1265.2 3130.4,-1349.2 3116.4,-1384.2 
		3081.4,-1475.2 3078,-1485.6 3078,-1503.2 3078,-1513.6 3088.4,-1513.6 3092,-1503.2 3099,-1499.6 3109.4,-1492.6 3120,-1482.2 
		3127,-1475.2 3137.4,-1471.6 3155,-1471.6 3172.4,-1475.2 3176,-1482.2 3186.4,-1492.6 3211,-1513.6 3211,-1520.6 3221.4,-1541.6 
		3221.4,-1548.6 3235.4,-1569.6 3249.4,-1566 3280.8,-1576.6 3298.4,-1580 3343.8,-1576.6 3371.8,-1566 3392.8,-1552.2 
		3403.2,-1548.6 3410.2,-1548.6 3424.2,-1552.2 3434.8,-1559.2 3441.8,-1566 3445.2,-1569.6 3452.2,-1580 3452.2,-1587 
		3459.2,-1636 3462.8,-1681.6 3497.8,-1709.6 3658.6,-1685 3707.6,-1681.6 3718,-1681.6 3728.6,-1681.6 3753,-1681.6 3781,-1681.6 
		3872,-1695.6 3882.4,-1695.6 3921,-1720 3945.4,-1730.4 3956,-1734 3977,-1730.4 4005,-1734 4012,-1734 4071.4,-1758.4 
		4253.2,-1853 4267.2,-1856.4 4281.2,-1870.4 4281.2,-1874 4288.2,-1881 4291.8,-1884.4 4309.2,-1891.4 4403.6,-1933.4 
		4424.6,-1940.4 4414.2,-1908.8 4316.2,-1828.4 4253.2,-1786.4 4242.8,-1779.4 4221.8,-1769 	"/>
	<polygon style="display:inline;fill:#E0DAD5;stroke:#FFFFFF;stroke-width:4;stroke-miterlimit:10;" points="5166.2,-205.4 
		5194.2,-181 5201.2,-181 5215.2,-188 5222.2,-188 5225.6,-181 5222.2,-160 5222.2,-156.4 5215.2,-100.6 5215.2,-72.6 5215.2,-44.6 
		5215.2,-6 5215.2,39.4 5211.6,60.4 5204.6,67.4 5211.6,70.8 5225.6,95.4 5225.6,126.8 5243.2,137.4 5243.2,165.4 5239.6,189.8 
		5239.6,203.8 5239.6,214.2 5225.6,214.2 5222.2,221.2 5194.2,249.2 5194.2,420.6 5201.2,424.2 5155.8,413.6 5117.2,357.8 
		5106.8,347.2 5068.2,336.8 5050.8,336.8 5033.2,336.8 5015.8,336.8 4984.4,319.2 4966.8,333.2 4907.4,371.6 4900.4,389.2 
		4896.8,403.2 4889.8,424.2 4889.8,438.2 4896.8,448.6 4889.8,536 4861.8,602.6 4868.8,613 4886.4,669 4889.8,690 4886.4,718 
		4879.4,735.4 4872.4,812.4 4872.4,833.4 4879.4,833.4 4900.4,840.4 4917.8,840.4 4963.4,830 4991.4,847.4 5033.2,875.4 
		5029.8,889.4 4994.8,896.4 4963.4,917.4 4907.4,962.8 4896.8,973.4 4886.4,994.4 4879.4,1004.8 4872.4,1029.2 4879.4,1067.8 
		4872.4,1081.8 4861.8,1109.8 4851.4,1134.2 4851.4,1155.2 4861.8,1172.8 4886.4,1176.2 5001.8,1165.8 5050.8,1162.2 5061.2,1155.2 
		5071.8,1137.8 5145.2,1081.8 5155.8,1071.2 5183.6,1071.2 5201.2,1071.2 5204.6,1106.2 5204.6,1134.2 5204.6,1137.8 5194.2,1176.2 
		5180.2,1267.2 5190.6,1281.2 5211.6,1316.2 5211.6,1344 5211.6,1361.6 5183.6,1466.6 5166.2,1480.6 5162.6,1487.6 5148.8,1508.4 
		5127.8,1582 5127.8,1603 5110.2,1659 5089.2,1704.4 5085.8,1718.4 5061.2,1830.2 5061.2,1847.8 5071.8,1917.8 5085.8,2040.2 
		5078.8,2061.2 5071.8,2078.6 5057.8,2096.2 5050.8,2113.6 5033.2,2176.6 5033.2,2208 5033.2,2229 5040.2,2246.6 5008.8,2404 
		4991.4,2449.4 4994.8,2456.4 4994.8,2470.4 4991.4,2470.4 4984.4,2470.4 4973.8,2487.8 4952.8,2515.8 4935.4,2480.8 4924.8,2432 
		4928.4,2411 4924.8,2400.4 4907.4,2334 4834,2155.6 4813,2085.6 4736,1886.2 4690.4,1858.2 4687,1833.8 4697.4,1798.8 4641.6,1652 
		4582,1533 4498.2,1309.2 4480.6,1270.6 4519,1242.6 4540,1211.2 4536.6,1172.8 4547,1144.8 4596,1088.8 4620.6,1071.2 4631,1060.8 
		4641.6,1039.8 4596,1001.4 4603,994.4 4610,976.8 4631,938.4 4648.6,906.8 4690.4,802 4715,746 4725.4,707.4 4725.4,700.4 
		4746.4,620 4753.4,581.6 4757,574.6 4767.4,504.6 4785,420.6 4785,410.2 4795.4,343.8 4809.4,200.4 4813,158.4 4813,119.8 
		4834,109.4 4851.4,126.8 4861.8,119.8 4879.4,98.8 4886.4,84.8 4886.4,70.8 4879.4,22 4879.4,1 4886.4,-20 4889.8,-62 4886.4,-76 
		4889.8,-76 4984.4,-76 5015.8,-72.6 5040.2,-55 5057.8,-51.6 5085.8,-55 5127.8,-76 5127.8,-86.6 5138.2,-100.6 5145.2,-149.4 	"/>
	<polygon style="display:inline;fill:#E0DAD5;stroke:#FFFFFF;stroke-width:4;stroke-miterlimit:10;" points="7268.4,364.8 
		7313.8,494.2 7439.8,452.2 7471.2,543 7418.8,595.6 7345.4,669 7313.8,707.4 7002.6,795 6708.8,885.8 6691.2,889.4 6544.4,938.4 
		6408,976.8 6243.6,1029.2 6128.2,1067.8 6324,1270.6 6450,1410.6 6495.4,1466.6 6785.6,1784.8 6593.4,1907.2 6509.4,2145 
		6456.8,2155.6 6233,2208 6058.2,2246.6 5925.2,2505.4 5799.4,2627.8 5680.4,2732.8 5348,2669.8 5134.8,2631.2 4994.8,2610.4 
		4991.4,2592.8 4994.8,2543.8 5001.8,2519.4 5012.2,2487.8 4994.8,2470.4 4994.8,2456.4 4991.4,2449.4 5008.8,2404 5040.2,2246.6 
		5033.2,2229 5033.2,2208 5033.2,2176.6 5050.8,2113.6 5057.8,2096.2 5071.8,2078.6 5078.8,2061.2 5085.8,2040.2 5071.8,1917.8 
		5061.2,1847.8 5061.2,1830.2 5085.8,1718.4 5089.2,1704.4 5110.2,1659 5127.8,1603 5127.8,1582 5148.8,1508.4 5162.6,1487.6 
		5166.2,1480.6 5183.6,1466.6 5211.6,1361.6 5211.6,1344 5211.6,1316.2 5190.6,1281.2 5180.2,1267.2 5194.2,1176.2 5204.6,1137.8 
		5204.6,1134.2 5204.6,1106.2 5201.2,1071.2 5201.2,1050.2 5201.2,1022.2 5204.6,994.4 5204.6,966.4 5222.2,917.4 5225.6,899.8 
		5232.6,878.8 5225.6,833.4 5211.6,763.4 5204.6,714.4 5194.2,679.6 5211.6,564 5215.2,553.6 5204.6,438.2 5201.2,424.2 
		5194.2,420.6 5194.2,249.2 5222.2,221.2 5225.6,214.2 5239.6,214.2 5260.6,200.4 5306.2,172.4 5323.6,175.8 5411,193.4 5453,231.8 
		5470.6,270.2 5509,319.2 5537,333.2 5558,336.8 5582.4,326.2 5652.4,382.2 5676.8,399.6 5715.4,438.2 5764.4,441.6 5781.8,448.6 
		5858.8,459.2 5907.8,469.6 5981.2,487.2 5995.2,462.6 6163,354.2 6355.4,214.2 6429,165.4 6621.2,39.4 6827.6,-100.6 6946.6,-181 
		7041,-244 7097,-275.4 7327.8,347.2 	"/>
	<polygon style="display:inline;fill:#E0DAD5;stroke:#FFFFFF;stroke-width:4;stroke-miterlimit:10;" points="5316.6,-1195.4 
		5355,-1181.4 5386.6,-1181.4 5404,-1181.4 5404,-1188.4 5516,-1188.4 5558,-1181.4 5610.4,-1177.8 5610.4,-1156.8 5575.4,-1121.8 
		5558,-1111.4 5554.4,-1083.4 5600,-1090.4 5614,-1080 5662.8,-1041.4 5680.4,-971.4 5715.4,-891 5736.4,-873.6 5676.8,-800 
		5610.4,-751.2 5586,-723.2 5572,-705.6 5547.4,-663.6 5582.4,-642.6 5600,-642.6 5614,-618.2 5610.4,-600.6 5600,-600.6 
		5526.4,-625.2 5428.6,-600.6 5400.6,-558.8 5372.6,-523.8 5358.6,-471.2 5376,-471.2 5411,-453.8 5432,-432.8 5421.6,-404.8 
		5365.6,-341.8 5337.6,-313.8 5323.6,-310.4 5306.2,-299.8 5299.2,-275.4 5288.6,-258 5285.2,-258 5278.2,-254.4 5194.2,-205.4 
		5194.2,-181 5166.2,-205.4 5145.2,-149.4 5138.2,-100.6 5127.8,-86.6 5127.8,-76 5085.8,-55 5057.8,-51.6 5040.2,-55 5015.8,-72.6 
		4984.4,-76 4889.8,-76 4886.4,-76 4907.4,-100.6 4935.4,-139 4938.8,-167 4945.8,-188 4945.8,-226.4 4966.8,-313.8 4966.8,-331.4 
		4984.4,-348.8 5001.8,-366.4 5015.8,-387.4 5029.8,-432.8 5033.2,-464.2 5040.2,-502.8 5057.8,-541.2 5068.2,-569.2 5071.8,-586.8 
		5071.8,-600.6 5071.8,-625.2 5071.8,-628.6 5068.2,-656.6 5096.2,-656.6 5106.8,-656.6 5124.2,-663.6 5155.8,-737.2 5155.8,-800 
		5145.2,-828 5138.2,-873.6 5148.8,-884 5145.2,-929.4 5155.8,-950.4 5239.6,-1034.4 5285.2,-1066 5334,-1104.4 5334,-1128.8 
		5327,-1167.4 	"/>
	<polygon style="display:inline;fill:#E0DAD5;stroke:#FFFFFF;stroke-width:4;stroke-miterlimit:10;" points="8943.8,-2958.2 
		8961.4,-2930.2 8954.4,-2923.2 8954.4,-2919.8 8674.6,-2594.4 8426.2,-2538.4 8408.6,-2500 8366.8,-2416 8373.8,-2199.2 
		8384.2,-2185.2 8450.6,-2073.2 8464.6,-2045.4 8485.6,-1894.8 8450.6,-1839 8429.6,-1800.4 8429.6,-1779.4 8429.6,-1762 
		8433.2,-1730.4 8429.6,-1709.6 8429.6,-1692 8426.2,-1664 8419.2,-1625.6 8412.2,-1604.6 8412.2,-1587 8412.2,-1580 
		8426.2,-1524.2 8426.2,-1492.6 8440.2,-1387.8 8457.6,-1289.8 8391.2,-1160.4 8363.2,-1066 8352.8,-1027.4 8160.4,-912 
		7894.6,-758.2 7877,-747.6 7782.6,-691.6 7667.2,-618.2 7537.8,-548.2 7432.8,-481.8 7191.4,-338.4 7100.4,-282.4 7097,-275.4 
		7041,-244 6946.6,-181 6827.6,-100.6 6621.2,39.4 6429,165.4 6355.4,214.2 6163,354.2 5995.2,462.6 5981.2,487.2 5907.8,469.6 
		5858.8,459.2 5781.8,448.6 5764.4,441.6 5715.4,438.2 5676.8,399.6 5652.4,382.2 5582.4,326.2 5558,336.8 5537,333.2 5509,319.2 
		5470.6,270.2 5453,231.8 5411,193.4 5323.6,175.8 5306.2,172.4 5260.6,200.4 5239.6,214.2 5239.6,203.8 5239.6,189.8 5243.2,165.4 
		5243.2,137.4 5225.6,126.8 5225.6,95.4 5211.6,70.8 5204.6,67.4 5211.6,60.4 5215.2,39.4 5215.2,-6 5215.2,-44.6 5215.2,-72.6 
		5215.2,-100.6 5222.2,-156.4 5222.2,-160 5225.6,-181 5222.2,-188 5215.2,-188 5201.2,-181 5194.2,-181 5194.2,-205.4 
		5278.2,-254.4 5285.2,-258 5288.6,-258 5299.2,-275.4 5306.2,-299.8 5323.6,-310.4 5337.6,-313.8 5365.6,-341.8 5421.6,-404.8 
		5432,-432.8 5411,-453.8 5376,-471.2 5358.6,-471.2 5372.6,-523.8 5400.6,-558.8 5428.6,-600.6 5526.4,-625.2 5600,-600.6 
		5610.4,-600.6 5614,-618.2 5600,-642.6 5582.4,-642.6 5547.4,-663.6 5572,-705.6 5586,-723.2 5610.4,-751.2 5676.8,-800 
		5736.4,-873.6 5715.4,-891 5680.4,-971.4 5662.8,-1041.4 5614,-1080 5600,-1090.4 5554.4,-1083.4 5558,-1111.4 5575.4,-1121.8 
		5610.4,-1156.8 5610.4,-1177.8 5558,-1181.4 5516,-1188.4 5404,-1188.4 5404,-1181.4 5386.6,-1181.4 5355,-1181.4 5316.6,-1195.4 
		5299.2,-1226.8 5288.6,-1254.8 5250.2,-1356.2 5243.2,-1384.2 5239.6,-1436.6 5239.6,-1492.6 5239.6,-1520.6 5257.2,-1552.2 
		5271.2,-1587 5267.6,-1608 5260.6,-1618.6 5250.2,-1632.6 5232.6,-1748 5194.2,-1786.4 5145.2,-1800.4 5117.2,-1863.4 
		5138.2,-1901.8 5162.6,-1950.8 5173.2,-1975.4 5183.6,-2062.8 5204.6,-2111.8 5260.6,-2090.8 5323.6,-2062.8 5334,-2055.8 
		5344.6,-2038.4 5348,-2031.4 5358.6,-2034.8 5365.6,-2055.8 5365.6,-2073.2 5365.6,-2094.2 5383,-2132.8 5428.6,-2139.8 
		5470.6,-2160.8 5470.6,-2185.2 5467,-2234.2 5460,-2290.2 5467,-2318.2 5533.4,-2328.6 5547.4,-2332.2 5575.4,-2328.6 
		5600,-2318.2 5638.4,-2328.6 5638.4,-2367.2 5621,-2384.6 5565,-2447.6 5554.4,-2465 5544,-2510.6 5554.4,-2605 5586,-2748.4 
		5582.4,-2758.8 5586,-2758.8 5610.4,-2758.8 5746.8,-2720.4 5781.8,-2702.8 5813.2,-2675 5872.8,-2633 5946.2,-2636.4 
		5956.8,-2636.4 6019.6,-2633 6110.6,-2647 6135,-2661 6191,-2692.4 6212,-2699.4 6229.6,-2699.4 6250.6,-2699.4 6317,-2720.4 
		6334.4,-2730.8 6355.4,-2741.4 6373,-2751.8 6394,-2758.8 6411.4,-2769.4 6432.4,-2786.8 6481.4,-2807.8 6516.4,-2814.8 
		6603.8,-2804.4 6631.8,-2797.4 6680.8,-2776.4 6698.2,-2765.8 6754.2,-2713.4 6792.6,-2682 6820.6,-2664.4 6848.6,-2664.4 
		6936,-2661 6964,-2661 6985,-2671.4 7009.6,-2671.4 7023.6,-2664.4 7041,-2661 7062,-2654 7086.6,-2643.4 7118,-2636.4 
		7135.4,-2643.4 7170.4,-2647 7247.4,-2661 7327.8,-2675 7460.8,-2702.8 7523.8,-2723.8 7534.2,-2730.8 7572.8,-2748.4 
		7688.2,-2804.4 7716.2,-2818.4 7726.6,-2825.4 7800,-2881.2 7817.6,-2891.8 7838.6,-2891.8 7856,-2898.8 7926,-2930.2 
		7943.4,-2940.8 7954,-2947.8 7999.4,-2965.2 8020.4,-2968.8 8076.4,-2968.8 8093.8,-2968.8 8209.4,-2947.8 8268.8,-2930.2 
		8356.2,-2930.2 8408.6,-2937.2 8426.2,-2937.2 8464.6,-2940.8 8632.6,-2968.8 8723.4,-3003.8 8755,-3017.6 8772.4,-3028.2 
		8804,-3063.2 8821.4,-3084.2 8842.4,-3084.2 8894.8,-3073.6 8926.4,-3045.6 8936.8,-2968.8 	"/>
	<path style="display:inline;fill:#E0DAD5;stroke:#FFFFFF;stroke-width:4;stroke-miterlimit:10;" d="M5211.6,564l-17.4,115.4
		l10.4,31.4l7,49l14,73.4l7,45.4l-7,21l-3.4,17.4l-17.4,49v28l-7,28v28v21h-14h-28l-10.4,10.4l-70,56l-10.4,17.4l-10.4,7l-49,7
		l-115.4,10.4l-21-7l-10.4-17.4v-21l10.4-24.4l10.4-28l7-17.4l-7-38.4l7-21l3.4-10.4l10.4-21l10.4-10.4l56-45.4l31.4-21l31.4-7
		l7-17.4l-42-28l-28-17.4l-45.4,10.4h-17.4l-21-7h-7v-21l7-77l3.4-17.4l3.4-28l-3.4-21l-17.4-56l-7-10.4l28-66.4l7-87.4l-7-10.4
		v-10.4l7-21l7-17.4l3.4-17.4l63-38.4l17.4-10.4l31.4,17.4h17.4h17.4h14l38.4,10.4l10.4,10.4l38.4,56l42,10.4l7,10.4l10.4,115.4
		L5211.6,564z M5050.8,847.4h-7v7l7,10.4h7v-14L5050.8,847.4z"/>
</g>
<rect id="app_x5F_Lebanon--zoom" x="2156" y="883.4" style="fill:none;" width="230" height="129.4"/>
<g id="NorthPoint" transform="translate(1831.070256, 181.453972) rotate(56.000000) translate(-1831.070256, -181.453972) translate(1792.570256, 137.953972)">
	<path id="Fill-933_1_" style="fill:#8A1538;" d="M1186.1-1292.5l15.2,19.6l-22.6-7L1186.1-1292.5z M1175.3-1275.1l40.2,10.6l-26-32
		l-40.2-10.6L1175.3-1275.1z M1186.1-1292.5l15.2,19.6l-22.6-7L1186.1-1292.5z M1175.3-1275.1l40.2,10.6l-26-32l-40.2-10.6
		L1175.3-1275.1z M1186.1-1292.5l15.2,19.6l-22.6-7L1186.1-1292.5z M1215.5-1264.5l-26-32l-40.2-10.6l26,32L1215.5-1264.5z
		 M1161.3-1326.3c22-10.8,48.6-2,59.8,20.4c10.8,22,2,48.6-20.4,59.8c-22,10.8-48.6,2-59.8-20.4
		C1130.1-1288.5,1138.9-1314.9,1161.3-1326.3z M1205.3-1237.1c27.4-13.4,37.8-46.8,24.6-73c-13.4-27.2-46-37.4-73.4-24
		s-37.4,46.4-24.6,73.2C1146.1-1234.9,1178.5-1224.3,1205.3-1237.1z M1186.1-1292.5l15.2,19.6l-22.6-7L1186.1-1292.5z
		 M1175.3-1275.1l40.2,10.6l-26-32l-40.2-10.6L1175.3-1275.1z M1186.1-1292.5l15.2,19.6l-22.6-7L1186.1-1292.5z M1175.3-1275.1
		l40.2,10.6l-26-32l-40.2-10.6L1175.3-1275.1z M1186.1-1292.5l15.2,19.6l-22.6-7L1186.1-1292.5z M1175.3-1275.1l40.2,10.6l-26-32
		l-40.2-10.6L1175.3-1275.1z M1186.1-1292.5l15.2,19.6l-22.6-7L1186.1-1292.5z M1175.3-1275.1l40.2,10.6l-26-32l-40.2-10.6
		L1175.3-1275.1z"/>
	<g id="Back-Copy-5_1_" transform="translate(34.000000, 0.000000)">
		
			<text transform="matrix(0.5505 -0.8348 0.8348 0.5505 1090.306 -1312.9095)" style="fill:#8A1538; font-family:'ArialMT'; font-size:27.7598px;">N</text>
	</g>
</g>
<g id="app_x5F_Lebanon--button">
	<polygon id="tap_x5F_area" style="fill:#FFFFFF;fill-opacity:0;" points="1670,1416.8 1670,884.6 2183.2,884.6 2620,1071.8 
		2620,1233.2 2183.2,1425.8 	"/>
	<g id="Beirut-marker">
		<g transform="translate(1032.000000, 577.000000)">
			<polygon id="Fill-124_5_" style="fill:#8A1538;" points="1214.2,554 1214.2,601.4 1230,601.4 1237.8,610 1246,601.4 
				1261.8,601.4 1261.8,554 			"/>
			<g id="Group_5_" transform="translate(5.000000, 5.000000)">
				<path id="Path_11_" style="fill:#FFFFFF;" d="M1231.8,560c-7.6,0-13,5-13,12v13.4h4.4c0,0,0-7.4,0-13.4c0-6.2,4.8-10.8,9.6-11.8
					c0.2,0,0.4,0,0.2,0L1231.8,560L1231.8,560z"/>
				<path id="Path_10_" style="fill:#FFFFFF;" d="M1232.8,560.6c-0.4,0.2-1.2,0.4-1.8,1c-3.4,2-4.8,6-5.2,9.8c0,0.2,0,0.4,0,0.6l0,0
					v0.2v13.4h4.4v-13.4c0-1,0.4-1.6,1-2l1.6,2l1.6-2c0.6,0.4,1,1.2,1,2v13.4h4.4v-13.4c0-4-3.2-7.2-7.2-7.2c-1,0-1.8,0.2-2.6,0.4
					l0,0c1-1.2,2.4-1.6,3.8-1.6l0,0c0.4,0,1,0,1.4,0c4,0.6,7,4,7,7.8c0,0.2,0,0.2,0,0.4v13.2h4.4V572c0-5.8-3.4-10.4-9.2-11.8
					c-0.2,0-0.4-0.2-1-0.2c-0.4,0-1,0-1.4,0C1234.2,560,1233.6,560.2,1232.8,560.6z"/>
			</g>
		</g>
		<path id="Line-4-Copy-3" style="fill:none;stroke:#8A1538;stroke-width:4.419;" d="M2245.4,1159h-146"/>
		<text transform="matrix(1 0 0 1 2323.4082 1168.4004)" style="fill:#8A1538; font-family:'MarselisPro'; font-size:33.9974px;">BEIRUT</text>
	</g>
	<g id="waterfront-logo">
		<path style="fill:#575756;" d="M1994.2,1187.4h-4v-12.9h3.8c3.7,0,6.2,2.7,6.2,6.4C2000.2,1184.8,1997.8,1187.3,1994.2,1187.4
			 M1994,1173.1h-5.1v15.6h5.3c4.4,0,7.4-3.2,7.4-7.8C2001.5,1176.4,1998.3,1173.1,1994,1173.1"/>
		<path style="fill:none;stroke:#575756;stroke-width:0.7224;stroke-miterlimit:10;" d="M1994.2,1187.4h-4v-12.9h3.8
			c3.7,0,6.2,2.7,6.2,6.4C2000.2,1184.8,1997.8,1187.3,1994.2,1187.4 M1994,1173.1h-5.1v15.6h5.3c4.4,0,7.4-3.2,7.4-7.8
			C2001.5,1176.4,1998.3,1173.1,1994,1173.1"/>
		<path style="fill:#575756;" d="M2010.9,1187.4h-4v-6.5h3.6c3,0,4.6,1.1,4.6,3.2C2015,1186.2,2013.7,1187.4,2010.9,1187.4
			 M2006.9,1174.4h3.7c1.6,0,3.5,0.5,3.5,2.6c0,2.2-2.1,2.7-3.9,2.7h-3.3V1174.4z M2013.5,1180.1c1.2-0.6,2-1.8,2-3.2
			c0-2.5-1.7-3.9-4.8-3.9h-5.1v15.6h5.4c3.4,0,5.4-1.7,5.4-4.6C2016.4,1182.3,2015.3,1180.6,2013.5,1180.1"/>
		<path style="fill:none;stroke:#575756;stroke-width:0.7224;stroke-miterlimit:10;" d="M2010.9,1187.4h-4v-6.5h3.6
			c3,0,4.6,1.1,4.6,3.2C2015,1186.2,2013.7,1187.4,2010.9,1187.4 M2006.9,1174.4h3.7c1.6,0,3.5,0.5,3.5,2.6c0,2.2-2.1,2.7-3.9,2.7
			h-3.3V1174.4z M2013.5,1180.1c1.2-0.6,2-1.8,2-3.2c0-2.5-1.7-3.9-4.8-3.9h-5.1v15.6h5.4c3.4,0,5.4-1.7,5.4-4.6
			C2016.4,1182.3,2015.3,1180.6,2013.5,1180.1"/>
		<polygon style="fill:#575756;" points="2043.2,1173.1 2038.6,1180.7 2034.1,1173.1 2032.6,1173.1 2038,1182 2038,1188.7 
			2039.3,1188.7 2039.3,1182.1 2044.6,1173.1 		"/>
		<polygon style="fill:none;stroke:#575756;stroke-width:0.7224;stroke-miterlimit:10;" points="2043.2,1173.1 2038.6,1180.7 
			2034.1,1173.1 2032.6,1173.1 2038,1182 2038,1188.7 2039.3,1188.7 2039.3,1182.1 2044.6,1173.1 		"/>
		<polygon style="fill:#575756;" points="2048.4,1173.1 2048.4,1188.7 2058.2,1188.7 2058.2,1187.4 2049.7,1187.4 2049.7,1180.9 
			2057.6,1180.9 2057.6,1179.6 2049.7,1179.6 2049.7,1174.4 2058.2,1174.4 2058.2,1173.1 		"/>
		<polygon style="fill:none;stroke:#575756;stroke-width:0.7224;stroke-miterlimit:10;" points="2048.4,1173.1 2048.4,1188.7 
			2058.2,1188.7 2058.2,1187.4 2049.7,1187.4 2049.7,1180.9 2057.6,1180.9 2057.6,1179.6 2049.7,1179.6 2049.7,1174.4 
			2058.2,1174.4 2058.2,1173.1 		"/>
		<polygon style="fill:#575756;" points="2073.1,1173.1 2073.1,1179.6 2063.9,1179.6 2063.9,1173.1 2062.5,1173.1 2062.5,1188.7 
			2063.9,1188.7 2063.9,1180.9 2073.1,1180.9 2073.1,1188.7 2074.4,1188.7 2074.4,1173.1 		"/>
		<polygon style="fill:none;stroke:#575756;stroke-width:0.7174;stroke-miterlimit:10;" points="2072.8,1173.1 2072.8,1179.6 
			2063.9,1179.6 2063.9,1173.1 2062.5,1173.1 2062.5,1188.8 2063.9,1188.8 2063.9,1181 2072.8,1181 2072.8,1188.8 2074.1,1188.8 
			2074.1,1173.1 		"/>
		<path style="fill:#575756;" d="M2025.8,1173.1l-6.6,15.6h1.4l2-4.7h7.3l2,4.7h1.4l-6.6-15.6H2025.8z M2026.2,1175.4l3.1,7.2h-6.1
			L2026.2,1175.4z"/>
		<path style="fill:none;stroke:#575756;stroke-width:0.7224;stroke-miterlimit:10;" d="M2025.8,1173.1l-6.6,15.6h1.4l2-4.7h7.3
			l2,4.7h1.4l-6.6-15.6H2025.8z M2026.2,1175.4l3.1,7.2h-6.1L2026.2,1175.4z"/>
		<g>
			<g>
				<g>
					<g>
						<defs>
							<polygon id="SVGID_1_" points="1942.4,1116.8 1918.7,1123 1950.3,1123 1983.5,1098.3 1983.5,1078.8 1888.9,1078.4 							"/>
						</defs>
						<clipPath id="SVGID_2_">
							<use xlink:href="#SVGID_1_"  style="overflow:visible;"/>
						</clipPath>
						<g style="clip-path:url(#SVGID_2_);">
							<path style="fill:none;stroke:#72B63A;stroke-width:0.9599;stroke-linecap:round;" d="M1945.6,1120.5
								c2.4,1.4,6.1-0.4,5.9,1.1c-0.2,1.2-3.9,1.8-3.9,1.8"/>
							<path style="fill:none;stroke:#67B448;stroke-width:0.9599;stroke-linecap:round;" d="M1941.7,1117.7
								c4.9,2.8,12.2-0.7,11.8,2.1c-0.3,2.3-7.9,3.5-7.9,3.5"/>
							<path style="fill:none;stroke:#5FB356;stroke-width:0.9599;stroke-linecap:round;" d="M1937.7,1114.9
								c7.3,4.2,18.3-1,17.7,3.1c-0.5,3.5-11.8,5.2-11.8,5.2"/>
							<path style="fill:none;stroke:#50B061;stroke-width:0.9599;stroke-linecap:round;" d="M1933.8,1112.1
								c9.7,5.6,24.4-1.4,23.6,4.2c-0.7,4.7-15.7,7-15.7,7"/>
							<path style="fill:none;stroke:#44AF6E;stroke-width:0.9599;stroke-linecap:round;" d="M1929.8,1109.3
								c12.1,7,30.5-1.7,29.5,5.2c-0.9,5.8-19.6,8.7-19.6,8.7"/>
							<path style="fill:none;stroke:#2EAD7A;stroke-width:0.9599;stroke-linecap:round;" d="M1925.9,1106.5
								c14.6,8.4,36.7-2,35.4,6.3c-1,7-23.5,10.4-23.5,10.4"/>
							<path style="fill:none;stroke:#15AC85;stroke-width:0.9599;stroke-linecap:round;" d="M1921.9,1103.7
								c17,9.8,42.8-2.4,41.4,7.3c-1.2,8.2-27.4,12.1-27.4,12.1"/>
							<path style="fill:none;stroke:#00AB90;stroke-width:0.9599;stroke-linecap:round;" d="M1918,1100.9
								c19.4,11.2,48.9-2.7,47.3,8.3c-1.4,9.3-31.3,13.9-31.3,13.9"/>
							<path style="fill:none;stroke:#00A99B;stroke-width:0.9599;stroke-linecap:round;" d="M1914,1098.1
								c21.9,12.6,55-3.1,53.2,9.4c-1.6,10.5-35.2,15.7-35.2,15.7"/>
							<path style="fill:none;stroke:#00A8A5;stroke-width:0.9599;stroke-linecap:round;" d="M1910.1,1095.3
								c24.3,14.1,61.1-3.4,59.1,10.4c-1.8,11.6-39.2,17.4-39.2,17.4"/>
							<path style="fill:none;stroke:#00A6AF;stroke-width:0.9599;stroke-linecap:round;" d="M1906.1,1092.5
								c26.7,15.5,67.2-3.7,65,11.4c-1.9,12.8-43.1,19.1-43.1,19.1"/>
							<path style="fill:none;stroke:#00A5B8;stroke-width:0.9599;stroke-linecap:round;" d="M1902.1,1089.7
								c29.1,16.9,73.3-4.1,70.9,12.5c-2.1,14-47,20.8-47,20.8"/>
							<path style="fill:none;stroke:#00A4C1;stroke-width:0.9599;stroke-linecap:round;" d="M1898.1,1086.9
								c31.6,18.3,79.5-4.4,76.8,13.5c-2.2,15.2-50.9,22.6-50.9,22.6"/>
							<path style="fill:none;stroke:#00A2C9;stroke-width:0.9599;stroke-linecap:round;" d="M1894.2,1084.1
								c34,19.7,85.6-4.7,82.7,14.6c-2.4,16.3-54.8,24.3-54.8,24.3"/>
							<path style="fill:none;stroke:#00A1D2;stroke-width:0.9599;stroke-linecap:round;" d="M1890.2,1081.3
								c36.4,21.1,91.7-5.1,88.6,15.6c-2.6,17.5-58.7,26-58.7,26"/>
							<path style="fill:none;stroke:#009FDA;stroke-width:0.9599;stroke-linecap:round;" d="M1886.3,1078.5
								c38.8,22.5,97.8-5.4,94.5,16.7c-2.8,18.7-62.6,27.8-62.6,27.8"/>
							<path style="fill:none;stroke:#009EE2;stroke-width:0.9599;stroke-linecap:round;" d="M1882.3,1075.7
								c41.3,23.9,103.9-5.7,100.4,17.7c-3,19.8-66.5,29.6-66.5,29.6"/>
						</g>
					</g>
				</g>
			</g>
		</g>
		<polygon style="fill:#0E2243;" points="1814.7,1137.1 1808.5,1156.6 1802.4,1137.2 1798,1137.2 1806.6,1162.7 1810.1,1162.7 
			1816.4,1143.9 1822.7,1162.7 1826.2,1162.7 1834.8,1137.2 1830.5,1137.2 1824.5,1156.6 1818.2,1137.1 		"/>
		<path style="fill:#0E2243;" d="M1842,1163c-3.3,0-6.5-1.8-6.5-5.8v-0.2c0-3.8,2.8-6.1,7.5-6.1c1.8-0.1,3.5,0.3,5.2,0.8l0.2,0.1
			v-0.7c0-2.8-1.7-4.3-4.8-4.3c-1.8,0-3.6,0.4-5.3,1.2l-1.1-3.3c2.2-1.1,4.6-1.6,7-1.6c5.3,0,8.1,2.8,8.1,8v11.3h-4v-2.7l-0.3,0.4
			C1846.5,1162,1844.3,1163,1842,1163 M1843.9,1153.5c-2.8,0-4.5,1.2-4.5,3.3v0.1c0,1.8,1.5,3,3.8,3c3,0,5.2-1.8,5.2-4.3v-1.4
			l-0.1-0.1C1846.8,1153.8,1845.4,1153.5,1843.9,1153.5"/>
		<path style="fill:#0E2243;" d="M1863.5,1162.9c-3.5,0-5.3-1.8-5.3-5.5V1147h-2.4v-3.5h2.4v-5.3h4v5.3h5.1v3.5h-5.1v9.7
			c0,1.7,0.8,2.6,2.5,2.6c0.9,0,1.7-0.2,2.5-0.6v3.3C1866.1,1162.6,1864.8,1162.9,1863.5,1162.9"/>
		<path style="fill:#0E2243;" d="M1880,1163c-5.5,0-9.5-4.2-9.5-9.9c0-5.8,3.9-10,9.1-10c6.5,0,8.9,5.6,8.9,10.3c0,0.4,0,0.7,0,1
			l0,0h-13.9v0.2c0.5,3.1,2.6,5.1,5.6,5.1c2,0,3.5-0.7,5.1-2.3l2.3,2.1C1885.6,1161.8,1882.8,1163.1,1880,1163 M1879.5,1146.3
			c-2.6,0-4.6,2.1-5,5.3v0.2h10v-0.2C1884.1,1148.4,1882.2,1146.3,1879.5,1146.3"/>
		<path style="fill:#0E2243;" d="M1892.3,1162.6v-19.1h4v4.2c1-2.8,3.6-4.6,6.5-4.6h0.2v4.4h-0.1c-4.1,0-6.6,2.9-6.6,7.8v7.2
			L1892.3,1162.6z"/>
		<path style="fill:#0E2243;" d="M1909.5,1162.6V1147h-2.4v-3.4h2.4v-1.6c0-4.1,1.9-6.2,5.6-6.2c1.1,0,2.2,0.2,3.3,0.5v3.4
			c-0.8-0.3-1.6-0.4-2.4-0.4c-1.8,0-2.7,1.1-2.7,3.1v1.3h5v3.3h-4.9v15.6H1909.5z"/>
		<path style="fill:#0E2243;" d="M1922.4,1162.6v-19.1h4v4.2c1-2.8,3.6-4.6,6.5-4.6h0.2v4.4h-0.1c-4.1,0-6.6,2.9-6.6,7.8v7.2
			L1922.4,1162.6z"/>
		<path style="fill:#0E2243;" d="M1945.3,1163c-5.5,0-9.9-4.4-9.9-9.9s4.3-10,9.7-10c0,0,0.1,0,0.2,0c5.5,0,9.9,4.4,9.9,9.9
			C1955.2,1158.6,1950.9,1163,1945.3,1163 M1945.3,1146.6c-3.4,0-5.9,2.7-5.9,6.4c0,3.7,2.5,6.5,5.9,6.5s5.9-2.7,5.9-6.4
			C1951.2,1149.4,1948.7,1146.6,1945.3,1146.6"/>
		<path style="fill:#0E2243;" d="M1971.9,1162.6v-10.8c0-3.1-1.5-4.9-4.2-4.9s-4.4,2-4.4,5v10.8h-4v-19.1h4v3.4l0.3-0.5
			c1.5-2.3,3.3-3.4,5.8-3.4c4,0,6.5,2.8,6.5,7.3v12.2H1971.9z"/>
		<path style="fill:#0E2243;" d="M1987.5,1162.9c-3.6,0-5.3-1.8-5.3-5.5V1147h-2.4v-3.5h2.4v-5.3h4v5.3h5.1v3.5h-5.1v9.7
			c0,1.7,0.8,2.6,2.5,2.6c0.9,0,1.7-0.2,2.5-0.6v3.3C1990.1,1162.6,1988.8,1162.9,1987.5,1162.9"/>
		<path style="fill:#0E2243;" d="M2018.7,1163c-7.2,0-12.5-5.6-12.5-13.1s5.5-13.1,12.7-13.1c4.9,0,7.6,1.9,9.6,3.9l-2.6,3.1
			c-2.3-2.2-4.4-3.1-7-3.1c-4.8,0-8.4,4-8.4,9.3c0,5.3,3.6,9.3,8.4,9.3c3.1,0,5-1.3,7.2-3.3l2.6,2.7
			C2025.7,1161.7,2022.7,1163,2018.7,1163"/>
		<path style="fill:#0E2243;" d="M2032.6,1143.5h4v19.1h-4V1143.5z M2032.4,1136.3h4.3v3.9h-4.3V1136.3z"/>
		<path style="fill:#0E2243;" d="M2048.7,1162.9c-3.6,0-5.3-1.8-5.3-5.5V1147h-2.4v-3.5h2.4v-5.3h4v5.3h5.1v3.5h-5.1v9.7
			c0,1.7,0.8,2.6,2.5,2.6c0.9,0,1.7-0.2,2.5-0.6v3.3C2051.3,1162.6,2050.1,1162.9,2048.7,1162.9"/>
		<path style="fill:#0E2243;" d="M2060.9,1168.5c-1.5,0-2.9-0.4-4.2-1.1l1.3-3c0.7,0.4,1.6,0.7,2.4,0.7c1.3,0,2.1-0.7,2.8-2.4v-0.1
			l-7.8-19.2h4.2l5.5,14.7l5-14.7h4.1l-7.4,19.7C2065.5,1167.1,2063.9,1168.5,2060.9,1168.5"/>
	</g>
</g>
<title>Combined Logos</title>
</svg>
