<?xml version="1.0" encoding="utf-8"?>
<!-- Generator: Adobe Illustrator 19.1.0, SVG Export Plug-In . SVG Version: 6.00 Build 0)  -->
<svg version="1.1" id="app_x5F_Lebanon-road--parent"
	 xmlns="http://www.w3.org/2000/svg" xmlns:xlink="http://www.w3.org/1999/xlink" x="0px" y="0px" width="1920px" height="1080px"
	 viewBox="654 -144 1920 1080" style="enable-background:new 654 -144 1920 1080;" xml:space="preserve">
<g>
	<g>

			<text transform="matrix(0.2283 -0.9736 0.9736 0.2283 1490.8992 550.1816)" style="fill:#3C3C3D; font-family:'MarselisPro-Bold'; font-size:9.9145px;">Jounieh – Beirut Highway</text>
	</g>
</g>
<g>
	<g>

			<text transform="matrix(0.2283 -0.9736 0.9736 0.2283 1523.5032 365.0996)" style="fill:#3C3C3D; font-family:'MarselisPro-Bold'; font-size:9.9145px;">Sea Side Road</text>
	</g>
</g>
<g>
	<g>
		<g>
			<text transform="matrix(1 0 0 1 1742.4 94.8578)" style="fill:#8A1538; font-family:'MarselisPro'; font-size:13.8803px;">Embassy of the </text>
			<text transform="matrix(1 0 0 1 1742.4 110.9902)" style="fill:#8A1538; font-family:'MarselisPro'; font-size:13.8803px;">United States of America</text>
		</g>
	</g>
</g>
<g>
	<g>
		<g>
			<text transform="matrix(1 0 0 1 1775.8964 225.4984)" style="fill:#8A1538; font-family:'MarselisPro'; font-size:13.8803px;">Aauokar</text>
		</g>
	</g>
</g>
<g>
	<g>
		<g>
			<text transform="matrix(1 0 0 1 1622.7078 404.7043)" style="fill:#8A1538; font-family:'MarselisPro'; font-size:13.8803px;">ABC Dbayeh</text>
		</g>
	</g>
</g>
<g>
	<g>
		<g>
			<text transform="matrix(1 0 0 1 1598.865 164.05)" style="fill:#8A1538; font-family:'MarselisPro'; font-size:13.8803px;">Origami</text>
		</g>
	</g>
</g>
<g>
	<g>
		<text transform="matrix(1 0 0 1 1622.7075 25.5761)" style="fill:#8A1538; font-family:'MarselisPro'; font-size:13.8803px;">Babel</text>
	</g>
</g>
<g>
	<g>
		<text transform="matrix(1 0 0 1 1534.7965 -71.0061)" style="fill:#8A1538; font-family:'MarselisPro'; font-size:13.8803px;">Le Royal Hotel</text>
	</g>
</g>
<g>
	<g>
		<g>
			<text transform="matrix(1 0 0 1 1695.4778 470.2288)" style="fill:#8A1538; font-family:'MarselisPro'; font-size:13.8803px;">Naqqache</text>
		</g>
	</g>
</g>
<g>
	<g>
		<g>
			<g>
				<g>
					<text transform="matrix(1 0 0 1 1636.7124 309.8022)" style="fill:#8A1538; font-family:'MarselisPro'; font-size:13.8803px;">Dbayeh</text>
				</g>
			</g>
		</g>
	</g>
</g>
<g>
	<g>
		<g>
			<g>
				<g>
					<text transform="matrix(1 0 0 1 1651.6481 365.0997)" style="fill:#8A1538; font-family:'MarselisPro'; font-size:13.8803px;">Le Mall</text>
				</g>
			</g>
		</g>
	</g>
</g>
<g>
	<g>
		<g>
			<g>
				<g>
					<text transform="matrix(1 0 0 1 1726.4254 269.9672)" style="fill:#8A1538; font-family:'MarselisPro'; font-size:13.8803px;">The Village Dbayeh</text>
				</g>
			</g>
		</g>
	</g>
</g>
<g>
	<g>
		<g>
			<text transform="matrix(1 0 0 1 1715.1344 581.7103)" style="fill:#8A1538; font-family:'MarselisPro'; font-size:13.8803px;">Antelias</text>
		</g>
	</g>
</g>
<g>
	<g>
		<g>
			<text transform="matrix(1 0 0 1 1588.8655 752.2493)" style="fill:#8A1538; font-family:'MarselisPro'; font-size:13.8803px;">Jal El Dib</text>
		</g>
	</g>
</g>
<g>
	<g>
		<g>
			<text transform="matrix(1 0 0 1 1513.5032 798.3925)" style="fill:#8A1538; font-family:'MarselisPro'; font-size:13.8803px;">Aboujaoude Hospital</text>
		</g>
	</g>
</g>
<g>
	<g>
		<g>
			<text transform="matrix(1 0 0 1 1522.3452 679.4438)" style="fill:#8A1538; font-family:'MarselisPro'; font-size:13.8803px;">Mhanna – Jal El Dib</text>
		</g>
	</g>
</g>
<g>
	<g>
		<g>
			<text transform="matrix(1 0 0 1 1208.8196 704.4839)" style="fill:#8A1538; font-family:'MarselisPro'; font-size:13.8803px;">AÏSHTI by the sea</text>
		</g>
	</g>
</g>
<g>
	<g>
		<g>
			<text transform="matrix(1 0 0 1 1155.6919 752.2489)" style="fill:#8A1538; font-family:'MarselisPro'; font-size:13.8803px;">Embassy of Canada</text>
		</g>
	</g>
</g>
<g>
	<g>

			<text transform="matrix(0.6578 -0.7532 0.7532 0.6578 1282.4381 842.9055)" style="fill:#3C3C3D; font-family:'MarselisPro-Bold'; font-size:9.9145px;">Coastal Highway</text>
	</g>
</g>
<g>
	<g>
		<g>
			<text transform="matrix(1 0 0 1 1668.3976 518.4136)" style="fill:#8A1538; font-family:'MarselisPro'; font-size:13.8803px;">Link Bowling</text>
		</g>
	</g>
</g>
<g>
	<g>
		<g>
			<text transform="matrix(1 0 0 1 1149.194 850.5004)" style="fill:#8A1538; font-family:'MarselisPro'; font-size:13.8803px;">City Mall</text>
		</g>
	</g>
</g>
<g>
	<g>
		<g>
			<text transform="matrix(1 0 0 1 1412.025 875.214)" style="fill:#8A1538; font-family:'MarselisPro'; font-size:13.8803px;">Zalka</text>
		</g>
	</g>
</g>
<g>
	<g>
		<path id="Rectangle-Copy-2_4_" style="fill:#8A1538;" d="M1462.7,148.6h98.6c2.7,0,5,2.2,5,5v26c0,2.7-2.2,5-5,5h-98.6
			c-2.7,0-5-2.2-5-5v-26C1457.8,150.9,1460,148.6,1462.7,148.6z"/>
	</g>
	<g>
		<path style="fill:#FFFFFF;" d="M1502.6,176.4h-1.3v3.8h1.3c1.1,0,1.9-0.8,1.9-1.9S1503.7,176.4,1502.6,176.4 M1502.7,179.9h-1
			v-3.2h1c0.9,0,1.6,0.6,1.6,1.6C1504.2,179.2,1503.6,179.9,1502.7,179.9"/>
		<path style="fill:#FFFFFF;" d="M1502.6,176.4h-1.3v3.8h1.3c1.1,0,1.9-0.8,1.9-1.9S1503.7,176.4,1502.6,176.4 M1502.7,179.9h-1
			v-3.2h1c0.9,0,1.6,0.6,1.6,1.6C1504.2,179.2,1503.6,179.9,1502.7,179.9"/>
		<path style="fill:#FFFFFF;" d="M1507.6,178c0.3-0.1,0.5-0.4,0.5-0.8c0-0.6-0.4-0.9-1.2-0.9h-1.3v3.8h1.3c0.9,0,1.4-0.4,1.4-1.1
			C1508.3,178.5,1508,178.2,1507.6,178 M1505.9,176.6h0.9c0.4,0,0.9,0.1,0.9,0.6s-0.5,0.7-1,0.7h-0.8L1505.9,176.6L1505.9,176.6z
			 M1506.9,179.9h-1v-1.6h0.9c0.8,0,1.2,0.3,1.2,0.8C1508,179.6,1507.6,179.9,1506.9,179.9"/>
		<path style="fill:#FFFFFF;" d="M1507.6,178c0.3-0.1,0.5-0.4,0.5-0.8c0-0.6-0.4-0.9-1.2-0.9h-1.3v3.8h1.3c0.9,0,1.4-0.4,1.4-1.1
			C1508.3,178.5,1508,178.2,1507.6,178 M1505.9,176.6h0.9c0.4,0,0.9,0.1,0.9,0.6s-0.5,0.7-1,0.7h-0.8L1505.9,176.6L1505.9,176.6z
			 M1506.9,179.9h-1v-1.6h0.9c0.8,0,1.2,0.3,1.2,0.8C1508,179.6,1507.6,179.9,1506.9,179.9"/>
		<polygon style="fill:#FFFFFF;" points="1515.1,176.4 1513.9,178.2 1512.8,176.4 1512.4,176.4 1513.7,178.5 1513.7,180.1
			1514.1,180.1 1514.1,178.5 1515.4,176.4 		"/>
		<polygon style="fill:#FFFFFF;" points="1515.1,176.4 1513.9,178.2 1512.8,176.4 1512.4,176.4 1513.7,178.5 1513.7,180.1
			1514.1,180.1 1514.1,178.5 1515.4,176.4 		"/>
		<polygon style="fill:#FFFFFF;" points="1516.4,176.4 1516.4,180.1 1518.8,180.1 1518.8,179.9 1516.7,179.9 1516.7,178.2
			1518.7,178.2 1518.7,178 1516.7,178 1516.7,176.6 1518.8,176.6 1518.8,176.4 		"/>
		<polygon style="fill:#FFFFFF;" points="1516.4,176.4 1516.4,180.1 1518.8,180.1 1518.8,179.9 1516.7,179.9 1516.7,178.2
			1518.7,178.2 1518.7,178 1516.7,178 1516.7,176.6 1518.8,176.6 1518.8,176.4 		"/>
		<polygon style="fill:#FFFFFF;" points="1522.6,176.4 1522.6,178 1520.3,178 1520.3,176.4 1519.9,176.4 1519.9,180.1 1520.3,180.1
			1520.3,178.2 1522.6,178.2 1522.6,180.1 1522.9,180.1 1522.9,176.4 		"/>
		<polygon style="fill:#FFFFFF;" points="1522.6,176.4 1522.6,178 1520.3,178 1520.3,176.4 1519.9,176.4 1519.9,180.1 1520.3,180.1
			1520.3,178.2 1522.6,178.2 1522.6,180.1 1522.9,180.1 1522.9,176.4 		"/>
		<path style="fill:#FFFFFF;" d="M1510.8,177l0.8,1.8h-1.5L1510.8,177L1510.8,177z M1510.7,176.4l-1.7,3.8h0.4l0.5-1.2h1.8l0.5,1.2
			h0.4l-1.7-3.8H1510.7L1510.7,176.4z"/>
		<path style="fill:#FFFFFF;" d="M1510.8,177l0.8,1.8h-1.5L1510.8,177L1510.8,177z M1510.7,176.4l-1.7,3.8h0.4l0.5-1.2h1.8l0.5,1.2
			h0.4l-1.7-3.8H1510.7L1510.7,176.4z"/>
		<g>
			<g>
				<g>
					<g>
						<g>
							<g>
								<g>
									<defs>
										<polygon id="SVGID_7_" points="1500.2,153.1 1513.6,162.5 1507.7,164 1515.6,164 1524,158 1524,153.2 										"/>
									</defs>
									<clipPath id="SVGID_4_">
										<use xlink:href="#SVGID_7_"  style="overflow:visible;"/>
									</clipPath>
									<path style="clip-path:url(#SVGID_4_);fill:none;stroke:#FFFFFF;stroke-width:0.1339;stroke-linecap:round;" d="
										M1514.5,163.5c0.6,0.3,1.5-0.1,1.5,0.3c0,0.3-1,0.4-1,0.4 M1513.5,162.8c1.2,0.7,3.1-0.2,3,0.5c-0.1,0.6-2,0.9-2,0.9
										 M1512.5,162c1.8,1,4.6-0.2,4.5,0.8c-0.1,0.9-3,1.3-3,1.3 M1511.5,161.5c2.4,1.4,6.2-0.3,6,1c-0.2,1.1-3.9,1.7-3.9,1.7
										 M1510.5,160.8c3.1,1.7,7.7-0.4,7.4,1.3c-0.2,1.4-4.9,2.1-4.9,2.1 M1509.5,160c3.7,2.1,9.2-0.5,8.9,1.5
										c-0.3,1.7-5.9,2.6-5.9,2.6 M1508.5,159.4c4.3,2.4,10.8-0.6,10.4,1.8c-0.3,2-6.9,3-6.9,3 M1507.5,158.6
										c4.9,2.8,12.3-0.7,11.9,2c-0.4,2.3-7.9,3.4-7.9,3.4 M1506.5,158c5.5,3.1,13.9-0.7,13.4,2.3c-0.4,2.6-8.9,3.8-8.9,3.8
										 M1505.5,157.2c6.1,3.4,15.4-0.8,14.9,2.5c-0.4,2.9-9.9,4.3-9.9,4.3 M1504.5,156.6c6.7,3.8,17-0.9,16.4,2.8
										c-0.5,3.1-10.9,4.7-10.9,4.7 M1503.5,156c7.3,4.1,18.5-1,17.9,3.1c-0.5,3.4-11.8,5.1-11.8,5.1 M1502.5,155.2
										c8,4.5,20-1.1,19.4,3.3c-0.6,3.7-12.8,5.5-12.8,5.5 M1501.5,154.5c8.6,4.8,21.6-1.2,20.8,3.6c-0.6,4-13.8,6-13.8,6
										 M1500.5,153.9c9.2,5.2,23.1-1.2,22.3,3.8c-0.7,4.3-14.8,6.4-14.8,6.4 M1499.5,153.1c9.8,5.5,24.7-1.3,23.8,4.1
										c-0.7,4.6-15.8,6.8-15.8,6.8 M1498.5,152.5c10.4,5.9,26.2-1.4,25.3,4.3c-0.7,4.9-16.8,7.2-16.8,7.2"/>
								</g>
							</g>
						</g>
					</g>
				</g>
			</g>
		</g>
		<polygon style="fill:#FFFFFF;" points="1481.5,167.5 1479.9,172.4 1478.4,167.5 1477.2,167.5 1479.4,173.9 1480.3,173.9
			1481.9,169.2 1483.5,173.9 1484.4,173.9 1486.5,167.5 1485.5,167.5 1483.9,172.4 1482.3,167.5 		"/>
		<path style="fill:#FFFFFF;" d="M1488.8,171.5c-0.7,0-1.1,0.3-1.1,0.8l0,0c0,0.4,0.4,0.7,1,0.7c0.8,0,1.3-0.4,1.3-1v-0.3l0,0
			C1489.6,171.6,1489.2,171.5,1488.8,171.5 M1488.3,173.9c-0.8,0-1.7-0.4-1.7-1.4l0,0c0-0.9,0.7-1.5,1.9-1.5c0.6,0,0.9,0.1,1.3,0.2
			h0.1V171c0-0.7-0.4-1.1-1.2-1.1c-0.5,0-0.9,0.1-1.3,0.3l-0.3-0.8c0.5-0.2,1-0.4,1.8-0.4c1.3,0,2,0.7,2,2v2.8h-1V173l-0.1,0.1
			C1489.5,173.6,1489,173.9,1488.3,173.9"/>
		<path style="fill:#FFFFFF;" d="M1493.8,173.9c-0.9,0-1.3-0.4-1.3-1.4V170h-0.6v-0.9h0.6v-1.3h1v1.3h1.3v0.9h-1.3v2.4
			c0,0.4,0.2,0.6,0.6,0.6c0.2,0,0.4,0,0.6-0.1v0.8C1494.4,173.8,1494.1,173.9,1493.8,173.9"/>
		<path style="fill:#FFFFFF;" d="M1497.8,169.9c-0.7,0-1.2,0.5-1.3,1.3l0,0h2.5l0,0C1498.9,170.4,1498.5,169.9,1497.8,169.9
			 M1497.9,173.9c-1.4,0-2.4-1-2.4-2.4s1-2.4,2.3-2.4c1.7,0,2.2,1.4,2.2,2.5c0,0.1,0,0.2,0,0.2l0,0h-3.5l0,0
			c0.1,0.8,0.7,1.2,1.4,1.2c0.5,0,0.9-0.2,1.3-0.6l0.6,0.5C1499.3,173.6,1498.7,173.9,1497.9,173.9"/>
		<path style="fill:#FFFFFF;" d="M1501,173.8V169h1v1c0.2-0.5,0.7-1.1,1.6-1.1l0,0v1.1l0,0c-1,0-1.7,0.7-1.7,1.9v1.8L1501,173.8
			L1501,173.8z"/>
		<path style="fill:#FFFFFF;" d="M1505.3,173.8V170h-0.6v-0.8h0.6v-0.4c0-1,0.5-1.5,1.4-1.5c0.4,0,0.6,0.1,0.8,0.1v0.8
			c-0.2-0.1-0.4-0.1-0.6-0.1c-0.4,0-0.7,0.3-0.7,0.8v0.3h1.3v0.8h-1.2v3.8L1505.3,173.8L1505.3,173.8z"/>
		<path style="fill:#FFFFFF;" d="M1508.6,173.8V169h1v1c0.2-0.5,0.7-1.1,1.6-1.1l0,0v1.1l0,0c-1,0-1.7,0.7-1.7,1.9v1.8L1508.6,173.8
			L1508.6,173.8z"/>
		<path style="fill:#FFFFFF;" d="M1514.4,169.9c-0.9,0-1.5,0.7-1.5,1.6s0.6,1.6,1.5,1.6s1.5-0.7,1.5-1.6S1515.2,169.9,1514.4,169.9
			 M1514.4,173.9c-1.4,0-2.5-1.1-2.5-2.4c0-1.4,1.1-2.5,2.5-2.5s2.5,1.1,2.5,2.4C1516.9,172.9,1515.8,173.9,1514.4,173.9"/>
		<path style="fill:#FFFFFF;" d="M1521.1,173.8V171c0-0.8-0.4-1.2-1.1-1.2s-1.1,0.5-1.1,1.2v2.6h-1v-4.7h1v0.8l0.1-0.1
			c0.4-0.6,0.8-0.8,1.5-0.8c1,0,1.7,0.7,1.7,1.8v3h-1.1L1521.1,173.8L1521.1,173.8z"/>
		<path style="fill:#FFFFFF;" d="M1525,173.9c-0.9,0-1.3-0.4-1.3-1.4V170h-0.6v-0.9h0.6v-1.3h1v1.3h1.3v0.9h-1.3v2.4
			c0,0.4,0.2,0.6,0.6,0.6c0.2,0,0.4,0,0.6-0.1v0.8C1525.7,173.8,1525.4,173.9,1525,173.9"/>
		<path style="fill:#FFFFFF;" d="M1532.9,173.9c-1.8,0-3.2-1.4-3.2-3.2c0-1.8,1.4-3.2,3.2-3.2c1.2,0,1.9,0.5,2.4,0.9l-0.7,0.8
			c-0.6-0.5-1.1-0.8-1.8-0.8c-1.2,0-2.1,1-2.1,2.3s0.9,2.3,2.1,2.3c0.8,0,1.3-0.3,1.8-0.8l0.7,0.7
			C1534.6,173.5,1533.9,173.9,1532.9,173.9"/>
		<path style="fill:#FFFFFF;" d="M1536.4,167.4h1.1v1h-1.1V167.4L1536.4,167.4z M1536.4,169.1h1v4.7h-1V169.1L1536.4,169.1z"/>
		<path style="fill:#FFFFFF;" d="M1540.5,173.9c-0.9,0-1.3-0.4-1.3-1.4V170h-0.6v-0.9h0.6v-1.3h1v1.3h1.3v0.9h-1.3v2.4
			c0,0.4,0.2,0.6,0.6,0.6c0.2,0,0.4,0,0.6-0.1v0.8C1541.1,173.8,1540.8,173.9,1540.5,173.9"/>
		<path style="fill:#FFFFFF;" d="M1543.5,175.2c-0.4,0-0.7-0.1-1.1-0.3l0.3-0.7c0.2,0.1,0.4,0.2,0.6,0.2c0.3,0,0.5-0.2,0.7-0.6l0,0
			l-2-4.7h1.1l1.4,3.6l1.3-3.6h1l-1.9,4.8C1544.7,174.9,1544.3,175.2,1543.5,175.2"/>
	</g>
</g>
<g>
	<g>

			<line style="fill:none;stroke:#8A1538;stroke-width:1.2756;stroke-miterlimit:10;" x1="1512.4" y1="184.1" x2="1512.4" y2="250.9"/>
		<g>
			<path style="fill:#8A1538;" d="M1507.7,250.5c0,2.6,2.2,4.7,4.7,4.7s4.7-2.2,4.7-4.7s-2.2-4.7-4.7-4.7
				C1509.8,245.8,1507.7,247.9,1507.7,250.5z"/>
		</g>
	</g>
</g>
<g>
	<g>
		<line style="fill:none;stroke:#8A1538;stroke-width:1.2756;stroke-miterlimit:10;" x1="1174" y1="859" x2="1174" y2="925.7"/>
		<g>
			<path style="fill:#8A1538;" d="M1169.3,925.3c0,2.6,2.2,4.7,4.7,4.7s4.7-2.2,4.7-4.7s-2.2-4.7-4.7-4.7
				C1171.4,920.6,1169.3,922.7,1169.3,925.3z"/>
		</g>
	</g>
</g>
<g>
	<g>
		<line style="fill:none;stroke:#8A1538;stroke-width:1.2756;stroke-miterlimit:10;" x1="1639.7" y1="29.4" x2="1639.7" y2="96.1"/>
		<g>
			<path style="fill:#8A1538;" d="M1635,95.7c0,2.6,2.2,4.7,4.7,4.7s4.7-2.2,4.7-4.7s-2.2-4.7-4.7-4.7
				C1637.1,91,1635,93.1,1635,95.7z"/>
		</g>
	</g>
</g>
<g>
	<g>

			<line style="fill:none;stroke:#8A1538;stroke-width:1.2756;stroke-miterlimit:10;" x1="1634.5" y1="-75.3" x2="1701.2" y2="-75.3"/>
		<g>
			<path style="fill:#8A1538;" d="M1700.8-70.6c2.6,0,4.7-2.2,4.7-4.7s-2.2-4.7-4.7-4.7s-4.7,2.2-4.7,4.7
				C1696.1-72.7,1698.2-70.6,1700.8-70.6z"/>
		</g>
	</g>
</g>
<g>
	<g>
		<text transform="matrix(1 0 0 1 1296.218 218.1046)" style="fill:#8A1538; font-family:'MarselisPro'; font-size:13.8803px;">La Marina Club</text>
	</g>
</g>
<g>
	<g>
		<line style="fill:none;stroke:#8A1538;stroke-width:1.2756;stroke-miterlimit:10;" x1="1396" y1="213.5" x2="1463" y2="213.5"/>
		<g>
			<path style="fill:#8A1538;" d="M1462.3,218.5c2.6,0,4.7-2.2,4.7-4.7s-2.2-4.7-4.7-4.7s-4.7,2.2-4.7,4.7
				C1457.6,216.4,1459.7,218.5,1462.3,218.5z"/>
		</g>
	</g>
</g>
<g>
	<g>
		<line style="fill:none;stroke:#8A1538;stroke-width:1.2756;stroke-miterlimit:10;" x1="1792.6" y1="116.3" x2="1792.6" y2="183"/>
		<g>
			<path style="fill:#8A1538;" d="M1787.9,182.6c0,2.6,2.2,4.7,4.7,4.7s4.7-2.2,4.7-4.7s-2.2-4.7-4.7-4.7
				C1790,177.9,1787.9,180,1787.9,182.6z"/>
		</g>
	</g>
</g>
<g>
	<g>

			<line style="fill:none;stroke:#8A1538;stroke-width:1.2756;stroke-miterlimit:10;" x1="1770.2" y1="223.6" x2="1703.5" y2="223.6"/>
		<g>
			<path style="fill:#8A1538;" d="M1703.9,218.9c-2.6,0-4.7,2.2-4.7,4.7s2.2,4.7,4.7,4.7s4.7-2.2,4.7-4.7
				C1708.6,221,1706.5,218.9,1703.9,218.9z"/>
		</g>
	</g>
</g>
<g>
	<g>

			<line style="fill:none;stroke:#8A1538;stroke-width:1.2756;stroke-miterlimit:10;" x1="1717.9" y1="265.3" x2="1651.2" y2="265.3"/>
		<g>
			<path style="fill:#8A1538;" d="M1651.6,260.6c-2.6,0-4.7,2.2-4.7,4.7s2.2,4.7,4.7,4.7s4.7-2.2,4.7-4.7
				C1656.3,262.7,1654.2,260.6,1651.6,260.6z"/>
		</g>
	</g>
</g>
<g>
	<g>
		<line style="fill:none;stroke:#8A1538;stroke-width:1.2756;stroke-miterlimit:10;" x1="1625.7" y1="306.8" x2="1559" y2="306.8"/>
		<g>
			<path style="fill:#8A1538;" d="M1559.4,302.1c-2.6,0-4.7,2.2-4.7,4.7s2.2,4.7,4.7,4.7s4.7-2.2,4.7-4.7
				C1564.1,304.2,1562,302.1,1559.4,302.1z"/>
		</g>
	</g>
</g>
<g>
	<g>
		<g>
			<g>
				<g>
					<text transform="matrix(1 0 0 1 1614.0034 335.1355)" style="fill:#8A1538; font-family:'MarselisPro'; font-size:13.8803px;">Blueberry Square</text>
				</g>
			</g>
		</g>
	</g>
</g>
<g>
	<g>
		<line style="fill:none;stroke:#8A1538;stroke-width:1.2756;stroke-miterlimit:10;" x1="1603" y1="332.1" x2="1536.3" y2="332.1"/>
		<g>
			<path style="fill:#8A1538;" d="M1536.7,327.4c-2.6,0-4.7,2.2-4.7,4.7s2.2,4.7,4.7,4.7s4.7-2.2,4.7-4.7
				C1541.4,329.5,1539.3,327.4,1536.7,327.4z"/>
		</g>
	</g>
</g>
<g>
	<g>

			<line style="fill:none;stroke:#8A1538;stroke-width:1.2756;stroke-miterlimit:10;" x1="1645.2" y1="362.8" x2="1578.5" y2="362.8"/>
		<g>
			<path style="fill:#8A1538;" d="M1578.9,358.1c-2.6,0-4.7,2.2-4.7,4.7s2.2,4.7,4.7,4.7s4.7-2.2,4.7-4.7
				C1583.6,360.2,1581.5,358.1,1578.9,358.1z"/>
		</g>
	</g>
</g>
<g>
	<g>
		<line style="fill:none;stroke:#8A1538;stroke-width:1.2756;stroke-miterlimit:10;" x1="1616.3" y1="400" x2="1549.6" y2="400"/>
		<g>
			<path style="fill:#8A1538;" d="M1550,395.3c-2.6,0-4.7,2.2-4.7,4.7s2.2,4.7,4.7,4.7s4.7-2.2,4.7-4.7
				C1554.7,397.4,1552.6,395.3,1550,395.3z"/>
		</g>
	</g>
</g>
<g>
	<g>
		<g>
			<text transform="matrix(1 0 0 1 1624.7078 428.336)" style="fill:#8A1538; font-family:'MarselisPro'; font-size:13.8803px;">Spinneys Dbayeh</text>
		</g>
	</g>
</g>
<g>
	<g>

			<line style="fill:none;stroke:#8A1538;stroke-width:1.2756;stroke-miterlimit:10;" x1="1618.3" y1="423.6" x2="1551.6" y2="423.6"/>
		<g>
			<path style="fill:#8A1538;" d="M1552,418.9c-2.6,0-4.7,2.2-4.7,4.7s2.2,4.7,4.7,4.7s4.7-2.2,4.7-4.7
				C1556.7,421,1554.6,418.9,1552,418.9z"/>
		</g>
	</g>
</g>
<g>
	<g>
		<g>
			<text transform="matrix(1 0 0 1 1666.5266 450.8439)" style="fill:#8A1538; font-family:'MarselisPro'; font-size:13.8803px;">Gardens Naccache</text>
		</g>
	</g>
</g>
<g>
	<g>

			<line style="fill:none;stroke:#8A1538;stroke-width:1.2756;stroke-miterlimit:10;" x1="1660.2" y1="446.1" x2="1593.5" y2="446.1"/>
		<g>
			<path style="fill:#8A1538;" d="M1593.9,441.4c-2.6,0-4.7,2.2-4.7,4.7s2.2,4.7,4.7,4.7s4.7-2.2,4.7-4.7
				C1598.6,443.5,1596.5,441.4,1593.9,441.4z"/>
		</g>
	</g>
</g>
<g>
	<g>

			<line style="fill:none;stroke:#8A1538;stroke-width:1.2756;stroke-miterlimit:10;" x1="1688.6" y1="465.5" x2="1621.9" y2="465.5"/>
		<g>
			<path style="fill:#8A1538;" d="M1622.3,460.8c-2.6,0-4.7,2.2-4.7,4.7s2.2,4.7,4.7,4.7s4.7-2.2,4.7-4.7
				C1627,462.9,1624.9,460.8,1622.3,460.8z"/>
		</g>
	</g>
</g>
<g>
	<g>

			<line style="fill:none;stroke:#8A1538;stroke-width:1.2756;stroke-miterlimit:10;" x1="1661.2" y1="513.7" x2="1594.5" y2="513.7"/>
		<g>
			<path style="fill:#8A1538;" d="M1594.9,509c-2.6,0-4.7,2.2-4.7,4.7s2.2,4.7,4.7,4.7s4.7-2.2,4.7-4.7
				C1599.6,511.1,1597.5,509,1594.9,509z"/>
		</g>
	</g>
</g>
<g>
	<g>
		<line style="fill:none;stroke:#8A1538;stroke-width:1.2756;stroke-miterlimit:10;" x1="1707.7" y1="577.1" x2="1641" y2="577.1"/>
		<g>
			<path style="fill:#8A1538;" d="M1641.4,572.4c-2.6,0-4.7,2.2-4.7,4.7s2.2,4.7,4.7,4.7s4.7-2.2,4.7-4.7
				C1646.1,574.5,1644,572.4,1641.4,572.4z"/>
		</g>
	</g>
</g>
<g>
	<g>

			<line style="fill:none;stroke:#8A1538;stroke-width:1.2756;stroke-miterlimit:10;" x1="1514.3" y1="675.1" x2="1447.6" y2="675.1"/>
		<g>
			<path style="fill:#8A1538;" d="M1448,670.4c-2.6,0-4.7,2.2-4.7,4.7s2.2,4.7,4.7,4.7s4.7-2.2,4.7-4.7
				C1452.7,672.5,1450.6,670.4,1448,670.4z"/>
		</g>
	</g>
</g>
<g>
	<g>

			<line style="fill:none;stroke:#8A1538;stroke-width:1.2756;stroke-miterlimit:10;" x1="1555.3" y1="717.1" x2="1488.6" y2="717.1"/>
		<g>
			<path style="fill:#8A1538;" d="M1489,712.4c-2.6,0-4.7,2.2-4.7,4.7s2.2,4.7,4.7,4.7s4.7-2.2,4.7-4.7
				C1493.7,714.5,1491.6,712.4,1489,712.4z"/>
		</g>
	</g>
</g>
<g>
	<g>
		<line style="fill:none;stroke:#8A1538;stroke-width:1.2756;stroke-miterlimit:10;" x1="1577" y1="748" x2="1510.3" y2="748"/>
		<g>
			<path style="fill:#8A1538;" d="M1510.7,743.3c-2.6,0-4.7,2.2-4.7,4.7s2.2,4.7,4.7,4.7s4.7-2.2,4.7-4.7
				C1515.4,745.4,1513.3,743.3,1510.7,743.3z"/>
		</g>
	</g>
</g>
<g>
	<g>

			<line style="fill:none;stroke:#8A1538;stroke-width:1.2756;stroke-miterlimit:10;" x1="1503.1" y1="794.2" x2="1436.4" y2="794.2"/>
		<g>
			<path style="fill:#8A1538;" d="M1436.8,789.5c-2.6,0-4.7,2.2-4.7,4.7s2.2,4.7,4.7,4.7s4.7-2.2,4.7-4.7
				C1441.5,791.6,1439.4,789.5,1436.8,789.5z"/>
		</g>
	</g>
</g>
<g>
	<g>

			<line style="fill:none;stroke:#8A1538;stroke-width:1.2756;stroke-miterlimit:10;" x1="1405.3" y1="870.5" x2="1338.6" y2="870.5"/>
		<g>
			<path style="fill:#8A1538;" d="M1339,865.8c-2.6,0-4.7,2.2-4.7,4.7s2.2,4.7,4.7,4.7s4.7-2.2,4.7-4.7
				C1343.7,867.9,1341.6,865.8,1339,865.8z"/>
		</g>
	</g>
</g>
<g>
	<g>
		<line style="fill:none;stroke:#8A1538;stroke-width:1.2756;stroke-miterlimit:10;" x1="1281.6" y1="748" x2="1348.3" y2="748"/>
		<g>
			<path style="fill:#8A1538;" d="M1347.9,752.7c2.6,0,4.7-2.2,4.7-4.7s-2.2-4.7-4.7-4.7s-4.7,2.2-4.7,4.7
				C1343.2,750.6,1345.3,752.7,1347.9,752.7z"/>
		</g>
	</g>
</g>
<g>
	<g>

			<line style="fill:none;stroke:#8A1538;stroke-width:1.2756;stroke-miterlimit:10;" x1="1323.1" y1="700.6" x2="1389.8" y2="700.6"/>
		<g>
			<path style="fill:#8A1538;" d="M1389.4,705.3c2.6,0,4.7-2.2,4.7-4.7s-2.2-4.7-4.7-4.7s-4.7,2.2-4.7,4.7
				C1384.7,703.2,1386.8,705.3,1389.4,705.3z"/>
		</g>
	</g>
</g>
<g>
	<g>

			<line style="fill:none;stroke:#8A1538;stroke-width:1.2756;stroke-miterlimit:10;" x1="1622.7" y1="169.9" x2="1622.7" y2="236.6"/>
		<g>
			<path style="fill:#8A1538;" d="M1618,236.2c0,2.6,2.2,4.7,4.7,4.7s4.7-2.2,4.7-4.7s-2.2-4.7-4.7-4.7
				C1620.1,231.5,1618,233.6,1618,236.2z"/>
		</g>
	</g>
</g>
<g id="NorthPoint" transform="translate(1831.070256, 181.453972) rotate(50.000000) translate(-1831.070256, -181.453972) translate(1792.570256, 137.953972)">
	<path id="Fill-933" style="fill:#8A1538;" d="M329.7-513.2l6.3,10.6l-10.8-5L329.7-513.2z M323.2-505.3l19.3,7.8l-11-17.5
		l-19.3-7.8L323.2-505.3z M329.7-513.2l6.3,10.6l-10.8-5L329.7-513.2z M323.2-505.3l19.3,7.8l-11-17.5l-19.3-7.8L323.2-505.3z
		 M329.7-513.2l6.3,10.6l-10.8-5L329.7-513.2z M342.5-497.4l-11-17.5l-19.3-7.9l11,17.5L342.5-497.4z M319.3-531.5
		c11.7-4.1,24.5,1.9,28.6,13.6c4.1,11.7-1.9,24.5-13.5,28.6c-11.6,4.2-24.5-1.9-28.6-13.5C301.6-514.4,307.7-527.3,319.3-531.5z
		 M336-484.5c14.3-5.2,21.7-20.8,16.5-35.1c-5.1-14.3-20.7-21.5-35-16.4c-14.3,5.1-21.5,20.6-16.5,34.8
		C306.2-486.8,321.9-479.5,336-484.5z M329.7-513.2l6.3,10.6l-10.8-5L329.7-513.2z M323.2-505.3l19.3,7.8l-11-17.5l-19.3-7.8
		L323.2-505.3z M329.7-513.2l6.3,10.6l-10.8-5L329.7-513.2z M323.2-505.3l19.3,7.8l-11-17.5l-19.3-7.8L323.2-505.3z M329.7-513.2
		l6.3,10.6l-10.8-5L329.7-513.2z M323.2-505.3l19.3,7.8l-11-17.5l-19.3-7.8L323.2-505.3z M329.7-513.2l6.3,10.6l-10.8-5L329.7-513.2
		z M323.2-505.3l19.3,7.8l-11-17.5l-19.3-7.8L323.2-505.3z"/>
	<g id="Back-Copy-5_1_" transform="translate(34.000000, 0.000000)">

			<text transform="matrix(0.6467 -0.7628 0.7628 0.6467 266.061 -527.1504)" style="fill:#8A1538; font-family:'ArialMT'; font-size:13.9359px;">N</text>
	</g>
</g>
</svg>
