<?xml version="1.0" encoding="utf-8"?>
<!-- Generator: Adobe Illustrator 19.1.0, SVG Export Plug-In . SVG Version: 6.00 Build 0)  -->
<svg version="1.1" id="app_x5F_Lebanon--parent" xmlns="http://www.w3.org/2000/svg" xmlns:xlink="http://www.w3.org/1999/xlink"
	 x="0px" y="0px" width="1920px" height="1080px" viewBox="0 0 1920 1080" style="enable-background:new 0 0 1920 1080;"
	 xml:space="preserve">
<rect id="app_x5F_Lebanon-road--zoom" x="742.8" y="373.5" transform="matrix(0.2158 -0.9764 0.9764 0.2158 240.0268 1159.9114)" style="fill:none;stroke:#1D1D1B;stroke-width:0.6224;stroke-miterlimit:10;" width="198.7" height="114"/>
<g id="Map_Labels">
	<g>
		<line style="fill:none;stroke:#8E1537;stroke-width:0.6745;stroke-miterlimit:10;" x1="951.3" y1="389" x2="951.3" y2="401"/>
		<path style="fill:#8A1538;" d="M948.4,401.1c0-1.6,1.3-2.8,2.8-2.8c1.6,0,2.8,1.3,2.8,2.8c0,1.6-1.3,2.8-2.8,2.8
			S948.4,402.7,948.4,401.1z"/>
	</g>
	<g>
		<line style="fill:none;stroke:#8E1537;stroke-width:0.6745;stroke-miterlimit:10;" x1="898.1" y1="406.7" x2="894.1" y2="419.1"/>
		<circle style="fill:#8A1538;" cx="894.1" cy="419.2" r="2.8"/>
	</g>
	<g>
		<line style="fill:none;stroke:#8E1537;stroke-width:0.6745;stroke-miterlimit:10;" x1="899.8" y1="354.4" x2="899.8" y2="372"/>
		<circle style="fill:#8A1538;" cx="899.8" cy="372.2" r="2.8"/>
	</g>
	<g>
		<line style="fill:none;stroke:#8E1537;stroke-width:0.6745;stroke-miterlimit:10;" x1="838.1" y1="425.6" x2="855.8" y2="425.6"/>
		<circle style="fill:#8A1538;" cx="855.9" cy="425.6" r="2.8"/>
	</g>
	<g>
		<line style="fill:none;stroke:#8E1537;stroke-width:0.6745;stroke-miterlimit:10;" x1="669.8" y1="702.5" x2="669.8" y2="684"/>
		<circle style="fill:#8A1538;" cx="669.8" cy="683.9" r="2.8"/>
	</g>
	<g>
		<line style="fill:none;stroke:#8E1537;stroke-width:0.6745;stroke-miterlimit:10;" x1="532.5" y1="697.5" x2="532.5" y2="679"/>
		<path style="fill:#8A1538;" d="M535.3,678.9c0,1.6-1.3,2.8-2.8,2.8c-1.6,0-2.8-1.3-2.8-2.8c0-1.6,1.3-2.8,2.8-2.8
			C534,676.1,535.3,677.3,535.3,678.9z"/>
	</g>
	<g>
		<line style="fill:none;stroke:#8E1537;stroke-width:0.6745;stroke-miterlimit:10;" x1="950.2" y1="416.5" x2="922.4" y2="416.5"/>
		<circle style="fill:#8A1538;" cx="922.3" cy="416.5" r="2.8"/>
	</g>
	<g>
		<line style="fill:none;stroke:#8E1537;stroke-width:0.6745;stroke-miterlimit:10;" x1="898.8" y1="475.8" x2="871" y2="475.8"/>
		<circle style="fill:#8A1538;" cx="870.9" cy="475.8" r="2.8"/>
	</g>
	<g>
		<line style="fill:none;stroke:#8E1537;stroke-width:0.6745;stroke-miterlimit:10;" x1="908.5" y1="463.3" x2="880.7" y2="463.3"/>
		<path style="fill:#8A1538;" d="M880.6,460.4c1.6,0,2.8,1.3,2.8,2.8c0,1.6-1.3,2.8-2.8,2.8c-1.6,0-2.8-1.3-2.8-2.8
			S879,460.4,880.6,460.4z"/>
	</g>
	<g>
		<line style="fill:none;stroke:#8E1537;stroke-width:0.6745;stroke-miterlimit:10;" x1="911.2" y1="444.5" x2="875.4" y2="444.5"/>
		<path style="fill:#8A1538;" d="M873.6,441.7c1.6,0,2.8,1.3,2.8,2.8c0,1.6-1.3,2.8-2.8,2.8s-2.8-1.3-2.8-2.8
			C870.7,443,872,441.7,873.6,441.7z"/>
	</g>
	<g>
		<line style="fill:none;stroke:#8E1537;stroke-width:0.6745;stroke-miterlimit:10;" x1="976.6" y1="430.5" x2="904.8" y2="430.5"/>
		<path style="fill:#8A1538;" d="M904.7,427.7c1.6,0,2.8,1.3,2.8,2.8c0,1.6-1.3,2.8-2.8,2.8s-2.8-1.3-2.8-2.8
			S903.1,427.7,904.7,427.7z"/>
	</g>
	<g>
		<line style="fill:none;stroke:#8E1537;stroke-width:0.6745;stroke-miterlimit:10;" x1="923" y1="497.8" x2="895.2" y2="497.8"/>
		<path style="fill:#8A1538;" d="M895.1,495c1.6,0,2.8,1.3,2.8,2.8c0,1.6-1.3,2.8-2.8,2.8s-2.8-1.3-2.8-2.8S893.6,495,895.1,495z"/>
	</g>
	<g>
		<line style="fill:none;stroke:#8E1537;stroke-width:0.6745;stroke-miterlimit:10;" x1="929.4" y1="535.3" x2="901.6" y2="535.3"/>
		<path style="fill:#8A1538;" d="M901.5,532.5c1.6,0,2.8,1.3,2.8,2.8c0,1.6-1.3,2.8-2.8,2.8c-1.6,0-2.8-1.3-2.8-2.8
			C898.6,533.8,899.9,532.5,901.5,532.5z"/>
	</g>
	<g>
		<line style="fill:none;stroke:#8E1537;stroke-width:0.6745;stroke-miterlimit:10;" x1="864.5" y1="568.2" x2="836.7" y2="568.2"/>
		<circle style="fill:#8A1538;" cx="836.6" cy="568.2" r="2.8"/>
	</g>
	<g>
		<line style="fill:none;stroke:#8E1537;stroke-width:0.6745;stroke-miterlimit:10;" x1="885.6" y1="592.7" x2="857.8" y2="592.7"/>
		<circle style="fill:#8A1538;" cx="857.7" cy="592.7" r="2.8"/>
	</g>
	<g>
		<line style="fill:none;stroke:#8E1537;stroke-width:0.6745;stroke-miterlimit:10;" x1="860.8" y1="608.2" x2="833" y2="608.2"/>
		<circle style="fill:#8A1538;" cx="832.9" cy="608.2" r="2.8"/>
	</g>
	<g>
		<line style="fill:none;stroke:#8E1537;stroke-width:0.6745;stroke-miterlimit:10;" x1="765.9" y1="653.9" x2="738.1" y2="653.9"/>
		<path style="fill:#8A1538;" d="M738,651.1c1.6,0,2.8,1.3,2.8,2.8c0,1.6-1.3,2.8-2.8,2.8c-1.6,0-2.8-1.3-2.8-2.8
			C735.1,652.4,736.4,651.1,738,651.1z"/>
	</g>
	<g>
		<line style="fill:none;stroke:#8E1537;stroke-width:0.6745;stroke-miterlimit:10;" x1="827.9" y1="633.9" x2="800.1" y2="633.9"/>
		<path style="fill:#8A1538;" d="M800,631.1c1.6,0,2.8,1.3,2.8,2.8c0,1.6-1.3,2.8-2.8,2.8c-1.6,0-2.8-1.3-2.8-2.8
			C797.1,632.3,798.4,631.1,800,631.1z"/>
	</g>
	<g>
		<g>
			<text transform="matrix(1 0 0 1 934.3097 363.1846)" style="fill:#8A1538; font-family:'MarselisPro'; font-size:13.94px;">Embassy of the </text>
			<text transform="matrix(1 0 0 1 934.3097 378.6846)" style="fill:#8A1538; font-family:'MarselisPro'; font-size:13.94px;">United States of America</text>
		</g>
	</g>
	<g>
		<g>
			<text transform="matrix(1 0 0 1 954.0768 419.3335)" style="fill:#8A1538; font-family:'MarselisPro'; font-size:13.94px;">Aauokar</text>
		</g>
	</g>
	<g>
		<g>
			<text transform="matrix(1 0 0 1 902.0597 482.1884)" style="fill:#8A1538; font-family:'MarselisPro'; font-size:13.94px;">ABC Dbayeh</text>
		</g>
	</g>
	<g>
		<g>
			<text transform="matrix(1 0 0 1 876.8273 402.6675)" style="fill:#8A1538; font-family:'MarselisPro'; font-size:13.94px;">Origami</text>
		</g>
	</g>
	<g>
		<text transform="matrix(1 0 0 1 882.8488 353.0107)" style="fill:#8A1538; font-family:'MarselisPro'; font-size:13.94px;">Babel</text>
	</g>
	<g>
		<line style="fill:none;stroke:#8E1537;stroke-width:0.6745;stroke-miterlimit:10;" x1="920.5" y1="296.9" x2="920.5" y2="314.5"/>
		<circle style="fill:#8A1538;" cx="920.5" cy="314.7" r="2.8"/>
	</g>
	<g>
		<text transform="matrix(1 0 0 1 876.4601 293.5016)" style="fill:#8A1538; font-family:'MarselisPro'; font-size:13.94px;">Le Royal Hotel</text>
	</g>
	<g>
		<line style="fill:none;stroke:#8E1537;stroke-width:0.6745;stroke-miterlimit:10;" x1="436.8" y1="636.3" x2="436.8" y2="653.9"/>
		<circle style="fill:#8A1538;" cx="436.8" cy="654.1" r="2.8"/>
	</g>
	<g>
		<text transform="matrix(1 0 0 1 382.7653 632.8574)" style="fill:#8A1538; font-family:'MarselisPro'; font-size:13.94px;">Downtown Beirut</text>
	</g>
	<g>
		<line style="fill:none;stroke:#8E1537;stroke-width:0.6745;stroke-miterlimit:10;" x1="475.8" y1="754.9" x2="475.8" y2="772.5"/>
		<circle style="fill:#8A1538;" cx="475.8" cy="772.7" r="2.8"/>
	</g>
	<g>
		<text transform="matrix(1 0 0 1 391.7435 751.4998)" style="fill:#8A1538; font-family:'MarselisPro'; font-size:13.94px;">National Museum of Beirut</text>
	</g>
	<g>
		<line style="fill:none;stroke:#8E1537;stroke-width:0.6745;stroke-miterlimit:10;" x1="263.1" y1="620.8" x2="263.1" y2="638.4"/>
		<circle style="fill:#8A1538;" cx="263.1" cy="638.6" r="2.8"/>
	</g>
	<g>
		<text transform="matrix(1 0 0 1 172.0269 617.4247)" style="fill:#8A1538; font-family:'MarselisPro'; font-size:13.94px;">American University of Beirut</text>
	</g>
	<g>
		<line style="fill:none;stroke:#8E1537;stroke-width:0.6745;stroke-miterlimit:10;" x1="994.1" y1="268.4" x2="994.1" y2="286"/>
		<circle style="fill:#8A1538;" cx="994.1" cy="286.2" r="2.8"/>
	</g>
	<g>
		<text transform="matrix(1 0 0 1 922.0002 265.0208)" style="fill:#8A1538; font-family:'MarselisPro'; font-size:13.94px;">Notre Dame University </text>
	</g>
	<g>
		<g>
			<text transform="matrix(1 0 0 1 926.2721 501.7671)" style="fill:#8A1538; font-family:'MarselisPro'; font-size:13.94px;">Naqqache</text>
		</g>
	</g>
	<g>
		<g>
			<g>
				<g>
					<text transform="matrix(1 0 0 1 914.1661 448.2352)" style="fill:#8A1538; font-family:'MarselisPro'; font-size:13.94px;">Dbayeh</text>
				</g>
			</g>
		</g>
	</g>
	<g>
		<g>
			<g>
				<g>
					<text transform="matrix(1 0 0 1 910.6525 467.1184)" style="fill:#8A1538; font-family:'MarselisPro'; font-size:13.94px;">Le Mall</text>
				</g>
			</g>
		</g>
	</g>
	<g>
		<g>
			<g>
				<g>
					<text transform="matrix(1 0 0 1 979.3397 433.7788)" style="fill:#8A1538; font-family:'MarselisPro'; font-size:13.94px;">The Village Dbayeh</text>
				</g>
			</g>
		</g>
	</g>
	<g>
		<g>
			<text transform="matrix(1 0 0 1 931.8678 539.1919)" style="fill:#8A1538; font-family:'MarselisPro'; font-size:13.94px;">Antelias</text>
		</g>
	</g>
	<g>
		<g>
			<text transform="matrix(1 0 0 1 649.3463 711.9766)" style="fill:#8A1538; font-family:'MarselisPro'; font-size:13.94px;">Daoura</text>
		</g>
	</g>
	<g>
		<g>
			<text transform="matrix(1 0 0 1 482.5841 708.3428)" style="fill:#8A1538; font-family:'MarselisPro'; font-size:13.94px;">Al Roum Hospital</text>
		</g>
	</g>
	<g>
		<g>
			<text transform="matrix(1 0 0 1 889.8405 597.0059)" style="fill:#8A1538; font-family:'MarselisPro'; font-size:13.94px;">Jal El Dib</text>
		</g>
	</g>
	<g>
		<g>
			<text transform="matrix(1 0 0 1 864.0374 612.6663)" style="fill:#8A1538; font-family:'MarselisPro'; font-size:13.94px;">Aboujaoude Hospital</text>
		</g>
	</g>
	<g>
		
			<line style="fill:none;stroke:#8E1537;stroke-width:0.6745;stroke-miterlimit:10;" x1="1092.9" y1="728.5" x2="1065.1" y2="728.5"/>
		<circle style="fill:#8A1538;" cx="1064.9" cy="728.5" r="2.8"/>
	</g>
	<g>
		<g>
			<text transform="matrix(1 0 0 1 1096.1428 732.7643)" style="fill:#8A1538; font-family:'MarselisPro'; font-size:13.94px;">Broumana High School</text>
		</g>
	</g>
	<g>
		<g>
			<text transform="matrix(1 0 0 1 868.1573 572.4658)" style="fill:#8A1538; font-family:'MarselisPro'; font-size:13.94px;">Mhanna – Jal El Dib</text>
		</g>
	</g>
	<g>
		<line style="fill:none;stroke:#8E1537;stroke-width:0.6745;stroke-miterlimit:10;" x1="786.6" y1="576.8" x2="814.4" y2="576.8"/>
		<circle style="fill:#8A1538;" cx="814.5" cy="576.8" r="2.8"/>
	</g>
	<g>
		<g>
			<text transform="matrix(1 0 0 1 676.249 579.6169)" style="fill:#8A1538; font-family:'MarselisPro'; font-size:13.94px;">AÏSHTI by the sea</text>
		</g>
	</g>
	<g>
		<line style="fill:none;stroke:#8E1537;stroke-width:0.6745;stroke-miterlimit:10;" x1="772.7" y1="592.7" x2="800.5" y2="592.7"/>
		<circle style="fill:#8A1538;" cx="800.6" cy="592.7" r="2.8"/>
	</g>
	<g>
		<g>
			<text transform="matrix(1 0 0 1 647.3115 595.5057)" style="fill:#8A1538; font-family:'MarselisPro'; font-size:13.94px;">Embassy of Canada</text>
		</g>
	</g>
	<g>
		<line style="fill:none;stroke:#8E1537;stroke-width:0.6745;stroke-miterlimit:10;" x1="209.9" y1="707.4" x2="237.7" y2="707.4"/>
		<circle style="fill:#8A1538;" cx="237.8" cy="707.4" r="2.8"/>
	</g>
	<g>
		<g>
			<text transform="matrix(1 0 0 1 112.5194 710.2585)" style="fill:#8A1538; font-family:'MarselisPro'; font-size:13.94px;">Raouche Rocks</text>
		</g>
	</g>
	<g>
		<g>
			
				<text transform="matrix(0.8934 0.4492 -0.4492 0.8934 762.611 673.0101)" style="fill:#8A1538; font-family:'MarselisPro'; font-size:13.94px;">Matn Express Highway</text>
		</g>
	</g>
	<g>
		<g>
			<text transform="matrix(1 0 0 1 767.7354 656.6945)" style="fill:#8A1538; font-family:'MarselisPro'; font-size:13.94px;">City Mall</text>
		</g>
	</g>
	<g>
		<g>
			<text transform="matrix(1 0 0 1 831.3717 638.0508)" style="fill:#8A1538; font-family:'MarselisPro'; font-size:13.94px;">Zalka</text>
		</g>
	</g>
	<g>
		<g>
			<path id="Rectangle-Copy-2_8_" style="fill:#8A1538;" d="M730.4,407.6H829c2.7,0,5,2.2,5,5v26c0,2.7-2.2,5-5,5h-98.6
				c-2.7,0-5-2.2-5-5v-26C725.5,409.8,727.8,407.6,730.4,407.6z"/>
		</g>
		<g>
			<path style="fill:#FFFFFF;" d="M770.3,435.3H769v3.8h1.3c1.1,0,1.9-0.8,1.9-1.9S771.4,435.3,770.3,435.3 M770.4,438.8h-1v-3.2h1
				c0.9,0,1.6,0.6,1.6,1.6C771.9,438.2,771.3,438.8,770.4,438.8"/>
			<path style="fill:#FFFFFF;" d="M770.3,435.3H769v3.8h1.3c1.1,0,1.9-0.8,1.9-1.9S771.4,435.3,770.3,435.3 M770.4,438.8h-1v-3.2h1
				c0.9,0,1.6,0.6,1.6,1.6C771.9,438.2,771.3,438.8,770.4,438.8"/>
			<path style="fill:#FFFFFF;" d="M775.3,437c0.3-0.1,0.5-0.4,0.5-0.8c0-0.6-0.4-0.9-1.2-0.9h-1.3v3.8h1.3c0.9,0,1.4-0.4,1.4-1.1
				C776,437.5,775.8,437.2,775.3,437 M773.6,435.6h0.9c0.4,0,0.9,0.1,0.9,0.6s-0.5,0.7-1,0.7h-0.8V435.6L773.6,435.6z M774.6,438.8
				h-1v-1.6h0.9c0.8,0,1.2,0.3,1.2,0.8C775.8,438.6,775.3,438.8,774.6,438.8"/>
			<path style="fill:#FFFFFF;" d="M775.3,437c0.3-0.1,0.5-0.4,0.5-0.8c0-0.6-0.4-0.9-1.2-0.9h-1.3v3.8h1.3c0.9,0,1.4-0.4,1.4-1.1
				C776,437.5,775.8,437.2,775.3,437 M773.6,435.6h0.9c0.4,0,0.9,0.1,0.9,0.6s-0.5,0.7-1,0.7h-0.8V435.6L773.6,435.6z M774.6,438.8
				h-1v-1.6h0.9c0.8,0,1.2,0.3,1.2,0.8C775.8,438.6,775.3,438.8,774.6,438.8"/>
			<polygon style="fill:#FFFFFF;" points="782.8,435.3 781.6,437.2 780.5,435.3 780.1,435.3 781.4,437.5 781.4,439.1 781.8,439.1 
				781.8,437.5 783.1,435.3 			"/>
			<polygon style="fill:#FFFFFF;" points="782.8,435.3 781.6,437.2 780.5,435.3 780.1,435.3 781.4,437.5 781.4,439.1 781.8,439.1 
				781.8,437.5 783.1,435.3 			"/>
			<polygon style="fill:#FFFFFF;" points="784.1,435.3 784.1,439.1 786.5,439.1 786.5,438.8 784.4,438.8 784.4,437.2 786.4,437.2 
				786.4,436.9 784.4,436.9 784.4,435.6 786.5,435.6 786.5,435.3 			"/>
			<polygon style="fill:#FFFFFF;" points="784.1,435.3 784.1,439.1 786.5,439.1 786.5,438.8 784.4,438.8 784.4,437.2 786.4,437.2 
				786.4,436.9 784.4,436.9 784.4,435.6 786.5,435.6 786.5,435.3 			"/>
			<polygon style="fill:#FFFFFF;" points="790.3,435.3 790.3,436.9 788,436.9 788,435.3 787.6,435.3 787.6,439.1 788,439.1 
				788,437.2 790.3,437.2 790.3,439.1 790.6,439.1 790.6,435.3 			"/>
			<polygon style="fill:#FFFFFF;" points="790.3,435.3 790.3,436.9 788,436.9 788,435.3 787.6,435.3 787.6,439.1 788,439.1 
				788,437.2 790.3,437.2 790.3,439.1 790.6,439.1 790.6,435.3 			"/>
			<path style="fill:#FFFFFF;" d="M778.5,435.9l0.8,1.8h-1.5L778.5,435.9L778.5,435.9z M778.4,435.3l-1.7,3.8h0.4l0.5-1.2h1.8
				l0.5,1.2h0.4l-1.7-3.8H778.4L778.4,435.3z"/>
			<path style="fill:#FFFFFF;" d="M778.5,435.9l0.8,1.8h-1.5L778.5,435.9L778.5,435.9z M778.4,435.3l-1.7,3.8h0.4l0.5-1.2h1.8
				l0.5,1.2h0.4l-1.7-3.8H778.4L778.4,435.3z"/>
			<g>
				<g>
					<g>
						<g>
							<g>
								<g>
									<g>
										<g>
											<g>
												<g>
													<g>
														<g>
															<g>
																<defs>
																	<polygon id="SVGID_1_" points="767.9,412.1 781.3,421.5 775.4,423 783.3,423 791.8,417 791.8,412.2 
																																			"/>
																</defs>
																<clipPath id="SVGID_2_">
																	<use xlink:href="#SVGID_1_"  style="overflow:visible;"/>
																</clipPath>
																<path style="clip-path:url(#SVGID_2_);fill:none;stroke:#FFFFFF;stroke-width:0.1339;stroke-linecap:round;" d="
																	M782.2,422.4c0.6,0.3,1.5-0.1,1.5,0.3c0,0.3-1,0.4-1,0.4 M781.2,421.7c1.2,0.7,3.1-0.2,3,0.5c-0.1,0.6-2,0.9-2,0.9
																	 M780.2,421c1.8,1,4.6-0.2,4.5,0.8c-0.1,0.9-3,1.3-3,1.3 M779.2,420.4c2.4,1.4,6.2-0.3,6,1
																	c-0.2,1.1-3.9,1.7-3.9,1.7 M778.2,419.7c3.1,1.7,7.7-0.4,7.4,1.3c-0.2,1.4-4.9,2.1-4.9,2.1 M777.2,419
																	c3.7,2.1,9.2-0.5,8.9,1.5c-0.3,1.7-5.9,2.6-5.9,2.6 M776.2,418.3c4.3,2.4,10.8-0.6,10.4,1.8c-0.3,2-6.9,3-6.9,3
																	 M775.2,417.6c4.9,2.8,12.3-0.7,11.9,2c-0.4,2.3-7.9,3.4-7.9,3.4 M774.2,416.9c5.5,3.1,13.9-0.7,13.4,2.3
																	c-0.4,2.6-8.9,3.8-8.9,3.8 M773.2,416.2c6.1,3.4,15.4-0.8,14.9,2.5c-0.4,2.9-9.9,4.3-9.9,4.3 M772.2,415.6
																	c6.7,3.8,17-0.9,16.4,2.8c-0.5,3.1-10.9,4.7-10.9,4.7 M771.2,414.9c7.3,4.1,18.5-1,17.9,3.1
																	c-0.5,3.4-11.8,5.1-11.8,5.1 M770.2,414.2c8,4.5,20-1.1,19.4,3.3c-0.6,3.7-12.8,5.5-12.8,5.5 M769.2,413.5
																	c8.6,4.8,21.6-1.2,20.8,3.6c-0.6,4-13.8,6-13.8,6 M768.2,412.8c9.2,5.2,23.1-1.2,22.3,3.8
																	c-0.7,4.3-14.8,6.4-14.8,6.4 M767.2,412.1c9.8,5.5,24.7-1.3,23.8,4.1c-0.7,4.6-15.8,6.8-15.8,6.8 M766.2,411.4
																	c10.4,5.9,26.2-1.4,25.3,4.3c-0.7,4.9-16.8,7.2-16.8,7.2"/>
															</g>
														</g>
													</g>
												</g>
											</g>
										</g>
									</g>
								</g>
							</g>
						</g>
					</g>
				</g>
			</g>
			<polygon style="fill:#FFFFFF;" points="749.2,426.5 747.6,431.3 746.1,426.5 744.9,426.5 747.1,432.8 748,432.8 749.6,428.2 
				751.2,432.8 752.1,432.8 754.2,426.5 753.2,426.5 751.6,431.3 750,426.5 			"/>
			<path style="fill:#FFFFFF;" d="M756.5,430.5c-0.7,0-1.1,0.3-1.1,0.8l0,0c0,0.4,0.4,0.7,1,0.7c0.8,0,1.3-0.4,1.3-1v-0.3l0,0
				C757.3,430.6,756.9,430.5,756.5,430.5 M756,432.8c-0.8,0-1.7-0.4-1.7-1.4l0,0c0-0.9,0.7-1.5,1.9-1.5c0.6,0,0.9,0.1,1.3,0.2h0.1
				v-0.2c0-0.7-0.4-1.1-1.2-1.1c-0.5,0-0.9,0.1-1.3,0.3l-0.3-0.8c0.5-0.2,1-0.4,1.8-0.4c1.3,0,2,0.7,2,2v2.8h-1V432l-0.1,0.1
				C757.2,432.6,756.8,432.8,756,432.8"/>
			<path style="fill:#FFFFFF;" d="M761.5,432.8c-0.9,0-1.3-0.4-1.3-1.4v-2.5h-0.6V428h0.6v-1.3h1v1.3h1.3v0.9h-1.3v2.4
				c0,0.4,0.2,0.6,0.6,0.6c0.2,0,0.4,0,0.6-0.1v0.8C762.1,432.7,761.8,432.8,761.5,432.8"/>
			<path style="fill:#FFFFFF;" d="M765.5,428.8c-0.7,0-1.2,0.5-1.3,1.3l0,0h2.5l0,0C766.6,429.3,766.2,428.8,765.5,428.8
				 M765.6,432.8c-1.4,0-2.4-1-2.4-2.4s1-2.4,2.3-2.4c1.7,0,2.2,1.4,2.2,2.5c0,0.1,0,0.2,0,0.2l0,0h-3.5l0,0
				c0.1,0.8,0.7,1.2,1.4,1.2c0.5,0,0.9-0.2,1.3-0.6l0.6,0.5C767,432.6,766.4,432.8,765.6,432.8"/>
			<path style="fill:#FFFFFF;" d="M768.8,432.7V428h1v1c0.2-0.5,0.7-1.1,1.6-1.1l0,0v1.1l0,0c-1,0-1.7,0.7-1.7,1.9v1.8L768.8,432.7
				L768.8,432.7z"/>
			<path style="fill:#FFFFFF;" d="M773,432.7v-3.8h-0.6v-0.8h0.6v-0.4c0-1,0.5-1.5,1.4-1.5c0.4,0,0.6,0.1,0.8,0.1v0.8
				c-0.2-0.1-0.4-0.1-0.6-0.1c-0.4,0-0.7,0.3-0.7,0.8v0.3h1.3v0.8H774v3.8L773,432.7L773,432.7z"/>
			<path style="fill:#FFFFFF;" d="M776.3,432.7V428h1v1c0.2-0.5,0.7-1.1,1.6-1.1l0,0v1.1l0,0c-1,0-1.7,0.7-1.7,1.9v1.8L776.3,432.7
				L776.3,432.7z"/>
			<path style="fill:#FFFFFF;" d="M782.1,428.8c-0.9,0-1.5,0.7-1.5,1.6s0.6,1.6,1.5,1.6s1.5-0.7,1.5-1.6S782.9,428.8,782.1,428.8
				 M782.1,432.8c-1.4,0-2.5-1.1-2.5-2.4c0-1.4,1.1-2.5,2.5-2.5s2.5,1.1,2.5,2.4C784.6,431.8,783.5,432.8,782.1,432.8"/>
			<path style="fill:#FFFFFF;" d="M788.8,432.7V430c0-0.8-0.4-1.2-1.1-1.2s-1.1,0.5-1.1,1.2v2.6h-1v-4.7h1v0.8l0.1-0.1
				c0.4-0.6,0.8-0.8,1.5-0.8c1,0,1.7,0.7,1.7,1.8v3h-1.1V432.7L788.8,432.7z"/>
			<path style="fill:#FFFFFF;" d="M792.8,432.8c-0.9,0-1.3-0.4-1.3-1.4v-2.5h-0.6V428h0.6v-1.3h1v1.3h1.3v0.9h-1.3v2.4
				c0,0.4,0.2,0.6,0.6,0.6c0.2,0,0.4,0,0.6-0.1v0.8C793.4,432.7,793.1,432.8,792.8,432.8"/>
			<path style="fill:#FFFFFF;" d="M800.6,432.8c-1.8,0-3.2-1.4-3.2-3.2c0-1.8,1.4-3.2,3.2-3.2c1.2,0,1.9,0.5,2.4,0.9l-0.7,0.8
				c-0.6-0.5-1.1-0.8-1.8-0.8c-1.2,0-2.1,1-2.1,2.3s0.9,2.3,2.1,2.3c0.8,0,1.3-0.3,1.8-0.8l0.7,0.7
				C802.3,432.5,801.6,432.8,800.6,432.8"/>
			<path style="fill:#FFFFFF;" d="M804.1,426.3h1.1v1h-1.1V426.3L804.1,426.3z M804.1,428.1h1v4.7h-1V428.1L804.1,428.1z"/>
			<path style="fill:#FFFFFF;" d="M808.2,432.8c-0.9,0-1.3-0.4-1.3-1.4v-2.5h-0.6V428h0.6v-1.3h1v1.3h1.3v0.9h-1.3v2.4
				c0,0.4,0.2,0.6,0.6,0.6c0.2,0,0.4,0,0.6-0.1v0.8C808.8,432.7,808.5,432.8,808.2,432.8"/>
			<path style="fill:#FFFFFF;" d="M811.2,434.2c-0.4,0-0.7-0.1-1.1-0.3l0.3-0.7c0.2,0.1,0.4,0.2,0.6,0.2c0.3,0,0.5-0.2,0.7-0.6l0,0
				l-2-4.7h1.1l1.4,3.6l1.3-3.6h1l-1.9,4.8C812.4,433.8,812,434.2,811.2,434.2"/>
		</g>
	</g>
	<g>
		
			<text transform="matrix(0.2283 -0.9736 0.9736 0.2283 843.8209 566.5618)" style="fill:#34373A; font-family:'MarselisPro-Bold'; font-size:9.2452px;">Jounieh – Beirut Highway</text>
	</g>
	<g>
		
			<text transform="matrix(0.2283 -0.9736 0.9736 0.2283 859.7606 459.6213)" style="fill:#34373A; font-family:'MarselisPro-Bold'; font-size:9.2452px;">Sea Side Road</text>
	</g>
	<g>
		
			<text transform="matrix(0.9638 0.2667 -0.2667 0.9638 547.506 652.1573)" style="fill:#34373A; font-family:'MarselisPro-Bold'; font-size:9.2452px;">Jounieh – Beirut Highway</text>
	</g>
	<g>
		
			<text transform="matrix(0.6578 -0.7532 0.7532 0.6578 781.7839 630.158)" style="fill:#34373A; font-family:'MarselisPro-Bold'; font-size:9.2452px;">Coastal Highway</text>
	</g>
	<g>
		
			<text transform="matrix(0.8703 -0.4925 0.4925 0.8703 713.5485 661.0008)" style="fill:#34373A; font-family:'MarselisPro-Bold'; font-size:9.2452px;">Sea Side Road</text>
	</g>
</g>
</svg>
