<?xml version="1.0" encoding="utf-8"?>
<!-- Generator: Adobe Illustrator 19.1.0, SVG Export Plug-In . SVG Version: 6.00 Build 0)  -->
<svg version="1.1" id="app_x5F_Lebanon-region--parent"
	 xmlns="http://www.w3.org/2000/svg" xmlns:xlink="http://www.w3.org/1999/xlink" x="0px" y="0px" width="1920px" height="1080px"
	 viewBox="0 0 1920 1080" style="enable-background:new 0 0 1920 1080;" xml:space="preserve">
<g id="app_x5_Dummy--marker">
	<rect width="1" height="1"/>
</g>
<g id="app_x5F_region--data" style="display:none;">
	<polygon style="display:inline;fill:#E0DAD5;stroke:#FFFFFF;stroke-width:2;stroke-miterlimit:10;" points="641.2,-55.2
		595.7,-25.5 592.2,-22 590.4,-20.3 585.2,-11.5 581.7,-2.8 581.7,0.7 581.7,11.2 581.7,16.5 581.7,30.4 607.9,54.9 625.4,72.4
		632.4,79.4 637.7,86.4 641.2,91.7 642.9,102.2 637.7,102.2 628.9,96.9 623.7,93.4 609.7,93.4 604.4,96.9 595.7,96.9 592.2,98.7
		590.4,98.7 588.7,102.2 585.2,107.4 579.9,110.9 574.7,107.4 567.7,102.2 562.5,98.7 553.7,98.7 546.7,96.9 529.2,96.9 524,98.7
		518.7,102.2 513.5,110.9 513.5,116.1 510,124.9 510,131.9 513.5,138.9 504.7,152.9 480.3,165.1 436.5,186.1 422.5,191.3
		408.6,191.3 391.1,196.6 371.8,193.1 366.6,193.1 361.3,196.6 357.8,196.6 347.3,201.8 336.8,210.6 286.1,207.1 277.4,207.1
		259.9,210.6 252.9,212.3 251.2,215.8 242.4,215.8 237.2,215.8 224.9,212.3 219.7,210.6 172.5,193.1 167.2,191.3 148,177.4
		125.2,135.4 118.2,117.9 100.7,72.4 99,67.2 99,58.4 99,53.2 104.2,53.2 106,58.4 109.5,60.2 114.7,63.7 120,68.9 123.5,72.4
		128.7,74.2 137.5,74.2 146.2,72.4 148,68.9 153.2,63.7 165.5,53.2 165.5,49.7 170.7,39.2 170.7,35.7 177.7,25.2 184.7,27
		200.4,21.7 209.2,20 231.9,21.7 245.9,27 256.4,33.9 261.6,35.7 265.1,35.7 272.1,33.9 277.4,30.4 280.9,27 282.6,25.2 286.1,20
		286.1,16.5 289.6,-8 291.4,-30.8 308.9,-44.8 389.3,-32.5 413.8,-30.8 419,-30.8 424.3,-30.8 436.5,-30.8 450.5,-30.8 496,-37.8
		501.2,-37.8 520.5,-50 532.7,-55.2 538,-57 548.5,-55.2 562.5,-57 566,-57 595.7,-69.2 686.6,-116.5 693.6,-118.2 700.6,-125.2
		700.6,-127 704.1,-130.5 705.9,-132.2 714.6,-135.7 761.8,-156.7 772.3,-160.2 767.1,-144.4 718.1,-104.2 686.6,-83.2 681.4,-79.7
		670.9,-74.5 	"/>
	<polygon style="display:inline;fill:#E0DAD5;stroke:#FFFFFF;stroke-width:2;stroke-miterlimit:10;" points="1143.1,707.3
		1157.1,719.5 1160.6,719.5 1167.6,716 1171.1,716 1172.8,719.5 1171.1,730 1171.1,731.8 1167.6,759.7 1167.6,773.7 1167.6,787.7
		1167.6,807 1167.6,829.7 1165.8,840.2 1162.3,843.7 1165.8,845.4 1172.8,857.7 1172.8,873.4 1181.6,878.7 1181.6,892.7
		1179.8,904.9 1179.8,911.9 1179.8,917.1 1172.8,917.1 1171.1,920.6 1157.1,934.6 1157.1,1020.3 1160.6,1022.1 1137.9,1016.8
		1118.6,988.9 1113.4,983.6 1094.1,978.4 1085.4,978.4 1076.6,978.4 1067.9,978.4 1052.2,969.6 1043.4,976.6 1013.7,995.8
		1010.2,1004.6 1008.4,1011.6 1004.9,1022.1 1004.9,1029.1 1008.4,1034.3 1004.9,1078 990.9,1111.3 994.4,1116.5 1003.2,1144.5
		1004.9,1155 1003.2,1169 999.7,1177.7 996.2,1216.2 996.2,1226.7 999.7,1226.7 1010.2,1230.2 1018.9,1230.2 1041.7,1225
		1055.7,1233.7 1076.6,1247.7 1074.9,1254.7 1057.4,1258.2 1041.7,1268.7 1013.7,1291.4 1008.4,1296.7 1003.2,1307.2 999.7,1312.4
		996.2,1324.6 999.7,1343.9 996.2,1350.9 990.9,1364.9 985.7,1377.1 985.7,1387.6 990.9,1396.4 1003.2,1398.1 1060.9,1392.9
		1085.4,1391.1 1090.6,1387.6 1095.9,1378.9 1132.6,1350.9 1137.9,1345.6 1151.8,1345.6 1160.6,1345.6 1162.3,1363.1 1162.3,1377.1
		1162.3,1378.9 1157.1,1398.1 1150.1,1443.6 1155.3,1450.6 1165.8,1468.1 1165.8,1482 1165.8,1490.8 1151.8,1543.3 1143.1,1550.3
		1141.3,1553.8 1134.4,1564.2 1123.9,1601 1123.9,1611.5 1115.1,1639.5 1104.6,1662.2 1102.9,1669.2 1090.6,1725.1 1090.6,1733.9
		1095.9,1768.9 1102.9,1830.1 1099.4,1840.6 1095.9,1849.3 1088.9,1858.1 1085.4,1866.8 1076.6,1898.3 1076.6,1914 1076.6,1924.5
		1080.1,1933.3 1064.4,2012 1055.7,2034.7 1057.4,2038.2 1057.4,2045.2 1055.7,2045.2 1052.2,2045.2 1046.9,2053.9 1036.4,2067.9
		1027.7,2050.4 1022.4,2026 1024.2,2015.5 1022.4,2010.2 1013.7,1977 977,1887.8 966.5,1852.8 928,1753.1 905.2,1739.1
		903.5,1726.9 908.7,1709.4 880.8,1636 851,1576.5 809.1,1464.6 800.3,1445.3 819.5,1431.3 830,1415.6 828.3,1396.4 833.5,1382.4
		858,1354.4 870.3,1345.6 875.5,1340.4 880.8,1329.9 858,1310.7 861.5,1307.2 865,1298.4 875.5,1279.2 884.3,1263.4 905.2,1211
		917.5,1183 922.7,1163.7 922.7,1160.2 933.2,1120 936.7,1100.8 938.5,1097.3 943.7,1062.3 952.5,1020.3 952.5,1015.1 957.7,981.9
		964.7,910.2 966.5,889.2 966.5,869.9 977,864.7 985.7,873.4 990.9,869.9 999.7,859.4 1003.2,852.4 1003.2,845.4 999.7,821
		999.7,810.5 1003.2,800 1004.9,779 1003.2,772 1004.9,772 1052.2,772 1067.9,773.7 1080.1,782.5 1088.9,784.2 1102.9,782.5
		1123.9,772 1123.9,766.7 1129.1,759.7 1132.6,735.3 	"/>
	<polygon style="display:inline;fill:#E0DAD5;stroke:#FFFFFF;stroke-width:2;stroke-miterlimit:10;" points="2194.2,992.4
		2216.9,1057.1 2279.9,1036.1 2295.6,1081.5 2269.4,1107.8 2232.7,1144.5 2216.9,1163.7 2061.3,1207.5 1914.4,1252.9 1905.6,1254.7
		1832.2,1279.2 1764,1298.4 1681.8,1324.6 1624.1,1343.9 1722,1445.3 1785,1515.3 1807.7,1543.3 1952.8,1702.4 1856.7,1763.6
		1814.7,1882.5 1788.4,1887.8 1676.5,1914 1589.1,1933.3 1522.6,2062.7 1459.7,2123.9 1400.2,2176.4 1234,2144.9 1127.4,2125.6
		1057.4,2115.2 1055.7,2106.4 1057.4,2081.9 1060.9,2069.7 1066.1,2053.9 1057.4,2045.2 1057.4,2038.2 1055.7,2034.7 1064.4,2012
		1080.1,1933.3 1076.6,1924.5 1076.6,1914 1076.6,1898.3 1085.4,1866.8 1088.9,1858.1 1095.9,1849.3 1099.4,1840.6 1102.9,1830.1
		1095.9,1768.9 1090.6,1733.9 1090.6,1725.1 1102.9,1669.2 1104.6,1662.2 1115.1,1639.5 1123.9,1611.5 1123.9,1601 1134.4,1564.2
		1141.3,1553.8 1143.1,1550.3 1151.8,1543.3 1165.8,1490.8 1165.8,1482 1165.8,1468.1 1155.3,1450.6 1150.1,1443.6 1157.1,1398.1
		1162.3,1378.9 1162.3,1377.1 1162.3,1363.1 1160.6,1345.6 1160.6,1335.1 1160.6,1321.1 1162.3,1307.2 1162.3,1293.2 1171.1,1268.7
		1172.8,1259.9 1176.3,1249.4 1172.8,1226.7 1165.8,1191.7 1162.3,1167.2 1157.1,1149.8 1165.8,1092 1167.6,1086.8 1162.3,1029.1
		1160.6,1022.1 1157.1,1020.3 1157.1,934.6 1171.1,920.6 1172.8,917.1 1179.8,917.1 1190.3,910.2 1213.1,896.2 1221.8,897.9
		1265.5,906.7 1286.5,925.9 1295.3,945.1 1314.5,969.6 1328.5,976.6 1339,978.4 1351.2,973.1 1386.2,1001.1 1398.4,1009.8
		1417.7,1029.1 1442.2,1030.8 1450.9,1034.3 1489.4,1039.6 1513.9,1044.8 1550.6,1053.6 1557.6,1041.3 1641.5,987.1 1737.7,917.1
		1774.5,892.7 1870.6,829.7 1973.8,759.7 2033.3,719.5 2080.5,688 2108.5,672.3 2223.9,983.6 	"/>
	<polygon style="display:inline;fill:#E0DAD5;stroke:#FFFFFF;stroke-width:2;stroke-miterlimit:10;" points="1218.3,212.3
		1237.5,219.3 1253.3,219.3 1262,219.3 1262,215.8 1318,215.8 1339,219.3 1365.2,221.1 1365.2,231.6 1347.7,249.1 1339,254.3
		1337.2,268.3 1360,264.8 1367,270 1391.4,289.3 1400.2,324.3 1417.7,364.5 1428.2,373.2 1398.4,410 1365.2,434.4 1353,448.4
		1346,457.2 1333.7,478.2 1351.2,488.7 1360,488.7 1367,500.9 1365.2,509.7 1360,509.7 1323.2,497.4 1274.3,509.7 1260.3,530.6
		1246.3,548.1 1239.3,574.4 1248,574.4 1265.5,583.1 1276,593.6 1270.8,607.6 1242.8,639.1 1228.8,653.1 1221.8,654.8 1213.1,660.1
		1209.6,672.3 1204.3,681 1202.6,681 1199.1,682.8 1157.1,707.3 1157.1,719.5 1143.1,707.3 1132.6,735.3 1129.1,759.7 1123.9,766.7
		1123.9,772 1102.9,782.5 1088.9,784.2 1080.1,782.5 1067.9,773.7 1052.2,772 1004.9,772 1003.2,772 1013.7,759.7 1027.7,740.5
		1029.4,726.5 1032.9,716 1032.9,696.8 1043.4,653.1 1043.4,644.3 1052.2,635.6 1060.9,626.8 1067.9,616.3 1074.9,593.6
		1076.6,577.9 1080.1,558.6 1088.9,539.4 1094.1,525.4 1095.9,516.6 1095.9,509.7 1095.9,497.4 1095.9,495.7 1094.1,481.7
		1108.1,481.7 1113.4,481.7 1122.1,478.2 1137.9,441.4 1137.9,410 1132.6,396 1129.1,373.2 1134.4,368 1132.6,345.3 1137.9,334.8
		1179.8,292.8 1202.6,277 1227,257.8 1227,245.6 1223.5,226.3 	"/>
	<polygon style="display:inline;fill:#E0DAD5;stroke:#FFFFFF;stroke-width:2;stroke-miterlimit:10;" points="3031.9,-669.1
		3040.7,-655.1 3037.2,-651.6 3037.2,-649.9 2897.3,-487.2 2773.1,-459.2 2764.3,-440 2743.4,-398 2746.9,-289.6 2752.1,-282.6
		2785.3,-226.6 2792.3,-212.7 2802.8,-137.4 2785.3,-109.5 2774.8,-90.2 2774.8,-79.7 2774.8,-71 2776.6,-55.2 2774.8,-44.8
		2774.8,-36 2773.1,-22 2769.6,-2.8 2766.1,7.7 2766.1,16.5 2766.1,20 2773.1,47.9 2773.1,63.7 2780.1,116.1 2788.8,165.1
		2755.6,229.8 2741.6,277 2736.4,296.3 2640.2,354 2507.3,430.9 2498.5,436.2 2451.3,464.2 2393.6,500.9 2328.9,535.9 2276.4,569.1
		2155.7,640.8 2110.2,668.8 2108.5,672.3 2080.5,688 2033.3,719.5 1973.8,759.7 1870.6,829.7 1774.5,892.7 1737.7,917.1
		1641.5,987.1 1557.6,1041.3 1550.6,1053.6 1513.9,1044.8 1489.4,1039.6 1450.9,1034.3 1442.2,1030.8 1417.7,1029.1 1398.4,1009.8
		1386.2,1001.1 1351.2,973.1 1339,978.4 1328.5,976.6 1314.5,969.6 1295.3,945.1 1286.5,925.9 1265.5,906.7 1221.8,897.9
		1213.1,896.2 1190.3,910.2 1179.8,917.1 1179.8,911.9 1179.8,904.9 1181.6,892.7 1181.6,878.7 1172.8,873.4 1172.8,857.7
		1165.8,845.4 1162.3,843.7 1165.8,840.2 1167.6,829.7 1167.6,807 1167.6,787.7 1167.6,773.7 1167.6,759.7 1171.1,731.8 1171.1,730
		1172.8,719.5 1171.1,716 1167.6,716 1160.6,719.5 1157.1,719.5 1157.1,707.3 1199.1,682.8 1202.6,681 1204.3,681 1209.6,672.3
		1213.1,660.1 1221.8,654.8 1228.8,653.1 1242.8,639.1 1270.8,607.6 1276,593.6 1265.5,583.1 1248,574.4 1239.3,574.4 1246.3,548.1
		1260.3,530.6 1274.3,509.7 1323.2,497.4 1360,509.7 1365.2,509.7 1367,500.9 1360,488.7 1351.2,488.7 1333.7,478.2 1346,457.2
		1353,448.4 1365.2,434.4 1398.4,410 1428.2,373.2 1417.7,364.5 1400.2,324.3 1391.4,289.3 1367,270 1360,264.8 1337.2,268.3
		1339,254.3 1347.7,249.1 1365.2,231.6 1365.2,221.1 1339,219.3 1318,215.8 1262,215.8 1262,219.3 1253.3,219.3 1237.5,219.3
		1218.3,212.3 1209.6,196.6 1204.3,182.6 1185.1,131.9 1181.6,117.9 1179.8,91.7 1179.8,63.7 1179.8,49.7 1188.6,33.9 1195.6,16.5
		1193.8,6 1190.3,0.7 1185.1,-6.3 1176.3,-64 1157.1,-83.2 1132.6,-90.2 1118.6,-121.7 1129.1,-140.9 1141.3,-165.4 1146.6,-177.7
		1151.8,-221.4 1162.3,-245.9 1190.3,-235.4 1221.8,-221.4 1227,-217.9 1232.3,-209.2 1234,-205.7 1239.3,-207.4 1242.8,-217.9
		1242.8,-226.6 1242.8,-237.1 1251.5,-256.4 1274.3,-259.9 1295.3,-270.4 1295.3,-282.6 1293.5,-307.1 1290,-335.1 1293.5,-349.1
		1326.7,-354.3 1333.7,-356.1 1347.7,-354.3 1360,-349.1 1379.2,-354.3 1379.2,-373.6 1370.5,-382.3 1342.5,-413.8 1337.2,-422.5
		1332,-445.3 1337.2,-492.5 1353,-564.2 1351.2,-569.4 1353,-569.4 1365.2,-569.4 1433.4,-550.2 1450.9,-541.4 1466.6,-527.5
		1496.4,-506.5 1533.1,-508.2 1538.4,-508.2 1569.8,-506.5 1615.3,-513.5 1627.5,-520.5 1655.5,-536.2 1666,-539.7 1674.8,-539.7
		1685.3,-539.7 1718.5,-550.2 1727.2,-555.4 1737.7,-560.7 1746.5,-565.9 1757,-569.4 1765.7,-574.7 1776.2,-583.4 1800.7,-593.9
		1818.2,-597.4 1861.9,-592.2 1875.9,-588.7 1900.4,-578.2 1909.1,-572.9 1937.1,-546.7 1956.3,-531 1970.3,-522.2 1984.3,-522.2
		2028,-520.5 2042,-520.5 2052.5,-525.7 2064.8,-525.7 2071.8,-522.2 2080.5,-520.5 2091,-517 2103.3,-511.7 2119,-508.2
		2127.7,-511.7 2145.2,-513.5 2183.7,-520.5 2223.9,-527.5 2290.4,-541.4 2321.9,-551.9 2327.1,-555.4 2346.4,-564.2 2404.1,-592.2
		2418.1,-599.2 2423.3,-602.7 2460,-630.6 2468.8,-635.9 2479.3,-635.9 2488,-639.4 2523,-655.1 2531.7,-660.4 2537,-663.9
		2559.7,-672.6 2570.2,-674.4 2598.2,-674.4 2606.9,-674.4 2664.7,-663.9 2694.4,-655.1 2738.1,-655.1 2764.3,-658.6 2773.1,-658.6
		2792.3,-660.4 2876.3,-674.4 2921.7,-691.9 2937.5,-698.8 2946.2,-704.1 2962,-721.6 2970.7,-732.1 2981.2,-732.1 3007.4,-726.8
		3023.2,-712.8 3028.4,-674.4 	"/>
	<path style="display:inline;fill:#E0DAD5;stroke:#FFFFFF;stroke-width:2;stroke-miterlimit:10;" d="M1165.8,1092l-8.7,57.7
		l5.2,15.7l3.5,24.5l7,36.7l3.5,22.7l-3.5,10.5l-1.7,8.7l-8.7,24.5v14l-3.5,14v14v10.5h-7h-14l-5.2,5.2l-35,28l-5.2,8.7l-5.2,3.5
		l-24.5,3.5l-57.7,5.2l-10.5-3.5l-5.2-8.7v-10.5l5.2-12.2l5.2-14l3.5-8.7l-3.5-19.2l3.5-10.5l1.7-5.2l5.2-10.5l5.2-5.2l28-22.7
		l15.7-10.5l15.7-3.5l3.5-8.7l-21-14l-14-8.7l-22.7,5.2h-8.7l-10.5-3.5h-3.5v-10.5l3.5-38.5l1.7-8.7l1.7-14l-1.7-10.5l-8.7-28
		l-3.5-5.2l14-33.2l3.5-43.7l-3.5-5.2v-5.2l3.5-10.5l3.5-8.7l1.7-8.7l31.5-19.2l8.7-5.2l15.7,8.7h8.7h8.7h7l19.2,5.2l5.2,5.2
		l19.2,28l21,5.2l3.5,5.2l5.2,57.7L1165.8,1092z M1085.4,1233.7h-3.5v3.5l3.5,5.2h3.5v-7L1085.4,1233.7z"/>
</g>
<rect id="app_x5F_Lebanon--zoom" x="1078.0" y="441.7" style="fill:none;" width="115" height="64.6875"/>
<g id="NorthPoint" transform="translate(1831.070256, 181.453972) rotate(56.000000) translate(-1831.070256, -181.453972) translate(1792.570256, 137.953972)">
	<path id="Fill-933_1_" style="fill:#8A1538;" d="M25.1,83.8l7.6,9.8l-11.3-3.5L25.1,83.8z M19.7,92.5l20.1,5.3l-13-16L6.7,76.5
		L19.7,92.5z M25.1,83.8l7.6,9.8l-11.3-3.5L25.1,83.8z M19.7,92.5l20.1,5.3l-13-16L6.7,76.5L19.7,92.5z M25.1,83.8l7.6,9.8
		l-11.3-3.5L25.1,83.8z M39.8,97.8l-13-16L6.7,76.5l13,16L39.8,97.8z M12.7,66.9c11-5.4,24.3-1,29.9,10.2c5.4,11,1,24.3-10.2,29.9
		c-11,5.4-24.3,1-29.9-10.2C-2.9,85.8,1.5,72.6,12.7,66.9z M34.7,111.5C48.4,104.8,53.6,88.1,47,75c-6.7-13.6-23-18.7-36.7-12
		S-8.4,86.2-2,99.6C5.1,112.6,21.3,117.9,34.7,111.5z M25.1,83.8l7.6,9.8l-11.3-3.5L25.1,83.8z M19.7,92.5l20.1,5.3l-13-16L6.7,76.5
		L19.7,92.5z M25.1,83.8l7.6,9.8l-11.3-3.5L25.1,83.8z M19.7,92.5l20.1,5.3l-13-16L6.7,76.5L19.7,92.5z M25.1,83.8l7.6,9.8
		l-11.3-3.5L25.1,83.8z M19.7,92.5l20.1,5.3l-13-16L6.7,76.5L19.7,92.5z M25.1,83.8l7.6,9.8l-11.3-3.5L25.1,83.8z M19.7,92.5
		l20.1,5.3l-13-16L6.7,76.5L19.7,92.5z"/>
	<g id="Back-Copy-5_1_" transform="translate(34.000000, 0.000000)">

			<text transform="matrix(0.5505 -0.8348 0.8348 0.5505 -39.7716 73.5724)" style="fill:#8A1538; font-family:'ArialMT'; font-size:13.8803px;">N</text>
	</g>
</g>
<g id="app_x5F_Lebanon--button">
	<g id="Logo_Waterfront_1_">
		<polygon style="fill:#0E2243;" points="908,567.8 904.7,577.9 901.4,567.8 899,567.8 903.7,581.1 905.5,581.1 908.9,571.3
			912.2,581.1 914.2,581.1 918.9,567.8 916.6,567.8 913.3,577.9 910,567.8 		"/>
		<path style="fill:#0E2243;" d="M923,576.3c-1.5,0-2.4,0.7-2.4,1.7l0,0c0,0.9,0.8,1.6,2,1.6c1.6,0,2.7-0.9,2.7-2.2v-0.7l0,0
			C924.7,576.5,923.9,576.3,923,576.3 M922.1,581.2c-1.7,0-3.5-0.9-3.5-3.1l0,0c0-1.9,1.5-3.2,4-3.2c1.3,0,1.9,0.1,2.7,0.5h0.1v-0.3
			c0-1.5-0.9-2.3-2.6-2.3c-1.1,0-1.9,0.2-2.9,0.6l-0.6-1.7c1.1-0.5,2.2-0.8,3.8-0.8c2.9,0,4.3,1.5,4.3,4.2v5.9h-2.2v-1.4l-0.1,0.2
			C924.5,580.8,923.3,581.2,922.1,581.2"/>
		<path style="fill:#0E2243;" d="M932.9,581.2c-1.9,0-2.9-0.9-2.9-2.9v-5.5h-1.3V571h1.3v-2.7h2.2v2.7h2.7v1.8h-2.7v5
			c0,0.9,0.5,1.4,1.4,1.4c0.5,0,0.9-0.1,1.4-0.3v1.7C934.2,581.1,933.7,581.2,932.9,581.2"/>
		<path style="fill:#0E2243;" d="M940.8,572.5c-1.5,0-2.5,1-2.7,2.7v0.1h5.4v-0.1C943.3,573.7,942.2,572.5,940.8,572.5 M941.1,581.3
			c-3,0-5.1-2.2-5.1-5.2s2-5.2,4.9-5.2c3.5,0,4.8,2.9,4.8,5.4c0,0.2,0,0.3,0,0.6l0,0H938v0.1c0.2,1.6,1.4,2.6,3,2.6
			c1,0,1.9-0.3,2.7-1.1l1.3,1.1C944.1,580.6,942.7,581.3,941.1,581.3"/>
		<path style="fill:#0E2243;" d="M947,581v-9.9h2.2v2.2c0.5-1.1,1.6-2.4,3.5-2.4h0.1v2.3l0,0c-2.2,0-3.5,1.5-3.5,4.1v3.8L947,581
			L947,581z"/>
		<path style="fill:#0E2243;" d="M955.6,581v-8.1h-1.3v-1.7h1.3v-0.8c0-2.2,1-3.2,3.1-3.2c0.8,0,1.4,0.1,1.8,0.2v1.8
			c-0.5-0.1-0.8-0.2-1.3-0.2c-0.9,0-1.5,0.6-1.5,1.6v0.7h2.7v1.7h-2.6v8.1L955.6,581L955.6,581L955.6,581z"/>
		<path style="fill:#0E2243;" d="M961.8,581v-9.9h2.2v2.2c0.5-1.1,1.6-2.4,3.5-2.4h0.1v2.3l0,0c-2.2,0-3.5,1.5-3.5,4.1v3.8
			L961.8,581L961.8,581z"/>
		<path style="fill:#0E2243;" d="M973.5,572.8c-1.8,0-3.2,1.4-3.2,3.3c0,1.9,1.4,3.4,3.2,3.4s3.2-1.4,3.2-3.3
			C976.7,574.1,975.3,572.8,973.5,572.8 M973.5,581.3c-3,0-5.2-2.3-5.2-5.1c0-3,2.4-5.2,5.4-5.2s5.4,2.3,5.4,5.2
			C978.8,578.9,976.5,581.3,973.5,581.3"/>
		<path style="fill:#0E2243;" d="M987.1,581v-5.7c0-1.6-0.8-2.5-2.3-2.5s-2.4,1-2.4,2.6v5.6h-2.2v-9.9h2.2v1.8l0.1-0.2
			c0.8-1.1,1.8-1.7,3.1-1.7c2.2,0,3.5,1.5,3.5,3.8v6.4L987.1,581L987.1,581z"/>
		<path style="fill:#0E2243;" d="M994.8,581.2c-1.9,0-2.9-0.9-2.9-2.9v-5.5h-1.3V571h1.3v-2.7h2.2v2.7h2.7v1.8h-2.7v5
			c0,0.9,0.5,1.4,1.4,1.4c0.5,0,0.9-0.1,1.4-0.3v1.7C996.2,581.1,995.6,581.2,994.8,581.2"/>
		<path style="fill:#0E2243;" d="M1009.3,581.3c-3.9,0-6.7-3-6.7-6.8s3-6.8,6.8-6.8c2.6,0,4.1,1,5.1,2l-1.4,1.6
			c-1.3-1.1-2.4-1.6-3.8-1.6c-2.6,0-4.6,2-4.6,4.9c0,2.7,1.9,4.9,4.6,4.9c1.6,0,2.7-0.7,3.9-1.7l1.4,1.4
			C1013.1,580.6,1011.5,581.3,1009.3,581.3"/>
		<path style="fill:#0E2243;" d="M1016,567.3h2.3v2h-2.3V567.3L1016,567.3z M1016.1,571.1h2.2v9.9h-2.2V571.1L1016.1,571.1z"/>
		<path style="fill:#0E2243;" d="M1024.1,581.2c-1.9,0-2.9-0.9-2.9-2.9v-5.5h-1.3V571h1.3v-2.7h2.2v2.7h2.7v1.8h-2.7v5
			c0,0.9,0.5,1.4,1.4,1.4c0.5,0,0.9-0.1,1.4-0.3v1.7C1025.5,581.1,1024.9,581.2,1024.1,581.2"/>
		<path style="fill:#0E2243;" d="M1029.9,584.2c-0.8,0-1.5-0.1-2.3-0.6l0.7-1.6c0.5,0.2,0.9,0.3,1.4,0.3c0.7,0,1.2-0.3,1.5-1.3l0,0
			l-4.2-10h2.3l2.9,7.6l2.7-7.6h2.3l-4,10.3C1032.4,583.4,1031.5,584.2,1029.9,584.2"/>
		<g>
			<g>
				<g>
					<g>
						<g>
							<g>
								<g>
									<g>
										<defs>
											<polygon id="SVGID_1_" points="945,539.2 973.7,559.3 961,562.5 977.9,562.5 995.8,549.6 995.8,539.4 											"/>
										</defs>
										<clipPath id="SVGID_2_">
											<use xlink:href="#SVGID_1_"  style="overflow:visible;"/>
										</clipPath>
										<path style="clip-path:url(#SVGID_2_);fill:none;stroke:#72B63A;stroke-width:0.526;stroke-linecap:round;" d="
											M975.4,561.3c1.3,0.7,3.3-0.2,3.2,0.6c-0.1,0.6-2,0.9-2,0.9"/>
									</g>
								</g>
							</g>
						</g>
					</g>
				</g>
			</g>
			<g>
				<g>
					<g>
						<g>
							<g>
								<g>
									<g>
										<defs>
											<polygon id="SVGID_3_" points="945,539.2 973.7,559.3 961,562.5 977.9,562.5 995.8,549.6 995.8,539.4 											"/>
										</defs>
										<clipPath id="SVGID_4_">
											<use xlink:href="#SVGID_3_"  style="overflow:visible;"/>
										</clipPath>
										<path style="clip-path:url(#SVGID_4_);fill:none;stroke:#67B448;stroke-width:0.526;stroke-linecap:round;" d="
											M973.4,559.8c2.6,1.5,6.6-0.3,6.4,1.1c-0.2,1.3-4.2,1.8-4.2,1.8"/>
									</g>
								</g>
							</g>
						</g>
					</g>
				</g>
			</g>
			<g>
				<g>
					<g>
						<g>
							<g>
								<g>
									<g>
										<defs>
											<polygon id="SVGID_5_" points="945,539.2 973.7,559.3 961,562.5 977.9,562.5 995.8,549.6 995.8,539.4 											"/>
										</defs>
										<clipPath id="SVGID_6_">
											<use xlink:href="#SVGID_5_"  style="overflow:visible;"/>
										</clipPath>
										<path style="clip-path:url(#SVGID_6_);fill:none;stroke:#5FB356;stroke-width:0.526;stroke-linecap:round;" d="
											M971.2,558.3c3.9,2.2,9.8-0.6,9.6,1.6c-0.2,1.8-6.3,2.7-6.3,2.7"/>
									</g>
								</g>
							</g>
						</g>
					</g>
				</g>
			</g>
			<g>
				<g>
					<g>
						<g>
							<g>
								<g>
									<g>
										<defs>
											<polygon id="SVGID_7_" points="945,539.2 973.7,559.3 961,562.5 977.9,562.5 995.8,549.6 995.8,539.4 											"/>
										</defs>
										<clipPath id="SVGID_8_">
											<use xlink:href="#SVGID_7_"  style="overflow:visible;"/>
										</clipPath>
										<path style="clip-path:url(#SVGID_8_);fill:none;stroke:#50B061;stroke-width:0.526;stroke-linecap:round;" d="M969,556.8
											c5.2,3,13.1-0.7,12.6,2.2c-0.3,2.5-8.3,3.7-8.3,3.7"/>
									</g>
								</g>
							</g>
						</g>
					</g>
				</g>
			</g>
			<g>
				<g>
					<g>
						<g>
							<g>
								<g>
									<g>
										<defs>
											<polygon id="SVGID_9_" points="945,539.2 973.7,559.3 961,562.5 977.9,562.5 995.8,549.6 995.8,539.4 											"/>
										</defs>
										<clipPath id="SVGID_10_">
											<use xlink:href="#SVGID_9_"  style="overflow:visible;"/>
										</clipPath>
										<path style="clip-path:url(#SVGID_10_);fill:none;stroke:#44AF6E;stroke-width:0.526;stroke-linecap:round;" d="
											M967,555.3c6.5,3.7,16.4-0.9,15.8,2.7c-0.5,3.1-10.5,4.6-10.5,4.6"/>
									</g>
								</g>
							</g>
						</g>
					</g>
				</g>
			</g>
			<g>
				<g>
					<g>
						<g>
							<g>
								<g>
									<g>
										<defs>
											<polygon id="SVGID_11_" points="945,539.2 973.7,559.3 961,562.5 977.9,562.5 995.8,549.6 995.8,539.4 											"/>
										</defs>
										<clipPath id="SVGID_12_">
											<use xlink:href="#SVGID_11_"  style="overflow:visible;"/>
										</clipPath>
										<path style="clip-path:url(#SVGID_12_);fill:none;stroke:#2EAD7A;stroke-width:0.526;stroke-linecap:round;" d="
											M964.8,554c7.9,4.4,19.7-1,19,3.3c-0.6,3.7-12.6,5.5-12.6,5.5"/>
									</g>
								</g>
							</g>
						</g>
					</g>
				</g>
			</g>
			<g>
				<g>
					<g>
						<g>
							<g>
								<g>
									<g>
										<defs>
											<polygon id="SVGID_13_" points="945,539.2 973.7,559.3 961,562.5 977.9,562.5 995.8,549.6 995.8,539.4 											"/>
										</defs>
										<clipPath id="SVGID_14_">
											<use xlink:href="#SVGID_13_"  style="overflow:visible;"/>
										</clipPath>
										<path style="clip-path:url(#SVGID_14_);fill:none;stroke:#15AC85;stroke-width:0.526;stroke-linecap:round;" d="
											M962.7,552.5c9.1,5.1,23-1.3,22.2,3.8c-0.7,4.2-14.7,6.4-14.7,6.4"/>
									</g>
								</g>
							</g>
						</g>
					</g>
				</g>
			</g>
			<g>
				<g>
					<g>
						<g>
							<g>
								<g>
									<g>
										<defs>
											<polygon id="SVGID_15_" points="945,539.2 973.7,559.3 961,562.5 977.9,562.5 995.8,549.6 995.8,539.4 											"/>
										</defs>
										<clipPath id="SVGID_16_">
											<use xlink:href="#SVGID_15_"  style="overflow:visible;"/>
										</clipPath>
										<path style="clip-path:url(#SVGID_16_);fill:none;stroke:#00AB90;stroke-width:0.526;stroke-linecap:round;" d="
											M960.6,551c10.5,5.9,26.3-1.4,25.4,4.3c-0.8,4.9-16.9,7.3-16.9,7.3"/>
									</g>
								</g>
							</g>
						</g>
					</g>
				</g>
			</g>
			<g>
				<g>
					<g>
						<g>
							<g>
								<g>
									<g>
										<defs>
											<polygon id="SVGID_17_" points="945,539.2 973.7,559.3 961,562.5 977.9,562.5 995.8,549.6 995.8,539.4 											"/>
										</defs>
										<clipPath id="SVGID_18_">
											<use xlink:href="#SVGID_17_"  style="overflow:visible;"/>
										</clipPath>
										<path style="clip-path:url(#SVGID_18_);fill:none;stroke:#00A99B;stroke-width:0.526;stroke-linecap:round;" d="
											M958.4,549.5c11.8,6.6,29.5-1.6,28.6,4.9c-0.8,5.5-18.9,8.2-18.9,8.2"/>
									</g>
								</g>
							</g>
						</g>
					</g>
				</g>
			</g>
			<g>
				<g>
					<g>
						<g>
							<g>
								<g>
									<g>
										<defs>
											<polygon id="SVGID_19_" points="945,539.2 973.7,559.3 961,562.5 977.9,562.5 995.8,549.6 995.8,539.4 											"/>
										</defs>
										<clipPath id="SVGID_20_">
											<use xlink:href="#SVGID_19_"  style="overflow:visible;"/>
										</clipPath>
										<path style="clip-path:url(#SVGID_20_);fill:none;stroke:#00A8A5;stroke-width:0.526;stroke-linecap:round;" d="
											M956.3,548c13,7.3,32.8-1.7,31.7,5.5c-0.9,6.1-21.1,9.1-21.1,9.1"/>
									</g>
								</g>
							</g>
						</g>
					</g>
				</g>
			</g>
			<g>
				<g>
					<g>
						<g>
							<g>
								<g>
									<g>
										<defs>
											<polygon id="SVGID_21_" points="945,539.2 973.7,559.3 961,562.5 977.9,562.5 995.8,549.6 995.8,539.4 											"/>
										</defs>
										<clipPath id="SVGID_22_">
											<use xlink:href="#SVGID_21_"  style="overflow:visible;"/>
										</clipPath>
										<path style="clip-path:url(#SVGID_22_);fill:none;stroke:#00A6AF;stroke-width:0.526;stroke-linecap:round;" d="
											M954.2,546.6c14.4,8.1,36.2-1.9,34.9,5.9c-1,6.7-23.2,10-23.2,10"/>
									</g>
								</g>
							</g>
						</g>
					</g>
				</g>
			</g>
			<g>
				<g>
					<g>
						<g>
							<g>
								<g>
									<g>
										<defs>
											<polygon id="SVGID_23_" points="945,539.2 973.7,559.3 961,562.5 977.9,562.5 995.8,549.6 995.8,539.4 											"/>
										</defs>
										<clipPath id="SVGID_24_">
											<use xlink:href="#SVGID_23_"  style="overflow:visible;"/>
										</clipPath>
										<path style="clip-path:url(#SVGID_24_);fill:none;stroke:#00A5B8;stroke-width:0.526;stroke-linecap:round;" d="
											M952.1,545.2c15.6,8.8,39.5-2.2,38.1,6.5C989,559,965,562.6,965,562.6"/>
									</g>
								</g>
							</g>
						</g>
					</g>
				</g>
			</g>
			<g>
				<g>
					<g>
						<g>
							<g>
								<g>
									<g>
										<defs>
											<polygon id="SVGID_25_" points="945,539.2 973.7,559.3 961,562.5 977.9,562.5 995.8,549.6 995.8,539.4 											"/>
										</defs>
										<clipPath id="SVGID_26_">
											<use xlink:href="#SVGID_25_"  style="overflow:visible;"/>
										</clipPath>
										<path style="clip-path:url(#SVGID_26_);fill:none;stroke:#00A4C1;stroke-width:0.526;stroke-linecap:round;" d="
											M949.9,543.7c17,9.6,42.8-2.3,41.3,7.1c-1.3,7.9-27.4,11.9-27.4,11.9"/>
									</g>
								</g>
							</g>
						</g>
					</g>
				</g>
			</g>
			<g>
				<g>
					<g>
						<g>
							<g>
								<g>
									<g>
										<defs>
											<polygon id="SVGID_27_" points="945,539.2 973.7,559.3 961,562.5 977.9,562.5 995.8,549.6 995.8,539.4 											"/>
										</defs>
										<clipPath id="SVGID_28_">
											<use xlink:href="#SVGID_27_"  style="overflow:visible;"/>
										</clipPath>
										<path style="clip-path:url(#SVGID_28_);fill:none;stroke:#00A2C9;stroke-width:0.526;stroke-linecap:round;" d="
											M947.8,542.2c18.2,10.3,45.9-2.5,44.5,7.6c-1.3,8.6-29.4,12.6-29.4,12.6"/>
									</g>
								</g>
							</g>
						</g>
					</g>
				</g>
			</g>
			<g>
				<g>
					<g>
						<g>
							<g>
								<g>
									<g>
										<defs>
											<polygon id="SVGID_29_" points="945,539.2 973.7,559.3 961,562.5 977.9,562.5 995.8,549.6 995.8,539.4 											"/>
										</defs>
										<clipPath id="SVGID_30_">
											<use xlink:href="#SVGID_29_"  style="overflow:visible;"/>
										</clipPath>
										<path style="clip-path:url(#SVGID_30_);fill:none;stroke:#00A1D2;stroke-width:0.526;stroke-linecap:round;" d="
											M945.7,540.7c19.6,11.1,49.3-2.6,47.7,8.2c-1.4,9.1-31.6,13.6-31.6,13.6"/>
									</g>
								</g>
							</g>
						</g>
					</g>
				</g>
			</g>
			<g>
				<g>
					<g>
						<g>
							<g>
								<g>
									<g>
										<defs>
											<polygon id="SVGID_31_" points="945,539.2 973.7,559.3 961,562.5 977.9,562.5 995.8,549.6 995.8,539.4 											"/>
										</defs>
										<clipPath id="SVGID_32_">
											<use xlink:href="#SVGID_31_"  style="overflow:visible;"/>
										</clipPath>
										<path style="clip-path:url(#SVGID_32_);fill:none;stroke:#009FDA;stroke-width:0.526;stroke-linecap:round;" d="
											M943.6,539.2c20.9,11.8,52.6-2.9,50.8,8.7c-1.5,9.7-33.6,14.5-33.6,14.5"/>
									</g>
								</g>
							</g>
						</g>
					</g>
				</g>
			</g>
			<g>
				<g>
					<g>
						<g>
							<g>
								<g>
									<g>
										<defs>
											<polygon id="SVGID_33_" points="945,539.2 973.7,559.3 961,562.5 977.9,562.5 995.8,549.6 995.8,539.4 											"/>
										</defs>
										<clipPath id="SVGID_34_">
											<use xlink:href="#SVGID_33_"  style="overflow:visible;"/>
										</clipPath>
										<path style="clip-path:url(#SVGID_34_);fill:none;stroke:#009EE2;stroke-width:0.526;stroke-linecap:round;" d="
											M941.4,537.9c22.2,12.5,55.9-3,53.9,9.2c-1.6,10.4-35.8,15.4-35.8,15.4"/>
									</g>
								</g>
							</g>
						</g>
					</g>
				</g>
			</g>
		</g>
		<path style="fill:#575756;" d="M1006.3,585.9l-3.9,8.4h1.1l1-2.2h4.3l0.9,2.2h1.1l-3.9-8.4H1006.3L1006.3,585.9z M1005.1,591.1
			l1.7-3.9l1.7,3.9H1005.1L1005.1,591.1z"/>
		<polygon style="fill:#575756;" points="1017.9,592.4 1012.8,585.9 1011.8,585.9 1011.8,594.3 1012.9,594.3 1012.9,587.7
			1018.1,594.3 1019,594.3 1019,585.9 1017.9,585.9 		"/>
		<polygon style="fill:#575756;" points="982.3,585.9 981.1,585.9 981.1,594.3 986.8,594.3 986.8,593.3 982.3,593.3 		"/>
		<polygon style="fill:#575756;" points="1035.4,585.9 1035.4,592.4 1030.4,585.9 1029.4,585.9 1029.4,594.3 1030.5,594.3
			1030.5,587.7 1035.6,594.3 1036.5,594.3 1036.5,585.9 		"/>
		<path style="fill:#575756;" d="M1028.5,590.1c0-0.6-0.1-1.1-0.3-1.6c-0.2-0.6-0.5-1-0.9-1.4c-0.5-0.3-0.8-0.7-1.4-0.9
			s-1.1-0.3-1.7-0.3s-1.3,0.1-1.7,0.3c-0.6,0.2-1,0.6-1.4,0.9c-0.4,0.4-0.7,0.9-0.9,1.4c-0.2,0.6-0.3,1-0.3,1.7l0,0
			c0,0.6,0.1,1.1,0.3,1.6c0.2,0.6,0.5,1,0.9,1.4c0.3,0.3,0.8,0.7,1.4,0.9c0.6,0.2,1.1,0.3,1.7,0.3c0.7,0,1.3-0.1,1.7-0.3
			c0.6-0.2,1-0.6,1.4-0.9c0.4-0.4,0.7-0.9,0.9-1.4C1028.3,591.2,1028.5,590.7,1028.5,590.1L1028.5,590.1L1028.5,590.1L1028.5,590.1
			L1028.5,590.1z M1024.1,593.4c-0.5,0-0.9-0.1-1.3-0.2c-0.3-0.2-0.7-0.5-1-0.7c-0.2-0.3-0.5-0.7-0.7-1c-0.1-0.5-0.2-0.8-0.2-1.3
			l0,0c0-0.5,0.1-0.9,0.2-1.3c0.1-0.3,0.3-0.8,0.7-1c0.2-0.3,0.6-0.6,1-0.7c0.3-0.1,0.8-0.2,1.3-0.2s0.9,0.1,1.3,0.2
			c0.3,0.2,0.7,0.5,1,0.7c0.2,0.3,0.5,0.7,0.7,1c0.1,0.5,0.2,0.8,0.2,1.3l0,0c0,0.5-0.1,0.9-0.2,1.3c-0.1,0.3-0.3,0.8-0.7,1
			c-0.2,0.3-0.6,0.6-1,0.7C1025,593.3,1024.6,593.4,1024.1,593.4L1024.1,593.4z"/>
		<polygon style="fill:#575756;" points="989.2,590.6 993.8,590.6 993.8,589.5 989.2,589.5 989.2,586.9 994.2,586.9 994.2,585.9
			988.2,585.9 988.2,594.3 994.3,594.3 994.3,593.3 989.2,593.3 		"/>
		<path style="fill:#575756;" d="M1001.8,590.6c-0.1-0.1-0.3-0.3-0.6-0.5c-0.1-0.1-0.3-0.1-0.5-0.2c0.1,0,0.2-0.1,0.2-0.2
			c0.1-0.1,0.3-0.2,0.5-0.5c0.1-0.1,0.2-0.3,0.3-0.6s0.1-0.5,0.1-0.7l0,0c0-0.6-0.2-1-0.6-1.4c-0.2-0.2-0.6-0.5-0.9-0.6
			c-0.4-0.1-0.8-0.2-1.3-0.2h-3.5v8.4h3.8c0.5,0,0.9,0,1.3-0.1c0.3-0.1,0.7-0.2,1-0.5c0.2-0.2,0.5-0.5,0.7-0.7
			c0.1-0.3,0.2-0.6,0.2-1l0,0c0-0.3,0-0.6-0.1-0.8C1002.1,590.9,1002,590.8,1001.8,590.6L1001.8,590.6z M1000.7,588.2L1000.7,588.2
			c0,0.5-0.1,0.8-0.5,1c-0.3,0.2-0.8,0.3-1.4,0.3h-2.3v-2.6h2.4c0.6,0,1,0.1,1.3,0.3C1000.6,587.5,1000.7,587.8,1000.7,588.2
			L1000.7,588.2z M996.6,590.6h2.5c0.7,0,1.3,0.1,1.6,0.3s0.5,0.6,0.5,0.9l0,0c0,0.5-0.1,0.8-0.5,1c-0.3,0.2-0.8,0.3-1.4,0.3h-2.6
			L996.6,590.6L996.6,590.6L996.6,590.6z"/>
	</g>
	<g id="Beirut-marker">
		<g transform="translate(1032.000000, 577.000000)">
			<polygon id="Fill-124_5_" style="fill:#8A1538;" points="91.1,-11.5 91.1,12.2 99,12.2 102.9,16.5 107,12.2 114.9,12.2
				114.9,-11.5 			"/>
			<g id="Group_5_" transform="translate(5.000000, 5.000000)">
				<path id="Path_11_" style="fill:#FFFFFF;" d="M97.4-11c-3.8,0-6.5,2.5-6.5,6v6.7h2.2c0,0,0-3.7,0-6.7c0-3.1,2.4-5.4,4.8-5.9
					c0.1,0,0.2,0,0.1,0L97.4-11L97.4-11z"/>
				<path id="Path_10_" style="fill:#FFFFFF;" d="M97.9-10.7c-0.2,0.1-0.6,0.2-0.9,0.5c-1.7,1-2.4,3-2.6,4.9c0,0.1,0,0.2,0,0.3l0,0
					v0.1v6.7h2.2v-6.7c0-0.5,0.2-0.8,0.5-1l0.8,1l0.8-1c0.3,0.2,0.5,0.6,0.5,1v6.7h2.2v-6.7c0-2-1.6-3.6-3.6-3.6
					c-0.5,0-0.9,0.1-1.3,0.2l0,0c0.5-0.6,1.2-0.8,1.9-0.8l0,0c0.2,0,0.5,0,0.7,0c2,0.3,3.5,2,3.5,3.9c0,0.1,0,0.1,0,0.2v6.6h2.2V-5
					c0-2.9-1.7-5.2-4.6-5.9c-0.1,0-0.2-0.1-0.5-0.1c-0.2,0-0.5,0-0.7,0C98.6-11,98.3-10.9,97.9-10.7z"/>
			</g>
		</g>
		<path id="Line-4-Copy-3" style="fill:none;stroke:#8A1538;stroke-width:2.2095;" d="M1122.7,579.5h-73"/>
		<text transform="matrix(1 0 0 1 1161.7041 584.2)" style="fill:#8A1538; font-family:'MarselisPro'; font-size:16.9987px;">BEIRUT</text>
	</g>
</g>
</svg>
