<?xml version="1.0" encoding="utf-8"?>
<!-- Generator: Adobe Illustrator 19.1.0, SVG Export Plug-In . SVG Version: 6.00 Build 0)  -->
<svg version="1.1" id="app_x5F_Lebanon-region--parent"
	 xmlns="http://www.w3.org/2000/svg" xmlns:xlink="http://www.w3.org/1999/xlink" x="0px" y="0px" width="3840px" height="2160px"
	 viewBox="0 0 3840 2160" style="enable-background:new 0 0 3840 2160;" xml:space="preserve">
<g id="app_x5_Dummy--marker">
	<rect x="3840" y="-2160" width="2" height="2"/>
</g>
<g id="app_x5F_region--data" style="display:none;">
	<polygon style="display:inline;fill:#E0DAD5;stroke:#FFFFFF;stroke-width:4;stroke-miterlimit:10;" points="6082.4,-2810.4 
		5991.4,-2751 5984.4,-2744 5980.8,-2740.6 5970.4,-2723 5963.4,-2705.6 5963.4,-2698.6 5963.4,-2677.6 5963.4,-2667 
		5963.4,-2639.2 6015.8,-2590.2 6050.8,-2555.2 6064.8,-2541.2 6075.4,-2527.2 6082.4,-2516.6 6085.8,-2495.6 6075.4,-2495.6 
		6057.8,-2506.2 6047.4,-2513.2 6019.4,-2513.2 6008.8,-2506.2 5991.4,-2506.2 5984.4,-2502.6 5980.8,-2502.6 5977.4,-2495.6 
		5970.4,-2485.2 5959.8,-2478.2 5949.4,-2485.2 5935.4,-2495.6 5925,-2502.6 5907.4,-2502.6 5893.4,-2506.2 5858.4,-2506.2 
		5848,-2502.6 5837.4,-2495.6 5827,-2478.2 5827,-2467.8 5820,-2450.2 5820,-2436.2 5827,-2422.2 5809.4,-2394.2 5760.6,-2369.8 
		5673,-2327.8 5645,-2317.4 5617.2,-2317.4 5582.2,-2306.8 5543.6,-2313.8 5533.2,-2313.8 5522.6,-2306.8 5515.6,-2306.8 
		5494.6,-2296.4 5473.6,-2278.8 5372.2,-2285.8 5354.8,-2285.8 5319.8,-2278.8 5305.8,-2275.4 5302.4,-2268.4 5284.8,-2268.4 
		5274.4,-2268.4 5249.8,-2275.4 5239.4,-2278.8 5145,-2313.8 5134.4,-2317.4 5096,-2345.2 5050.4,-2429.2 5036.4,-2464.2 
		5001.4,-2555.2 4998,-2565.6 4998,-2583.2 4998,-2593.6 5008.4,-2593.6 5012,-2583.2 5019,-2579.6 5029.4,-2572.6 5040,-2562.2 
		5047,-2555.2 5057.4,-2551.6 5075,-2551.6 5092.4,-2555.2 5096,-2562.2 5106.4,-2572.6 5131,-2593.6 5131,-2600.6 5141.4,-2621.6 
		5141.4,-2628.6 5155.4,-2649.6 5169.4,-2646 5200.8,-2656.6 5218.4,-2660 5263.8,-2656.6 5291.8,-2646 5312.8,-2632.2 
		5323.2,-2628.6 5330.2,-2628.6 5344.2,-2632.2 5354.8,-2639.2 5361.8,-2646 5365.2,-2649.6 5372.2,-2660 5372.2,-2667 
		5379.2,-2716 5382.8,-2761.6 5417.8,-2789.6 5578.6,-2765 5627.6,-2761.6 5638,-2761.6 5648.6,-2761.6 5673,-2761.6 5701,-2761.6 
		5792,-2775.6 5802.4,-2775.6 5841,-2800 5865.4,-2810.4 5876,-2814 5897,-2810.4 5925,-2814 5932,-2814 5991.4,-2838.4 
		6173.2,-2933 6187.2,-2936.4 6201.2,-2950.4 6201.2,-2954 6208.2,-2961 6211.8,-2964.4 6229.2,-2971.4 6323.6,-3013.4 
		6344.6,-3020.4 6334.2,-2988.8 6236.2,-2908.4 6173.2,-2866.4 6162.8,-2859.4 6141.8,-2849 	"/>
	<polygon style="display:inline;fill:#E0DAD5;stroke:#FFFFFF;stroke-width:4;stroke-miterlimit:10;" points="7086.2,-1285.4 
		7114.2,-1261 7121.2,-1261 7135.2,-1268 7142.2,-1268 7145.6,-1261 7142.2,-1240 7142.2,-1236.4 7135.2,-1180.6 7135.2,-1152.6 
		7135.2,-1124.6 7135.2,-1086 7135.2,-1040.6 7131.6,-1019.6 7124.6,-1012.6 7131.6,-1009.2 7145.6,-984.6 7145.6,-953.2 
		7163.2,-942.6 7163.2,-914.6 7159.6,-890.2 7159.6,-876.2 7159.6,-865.8 7145.6,-865.8 7142.2,-858.8 7114.2,-830.8 7114.2,-659.4 
		7121.2,-655.8 7075.8,-666.4 7037.2,-722.2 7026.8,-732.8 6988.2,-743.2 6970.8,-743.2 6953.2,-743.2 6935.8,-743.2 6904.4,-760.8 
		6886.8,-746.8 6827.4,-708.4 6820.4,-690.8 6816.8,-676.8 6809.8,-655.8 6809.8,-641.8 6816.8,-631.4 6809.8,-544 6781.8,-477.4 
		6788.8,-467 6806.4,-411 6809.8,-390 6806.4,-362 6799.4,-344.6 6792.4,-267.6 6792.4,-246.6 6799.4,-246.6 6820.4,-239.6 
		6837.8,-239.6 6883.4,-250 6911.4,-232.6 6953.2,-204.6 6949.8,-190.6 6914.8,-183.6 6883.4,-162.6 6827.4,-117.2 6816.8,-106.6 
		6806.4,-85.6 6799.4,-75.2 6792.4,-50.8 6799.4,-12.2 6792.4,1.8 6781.8,29.8 6771.4,54.2 6771.4,75.2 6781.8,92.8 6806.4,96.2 
		6921.8,85.8 6970.8,82.2 6981.2,75.2 6991.8,57.8 7065.2,1.8 7075.8,-8.8 7103.6,-8.8 7121.2,-8.8 7124.6,26.2 7124.6,54.2 
		7124.6,57.8 7114.2,96.2 7100.2,187.2 7110.6,201.2 7131.6,236.2 7131.6,264 7131.6,281.6 7103.6,386.6 7086.2,400.6 7082.6,407.6 
		7068.8,428.4 7047.8,502 7047.8,523 7030.2,579 7009.2,624.4 7005.8,638.4 6981.2,750.2 6981.2,767.8 6991.8,837.8 7005.8,960.2 
		6998.8,981.2 6991.8,998.6 6977.8,1016.2 6970.8,1033.6 6953.2,1096.6 6953.2,1128 6953.2,1149 6960.2,1166.6 6928.8,1324 
		6911.4,1369.4 6914.8,1376.4 6914.8,1390.4 6911.4,1390.4 6904.4,1390.4 6893.8,1407.8 6872.8,1435.8 6855.4,1400.8 6844.8,1352 
		6848.4,1331 6844.8,1320.4 6827.4,1254 6754,1075.6 6733,1005.6 6656,806.2 6610.4,778.2 6607,753.8 6617.4,718.8 6561.6,572 
		6502,453 6418.2,229.2 6400.6,190.6 6439,162.6 6460,131.2 6456.6,92.8 6467,64.8 6516,8.8 6540.6,-8.8 6551,-19.2 6561.6,-40.2 
		6516,-78.6 6523,-85.6 6530,-103.2 6551,-141.6 6568.6,-173.2 6610.4,-278 6635,-334 6645.4,-372.6 6645.4,-379.6 6666.4,-460 
		6673.4,-498.4 6677,-505.4 6687.4,-575.4 6705,-659.4 6705,-669.8 6715.4,-736.2 6729.4,-879.6 6733,-921.6 6733,-960.2 
		6754,-970.6 6771.4,-953.2 6781.8,-960.2 6799.4,-981.2 6806.4,-995.2 6806.4,-1009.2 6799.4,-1058 6799.4,-1079 6806.4,-1100 
		6809.8,-1142 6806.4,-1156 6809.8,-1156 6904.4,-1156 6935.8,-1152.6 6960.2,-1135 6977.8,-1131.6 7005.8,-1135 7047.8,-1156 
		7047.8,-1166.6 7058.2,-1180.6 7065.2,-1229.4 	"/>
	<polygon style="display:inline;fill:#E0DAD5;stroke:#FFFFFF;stroke-width:4;stroke-miterlimit:10;" points="9188.4,-715.2 
		9233.8,-585.8 9359.8,-627.8 9391.2,-537 9338.8,-484.4 9265.4,-411 9233.8,-372.6 8922.6,-285 8628.8,-194.2 8611.2,-190.6 
		8464.4,-141.6 8328,-103.2 8163.6,-50.8 8048.2,-12.2 8244,190.6 8370,330.6 8415.4,386.6 8705.6,704.8 8513.4,827.2 8429.4,1065 
		8376.8,1075.6 8153,1128 7978.2,1166.6 7845.2,1425.4 7719.4,1547.8 7600.4,1652.8 7268,1589.8 7054.8,1551.2 6914.8,1530.4 
		6911.4,1512.8 6914.8,1463.8 6921.8,1439.4 6932.2,1407.8 6914.8,1390.4 6914.8,1376.4 6911.4,1369.4 6928.8,1324 6960.2,1166.6 
		6953.2,1149 6953.2,1128 6953.2,1096.6 6970.8,1033.6 6977.8,1016.2 6991.8,998.6 6998.8,981.2 7005.8,960.2 6991.8,837.8 
		6981.2,767.8 6981.2,750.2 7005.8,638.4 7009.2,624.4 7030.2,579 7047.8,523 7047.8,502 7068.8,428.4 7082.6,407.6 7086.2,400.6 
		7103.6,386.6 7131.6,281.6 7131.6,264 7131.6,236.2 7110.6,201.2 7100.2,187.2 7114.2,96.2 7124.6,57.8 7124.6,54.2 7124.6,26.2 
		7121.2,-8.8 7121.2,-29.8 7121.2,-57.8 7124.6,-85.6 7124.6,-113.6 7142.2,-162.6 7145.6,-180.2 7152.6,-201.2 7145.6,-246.6 
		7131.6,-316.6 7124.6,-365.6 7114.2,-400.4 7131.6,-516 7135.2,-526.4 7124.6,-641.8 7121.2,-655.8 7114.2,-659.4 7114.2,-830.8 
		7142.2,-858.8 7145.6,-865.8 7159.6,-865.8 7180.6,-879.6 7226.2,-907.6 7243.6,-904.2 7331,-886.6 7373,-848.2 7390.6,-809.8 
		7429,-760.8 7457,-746.8 7478,-743.2 7502.4,-753.8 7572.4,-697.8 7596.8,-680.4 7635.4,-641.8 7684.4,-638.4 7701.8,-631.4 
		7778.8,-620.8 7827.8,-610.4 7901.2,-592.8 7915.2,-617.4 8083,-725.8 8275.4,-865.8 8349,-914.6 8541.2,-1040.6 8747.6,-1180.6 
		8866.6,-1261 8961,-1324 9017,-1355.4 9247.8,-732.8 	"/>
	<polygon style="display:inline;fill:#E0DAD5;stroke:#FFFFFF;stroke-width:4;stroke-miterlimit:10;" points="7236.6,-2275.4 
		7275,-2261.4 7306.6,-2261.4 7324,-2261.4 7324,-2268.4 7436,-2268.4 7478,-2261.4 7530.4,-2257.8 7530.4,-2236.8 7495.4,-2201.8 
		7478,-2191.4 7474.4,-2163.4 7520,-2170.4 7534,-2160 7582.8,-2121.4 7600.4,-2051.4 7635.4,-1971 7656.4,-1953.6 7596.8,-1880 
		7530.4,-1831.2 7506,-1803.2 7492,-1785.6 7467.4,-1743.6 7502.4,-1722.6 7520,-1722.6 7534,-1698.2 7530.4,-1680.6 7520,-1680.6 
		7446.4,-1705.2 7348.6,-1680.6 7320.6,-1638.8 7292.6,-1603.8 7278.6,-1551.2 7296,-1551.2 7331,-1533.8 7352,-1512.8 
		7341.6,-1484.8 7285.6,-1421.8 7257.6,-1393.8 7243.6,-1390.4 7226.2,-1379.8 7219.2,-1355.4 7208.6,-1338 7205.2,-1338 
		7198.2,-1334.4 7114.2,-1285.4 7114.2,-1261 7086.2,-1285.4 7065.2,-1229.4 7058.2,-1180.6 7047.8,-1166.6 7047.8,-1156 
		7005.8,-1135 6977.8,-1131.6 6960.2,-1135 6935.8,-1152.6 6904.4,-1156 6809.8,-1156 6806.4,-1156 6827.4,-1180.6 6855.4,-1219 
		6858.8,-1247 6865.8,-1268 6865.8,-1306.4 6886.8,-1393.8 6886.8,-1411.4 6904.4,-1428.8 6921.8,-1446.4 6935.8,-1467.4 
		6949.8,-1512.8 6953.2,-1544.2 6960.2,-1582.8 6977.8,-1621.2 6988.2,-1649.2 6991.8,-1666.8 6991.8,-1680.6 6991.8,-1705.2 
		6991.8,-1708.6 6988.2,-1736.6 7016.2,-1736.6 7026.8,-1736.6 7044.2,-1743.6 7075.8,-1817.2 7075.8,-1880 7065.2,-1908 
		7058.2,-1953.6 7068.8,-1964 7065.2,-2009.4 7075.8,-2030.4 7159.6,-2114.4 7205.2,-2146 7254,-2184.4 7254,-2208.8 7247,-2247.4 	
		"/>
	<polygon style="display:inline;fill:#E0DAD5;stroke:#FFFFFF;stroke-width:4;stroke-miterlimit:10;" points="10863.8,-4038.2 
		10881.4,-4010.2 10874.4,-4003.2 10874.4,-3999.8 10594.6,-3674.4 10346.2,-3618.4 10328.6,-3580 10286.8,-3496 10293.8,-3279.2 
		10304.2,-3265.2 10370.6,-3153.2 10384.6,-3125.4 10405.6,-2974.8 10370.6,-2919 10349.6,-2880.4 10349.6,-2859.4 10349.6,-2842 
		10353.2,-2810.4 10349.6,-2789.6 10349.6,-2772 10346.2,-2744 10339.2,-2705.6 10332.2,-2684.6 10332.2,-2667 10332.2,-2660 
		10346.2,-2604.2 10346.2,-2572.6 10360.2,-2467.8 10377.6,-2369.8 10311.2,-2240.4 10283.2,-2146 10272.8,-2107.4 10080.4,-1992 
		9814.6,-1838.2 9797,-1827.6 9702.6,-1771.6 9587.2,-1698.2 9457.8,-1628.2 9352.8,-1561.8 9111.4,-1418.4 9020.4,-1362.4 
		9017,-1355.4 8961,-1324 8866.6,-1261 8747.6,-1180.6 8541.2,-1040.6 8349,-914.6 8275.4,-865.8 8083,-725.8 7915.2,-617.4 
		7901.2,-592.8 7827.8,-610.4 7778.8,-620.8 7701.8,-631.4 7684.4,-638.4 7635.4,-641.8 7596.8,-680.4 7572.4,-697.8 7502.4,-753.8 
		7478,-743.2 7457,-746.8 7429,-760.8 7390.6,-809.8 7373,-848.2 7331,-886.6 7243.6,-904.2 7226.2,-907.6 7180.6,-879.6 
		7159.6,-865.8 7159.6,-876.2 7159.6,-890.2 7163.2,-914.6 7163.2,-942.6 7145.6,-953.2 7145.6,-984.6 7131.6,-1009.2 
		7124.6,-1012.6 7131.6,-1019.6 7135.2,-1040.6 7135.2,-1086 7135.2,-1124.6 7135.2,-1152.6 7135.2,-1180.6 7142.2,-1236.4 
		7142.2,-1240 7145.6,-1261 7142.2,-1268 7135.2,-1268 7121.2,-1261 7114.2,-1261 7114.2,-1285.4 7198.2,-1334.4 7205.2,-1338 
		7208.6,-1338 7219.2,-1355.4 7226.2,-1379.8 7243.6,-1390.4 7257.6,-1393.8 7285.6,-1421.8 7341.6,-1484.8 7352,-1512.8 
		7331,-1533.8 7296,-1551.2 7278.6,-1551.2 7292.6,-1603.8 7320.6,-1638.8 7348.6,-1680.6 7446.4,-1705.2 7520,-1680.6 
		7530.4,-1680.6 7534,-1698.2 7520,-1722.6 7502.4,-1722.6 7467.4,-1743.6 7492,-1785.6 7506,-1803.2 7530.4,-1831.2 7596.8,-1880 
		7656.4,-1953.6 7635.4,-1971 7600.4,-2051.4 7582.8,-2121.4 7534,-2160 7520,-2170.4 7474.4,-2163.4 7478,-2191.4 7495.4,-2201.8 
		7530.4,-2236.8 7530.4,-2257.8 7478,-2261.4 7436,-2268.4 7324,-2268.4 7324,-2261.4 7306.6,-2261.4 7275,-2261.4 7236.6,-2275.4 
		7219.2,-2306.8 7208.6,-2334.8 7170.2,-2436.2 7163.2,-2464.2 7159.6,-2516.6 7159.6,-2572.6 7159.6,-2600.6 7177.2,-2632.2 
		7191.2,-2667 7187.6,-2688 7180.6,-2698.6 7170.2,-2712.6 7152.6,-2828 7114.2,-2866.4 7065.2,-2880.4 7037.2,-2943.4 
		7058.2,-2981.8 7082.6,-3030.8 7093.2,-3055.4 7103.6,-3142.8 7124.6,-3191.8 7180.6,-3170.8 7243.6,-3142.8 7254,-3135.8 
		7264.6,-3118.4 7268,-3111.4 7278.6,-3114.8 7285.6,-3135.8 7285.6,-3153.2 7285.6,-3174.2 7303,-3212.8 7348.6,-3219.8 
		7390.6,-3240.8 7390.6,-3265.2 7387,-3314.2 7380,-3370.2 7387,-3398.2 7453.4,-3408.6 7467.4,-3412.2 7495.4,-3408.6 
		7520,-3398.2 7558.4,-3408.6 7558.4,-3447.2 7541,-3464.6 7485,-3527.6 7474.4,-3545 7464,-3590.6 7474.4,-3685 7506,-3828.4 
		7502.4,-3838.8 7506,-3838.8 7530.4,-3838.8 7666.8,-3800.4 7701.8,-3782.8 7733.2,-3755 7792.8,-3713 7866.2,-3716.4 
		7876.8,-3716.4 7939.6,-3713 8030.6,-3727 8055,-3741 8111,-3772.4 8132,-3779.4 8149.6,-3779.4 8170.6,-3779.4 8237,-3800.4 
		8254.4,-3810.8 8275.4,-3821.4 8293,-3831.8 8314,-3838.8 8331.4,-3849.4 8352.4,-3866.8 8401.4,-3887.8 8436.4,-3894.8 
		8523.8,-3884.4 8551.8,-3877.4 8600.8,-3856.4 8618.2,-3845.8 8674.2,-3793.4 8712.6,-3762 8740.6,-3744.4 8768.6,-3744.4 
		8856,-3741 8884,-3741 8905,-3751.4 8929.6,-3751.4 8943.6,-3744.4 8961,-3741 8982,-3734 9006.6,-3723.4 9038,-3716.4 
		9055.4,-3723.4 9090.4,-3727 9167.4,-3741 9247.8,-3755 9380.8,-3782.8 9443.8,-3803.8 9454.2,-3810.8 9492.8,-3828.4 
		9608.2,-3884.4 9636.2,-3898.4 9646.6,-3905.4 9720,-3961.2 9737.6,-3971.8 9758.6,-3971.8 9776,-3978.8 9846,-4010.2 
		9863.4,-4020.8 9874,-4027.8 9919.4,-4045.2 9940.4,-4048.8 9996.4,-4048.8 10013.8,-4048.8 10129.4,-4027.8 10188.8,-4010.2 
		10276.2,-4010.2 10328.6,-4017.2 10346.2,-4017.2 10384.6,-4020.8 10552.6,-4048.8 10643.4,-4083.8 10675,-4097.6 10692.4,-4108.2 
		10724,-4143.2 10741.4,-4164.2 10762.4,-4164.2 10814.8,-4153.6 10846.4,-4125.6 10856.8,-4048.8 	"/>
	<path style="display:inline;fill:#E0DAD5;stroke:#FFFFFF;stroke-width:4;stroke-miterlimit:10;" d="M7131.6-516l-17.4,115.4
		l10.4,31.4l7,49l14,73.4l7,45.4l-7,21l-3.4,17.4l-17.4,49v28l-7,28v28v21h-14h-28l-10.4,10.4l-70,56L6985,74.8l-10.4,7l-49,7
		l-115.4,10.4l-21-7l-10.4-17.4v-21l10.4-24.4l10.4-28l7-17.4l-7-38.4l7-21l3.4-10.4l10.4-21l10.4-10.4l56-45.4l31.4-21l31.4-7
		l7-17.4l-42-28l-28-17.4l-45.4,10.4h-17.4l-21-7h-7v-21l7-77l3.4-17.4l3.4-28l-3.4-21l-17.4-56l-7-10.4l28-66.4l7-87.4l-7-10.4
		v-10.4l7-21l7-17.4l3.4-17.4l63-38.4l17.4-10.4l31.4,17.4h17.4h17.4h14l38.4,10.4l10.4,10.4l38.4,56l42,10.4l7,10.4l10.4,115.4
		L7131.6-516z M6970.8-232.6h-7v7l7,10.4h7v-14L6970.8-232.6z"/>
</g>
<rect id="app_x5F_Lebanon--zoom" x="2156" y="883.4" style="fill:none;" width="230" height="129.4"/>
<g id="NorthPoint" transform="translate(1831.070256, 181.453972) rotate(56.000000) translate(-1831.070256, -181.453972) translate(1792.570256, 137.953972)">
	<path id="Fill-933_1_" style="fill:#8A1538;" d="M1186.1-1292.5l15.2,19.6l-22.6-7L1186.1-1292.5z M1175.3-1275.1l40.2,10.6l-26-32
		l-40.2-10.6L1175.3-1275.1z M1186.1-1292.5l15.2,19.6l-22.6-7L1186.1-1292.5z M1175.3-1275.1l40.2,10.6l-26-32l-40.2-10.6
		L1175.3-1275.1z M1186.1-1292.5l15.2,19.6l-22.6-7L1186.1-1292.5z M1215.5-1264.5l-26-32l-40.2-10.6l26,32L1215.5-1264.5z
		 M1161.3-1326.3c22-10.8,48.6-2,59.8,20.4c10.8,22,2,48.6-20.4,59.8c-22,10.8-48.6,2-59.8-20.4
		C1130.1-1288.5,1138.9-1314.9,1161.3-1326.3z M1205.3-1237.1c27.4-13.4,37.8-46.8,24.6-73c-13.4-27.2-46-37.4-73.4-24
		s-37.4,46.4-24.6,73.2C1146.1-1234.9,1178.5-1224.3,1205.3-1237.1z M1186.1-1292.5l15.2,19.6l-22.6-7L1186.1-1292.5z
		 M1175.3-1275.1l40.2,10.6l-26-32l-40.2-10.6L1175.3-1275.1z M1186.1-1292.5l15.2,19.6l-22.6-7L1186.1-1292.5z M1175.3-1275.1
		l40.2,10.6l-26-32l-40.2-10.6L1175.3-1275.1z M1186.1-1292.5l15.2,19.6l-22.6-7L1186.1-1292.5z M1175.3-1275.1l40.2,10.6l-26-32
		l-40.2-10.6L1175.3-1275.1z M1186.1-1292.5l15.2,19.6l-22.6-7L1186.1-1292.5z M1175.3-1275.1l40.2,10.6l-26-32l-40.2-10.6
		L1175.3-1275.1z"/>
	<g id="Back-Copy-5_1_" transform="translate(34.000000, 0.000000)">
		
			<text transform="matrix(0.5505 -0.8348 0.8348 0.5505 1090.3038 -1312.9082)" style="fill:#8A1538; font-family:'ArialMT'; font-size:27.7598px;">N</text>
	</g>
</g>
<g id="app_x5F_Lebanon--button">
	<polygon id="tap_x5F_area" style="fill:#FFFFFF;fill-opacity:0;" points="1670,1416.8 1670,884.6 2183.2,884.6 2620,1071.8 
		2620,1233.2 2183.2,1425.8 	"/>
	<rect id="app_x5F_Beirut--tap" x="2232" y="1118.4" style="fill:#FFFFFF;fill-opacity:0;" width="75" height="75"/>
	<g id="Beirut-marker">
		<g transform="translate(1032.000000, 577.000000)">
			<polygon id="Fill-124_5_" style="fill:#8A1538;" points="1214.2,554 1214.2,601.4 1230,601.4 1237.8,610 1246,601.4 
				1261.8,601.4 1261.8,554 			"/>
			<g id="Group_5_" transform="translate(5.000000, 5.000000)">
				<path id="Path_11_" style="fill:#FFFFFF;" d="M1231.8,560c-7.6,0-13,5-13,12v13.4h4.4c0,0,0-7.4,0-13.4c0-6.2,4.8-10.8,9.6-11.8
					c0.2,0,0.4,0,0.2,0L1231.8,560L1231.8,560z"/>
				<path id="Path_10_" style="fill:#FFFFFF;" d="M1232.8,560.6c-0.4,0.2-1.2,0.4-1.8,1c-3.4,2-4.8,6-5.2,9.8c0,0.2,0,0.4,0,0.6l0,0
					v0.2v13.4h4.4v-13.4c0-1,0.4-1.6,1-2l1.6,2l1.6-2c0.6,0.4,1,1.2,1,2v13.4h4.4v-13.4c0-4-3.2-7.2-7.2-7.2c-1,0-1.8,0.2-2.6,0.4
					l0,0c1-1.2,2.4-1.6,3.8-1.6l0,0c0.4,0,1,0,1.4,0c4,0.6,7,4,7,7.8c0,0.2,0,0.2,0,0.4v13.2h4.4V572c0-5.8-3.4-10.4-9.2-11.8
					c-0.2,0-0.4-0.2-1-0.2c-0.4,0-1,0-1.4,0C1234.2,560,1233.6,560.2,1232.8,560.6z"/>
			</g>
		</g>
		<path id="Line-4-Copy-3" style="fill:none;stroke:#8A1538;stroke-width:4.419;" d="M2245.4,1159h-146"/>
		<text transform="matrix(1 0 0 1 2323.4082 1168.4004)" style="fill:#8A1538; font-family:'MarselisPro'; font-size:33.9974px;">BEIRUT</text>
	</g>
	<g id="waterfront-logo">
		<path style="fill:#575756;" d="M1994.2,1187.4h-4v-12.9h3.8c3.7,0,6.2,2.7,6.2,6.4C2000.2,1184.8,1997.8,1187.3,1994.2,1187.4
			 M1994,1173.1h-5.1v15.6h5.3c4.4,0,7.4-3.2,7.4-7.8C2001.5,1176.4,1998.3,1173.1,1994,1173.1"/>
		<path style="fill:none;stroke:#575756;stroke-width:0.7224;stroke-miterlimit:10;" d="M1994.2,1187.4h-4v-12.9h3.8
			c3.7,0,6.2,2.7,6.2,6.4C2000.2,1184.8,1997.8,1187.3,1994.2,1187.4 M1994,1173.1h-5.1v15.6h5.3c4.4,0,7.4-3.2,7.4-7.8
			C2001.5,1176.4,1998.3,1173.1,1994,1173.1"/>
		<path style="fill:#575756;" d="M2010.9,1187.4h-4v-6.5h3.6c3,0,4.6,1.1,4.6,3.2C2015,1186.2,2013.7,1187.4,2010.9,1187.4
			 M2006.9,1174.4h3.7c1.6,0,3.5,0.5,3.5,2.6c0,2.2-2.1,2.7-3.9,2.7h-3.3V1174.4L2006.9,1174.4z M2013.5,1180.1c1.2-0.6,2-1.8,2-3.2
			c0-2.5-1.7-3.9-4.8-3.9h-5.1v15.6h5.4c3.4,0,5.4-1.7,5.4-4.6C2016.4,1182.3,2015.3,1180.6,2013.5,1180.1"/>
		<path style="fill:none;stroke:#575756;stroke-width:0.7224;stroke-miterlimit:10;" d="M2010.9,1187.4h-4v-6.5h3.6
			c3,0,4.6,1.1,4.6,3.2C2015,1186.2,2013.7,1187.4,2010.9,1187.4 M2006.9,1174.4h3.7c1.6,0,3.5,0.5,3.5,2.6c0,2.2-2.1,2.7-3.9,2.7
			h-3.3V1174.4L2006.9,1174.4z M2013.5,1180.1c1.2-0.6,2-1.8,2-3.2c0-2.5-1.7-3.9-4.8-3.9h-5.1v15.6h5.4c3.4,0,5.4-1.7,5.4-4.6
			C2016.4,1182.3,2015.3,1180.6,2013.5,1180.1"/>
		<polygon style="fill:#575756;" points="2043.2,1173.1 2038.6,1180.7 2034.1,1173.1 2032.6,1173.1 2038,1182 2038,1188.7 
			2039.3,1188.7 2039.3,1182.1 2044.6,1173.1 		"/>
		<polygon style="fill:none;stroke:#575756;stroke-width:0.7224;stroke-miterlimit:10;" points="2043.2,1173.1 2038.6,1180.7 
			2034.1,1173.1 2032.6,1173.1 2038,1182 2038,1188.7 2039.3,1188.7 2039.3,1182.1 2044.6,1173.1 		"/>
		<polygon style="fill:#575756;" points="2048.4,1173.1 2048.4,1188.7 2058.2,1188.7 2058.2,1187.4 2049.7,1187.4 2049.7,1180.9 
			2057.6,1180.9 2057.6,1179.6 2049.7,1179.6 2049.7,1174.4 2058.2,1174.4 2058.2,1173.1 		"/>
		<polygon style="fill:none;stroke:#575756;stroke-width:0.7224;stroke-miterlimit:10;" points="2048.4,1173.1 2048.4,1188.7 
			2058.2,1188.7 2058.2,1187.4 2049.7,1187.4 2049.7,1180.9 2057.6,1180.9 2057.6,1179.6 2049.7,1179.6 2049.7,1174.4 
			2058.2,1174.4 2058.2,1173.1 		"/>
		<polygon style="fill:#575756;" points="2073.1,1173.1 2073.1,1179.6 2063.9,1179.6 2063.9,1173.1 2062.5,1173.1 2062.5,1188.7 
			2063.9,1188.7 2063.9,1180.9 2073.1,1180.9 2073.1,1188.7 2074.4,1188.7 2074.4,1173.1 		"/>
		<polygon style="fill:none;stroke:#575756;stroke-width:0.7174;stroke-miterlimit:10;" points="2072.8,1173.1 2072.8,1179.6 
			2063.9,1179.6 2063.9,1173.1 2062.5,1173.1 2062.5,1188.8 2063.9,1188.8 2063.9,1181 2072.8,1181 2072.8,1188.8 2074.1,1188.8 
			2074.1,1173.1 		"/>
		<path style="fill:#575756;" d="M2025.8,1173.1l-6.6,15.6h1.4l2-4.7h7.3l2,4.7h1.4l-6.6-15.6H2025.8z M2026.2,1175.4l3.1,7.2h-6.1
			L2026.2,1175.4z"/>
		<path style="fill:none;stroke:#575756;stroke-width:0.7224;stroke-miterlimit:10;" d="M2025.8,1173.1l-6.6,15.6h1.4l2-4.7h7.3
			l2,4.7h1.4l-6.6-15.6H2025.8z M2026.2,1175.4l3.1,7.2h-6.1L2026.2,1175.4z"/>
		<g>
			<g>
				<g>
					<g>
						<g>
							<g>
								<defs>
									<polygon id="SVGID_1_" points="1942.4,1116.8 1918.7,1123 1950.3,1123 1983.5,1098.3 1983.5,1078.8 1888.9,1078.4 
																			"/>
								</defs>
								<clipPath id="SVGID_2_">
									<use xlink:href="#SVGID_1_"  style="overflow:visible;"/>
								</clipPath>
								<g style="clip-path:url(#SVGID_2_);">
									<path style="fill:none;stroke:#72B63A;stroke-width:0.9599;stroke-linecap:round;" d="M1945.6,1120.5
										c2.4,1.4,6.1-0.4,5.9,1.1c-0.2,1.2-3.9,1.8-3.9,1.8"/>
									<path style="fill:none;stroke:#67B448;stroke-width:0.9599;stroke-linecap:round;" d="M1941.7,1117.7
										c4.9,2.8,12.2-0.7,11.8,2.1c-0.3,2.3-7.9,3.5-7.9,3.5"/>
									<path style="fill:none;stroke:#5FB356;stroke-width:0.9599;stroke-linecap:round;" d="M1937.7,1114.9
										c7.3,4.2,18.3-1,17.7,3.1c-0.5,3.5-11.8,5.2-11.8,5.2"/>
									<path style="fill:none;stroke:#50B061;stroke-width:0.9599;stroke-linecap:round;" d="M1933.8,1112.1
										c9.7,5.6,24.4-1.4,23.6,4.2c-0.7,4.7-15.7,7-15.7,7"/>
									<path style="fill:none;stroke:#44AF6E;stroke-width:0.9599;stroke-linecap:round;" d="M1929.8,1109.3
										c12.1,7,30.5-1.7,29.5,5.2c-0.9,5.8-19.6,8.7-19.6,8.7"/>
									<path style="fill:none;stroke:#2EAD7A;stroke-width:0.9599;stroke-linecap:round;" d="M1925.9,1106.5
										c14.6,8.4,36.7-2,35.4,6.3c-1,7-23.5,10.4-23.5,10.4"/>
									<path style="fill:none;stroke:#15AC85;stroke-width:0.9599;stroke-linecap:round;" d="M1921.9,1103.7
										c17,9.8,42.8-2.4,41.4,7.3c-1.2,8.2-27.4,12.1-27.4,12.1"/>
									<path style="fill:none;stroke:#00AB90;stroke-width:0.9599;stroke-linecap:round;" d="M1918,1100.9
										c19.4,11.2,48.9-2.7,47.3,8.3c-1.4,9.3-31.3,13.9-31.3,13.9"/>
									<path style="fill:none;stroke:#00A99B;stroke-width:0.9599;stroke-linecap:round;" d="M1914,1098.1
										c21.9,12.6,55-3.1,53.2,9.4c-1.6,10.5-35.2,15.7-35.2,15.7"/>
									<path style="fill:none;stroke:#00A8A5;stroke-width:0.9599;stroke-linecap:round;" d="M1910.1,1095.3
										c24.3,14.1,61.1-3.4,59.1,10.4c-1.8,11.6-39.2,17.4-39.2,17.4"/>
									<path style="fill:none;stroke:#00A6AF;stroke-width:0.9599;stroke-linecap:round;" d="M1906.1,1092.5
										c26.7,15.5,67.2-3.7,65,11.4c-1.9,12.8-43.1,19.1-43.1,19.1"/>
									<path style="fill:none;stroke:#00A5B8;stroke-width:0.9599;stroke-linecap:round;" d="M1902.1,1089.7
										c29.1,16.9,73.3-4.1,70.9,12.5c-2.1,14-47,20.8-47,20.8"/>
									<path style="fill:none;stroke:#00A4C1;stroke-width:0.9599;stroke-linecap:round;" d="M1898.1,1086.9
										c31.6,18.3,79.5-4.4,76.8,13.5c-2.2,15.2-50.9,22.6-50.9,22.6"/>
									<path style="fill:none;stroke:#00A2C9;stroke-width:0.9599;stroke-linecap:round;" d="M1894.2,1084.1
										c34,19.7,85.6-4.7,82.7,14.6c-2.4,16.3-54.8,24.3-54.8,24.3"/>
									<path style="fill:none;stroke:#00A1D2;stroke-width:0.9599;stroke-linecap:round;" d="M1890.2,1081.3
										c36.4,21.1,91.7-5.1,88.6,15.6c-2.6,17.5-58.7,26-58.7,26"/>
									<path style="fill:none;stroke:#009FDA;stroke-width:0.9599;stroke-linecap:round;" d="M1886.3,1078.5
										c38.8,22.5,97.8-5.4,94.5,16.7c-2.8,18.7-62.6,27.8-62.6,27.8"/>
									<path style="fill:none;stroke:#009EE2;stroke-width:0.9599;stroke-linecap:round;" d="M1882.3,1075.7
										c41.3,23.9,103.9-5.7,100.4,17.7c-3,19.8-66.5,29.6-66.5,29.6"/>
								</g>
							</g>
						</g>
					</g>
				</g>
			</g>
		</g>
		<polygon style="fill:#0E2243;" points="1814.7,1137.1 1808.5,1156.6 1802.4,1137.2 1798,1137.2 1806.6,1162.7 1810.1,1162.7 
			1816.4,1143.9 1822.7,1162.7 1826.2,1162.7 1834.8,1137.2 1830.5,1137.2 1824.5,1156.6 1818.2,1137.1 		"/>
		<path style="fill:#0E2243;" d="M1842,1163c-3.3,0-6.5-1.8-6.5-5.8v-0.2c0-3.8,2.8-6.1,7.5-6.1c1.8-0.1,3.5,0.3,5.2,0.8l0.2,0.1
			v-0.7c0-2.8-1.7-4.3-4.8-4.3c-1.8,0-3.6,0.4-5.3,1.2l-1.1-3.3c2.2-1.1,4.6-1.6,7-1.6c5.3,0,8.1,2.8,8.1,8v11.3h-4v-2.7l-0.3,0.4
			C1846.5,1162,1844.3,1163,1842,1163 M1843.9,1153.5c-2.8,0-4.5,1.2-4.5,3.3v0.1c0,1.8,1.5,3,3.8,3c3,0,5.2-1.8,5.2-4.3v-1.4
			l-0.1-0.1C1846.8,1153.8,1845.4,1153.5,1843.9,1153.5"/>
		<path style="fill:#0E2243;" d="M1863.5,1162.9c-3.5,0-5.3-1.8-5.3-5.5V1147h-2.4v-3.5h2.4v-5.3h4v5.3h5.1v3.5h-5.1v9.7
			c0,1.7,0.8,2.6,2.5,2.6c0.9,0,1.7-0.2,2.5-0.6v3.3C1866.1,1162.6,1864.8,1162.9,1863.5,1162.9"/>
		<path style="fill:#0E2243;" d="M1880,1163c-5.5,0-9.5-4.2-9.5-9.9c0-5.8,3.9-10,9.1-10c6.5,0,8.9,5.6,8.9,10.3c0,0.4,0,0.7,0,1
			l0,0h-13.9v0.2c0.5,3.1,2.6,5.1,5.6,5.1c2,0,3.5-0.7,5.1-2.3l2.3,2.1C1885.6,1161.8,1882.8,1163.1,1880,1163 M1879.5,1146.3
			c-2.6,0-4.6,2.1-5,5.3v0.2h10v-0.2C1884.1,1148.4,1882.2,1146.3,1879.5,1146.3"/>
		<path style="fill:#0E2243;" d="M1892.3,1162.6v-19.1h4v4.2c1-2.8,3.6-4.6,6.5-4.6h0.2v4.4h-0.1c-4.1,0-6.6,2.9-6.6,7.8v7.2
			L1892.3,1162.6z"/>
		<path style="fill:#0E2243;" d="M1909.5,1162.6V1147h-2.4v-3.4h2.4v-1.6c0-4.1,1.9-6.2,5.6-6.2c1.1,0,2.2,0.2,3.3,0.5v3.4
			c-0.8-0.3-1.6-0.4-2.4-0.4c-1.8,0-2.7,1.1-2.7,3.1v1.3h5v3.3h-4.9v15.6L1909.5,1162.6L1909.5,1162.6z"/>
		<path style="fill:#0E2243;" d="M1922.4,1162.6v-19.1h4v4.2c1-2.8,3.6-4.6,6.5-4.6h0.2v4.4h-0.1c-4.1,0-6.6,2.9-6.6,7.8v7.2
			L1922.4,1162.6z"/>
		<path style="fill:#0E2243;" d="M1945.3,1163c-5.5,0-9.9-4.4-9.9-9.9s4.3-10,9.7-10c0,0,0.1,0,0.2,0c5.5,0,9.9,4.4,9.9,9.9
			C1955.2,1158.6,1950.9,1163,1945.3,1163 M1945.3,1146.6c-3.4,0-5.9,2.7-5.9,6.4c0,3.7,2.5,6.5,5.9,6.5s5.9-2.7,5.9-6.4
			S1948.7,1146.6,1945.3,1146.6"/>
		<path style="fill:#0E2243;" d="M1971.9,1162.6v-10.8c0-3.1-1.5-4.9-4.2-4.9s-4.4,2-4.4,5v10.8h-4v-19.1h4v3.4l0.3-0.5
			c1.5-2.3,3.3-3.4,5.8-3.4c4,0,6.5,2.8,6.5,7.3v12.2H1971.9z"/>
		<path style="fill:#0E2243;" d="M1987.5,1162.9c-3.6,0-5.3-1.8-5.3-5.5V1147h-2.4v-3.5h2.4v-5.3h4v5.3h5.1v3.5h-5.1v9.7
			c0,1.7,0.8,2.6,2.5,2.6c0.9,0,1.7-0.2,2.5-0.6v3.3C1990.1,1162.6,1988.8,1162.9,1987.5,1162.9"/>
		<path style="fill:#0E2243;" d="M2018.7,1163c-7.2,0-12.5-5.6-12.5-13.1s5.5-13.1,12.7-13.1c4.9,0,7.6,1.9,9.6,3.9l-2.6,3.1
			c-2.3-2.2-4.4-3.1-7-3.1c-4.8,0-8.4,4-8.4,9.3c0,5.3,3.6,9.3,8.4,9.3c3.1,0,5-1.3,7.2-3.3l2.6,2.7
			C2025.7,1161.7,2022.7,1163,2018.7,1163"/>
		<path style="fill:#0E2243;" d="M2032.6,1143.5h4v19.1h-4V1143.5z M2032.4,1136.3h4.3v3.9h-4.3V1136.3z"/>
		<path style="fill:#0E2243;" d="M2048.7,1162.9c-3.6,0-5.3-1.8-5.3-5.5V1147h-2.4v-3.5h2.4v-5.3h4v5.3h5.1v3.5h-5.1v9.7
			c0,1.7,0.8,2.6,2.5,2.6c0.9,0,1.7-0.2,2.5-0.6v3.3C2051.3,1162.6,2050.1,1162.9,2048.7,1162.9"/>
		<path style="fill:#0E2243;" d="M2060.9,1168.5c-1.5,0-2.9-0.4-4.2-1.1l1.3-3c0.7,0.4,1.6,0.7,2.4,0.7c1.3,0,2.1-0.7,2.8-2.4v-0.1
			l-7.8-19.2h4.2l5.5,14.7l5-14.7h4.1l-7.4,19.7C2065.5,1167.1,2063.9,1168.5,2060.9,1168.5"/>
	</g>
</g>
<title>Combined Logos</title>
</svg>
