<?xml version="1.0" encoding="utf-8"?>
<!-- Generator: Adobe Illustrator 19.1.0, SVG Export Plug-In . SVG Version: 6.00 Build 0)  -->
<svg version="1.1" id="app_x5F_Muscat-road--parent"
	 xmlns="http://www.w3.org/2000/svg" xmlns:xlink="http://www.w3.org/1999/xlink" x="0px" y="0px" width="1920px" height="1080px"
	 viewBox="0 0 1920 1080" style="enable-background:new 0 0 1920 1080;" xml:space="preserve">
<g id="Map_Data" style="display:none;">
	<g style="display:inline;">
		<path style="fill:#FFFFFF;" d="M837.4,917.6l25.6,21.5l2.8,2.3l1.1,9.3v4.4l-4,5.8l-2.3,6.3l-3.3,9.1v9.6c0,0,1.2,2.3,2.1,9.1
			c0.9,6.8,2.8,10,2.8,10l1.2,5.8l0.5,8.9l0.9,8.2l-3.5,5.6l-12.8,4.9h-3.6h-1.5v-3.3l-1.4-1.2c0,0-2.8,0.5-4.4,1.6
			s-9.8,5.1-9.8,5.1l-1.9,2.1l-4.9-7l-5.8-4.9l-3.5-0.9l-10.3-0.2h-2.6v-3l5.6-1.9l10.5-0.7l4-3.3l6.1-3l7.9-5.4l6.5-6.5l5.5-5.1
			l5.9-3l3.1-3.5v-2.8v-11.3l-1.2-6.7c0,0,0.6-2.3,1.2-3.5c0.6-1.2,1.6-2.1,2.5-3.7s3-7,3-7s3.3-5.8,3.3-7s0.9-4,0.9-6.3
			s-3.7-8.2-3.7-8.2l-3-1.6l-3-0.5l-4.5,0.9c0,0,0-4.7-0.5-5.4s-1.6-2.3-1.6-2.3h-2.4l-6.9-1.4c0,0,0-0.2-0.7-1.4s-1.4-4-1.4-4v-2.6
			L837.4,917.6z"/>
		<path style="fill:#FFFFFF;" d="M868.4,999.8l0.9,8.9l2.3,2.1l3-1.4l6.3-1.6l1.9-2.5l2.8-4.1c0,0-0.7-4.4,0-5.4s0-0.9,0-0.9
			l-7.2,1.6c0,0,0.3,0-1.2,0.9c-1.6,0.9-1.8,1.4-2.5,1.4S871,999,871,999L868.4,999.8z"/>
	</g>
	<circle style="display:inline;fill:none;stroke:#FFFFFF;stroke-width:2;stroke-miterlimit:10;" cx="68.5" cy="307" r="7.3"/>
	<polyline style="display:inline;fill:none;stroke:#FFFFFF;stroke-width:2;stroke-miterlimit:10;" points="1326.4,642.6 
		1327.1,653.8 1319.4,683.3 1320.8,734.4 1292.1,835.3 1306.8,906.1 1378.9,924.3 1551.3,878.7 1591.9,850 1614.3,837.4 
		1636.1,812.2 1685.8,808 1816.6,756.1 1831.1,754.3 1860.5,753.8 1894.6,762.2 1971.7,763.6 	"/>
	<path style="display:inline;fill:none;stroke:#FFFFFF;stroke-width:2;stroke-miterlimit:10;" d="M1549.2,708.7
		c-26.4-5.2-53-9.3-79.7-13.1c-13.6-1.9-27.2-3.7-40.8-5.4c-11.5-1.5-28-0.4-37.8-7.2c-3.6-2.5-6.8-5.5-10.8-7.2
		c-7.1-3.1-14.6-1.5-21.7,0.4c-8,2.1-13.7,2.9-21.9,2.3c-54.6-4.5-107.5-15.1-160.8-27.4c-14.8-3.4-31.8-0.6-47.1-0.7
		c-17.1,0-34.1-0.4-51.2-0.9c-34.1-1.1-68.2-3.1-102.3-5c-94.1-5.1-222.8-19.1-307.9-59.5"/>
	<g style="display:inline;">
		<polyline style="fill:none;stroke:#FFFFFF;stroke-width:2;stroke-miterlimit:10;" points="1305.6,905.8 1279.7,960.5 
			1274.8,979.4 1253.1,1009.5 1211,1057.8 1191.4,1079.6 1179.5,1101.3 1169,1137.7 1164.1,1176.2 1159.9,1202.9 1152.2,1216.9 
			1106.6,1255.4 		"/>
	</g>
	<polyline style="display:inline;fill:none;stroke:#FFFFFF;stroke-width:2;stroke-linecap:round;stroke-miterlimit:10;" points="
		150.4,846 167.2,873.6 194.8,878.7 237.3,878.3 273.3,874.5 302.7,876.9 342.4,883.9 359.7,882.9 355,863.3 350.4,844.3 	"/>
	
		<line style="display:inline;fill:none;stroke:#FFFFFF;stroke-width:5;stroke-linecap:round;stroke-miterlimit:10;" x1="277.2" y1="838.9" x2="191.7" y2="854.7"/>
	
		<line style="display:inline;fill:none;stroke:#FFFFFF;stroke-width:5;stroke-linecap:round;stroke-miterlimit:10;" x1="183.7" y1="846.5" x2="176.7" y2="738.5"/>
	<polyline style="display:inline;fill:none;stroke:#FFFFFF;stroke-width:2;stroke-linecap:round;stroke-miterlimit:10;" points="
		182.3,861 187.9,902.1 199.6,948.3 194.4,976.8 171.1,1006.7 157.1,995.5 	"/>
	<g style="display:inline;">
		<polyline style="fill:none;stroke:#FFFFFF;stroke-width:2;stroke-linecap:round;stroke-miterlimit:10;" points="355.6,866.2 
			361.2,884.4 395.5,911.1 420.7,947.5 445.3,956.6 490.8,951.7 557.4,913.2 		"/>
		
			<circle style="fill:none;stroke:#FFFFFF;stroke-width:2;stroke-linecap:round;stroke-miterlimit:10;" cx="563.7" cy="910.7" r="6.3"/>
		<polyline style="fill:none;stroke:#FFFFFF;stroke-width:2;stroke-linecap:round;stroke-miterlimit:10;" points="560.5,904.8 
			542.3,876 524.1,848 524.8,840.3 529.3,802 		"/>
		<polyline style="fill:none;stroke:#FFFFFF;stroke-width:2;stroke-linecap:round;stroke-miterlimit:10;" points="554.2,893.5 
			555.3,865.2 563.7,847.3 565.4,831.9 571.8,793.1 		"/>
		<path style="fill:none;stroke:#FFFFFF;stroke-width:2;stroke-linecap:round;stroke-miterlimit:10;" d="M566.1,917l9.5,25.9
			l-2.5,25.2l-49.7,74.6c0,0-10.5,17.2-4.2,42.7l41,129.4"/>
	</g>
	<path style="display:inline;fill:none;stroke:#FFFFFF;stroke-width:2;stroke-miterlimit:10;" d="M570.4,906.9l20.4-6.6l176.6-15.1
		l96.5-16.4l209.4-1.3l179.9,4.6l84.7,2.6l23.6,14.4l99.1-7.2l4.6-23l26.9-24.9l66.5-59.5c0,0,63.5-0.9,68.1-1.5s22.3-3.9,22.3-3.9
		l23-15.1l53.2,2c0,0,32.8,15.1,30.9,36.8l-1.3,24.3l-0.7,32.2l9.2,18.4"/>
	<polyline style="display:inline;fill:none;stroke:#FFFFFF;stroke-width:2;stroke-miterlimit:10;" points="926.3,737.5 881.8,699.8 
		823.8,670.7 	"/>
	<path style="display:inline;fill:none;stroke:#FFFFFF;stroke-width:2;stroke-miterlimit:10;" d="M922.1,737.3c0,0-42,6.7-49,44.8"
		/>
	<circle style="display:inline;fill:none;stroke:#FFFFFF;stroke-width:5;stroke-miterlimit:10;" cx="183.7" cy="853.5" r="7"/>
	<polyline style="display:inline;fill:none;stroke:#FFFFFF;stroke-width:2;stroke-miterlimit:10;" points="1974.5,753.9 
		1947.8,743.1 1934.3,708.1 1924.5,688 1889.5,688 1840.4,693.2 1819.4,689.4 1795.1,661.9 1804.9,624.5 1824.5,605.8 1873.6,587.1 
		1903,587.1 1917.9,581.1 1922.1,586.9 	"/>
	<polyline style="display:inline;fill:none;stroke:#FFFFFF;stroke-width:2;stroke-miterlimit:10;" points="1644.7,697.8 1646.1,687 
		1647.5,672.1 1652.2,668.8 1685.3,667.4 1703.1,661.8 1747.9,660.4 1826.9,659 1850.2,659.1 	"/>
	<polyline style="display:inline;fill:none;stroke:#FFFFFF;stroke-width:2;stroke-miterlimit:10;" points="1648.4,671.4 1669,688.6 
		1677.3,697 	"/>
	<polyline style="display:inline;fill:none;stroke:#FFFFFF;stroke-width:2;stroke-linecap:round;stroke-miterlimit:10;" points="
		1647.5,672.1 1627.2,685.6 1560.9,687.7 1542.2,700.1 1459.4,694.3 	"/>
	<polyline style="display:inline;fill:none;stroke:#FFFFFF;stroke-width:2;stroke-linecap:round;stroke-miterlimit:10;" points="
		2251.9,497.3 2250.5,470.7 2228.8,447.6 2194.5,445.5 2173.4,424.5 2165,430.8 2153.1,430.1 2149.6,419.6 2137.7,420.3 
		2051.5,472.1 1987.8,505.8 1942.9,523.3 1858.2,561.1 1796.2,581.8 	"/>
	<g style="display:inline;">
		<polyline style="fill:none;stroke:#FFFFFF;stroke-width:2;stroke-linecap:round;stroke-miterlimit:10;" points="1310.3,766.4 
			1236,744 1195.4,737.7 1144.2,719.4 1111.3,706.8 1066.5,705.4 1027.9,717.3 1006.9,725 		"/>
		<polyline style="fill:none;stroke:#FFFFFF;stroke-width:2;stroke-linecap:round;stroke-miterlimit:10;" points="1315.9,743.3 
			1248.2,716.2 1227.1,724.1 1199.1,720.8 1193.5,738.1 		"/>
		<polyline style="fill:none;stroke:#FFFFFF;stroke-width:2;stroke-linecap:round;stroke-miterlimit:10;" points="1256.1,667.5 
			1244,703.6 1248.2,716.2 		"/>
		
			<line style="fill:none;stroke:#FFFFFF;stroke-width:2;stroke-linecap:round;stroke-miterlimit:10;" x1="1204.7" y1="657.8" x2="1177.2" y2="731.1"/>
		<polyline style="fill:none;stroke:#FFFFFF;stroke-width:2;stroke-linecap:round;stroke-miterlimit:10;" points="1148.2,649.7 
			1150.5,684.4 1159.9,711.5 1145.9,720.8 1141.7,768.8 		"/>
		<polyline style="fill:none;stroke:#FFFFFF;stroke-width:2;stroke-linecap:round;stroke-miterlimit:10;" points="995.7,645.5 
			999.2,693.3 1008.5,730.6 1008.8,747.6 		"/>
	</g>
	<g style="display:inline;">
		<g>
			<path style="fill:#E0DAD5;" d="M1563.9,623c-1.3,0-2.5-1-2.8-2.3l-7.5-45.5l-9.9-5c-1.4-0.7-1.9-2.4-1.3-3.8
				c0.7-1.4,2.4-1.9,3.8-1.3l12.5,6.2l7.9,48.4c0.3,1.5-0.8,3-2.3,3.2C1564.2,623,1564,623,1563.9,623z"/>
		</g>
		<g>
			<path style="fill:#E0DAD5;" d="M1548.5,622.3c-1.4,0-2.7-1.1-2.8-2.6l-3.5-40.6c-0.1-1.5,1-2.9,2.6-3c1.5-0.1,2.9,1,3,2.6
				l3.5,40.6c0.1,1.5-1,2.9-2.6,3C1548.6,622.3,1548.6,622.3,1548.5,622.3z"/>
		</g>
	</g>
	<polyline style="display:inline;fill:none;stroke:#FFFFFF;stroke-width:2;stroke-miterlimit:10;" points="1029.9,869.2 
		1030.9,923.8 965.5,923.3 937,977.5 917.8,990.1 	"/>
	<g style="display:inline;">
		<polyline style="fill:none;stroke:#FFFFFF;stroke-width:2;stroke-linecap:round;stroke-miterlimit:10;" points="113.4,541.6 
			70.7,562.3 30.6,549.9 -12.7,536.6 -239.7,516.5 -204.6,628.1 -203.3,734.8 -227.8,771.8 -229.7,807.7 		"/>
		<path style="fill:none;stroke:#FFFFFF;stroke-width:2;stroke-linecap:round;stroke-miterlimit:10;" d="M83.9,823.8v-37.6l-27-86.6
			L25.6,635c0,0-22-36.4-10.7-59.6l15.6-25.6"/>
		<polyline style="fill:none;stroke:#FFFFFF;stroke-width:2;stroke-linecap:round;stroke-miterlimit:10;" points="-204.6,680.8 
			-187,678.9 -151.9,652.6 -118.7,641.3 -78.5,606.8 13.7,606.2 		"/>
	</g>
	<polyline style="display:inline;fill:none;stroke:#FFFFFF;stroke-width:2;stroke-linecap:round;stroke-miterlimit:10;" points="
		1416.4,816.8 1421.3,770.6 1418.9,751.3 	"/>
	
		<line style="display:inline;fill:none;stroke:#FFFFFF;stroke-width:2;stroke-linecap:round;stroke-miterlimit:10;" x1="1475.3" y1="825.9" x2="1418.2" y2="805.3"/>
	<g style="display:inline;">
		<polyline style="fill:none;stroke:#FFFFFF;stroke-width:2;stroke-linecap:round;stroke-miterlimit:10;" points="83.3,809.9 
			47.1,837.4 35.9,845.8 4.7,851.9 -18.6,855.1 -34.4,868.7 -39.1,889.2 -38.2,949.7 -36.3,974.4 -16.3,982.8 5.2,981.4 20.5,990.8 
			31.7,1005.7 32.2,1045.3 35.5,1143.6 		"/>
		<path style="fill:none;stroke:#FFFFFF;stroke-width:2;stroke-linecap:round;stroke-miterlimit:10;" d="M35.9,845.8l14.9,21.9
			l1.9,74.6l11.6,19.1l-13,45.2l19.1,13.5l2.8,16.8l-5.1,41.9l-17.7,7.9l12.6,19.6l22.4,22.4l25.6,0.9l7.9,7.9l16.3,4.2l-3.3,35.9
			c0,0,2.3,16.3,33.1,27c0,0,29,11.2,30.8,11.2"/>
	</g>
	<polyline style="display:inline;fill:none;stroke:#FFFFFF;stroke-width:2;stroke-linecap:round;stroke-miterlimit:10;" points="
		1460.2,881.9 1466.3,920.7 1464.4,973 1457.4,1002 1432.2,1035.6 1414.4,1085.1 1395.1,1166.6 1389.4,1204.4 1399.3,1247.9 
		1372.6,1254.9 1356.5,1264.7 1353,1285 	"/>
	<polyline style="display:inline;fill:none;stroke:#FFFFFF;stroke-width:2;stroke-linecap:round;stroke-miterlimit:10;" points="
		1479.5,739.8 1418.9,751.3 1391.9,749.9 1385.6,740.8 1321.1,717 	"/>
	<polyline style="display:inline;fill:none;stroke:#FFFFFF;stroke-width:5;stroke-linecap:round;stroke-miterlimit:10;" points="
		176.2,854.4 160.8,851.6 115,833.9 92.6,828.3 38,828.8 -17.6,835.8 -56.9,835.8 -140.5,818 -208.2,807.6 -286.7,803.9 
		-358.6,805.7 	"/>
	<polyline style="display:inline;fill:none;stroke:#FFFFFF;stroke-width:2;stroke-linecap:round;stroke-miterlimit:10;" points="
		1208.5,1060.1 1213.6,1086.2 1220.1,1162.3 1268.7,1174 1283.7,1249.2 1305.1,1269.8 1331.3,1267.9 1380.8,1201.6 1407,1118.4 	"/>
	<polyline style="display:inline;fill:none;stroke:#FFFFFF;stroke-width:2;stroke-linecap:round;stroke-miterlimit:10;" points="
		1212.8,1087.8 1187.2,1086.4 1162,1086.1 1150.8,1077.7 1151.5,1059.1 1139.9,1055.6 1129.4,1057.4 1119.6,1062.3 1121,1071.4 
		1112.6,1086.4 1080.7,1105 1079.7,1112 1084.9,1127.8 1114,1132 1164.1,1176.1 	"/>
	<polyline style="display:inline;fill:none;stroke:#FFFFFF;stroke-width:2;stroke-linecap:round;stroke-miterlimit:10;" points="
		1210.6,1072.2 1172,1067.3 1159.2,1085 	"/>
	<g style="display:inline;">
		
			<polyline style="fill:none;stroke:#FFFFFF;stroke-width:2;stroke-linecap:round;stroke-linejoin:round;stroke-miterlimit:10;" points="
			162.5,372.5 161.2,379.9 234.1,432.5 196.5,458.4 192,451.3 184.9,450.3 176.4,456.1 168.7,446.4 148.6,457.7 		"/>
		
			<polyline style="fill:none;stroke:#FFFFFF;stroke-width:2;stroke-linecap:round;stroke-linejoin:round;stroke-miterlimit:10;" points="
			129.7,369.6 118.3,405.2 116.5,411.1 106.1,426 83.4,444.5 69.8,450.6 		"/>
		
			<line style="fill:none;stroke:#FFFFFF;stroke-width:2;stroke-linecap:round;stroke-linejoin:round;stroke-miterlimit:10;" x1="164.1" y1="483" x2="118.3" y2="405.2"/>
		
			<polyline style="fill:none;stroke:#FFFFFF;stroke-width:2;stroke-linecap:round;stroke-linejoin:round;stroke-miterlimit:10;" points="
			180.6,394.5 169,409.8 132.7,430.5 		"/>
		
			<polyline style="fill:none;stroke:#FFFFFF;stroke-width:2;stroke-linecap:round;stroke-linejoin:round;stroke-miterlimit:10;" points="
			147.3,421.4 139.2,406.2 146.3,365.7 		"/>
		
			<polyline style="fill:none;stroke:#FFFFFF;stroke-width:2;stroke-linecap:round;stroke-linejoin:round;stroke-miterlimit:10;" points="
			106.1,426 113.5,439.3 126.8,433.8 137.9,452.9 103.2,474.6 85,443.2 		"/>
		
			<polyline style="fill:none;stroke:#FFFFFF;stroke-width:2;stroke-linecap:round;stroke-linejoin:round;stroke-miterlimit:10;" points="
			115.8,412.4 78.2,380.9 50.3,413.7 		"/>
		
			<polyline style="fill:none;stroke:#FFFFFF;stroke-width:2;stroke-linecap:round;stroke-linejoin:round;stroke-miterlimit:10;" points="
			126.8,364.7 106.5,359.8 93.4,356.6 79.5,344.6 72.7,347.2 78.2,380.9 97,372.8 106.1,361.1 		"/>
	</g>
	<path style="display:inline;fill:#FFFFFF;" d="M288.2,586.8l0.4,14.5l-4,5.3l3,21.4l278.9-33.8l1.6,5.6l-7,1.1l2,18.6l-5,5.3
		l-66.6,8.1l0.4,28.5l-10.3,0.3c0,0-2.1-22.8-2.2-24.7s-21.4,3.5-21.4,3.5l0.2,6.5l6.6,0.3l2.9,18.6l-5.4,7.2l-20.9,3.4l-1.1,9.8
		l28-0.9l4.6,28.4l12.6-0.4l-1.3-26.6L495,687l3.3,14.9l16.1,5.6l61.9-8l1.6-8.9l35.9-3l3.2,12.5l6.8,7.3l20.5-1.1l3,5L436,737.9
		l0.9,14L608,729.3l0.2,22.4l-24.7,2.2l-0.1,12.2l-9.3,0.8l1.8,12.1l-270,33.5l-2.7-12.5l8.8-3.1l-7.6-49.8l-25.2,1.7l0.7-6.1
		l75-7.9l-9.4-79.6l-125.4,11.3l-2.7-28l62.3-8.9l-2.6-38.7L288.2,586.8z M234,659.9l49.3-4.7l-1.6-16.8l-49.2,5.7L234,659.9z
		 M289.4,636.9l1.2,17.5l16.8-1.9l17.3-20.2L289.4,636.9z M339.8,647.2l5-8.2l109.6-13.5l-17.1-7.9L338.1,629l-19.7,20.6
		L339.8,647.2z M488.5,627.3l10.8-1.4l-1.9-15.4l-42.6,5.5L488.5,627.3z M504.4,609.2l1.9,16.1l43-4.8l-2.3-17.1L504.4,609.2z
		 M397.4,638.5l0.1,4.2l40.5-4.4l-0.5-5.9L397.4,638.5z M442.7,723.6l-1.1-11.9l-22,2.4l-6,11L442.7,723.6z M363.2,747.1
		c-1.1,0-7.9-6.8-7.9-6.8l-43.3,5.5l3.5,21.6l114.8-15.8l-1.8-12.9C428.5,738.8,364.2,747.1,363.2,747.1z M393.5,764.9l-77.4,10.5
		l1.4,10.4l77.4-10.5L393.5,764.9z M508.6,748.4l-71.1,9.6l1.4,10.4l71.1-9.6L508.6,748.4z M430.2,760l-29.7,4l1.4,10.4l29.7-4
		L430.2,760z M558.6,741.8l-43.3,5.8l1.4,10.4l43.3-5.8L558.6,741.8z M600.5,735.9l-34.3,4.6l1.4,10.4l34.3-4.6L600.5,735.9z
		 M357.5,653.7l11.1,77.1l22.4-2.4c0,0-12.5-8.4-11.9-9.5c0.7-1.1,28.6-27.5,26.7-31.3S381,667,381,667l5-18.4L357.5,653.7z
		 M410.6,658l25.1-3.6l-0.6-8.7l-32.1,3.8L410.6,658z M339.9,789.6l-12.9,1.6l1,7.6l12.9-1.6L339.9,789.6z M359.6,786.7l-12.9,1.6
		l1,7.6l12.9-1.6L359.6,786.7z M380.4,784.2l-12.9,1.6l1,7.6l12.9-1.6L380.4,784.2z"/>
	<g style="display:inline;">
		<line style="fill:none;stroke:#FFFFFF;stroke-width:2;stroke-miterlimit:10;" x1="1086.8" y1="787.3" x2="1049.4" y2="867.2"/>
		<path style="fill:none;stroke:#FFFFFF;stroke-width:2;stroke-miterlimit:10;" d="M1075.9,811.7l58.7-3.1c0,0,53.2-4.3,55-3.7
			s101.4,28.4,101.4,28.4"/>
		<line style="fill:none;stroke:#FFFFFF;stroke-width:2;stroke-miterlimit:10;" x1="1135.1" y1="782.8" x2="1136.5" y2="868.8"/>
		<line style="fill:none;stroke:#FFFFFF;stroke-width:2;stroke-miterlimit:10;" x1="1173.6" y1="805.6" x2="1174.6" y2="869.7"/>
		<line style="fill:none;stroke:#FFFFFF;stroke-width:2;stroke-miterlimit:10;" x1="1193.1" y1="768.5" x2="1189.7" y2="804.9"/>
	</g>
	<g style="display:inline;">
		<line style="fill:none;stroke:#FFFFFF;stroke-width:2;stroke-miterlimit:10;" x1="699.9" y1="796" x2="709" y2="887.5"/>
		<line style="fill:none;stroke:#FFFFFF;stroke-width:2;stroke-miterlimit:10;" x1="728.9" y1="789.8" x2="730.9" y2="886"/>
		<polyline style="fill:none;stroke:#FFFFFF;stroke-width:2;stroke-miterlimit:10;" points="813.3,765.4 811.3,783.7 803.2,784.8 
			805.2,803.6 817.9,804.6 818.9,826.5 808.7,829 810.8,875.8 		"/>
		<polyline style="fill:none;stroke:#FFFFFF;stroke-width:2;stroke-miterlimit:10;" points="837.8,758.8 840.8,824.4 818.9,826.5 
			821,861.6 809.8,861.6 		"/>
	</g>
	<path style="display:inline;fill:none;stroke:#FFFFFF;stroke-width:2;stroke-miterlimit:10;" d="M525.6,838.8l49.7-20.4l33.4-12.3
		l107-14.3l60-17.7l49.1-14.3l39.5,2.7l15,1.4l26.6-6.1l66.1-1.4l55,15.6c0,0,40.2,20.4,84.5,14.3l83.1-19.8l77.7,22.5l30,9.7"/>
	
		<path style="display:inline;fill:none;stroke:#FFFFFF;stroke-width:2;stroke-linecap:round;stroke-linejoin:round;stroke-miterlimit:10;" d="
		M1465.8,693.5l11.2,37.4l13.1,24.3l15.9,6.5l20.6,10.3l23.4,3.7l15.9-0.9l14.9,14.9l8.4,19.6c0,0,2.8,25.2,3.7,28
		c0.9,2.8,7.5,17.7,12.1,21.5c4.7,3.7,40.2,29.9,40.2,29.9l14,16.8l8.4,24.3l22.4,33.6l9.8,19.6l7.9,12.1l-3.7,10.9l-7.9,2.3h-10.7
		l-9.3,6.5l1.9,5.1l15.4-5.1h9.3l3.7,3.3l-4.7,5.1l-13.5,0.9l-7.9,4.7l0.5,4.7l12.6,0.9l5.1-2.3l3.7,3.3v3.7l-4.7,12.6l-5.6,9.8
		l18.2,74.3l-5.6,43l4.7,29.9l-10.7,28.5l0.5,24.3l4.7,3.3l10.7-4.2l10.3-4.2l17.3,2.8l24.8,8.9l28.5,7l21,1.4l31.8-11.7l25.7-10.7
		l20.1-16.3l19.2,7l7,30.4v9.3l13.5,15.9l239.4,172.1l115.4,79.9"/>
	<g style="display:inline;">
		<path style="fill:none;stroke:#FFFFFF;stroke-width:5;stroke-miterlimit:10;" d="M2622.3,783.1c-19.1-21.5-51.3-41.3-78.1-51.7
			c-19.7-7.6-41.7-14.1-53.9-31.3c-8.6-12.2-11.1-28.2-21.2-39.1c-16-17.2-48.7-19.9-52.9-42.9c-1.2-6.6,0.5-13.7-2.5-19.7
			c-6-12-23.5-9.3-36.7-6.9c-24.6,4.6-50.5,1.4-73.3-8.8c-27.8-12.5-50.2-35-77.9-47.7c-26.4-12.1-56.3-14.6-85.3-14.1
			c-87.2,1.5-185.1,21-240.2,88.5c-30.4,37.2-70.6,74.2-119.4,83.8c-19.9,3.9-41,2.9-61.3,4.3c-37.4,2.5-75,1.8-112.3-2.2
			c-35.7-3.8-61.3,5.6-77.7,39.3c-11.1,22.8-16.1,48.1-29.5,69.9c-6.2,10.1-14.3,20.8-26.1,24.6c-16.8,5.4-40.1-5.1-57.2-7.9
			c-21.1-3.4-41.3-10.4-60.9-18.9c-39.8-17.4-70-26.6-110.5-42.4c-13-5-33.4-10.1-47.1-7.5c-10.3,2-27.8,6.6-37.5,10.7
			c-12.5,5.3-42.2,7.9-55.7,9.6c-19.1,2.4-39.9,2.9-58.4-3.6c-11.2-4-19-13.6-29.6-18.6s-23.6-6.9-35-8.8
			c-26.1-4.4-52.9-5.2-79.4-3.9c-41.7,2-91.7,6.8-128.5,28.5c-17.3,10.2-64.7,11.4-84.4,15.2c-25.4,4.9-51.6,3.2-77.4,4.8
			c-48.2,3.1-94.6,17.7-140.6,31.2c-35.3,10.4-71.4,21.1-108,25.5c-20.3,2.5-41.3-3.3-61.8-2.9c-22.6,0.4-44.1-9.3-62.7-21.3
			c-16.7-10.8-32.2-23.8-44.7-39.3c-14.2-17.7-17.2-38.2-20.6-60.1c-20.8-137.3-100.6-258-186.7-367
			c-55.9-70.9-118.9-141.6-202.9-176.1c-27.7-11.4-57-18.4-86.2-25.5c-69.5-16.8-139.1-33.5-208.6-50.3"/>
		<path style="fill:none;stroke:#FFFFFF;stroke-width:5;stroke-miterlimit:10;" d="M-986.1,707.3c28.2,24.2,52.7,52.6,72.4,84.1
			c6.6,10.5,12.8,21.4,21.8,29.8c27.5,25.5,72.9,20.7,102.7,43.5c20.8,15.9,30.5,42.6,49.3,60.8c33.1,32,84.8,31,130.8,30.4
			c49.1-0.6,98.3,1.9,147.1,7.3c34.9,3.9,69.6,9.2,104,16c33.6,6.7,66.1,15.2,98.6,25.9c58.9,19.3,117.7,39.4,174.2,65.2
			c55.8,25.5,109.3,56.8,155.5,97.4c19.7,17.3,38.7,36.7,63.3,45.7c16.3,6,34,7.1,51.3,6.4c56.1-2.2,111.4-22.5,155.7-57
			c9.4-7.3,18.5-15.4,29.4-20.4c23-10.6,49.7-5.9,75-4.5c13.4,0.7,26.9,0.2,40.3-1.1c6.8-0.7,13.6-1.6,20.4-2.7
			c5.9-0.9,12-0.8,16.8-4.7c3.1-2.4,5.6-5.5,8.9-7.6c3.5-2.2,7.7-3.2,11.7-4.2c22.5-5.4,44.9-10.8,67.5-15.6
			c29.3-6.2,58.8-11.8,88.3-16.6c46.7-7.6,66.3-21.5,113.5-25.6c20.1-1.7,52.2-8.7,71.8-13.7c26.9-6.9,49.5-7.6,74-20.5
			c39.8-20.9,92.2-15.5,135.6-27.3c43.3-11.9,95.9-39.8,139-26.8c33.9,10.2,64.3,30,98.1,40.4c25.7,7.9,58.3,8,74.1-13.8
			c31.2-43,106.5-45.6,159.2-52.2c30.3-3.8,57.1-5,85.7-16.7c28.2-11.5,54.6-26.8,80.9-42.1c21.8-12.7,43.6-25.4,64.6-39.2
			c16.1-10.6,32-22,49.9-29.3c32.9-13.4,73.3,6.3,101.3-20.9c8-7.7,12.6-18.1,18.1-27.7c9.1-16,21.7-23.2,37.8-31.1
			c37.5-18.4,78.2-30,114.4-51.1c17.3-10.1,34.1-22.4,53.7-26.5c7.8-1.6,16-1.9,23-5.6c11.4-5.9,17.1-18.8,21.8-30.7
			c14.7-37.6,28.1-72.2,31.7-112.4"/>
	</g>
	<circle style="display:inline;fill:#E0DAD5;" cx="1647.5" cy="671.4" r="3.8"/>
	<circle style="display:inline;fill:#E0DAD5;" cx="1596.8" cy="847" r="3.8"/>
	<circle style="display:inline;fill:#E0DAD5;" cx="1469.6" cy="971.8" r="3.8"/>
	<circle style="display:inline;fill:#E0DAD5;" cx="1469.6" cy="948.3" r="3.8"/>
	<circle style="display:inline;fill:#E0DAD5;" cx="1460.2" cy="974.7" r="3.8"/>
	<circle style="display:inline;fill:#E0DAD5;" cx="1460.2" cy="950.4" r="3.8"/>
	<circle style="display:inline;fill:#E0DAD5;" cx="1796.2" cy="660.4" r="3.8"/>
	<path style="display:inline;fill:#FFFFFF;" d="M1473.8,1001.3c-2.3,1.5-5,4-6.1,5.6c-1,1.6-3.5,3.9-5.4,5.2s-4.7,4.6-6.1,7.4
		c-1.4,2.8-3.8,8.7-5.3,13.2s0.5,10.3,4.4,12.8s12.1,2.8,18.3,0.6c0,0,0,0-0.1-2.2s-1.7-3.7-1.5-5.1c0.3-1.5,8.7-3.1,8.7-3.1
		c8.9-1.7,15.2-4.7,14.2-6.7c-1.1-2-4.6-6.2-7.9-9.3c0,0,0,0,0.4-0.5s2.3-3.9,0-8.9s-4.6-7.1-5.5-8.2s-0.9-1.1-0.9-1.1
		C1479.3,999.7,1476.1,999.8,1473.8,1001.3z"/>
	<g style="display:inline;">
		<path style="fill:#E0DAD5;" d="M1263.7,634.8c-0.9-0.1-1.5-0.8-1.5-1.7l0.2-24.9c0-0.9,0.7-1.7,1.7-1.8c0.9,0,1.7,0.8,1.7,1.8
			l-0.2,24.9c0,0.9-0.7,1.7-1.7,1.8C1263.8,634.8,1263.7,634.8,1263.7,634.8z"/>
	</g>
	<g style="display:inline;">
		<path style="fill:#E0DAD5;" d="M1148.7,626.5c-0.9-0.1-1.5-0.6-1.5-1.1l-0.7-15.3c0-0.6,0.7-1,1.6-1s1.7,0.5,1.7,1.1l0.7,15.3
			c0,0.6-0.7,1-1.6,1C1148.8,626.5,1148.7,626.5,1148.7,626.5z"/>
	</g>
	<rect x="-584.2" y="-976.3" style="display:inline;fill:#FFFFFF;" width="4652.7" height="3260.5"/>
	<g style="display:inline;">
		<g>
			<path style="fill:#E0DAD5;" d="M-131.1,819.5l51.8,13.4l25.2,5.7l27,0.8l25.1-2.8l21.5-2.8l26.2-1.9l10.8-2.3l32.4-25.3l33-4.4
				l12.2-15.8l15.7-0.4l3.6-7.1l-8.6-56.2V720c2.2-21.4-23.8-102-25-105.7l-6.5-15.4l-8.7-24.8l-6.1-21.2l6.2-8.4l0.6-0.3
				c8.8-5.1,18.6-11,19.8-12c0,0-0.1,0.1-0.2,0.2c0.8-0.9,4.8-4.1,36.2-25.9l38.8-24.8l24.4-13.1l12-12.6l8.3-11.2l2.3-10.4
				l-2.4-5.1L230.6,415l-4.3-10.9l-0.7-30.3l1.5-15.2l0.8,0.1L96.1,273.4l-197.6-159.5l-29.6-30.5V819.5z"/>
		</g>
		<g>
			<path style="fill:#E0DAD5;" d="M4053.6,1301.2l-41.6-29.3l-8.6-3.8l-6-7.8c0,0-7.6-2.2-8.9-3.8c-1.3-1.6-7.3-9.4-7.3-9.4
				l-8.9-9.4l-5.7-8.4c0,0-3.4-8.1-3.4-9.8c0-1.6,0.9-8.8,0.9-8.8l-0.1-6.5l3.9-4l0.3-2.6l-4.9,0.7l-3.3-1.3l-1-5.6l1-2v-3.6
				l-1.4-3.9c0,0-2-2.3-2.7-3.6s-2.3-3.9-2.3-3.9l-5.6,0.1l-7.9-0.9l-8.5,2.1l-1.6,3l2.6,1.9l7.2,2.9l4.9,2.2l4.6,1.6l3.6,2.2v3.6
				l0.1,4.3c0,0-1.6,0.7-2.6,1.3c-1,0.7-2.9,2-2.9,2l-3.9,2l-3.9,0.7c0,0-2.9,0.7-3.9,1.4c-1,0.7-5.8,4-5.8,4l-2.3,2.3l-6.5,2.4
				l-2.6,1.3l-6.8,2l-2.9,1.7l-4.9,2.3l-1.9,1.7l-10.1,1.4l-3.3,1c0,0,2.3-0.4-3.9,1.7c-6.2,2-2.6-0.3-2.6-0.3l-3.6,2.3l-4.5,6.6
				l-3.9,5.9l-0.9,7.9c0,0,0.7,1-1,2.6c-1.6,1.7-4.5,6.6-4.5,6.6l-5.8,6.3l-2.9,3.7l-2.6,1.6l-3.5,6.6l-3.2,12.1
				c0,0,0.1,4.3,0.1,5.6c0,1.3-1,1.3,0.7,3.9s5.7,11.1,7.4,12.7s5,5.2,5,5.2l4.4,12.1c0,0,1.7,8.2,2.1,9.1c0.3,1-12,5.4-12,5.4
				s-7.5-23.5-7.5-24.5s-0.1-10.5-0.1-10.5l-3.7-12.4l-2.3-4.2l-2-5.9l-2.6-2.6l-3.9-0.6c0,0-1.3-0.6-2.9,2.3
				c-1.6,3-6.1,9.2-6.1,9.2s1,4.9,1.1,5.9c0,1,0.1,11.5,0.1,11.5l0.7,6.2l7.1,17.6c0,0-2.2,4-2.5,5.9c-0.3,2-0.6,4.3-0.6,4.3
				l-0.2,11.8l0.8,13.7c0,0-0.2,8.2-0.5,9.2s-2.5,12.1-2.5,12.1l-9.6-11c0,0-2.1-10.1-2.1-11.8c0-1.6-2.4-12.1-2.4-12.1l-2.6-24.8
				l0.8-16.7c0,0,1.2-8.5,1.5-9.5s3.8-11.2,3.8-11.2l3.1-9.9l3.5-7.9l9.7-6.3l3.2-3.6l2.9-3.3l9.4-4.4l4.5-4.6l1.9-7.6l2.9-3l3.5-5
				c0,0,0-1.6,0.6-3c0.6-1.3,1.9-4.3,1.9-4.3l1.9-4l-0.4-2.9l2.2-3.6l7.5-4.7l6.2-2.4l7.8-3.4l4.5-5.9l2.9-6.3l2.5-7.2l0.6-3.3
				l2.6-3.3l3.6-3.3l3.2-4.9l12.6-9.6l-1.7-2.9l-13.3,10.6l-7.6-6.5l-4-2.2l-1.7-3.6l1.6-3.3l8.4-7.3l2.8-12.5l-2.3,1.3l-3.5,10.2
				l-8.4,8.3c0,0-3.6,2-4.6,2s-6.9-1.9-6.9-1.9s-1.3,0.4-2.6-2.3c-1.3-2.6-2.7-5.5-2.7-5.5l1.9-4.9l3.9-3.6l7.9,1.2l2.3,2.6l2.7,2.9
				l2.6-2.6l1.2-6.6l-2.7-3.9l-5.6-0.9c0,0-7.9,0.1-8.8,0.4c-1,0.3-8.2-1.2-8.2-1.2s-1.6,1.3-3.3-0.3s-2.6-1.9-3-3.2
				c-0.3-1.3-0.7-5.2-0.7-5.2l-1.7-4.9l-3-3.9l-3-2.3l-4.6-1.3l-4.5-0.9l-0.1-8.5l-5-2.2l-9.1,4c0,0-3.9,2.7-6.2,1.1s-5-3.9-5-3.9
				l-4.3-6.5l-2.7-6.2l-0.5-11.8l3.9-5.9l-5.9-2.9l-5.9-2.9c0,0-7.2,0.1-7.9-0.9s-0.3,2.3-0.7-1s0.6-8.5,0.9-10.2
				c0.3-1.6,1.9-4.9,1.9-4.9l3.2-3l3.9-3.3l4.2-5.6l-0.1-4.6h2.3l0.3-6.2l-2.6-1.3l-2.6,1.7l-4.9,1.4l-3.9-0.9l-2.5,13.1l-3.1,13.5
				l-4.1,9.5l-3.5,7.2l-2.2,6.6l-1.6,2.6l2.4,9.5c0,0-0.2,7.9-0.5,8.8c-0.3,1-4.8,10.5-4.8,10.5l-4.9,0.1h-2.9h-3.3l-4.9,3.3
				c0,0-1.9,2.6-1.9,5.3c0,2.6-1.5,8.9-1.8,10.2c-0.3,1.3-4.5,7.9-5.1,9.6c-0.6,1.6-4.5,5-4.5,5l-4.9,0.1l-3.7-5.2l-3-3.6
				c0,0-8.5,3.7-9.4,6.3c-0.9,2.6-3.5,5.3-3.5,5.3l-5.2,4.3l-6.9,0.1c0,0-2.3,2-3.3,0s-6.6-5.2-7-7.4c-0.4-2.3-1.8-12.4-1.8-12.4
				l5.2-5l3.6-2.3l11.5-1.4l0.7-4.3l5.1-1.4l7.2-1.4l3.6-4l-1.7-6.5l-4-3.6c0,0,0.6-3-3.9,1.4l-4.5,3l-14.4,2.8l-8.5-0.6l-0.1-5.6
				l-4.9-2.9l-7.2-2.2l-5.9,0.7l-7.3-4.5l-1.6,1l-6.5,2l-3.6-2.9l-4.3-4.5l-4-3.6l-4.7-9.4l-1.7-8.2l4.9-3l2.9-2.3h2.6l1.9-2
				l2.9-7.6l3.2-2.7l9.4-4.4l5.2-3.7l5.5-3.7c0,0,3.3-1,3.2-3c0-2-2-5.5-2-5.5l-3.4-6.5l-4.9,0.1h-2.6c0,0-3.9,6.3-6.8,9.2
				c-2.9,3-2.6,4.3-5.5,6s-0.3-0.3-2.9,1.7c-2.6,2-4.2,1.7-4.2,1.7l-4.7-7.8l-2.9,1.7h-3.6l-3.6,2.3l-2-10l-0.1-11.3h-2.6l-5.2,0.1
				l-5.2,7l-3.9,1.8l-2.2-1.7c0,0,0.4-1.8-0.1-4.4c-0.5-2.6,1.7-7.8,1.7-7.8s0.4-1,0.8-2.7s0.4-4.8,0.4-4.8l2.6-3.5l3.9-3.5l5.6-4
				l3-2.7l4.3-2.2l3.9-3.1l4.7-4.4l-1.3-3l-7.5-3h-3.1l-3,4.8l-9.1,3.6c0,0-0.4,1.8-3.5,2.7s-6.1,2.3-6.1,2.3l-10.5,1.4l-5.2,0.5
				l-2.2,1.3l-3.5-3.9c0,0,0-2.6,0-3.9c0-1.3,1.7-3.9,1.7-3.9l2.6-1.3l7.4-3.1l3.5-2.2c0,0,1.7-3.1,0.4-4.8s-1.3-1.7-1.3-1.7
				s-0.9,0-4.3,2.7c-3.5,2.7-3.5,2.7-3.5,2.7l-6.5,0.5l-7.4-2.5l-3.1-0.4l-6.5,2.7l-3.4,5.3c0,0-1.3,1.8-2.1,3.5
				c-0.9,1.8,0.5,2.6-3.4,5.3s-6.1,4.9-6.1,4.9l-6.1,1.4l-3.9-0.4l-7-0.4c0,0-3.1-1.3-4.8-2.1c-1.8-0.9-4.4-3-4.4-3s-2.2-0.8-3.5-3
				s-3.1-2.6-3.1-5.6c0-3.1-3,1.3,0-3.1c3-4.4,4.7-6.2,4.3-7.5c-0.5-1.3-2.2-3-3.5-3s-7,1.8-7,1.8l-2.2,1.3l-6.5,2.7l-77.1,45.9
				l-39.3,13.6c-3.7-15.3-0.2-30.6,6.7-44.7l1.5-10.1l-17.9-2.2l-8.4-10l-7.3-10.6l-17.9-3.3l-10.6-8.4l-11.2-4.5
				c-40.7,21.8-53-6.1-53-6.1l-7.1-8.4l0.3-0.4l-16.1-18.5l-7.3-18.4v-26.8l-32.4-22.3v-10l-10-3.8l-3.9-16.3l8.9-7.8l-13.4-11.2
				h-10.6l-5-12.3l4.5-16.2l11.2-7.3l5-15.1h-9.5l-7.3-8.4l-1.1-13.4l8.4-6.1l-3.9-7.8l-6.7-12.3c0,0-10-6.1-8.4,0
				c1.7,6.1-4.5,12.3-4.5,12.3c-16.2-1.1-15.1-10.6-15.1-10.6l0.6-7.3l4.5-4.5l6.7-7.3l2.2-13.4l-8.9-7.3l-5,13.9l-13.4-4.9
				c0,0-2.2,6.7-12.3,4.5c-10-2.2-4.5-17.9-4.5-17.9l5.6-9.5l5.6,9.5l16.7-3.9v-6.9l7.3-12.3c0,0,0-5,0-7.8s8.4-12.3,8.4-12.3
				l14-17.9l11.2-2.8l-14-24.6l-9.5,7.3l-7.8-3.3l-11.2,7.8l-8.9-5l6.7-10l-12.8-5l3.3-6.7l18.4,0.6v-5.6l-22.3-20.1v-31.8
				l-12.3-1.1h-41.3l-17.3-12.3l-0.6-17.3l10-2.8v-6.1h-21.2l-5.6-10l-7.3-18.4l-16.2-8.4l-11.2,6.7l3.3,10l-3.9,24.6l-10.6,2.8
				l-15.1-22.9l-11.2-5.6l-11.7-22.3l-9.5,5v15.1l-6.1,14l-21.8,10.6L2919,437l-13.4-2.2l-29,19l-11.2-2.8l-21.8,6.1l-9.5-10.6
				l-7.3-15.6l8.4-8.4l7.8,5.6l2.2,10.6l9.5-1.7l2.2-7.3l-12.8-21.8l7.8-10l19.5,18.4l15.1-6.7l-19-29.6l10.6-7.8l30.7,24.6l6.7-5
				l-36.3-32.9h-11.7l-16.2-18.4l-5-14l9.5-7.3l-5.6-8.9l-14.5-3.9l-9.5,6.7h-7.8l-8.4,5l-9.5,7.3l-15.1,1.1l-12.8,10l-12.3-10
				l-9.5-2.8l-6.7,3.9l-10.6,15.6l-26.8,4.5l-12.8-21.2l-30.1,26.8l-12.8-2.2l-15.1,4.5l-30.1-11.2l-10.6-8.4l-14.5,6.7l-16.2,2.8
				l-15.6-3.3l-21.2,12.3v9.5l-27.9,6.7l-55.8-5l-33.5-10l-32.4-19.5l-6.7-12.8L2358,315l-6.7-10l1.7-7.8l21.2-10.6l-12.8-1.1
				l-3.3-12.3l-10.6-7.3l-39.1-35.2l-10.6,7.3l-10.6-6.1v25.7l-15.1,8.9l-12.3,3.9l-8.4-16.7l-12.3-8.4l-12.3-2.2v16.2l-10.6,0.6
				l-3.3,12.8l7.8,10l-11.7,14l-5,12.8l-20.7,5.6l-7.8-6.7l-10,9.5l-1.1,8.4l11.2,11.2l-30.7,14.5l-15.6,12.3l6.1,2.8l-3.9,24.6
				l10.6,16.7l-113.9,68.1l-60.8,29.6l-182.5,73.1l-135.1,28.5L1522,621.1l-165.8,15.6L1159.7,616l-166.3,5.6h-43.5l-39.6-8.4h-34.6
				l-85.4-18.4l-81.5-24.6l-39.6-8.4l-11.7-9.5h-11.2l-10.6-5.6l-4.5-12.3l-23.4-5.6l-25.7,8.4l-63.6-21.8l-62-29.6l-29.6-14
				L388.8,452l-3.6-2.1L372,434.8l-4.8-5.4l-1.1-9.6l-7.5-9.1v-20.9l-9.1-16.3l-11.2-9.4l-1.6,9.4l4.3,15.8l-11.8,7.5l-4.8-3.2
				l-17.1,3.2l-1.1-3.7l-6.4-2.7v-3.7l8-2.7l6.4-4.3l-4.3-5.4l-8,1.6l-8.6-2.1l8.6-9.1l14.5,3.7l8,7l4.8-4.3V362l-9.6-7l-13.4-4.8
				l-31.1,9.6l-7.5,9.1l-1.7,11.3l-28-14.7l-22.6-15.3c0,0-0.2,0.1-0.4,0.4L90.5,270.1l-197.6-159.5L-198.8,16l-40.7-26.8l-60.1-52
				l-67.4-26l-49.3-40.3v-17.6l-11-16.6v-4.3h-6.7l3.7,10.2l7.8,11.2l-1.9,16.6l3.7,7.5l-2.2,7.8l-34.9-17.4
				c0.1-4.1,0.1-9.7-0.1-11.3c-0.3-2.7-12.6-11.8-12.6-11.8s4.8-4.8,4.8-9.6s-4.8-3.7-4.8-3.7l28.9-9.6l27.8,2.7v-2.7l-27.8-3.2
				l-32.7,10.2l-23.6,19.5l-179.9-67.5l-169.9-62.4l-109.2-31.2l-35.2-31.2v2629.8h4703.9v-0.5h340.9L4053.6,1301.2z"/>
		</g>
	</g>
	<g style="display:inline;">
		<path style="fill:#E0DAD5;" d="M273.5,312.4c0-0.1,0-0.3,0-0.4c0.2-1.2,1.3-1.9,2.5-1.7c0.4,0.1,44.7,8.4,81.8,33.2
			c37.2,25,48.8,56.2,49.3,57.5c0.4,1.1-0.2,2.3-1.3,2.7c-1.1,0.4-2.3-0.2-2.7-1.3c-0.1-0.3-11.6-31.3-47.7-55.4
			c-36.3-24.3-79.7-32.5-80.1-32.6C274.2,314.3,273.5,313.4,273.5,312.4z"/>
	</g>
	<path style="display:inline;fill:none;stroke:#FFFFFF;stroke-width:2;stroke-miterlimit:10;" d="M113.4,540.5
		c0,0,111.9-95.8,149.7-108.3c0,0-140.9-92.5-189.8-122.1"/>
	<path style="display:inline;fill:#FFFFFF;" d="M759.9,596.8l-4.6,13.3l-2.5,9.5v8.4l-1.8,12.6l-3.5,14.7l-2.5,7.4l-8.2,1.8h-10
		l-5.3,6l-5.3,6.1v4.8v6.7v8.1v10.2V718l-8.4,16.8l-9.5,12.3l-11.9,12.6l-18.6,8.4c0,0-9,3.5-11.6,4.2s-18.9,4.2-18.9,4.2l-16.8,3.5
		l-26.3,5.3l-19.2,6l-23.2,4.6l-7.1,8.9l-6.7,6.3l-4.6,10.5v6.3l-2.8,8.8l-2.1,7.7l-13.3,7.7h-9.1h-2.8v6.7l-3.5,4.9l-8.8,17.9l-7,7
		l-9.6,14.4l-10,13.3l-8.5,9.5l-7.4,4.6l-9.5,6l-3.5,5.6v13.3l3.5,8.1l7.9,15.4l3.9,13v8.4l2.5,10.5l2.5,9.1v26.3l-2.2,6.3
		l13.6,16.8l-6.1,6l-10.4,13.7l-10.6,7.7l-9.3,8.1l-1.7,5.6l3,4.2l8,4.9l6.6,4.9l9,4.6l8.5,9.6l4.3,4.8l-1.5,9.1l-11.4,9.8l-10.6,6
		l-8.1,6.3l-1.4,5.6l6.5,4.6l8.5,3.9l13.6,5.3c0,0-0.8,3.2,0,4.2c0.8,1.1-3.2,13.7-3.2,13.7l-5.4,6l-5.1,7l-2.4,7.7l2.4,2.8l1.5-3.2
		l3.6-6.3l5.4-9.1l3.2-7l5-9.1l0.4-7.4l-5.4-4.2l-6.5-3.2l-11-2.8l-4.6-5.3c0,0,2-2.1,2.7-3.2s7.4-7,7.4-7l7.6-3.5l4.5-3.9
		c0,0,5-4.6,6.1-5.6c1.1-1.1,4.6-6.3,4.6-6.3l-7.8-9.8l-7.4-11.6l-6.2-3.2l-6.8-5.3l-7.9-3l-2-6l5.3-6.1c0,0,11.1-10.5,11.8-11.6
		c0.7-1.1,6.7-5.6,7.2-6.7s2.3-3.5,3.2-4.6c0.8-1.1,5-6.3,5-6.3l2.8-9.1l-5-6.7l-7.4-6.3l-2.4-4.9c0,0,3.5-6.7,3.7-8.8
		s-0.5-4.6,0-8.1s-1.3-15.4-1.3-15.4l-4.1-19.3l-2.9-14c0,0-3.9-4.2-4.2-5.6s-3.9-8.1-4.6-9.8c-0.7-1.8-5.6-10.5-5.2-12.3
		c0.3-1.8,1.3-11.9,1.3-11.9s3.3-3.5,4-4.9s11.6-8.1,11.6-8.1l8.5-9.5l9.3-11.9l13.7-14.7c0,0,7.6-7.4,7.3-8.8
		c-0.3-1.4,6.7-13,6.7-13l5.6-13.3l5.2-3.5l11.6-3.2c0,0,4.9-4.2,6.3-5.3c1.4-1.1,8.1-12.6,8.4-14.4c0.4-1.8,3.9-10.5,3.9-11.6
		s0-7,0-7l9.9-15.1l24.1-5.3l22.2-5l11.1-1l23.8-6.3l12.3-3.5l16.8-1.8c0,0,17.9-7,20.3-8.1s12.3-4.6,12.3-4.6l7.4-7
		c0,0,17.9-13,18.9-15.5c1.1-2.4,11.9-13.3,11.9-13.3s0.7-14.4,0.7-16.1c0-1.7-1.8-14.7-1.8-14.7s2.1-7,2.5-8.1s3.9-3.2,4.2-4.2
		c0.4-1.1,5.6-5.3,5.6-5.3l5.6-2l6-4.3l2.8-6l1.4-15.8l0.7-10.9l-0.7-8.1l3.1-11.2l6.7-14l3.5-9.1l3.1-7.7l1.5-6.3l-13-4.2"/>
	<g style="display:inline;">
		<polygon style="fill:none;stroke:#FFFFFF;stroke-width:2;stroke-miterlimit:10;" points="259.4,449.4 239.1,475.3 179.5,512.4 
			173.5,527.5 186.7,526.5 198.4,537.9 214.3,537.9 249.1,534.4 280.4,531.6 322.7,528.3 343.9,524.1 352.1,515.3 362.6,519.9 
			399.3,519.5 393.2,507.8 		"/>
		<polyline style="fill:none;stroke:#FFFFFF;stroke-width:2;stroke-miterlimit:10;" points="352.1,515.3 283.7,484.9 248.4,488.2 
			186.7,526.5 		"/>
		<polyline style="fill:none;stroke:#FFFFFF;stroke-width:2;stroke-miterlimit:10;" points="218.2,506.9 222.2,510.8 311.2,503.3 
			314.1,498.4 		"/>
	</g>
	<path style="display:inline;fill:#FFFFFF;" d="M559,556.1l12.8,5.3l-15.3,12.3l-71,2.1l-14.4-2.1l-30.4-15.1l-136.5,9.1l-50.3,2.5
		c0,0-24.5,1.8-41.7,14.4c0,0-40.3,31.5-16.1,90.7c0,0,20.2,41,26.4,50.4c0,0,4.8,10.9-6.8,4.9l-11.5-7.7l-4-3.5h-4.1l-3.2,2.8
		c0,0-1,20.3,11.3,31.5l15,12.6l12.6,9.8l33.2,21.4l49.8,31.5l10.9,10.2l11.6,11.2l17.1,16.8l15.7,16.1c0,0,6.2,3.9,4.5,10.9
		l-9.9,48l-11.9,10.2l-12,9.5c0,0-25.7,31.5-27.1,41.7c0,0,13.8-34.3,23.5-42l23.4-19.6l12-46.6c0,0-4.6-11.2-15.1-19.3l-30.1-30.8
		l-32.2-25.9l-30.2-17l-27.2-15.8L215.7,773l-17.2-13c0,0-11.9-9.5-15.1-18.6V720v-9.8c0,0,1.1-7.4,0-8.4
		c-1.1-1.1,2.1-12.6,2.1-12.6l-2.3-11.2l-4.7-11.2l-2.1-24.2v-16.1l2.5-19.3c0,0,17.2-34,39.2-40.6l21.4-4.2l13.3-1.8L263,560l2-3.9
		l3.4-4.9l46-3.3c0,0,45.5-4.4,47.3-4.8s28.9-3.5,30.8-3.5s22.5-1.8,23.2-1.8s13.6,3.5,13.6,3.5l11.3,6.5l11.4,6.1l13.6,6.3
		l16.6,5.6l11.2,2.1l30.1-0.4l20.3-0.4l5.6-2.8L559,556.1z"/>
	<g style="display:inline;">
		<polygon style="fill:none;stroke:#FFFFFF;stroke-width:2;stroke-miterlimit:10;" points="578.8,662.5 536.8,636.6 508.1,645 
			510.2,687.7 516.5,695.4 548,691.9 		"/>
		<path style="fill:none;stroke:#FFFFFF;stroke-width:2;stroke-miterlimit:10;" d="M578.8,662.5l22.4-2.8l96.7-9.8l49-2.1l33.6,4.9
			l44.8,18.9c0,0,54.6,27.3,47.6,114.9l7,161.1l33.6,36.4l11.9,21l9.1,65.2l1.4,23.8l-9.1,9.1"/>
	</g>
	<path style="display:inline;fill:#FFFFFF;" d="M1309.2,629.6L1309.2,629.6c0-1.5,1.2-2.6,2.6-2.6h1c0.4,0,0.8,0.1,1.1,0.2l2.1,1
		c0.4,0.2,0.9,0.2,1.3,0.2s2.2,9.9,2.4,11.4c0.4,2.5,2.5,8.1,2.5,8.1v8.1l-1.8,6.3l-0.7,6.3c0,0-3.9,2.8-3.5,3.9s0,4.6,0,4.6v11.6
		l-2.8,7.4v4.9c0,0,0.7,4.6,1.1,5.6c0.4,1.1,1.8,6.7,1.8,6.7l8.4,8.8c0,0,3.9,3.9,5.6,5.6c1.8,1.8,8.4,7.4,8.4,7.4l4.9,5.3l5.3,5.6
		l3.2,4.5v9.5l-3.2,17.2l-1.6,10l-1.4,10.5l-3,17l-4,12.6l-5.6,11l-5.1,14.5l-6.3,12.8l-4.9,9.1l-2.8,5.8l2.1,23.6l0.5,3.7l0.5,5.8
		l1.9,9.6l1.4,7.7l4.9,5.4l5.9,5.6l1.8,2.8l2.8,2.6l1.4,2.6l-3.5,6.3l-4.2,9.3l-11.2,14.2l-4.9,5.6l-10.1,11.9
		c0,0-10.5,7.9-10.5,9.1c0,1.2-5.4,8.9-5.4,8.9l-3.3,7.5l-3.5,10l-6.1,10.7l-11.9,29.2l-5.8,14.2l-5.4,12.6l-3.3,3.5l-7,1.4
		l-10.3,1.4l-10,3.5l-7.9,2.1l-6.8,3l-7.5,3.5l-35.7,20.1l-13.8,10.5l-9.1,6.5c0,0-8.6,4.9-9.1,5.8s-8.2,7-8.2,7l-4.4,4l-3.7,2.1
		h-8.2l-8.4-3l-5.8-1.6l-6.8-1.9l-7.4-1.9l-11-0.7l-13.1,1.2c0,0-18,3.3-26.2,6.1l-12.8-1.6l-8.6-1.4l-10-0.9l-10.3-1.4H977
		l-2.1,1.4l-2.8,7.5v7.2c0,0-0.2,4.2,0,6.8c0.2,2.6-0.4,11-0.1,11.9c0.3,0.9-1.1,5.6-1.3,6.3s-1.9,3.7-2.3,5.8
		c-0.5,2.1-1.4,6.5-1.4,7.7s-2.3,6.8-1.6,8.6c0.7,1.9,0.9,5.6,0.9,5.6l1.6,3.3l1.6,6.8l2.8,11.7l2.1,5.8l-0.7,7.5l-2.8,8.6
		l-3.3,10.5l-2.5,6.5v7.5l-1,10l1.4,8.4l3,7.9l4.4,14.2l2.6,4.9l4,6.1l3,5.8l1.9,3.5l1.9,5.4l1.2,4.7l0.7,9.1l2.8,34.8l-0.7,10.5
		l0.5,6.8l-0.9,5.1c0,0-2.6,4-3.3,5.4s-4.9,7.9-4.9,7.9l-4.4,5.4l-11.9,16.3l-1.2,1.8l-4,2.1l-1.8-2.1l1.8-2.8l4.3-5.1l2.8-3.5
		l2.8-3l3.3-3.5l3-4l3.3-5.8l1.9-2.1l1.6-3l1.6-6.3l-0.9-10.5l0.5-7l-1.2-8.9l-1.6-8.4l-2.1-10.8l-2.8-10.5c0,0-2.6-2.8-2.6-4.4
		s-3-11.7-3-11.7s-1.9-6.5-2.1-7.2c-0.2-0.7-2.8-7.7-2.8-7.7s-2.1-5.8-2.3-7.2c-0.2-1.4-3.6-11.7-3.6-11.7l-1.8-7.7
		c0,0,2.8-8.6-13.1,0.7l-10.7,4.2l-5.7,3l-6.8,4.2l-3.3,4.9l-7,9.3l-4.4,7.5l-7.2,11l-6.5,9.8l-9.6,10.3l-3,8.4l-1.9,7.5
		c0,0-3.3,5.4-3.5,6.8s-3.5,7.9-3.5,7.9l-3.3,5.6l-2.6,4.9l-2.8,3.7v8.9L862,1458v12.1l-2.6,6.1l-5.1,2.6l1.1-6.8l1.2-11.2l-0.9-6.8
		l1.2-11.7c0,0,1.2-9.8,1.4-11.2c0.2-1.4,3.5-12.8,3.5-12.8s2.6-2.8,3.7-5.6c1.2-2.8,3.3-8.2,3.3-8.2l4.4-5.4l2.3-6.1
		c0,0,4.9-4.4,5.1-5.1c0.2-0.7,3.5-5.4,4.2-6.8s9.3-10.7,9.3-10.7l10.3-15.4l3.3-7.7c0,0,1.4-1.4,3-4.4s3.3-4.2,4.2-5.6
		s2.8-5.1,4.2-5.6s7-4,7-4l14.9-8.2c0,0,6.3-5.8,7-6.3s6.1-3.7,6.8-4.4c0.7-0.7,5.3-11.9,5.3-11.9l2.4-17.5c0,0,2.1-17,2.1-18.2
		s-0.9-6.3-1.4-8.6c-0.5-2.3-3.5-13.1-5.1-15.6c-1.6-2.6-1.4-0.9-1.9-4c-0.5-3,1.6-15.2,1.6-16.1s2.3-23.1,2.3-23.1l1.2-21
		c0,0-1.1-6.8-1.2-7.5c-0.2-0.7-0.9-8.4-1.3-10.7c-0.5-2.3-2.3-9.3-2.3-9.3s-3.3-13.3-3.3-14.9s-2.1-13.1-2.1-13.1l-1.6-7l-1.6-13.1
		l2.1-9.3c0,0,2.8-4.2,3.5-5.1s7.7-11.7,7.7-11.7l6.3-5.6l10.7-6.9l4.9-3.2l8.9-5.8l5.1-4.2l3.7-1.6l2.3-2.6l1.9-1.4l4.7-0.7
		l7.2,0.7l6.1-0.5l7.8,0.5l3-1.2l2.1-1.6l2.1-4.2l2.8-0.9l7.9,2.3c0,0,4.7,1.2,5.6,1.2s5.4,0,5.4,0l5.4-0.7l5.1-3.5l5.6-4l5.1-2.8
		l7.7-1.4l8.2-0.5l6.5-2.6l4.7-3l3.5-5.1l4.7-10.5c0,0-0.7,0.2,2.3-2.1s8.4-6.1,9.1-6.5c0.7-0.5,5.4-6.3,7-8.2s7.7-7.2,7.7-7.2
		s1.6-4.2,3-6.3s5.6-7.2,5.6-7.2s5.6-9.3,5.6-10s4-8.2,4-8.2l3.3-4.7l2.6-5.8l3.7-4.9l2.1-3c0,0,2.8-2.6,5.6-2.6s22.2-2.8,22.2-2.8
		l16.1-3.7l8.6-3.5c0,0,8.9-4.2,9.8-4.7s2.3-1.9,4-2.8c1.6-0.9,6.5-3.7,6.5-3.7l9.1-0.9c0,0,5.6,1.9,7.5,1.9s7.7-0.2,7.7-0.2
		s1.4-1.2,2.3-2.1c0.9-0.9,3.3-4,3.3-4l5.1-0.5c0,0,3.7-0.5,4.4-0.5c0.7,0,9.3-2.8,9.3-2.8l3.5-1.9l8.9-12.4l9.1-17
		c0,0,4.2-11.9,4.4-12.8c0.2-0.9,4.9-11.4,4.9-11.4l5.4-11l2.8-10.3l4.2-20.1l4-10.5l2.8-13.3c0,0,2.1-8.2,2.1-9.3
		c0-1.2,0.7-8.2,0.7-8.9s-2.1-4.9-3-6.8c-0.9-1.9-3.5-5.8-4.2-6.8c-0.7-0.9-4-4.7-4-4.7l-6.3-8.2l-6.1-5.8l-7.9-8.2l-2.6-5.8
		l-1.2-10.5c0,0,0.7-4.7,0.9-6.3s1.2-6.8,1.2-6.8s-1.2-4-1.2-4.9s1.2-7.2,1.2-7.2l2.3-9.3l-0.7-6.3c0,0-0.5-4.4-0.7-6.1
		s-0.2-3.5-0.5-4.4c-0.2-0.9-1.6-3.5-1.6-3.5l-2.7-13.1C1309.3,630.4,1309.2,630,1309.2,629.6z M1309.2,881.7c0,0-0.9,0.2-2.3,1.1
		c-1.4,0.9-0.9,1.4-1.6,2.1s-3,3.3-3.3,3.9c-0.4,0.5-1.4,1.6-1.8,2.6c-0.4,1.1-2.1,2.1-2.6,3s-2.6,2.8-4.4,4.6s0,0-1.6,0.9
		s-4,1.9-4.7,2.8c-0.7,0.9-3.2,1.6-4.6,1.9c-1.4,0.4-3.5,2.1-3.5,2.1s-3.3,1.8-9.3,3s-3,0.9-3,0.9s-3.2-0.7-3.7-0.9
		s-5.4-1.9-5.4-1.9s-6-1.6-7.9-2.3s-3.9,0.7-6,1.6c-2.1,0.9-2.5,2.1-3.9,3s-6,2.6-6.8,3c-0.9,0.4-4,2.1-6.3,3s-6.8,1.8-7.5,2.1
		c-0.7,0.4-7,1.9-7,1.9l-9.1,2.3l-8.2,1.8l-5.4,1.6c0,0-9.5,1.2-11.6,1.4s-4.4,1.4-4.9,1.8c-0.5,0.4-4.4,6.1-4.7,6.8
		c-0.4,0.7-3.7,7.4-3.7,7.4l-2.8,7l-2.3,6.7l-3.5,7l-3.2,7.5c0,0-8.4,12.4-8.8,13c-0.4,0.5-5.6,8.1-5.6,8.9c0,0.9-1.8,5.8-1.8,5.8
		s-10.5,10-11.4,11.4s-6,2.6-7.5,3.3c-1.6,0.7-6,4.2-6,4.2l-9,4c0,0-5.1,3.2-5.6,3.9s-4.7,3.7-4.7,3.7s-12.1,5.8-13.5,6.8
		s-9.5,2.6-9.5,2.6s-10.9,0.5-13.3,0.7c-2.5,0.2-7.9,1.2-9.3,1.4s-11.2,1.6-11.2,1.6l-11.9,2.5l-7.4-0.9l-10.7,2.5
		c0,0-11.9,3-13.1,3.3c-1.2,0.4-5.1,3.2-5.1,3.2l-7.7,7.4c0,0-2.8,3.3-3.5,4.9s-2.1,4.2-2.1,4.2l-6.3,4.2c0,0-3.3,3.2-3.7,4.2
		c-0.4,1.1-3.5,7.5-3.7,8.8c-0.2,1.2-3.3,7.5-4,8.4s0,12.1,0,12.1s0.4,9.6,0.9,10.5s2.6,5.8,3.3,7s5.4,9.6,5.4,9.6s3.5,9.1,3.9,10.2
		s7.7,7.5,8.2,8.1s11.6,4.6,11.6,4.6l13.5,3.3l17.3,1.2l12.3-2.8l7.5-5.3l6.1-3.2c0,0,4.6-2.6,5.1-2.6s6.1,0,6.1,0s1.4,1.4,2.5,2.6
		s3.9,1.1,3.9,1.1l3.5-2.3l7.9-1.9l4,1.2l2.6,2.5l4.2,2.5l5.8,3.5l7.4,2.5l4.7,2.8l8.2,1.9h7.2l4.2-2.3l7-5.1l7.4-4.2l10.2-7.5
		l10.3-6.5l7.9-6.5l15.2-10.5l5.8-3.5c0,0,7.7-5.6,10-6.5s8.9-2.5,8.9-2.5l10.3-2.1l10-1.9l8.2-2.1l4-5.3l4.9-5.6l6.8-11.6l5.6-10
		c0,0,5.6-17.9,6-18.6s1.6-4,1.8-4.7c0.2-0.7,1.6-4.4,1.6-4.4s-7,1.9-7.5,1.9s-4,1.2-5.1,1.6s-3.5,1.2-3.5,1.2s-4,1.2-4.9,1.6
		s-4.2,0-4.2,0l4.4-2.3l7-2.3l6.1-3.2l2.8-2.5c0,0,1.4-3,1.1-3.5s0-4.2,0-4.2l3.9-7.5c0,0,5.8-7.5,6.5-8.4s6.3-4,6.3-4l8.1-7
		l9.5-11.6l4-3.3l5.3-7.2l10-7.2l4.2-8.1l1.1-5.8v-7.4c0,0-1.2-5.4-1.2-6.3c0-0.9,0-6.7,0-6.7l-2.3-7.2c0,0-1.6-13-1.8-14
		c-0.2-1.1-0.9-5.1-0.9-5.1v-5.8l-1.1-8.4l-0.9-5.4l-1.1-6l-1.4-5.3L1309.2,881.7z"/>
</g>
<g id="Map_Labels">
	
		<g id="NorthPoint" transform="translate(1831.070256, 181.453972) rotate(50.000000) translate(-1831.070256, -181.453972) translate(1792.570256, 137.953972)">
		<path id="Fill-933" style="fill:#8A1538;" d="M172.8,209l6.3,10.6l-10.8-5L172.8,209z M166.3,216.9l19.3,7.8l-11-17.5l-19.3-7.8
			L166.3,216.9z M172.8,209l6.3,10.6l-10.8-5L172.8,209z M166.3,216.9l19.3,7.8l-11-17.5l-19.3-7.8L166.3,216.9z M172.8,209
			l6.3,10.6l-10.8-5L172.8,209z M185.6,224.8l-11-17.5l-19.3-7.9l11,17.5L185.6,224.8z M162.4,190.7c11.7-4.1,24.5,1.9,28.6,13.6
			c4.1,11.7-1.9,24.5-13.5,28.6c-11.6,4.2-24.5-1.9-28.6-13.5C144.7,207.8,150.8,194.9,162.4,190.7z M179.1,237.7
			c14.3-5.2,21.7-20.8,16.5-35.1c-5.1-14.3-20.7-21.5-35-16.4c-14.3,5.1-21.5,20.6-16.5,34.8C149.3,235.4,165,242.7,179.1,237.7z
			 M172.8,209l6.3,10.6l-10.8-5L172.8,209z M166.3,216.9l19.3,7.8l-11-17.5l-19.3-7.8L166.3,216.9z M172.8,209l6.3,10.6l-10.8-5
			L172.8,209z M166.3,216.9l19.3,7.8l-11-17.5l-19.3-7.8L166.3,216.9z M172.8,209l6.3,10.6l-10.8-5L172.8,209z M166.3,216.9
			l19.3,7.8l-11-17.5l-19.3-7.8L166.3,216.9z M172.8,209l6.3,10.6l-10.8-5L172.8,209z M166.3,216.9l19.3,7.8l-11-17.5l-19.3-7.8
			L166.3,216.9z"/>
		<g id="Back-Copy-5_1_" transform="translate(34.000000, 0.000000)">
			
				<text transform="matrix(0.6467 -0.7628 0.7628 0.6467 109.194 194.9606)" style="fill:#8A1538; font-family:'ArialMT'; font-size:13.9377px;">N</text>
		</g>
	</g>
	<path style="fill:#B4985A;fill-opacity:0.75;" d="M264.6,390.2c-2.9,7.4-9.8,13.4-14.4,19.7c-1.5,2.1-6.4,10.4-3.7,12.4
		c9.3,6.9,18.3,14,27.4,21.1c0,0,37.8,22.5,37.9,22.6c4,2.4,8.7,4,12.9,6c6.1,3,12.2,5.9,18.4,8.7c29.5,13.3,60.3,23.6,90.7,34.6
		c8.5,3.1,16.9,6.1,25.4,9.2l87,27.9l67.7,26.5c11.8,4.6,24.2,8.1,36.2,12.1c2.9,1,5.8,1.9,8.9,2.4c4.8,0.7,9.7-0.8,14.5-0.1
		c11.2,1.7,22.5,8.5,30.1,10.8c2.5-8.5,4.9-17,7.4-25.4c0.4-1.5,1.8-4.2,1.6-5.7c-0.4-3.2-8.7-3.7-11.8-4.4
		c-9.4-2.2-18.9-3.9-28.4-6c-6.6-1.4-9.9-10.1-17.2-10.1c-6,0-15.3-0.1-19.2-6.1c-0.3-0.5-0.5-1-0.7-1.6c-0.6-1.8-1.2-3.5-1.8-5.3
		c-2.3-6.6-7.8-6.3-13.8-8c-5.2-1.4-10.6-3.3-15.9-1.4c-6.4,2.3-12.8,4.5-19.3,6.6c-0.7,0.2-1.5,0.5-2.3,0.5
		c-2.5,0.1-5.2-1.8-7.4-2.6c-3.4-1.2-6.8-2.4-10.2-3.4c-9.5-2.9-19-6.1-28.3-9.5c-18.7-6.9-54.7-23.1-72.5-32
		c-8.2-4.1,1.4,0.2-6.8-3.8c-13.6-6.5-27.7-13.1-41.3-20c-7-3.6-14-7.2-20.8-11c-3.1-1.7-6.8-3.3-9.5-5.6c-2.7-2.3-5-5.3-7.3-8
		c-2.8-3.3-5.6-6.7-8.5-10c-0.7-0.8-1.4-1.7-1.8-2.7c-0.4-1.1-0.3-2.3-0.4-3.5c-0.3-6.2-4.5-10-8.2-14.5v-6.4
		c0-7.1,0.3-14.5-2.9-21.1c-3.3-6.7-8.6-13.4-14.8-17.6c-3.9-2.7-4,4.8-4.1,6.9c-0.2,4.9,2.6,10.9,3.8,15.7c0.8,3-9,7.2-11.3,8.5
		c-0.4,0.2-5.2-2.9-6.4-2.9c-5.1,0.1-10.7,2-15.7,3c0.6-0.1-2.5-4.5-3.2-4.8c-1.4-0.6-3-0.8-4.3-1.7c0.1-3.7,1.3-4.2,4.7-5.3
		c2.5-0.9,5.2-1.9,7.2-3.7c2.8-2.5,1.1-3.5-0.8-6c-1.9-2.4-4.8,0-7.2,0.3c-3.9,0.4-6.7-1.1-10.4-1.9c0.8-5.2,5.9-6,7.9-8.3
		c1.9-2.1,7.2,0.5,9.6,1.1c2.9,0.7,5.8,1.6,8.2,3.5c2,1.6,3.8,5.7,6.7,4.6c1.8-0.7,3.8-4.6,3.9-6.4c0-2.2,0-5-1.2-6.8
		c-1.3-1.8-4.5-3.3-6.4-4.4c-4.4-2.6-9.1-4.4-13.8-6.2c-4.2-1.5-10.7,1.8-14.9,3c-5.7,1.6-11.3,3.2-16.8,5.5
		c-3.7,1.6-6.4,6.5-8.9,9.5l-1.7,11.3c-0.5,3-0.6,6.6-1.6,9.4C264.8,389.8,264.7,390,264.6,390.2z"/>
	<g>
		<path id="Rectangle-Copy-2_10_" style="fill:#FFFFFF;" d="M77.4,554.5H176c2.7,0,5,2.2,5,5v25.9c0,2.7-2.2,5-5,5H77.4
			c-2.7,0-5-2.2-5-5v-25.9C72.5,556.8,74.7,554.5,77.4,554.5z"/>
		
			<text transform="matrix(1 0 0 1 102.2868 569.8801)" style="fill:#8A1538; font-family:'MarselisPro-Bold'; font-size:13.9353px;">City Cent</text>
		
			<text transform="matrix(1 0 0 1 158.6868 569.8801)" style="fill:#8A1538; font-family:'MarselisPro-Bold'; font-size:13.9353px;">r</text>
		
			<text transform="matrix(1 0 0 1 163.7868 569.8801)" style="fill:#8A1538; font-family:'MarselisPro-Bold'; font-size:13.9353px;">e</text>
		
			<text transform="matrix(1 0 0 1 102.2868 583.8137)" style="fill:#8A1538; font-family:'MarselisPro-Light'; font-size:13.9353px;">Muscat</text>
	</g>
	<g>
		<path id="Rectangle-Copy-2_29_" style="fill:#8A1739;" d="M463.3,397h85.5c2.7,0,5,2.2,5,5v25.9c0,2.7-2.2,5-5,5h-85.5
			c-2.7,0-5-2.2-5-5V402C458.4,399.3,460.6,397,463.3,397z"/>
		
			<text transform="matrix(1 0 0 1 491.5304 412.4243)" style="fill:#FFFFFF; font-family:'MarselisPro-Bold'; font-size:13.9353px;">Al Mouj</text>
		
			<text transform="matrix(1 0 0 1 491.5304 426.3579)" style="fill:#FFFFFF; font-family:'MarselisPro-Light'; font-size:13.9353px;">Muscat</text>
		<g id="Group_12_" transform="translate(5.000000, 5.000000)">
			<path id="Path_24_" style="fill:#FFFFFF;" d="M471,402.4c-4.3,0-7.3,3-7.3,6.8v7.6h2.5c0,0,0-4.2,0-7.6c0-3.6,2.7-6.2,5.5-6.7
				c0.1,0,0.2-0.1,0.1-0.1L471,402.4L471,402.4z"/>
			<path id="Path_25_" style="fill:#FFFFFF;" d="M471.5,402.7c-0.3,0.1-0.7,0.2-1.1,0.6c-1.9,1.3-2.7,3.4-2.9,5.6c0,0.1,0,0.2,0,0.3
				l0,0v0.1v7.6h2.5v-7.6c0-0.5,0.2-0.9,0.6-1.1l1,1.1l1-1.1c0.3,0.2,0.6,0.7,0.6,1.1v7.6h2.5v-7.6c0-2.3-1.8-4.1-4-4.1
				c-0.6,0-1,0.1-1.5,0.3l0,0c0.5-0.6,1.3-0.9,2.2-0.9l0,0c0.2,0,0.6,0,0.8,0.1c2.2,0.3,3.9,2.3,3.9,4.4c0,0.1,0,0.2,0,0.2v7.5h2.3
				v-7.5c0-3.3-1.9-5.9-5.2-6.7c-0.1,0-0.3-0.1-0.5-0.1s-0.5-0.1-0.8-0.1C472.3,402.5,471.9,402.6,471.5,402.7z"/>
		</g>
	</g>
	<g>
		<line style="fill:none;stroke:#8A1739;stroke-miterlimit:10;" x1="117.6" y1="504.6" x2="97.7" y2="491.7"/>
		<circle style="fill:#8A1739;" cx="117.6" cy="504.6" r="4.5"/>
	</g>
	<g>
		<line style="fill:none;stroke:#8A1739;stroke-miterlimit:10;" x1="211.3" y1="434.7" x2="191.4" y2="421.8"/>
		<circle style="fill:#8A1739;" cx="211.3" cy="434.7" r="4.5"/>
	</g>
	<g>
		<text transform="matrix(1 0 0 1 166.16 465.3723)" style="fill:#8A1538; font-family:'MarselisPro'; font-size:13.8803px;">The Marsa Plaza</text>
	</g>
	<g>
		<line style="fill:none;stroke:#8A1739;stroke-miterlimit:10;" x1="285.8" y1="428.6" x2="267.5" y2="460"/>
		<circle style="fill:#8A1739;" cx="285.8" cy="428.6" r="4.5"/>
	</g>
	<g>
		<line style="fill:none;stroke:#8A1739;stroke-miterlimit:10;" x1="367.2" y1="438.2" x2="390.2" y2="410"/>
		<circle style="fill:#8A1739;" cx="367.2" cy="438.2" r="4.5"/>
	</g>
	<g>
		<text transform="matrix(1 0 0 1 39.2994 314.2999)" style="fill:#8A1538; font-family:'MarselisPro'; font-size:13.8803px;">Oman Oil Petrol Stations</text>
	</g>
	<g>
		<line style="fill:none;stroke:#8A1739;stroke-miterlimit:10;" x1="10" y1="310.3" x2="33.7" y2="310.1"/>
		<circle style="fill:#8A1739;" cx="10" cy="310.3" r="4.5"/>
	</g>
	<text transform="matrix(1 0 0 1 45.5524 487.7453)" style="fill:#8A1739; font-family:'MarselisPro'; font-size:13.94px;">Markaz Al Bahja</text>
	<text transform="matrix(1 0 0 1 394.8998 461.886)" style="fill:#8A1739; font-family:'MarselisPro'; font-size:13.94px;">Dog Park</text>
	<g>
		<g>
			<circle style="fill:#8A1538;" cx="136.6" cy="823.8" r="4.7"/>
		</g>
		<line style="fill:none;stroke:#8A1739;stroke-miterlimit:10;" x1="136.6" y1="819.3" x2="136.6" y2="874.2"/>
	</g>
	<g>
		<g>
			<ellipse style="fill:#8A1538;" cx="282.9" cy="374.7" rx="4.7" ry="4.7"/>
		</g>
		<line style="fill:none;stroke:#8A1739;stroke-miterlimit:10;" x1="287.5" y1="374.6" x2="232.6" y2="374.5"/>
	</g>
	<g>
		<g>
			<ellipse style="fill:#8A1538;" cx="367.4" cy="467.4" rx="4.7" ry="4.7"/>
		</g>
		<line style="fill:none;stroke:#8A1739;stroke-miterlimit:10;" x1="371.1" y1="465.4" x2="390.2" y2="458.4"/>
	</g>
	<g id="Group_1_" transform="translate(5.000000, 5.000000)">
		<path id="Path_2_" style="fill:#8A1538;" d="M81.7,560.1c-4.3,0-7.3,3-7.3,6.8v7.6h2.5c0,0,0-4.2,0-7.6c0-3.6,2.7-6.2,5.5-6.7
			c0.1,0,0.2-0.1,0.1-0.1H81.7L81.7,560.1z"/>
		<path id="Path_1_" style="fill:#8A1538;" d="M82.2,560.4c-0.3,0.1-0.7,0.2-1.1,0.6c-1.9,1.3-2.7,3.4-2.9,5.6c0,0.1,0,0.2,0,0.3
			l0,0v0.1v7.6h2.5V567c0-0.5,0.2-0.9,0.6-1.1l1,1.1l1-1.1c0.3,0.2,0.6,0.7,0.6,1.1v7.6h2.5V567c0-2.3-1.8-4.1-4-4.1
			c-0.6,0-1,0.1-1.5,0.3l0,0c0.5-0.6,1.3-0.9,2.2-0.9l0,0c0.2,0,0.6,0,0.8,0.1c2.2,0.3,3.9,2.3,3.9,4.4c0,0.1,0,0.2,0,0.2v7.5H90
			V567c0-3.3-1.9-5.9-5.2-6.7c-0.1,0-0.3-0.1-0.5-0.1s-0.5-0.1-0.8-0.1C83,560.2,82.6,560.3,82.2,560.4z"/>
	</g>
	<g>
		<line style="fill:none;stroke:#8A1739;stroke-miterlimit:10;" x1="1254.6" y1="628.9" x2="1254.6" y2="574"/>
		<circle style="fill:#8A1739;" cx="1254.6" cy="628.9" r="4.5"/>
	</g>
	<text transform="matrix(1 0 0 1 1218.0624 570.8027)" style="fill:#8A1739; font-family:'MarselisPro'; font-size:13.94px;">Azaiba Beach</text>
	<g>
		<line style="fill:none;stroke:#8A1739;stroke-miterlimit:10;" x1="884.4" y1="620.7" x2="884.4" y2="565.8"/>
		<circle style="fill:#8A1739;" cx="884.4" cy="620.7" r="4.5"/>
	</g>
	<text transform="matrix(1 0 0 1 841.8864 562.6496)" style="fill:#8A1739; font-family:'MarselisPro'; font-size:13.94px;">Al Shafaq Club</text>
	<g>
		<text transform="matrix(1 0 0 1 307.6176 341.7646)" style="fill:#8A1538; font-family:'MarselisPro'; font-size:13.8803px;">The Walk</text>
	</g>
	<g>
		<text transform="matrix(1 0 0 1 394.8997 361.9541)" style="fill:#8A1538; font-family:'MarselisPro'; font-size:13.8803px;">Kempinski Hotel </text>
	</g>
	<g>
		<g>
			<text transform="matrix(1 0 0 1 380.0505 390.5501)" style="fill:#8A1538; font-family:'MarselisPro'; font-size:13.8803px;">Al Mouj Muscat</text>
			<text transform="matrix(1 0 0 1 380.0505 407.2501)" style="fill:#8A1538; font-family:'MarselisPro'; font-size:13.8803px;">Beach Park</text>
		</g>
	</g>
	<g>
		<text transform="matrix(1 0 0 1 213.6797 493.65)" style="fill:#8A1538; font-family:'MarselisPro'; font-size:13.8803px;">Mysk by Shaza Al Mouj Hotel</text>
	</g>
	<g>
		<text transform="matrix(1 0 0 1 50.3001 425.2998)" style="fill:#8A1538; font-family:'MarselisPro'; font-size:13.8803px;">Al Maha Petrol Station</text>
	</g>
	<g>
		<text transform="matrix(1 0 0 1 525.3524 665.9875)" style="fill:#8A1538; font-family:'MarselisPro'; font-size:13.8803px;">Muscat International Airport</text>
	</g>
	<g>
		<text transform="matrix(1 0 0 1 617.8007 479.979)" style="fill:#8A1538; font-family:'MarselisPro'; font-size:13.8803px;">Al Mouj Golf</text>
	</g>
	<g>
		<line style="fill:none;stroke:#8A1739;stroke-miterlimit:10;" x1="126.4" y1="677.9" x2="126.4" y2="587.9"/>
	</g>
	<g>
		<g>
			
				<line style="fill:none;stroke:#8A1538;stroke-width:1.2756;stroke-miterlimit:10;" x1="297.9" y1="318.4" x2="297.9" y2="382.9"/>
			<g>
				<circle style="fill:#8A1538;" cx="297.9" cy="382.7" r="4.7"/>
			</g>
		</g>
	</g>
	<g>
		<g>
			
				<line style="fill:none;stroke:#8A1538;stroke-width:1.2756;stroke-miterlimit:10;" x1="329.8" y1="347.5" x2="308.8" y2="408.5"/>
			<g>
				<circle style="fill:#8A1538;" cx="308.9" cy="408.2" r="4.7"/>
			</g>
			<g>
				<circle style="fill:#8A1538;" cx="330.7" cy="412" r="4.7"/>
			</g>
		</g>
	</g>
	<line style="fill:none;stroke:#8A1538;stroke-width:1.2756;stroke-miterlimit:10;" x1="391.3" y1="359.2" x2="353" y2="411.1"/>
	<g>
		<circle style="fill:#8A1538;" cx="353.2" cy="410.8" r="4.7"/>
	</g>
	<g>
		<circle style="fill:#8A1538;" cx="505" cy="516.5" r="4.7"/>
	</g>
	<g>
		<circle style="fill:#8A1538;" cx="480.8" cy="660.8" r="4.7"/>
	</g>
	<g>
		<circle style="fill:#8A1538;" cx="714.9" cy="817.2" r="4.7"/>
	</g>
	<g>
		<circle style="fill:#8A1538;" cx="646.5" cy="977.4" r="4.7"/>
	</g>
	<g>
		<circle style="fill:#8A1538;" cx="1305.2" cy="1083.5" r="4.7"/>
	</g>
	<g>
		<ellipse style="fill:#8A1538;" cx="126.4" cy="675.2" rx="4.7" ry="4.7"/>
	</g>
	<g>
		<circle style="fill:#8A1538;" cx="677.6" cy="572.4" r="4.7"/>
	</g>
	
		<text transform="matrix(0.9935 0.1137 -0.1137 0.9935 809.6655 642.9031)" style="fill:#3C3C3D; font-family:'MarselisPro-Bold'; font-size:9.95px;">18th November St.</text>
	<g>
		
			<text transform="matrix(0.9796 -0.2011 0.2011 0.9796 800.09 1067.6177)" style="fill:#8A1538; font-family:'MarselisPro'; font-size:13.8803px;">Muscat Expressway</text>
	</g>
	
		<text transform="matrix(0.855 -0.5186 0.5186 0.855 1742.6935 899.825)" style="fill:#3C3C3D; font-family:'MarselisPro-Bold'; font-size:9.95px;">Muscat Expressway</text>
	<text transform="matrix(1 0 0 1 865.5922 753.5471)" style="fill:#3C3C3D; font-family:'MarselisPro-Bold'; font-size:9.95px;">Sultan Qaboos St.</text>
	
		<text transform="matrix(0.9582 -0.286 0.286 0.9582 390.2404 860.4035)" style="fill:#3C3C3D; font-family:'MarselisPro-Bold'; font-size:9.95px;">Sultan Qaboos St.</text>
	
		<text transform="matrix(0.9995 -3.029005e-02 3.029005e-02 0.9995 1661.6302 713.8096)" style="fill:#3C3C3D; font-family:'MarselisPro-Bold'; font-size:9.9472px;">Sultan Qaboos St.</text>
	<line style="fill:none;stroke:#8A1739;stroke-miterlimit:10;" x1="714.9" y1="815.1" x2="714.9" y2="869.9"/>
	<g>
		<g>
			<text transform="matrix(1 0 0 1 660.533 893.5402)" style="fill:#8A1538; font-family:'MarselisPro'; font-size:13.8803px;">Oman International</text>
			<text transform="matrix(1 0 0 1 660.533 910.9404)" style="fill:#8A1538; font-family:'MarselisPro'; font-size:13.8803px;">Exhibition Centre</text>
		</g>
	</g>
	<g>
		<line style="fill:none;stroke:#8A1739;stroke-miterlimit:10;" x1="477.9" y1="660.8" x2="516.7" y2="660.8"/>
	</g>
	<line style="fill:none;stroke:#8A1739;stroke-miterlimit:10;" x1="646.5" y1="973.9" x2="646.5" y2="1028.8"/>
	<g>
		<g>
			<text transform="matrix(1 0 0 1 609.8999 1049.4999)" style="fill:#8A1538; font-family:'MarselisPro'; font-size:13.8803px;">Muscat Hills</text>
			<text transform="matrix(1 0 0 1 609.8999 1066.8999)" style="fill:#8A1538; font-family:'MarselisPro'; font-size:13.8803px;">Golf &amp; Country Club</text>
		</g>
	</g>
	<g>
		<line style="fill:none;stroke:#8A1739;stroke-miterlimit:10;" x1="331" y1="412" x2="289.4" y2="479.4"/>
	</g>
	<line style="fill:none;stroke:#8A1739;stroke-miterlimit:10;" x1="1305.2" y1="1078.7" x2="1305.2" y2="1133.5"/>
	<g>
		<g>
			<text transform="matrix(1 0 0 1 103.5888 891.1249)" style="fill:#8A1538; font-family:'MarselisPro'; font-size:13.8803px;">As Sahwah</text>
			<text transform="matrix(1 0 0 1 103.5888 908.5248)" style="fill:#8A1538; font-family:'MarselisPro'; font-size:13.8803px;">Public Garden</text>
		</g>
	</g>
	<g>
		<text transform="matrix(1 0 0 1 249.5805 310.2659)" style="fill:#8A1538; font-family:'MarselisPro'; font-size:13.8803px;"> Al Mouj Marina</text>
	</g>
	<g>
		<text transform="matrix(1 0 0 1 97.0001 362.8002)" style="fill:#8A1538; font-family:'MarselisPro'; font-size:13.8803px;">Horizon Kids</text>
		<text transform="matrix(1 0 0 1 97.0001 379.5002)" style="fill:#8A1538; font-family:'MarselisPro'; font-size:13.8803px;">International Nursery</text>
	</g>
	<g>
		<line style="fill:none;stroke:#8A1739;stroke-miterlimit:10;" x1="677.6" y1="575.1" x2="677.6" y2="485.1"/>
	</g>
	<g>
		<line style="fill:none;stroke:#8A1739;stroke-miterlimit:10;" x1="505" y1="521.3" x2="505" y2="431.3"/>
	</g>
	<g>
		<path style="fill:#676767;" d="M422.3,679.8l-3.1-0.6l-1.4,1.3l3.9,2.5l2,4.1l1.4-1.3l-0.3-3.1l5.1-4.6l4.4,9.6l1.9-1.7l-2.2-11.7
			l5.1-4.6c0.8-0.7,0.8-2,0.2-2.6c-0.7-0.8-2-0.8-2.6-0.2l-5.1,4.6l-11.4-3.2l-1.9,1.7l9,5.3L422.3,679.8z"/>
		<path style="fill:#676767;" d="M412.8,690.8c8.6,9.5,23.3,10.4,32.8,1.8c9.6-8.6,10.4-23.3,1.8-32.8c-8.6-9.6-23.3-10.4-32.8-1.8
			C405.1,666.6,404.2,681.3,412.8,690.8z M445.8,661.3c7.7,8.6,7,21.9-1.6,29.6s-21.9,7-29.6-1.6s-7-21.9,1.6-29.7
			C424.7,652,437.9,652.6,445.8,661.3z"/>
	</g>
</g>
</svg>
