<?xml version="1.0" encoding="utf-8"?>
<!-- Generator: Adobe Illustrator 19.1.0, SVG Export Plug-In . SVG Version: 6.00 Build 0)  -->
<svg version="1.1" id="app_x5F_Muscat--parent" xmlns="http://www.w3.org/2000/svg" xmlns:xlink="http://www.w3.org/1999/xlink"
	 x="0px" y="0px" width="1920px" height="1080px" viewBox="358 0 1920 1080" style="enable-background:new 358 0 1920 1080;"
	 xml:space="preserve">
<g id="map-data" style="display:none;">
	<rect x="263.2" y="-55.6" style="display:inline;fill:#FFFFFF;" width="2067.9" height="1449.1"/>
	<g style="display:inline;">
		<g>
			<g>
				<path style="fill:#E0DAD5;" d="M469.5,741.2l23,6l11.2,2.5l11.9,0.4l11.1-1.2l9.5-1.2l11.7-0.8l4.8-1l14.4-11.3l14.7-2l5.4-7
					l7-0.1l1.6-3.1l-3.8-25v-0.1c1-9.5-10.6-45.3-11.1-47l-2.9-6.8l-3.9-11l-2.7-9.5l2.8-3.8l0.2-0.1c3.9-2.3,8.3-4.9,8.8-5.3
					l-0.1,0.1c0.4-0.4,2.1-1.8,16.1-11.5l17.3-11.1l10.9-5.8l5.3-5.6l3.7-5l1-4.7l-1.2-2.3l-6.2-6.4l-1.9-4.8l-0.3-13.5l0.7-6.8
					l0.4,0.1l-58.6-37.9l-87.8-70.9l-13.1-13.5V741.2z"/>
			</g>
			<g>
				<polygon style="fill:#E0DAD5;" points="2175,834.3 2178.6,835.1 2183.6,834.5 2185.3,835.3 2186.6,836.8 2189.1,834 
					2189.1,832.1 2185.1,829.4 2181.7,827.4 2178.8,826.2 2176.5,827 2174.9,828.6 2175,831 				"/>
				<polygon style="fill:#E0DAD5;" points="2266.6,913.4 2262.7,914.5 2261.5,915.8 2261.5,916.8 2263.8,916.8 2266.6,916.8 
					2267.9,915.3 2269.7,914.2 2271.3,913.4 2271.3,912.2 2268.3,912.2 				"/>
				<path style="fill:#E0DAD5;" d="M2167.9,860.4l3.2,0.5l3.1-1.6h2l1.2-0.8l3-1.6v-1.5h-1.5c0,0-3.8,0.9-4.2,1.1
					c-0.4,0.1-3.9,1.7-3.9,1.7l-2.9-0.4V860.4z"/>
				<path style="fill:#E0DAD5;" d="M2329.3,955.2l-18.5-13l-3.8-1.7l-2.7-3.4c0,0-3.4-0.9-3.9-1.7c-0.6-0.7-3.3-4.2-3.3-4.2l-4-4.2
					l-2.5-3.8c0,0-1.5-3.6-1.5-4.4c0-0.7,0.4-3.9,0.4-3.9v-2.9l1.7-1.7l0.1-1.2l-2.2,0.3l-1.5-0.6l-0.4-2.5l0.4-0.9V904l-0.6-1.7
					c0,0-0.9-1-1.2-1.6c-0.3-0.6-1-1.7-1-1.7h-2.5l-3.5-0.4l-3.8,0.9l-0.7,1.3l1.2,0.9l3.2,1.2l2.2,1l2,0.7l1.6,1v1.6v1.9
					c0,0-0.7,0.3-1.2,0.6s-1.3,0.9-1.3,0.9l-1.7,0.9l-1.7,0.3c0,0-1.3,0.3-1.7,0.6c-0.4,0.3-2.6,1.7-2.6,1.7l-1,1l-2.9,1l-1.2,0.6
					l-3.1,0.9l-1.3,0.7l-2.2,1l-0.9,0.7l-4.5,0.7l-1.5,0.4c0,0,1-0.1-1.7,0.7c-2.8,0.9-1.2-0.1-1.2-0.1l-1.6,1l-2,2.9l-1.7,2.6
					l-0.4,3.5c0,0,0.3,0.4-0.4,1.2c-0.7,0.7-2,2.9-2,2.9l-2.5,2.8l-1.3,1.7l-1.2,0.7l-1.5,2.9l-1.4,5.4c0,0,0,1.9,0,2.5
					s-0.4,0.6,0.3,1.7c0.7,1.2,2.5,4.9,3.3,5.6c0.7,0.7,2.2,2.3,2.2,2.3l2,5.4c0,0,0.8,3.6,0.9,4.1c0.1,0.4-5.4,2.4-5.4,2.4
					s-3.4-10.4-3.4-10.9c0-0.4-0.1-4.7-0.1-4.7l-1.7-5.5l-1-1.9l-0.9-2.6l-1.2-1.2l-1.7-0.3c0,0-0.6-0.3-1.3,1
					c-0.7,1.3-2.7,4.1-2.7,4.1s0.4,2.2,0.4,2.6s0.1,5.1,0.1,5.1l0.3,2.8l3.1,7.8c0,0-1,1.7-1.2,2.6c-0.1,0.9-0.3,1.9-0.3,1.9
					l-0.1,5.2l0.4,6.1c0,0-0.1,3.6-0.2,4.1c-0.1,0.4-1.1,5.4-1.1,5.4l-4.3-4.9c0,0-0.9-4.5-0.9-5.2c0-0.7-1.1-5.4-1.1-5.4l-1.2-11.1
					l0.4-7.4c0,0,0.5-3.8,0.7-4.2c0.1-0.4,1.7-5,1.7-5l1.4-4.4l1.5-3.5l4.3-2.8l1.5-1.6l1.3-1.5l4.2-2l2-2l0.8-3.4l1.3-1.3l1.6-2.2
					c0,0,0-0.7,0.3-1.3c0.3-0.6,0.9-1.9,0.9-1.9l0.9-1.7l-0.1-1.3l1-1.6l3.4-2.1l2.8-1l3.5-1.5l2-2.6l1.3-2.8l1.1-3.2l0.3-1.5
					l1.2-1.5l1.6-1.5l1.5-2.2l5.6-4.3l-0.7-1.3l-5.9,4.7l-3.4-2.8l-1.7-1l-0.7-1.6l0.7-1.5l3.7-3.3l1.2-5.5l-1,0.6l-1.5,4.5
					l-3.7,3.6c0,0-1.6,0.9-2,0.9s-3.1-0.9-3.1-0.9s-0.6,0.1-1.2-1c-0.6-1.2-1.2-2.5-1.2-2.5l0.9-2.2l1.7-1.6l3.5,0.5l1,1.2l1.2,1.3
					l1.2-1.2l0.6-2.9l-1.2-1.7l-2.5-0.4c0,0-3.5,0.1-3.9,0.2s-3.6-0.5-3.6-0.5s-0.7,0.6-1.5-0.1c-0.7-0.7-1.2-0.9-1.3-1.5
					c-0.1-0.6-0.3-2.3-0.3-2.3l-0.7-2.2l-1.3-1.7l-1.3-1l-2-0.6l-2-0.4l-0.1-3.8l-2.3-1l-4.1,1.8c0,0-1.7,1.2-2.8,0.4
					c-1-0.7-2.2-1.7-2.2-1.7l-1.9-2.9l-1.2-2.8l-0.2-5.2l1.7-2.6l-2.6-1.3l-2.6-1.3c0,0-3.2,0.1-3.5-0.4s-0.1,1-0.3-0.4
					c-0.1-1.5,0.2-3.8,0.4-4.5c0.1-0.7,0.9-2.2,0.9-2.2l1.5-1.3l1.7-1.5l1.9-2.5v-2h1l0.1-2.8l-1.2-0.6l-1.2,0.7l-2.2,0.6l-1.7-0.4
					l-1.1,5.8l-1.4,6l-1.8,4.2l-1.5,3.2l-0.9,2.9l-0.7,1.2l1.1,4.2c0,0-0.1,3.5-0.2,3.9c-0.1,0.4-2.1,4.7-2.1,4.7h-2.2h-1.3h-1.5
					l-2.2,1.5c0,0-0.9,1.2-0.9,2.3s-0.7,3.9-0.8,4.5c-0.1,0.6-2,3.5-2.3,4.2s-2,2.2-2,2.2h-2.2l-1.6-2.3l-1.3-1.6
					c0,0-3.8,1.7-4.2,2.8c-0.4,1.2-1.6,2.3-1.6,2.3l-2.3,1.9l-3.1,0.1c0,0-1,0.9-1.5,0c-0.4-0.9-2.9-2.3-3.1-3.3
					c-0.1-1-0.8-5.5-0.8-5.5l2.3-2.2l1.6-1l5.1-0.7l0.3-1.9l2.3-0.6l3.2-0.7l1.6-1.7l-0.7-2.9l-1.7-1.6c0,0,0.3-1.3-1.7,0.6l-2,1.3
					l-6.4,1.2l-3.8-0.2v-2.5l-2.2-1.3l-3.2-0.9l-2.6,0.3l-3.2-2l-0.7,0.4l-2.9,0.9l-1.6-1.3l-1.9-2l-1.7-1.6l-2.1-4.2l-0.8-3.6
					l2.2-1.3l1.3-1h1.2l0.9-0.9l1.2-3.4l1.5-1.2l4.2-2l2.3-1.6l2.5-1.6c0,0,1.5-0.4,1.5-1.3s-0.9-2.5-0.9-2.5l-1.5-2.9h-2.2h-1.2
					c0,0-1.7,2.8-3,4.1c-1.3,1.3-1.2,1.9-2.5,2.6c-1.3,0.7-0.1-0.1-1.3,0.7c-1.2,0.9-1.9,0.7-1.9,0.7l-2.1-3.5l-1.3,0.7h-1.6l-1.6,1
					l-0.9-4.4l-0.1-5h-1.2h-2.3l-2.3,3.1l-1.7,0.8l-0.9-0.7c0,0,0.2-0.8,0-2c-0.2-1.2,0.7-3.4,0.7-3.4s0.2-0.4,0.4-1.2
					c0.1-0.8,0.1-2.1,0.1-2.1l1.2-1.5l1.7-1.6l2.5-1.7l1.3-1.2l1.9-1l1.7-1.4l2.1-2l-0.6-1.4l-3.3-1.3h-1.4l-1.3,2.2l-4.1,1.6
					c0,0-0.2,0.8-1.5,1.2c-1.3,0.4-2.7,1-2.7,1l-4.7,0.7l-2.3,0.2l-0.9,0.6l-1.6-1.7c0,0,0-1.2,0-1.7s0.7-1.7,0.7-1.7l1.2-0.6
					l3.3-1.4l1.5-1c0,0,0.7-1.4,0.1-2.1c-0.6-0.8-0.6-0.8-0.6-0.8s-0.4,0-1.9,1.2c-1.5,1.2-1.5,1.2-1.5,1.2l-2.9,0.2l-3.3-1.1
					l-1.4-0.1l-2.9,1.2l-1.5,2.3c0,0-0.6,0.8-0.9,1.5c-0.4,0.8,0.2,1.2-1.5,2.3c-1.7,1.2-2.7,2.2-2.7,2.2l-2.7,0.6l-1.7-0.1
					l-3.1-0.1c0,0-1.4-0.6-2.1-0.9c-0.7-0.4-2-1.3-2-1.3s-0.9-0.4-1.6-1.3c-0.6-0.9-1.4-1.2-1.4-2.5c0-1.4-1.4,0.6,0-1.4
					c1.3-2,2.1-2.8,1.9-3.4c-0.2-0.6-1-1.3-1.6-1.3c-0.6,0-3.1,0.8-3.1,0.8l-0.9,0.6l-2.9,1.2l-34.3,20.4l-17.5,6
					c-1.7-6.8-0.1-13.5,3-19.9l0.7-4.5l-7.9-1l-3.7-4.4l-3.2-4.7l-7.9-1.5l-4.7-3.7l-5-2c-18.1,9.7-23.6-2.7-23.6-2.7l-3.1-3.7
					l0.1-0.1l-7.1-8.2l-3.2-8.2v-11.9l-14.4-9.9v-4.4l-4.4-1.7l-1.7-7.2l3.9-3.5l-6-5h-4.7l-2.3-5.5l2-7.2l5-3.2l2.3-6.7h-4.2
					l-3.2-3.7l-0.5-6l3.7-2.7l-1.7-3.5l-3-5.5c0,0-4.4-2.7-3.7,0c0.7,2.7-2,5.5-2,5.5c-7.2-0.5-6.7-4.7-6.7-4.7l0.2-3.2l2-2l3-3.2
					l1-6l-3.9-3.2l-2.3,6.2l-6-2.2c0,0-1,3-5.5,2s-2-7.9-2-7.9l2.5-4.2l2.5,4.2l7.4-1.7v-3.2l3.2-5.5c0,0,0-2.3,0-3.5
					c0-1.2,3.7-5.5,3.7-5.5l6.2-7.9l5-1.2l-6.2-10.9l-4.2,3.2l-3.5-1.5l-5,3.5l-3.9-2.3l3-4.4l-5.7-2.3l1.5-3l8.2,0.2v-2.5l-9.9-9
					v-14.1l-5.5-0.5h-18.4l-7.7-5.5l-0.2-7.7l4.4-1.2v-1.5h-9.4l-2.5-4.4l-3.2-8.2l-7.2-3.7l-5,3l1.5,4.4l-1.7,10.9l-4.7,1.2
					l-6.7-10.2l-5-2.5l-5.2-9.9l-4.2,2.3v6.7l-2.7,6.2l-9.7,4.7l-6-3.7l-6-1l-12.9,8.4l-5-1.2l-9.7,2.7l-4.2-4.7l-3.2-6.9l3.7-3.7
					l3.5,2.5l1,4.7l4.2-0.7l1-3.2l-5.7-9.7l3.5-4.4l8.2,8.1l6.7-3l-8.4-13.2l4.7-3.5l13.6,10.9l3-2.3l-16.1-14.6h-5.2l-7.2-8.2
					l-2.3-6.2l4.2-3.2l-2.5-3.9l-6.5-1.7l-4.2,3h-3.5l-3.7,2.3l-4.2,3.2l-6.7,0.5l-5.7,4.4l-5.5-4.4l-4.2-1.2l-3,1.7l-4.7,6.9
					l-11.9,2l-5.7-9.4l-13.4,11.9l-5.7-1l-6.7,2l-13.4-5l-4.7-3.7l-6.5,3l-7.2,1.2l-6.9-1.5l-9.4,5.5v4.2l-12.4,3l-24.8-2.3
					l-14.9-4.4l-14.3-8.7l-3-5.7l-6-3.7l-3-4.4l0.7-3.5l9.4-4.7l-5.7-0.5l-1.5-5.5l-4.7-3.2l-17.3-15.7l-4.7,3.2l-4.7-2.7v11.4
					l-6.7,3.9l-5.5,1.7l-3.7-7.4l-5.5-3.7l-5.5-1v7.4l-4.7,0.2l-1.5,5.7l3.5,4.4l-5.2,6.2l-2.3,5.7l-9.2,2.5l-3.5-3l-4.4,4.2
					l-0.5,3.7l5,5l-13.6,6.5l-6.9,5.5l2.7,1.2l-1.7,10.9l4.7,7.4l-50.6,30.3l-27,13.2l-81.1,32.5l-60,12.7l-56.8,6l-73.7,6.9
					l-87.3-9.2l-73.9,2.5h-19.4l-17.6-3.7h-15.4l-37.8-8.2l-36.2-10.9l-17.6-3.7l-5.2-4.2h-5l-4.7-2.5l-2-5.5l-10.4-2.5l-11.4,3.7
					l-28.3-9.7l-27.5-13.2l-13.2-6.2l-16.9-8.7l-1.6-0.9l-5.8-6.8l-2.1-2.4l-0.5-4.3l-3.4-4.1v-9.3l-4.1-7.3l-5-4.2l-0.7,4.2l1.9,7
					l-5.2,3.4l-2.1-1.5l-7.6,1.5l-0.5-1.7l-2.8-1.2v-1.6l3.6-1.2l2.8-1.9l-1.9-2.4l-3.6,0.7l-3.8-0.9l3.8-4.1l6.4,1.7l3.6,3.1
					l2.1-1.9v-4.1l-4.3-3.1l-6-2.1l-13.8,4.3l-3.4,4.1l-0.7,5l-12.5-6.6l-10.1-6.8c0,0-0.1,0.1-0.2,0.1l-55.3-35.8l-87.8-70.9
					l-40.5-42.1l-18.1-11.9l-26.7-23.1l-29.9-11.6l-21.9-17.9v-7.9l-4.9-7.4v-1.9h-3l1.7,4.5l3.4,5l-0.7,7.4l1.7,3.4l-0.9,3.5
					l-15.5-7.7c0-1.8,0.1-4.3,0-5c-0.1-1.2-5.6-5.2-5.6-5.2s2.1-2.1,2.1-4.3c0-2.1-2.1-1.7-2.1-1.7l12.8-4.3l12.4,1.2V298l-12.4-1.5
					l-14.5,4.5l-10.5,8.7l-79.9-30l-75.5-27.8l-48.5-13.8l-15.7-13.8v1168.8h2090.6v-0.2h151.5L2329.3,955.2z"/>
			</g>
			<path style="fill:#E0DAD5;" d="M2039.3,816.3c0,0,32,17.6,56.5,10.9l-6,21.8l-25.3,11.1l-25.3-5.5l-7.8-23.9L2039.3,816.3z"/>
		</g>
		<g>
			<path style="fill:#E0DAD5;" d="M648,516c0-0.1,0-0.1,0-0.1c0.1-0.5,0.6-0.9,1.1-0.8c0.2,0.1,19.9,3.7,36.3,14.8
				c16.5,11.1,21.7,25,21.9,25.6c0.1,0.5-0.1,1-0.6,1.2c-0.5,0.1-1-0.1-1.2-0.6c-0.1-0.1-5.2-13.9-21.2-24.6
				c-16.2-10.9-35.4-14.4-35.6-14.5C648.3,516.8,648,516.4,648,516z"/>
		</g>
		<g>
			<path style="fill:#E0DAD5;" d="M1221.6,654c-0.6,0-1-0.4-1.2-1l-3.2-20.2l-4.3-2.2c-0.6-0.3-0.9-1-0.6-1.7c0.3-0.6,1-0.9,1.6-0.6
				l5.3,2.8l3.4,21.5C1222.8,653.2,1222.3,653.8,1221.6,654C1221.7,654,1221.7,654,1221.6,654z"/>
		</g>
		<g>
			<path style="fill:#E0DAD5;" d="M1215,653.7c-0.7,0-1.1-0.5-1.2-1.2l-1.5-18.1c-0.1-0.7,0.4-1.3,1.1-1.4c0.7-0.1,1.2,0.4,1.3,1.2
				l1.5,18.1c0.1,0.7-0.4,1.3-1.1,1.4C1215,653.7,1215,653.7,1215,653.7z"/>
		</g>
		<g>
			<path style="fill:#E0DAD5;" d="M1077.1,667.2c-0.7-0.1-1.1-0.6-1.1-1.2l0.1-18.1c0-0.7,0.5-1.2,1.2-1.3c0.7,0,1.2,0.6,1.2,1.3
				l-0.1,18.1c0,0.7-0.5,1.2-1.2,1.3C1077.2,667.2,1077.1,667.2,1077.1,667.2z"/>
		</g>
		<g>
			<path style="fill:#E0DAD5;" d="M993.3,661.1c-0.7-0.1-1.1-0.4-1.1-0.8l-0.5-11.1c0-0.4,0.5-0.7,1.2-0.7c0.7,0,1.2,0.4,1.2,0.8
				l0.5,11.1c0,0.4-0.5,0.7-1.2,0.7C993.4,661.1,993.3,661.1,993.3,661.1z"/>
		</g>
		<path style="fill:#E0DAD5;" d="M1558.8,409l-0.9,2.5v2.2l2.2,0.7c0,0,0.9-0.3,1.5-1.2c0.7-0.9,1.9-1.2,0.9-2.2
			c-0.9-0.9,0,0.3-0.9-0.9s1.5-4.1,1.5-4.1s-0.7-3.1-1.5-4.1c-0.9-0.9-2.5-0.3-2.5-0.3l-2.8,2.5c0,0,0,2.2-0.7,3.1
			c-0.7,0.9-1.2,3.1-1.2,3.1l1.2,1.9L1558.8,409z"/>
		<circle style="fill:#E0DAD5;" cx="2152.9" cy="923.5" r="1.7"/>
		<circle style="fill:#E0DAD5;" cx="2163.5" cy="893.8" r="1.7"/>
		<circle style="fill:#E0DAD5;" cx="2099.2" cy="1005.4" r="1.7"/>
		<circle style="fill:#E0DAD5;" cx="2085" cy="922.5" r="1.7"/>
		<circle style="fill:#E0DAD5;" cx="1258.7" cy="675.5" r="1.7"/>
		<circle style="fill:#E0DAD5;" cx="1236.1" cy="753.6" r="1.7"/>
		<circle style="fill:#E0DAD5;" cx="1179.6" cy="809" r="1.7"/>
		<circle style="fill:#E0DAD5;" cx="1179.6" cy="798.6" r="1.7"/>
		<circle style="fill:#E0DAD5;" cx="1175.4" cy="810.3" r="1.7"/>
		<circle style="fill:#E0DAD5;" cx="1175.4" cy="799.5" r="1.7"/>
		<circle style="fill:#E0DAD5;" cx="1324.7" cy="670.7" r="1.7"/>
		<circle style="fill:#E0DAD5;" cx="1722.6" cy="741.2" r="1.7"/>
		<circle style="fill:#E0DAD5;" cx="2164.5" cy="959" r="1.7"/>
		<path style="fill:#E0DAD5;" d="M1921.2,544.6c-1.2,2-5.1,8.3,2.3,6.8c7.4-1.5,12.5,11.9,7.4-1.5S1922.4,542.6,1921.2,544.6z"/>
		<path style="fill:#E0DAD5;" d="M1906.6,510.9c1.7,1.7,3.4,5.8,3.4,5.8l6.8,4.4c0,0,1.2-1.7,9.3,3.4c8.2,5.1,12.2,10.3,12.2,10.3
			h7.9c0,0-3.4,7.7,5.7,1.7c9-5.9,3.4-3.6,9-5.9c5.7-2.3,0,0,0,0l5.7-2.3c-5.7-11.9-2.2-8.4-2.2-8.4l-3.5-3.4c0,0-0.6-1-8.4-2.2
			c-7.9-1.2-7.9-1.2-7.9-1.2l0,0l-0.9-7.4c8.8-7.9,4.8-1.7,8.8-7.9c3.9-6.2,11.9,5.1,3.9-6.2c-7.9-11.3-2.8-7.6-2.8-7.6l-9.9-7
			l14.3-14.4c0,0-1.2-1,0-7.4c1.2-6.4,2.8-16,0-21.1c-2.8-5.1-8.4-9.6-8.4-9.6l-13-2.8v-13.8l3.9-13.4l3.1-5.1c0,0-4.8-11.3-7.1-7.9
			c-2.3,3.4-3.6,11.3-3.6,11.3s-3.8-1.5-6.8,8.6c-3.1,10.1-6.8,13-6.8,13h-5.8l-6.8-8.6l-3.4-17l-6.1-11.3l-5.8-8.4v-6.2l-13.5,3.9
			l-12.2-16.4l-12.9-14.9l4.5,32.3c0,0-22.7,3.9-13,13c9.6,9,9.6,9,9.6,9l3.9,11.4c0,0-1.7,0.1,7.6,6.6c9.4,6.4,22.4-11.7,9.3,6.4
			c-13,18.1-9.3,19.2-9.3,19.2s10.5-14.1,12.2,0s9,6.2,1.7,14.1c-7.4,7.9-6.8,3.4-7.4,7.9c-0.6,4.5-23.2,3.4-0.6,4.5
			s22.7,1.2,22.7,1.2l13-2.8l1.7,7.8l-2.8,7.6l10.7,6.7c13,9,13,9,13,9s9.8,3.4,3.2,7.4c-6.6,3.9,3.1,4.5-6.6,3.9s-1.2-5.1-9.6-0.6
			c-8.4,4.5-8.4,4.5-8.4,4.5L1906.6,510.9z"/>
	</g>
	<path style="display:inline;fill:none;stroke:#FFFFFF;stroke-width:2;stroke-miterlimit:10;" d="M576.8,617.3
		c0,0,49.7-42.6,66.5-48.1c0,0-62.6-41.1-84.3-54.3"/>
	<path style="display:inline;fill:#FFFFFF;" d="M864.2,642.3l-2,5.9l-1.1,4.2v3.7l-0.8,5.6l-1.5,6.6l-1.1,3.3l-3.6,0.8h-4.4
		l-2.3,2.6l-2.3,2.7v2.1v3v3.6v4.5v5.2l-3.7,7.5l-4.2,5.5l-5.3,5.6l-8.2,3.7c0,0-4,1.5-5.2,1.9c-1.2,0.3-8.4,1.9-8.4,1.9l-7.5,1.5
		l-11.7,2.3l-8.5,2.7l-10.3,2l-3.1,4l-3,2.8l-2,4.7v2.8l-1.2,3.9l-0.9,3.4l-5.9,3.4h-4.1h-1.2v3l-1.5,2.2l-3.9,7.9l-3.1,3.1
		l-4.5,6.6l-4.4,5.9l-3.8,4.2l-3.3,2l-4.2,2.6l-1.5,2.5v5.9l1.5,3.6l3.5,6.8l1.7,5.8v3.7l1.1,4.7l1.1,4.1v11.7l-0.9,2.8l6,7.5
		l-2.7,2.6l-4.7,6l-4.7,3.4l-4.2,3.6l-0.7,2.5l1.4,1.9l3.6,2.2l2.9,2.2l4,2l3.8,4.2l2,2.1l-0.7,4.1l-5.1,4.4l-4.7,2.6l-3.6,2.8
		l-0.7,2.5l2.8,2l3.8,1.7l6,2.3c0,0-0.4,1.4,0,1.9c0.4,0.4-1.4,6-1.4,6l-2.4,2.6l-2.3,3.1l-1,3.4l1,1.2l0.7-1.4l1.6-2.8l2.4-4.1
		l1.4-3.1l2.3-4.1l0.1-3.3l-2.4-1.9l-2.9-1.4l-4.9-1.2l-2-2.3c0,0,0.9-0.9,1.2-1.4c0.3-0.4,3.3-3.1,3.3-3.1l3.4-1.5l2-1.7
		c0,0,2.3-2,2.7-2.5c0.4-0.4,2-2.8,2-2.8l-3.4-4.4l-3.3-5.2l-2.8-1.4l-3-2.3l-3.5-1.3l-0.9-2.7l2.3-2.7c0,0,4.9-4.7,5.2-5.2
		c0.3-0.4,3-2.5,3.2-3c0.2-0.4,1-1.5,1.4-2c0.4-0.4,2.3-2.8,2.3-2.8l1.2-4.1l-2.2-3l-3.3-2.8l-1.1-2.2c0,0,1.5-3,1.6-3.9
		c0.1-0.9-0.2-2,0-3.6s-0.6-6.8-0.6-6.8l-1.8-8.6l-1.3-6.2c0,0-1.7-1.9-1.9-2.5c-0.1-0.7-1.7-3.6-2-4.4c-0.3-0.8-2.5-4.7-2.3-5.5
		c0.1-0.8,0.6-5.3,0.6-5.3s1.5-1.5,1.7-2.2c0.3-0.7,5.2-3.6,5.2-3.6l3.8-4.2l4.1-5.3l6-6.6c0,0,3.4-3.3,3.3-3.9
		c-0.1-0.7,3-5.8,3-5.8l2.5-5.9l2.3-1.5l5.2-1.4c0,0,2.2-1.9,2.8-2.3c0.7-0.4,3.6-5.6,3.7-6.4s1.7-4.7,1.7-5.2s0-3.1,0-3.1l4.4-6.7
		l10.7-2.3l9.9-2.2l5-0.4l10.6-2.8l5.5-1.5l7.5-0.8c0,0,7.9-3.1,9-3.6c1.1-0.4,5.5-2,5.5-2l3.3-3.1c0,0,7.9-5.8,8.4-6.8
		c0.4-1.1,5.3-5.9,5.3-5.9s0.3-6.4,0.3-7.1s-0.8-6.6-0.8-6.6s0.9-3.1,1.1-3.6s1.7-1.4,1.9-1.9c0.1-0.4,2.5-2.3,2.5-2.3l2.5-0.9
		l2.6-1.9l1.2-2.6l0.7-7l0.3-4.8l-0.3-3.6l1.4-5l3-6.2l1.5-4.1l1.4-3.4l0.7-2.8l-5.8-1.9"/>
	<g style="display:inline;">
		<polygon style="fill:none;stroke:#FFFFFF;stroke-width:2;stroke-miterlimit:10;" points="641.7,576.8 632.7,588.4 606.2,604.9 
			603.6,611.6 609.4,611.1 614.6,616.2 621.7,616.2 637.1,614.6 651.1,613.3 669.9,612 679.2,610.1 682.9,606.1 687.6,608.2 
			703.9,607.9 701.2,602.8 		"/>
		<polyline style="fill:none;stroke:#FFFFFF;stroke-width:2;stroke-miterlimit:10;" points="682.9,606.1 652.5,592.6 636.9,594 
			609.4,611.1 		"/>
		<polyline style="fill:none;stroke:#FFFFFF;stroke-width:2;stroke-miterlimit:10;" points="623.4,602.4 625.2,604.2 664.8,600.8 
			666.1,598.6 		"/>
	</g>
	<path style="display:inline;fill:#FFFFFF;" d="M774.9,624.3l5.7,2.3l-6.8,5.5l-31.5,0.9l-6.4-0.9l-13.5-6.7l-60.7,4.1l-22.4,1.1
		c0,0-10.9,0.8-18.5,6.4c0,0-17.9,14-7.1,40.4c0,0,9,18.2,11.7,22.4c0,0,2.1,4.8-3,2.2l-5.1-3.4l-1.7-1.5h-1.8l-1.4,1.2
		c0,0-0.4,9,5,14l6.7,5.6l5.6,4.4l14.7,9.5l22.1,14l4.8,4.5l5.2,5l7.6,7.5l7,7.1c0,0,2.8,1.7,2,4.8l-4.4,21.3l-5.2,4.5l-5.3,4.2
		c0,0-11.4,14-12,18.5c0,0,6.1-15.2,10.5-18.6l10.4-8.7l5.3-20.7c0,0-2-5-6.7-8.6L672,752.7l-14.3-11.5l-13.4-7.5l-12.1-7l-9.8-6
		l-7.6-5.8c0,0-5.3-4.2-6.7-8.2v-9.5v-4.4c0,0,0.4-3.3,0-3.7c-0.4-0.4,0.9-5.6,0.9-5.6l-1-5l-2.1-5l-0.9-10.7v-7.1l1.1-8.6
		c0,0,7.6-15.1,17.4-18.1l9.5-1.9l5.9-0.8l4.5-0.3l0.9-1.7l1.5-2.2l20.5-1.5c0,0,20.2-2,21.1-2.1c0.8-0.1,12.9-1.5,13.7-1.5
		c0.8,0,10.1-0.8,10.3-0.8c0.3,0,6,1.5,6,1.5l5,2.9l5.1,2.7l6,2.8l7.4,2.5l5,0.9l13.4-0.1l9-0.1l2.5-1.2L774.9,624.3z"/>
	<path style="display:inline;fill:#FFFFFF;" d="M1434.7,586.8l-2,1.2v2.2v3.1l1,1.7l1.4,1.2l1.5,0.5h2h1.5l1.4-1.2l2.3-1.4l1.7-0.9
		l2-0.2l1.7,0.5l1.5,0.5l1.7,0.5l2.3,0.3c0,0,0.9-0.7,1-1.2c0.1-0.5,0.5-1.4,0.7-1.9c0.2-0.5,1-1.9,1-1.9l1.5-0.7l1.5-0.1l1.4-0.1
		l1.2,0.7l1,1.2c0,0,0.8,0.8,1.2,0.9c0.4,0.1,1.2,0,1.2,0l0.8-0.5c0,0-0.2,0,0.5-0.3c0.7-0.3,1.7-1.2,1.7-1.2l1.2-0.4l1.4,0.2l1.2,1
		c0,0,0.5,0.1,0.7,1.2c0.2,1.2,1.5,3.5,1.5,3.5l1.7,1.5l2.6,0.8l3.6,1.4l4.1,2.1l2.4,2.4l1,1.4l0.5,1.2l1.2,1l4.2,3.2
		c0,0,0.7,1.5,1,2.1c0.4,0.5,3.4,3.7,3.4,3.7l1,1.9l0.7,3.1v4.8v3.4l-1,2.8v2.7v2.7l1.9,2.2l2.9,2.5l-2.4-3.9l-0.7-2.9l0.3-3.9
		l0.7-2.6l0.2-4.1l-0.1-4.6c0,0-0.8-2.1-1-2.6c-0.2-0.5-0.3-1.4-0.7-1.9c-0.4-0.5-1.9-2.7-1.9-2.7s-0.7-1-0.7-1.4c0-0.4,0.5-1,0.5-1
		l1.7-0.7l2.4-0.3l1.9-1.2l3.6-1.5l3.6-0.7l3.2,0.3l4.1,0.5l4.4,2.2l4.7,2.8l2.2,3l3.1,3.1l1.7,3.5l1.4,3.7v4.1l-0.9,4.4l-0.9,5.1
		l0.3,4.1l-0.1,5.9l0.1,3.4l0.9,2.6c0,0,0,1.7,0.7,2.5c0.7,0.7,4.6,3.1,4.6,3.1h3.1l2.4,0.5h2.6l2,0.8c0,0,1.7,0.2,2.9,0.4
		c1.2,0.2,3.6,1.5,3.6,1.5l3,2.1l2.7,2.4l2.7,2.6c0,0,2.6,2.2,3,2.6c0.4,0.4,4.2,3.7,4.2,3.7s2.5,2.4,2.8,2.7c0.3,0.3,2.6,2.3,3,2.8
		c0.4,0.5,1.9,2.1,2.4,2.4c0.5,0.3,4.1,2.3,4.8,2.8c0.7,0.5,3.1,2.2,3.6,2.2c0.5,0,3.7,2.1,3.7,2.1l3.6,0.8c0,0,3.6,0.2,4.4,0.4
		c0.7,0.2,7.9,2.2,9,6l0.4,3.1l0.7,3.7v3.5l0.7,0.4l0.7-0.7v-2.6v-3.9l0.5-2c0,0,0.2-0.3,0.9,0.7c0.7,0.9,2.4,1.7,2.4,1.7l1.7,0.8
		l2.6,1c0,0,2,0.7,2.2,0.9c0.2,0.3,2.7,2,2.7,2l2.4,1.7l3.4,2.2l1.4,1.7l1.5,1.4l-0.7,2.6c0,0,0.1,6.1,0.1,6.6
		c0,0.4,0.2,6.6,0.2,6.6s-0.4,5.9-0.4,6.4c0,0.5-0.7,6.4-0.7,6.4s0.1,2.3,0.3,2.7c0.2,0.4,0.8,2.6,1.2,3.2c0.4,0.6,1.7,0.7,1.7,0.7
		s0.8-2.6,0.8-3.1c0-0.5-0.7-5.6-0.7-6s-0.1-7.4-0.1-7.4s1.2-3.9,0.8-4.4c-0.3-0.7-0.2-1.9,0.1-4.2c0.3-2.4,0.4-4.4,0.4-4.4
		s1.2-3.4,1-3.7c-0.1-0.4-1.2-2.2-1.4-2.5s-1-1.5-1.5-2s-1.7-1.5-1.7-1.5s-1.5-0.9-1.9-1.4c-0.4-0.4-2-1.5-2.3-2s-1.2-0.8-1.5-1
		c-0.3-0.2-1.2-0.5-1.5-0.8s-1.9-1.5-2.2-1.5s-2.4-1.4-2.4-1.4s-0.9-0.2-1.5-0.4c-0.5-0.2-2.3-1.2-2.8-1.4c-0.5-0.2-1.2-0.4-1.5-0.9
		c-0.3-0.5-0.7-0.7-0.9-1.4c-0.3-0.7-1-0.8-1.5-1.7c-0.4-0.8-0.7-0.7-1.2-1.7c-0.7-1-1.2-1.5-1.2-1.5s-0.7-0.4-1.2-0.5
		c-0.4-0.1-2.1-0.7-2.1-0.7l1.1-2.4l0.9-1.5l1-1.7l1.2-0.9c0,0,0.7-0.2,0.9-0.3c0.2-0.1,1.2-0.3,1.4-0.3c0.2,0,2.3-0.7,2.3-0.7
		l1.7-0.3l1.1-0.3l-0.4-0.9c0,0-2.5,0.5-3.1,0.7c-0.4,0.1-1,0.2-1.7,0.5c-0.7,0.3-3,1-3,1l-2,0.9l-1,0.8l-3.6,2.5c0,0-0.5,0.1-1.2,0
		c-0.7-0.1-0.9-0.2-1.5-0.3c-0.7-0.1-3.4-0.1-3.9-0.5s-2.5-0.8-3.1-1.1c-0.5-0.3-2.6-1.1-3.1-1.5c-0.4-0.4-1.7-1.1-2-1.5
		c-0.3-0.4-3.6-2.1-3.6-2.1s-2.5-3.2-2.8-3.4s-0.5-2.5-3.6-3.1c-3.1-0.7-6.6-4.4-6.8-4.5c-0.2-0.1-4.2-3-4.2-3s-2.6-2-3-2.3
		c-0.3-0.4-3.2-1.6-4-2.3s-2-1.3-3.1-2c-1.1-0.7-5.3-1.5-5.9-1.7c-0.7-0.1-4.3-1.2-5.3-1.4c-1-0.1-4.1-1-4.4-1.4
		c-0.3-0.4-2.2-2.1-2.2-2.1l-2.7-4.8l-1.2-5.2l0.3-4.2c0,0,0.1-2.5,0.2-2.8c0.1-0.3,1.2-2.8,1.2-2.8l1-3l-0.8-7.6
		c0,0-2.5-5.8-2.9-6.6c-0.4-0.7-2-2.9-2.5-3.5c-0.6-0.7-3.2-3-3.3-3.4c-0.1-0.3-3.4-2.9-3.4-2.9s-6.3-4.4-11.9-5.6
		c0,0-6.8,1.4-7.1,1.2c-0.3-0.1-4.7,1.4-5.2,1.5c-0.5,0.1-5.2,1.7-5.2,1.7s-2.6,0.7-3.2,0.3c-0.6-0.4-2.8-1.5-3.2-1.9
		c-0.4-0.4-1.7-1.5-2-2.1c-0.4-0.5-2-2.4-2-2.8c-0.1-0.4-2.4-2-2.4-2l-2.7-1.3l-2-1l-3.8-1.4l-2.3-1.5l-0.9-2.5v-1.5l0.3-2.4
		l0.9-0.9l0.9-1.2c0,0,0.1-0.5-0.1-1.2c-0.1-0.7-0.2-0.5-0.5-1.2s-0.9-0.8-1.1-1.2c-0.2-0.4-1-0.5-1-0.9c0-0.3,0-0.7,0-1.4
		c0-0.7,0-1.5,0-1.5l0.7-0.9l-0.7-4.6l0.4-2.5l0.3-2.1l0.9-1.5l1.3-1.2l0.4-1.8l-1.2,0.4l-1.2,1.2l-0.9,0.9c0,0-0.9,1.1-1,1.5
		c-0.1,0.4,0,1.3-0.4,1.7c-0.4,0.4-1.1,1-1.1,1l-2-0.3c0,0-0.3-1-0.4-1.3c-0.1-0.3-0.5-0.8-0.5-0.8s-0.9,0.4-1.8,0.8
		c-0.9,0.4-4,1.5-4,1.5s-1,0.7-1.6,1.2c-0.7,0.5-1.8,1.1-2.7,1.7c-0.9,0.7-2.4,1.3-2.9,1.6c-0.5,0.3-2.6,1.4-2.6,1.4
		s-0.4,1.2-0.9,1.5c-0.4,0.4-0.4,0.5-1.2,1.4c-0.8,0.9-0.1,1.3-1.5,1.5c-1.4,0.1-2.7,0.1-2.7,0.1l-1.9,0.7l-1.2,0.3l-1.4,0.9
		l-1.6,0.9l-1.4,1.1l-1.5,0.7l-1.8,0.4L1434.7,586.8z"/>
	<g style="display:inline;">
		<polygon style="fill:none;stroke:#FFFFFF;stroke-width:2;stroke-miterlimit:10;" points="783.7,671.5 765,660 752.2,663.7 
			753.2,682.8 756,686.2 770,684.6 		"/>
		<path style="fill:none;stroke:#FFFFFF;stroke-width:2;stroke-miterlimit:10;" d="M783.7,671.5l10-1.2l43-4.4l21.8-0.9l14.9,2.2
			l20,8.4c0,0,24.3,12.2,21.2,51.1l3.1,71.6l14.9,16.2l5.3,9.3l4.1,29l0.7,10.6l-4.1,4.1"/>
	</g>
	<path style="display:inline;fill:#FFFFFF;" d="M1108.8,661.5v-1.4h1.9l1.5,0.7c0,0,0.7-0.4,0.8,0.7c0.1,1.1,1.1,3.6,1.1,3.6v3.6
		l-0.8,2.8l-0.3,2.8c0,0-1.7,1.2-1.5,1.7c0.1,0.4,0,2,0,2v5.2l-1.2,3.3v2.2c0,0,0.3,2,0.4,2.5c0.1,0.4,0.8,3,0.8,3l3.7,3.9
		c0,0,1.7,1.7,2.5,2.5c0.8,0.8,3.7,3.3,3.7,3.3l2.2,2.3l2.3,2.5l1.4,2v4.2l-1.4,7.6l-0.7,4.4l-0.7,4.7l-1.4,7.6l-1.7,5.6l-2.5,4.9
		l-2.3,6.4l-2.8,5.7l-2.2,4.1l-1.2,2.6l0.9,10.5l0.2,1.7l0.2,2.6l0.8,4.2l0.7,3.4l2.2,2.4l2.6,2.5l0.8,1.2l1.2,1.2l0.7,1.2l-1.5,2.8
		l-1.9,4.2l-5,6.3l-2.2,2.5l-4.5,5.3c0,0-4.7,3.5-4.7,4.1c0,0.5-2.4,3.9-2.4,3.9l-1.5,3.4l-1.5,4.4l-2.7,4.8l-5.3,13l-2.6,6.3
		l-2.4,5.6l-1.5,1.5l-3.1,0.7l-4.6,0.7l-4.4,1.5l-3.5,0.9l-3,1.4l-3.4,1.5l-15.9,9l-6.1,4.7l-4.1,2.9c0,0-3.9,2.2-4.1,2.6
		s-3.6,3.1-3.6,3.1l-2,1.7l-1.7,0.9h-3.6l-3.7-1.4l-2.6-0.7l-3-0.8l-3.3-0.8l-4.9-0.6l-5.8,0.5c0,0-8,1.5-11.7,2.7l-5.7-0.7
		l-3.9-0.7l-4.4-0.4l-4.6-0.7h-4.2l-0.9,0.7l-1.2,3.4v3.2c0,0-0.1,1.9,0,3c0.1,1.1-0.2,4.9-0.1,5.3s-0.4,2.5-0.6,2.8
		c-0.1,0.3-0.8,1.7-1,2.6c-0.2,0.9-0.7,2.9-0.7,3.4s-1,3-0.7,3.9c0.3,0.8,0.4,2.5,0.4,2.5l0.7,1.5l0.7,3l1.2,5.2l0.9,2.6l-0.3,3.4
		l-1.2,3.9l-1.5,4.7l-1.1,2.9v3.4l-0.4,4.4l0.7,3.7l1.4,3.5l2,6.3l1.2,2.2l1.7,2.7l1.4,2.6l0.8,1.5l0.8,2.4l0.5,2.1l0.3,4.1
		l1.2,15.4l-0.3,4.7l0.2,3l-0.4,2.3c0,0-1.2,1.7-1.5,2.4c-0.3,0.7-2.2,3.5-2.2,3.5l-2,2.4l-5.3,7.3l-0.5,0.8l-1.8,0.9l-0.8-0.9
		l0.8-1.2l1.9-2.3l1.2-1.5l1.2-1.4l1.5-1.5l1.4-1.7l1.5-2.6l0.8-0.9l0.7-1.4l0.7-2.8l-0.4-4.7l0.2-3.1l-0.5-3.9l-0.7-3.7l-0.9-4.8
		l-1.2-4.7c0,0-1.2-1.2-1.2-2c0-0.7-1.4-5.2-1.4-5.2s-0.8-2.9-0.9-3.2s-1.2-3.4-1.2-3.4s-0.9-2.6-1-3.2c-0.1-0.7-1.6-5.2-1.6-5.2
		L952,966c0,0,1.2-3.9-5.8,0.3l-4.7,1.9l-2.5,1.4l-3,1.9l-1.5,2.2l-3.1,4.2l-2,3.4l-3.2,4.9l-2.9,4.4L919,995l-1.4,3.7l-0.8,3.4
		c0,0-1.5,2.4-1.5,3c-0.1,0.7-1.5,3.5-1.5,3.5l-1.5,2.5l-1.2,2.2l-1.2,1.7v3.9l-0.7,6.4v5.4l-1.2,2.7l-2.3,1.2l0.5-3l0.5-5l-0.4-3
		l0.5-5.2c0,0,0.5-4.4,0.7-5c0.1-0.7,1.5-5.7,1.5-5.7s1.2-1.2,1.7-2.5c0.5-1.2,1.5-3.6,1.5-3.6l2-2.4l1-2.7c0,0,2.2-2,2.3-2.3
		c0.1-0.3,1.5-2.4,1.9-3c0.3-0.7,4.2-4.8,4.2-4.8l4.6-6.8l1.5-3.4c0,0,0.7-0.7,1.4-2c0.7-1.4,1.5-1.9,1.9-2.5
		c0.4-0.7,1.2-2.3,1.9-2.5c0.7-0.2,3.1-1.7,3.1-1.7l6.6-3.6c0,0,2.8-2.6,3.1-2.8c0.3-0.2,2.7-1.7,3-2c0.3-0.3,2.3-5.3,2.3-5.3
		l1.1-7.8c0,0,0.9-7.6,0.9-8.1c0-0.5-0.4-2.8-0.7-3.9c-0.2-1-1.5-5.8-2.3-6.9c-0.7-1.1-0.7-0.4-0.8-1.7c-0.2-1.4,0.7-6.8,0.7-7.1
		c0-0.4,1-10.3,1-10.3l0.6-9.3c0,0-0.5-3-0.6-3.4s-0.4-3.7-0.6-4.8c-0.2-1-1-4.2-1-4.2s-1.5-5.9-1.5-6.6S949,874,949,874l-0.7-3.1
		l-0.7-5.8l0.9-4.2c0,0,1.2-1.9,1.5-2.3c0.3-0.4,3.4-5.2,3.4-5.2l2.8-2.5l4.8-3.1l2.2-1.4l3.9-2.6l2.3-1.9l1.7-0.7l1-1.2l0.8-0.7
		l2.1-0.3l3.2,0.3l2.7-0.2l3.4,0.2l1.3-0.5l0.9-0.7l0.9-1.9l1.2-0.4l3.5,1c0,0,2,0.5,2.5,0.5s2.4,0,2.4,0l2.4-0.3l2.3-1.5l2.5-1.7
		l2.3-1.2l3.4-0.7l3.6-0.2l2.9-1.2l2.1-1.4l1.5-2.3l2-4.7c0,0-0.3,0.1,1-0.9c1.4-1,3.7-2.7,4.1-2.9c0.3-0.2,2.4-2.8,3.1-3.6
		c0.7-0.9,3.4-3.2,3.4-3.2s0.7-1.9,1.4-2.8c0.7-0.9,2.5-3.2,2.5-3.2s2.5-4.2,2.5-4.4s1.7-3.6,1.7-3.6l1.5-2.1l1.2-2.6l1.7-2.2
		l0.9-1.4c0,0,1.2-1.2,2.5-1.2s9.8-1.2,9.8-1.2l7.1-1.7l3.9-1.5c0,0,3.9-1.9,4.4-2c0.4-0.2,1-0.8,1.7-1.2s2.9-1.7,2.9-1.7l4.1-0.4
		c0,0,2.5,0.8,3.4,0.8c0.8,0,3.4-0.1,3.4-0.1s0.7-0.5,1-0.9c0.4-0.4,1.5-1.7,1.5-1.7l2.3-0.2c0,0,1.7-0.2,2-0.2s4.2-1.2,4.2-1.2
		l1.5-0.8l3.9-5.5l4.1-7.6c0,0,1.9-5.3,2-5.7c0.1-0.4,2.2-5.1,2.2-5.1l2.4-4.9l1.2-4.6l1.9-9l1.7-4.7l1.2-5.9c0,0,0.9-3.6,0.9-4.2
		s0.3-3.6,0.3-3.9s-0.9-2.2-1.4-3c-0.4-0.8-1.5-2.6-1.9-3c-0.3-0.4-1.7-2-1.7-2l-2.8-3.6l-2.7-2.6l-3.5-3.6l-1.2-2.6l-0.5-4.7
		c0,0,0.3-2.1,0.4-2.8s0.5-3,0.5-3s-0.5-1.7-0.5-2.2c0-0.4,0.5-3.2,0.5-3.2l1-4.2l-0.3-2.8c0,0-0.2-2-0.3-2.7s-0.1-1.5-0.2-2
		c-0.1-0.4-0.7-1.5-0.7-1.5L1108.8,661.5z M1108.3,769c0,0-0.4,0.1-1,0.4c-0.7,0.4-0.4,0.7-0.7,0.9c-0.4,0.3-1.3,1.5-1.5,1.7
		c-0.1,0.3-0.7,0.7-0.8,1.2c-0.1,0.4-0.9,0.9-1.2,1.3s-1.2,1.2-2,2c-0.8,0.8,0,0-0.7,0.4s-1.8,0.9-2.1,1.2s-1.4,0.7-2,0.9
		s-1.5,0.9-1.5,0.9s-1.5,0.8-4.2,1.3c-2.6,0.5-1.3,0.4-1.3,0.4s-1.4-0.3-1.6-0.4s-2.4-0.9-2.4-0.9s-2.6-0.7-3.5-1
		c-0.9-0.3-1.7,0.3-2.6,0.7c-0.9,0.4-1.1,0.9-1.7,1.3c-0.7,0.4-2.6,1.2-3.1,1.3c-0.4,0.1-1.8,0.9-2.8,1.3c-1,0.4-3.1,0.8-3.4,0.9
		c-0.3,0.1-3.1,0.9-3.1,0.9l-4.1,1l-3.6,0.8l-2.4,0.7c0,0-4.2,0.5-5.2,0.7c-0.9,0.1-2,0.7-2.2,0.8c-0.2,0.1-2,2.7-2.1,3.1
		c-0.1,0.3-1.6,3.3-1.6,3.3l-1.2,3.1l-1,3l-1.5,3.1l-1.4,3.4c0,0-3.7,5.5-3.9,5.8c-0.1,0.2-2.5,3.6-2.5,4c0,0.4-0.8,2.5-0.8,2.5
		s-4.7,4.4-5,5c-0.4,0.7-2.6,1.2-3.4,1.5c-0.7,0.3-2.6,1.9-2.6,1.9l-4,1.8c0,0-2.3,1.4-2.5,1.7c-0.2,0.3-2.1,1.6-2.1,1.6
		s-5.4,2.5-6,3.1c-0.6,0.5-4.2,1.2-4.2,1.2s-4.8,0.2-5.9,0.3c-1.1,0.1-3.5,0.5-4.2,0.7c-0.7,0.1-5,0.7-5,0.7l-5.3,1.1l-3.3-0.4
		l-4.7,1.1c0,0-5.3,1.3-5.8,1.5s-2.3,1.4-2.3,1.4l-3.4,3.3c0,0-1.2,1.5-1.5,2.2c-0.3,0.7-0.9,1.9-0.9,1.9l-2.8,1.9
		c0,0-1.5,1.4-1.6,1.9c-0.1,0.4-1.5,3.4-1.6,3.9c-0.1,0.5-1.5,3.4-1.8,3.7c-0.4,0.4,0,5.4,0,5.4s0.1,4.3,0.4,4.7s1.2,2.5,1.5,3.1
		s2.4,4.3,2.4,4.3s1.5,4.1,1.7,4.5c0.1,0.4,3.4,3.4,3.6,3.6s5.2,2,5.2,2l6,1.5l7.7,0.5l5.5-1.2l3.4-2.3l2.7-1.4c0,0,2-1.2,2.3-1.2
		s2.7,0,2.7,0s0.7,0.7,1.1,1.2s1.7,0.4,1.7,0.4l1.5-1l3.5-0.9l1.8,0.5l1.2,1.1l1.9,1.1l2.5,1.5l3.3,1.1l2.1,1.2l3.6,0.9h3.2l1.9-1
		l3.1-2.3l3.3-1.9l4.5-3.4l4.6-2.9l3.5-2.9l6.8-4.7l2.5-1.5c0,0,3.4-2.5,4.4-2.9c1-0.4,4-1.1,4-1.1l4.6-0.9l4.4-0.9l3.6-0.9l1.8-2.3
		l2.2-2.5l3.1-5.2l2.5-4.4c0,0,2.5-7.9,2.6-8.2c0.1-0.3,0.7-1.8,0.8-2.1c0.1-0.3,0.7-2,0.7-2s-3.1,0.9-3.4,0.9s-1.8,0.5-2.3,0.7
		s-1.5,0.5-1.5,0.5s-1.8,0.5-2.2,0.7s-1.9,0-1.9,0l2-1l3.1-1l2.7-1.4l1.2-1.1c0,0,0.7-1.3,0.4-1.5c-0.2-0.2,0-1.9,0-1.9l1.7-3.4
		c0,0,2.5-3.4,2.9-3.7c0.4-0.4,2.8-1.8,2.8-1.8l3.6-3.1l4.2-5.2l1.8-1.5l2.3-3.2l4.4-3.2l1.9-3.6l0.4-2.5V801c0,0-0.5-2.4-0.5-2.8
		c0-0.4,0-3,0-3l-1-3.2c0,0-0.7-5.8-0.8-6.2c-0.1-0.4-0.4-2.3-0.4-2.3v-2.5l-0.4-3.7l-0.4-2.4l-0.4-2.6l-0.7-2.3L1108.3,769z"/>
	<g style="display:inline;">
		<path style="fill:#FFFFFF;" d="M898.6,784.9l11.4,9.5l1.2,1l0.4,4.2v2l-1.7,2.6l-1,2.8l-1.5,4.1v4.2c0,0,0.5,1,0.9,4.1
			c0.4,3,1.2,4.4,1.2,4.4l0.5,2.6l0.2,3.9l0.4,3.6l-1.5,2.5l-5.7,2.2h-1.6h-0.7v-1.5l-0.7-0.5c0,0-1.2,0.2-2,0.7s-4.4,2.3-4.4,2.3
			l-0.8,0.9l-2.2-3.1l-2.6-2.2l-1.5-0.4l-4.6-0.1h-1.2v-1.4l2.5-0.8l4.7-0.3l1.7-1.5l2.7-1.4l3.5-2.4l2.9-2.9l2.5-2.3l2.6-1.4
			l1.4-1.5v-1.2v-5l-0.6-3c0,0,0.3-1,0.6-1.5c0.3-0.5,0.7-0.9,1.1-1.7c0.4-0.7,1.4-3.1,1.4-3.1s1.5-2.6,1.5-3.1s0.4-1.7,0.4-2.8
			s-1.7-3.6-1.7-3.6l-1.4-0.7l-1.3-0.2l-2,0.4c0,0,0-2.1-0.2-2.4c-0.2-0.3-0.7-1-0.7-1h-1.1l-3.1-0.7c0,0,0-0.1-0.3-0.7
			c-0.3-0.5-0.7-1.7-0.7-1.7v-1.2L898.6,784.9z"/>
		<path style="fill:#FFFFFF;" d="M912.4,821.4l0.4,3.9l1,0.9l1.4-0.7l2.8-0.7l0.8-1.1l1.2-1.8c0,0-0.3-2,0-2.4c0.3-0.4,0-0.4,0-0.4
			l-3.2,0.7c0,0,0.1,0-0.6,0.4c-0.7,0.4-0.8,0.7-1.1,0.7s-1.7,0.1-1.7,0.1L912.4,821.4z"/>
	</g>
	<circle style="display:inline;fill:none;stroke:#FFFFFF;stroke-width:2;stroke-miterlimit:10;" cx="556.9" cy="513.6" r="3.2"/>
	<polyline style="display:inline;fill:none;stroke:#FFFFFF;stroke-width:2;stroke-miterlimit:10;" points="1115.9,662.7 
		1116.3,667.7 1112.8,680.8 1113.4,703.5 1100.7,748.4 1107.2,779.8 1139.3,787.9 1215.9,767.7 1234,754.9 1243.9,749.3 1253.6,738 
		1275.6,736.2 1333.8,713.1 1340.2,712.3 1353.3,712.1 1368.4,715.9 1402.7,716.5 	"/>
	<path style="display:inline;fill:none;stroke:#FFFFFF;stroke-width:2;stroke-miterlimit:10;" d="M1215,692.1
		c-11.7-2.3-23.6-4.2-35.4-5.8c-6-0.9-12.1-1.7-18.1-2.4c-5.1-0.7-12.5-0.2-16.8-3.2c-1.6-1.1-3.1-2.4-4.8-3.2
		c-3.1-1.4-6.5-0.7-9.7,0.1c-3.6,0.9-6,1.3-9.8,1c-24.3-2-47.8-6.7-71.5-12.2c-6.6-1.5-14.1-0.3-20.9-0.3c-7.6,0-15.2-0.1-22.7-0.4
		c-15.2-0.5-30.3-1.4-45.5-2.2c-41.8-2.3-99.1-8.4-136.9-26.4"/>
	<g style="display:inline;">
		<polyline style="fill:none;stroke:#FFFFFF;stroke-width:2;stroke-miterlimit:10;" points="1106.7,779.7 1095.1,804 1093,812.4 
			1083.4,825.7 1064.6,847.2 1056,856.9 1050.6,866.6 1046,882.8 1043.8,899.9 1041.9,911.7 1038.5,917.9 1018.2,935.1 		"/>
		<circle style="fill:none;stroke:#FFFFFF;stroke-width:2;stroke-miterlimit:10;" cx="1016.6" cy="936.7" r="1.5"/>
		<circle style="fill:none;stroke:#FFFFFF;stroke-width:2;stroke-miterlimit:10;" cx="973.2" cy="1008.6" r="1.5"/>
		<polyline style="fill:none;stroke:#FFFFFF;stroke-width:2;stroke-miterlimit:10;" points="1015,938 981.7,983.1 974,1006.2 		"/>
		<polyline style="fill:none;stroke:#FFFFFF;stroke-width:2;stroke-miterlimit:10;" points="973.2,1007 971,979.6 972.4,962.6 
			975.9,945.3 1012.3,909.6 1033.8,890.8 1043.8,899.9 		"/>
	</g>
	<g style="display:inline;">
		<g>
			<g>
				<path style="fill:none;stroke:#FFFFFF;stroke-width:2;stroke-linecap:round;stroke-miterlimit:10;" d="M1484.9,562.1
					c0,0,1.5-1.2,3.4-2.7c1.9-1.5,3.4-4.4,3.4-6.4c0-2-1.2-4.7-2.7-5.9c-1.5-1.2-1.5-3.3,0-4.6c1.5-1.3,3.2-1.7,3.9-0.7
					c0.7,0.9,2.5,1.5,4.1,1.2c1.6-0.3,4.2,0.6,5.8,1.9s4.8,2.5,7.1,2.7s5.4-0.4,6.8-1.4s3.2-2.4,3.9-3.4c0.7-0.9,3.5-0.4,6.3,1.2
					c2.8,1.6,6,2.9,7.1,2.9s3.2-0.2,4.9-0.4c1.7-0.2,3.5-1.2,4.1-2.2c0.6-0.9,0.6-2.6,0.1-3.7c-0.5-1.1-2.2-4.1-3.7-6.6
					s-6-4.7-10.1-4.7h-3.1c-4-0.1-7.3-1.7-7.3-3.6s-1.4-3.4-3-3.2c-1.7,0.1-2.3-0.7-1.5-1.7c0.8-1.2,1.7-3.9,2.2-6.1
					c0.4-2.3,2.3-5.4,4.2-6.9c1.9-1.6,5.8-3.4,8.6-3.9c2.8-0.6,6.8,0.4,9,2.3c2,1.8,5,6.3,6.7,10l4.7,10.8"/>
			</g>
			<g>
				<path style="fill:none;stroke:#FFFFFF;stroke-width:2;stroke-linecap:round;stroke-miterlimit:10;" d="M1519.2,575
					c0,0,0.9-2.3,1.9-5.1c1-2.8,5.1-4.8,9.1-4.4l8.5,0.8c4,0.4,8.4,0.2,9.8-0.4c1.4-0.6,4.2-1.2,6.1-1.4c2-0.1,2.2-3.3,0.6-7
					l-17.6-39.4c-1.6-3.6-5.7-4.9-9-2.6l-9.9,6.6"/>
			</g>
			<g>
				<path style="fill:none;stroke:#FFFFFF;stroke-width:2;stroke-linecap:round;stroke-miterlimit:10;" d="M1495,565.1
					c0,0,0.4-1.1,0.9-2.5c0.4-1.4,2.4-2.4,4.4-2.3c1.9,0.1,4.7-0.5,6.3-1.2c1.5-0.8,5-2.8,7.6-4.5c2.6-1.7,4.7-3.1,4.7-3.1"/>
			</g>
			<g>
				<path style="fill:none;stroke:#FFFFFF;stroke-width:2;stroke-linecap:round;stroke-miterlimit:10;" d="M1503.8,560.5
					c0,0,0.6,1.1,1.2,2.4c0.7,1.3,0.4,3.2-0.7,4.2c-1.1,0.9-1.9,2.3-1.9,3.1c0.1,0.8,2.6,0.8,5.7,0.1c3.1-0.7,5.8-0.1,6,1.4
					c0.2,1.5,0.4,2.7,0.4,2.7"/>
			</g>
		</g>
	</g>
	<path style="display:inline;fill:#FFFFFF;" d="M1501,597l-0.5,2l0.4,1.4l1.7,0.4l1.9-0.2l2.9-0.9l0.4-1.2l-0.1-1.5l-1.4-0.7
		l-1.2,0.8c0,0-1.4,0-1.7,0C1503.2,596.9,1501,597,1501,597z"/>
	<polyline style="display:inline;fill:none;stroke:#FFFFFF;stroke-width:2;stroke-linecap:round;stroke-miterlimit:10;" points="
		593.3,753.1 600.7,765.4 613,767.7 631.9,767.5 647.9,765.8 661,766.8 678.6,769.9 686.3,769.5 684.2,760.8 682.2,752.3 	"/>
	
		<line style="display:inline;fill:none;stroke:#FFFFFF;stroke-width:5;stroke-linecap:round;stroke-miterlimit:10;" x1="649.7" y1="750" x2="611.7" y2="757"/>
	
		<line style="display:inline;fill:none;stroke:#FFFFFF;stroke-width:5;stroke-linecap:round;stroke-miterlimit:10;" x1="608.1" y1="753.3" x2="605" y2="705.3"/>
	<polyline style="display:inline;fill:none;stroke:#FFFFFF;stroke-width:2;stroke-linecap:round;stroke-miterlimit:10;" points="
		607.4,759.7 610,778 615.1,798.6 612.8,811.2 602.5,824.5 596.2,819.5 	"/>
	<g style="display:inline;">
		<polyline style="fill:none;stroke:#FFFFFF;stroke-width:2;stroke-linecap:round;stroke-miterlimit:10;" points="684.5,762.1 
			687,770.2 702.2,782 713.4,798.2 724.3,802.3 744.6,800.1 774.2,783 		"/>
		
			<circle style="fill:none;stroke:#FFFFFF;stroke-width:2;stroke-linecap:round;stroke-miterlimit:10;" cx="776.9" cy="781.9" r="2.8"/>
		
			<circle style="fill:none;stroke:#FFFFFF;stroke-width:2;stroke-linecap:round;stroke-miterlimit:10;" cx="758.4" cy="872.8" r="2.8"/>
		
			<circle style="fill:none;stroke:#FFFFFF;stroke-width:2;stroke-linecap:round;stroke-miterlimit:10;" cx="761" cy="883.6" r="2.8"/>
		
			<circle style="fill:none;stroke:#FFFFFF;stroke-width:2;stroke-linecap:round;stroke-miterlimit:10;" cx="764.2" cy="869.7" r="2.8"/>
		
			<ellipse style="fill:none;stroke:#FFFFFF;stroke-width:2;stroke-linecap:round;stroke-miterlimit:10;" cx="766.5" cy="879.4" rx="2.8" ry="2.8"/>
		<polyline style="fill:none;stroke:#FFFFFF;stroke-width:2;stroke-linecap:round;stroke-miterlimit:10;" points="775.5,779.2 
			767.5,766.4 759.4,754 759.7,750.6 761.7,733.5 		"/>
		<polyline style="fill:none;stroke:#FFFFFF;stroke-width:2;stroke-linecap:round;stroke-miterlimit:10;" points="772.8,774.2 
			773.2,761.6 776.9,753.7 777.7,746.8 780.6,729.6 		"/>
		<path style="fill:none;stroke:#FFFFFF;stroke-width:2;stroke-linecap:round;stroke-miterlimit:10;" d="M778,784.7l4.2,11.5
			l-1.1,11.2L759,840.5c0,0-4.7,7.6-1.9,19l18.2,57.5"/>
		<path style="fill:none;stroke:#FFFFFF;stroke-width:2;stroke-linecap:round;stroke-miterlimit:10;" d="M757.5,860.4
			c0,0,4.8,7.5,18.8,10l0.4,1.7c0,0-11.3,5.8-8.7,20.8c0,0-9-10.6-19.8-9.5C748.2,883.3,758.6,874.5,757.5,860.4z"/>
	</g>
	<path style="display:inline;fill:none;stroke:#FFFFFF;stroke-width:2;stroke-miterlimit:10;" d="M780,780.1l9-2.9l78.5-6.7
		l42.9-7.3l93.1-0.6l80,2l37.7,1.2l10.5,6.4l44.1-3.2l2-10.2l11.9-11.1l29.6-26.4c0,0,28.3-0.4,30.3-0.7c2-0.3,9.9-1.7,9.9-1.7
		l10.2-6.7l23.6,0.9c0,0,14.6,6.7,13.7,16.3l-0.6,10.8l-0.3,14.3l4.1,8.2"/>
	<polyline style="display:inline;fill:none;stroke:#FFFFFF;stroke-width:2;stroke-miterlimit:10;" points="938.1,704.9 918.4,688.1 
		892.6,675.2 	"/>
	<path style="display:inline;fill:none;stroke:#FFFFFF;stroke-width:2;stroke-miterlimit:10;" d="M936.3,704.8c0,0-18.6,3-21.8,20"
		/>
	<circle style="display:inline;fill:none;stroke:#FFFFFF;stroke-width:5;stroke-miterlimit:10;" cx="608.1" cy="756.5" r="3.1"/>
	<polyline style="display:inline;fill:none;stroke:#FFFFFF;stroke-width:2;stroke-miterlimit:10;" points="1404,712.2 1392.1,707.4 
		1386.1,691.9 1381.8,682.9 1366.2,682.9 1344.4,685.2 1335.1,683.6 1324.2,671.2 1328.6,654.6 1337.3,646.3 1359.1,638 1372.2,638 
		1378.9,635.3 1380.7,638 	"/>
	<polyline style="display:inline;fill:none;stroke:#FFFFFF;stroke-width:2;stroke-miterlimit:10;" points="1257.4,687.3 1258,682.5 
		1258.7,675.8 1260.7,674.4 1275.5,673.7 1283.4,671.2 1303.3,670.6 1338.4,670 1348.8,670 	"/>
	<polyline style="display:inline;fill:none;stroke:#FFFFFF;stroke-width:2;stroke-miterlimit:10;" points="1259,675.5 1268.2,683.2 
		1271.9,686.9 	"/>
	<polyline style="display:inline;fill:none;stroke:#FFFFFF;stroke-width:2;stroke-linecap:round;stroke-miterlimit:10;" points="
		1258.7,675.8 1249.6,681.8 1220.1,682.8 1211.8,688.2 1175.1,685.7 	"/>
	<polyline style="display:inline;fill:none;stroke:#FFFFFF;stroke-width:2;stroke-miterlimit:10;" points="1697,726.3 1711.6,740.6 
		1723.2,741.2 1724.4,715.7 1721.6,709.8 1719.7,691.4 1713.2,693 	"/>
	<polyline style="display:inline;fill:none;stroke:#FFFFFF;stroke-width:2;stroke-miterlimit:10;" points="1734.4,653.5 1718.3,653 
		1707.8,658.5 1691.4,656.2 	"/>
	<polyline style="display:inline;fill:none;stroke:#FFFFFF;stroke-width:2;stroke-miterlimit:10;" points="1720,691.9 1705,675.3 
		1700.2,667.4 1699.6,660.3 1699.4,653.3 1700.9,644.7 1701.7,634.6 1709.2,629 1712.9,626.4 1718.9,620.5 1731.8,620 	"/>
	<path style="display:inline;fill:none;stroke:#FFFFFF;stroke-width:2;stroke-miterlimit:10;" d="M1618.3,667.9h-26.1v-25.7
		l22.4-35.3c0,0,15.4-9.1,7.9-20l-12,5.4"/>
	<polyline style="display:inline;fill:none;stroke:#FFFFFF;stroke-width:2;stroke-linecap:round;stroke-miterlimit:10;" points="
		1527.3,598.1 1526.6,586.3 1517,576 1501.7,575.1 1492.4,565.8 1488.7,568.5 1483.4,568.3 1481.8,563.6 1476.5,563.9 1438.2,587 
		1409.9,601.9 1389.9,609.7 1352.3,626.4 1324.7,635.7 	"/>
	<g style="display:inline;">
		<polyline style="fill:none;stroke:#FFFFFF;stroke-width:2;stroke-linecap:round;stroke-miterlimit:10;" points="1108.8,717.7 
			1075.8,707.7 1057.7,705 1035,696.9 1020.3,691.3 1000.4,690.6 983.3,695.9 973.9,699.4 		"/>
		<polyline style="fill:none;stroke:#FFFFFF;stroke-width:2;stroke-linecap:round;stroke-miterlimit:10;" points="1111.2,707.4 
			1081.2,695.4 1071.8,698.9 1059.4,697.5 1056.9,705.2 		"/>
		<polyline style="fill:none;stroke:#FFFFFF;stroke-width:2;stroke-linecap:round;stroke-miterlimit:10;" points="1084.7,673.8 
			1079.3,689.8 1081.2,695.4 		"/>
		
			<line style="fill:none;stroke:#FFFFFF;stroke-width:2;stroke-linecap:round;stroke-miterlimit:10;" x1="1061.9" y1="669.4" x2="1049.6" y2="702.1"/>
		<polyline style="fill:none;stroke:#FFFFFF;stroke-width:2;stroke-linecap:round;stroke-miterlimit:10;" points="1036.7,665.9 
			1037.8,681.3 1041.9,693.3 1035.7,697.5 1033.8,718.8 		"/>
		<polyline style="fill:none;stroke:#FFFFFF;stroke-width:2;stroke-linecap:round;stroke-miterlimit:10;" points="969,664 
			970.5,685.2 974.7,701.8 974.7,709.3 		"/>
	</g>
	
		<line style="display:inline;fill:none;stroke:#FFFFFF;stroke-width:2;stroke-miterlimit:10;" x1="1719.7" y1="691.4" x2="1747.3" y2="684.8"/>
	<polyline style="display:inline;fill:none;stroke:#FFFFFF;stroke-width:2;stroke-miterlimit:10;" points="984.1,763.4 984.6,787.7 
		955.5,787.5 942.8,811.5 934.3,817.1 	"/>
	<g style="display:inline;">
		<polyline style="fill:none;stroke:#FFFFFF;stroke-width:2;stroke-linecap:round;stroke-miterlimit:10;" points="576.8,617.8 
			557.9,627 540,621.5 520.8,615.6 419.9,606.6 435.5,656.3 436,703.7 425.2,720.1 424.4,736.1 		"/>
		<path style="fill:none;stroke:#FFFFFF;stroke-width:2;stroke-linecap:round;stroke-miterlimit:10;" d="M563.7,743.3v-16.8
			l-12-38.5l-13.9-28.7c0,0-9.8-16.2-4.7-26.5l6.9-11.4"/>
		<polyline style="fill:none;stroke:#FFFFFF;stroke-width:2;stroke-linecap:round;stroke-miterlimit:10;" points="435.5,679.7 
			443.3,678.9 458.9,667.2 473.7,662.1 491.5,646.8 532.5,646.6 		"/>
	</g>
	<polyline style="display:inline;fill:none;stroke:#FFFFFF;stroke-width:2;stroke-linecap:round;stroke-miterlimit:10;" points="
		1156,740.1 1158.2,719.6 1157.1,711 	"/>
	<polyline style="display:inline;fill:none;stroke:#FFFFFF;stroke-width:2;stroke-miterlimit:10;" points="1734.4,642.3 
		1768.2,620.2 1783.6,612.1 1787.8,597.9 1794.1,598.1 1810.6,590.8 1821,582.6 1832.9,588.1 1841.7,590.1 1856.8,589.9 
		1863.8,594.7 1870.1,608.7 1873.3,603.7 1885.4,601.4 	"/>
	
		<line style="display:inline;fill:none;stroke:#FFFFFF;stroke-width:2;stroke-linecap:round;stroke-miterlimit:10;" x1="1182.1" y1="744.2" x2="1156.7" y2="735"/>
	<g style="display:inline;">
		<polyline style="fill:none;stroke:#FFFFFF;stroke-width:2;stroke-linecap:round;stroke-miterlimit:10;" points="563.4,737.1 
			547.3,749.3 542.4,753 528.5,755.7 518.2,757.2 511.1,763.2 509,772.3 509.5,799.2 510.3,810.2 519.2,813.9 528.8,813.3 
			535.5,817.4 540.6,824.1 540.7,841.7 542.2,885.4 		"/>
		<path style="fill:none;stroke:#FFFFFF;stroke-width:2;stroke-linecap:round;stroke-miterlimit:10;" d="M542.4,753l6.6,9.8
			l0.8,33.1l5.2,8.5l-5.8,20.1l8.5,6l1.2,7.4l-2.3,18.6l-7.9,3.5l5.6,8.7l9.9,9.9l11.4,0.4l3.5,3.5l7.3,1.9l-1.5,16
			c0,0,1,7.3,14.7,12c0,0,12.9,5,13.7,5"/>
	</g>
	<g style="display:inline;">
		<g>
			<g>
				<path style="fill:none;stroke:#FFFFFF;stroke-width:2;stroke-linecap:round;stroke-miterlimit:10;" d="M1527.3,595.3l7.6,0.1
					c4,0.1,10.1-1.7,13.4-3.9l18.1-11.7c3.4-2.2,3.6-6.1,0.7-8.7c-3.1-2.6-6.3-7.9-7.1-11.9l-1.1-4.9c-0.9-3.9-3.2-10-5.1-13.5
					l-2.8-5.2c-1.9-3.5-1.4-7.4,1.1-8.5c2.5-1.2,5.2-3.6,6-5.4c0.8-1.8,3.3-3.9,5.5-4.4c2.3-0.7,5.5-0.5,7.1,0.3
					c1.7,0.8,5.2,3.9,7.8,7.1l0.4,0.4c2.5,3.1,5.2,6.5,5.8,7.6c0.6,1.2,4.2,3.2,7.9,4.6l24.1,8.7"/>
			</g>
			<g>
				<path style="fill:none;stroke:#FFFFFF;stroke-width:2;stroke-linecap:round;stroke-miterlimit:10;" d="M1585.6,534.9
					c0,0-1.2,3-2.6,6.6s-2.4,9.5-2.2,12.9c0.2,3.4-1.5,8.9-3.9,12.2l-8.7,12.2"/>
			</g>
			<g>
				<path style="fill:none;stroke:#FFFFFF;stroke-width:2;stroke-linecap:round;stroke-miterlimit:10;" d="M1540.3,595.5l-1,9
					c-0.4,4,0.5,10.3,2.1,13.9l2.4,5.5c1.6,3.6,3.9,7.9,5,9.3s2,2.6,2,2.6"/>
			</g>
		</g>
	</g>
	<polyline style="display:inline;fill:none;stroke:#FFFFFF;stroke-width:2;stroke-linecap:round;stroke-miterlimit:10;" points="
		1175.4,769.1 1178.1,786.3 1177.3,809.6 1174.2,822.5 1163,837.4 1155.1,859.4 1146.4,895.6 1144,912.4 1148.3,931.7 1136.5,934.8 
		1129.3,939.2 1127.8,948.2 	"/>
	<polyline style="display:inline;fill:none;stroke:#FFFFFF;stroke-width:2;stroke-linecap:round;stroke-miterlimit:10;" points="
		1183.9,705.9 1157.1,711 1145,710.4 1142.3,706.4 1113.6,695.8 	"/>
	<polyline style="display:inline;fill:none;stroke:#FFFFFF;stroke-width:5;stroke-linecap:round;stroke-miterlimit:10;" points="
		604.7,756.8 597.9,755.6 577.6,747.7 567.6,745.2 543.3,745.5 518.6,748.5 501.2,748.5 464,740.7 433.9,736.1 399,734.4 
		367.1,735.2 	"/>
	
		<line style="display:inline;fill:none;stroke:#FFFFFF;stroke-width:5;stroke-linecap:round;stroke-miterlimit:10;" x1="1523.3" y1="601.9" x2="1488" y2="608.2"/>
	<path style="display:inline;fill:none;stroke:#FFFFFF;stroke-width:5;stroke-miterlimit:10;" d="M1730,579.8c0,0-13.5,6.6-25.5,5"
		/>
	<path style="display:inline;fill:none;stroke:#FFFFFF;stroke-width:5;stroke-linecap:round;stroke-miterlimit:10;" d="
		M1959.1,795.9l-11.1-26.1l-0.4-14.9l-6.2-17.4l-16.6-35.3l-6.6-18.6l-3.4-22l3.7-15.4c0,0-2.9-13.3-3.7-15.4
		c-0.8-2.1-7.5-12.9-7.5-12.9l-12-6.2l-8.7-10.6l-4.7-4.1l-6.6-6.8l-6.8-4.7l-5.9-2.8l-6.8-6.8l-6.6-2.8l-9,6.8l-7.1,3.1l-12.2-5.3
		l-5.9,4.1l-4.7,3.4l-4.7,2.2l-11.5,1.5l-11.2-5.6l-3.7-7.8l-3.1-2.2l-4.2-2.3"/>
	<polyline style="display:inline;fill:none;stroke:#FFFFFF;stroke-width:2;stroke-linecap:round;stroke-miterlimit:10;" points="
		1063.5,848.2 1065.8,859.9 1068.7,893.7 1090.3,898.9 1097,932.3 1106.5,941.5 1118.1,940.6 1140.1,911.2 1151.7,874.2 	"/>
	<polyline style="display:inline;fill:none;stroke:#FFFFFF;stroke-width:2;stroke-linecap:round;stroke-miterlimit:10;" points="
		1065.4,860.6 1054.1,860 1042.9,859.8 1037.9,856.1 1038.2,847.8 1033.1,846.3 1028.4,847.1 1024.1,849.3 1024.6,853.3 1020.9,860 
		1006.7,868.2 1006.3,871.3 1008.6,878.3 1021.5,880.2 1043.8,899.8 	"/>
	<polyline style="display:inline;fill:none;stroke:#FFFFFF;stroke-width:2;stroke-linecap:round;stroke-miterlimit:10;" points="
		1064.5,853.6 1047.3,851.4 1041.6,859.3 	"/>
	<g style="display:inline;">
		
			<polyline style="fill:none;stroke:#FFFFFF;stroke-width:2;stroke-linecap:round;stroke-linejoin:round;stroke-miterlimit:10;" points="
			598.7,542.7 598.1,546 630.5,569.3 613.8,580.9 611.8,577.6 608.6,577.2 604.9,579.8 601.4,575.5 592.4,580.6 		"/>
		
			<polyline style="fill:none;stroke:#FFFFFF;stroke-width:2;stroke-linecap:round;stroke-linejoin:round;stroke-miterlimit:10;" points="
			584.1,541.4 579,557.2 578.2,559.8 573.6,566.4 563.5,574.7 557.5,577.4 		"/>
		
			<line style="fill:none;stroke:#FFFFFF;stroke-width:2;stroke-linecap:round;stroke-linejoin:round;stroke-miterlimit:10;" x1="599.3" y1="591.8" x2="579" y2="557.2"/>
		
			<polyline style="fill:none;stroke:#FFFFFF;stroke-width:2;stroke-linecap:round;stroke-linejoin:round;stroke-miterlimit:10;" points="
			606.7,552.4 601.5,559.2 585.4,568.5 		"/>
		
			<polyline style="fill:none;stroke:#FFFFFF;stroke-width:2;stroke-linecap:round;stroke-linejoin:round;stroke-miterlimit:10;" points="
			591.9,564.4 588.3,557.6 591.5,539.6 		"/>
		
			<polyline style="fill:none;stroke:#FFFFFF;stroke-width:2;stroke-linecap:round;stroke-linejoin:round;stroke-miterlimit:10;" points="
			573.6,566.4 576.9,572.3 582.8,569.9 587.7,578.4 572.3,588.1 564.2,574.1 		"/>
		
			<polyline style="fill:none;stroke:#FFFFFF;stroke-width:2;stroke-linecap:round;stroke-linejoin:round;stroke-miterlimit:10;" points="
			577.9,560.4 561.2,546.4 548.8,561 		"/>
		
			<polyline style="fill:none;stroke:#FFFFFF;stroke-width:2;stroke-linecap:round;stroke-linejoin:round;stroke-miterlimit:10;" points="
			582.8,539.2 573.8,537 568,535.6 561.8,530.2 558.8,531.4 561.2,546.4 569.6,542.8 573.6,537.6 		"/>
	</g>
	<path style="display:inline;fill:#FFFFFF;" d="M654.6,637.9l0.2,6.4l-1.8,2.3l1.3,9.5l124-15l0.7,2.5l-3.1,0.5l0.9,8.3l-2.2,2.3
		l-29.6,3.6l0.1,12.7l-4.6,0.1c0,0-0.9-10.1-0.9-11c0-0.8-9.5,1.5-9.5,1.5l0.1,2.9l2.9,0.1l1.3,8.3l-2.4,3.2l-9.3,1.5l-0.5,4.4
		l12.5-0.4l2,12.6l5.6-0.1l-0.6-11.8l4.8,0.1l1.5,6.6l7.1,2.5l27.5-3.6l0.7-3.9l16-1.3l1.4,5.5l3,3.2l9.1-0.5l1.3,2.3l-94,11.8
		l0.4,6.2l76.3-10.1l0.1,10l-11,0.9l-0.1,5.4l-4.2,0.4l0.8,5.4l-120,14.9l-1.2-5.5l3.9-1.4l-3.4-22.1l-11.2,0.7l0.4-2.7l33.4-3.5
		l-4.2-35.4l-55.7,5l-1.2-12.5l27.7-3.9l-1.2-17.2L654.6,637.9z M630.4,670.4l21.9-2l-0.7-7.4l-21.9,2.5L630.4,670.4z M655.1,660.2
		l0.6,7.8l7.4-0.9l7.6-9L655.1,660.2z M677.4,664.8l2.3-3.6l48.7-6l-7.6-3.5l-44.1,5.1l-8.7,9.2L677.4,664.8z M743.6,655.9l4.8-0.6
		l-0.8-6.8l-18.9,2.5L743.6,655.9z M750.6,647.9l0.9,7.1l19.1-2.1l-1-7.6L750.6,647.9z M703.1,660.9l0.1,1.9l18-2l-0.2-2.6
		L703.1,660.9z M723.2,698.7l-0.4-5.3l-9.8,1.1l-2.6,4.9L723.2,698.7z M687.8,709.1c-0.4,0-3.5-3-3.5-3l-19.2,2.5l1.5,9.6l51.1-7
		l-0.8-5.8C716.9,705.5,688.4,709.1,687.8,709.1z M701.3,717.1l-34.4,4.7l0.7,4.7l34.4-4.7L701.3,717.1z M752.4,709.7l-31.6,4.3
		l0.7,4.7l31.6-4.3L752.4,709.7z M717.6,714.9l-13.2,1.7l0.7,4.7l13.2-1.7L717.6,714.9z M774.7,706.8l-19.2,2.6l0.7,4.7l19.2-2.6
		L774.7,706.8z M793.3,704.2l-15.2,2l0.7,4.7l15.2-2L793.3,704.2z M685.4,667.7l5,34.3l9.9-1.1c0,0-5.5-3.7-5.2-4.2
		c0.3-0.5,12.7-12.2,11.9-13.9c-0.8-1.7-11-9.2-11-9.2l2.3-8.2L685.4,667.7z M708.9,669.6L720,668l-0.3-3.9l-14.3,1.7L708.9,669.6z
		 M677.5,728.1l-5.7,0.7l0.4,3.4l5.7-0.7L677.5,728.1z M686.2,726.7l-5.7,0.7l0.4,3.4l5.7-0.7L686.2,726.7z M695.5,725.7l-5.7,0.7
		l0.4,3.4l5.7-0.7L695.5,725.7z"/>
	<g style="display:inline;">
		<line style="fill:none;stroke:#FFFFFF;stroke-width:2;stroke-miterlimit:10;" x1="1009.4" y1="727" x2="992.8" y2="762.5"/>
		<path style="fill:none;stroke:#FFFFFF;stroke-width:2;stroke-miterlimit:10;" d="M1004.6,737.9l26.1-1.4c0,0,23.7-1.9,24.5-1.7
			c0.8,0.2,45.1,12.7,45.1,12.7"/>
		<line style="fill:none;stroke:#FFFFFF;stroke-width:2;stroke-miterlimit:10;" x1="1030.9" y1="725" x2="1031.6" y2="763.2"/>
		<line style="fill:none;stroke:#FFFFFF;stroke-width:2;stroke-miterlimit:10;" x1="1048" y1="735.1" x2="1048.5" y2="763.7"/>
		<line style="fill:none;stroke:#FFFFFF;stroke-width:2;stroke-miterlimit:10;" x1="1056.7" y1="718.7" x2="1055.2" y2="734.8"/>
	</g>
	<g>
		
			<line style="display:inline;fill:none;stroke:#FFFFFF;stroke-width:2;stroke-miterlimit:10;" x1="837.5" y1="730.9" x2="841.5" y2="771.5"/>
		
			<line style="display:inline;fill:none;stroke:#FFFFFF;stroke-width:2;stroke-miterlimit:10;" x1="850.3" y1="728.1" x2="851.3" y2="770.9"/>
		<polyline style="display:inline;fill:none;stroke:#FFFFFF;stroke-width:2;stroke-miterlimit:10;" points="887.9,717.3 887,725.4 
			883.4,725.9 884.3,734.2 890,734.7 890.4,744.4 885.9,745.5 886.8,766.4 		"/>
		<polyline style="display:inline;fill:none;stroke:#FFFFFF;stroke-width:2;stroke-miterlimit:10;" points="898.8,714.4 
			900.1,743.5 890.4,744.4 891.3,760 886.3,760 		"/>
	</g>
	<path style="display:inline;fill:none;stroke:#FFFFFF;stroke-width:2;stroke-miterlimit:10;" d="M760,749.9l22.1-9.1l14.9-5.5
		l47.6-6.3l26.7-7.9l21.8-6.3l17.6,1.2l6.6,0.6l11.8-2.7l29.4-0.6l24.5,7c0,0,17.8,9.1,37.5,6.3l36.9-8.8l34.5,10l13.3,4.3"/>
	<path style="display:inline;fill:none;stroke:#FFFFFF;stroke-width:5;stroke-linecap:round;stroke-miterlimit:10;" d="
		M1648.9,698.6l-12,24.5c0,0-9.5,17.8,0.4,30.7c0,0,21.6,17.4,0.8,34c0,0-16.2,14.1-6.6,31.2l19.1,29.5l20.8,17l5,25.3l-4.2,10.8
		l-18.7,13.3l-48.6,1.7l-8.7,15.4l-34.9,92.6l-55.8,146.3"/>
	<g style="display:inline;">
		<polyline style="fill:none;stroke:#FFFFFF;stroke-linecap:round;stroke-linejoin:round;stroke-miterlimit:10;" points="
			1376.9,930 1377.4,927.3 1377.8,925.2 1378.6,908.5 1395.3,925.9 1426.5,933.5 1421.2,928.4 1408.4,902.1 		"/>
		<polyline style="fill:none;stroke:#FFFFFF;stroke-linecap:round;stroke-linejoin:round;stroke-miterlimit:10;" points="
			1377.4,927.3 1381,929.8 1379.4,937.5 1382.7,942.4 1389.3,942.7 1393.5,937.1 1404.9,938.6 1412.9,934.6 1413.9,930.5 		"/>
		<polyline style="fill:none;stroke:#FFFFFF;stroke-linecap:round;stroke-linejoin:round;stroke-miterlimit:10;" points="
			1393.7,961.4 1420.7,944 1426.5,933.5 		"/>
		<polyline style="fill:none;stroke:#FFFFFF;stroke-linecap:round;stroke-linejoin:round;stroke-miterlimit:10;" points="
			1389.3,942.7 1386.6,953.1 1386.1,955.2 		"/>
		<polyline style="fill:none;stroke:#FFFFFF;stroke-linecap:round;stroke-linejoin:round;stroke-miterlimit:10;" points="
			1403.6,954.9 1391.7,952.7 1387.2,949.7 		"/>
		
			<line style="fill:none;stroke:#FFFFFF;stroke-linecap:round;stroke-linejoin:round;stroke-miterlimit:10;" x1="1391.7" y1="952.7" x2="1390.9" y2="958.2"/>
	</g>
	
		<path style="display:inline;fill:none;stroke:#FFFFFF;stroke-width:2;stroke-linecap:round;stroke-linejoin:round;stroke-miterlimit:10;" d="
		M1177.9,685.4l5,16.6l5.8,10.8l7.1,2.9l9.1,4.6l10.3,1.7l7.1-0.4l6.6,6.6l3.7,8.7c0,0,1.2,11.2,1.7,12.5c0.4,1.2,3.4,7.9,5.4,9.5
		c2,1.7,17.8,13.3,17.8,13.3l6.2,7.5l3.7,10.8l10,14.9l4.4,8.7l3.5,5.4l-1.7,4.8l-3.5,1h-4.8l-4.2,2.9l0.8,2.3l6.8-2.3h4.2l1.7,1.5
		l-2,2.3l-6,0.4l-3.5,2.1l0.2,2l5.6,0.4l2.3-1l1.7,1.5v1.7l-2.1,5.6l-2.5,4.4l8.1,33l-2.5,19.1l2,13.3l-4.8,12.7l0.2,10.8l2.1,1.5
		l4.8-1.9l4.6-1.9l7.6,1.2l11,3.9l12.7,3.1l9.3,0.7l14.1-5.2l11.4-4.8l9-7.3l8.5,3.1l3.1,13.5v4.2l6,7.1l106.4,76.5l51.3,35.5"/>
	<g style="display:inline;">
		<path style="fill:none;stroke:#FFFFFF;stroke-width:5;stroke-miterlimit:10;" d="M1529.4,602.2c18.3,2.1,38,3.9,54-5.2
			c2.3-1.3,4.6-2.9,7.3-3.4c3.9-0.7,7.7,1,11.7,1.1c4.2,0.1,8.3-1.8,12.5-2.5c7.3-1,14.5,1.8,21.1,5c6.6,3.1,13.3,6.8,20.7,7.2
			c7.4,0.4,15.5-3.3,17.6-10.3c0.6-2,0.7-4.1,1.6-5.8c1.8-3.5,6.3-4.6,10.2-5.2c6.3-0.9,13.1-1.4,18.6,1.7c5,2.8,8.2,7.9,11.1,12.9
			c4.4,7.6,13,18,17.5,25.6l0.1,4.2c-0.6,19.2,5.3,38.1,14.2,55.1c8.9,17,20.5,32.3,32.3,47.5c5.4,7,10.9,14.3,12.9,22.9
			c0.8,3.5,1,7.2,2.6,10.5c1.9,3.9,5.5,6.7,9,9.3c20,14.9,39.8,29.6,59.8,44.5c7.1,5.2,14.2,10.6,22.4,13.7c8.2,3.1,17.7,4,25.6,0.2
			c3.1-1.5,5.9-3.6,8.7-5.8c4.5-3.5,9.1-7.1,13.6-10.6c4.1-3.1,8.2-6.3,12.9-8.2c4.1-1.7,8.6-2.4,11.9-5.2"/>
		<path style="fill:none;stroke:#FFFFFF;stroke-width:5;stroke-miterlimit:10;" d="M1766.8,570.7c-7.8,8.5-23.7-1.7-33.1,4.8
			c-5.5,3.8-6.3,11.3-8.4,17.6c-6.2,18.8-26.3,30.2-33,48.8c-6.2,17.1,1.9,40.4,17.9,49.1"/>
		<path style="fill:none;stroke:#FFFFFF;stroke-width:5;stroke-miterlimit:10;" d="M1712.5,697.4c-1.4,9.8-8.9,18.6-14.1,27"/>
		<path style="fill:none;stroke:#FFFFFF;stroke-width:5;stroke-miterlimit:10;" d="M1691.9,725.1c-8.4-9.5-22.8-18.4-34.7-23
			c-8.7-3.4-18.5-6.3-24-13.9c-3.9-5.4-5-12.5-9.4-17.4c-7.1-7.6-21.6-8.8-23.5-19.1c-0.5-2.9,0.2-6.1-1.1-8.7
			c-2.6-5.3-10.4-4.2-16.3-3.1c-10.9,2-22.4,0.7-32.6-3.9c-12.4-5.6-22.3-15.6-34.7-21.2c-11.7-5.4-25-6.5-37.9-6.3
			c-38.7,0.7-82.3,9.3-106.8,39.3c-13.5,16.5-31.4,33-53,37.2c-8.8,1.7-18.2,1.3-27.2,1.9c-16.6,1.1-33.4,0.8-49.9-0.9
			c-15.9-1.7-27.2,2.5-34.5,17.5c-5,10.1-7.1,21.4-13.1,31.1c-2.8,4.4-6.3,9.3-11.6,10.9c-7.5,2.4-17.8-2.3-25.4-3.5
			c-9.4-1.5-18.4-4.6-27-8.4c-17.7-7.7-31.1-11.8-49.1-18.8c-5.8-2.3-14.9-4.5-21-3.4c-4.6,0.9-12.4,2.9-16.7,4.7
			c-5.5,2.3-18.8,3.5-24.8,4.3c-8.5,1.1-17.7,1.3-25.9-1.6c-5-1.7-8.4-6-13.2-8.2c-4.7-2.2-10.5-3.1-15.6-3.9
			c-11.7-2-23.5-2.3-35.3-1.7c-18.5,0.9-40.8,3-57.1,12.7c-7.6,4.5-28.8,5.1-37.5,6.8c-11.3,2.2-22.9,1.4-34.4,2.1
			c-21.4,1.4-42,7.9-62.5,13.8c-15.7,4.6-31.8,9.4-48,11.4c-9,1.1-18.4-1.5-27.5-1.3c-10.1,0.2-19.6-4.2-27.9-9.5
			c-7.4-4.8-14.3-10.6-19.9-17.5c-6.3-7.9-7.6-17-9.1-26.7c-9.3-61-44.7-114.7-83-163.1c-25-31.6-53-63.1-90.3-78.4
			c-12.3-5-25.3-8.2-38.3-11.3c-30.9-7.4-61.8-14.9-92.7-22.4"/>
		<path style="fill:none;stroke:#FFFFFF;stroke-width:5;stroke-miterlimit:10;" d="M88.2,691.5c12.5,10.8,23.4,23.4,32.2,37.4
			c2.9,4.7,5.7,9.5,9.7,13.3c12.2,11.4,32.4,9.2,45.7,19.3c9.3,7.1,13.5,18.9,21.9,27c14.7,14.2,37.7,13.8,58.1,13.5
			c21.9-0.2,43.7,0.9,65.3,3.2c15.5,1.7,31,4.1,46.3,7.1c14.9,3,29.4,6.8,43.8,11.5c26.2,8.6,52.3,17.5,77.4,29
			c24.8,11.4,48.6,25.3,69.1,43.3c8.7,7.7,17.2,16.3,28.1,20.3c7.2,2.7,15.1,3.1,22.8,2.8c24.9-1,49.5-10,69.2-25.3
			c4.2-3.3,8.2-6.8,13-9.1c10.2-4.7,22.1-2.6,33.4-2c6,0.3,11.9,0.1,17.9-0.5c3.1-0.3,6-0.7,9-1.2c2.6-0.4,5.3-0.4,7.5-2
			c1.4-1.1,2.5-2.5,3.9-3.4c1.5-1,3.4-1.5,5.2-1.9c10-2.4,20-4.8,30-6.9c13-2.8,26.1-5.2,39.3-7.4c20.8-3.4,29.5-9.5,50.5-11.4
			c9-0.8,23.2-3.9,31.9-6c11.9-3.1,22-3.4,32.9-9.1c17.7-9.3,41-6.8,60.2-12.2c19.3-5.3,42.6-17.7,61.8-11.9
			c15.1,4.5,28.6,13.3,43.6,17.9c11.4,3.5,25.9,3.6,32.9-6.1c13.9-19.1,47.3-20.2,70.8-23.2c13.5-1.7,25.3-2.3,38.1-7.4
			c12.5-5.1,24.3-11.9,35.9-18.7c9.7-5.6,19.4-11.3,28.7-17.4c7.1-4.7,14.2-9.8,22.1-13c14.6-6,32.6,2.8,45-9.3
			c3.6-3.4,5.6-8.1,8-12.3c4.1-7.1,9.6-10.3,16.8-13.8c16.7-8.2,34.7-13.3,50.8-22.7c7.7-4.5,15.2-10,23.9-11.8
			c3.4-0.7,7.1-0.9,10.3-2.5c5.1-2.6,7.6-8.3,9.7-13.7c6.6-16.8,12.5-32.1,14.1-50"/>
		<circle style="fill:none;stroke:#FFFFFF;stroke-width:5;stroke-miterlimit:10;" cx="1768.5" cy="569.6" r="3.2"/>
		<circle style="fill:none;stroke:#FFFFFF;stroke-width:5;stroke-miterlimit:10;" cx="1711.4" cy="694.1" r="3.2"/>
		<circle style="fill:none;stroke:#FFFFFF;stroke-width:5;stroke-miterlimit:10;" cx="1695.1" cy="725.1" r="3.2"/>
		<circle style="fill:none;stroke:#FFFFFF;stroke-width:5;stroke-miterlimit:10;" cx="1526.5" cy="601.9" r="3.2"/>
		<circle style="fill:none;stroke:#FFFFFF;stroke-width:5;stroke-miterlimit:10;" cx="1961.1" cy="799.1" r="3.2"/>
	</g>
	<g style="display:inline;">
		<g>
			<g>
				<path style="fill:none;stroke:#FFFFFF;stroke-width:2;stroke-linecap:round;stroke-miterlimit:10;" d="M2208.3,873.8l-4.2,6.3
					c-2.3,3.4-4.4,6.6-4.9,7.4c-0.4,0.7-2.1,4.3-3.7,8l-0.7,1.5c-1.6,3.7-4.2,7.4-5.9,8.3c-1.7,0.9-3.4,2.7-3.9,3.9
					c-0.5,1.3-2.8,2.3-5.2,2.4c-2.4,0-5.5,1.5-6.8,3.1c-1.4,1.7-4.2,3.6-6.2,4.1c-2,0.6-4.8,0.7-6.3,0.1c-1.4-0.4-3.6,0.5-5,2.2
					c-1.3,1.7-4.2,3.6-6.5,4.5c-2.3,0.9-5.9,0.9-8,0.2c-2.2-0.7-4.8-1.5-5.9-1.7c-1.1-0.2-4.1,0.1-6.6,0.7c-2.5,0.6-6.3,1.7-8.4,2.4
					c-2.2,0.7-6.6,1.7-9.9,2.1c-3.3,0.4-7.6,0.8-9.7,0.9c-2,0-5.5-1-7.7-2.3c-2.2-1.3-6.6-4.5-9.6-7.1l-4.2-3.6
					c-3.1-2.5-4.6-6.8-3.4-9.5c1.2-2.6,2.1-6.8,1.9-9.2s-2.4-6.9-5-10.1l-1.3-1.7c-2.5-3.1-5.5-8.7-6.5-12.3c-1-3.6-3.4-9-5.2-11.8
					c-1.8-2.8-3.9-6.6-4.7-8.3c-0.7-1.7,6-9.5,8.7-12.2c2.8-2.6,5-4.7,5-4.7"/>
			</g>
			<g>
				<path style="fill:none;stroke:#FFFFFF;stroke-width:2;stroke-linecap:round;stroke-miterlimit:10;" d="M2154.1,925.2l6.7,13.4
					c1.8,3.6,3.3,9.8,3.4,13.8l0.1,12.7c0.1,4-2.6,9.2-5.9,11.5l-11.6,8.2c-3.3,2.3-8.4,6.4-11.3,9.2l-6.6,6.1
					c-2.9,2.7-8.6,5-12.6,5l-9.7,0.1c-4,0.1-8.7-0.1-10.3-0.3c-1.7-0.2-4.7-0.1-6.6,0.1c-1.9,0.3-5.8-1.9-8.5-4.8l-2.1-2.2
					c-2.8-2.9-6.3-6-7.9-6.9c-1.6-0.9-6-2.7-9.8-3.9l-9.9-3.2c-3.8-1.2-8.2-4.4-9.8-7c-1.5-2.6-10.2-7.9-12.7-8.6
					c-2.5-0.7-5-1.8-5.4-2.5c-0.4-0.7-5.2-4.3-6.8-5.2c-1.6-0.9,1.6-9.5,3.1-11.4c1.5-2-11.1-4.5-13.1-3.9c-2,0.7-5.2,0.4-7.2-0.4
					c-2-0.9-3.5-3.1-3.6-4.7c0-1.7-2.1-4.7-4.6-6.5s-6.8-4.2-9.5-5.3c-2.8-1.1-5.4-1.2-5.8-0.4c-0.4,0.9-2.3,1.7-4.1,2
					c-1.8,0.2-5.1,0.3-7.4,0.1c-2.3-0.1-4.7,0.2-5.5,0.9s-4.3-0.4-7.9-2.2l-7.4-3.9c-3.6-1.8-8.5-4.7-10.9-6.2
					c-2.5-1.6-5-3.7-5.6-4.7c-0.7-0.9-2.8-3-5-4.4c-2.1-1.5-3.9-3.4-3.9-4.2c0-0.9-3.2-2.4-7.1-3.4l-24.3-6.3c-3.9-1-8.8-1.8-11-1.8
					c-2.2,0-6.7-1.8-10-4.1l-5.8-3.9c-3.4-2.3-8.2-4.1-10.9-4c-2.7,0-7.5-2-10.6-4.4l-15.7-12.5c-3.1-2.5-8.1-5-10.9-5.5
					c-2.9-0.6-7.2-3.7-9.5-6.9l-1.4-1.9c-2.3-3.2-6.3-8.5-8.6-11.7l-10.4-14.1c-2.4-3.2-6.8-8-9.9-10.6l-6.8-5.6
					c-3.1-2.5-7.4-7.4-9.5-10.9l-3.9-6.2c-2.1-3.4-5.5-7.4-7.4-8.8c-1.9-1.5-3.2-3.4-2.8-4.2c0.4-0.9,0.4-2.2,0-2.8
					c-0.4-0.7-0.8-2.4-0.9-3.8c0-1.4-1.9-2-4.2-1.4c-2.3,0.7-5.8-0.9-7.8-3.4c-2-2.5-4.1-7.8-4.5-11.8l-1.7-14.3"/>
			</g>
			<g>
				<path style="fill:none;stroke:#FFFFFF;stroke-width:2;stroke-linecap:round;stroke-miterlimit:10;" d="M2075.4,912.8
					c0,0-3.1-0.3-6.8-0.6c-3.8-0.4-9.8-1.9-13.5-3.4l-16.8-7c-3.7-1.5-9.6-4.4-13-6.4l-3.3-1.8c-3.5-2-9.1-5.3-12.5-7.4l-0.4-0.2
					c-3.4-2.1-9.4-4.7-13.3-5.7l-22.8-6c-3.9-1-8.9-3.2-11.2-5c-2.3-1.7-5-5-6.1-7.2c-1.1-2.3-2.7-4.9-3.6-5.9s-3.9-1.4-6.8-0.9
					c-2.9,0.5-7.7-0.7-10.8-2.8c-3.1-2-7.4-6.4-9.8-9.7l-7.9-11.4"/>
			</g>
			<g>
				<path style="fill:none;stroke:#FFFFFF;stroke-width:2;stroke-linecap:round;stroke-miterlimit:10;" d="M2099.4,1005.2l-1.9,12.6
					c-0.6,3.9-0.7,10.5-0.3,14.5l0.3,2.6c0.4,4,1.6,10.4,2.6,14.3l2,7.4c1,3.9,2.1,9.3,2.4,11.9c0.3,2.7,25.9,1.8,29.7,0.7l14.4-4.2
					c3.9-1.1,8.4-3,10.2-4.2c1.7-1.2,8.7,11.1,11,14.3l1.4,2c2.3,3.4,6.8,6.4,10.3,6.8c3.4,0.4,9.3-0.4,13-1.9l7.5-2.9
					c3.7-1.5,8.7-5.2,11.1-8.4c2.4-3.1,5.5-4.7,6.9-3.3c1.4,1.4,5.8,2.7,9.8,2.9l34.9,2c4,0.2,8.7,0.1,10.4-0.2
					c1.7-0.4,7-7.6,9-11.1l1.6-2.8c2-3.4,5.9-8.2,8.5-10.6c2.6-2.4,19.7,2.3,22.7,3.1c3,0.9,16.8-8.4,20-8.6
					c3.2-0.2,5.8-0.4,10.3,4.7"/>
			</g>
		</g>
	</g>
	<path style="display:inline;fill:none;stroke:#FFFFFF;stroke-width:2;stroke-linecap:round;stroke-miterlimit:10;" d="M2152,921.8
		c0,0-13.5-18.5,9.8-27.8"/>
	<path style="display:inline;fill:none;stroke:#FFFFFF;stroke-width:2;stroke-miterlimit:10;" d="M1766.8,564.8v-9.8
		c0,0,6.9-4.7,9.7,3.6l2.8,14.4"/>
	<path style="display:inline;fill:#FFFFFF;" d="M1181.5,822.2c-1,0.7-2.3,1.8-2.7,2.5c-0.4,0.7-1.5,1.7-2.4,2.3
		c-0.9,0.6-2.1,2-2.7,3.3c-0.6,1.2-1.7,3.9-2.3,5.9c-0.7,2,0.2,4.6,2,5.7c1.7,1.1,5.4,1.2,8.1,0.3c0,0,0,0-0.1-0.9
		c-0.1-0.9-0.8-1.6-0.7-2.3c0.1-0.7,3.9-1.4,3.9-1.4c3.9-0.7,6.8-2.1,6.3-3c-0.5-0.9-2-2.8-3.5-4.2c0,0,0,0,0.1-0.2s1-1.7,0-3.9
		s-2-3.2-2.4-3.6s-0.4-0.5-0.4-0.5C1183.9,821.4,1182.5,821.4,1181.5,822.2z"/>
</g>
<rect id="app_x5F_Muscat-road--zoom" x="605.8" y="492.8" style="fill:none;" width="266.4" height="153"/>
<g id="map_labels">
	<path style="fill:#B4985A;fill-opacity:0.75;stroke:#B4985A;stroke-width:0.3112;" d="M645.4,550.4c-1.3,3.3-4.4,6-6.4,8.7
		c-0.7,0.9-2.8,4.6-1.6,5.5c4.1,3.1,8.1,6.3,12.2,9.3c0,0,16.8,10,16.8,10.1c1.7,1.1,3.9,1.7,5.8,2.7c2.7,1.3,5.5,2.6,8.2,3.9
		c13.1,5.9,26.8,10.5,40.3,15.4c3.8,1.4,7.5,2.7,11.3,4.1l38.7,12.5c0,0,30.1,11.7,30.1,11.8c5.2,2,10.8,3.6,16.1,5.4
		c1.3,0.4,2.6,0.9,3.9,1.1c2.1,0.3,4.3-0.4,6.4,0c5,0.7,10,3.8,13.3,4.8c1.1-3.8,2.2-7.5,3.3-11.3c0.2-0.7,0.8-1.8,0.7-2.5
		c-0.1-1.5-3.9-1.6-5.2-2c-4.2-0.9-8.4-1.7-12.6-2.6c-2.9-0.7-4.4-4.5-7.6-4.5c-2.7,0-6.8-0.1-8.5-2.7c-0.1-0.2-0.2-0.4-0.3-0.7
		c-0.3-0.8-0.5-1.6-0.8-2.3c-1-2.9-3.5-2.8-6.1-3.6c-2.3-0.7-4.7-1.5-7.1-0.6c-2.8,1-5.7,2-8.6,3c-0.4,0.1-0.7,0.2-1,0.2
		c-1.1,0.1-2.3-0.8-3.3-1.2c-1.5-0.5-3-1.1-4.5-1.5c-4.2-1.3-8.4-2.7-12.6-4.2c-8.3-3.1-16.5-6.6-24.4-10.5
		c-3.6-1.8-7.2-3.6-10.9-5.4c-6-2.9-12.3-5.8-18.4-8.9c-3.1-1.6-6.2-3.2-9.3-4.9c-1.4-0.8-3-1.5-4.2-2.5c-1.2-1-2.3-2.4-3.2-3.6
		c-1.2-1.5-2.5-3-3.8-4.4c-0.3-0.4-0.7-0.7-0.8-1.2c-0.1-0.5-0.1-1-0.1-1.5c-0.1-2.8-2-4.4-3.6-6.4v-2.8c0-3.2,0.1-6.4-1.3-9.4
		c-1.5-3-3.8-6-6.6-7.9c-1.7-1.2-1.7,2.1-1.8,3.1c-0.1,2.2,1.2,4.9,1.7,7c0.4,1.3-4,3.2-5,3.8c-0.1,0.1-2.3-1.3-2.8-1.3
		c-2.3,0-4.7,0.9-7,1.3c0.3-0.1-1.2-2-1.4-2.1c-0.7-0.3-1.3-0.4-1.9-0.7c0-1.7,0.6-1.8,2-2.3c1.1-0.4,2.3-0.9,3.2-1.7
		c1.2-1.1,0.5-1.5-0.4-2.6c-0.9-1.1-2.1,0-3.2,0.1c-1.7,0.2-3-0.4-4.6-0.9c0.4-2.3,2.6-2.7,3.5-3.6c0.8-0.9,3.2,0.2,4.3,0.5
		c1.3,0.3,2.6,0.7,3.6,1.5c0.9,0.7,1.7,2.5,3,2c0.8-0.3,1.7-2,1.7-2.8c0-0.9,0-2.3-0.5-3c-0.6-0.8-2-1.5-2.8-2c-2-1.2-4-2-6.1-2.8
		c-1.9-0.7-4.7,0.8-6.6,1.3c-2.5,0.7-5,1.5-7.4,2.5c-1.7,0.7-2.8,2.9-3.9,4.2l-0.7,5c-0.2,1.3-0.3,2.9-0.7,4.2
		C645.5,550.3,645.4,550.3,645.4,550.4z"/>
	<g>
		<path style="fill:#676767;" d="M717.6,681.7l-1.6-0.3l-0.7,0.7l2,1.2l1,2.1l0.7-0.7l-0.1-1.6l2.7-2.4l2.3,5l0.9-0.9l-1.1-6.1
			l2.7-2.4c0.4-0.4,0.4-1,0.1-1.4s-1-0.4-1.4-0.1l-2.7,2.4l-6-1.7l-0.9,0.9l4.7,2.8L717.6,681.7z"/>
		<path style="fill:#676767;" d="M712.5,687.6c4.5,5,12.2,5.4,17.2,0.9c5-4.5,5.4-12.2,0.9-17.2c-4.5-5-12.2-5.4-17.2-0.9
			C708.5,674.9,708.1,682.6,712.5,687.6z M729.8,672c4.1,4.5,3.7,11.5-0.8,15.5c-4.5,4.1-11.5,3.7-15.5-0.8
			c-4.1-4.5-3.7-11.5,0.8-15.5C718.8,667.2,725.7,667.5,729.8,672z"/>
	</g>
	
		<text transform="matrix(0.9935 0.1137 -0.1137 0.9935 888.4688 665.0255)" style="fill:#3C3C3D; font-family:'MarselisPro-Bold'; font-size:7.2181px;">18th November St.</text>
	
		<text transform="matrix(0.9796 -0.2011 0.2011 0.9796 884.2133 853.785)" style="fill:#8A1739; font-family:'MarselisPro'; font-size:10.1539px;">Muscat Expressway</text>
	
		<text transform="matrix(0.8784 -0.5133 0.5328 0.8463 1303.1461 777.7994)" style="fill:#3C3C3D; font-family:'MarselisPro-Bold'; font-size:7.0281px;">Muscat Expressway</text>
	<text transform="matrix(1 0 0 1 913.3253 714.1998)" style="fill:#3C3C3D; font-family:'MarselisPro-Bold'; font-size:7.2182px;">Sultan Qaboos St.</text>
	
		<text transform="matrix(0.9582 -0.286 0.286 0.9582 702.0592 761.6908)" style="fill:#3C3C3D; font-family:'MarselisPro-Bold'; font-size:7.218px;">Sultan Qaboos St.</text>
	
		<text transform="matrix(0.9995 -3.029001e-02 3.029001e-02 0.9995 1267.1182 696.5383)" style="fill:#3C3C3D; font-family:'MarselisPro-Bold'; font-size:7.2165px;">Sultan Qaboos St.</text>
	<text transform="matrix(1 0 0 1 574.6603 929.6759)" style="fill:#3C3C3D; font-family:'MarselisPro-Bold'; font-size:7.2182px;">Muscat Expressway</text>
	<line style="fill:none;stroke:#8A1739;stroke-miterlimit:10;" x1="846.3" y1="741.5" x2="846.3" y2="765.9"/>
	<circle style="fill:#8A1739;" cx="846.3" cy="741.5" r="3.3"/>
	<g>
		<text transform="matrix(1 0 0 1 802.2878 776.4189)" style="fill:#8A1538; font-family:'MarselisPro'; font-size:10.1536px;">Oman International</text>
		<text transform="matrix(1 0 0 1 802.2878 788.5831)" style="fill:#8A1538; font-family:'MarselisPro'; font-size:10.1536px;">Exhibition Centre</text>
	</g>
	<g>
		<line style="fill:none;stroke:#8A1739;stroke-miterlimit:10;" x1="741" y1="673" x2="758.3" y2="673"/>
		<circle style="fill:#8A1739;" cx="741" cy="673" r="3.3"/>
	</g>
	<g>
		<line style="fill:none;stroke:#8A1739;stroke-miterlimit:10;" x1="581.6" y1="603.2" x2="567.1" y2="593.8"/>
		<ellipse style="fill:#8A1739;" cx="581.6" cy="603.2" rx="3.3" ry="3.3"/>
	</g>
	<line style="fill:none;stroke:#8A1739;stroke-miterlimit:10;" x1="816" y1="812.1" x2="816" y2="836.5"/>
	<circle style="fill:#8A1739;" cx="816" cy="812.1" r="3.3"/>
	<g>
		<text transform="matrix(1 0 0 1 783.8337 847.0723)" style="fill:#8A1538; font-family:'MarselisPro'; font-size:10.1536px;">Muscat Hills</text>
		<text transform="matrix(1 0 0 1 783.8337 859.2363)" style="fill:#8A1538; font-family:'MarselisPro'; font-size:10.1536px;">Golf &amp; Country Club</text>
	</g>
	<g>
		<line style="fill:none;stroke:#8A1739;stroke-miterlimit:10;" x1="661" y1="548.4" x2="661" y2="508.5"/>
		<circle style="fill:#8A1739;" cx="661" cy="548.4" r="3.3"/>
	</g>
	<g>
		<line style="fill:none;stroke:#8A1739;stroke-miterlimit:10;" x1="666.2" y1="559.8" x2="678.7" y2="521.4"/>
		<circle style="fill:#8A1739;" cx="666.2" cy="559.8" r="3.3"/>
	</g>
	<g>
		<line style="fill:none;stroke:#8A1739;stroke-miterlimit:10;" x1="685.6" y1="560.4" x2="706.6" y2="536.1"/>
		<circle style="fill:#8A1739;" cx="685.6" cy="560.4" r="3.3"/>
	</g>
	<g>
		<line style="fill:none;stroke:#8A1739;stroke-miterlimit:10;" x1="675.8" y1="562.4" x2="657.8" y2="589"/>
		<circle style="fill:#8A1739;" cx="675.8" cy="562.4" r="3.3"/>
	</g>
	<line style="fill:none;stroke:#8A1739;stroke-miterlimit:10;" x1="1104" y1="809.8" x2="1079.6" y2="809.8"/>
	<circle style="fill:#8A1739;" cx="1104" cy="809.6" r="3.3"/>
	<line style="fill:none;stroke:#8A1739;stroke-miterlimit:10;" x1="589.4" y1="743.4" x2="589.4" y2="767.8"/>
	<circle style="fill:#8A1739;" cx="589.4" cy="743.4" r="3.3"/>
	<g>
		<text transform="matrix(1 0 0 1 558.6287 778.7931)" style="fill:#8A1538; font-family:'MarselisPro'; font-size:10.1536px;">As Sahwah</text>
		<text transform="matrix(1 0 0 1 558.6287 790.9572)" style="fill:#8A1538; font-family:'MarselisPro'; font-size:10.1536px;">Public Garden</text>
	</g>
	<g>
		<text transform="matrix(1 0 0 1 448.6438 561.624)" style="fill:#8A1538; font-family:'MarselisPro'; font-size:10.1536px;">The International</text>
		<text transform="matrix(1 0 0 1 448.6438 573.7877)" style="fill:#8A1538; font-family:'MarselisPro'; font-size:10.1536px;">School of</text>
		<text transform="matrix(1 0 0 1 448.6438 586.0244)" style="fill:#8A1538; font-family:'MarselisPro'; font-size:10.1536px;">Choueifat</text>
	</g>
	<g>
		<text transform="matrix(1 0 0 1 1093.4884 884.8965)" style="fill:#8A1538; font-family:'MarselisPro'; font-size:10.1536px;">Ghala Valley</text>
		
			<text transform="matrix(1.0574 0 0 1 1093.4884 897.0597)" style="fill:#8A1538; font-family:'MarselisPro'; font-size:10.1536px;">Golf Club</text>
	</g>
	<line style="fill:none;stroke:#8A1739;stroke-miterlimit:10;" x1="1221.3" y1="788.7" x2="1221.3" y2="813.1"/>
	<circle style="fill:#8A1739;" cx="1221.2" cy="788.7" r="3.3"/>
	<g>
		<text transform="matrix(1 0 0 1 1191.7463 822.9113)" style="fill:#8A1538; font-family:'MarselisPro'; font-size:10.1536px;">Mall of Oman</text>
	</g>
	<line style="fill:none;stroke:#8A1739;stroke-miterlimit:10;" x1="2039.5" y1="816.4" x2="2039.5" y2="840.7"/>
	<circle style="fill:#8A1739;" cx="2039.3" cy="816.3" r="3.3"/>
	<g>
		<text transform="matrix(1 0 0 1 2007.7108 851.6006)" style="fill:#8A1538; font-family:'MarselisPro'; font-size:10.1536px;">Qantab Beach</text>
	</g>
	<line style="fill:none;stroke:#8A1739;stroke-miterlimit:10;" x1="2219.5" y1="861.2" x2="2219.5" y2="885.5"/>
	<circle style="fill:#8A1739;" cx="2219.4" cy="861.1" r="3.3"/>
	<g>
		<text transform="matrix(1 0 0 1 2184.1814 895.4024)" style="fill:#8A1538; font-family:'MarselisPro'; font-size:10.1536px;">Bandar Khiran</text>
	</g>
	<line style="fill:none;stroke:#8A1739;stroke-miterlimit:10;" x1="2135.6" y1="858.9" x2="2135.6" y2="883.2"/>
	<circle style="fill:#8A1739;" cx="2135.5" cy="858.8" r="3.3"/>
	<g>
		<text transform="matrix(1 0 0 1 2128.5613 893.0548)" style="fill:#8A1538; font-family:'MarselisPro'; font-size:10.1536px;">Yiti</text>
	</g>
	<line style="fill:none;stroke:#8A1739;stroke-miterlimit:10;" x1="1963.3" y1="775.5" x2="1963.3" y2="799.9"/>
	<circle style="fill:#8A1739;" cx="1963.2" cy="775.5" r="3.3"/>
	<g>
		<text transform="matrix(1 0 0 1 1942.5211 809.7324)" style="fill:#8A1538; font-family:'MarselisPro'; font-size:10.1536px;">Al Bustan</text>
	</g>
	<line style="fill:none;stroke:#8A1739;stroke-miterlimit:10;" x1="1322.8" y1="746.3" x2="1322.8" y2="790"/>
	<circle style="fill:#8A1739;" cx="1322.7" cy="746.2" r="3.3"/>
	<g>
		<text transform="matrix(1 0 0 1 1272.8875 799.5109)" style="fill:#8A1538; font-family:'MarselisPro'; font-size:10.1536px;">ABA International school</text>
	</g>
	<line style="fill:none;stroke:#8A1739;stroke-miterlimit:10;" x1="1454.6" y1="604.6" x2="1454.6" y2="628.9"/>
	<circle style="fill:#8A1739;" cx="1454.5" cy="604.5" r="3.3"/>
	<g>
		<line style="fill:none;stroke:#8A1739;stroke-miterlimit:10;" x1="1774" y1="582.6" x2="1774" y2="606.9"/>
		<circle style="fill:#8A1739;" cx="1773.9" cy="582.5" r="3.3"/>
	</g>
	<g>
		<text transform="matrix(1 0 0 1 1412.6599 638.8145)" style="fill:#8A1538; font-family:'MarselisPro'; font-size:10.1536px;">Royal Opera House</text>
	</g>
	<g>
		<text transform="matrix(1 0 0 1 1358.76 686.9777)" style="fill:#8A1538; font-family:'MarselisPro'; font-size:10.1536px;">British International School</text>
	</g>
	<g>
		<text transform="matrix(1 0 0 1 1567.5027 596.0098)" style="fill:#8A1538; font-family:'MarselisPro'; font-size:10.1536px;">Qurum Natural Park</text>
	</g>
	<line style="fill:none;stroke:#8A1739;stroke-miterlimit:10;" x1="1133.4" y1="752.2" x2="1133.4" y2="776.5"/>
	<circle style="fill:#8A1739;" cx="1133.2" cy="752.1" r="3.3"/>
	<g>
		<text transform="matrix(1 0 0 1 1103.8679 786.3839)" style="fill:#8A1538; font-family:'MarselisPro'; font-size:10.1536px;">Sultan Qaboos </text>
		<text transform="matrix(1 0 0 1 1103.8679 798.5469)" style="fill:#8A1538; font-family:'MarselisPro'; font-size:10.1536px;">Grand Mosque</text>
	</g>
	<g>
		<text transform="matrix(1 0 0 1 1017.1413 800.7501)" style="fill:#8A1538; font-family:'MarselisPro'; font-size:10.1536px;">Taisam</text>
		<text transform="matrix(1 0 0 1 1017.1413 812.9141)" style="fill:#8A1538; font-family:'MarselisPro'; font-size:10.1536px;">International </text>
		<text transform="matrix(1 0 0 1 1017.1413 825.1506)" style="fill:#8A1538; font-family:'MarselisPro'; font-size:10.1536px;">School</text>
	</g>
	<text transform="matrix(1 0 0 1 624.7668 503.7325)" style="fill:#8A1739; font-family:'MarselisPro'; font-size:10.1536px;"> Al Mouj Marina</text>
	<g>
		<line style="fill:none;stroke:#8A1739;stroke-miterlimit:10;" x1="829.8" y1="634.9" x2="829.8" y2="594.9"/>
		<circle style="fill:#8A1739;" cx="829.8" cy="634.9" r="3.3"/>
	</g>
	<g>
		<line style="fill:none;stroke:#8A1739;stroke-miterlimit:10;" x1="753" y1="610.9" x2="753" y2="570.9"/>
		<circle style="fill:#8A1739;" cx="753" cy="611" r="3.3"/>
	</g>
	<text transform="matrix(1 0 0 1 667.8943 518.965)" style="fill:#8A1739; font-family:'MarselisPro'; font-size:10.1536px;">The Walk</text>
	<text transform="matrix(1 0 0 1 691.6921 532.4512)" style="fill:#8A1739; font-family:'MarselisPro'; font-size:10.1536px;">Kempinski Hotel </text>
	<text transform="matrix(1 0 0 1 624.7668 603.5782)" style="fill:#8A1739; font-family:'MarselisPro'; font-size:10.1536px;">Mysk by Shaza </text>
	<text transform="matrix(1 0 0 1 624.7668 615.7422)" style="fill:#8A1739; font-family:'MarselisPro'; font-size:10.1536px;">Al Mouj Hotel</text>
	<g>
		<text transform="matrix(1 0 0 1 298.3253 120.9395)" style="fill:#8A1739; font-family:'MarselisPro'; font-size:10.1536px;">Dimaniyat Islands</text>
	</g>
	<text transform="matrix(1 0 0 1 762.1091 675.2853)" style="fill:#8A1739; font-family:'MarselisPro'; font-size:10.1536px;">Muscat International Airport</text>
	<text transform="matrix(1 0 0 1 529.1027 590.9406)" style="fill:#8A1739; font-family:'MarselisPro'; font-size:10.1536px;">Markaz Al Bahja</text>
	<text transform="matrix(1 0 0 1 803.1969 592.6152)" style="fill:#8A1739; font-family:'MarselisPro'; font-size:10.1536px;">Al Mouj Golf</text>
	<g>
		<line style="fill:none;stroke:#8A1739;stroke-miterlimit:10;" x1="1072.6" y1="665.1" x2="1072.6" y2="625.1"/>
		<circle style="fill:#8A1739;" cx="1072.6" cy="665.1" r="3.3"/>
	</g>
	<g>
		<line style="fill:none;stroke:#8A1739;stroke-miterlimit:10;" x1="1521.8" y1="593.1" x2="1561.8" y2="593.1"/>
		<circle style="fill:#8A1739;" cx="1521.8" cy="593.1" r="3.3"/>
	</g>
	<text transform="matrix(1 0 0 1 1046.0476 622.7853)" style="fill:#8A1739; font-family:'MarselisPro'; font-size:10.1536px;">Azaiba Beach</text>
	<g>
		<line style="fill:none;stroke:#8A1739;stroke-miterlimit:10;" x1="1423.9" y1="589.1" x2="1423.9" y2="549.1"/>
		<circle style="fill:#8A1739;" cx="1423.9" cy="589.1" r="3.3"/>
	</g>
	<text transform="matrix(1 0 0 1 1397.3435 546.7828)" style="fill:#8A1739; font-family:'MarselisPro'; font-size:10.1536px;">Qurum Beach</text>
	<g>
		<line style="fill:none;stroke:#8A1739;stroke-miterlimit:10;" x1="1801.8" y1="581.1" x2="1783.8" y2="560.7"/>
		<circle style="fill:#8A1739;" cx="1801.8" cy="581.1" r="3.3"/>
	</g>
	<text transform="matrix(1 0 0 1 1742.9675 617.818)" style="fill:#8A1739; font-family:'MarselisPro'; font-size:10.1536px;">Bait Al Baranda</text>
	<text transform="matrix(1 0 0 1 1816.7365 644.5132)" style="fill:#8A1739; font-family:'MarselisPro'; font-size:10.1536px;">Bait Al Zubair </text>
	<text transform="matrix(1 0 0 1 1816.7365 656.6768)" style="fill:#8A1739; font-family:'MarselisPro'; font-size:10.1536px;">Museum</text>
	<text transform="matrix(1 0 0 1 1887.5507 734.5944)" style="fill:#8A1739; font-family:'MarselisPro'; font-size:10.1536px;">Muscat Gate </text>
	<text transform="matrix(1 0 0 1 1887.5507 746.7588)" style="fill:#8A1739; font-family:'MarselisPro'; font-size:10.1536px;">Museum</text>
	<g>
		<line style="fill:none;stroke:#8A1739;stroke-miterlimit:10;" x1="1899.2" y1="601.5" x2="1899.2" y2="561.5"/>
		<circle style="fill:#8A1739;" cx="1899.2" cy="601.5" r="3.3"/>
	</g>
	<g>
		<line style="fill:none;stroke:#8A1739;stroke-miterlimit:10;" x1="1880.8" y1="569.5" x2="1920.8" y2="569.5"/>
		<circle style="fill:#8A1739;" cx="1880.8" cy="569.5" r="3.3"/>
	</g>
	<g>
		<line style="fill:none;stroke:#8A1739;stroke-miterlimit:10;" x1="1842.3" y1="616.1" x2="1842.3" y2="633"/>
		<circle style="fill:#8A1739;" cx="1842.3" cy="616.1" r="3.3"/>
	</g>
	<g>
		<line style="fill:none;stroke:#8A1739;stroke-miterlimit:10;" x1="1938.4" y1="712" x2="1928.2" y2="722.9"/>
		<circle style="fill:#8A1739;" cx="1938.4" cy="712" r="3.3"/>
	</g>
	<text transform="matrix(1 0 0 1 1897.5663 641.4181)" style="fill:#8A1739; font-family:'MarselisPro'; font-size:10.1536px;">The National Museum</text>
	<text transform="matrix(1 0 0 1 1897.5663 653.5821)" style="fill:#8A1739; font-family:'MarselisPro'; font-size:10.1536px;">Of Oman</text>
	<g>
		<line style="fill:none;stroke:#8A1739;stroke-miterlimit:10;" x1="1892.1" y1="621.1" x2="1903" y2="631.3"/>
		<circle style="fill:#8A1739;" cx="1892.1" cy="621.1" r="3.3"/>
	</g>
	<g>
		<line style="fill:none;stroke:#8A1739;stroke-miterlimit:10;" x1="584.8" y1="680.6" x2="584.8" y2="640.6"/>
		<circle style="fill:#8A1739;" cx="584.8" cy="680.6" r="3.3"/>
	</g>
	<g>
		<line style="fill:none;stroke:#8A1739;stroke-miterlimit:10;" x1="505.7" y1="598.3" x2="489.1" y2="590.5"/>
		<circle style="fill:#8A1739;" cx="505.7" cy="598.3" r="3.3"/>
	</g>
	<g>
		<path id="Rectangle-Copy-2_10_" style="fill:#FFFFFF;" d="M549.1,630.2h71.8c2,0,3.6,1.6,3.6,3.6v18.9c0,2-1.6,3.6-3.6,3.6h-71.8
			c-2,0-3.6-1.6-3.6-3.6v-18.9C545.5,631.8,547.1,630.2,549.1,630.2z"/>
		
			<text transform="matrix(1 0 0 1 567.2136 641.4185)" style="fill:#8A1538; font-family:'MarselisPro-Bold'; font-size:10.1501px;">City Cent</text>
		
			<text transform="matrix(1 0 0 1 608.2936 641.4185)" style="fill:#8A1538; font-family:'MarselisPro-Bold'; font-size:10.1501px;">r</text>
		
			<text transform="matrix(1 0 0 1 612.0085 641.4185)" style="fill:#8A1538; font-family:'MarselisPro-Bold'; font-size:10.1501px;">e</text>
		
			<text transform="matrix(1 0 0 1 567.2136 651.5675)" style="fill:#8A1538; font-family:'MarselisPro-Light'; font-size:10.1501px;">Muscat</text>
		<g>
			<path id="Path_6_" style="fill:#8A1538;" d="M556.4,638.2c-3.4,0-5.9,2.1-5.9,4.8v5.3h2c0,0,0-3,0-5.3c0-2.5,2.2-4.4,4.4-4.7
				c0.1,0,0.1,0,0.1,0L556.4,638.2L556.4,638.2z"/>
			<path id="Path_3_" style="fill:#8A1538;" d="M556.8,638.3c-0.1,0.1-0.4,0.1-0.7,0.4c-1.2,0.8-1.9,2.5-1.9,3.9c0,0.1,0,0.1,0,0.3
				l0,0v0.1v5.3h1.6V643c0-0.4,0.1-0.7,0.4-0.8l0.7,0.8l0.7-0.8c0.3,0.1,0.4,0.5,0.4,0.8v5.3h1.6V643c0-1.5-1.2-2.9-2.7-2.9
				c-0.4,0-0.7,0.1-1,0.1l0,0c0.4-0.4,0.8-0.7,1.5-0.7l0,0c0.1,0,0.4,0,0.5,0.1c1.5,0.3,2.6,1.5,2.6,3.2c0,0.1,0,0.1,0,0.1v5.2h1.6
				c0,0,0-5.2,0-5.3c0-2.3-1.2-4.2-3.6-4.7c-0.1,0-0.1-0.1-0.4-0.1c-0.1,0-0.4,0-0.5,0C557.4,638.2,557.2,638.2,556.8,638.3z"/>
		</g>
	</g>
	<g>
		<line style="fill:none;stroke:#8A1739;stroke-miterlimit:10;" x1="1513.8" y1="627.9" x2="1513.8" y2="587.9"/>
		<circle style="fill:#8A1739;" cx="1513.8" cy="627.9" r="3.3"/>
	</g>
	<g>
		<path id="Rectangle-Copy-2_1_" style="fill:#FFFFFF;" d="M1478.1,561.6h71.8c2,0,3.6,1.6,3.6,3.6v18.9c0,2-1.6,3.6-3.6,3.6h-71.8
			c-2,0-3.6-1.6-3.6-3.6v-18.9C1474.6,563.3,1476.2,561.6,1478.1,561.6z"/>
		
			<text transform="matrix(1 0 0 1 1496.2574 572.8624)" style="fill:#8A1538; font-family:'MarselisPro-Bold'; font-size:10.1501px;">City Cent</text>
		
			<text transform="matrix(1 0 0 1 1537.3381 572.8624)" style="fill:#8A1538; font-family:'MarselisPro-Bold'; font-size:10.1501px;">r</text>
		
			<text transform="matrix(1 0 0 1 1541.0525 572.8624)" style="fill:#8A1538; font-family:'MarselisPro-Bold'; font-size:10.1501px;">e</text>
		
			<text transform="matrix(1 0 0 1 1496.2574 583.0114)" style="fill:#8A1538; font-family:'MarselisPro-Light'; font-size:10.1501px;">Qurum</text>
		<g>
			<path id="Path_2_" style="fill:#8A1538;" d="M1485.5,569.6c-3.4,0-5.9,2.1-5.9,4.8v5.3h2c0,0,0-3,0-5.3c0-2.5,2.2-4.4,4.4-4.7
				c0.1,0,0.1,0,0.1,0L1485.5,569.6L1485.5,569.6z"/>
			<path id="Path_1_" style="fill:#8A1538;" d="M1485.9,569.8c-0.1,0.1-0.4,0.1-0.7,0.4c-1.2,0.8-1.9,2.5-1.9,3.9c0,0.1,0,0.1,0,0.3
				l0,0v0.1v5.3h1.6v-5.3c0-0.4,0.1-0.7,0.4-0.8l0.7,0.8l0.7-0.8c0.3,0.1,0.4,0.5,0.4,0.8v5.3h1.6v-5.3c0-1.5-1.2-2.9-2.7-2.9
				c-0.4,0-0.7,0.1-1,0.1l0,0c0.4-0.4,0.8-0.7,1.5-0.7l0,0c0.1,0,0.4,0,0.5,0.1c1.5,0.3,2.6,1.5,2.6,3.2c0,0.1,0,0.1,0,0.1v5.2h1.6
				c0,0,0-5.2,0-5.3c0-2.3-1.2-4.2-3.6-4.7c-0.1,0-0.1-0.1-0.4-0.1c-0.1,0-0.4,0-0.5,0C1486.4,569.6,1486.2,569.7,1485.9,569.8z"/>
		</g>
	</g>
	<g>
		<path id="Rectangle-Copy-2_29_" style="fill:#8A1739;" d="M717.3,544.9h71.8c2,0,3.6,1.6,3.6,3.6v18.9c0,2-1.6,3.6-3.6,3.6h-71.8
			c-2,0-3.6-1.6-3.6-3.6v-18.9C713.8,546.5,715.4,544.9,717.3,544.9z"/>
		
			<text transform="matrix(1 0 0 1 735.4738 556.1241)" style="fill:#FFFFFF; font-family:'MarselisPro-Bold'; font-size:10.1501px;">Al Mouj</text>
		
			<text transform="matrix(1 0 0 1 735.4738 566.2729)" style="fill:#FFFFFF; font-family:'MarselisPro-Light'; font-size:10.1501px;">Muscat</text>
		<g>
			<path id="Path_10_" style="fill:#FFFFFF;" d="M724.7,552.9c-3.4,0-5.9,2.1-5.9,4.8v5.3h2c0,0,0-3,0-5.3c0-2.5,2.2-4.4,4.4-4.7
				c0.1,0,0.1,0,0.1,0L724.7,552.9L724.7,552.9z"/>
			<path id="Path_11_" style="fill:#FFFFFF;" d="M725.1,553.1c-0.1,0.1-0.4,0.1-0.7,0.4c-1.2,0.8-1.9,2.5-1.9,3.9c0,0.1,0,0.1,0,0.3
				l0,0v0.1v5.3h1.6v-5.3c0-0.4,0.1-0.7,0.4-0.8l0.7,0.8l0.7-0.8c0.3,0.1,0.4,0.5,0.4,0.8v5.3h1.6v-5.3c0-1.5-1.2-2.9-2.7-2.9
				c-0.4,0-0.7,0.1-1,0.1l0,0c0.4-0.4,0.8-0.7,1.5-0.7l0,0c0.1,0,0.4,0,0.5,0.1c1.5,0.3,2.6,1.5,2.6,3.2c0,0.1,0,0.1,0,0.1v5.2h1.6
				c0,0,0-5.2,0-5.3c0-2.3-1.2-4.2-3.6-4.7c-0.1,0-0.1-0.1-0.4-0.1c-0.1,0-0.4,0-0.5,0C725.7,552.9,725.4,553,725.1,553.1z"/>
		</g>
	</g>
	<text transform="matrix(1 0 0 1 1872.609 559.165)" style="fill:#8A1739; font-family:'MarselisPro'; font-size:10.1536px;">Al Alam Palace</text>
	<text transform="matrix(1 0 0 1 1923.1091 573.1232)" style="fill:#8A1739; font-family:'MarselisPro'; font-size:10.1536px;">Jalali Fort</text>
	<text transform="matrix(1 0 0 1 1792.7809 532.4512)" style="fill:#8A1739; font-family:'MarselisPro'; font-size:10.1536px;">Corniche Mutrah</text>
	<g>
		<line style="fill:none;stroke:#8A1739;stroke-miterlimit:10;" x1="1828.4" y1="575.2" x2="1828.4" y2="535.3"/>
		<circle style="fill:#8A1739;" cx="1828.4" cy="575.2" r="3.3"/>
	</g>
	<text transform="matrix(1 0 0 1 1826.8781 507.3848)" style="fill:#8A1739; font-family:'MarselisPro'; font-size:10.1536px;">Riyam Park Monument</text>
	<g>
		<line style="fill:none;stroke:#8A1739;stroke-miterlimit:10;" x1="1849.5" y1="563.5" x2="1883.3" y2="511.2"/>
		<circle style="fill:#8A1739;" cx="1849.5" cy="563.5" r="3.3"/>
	</g>
	<text transform="matrix(1 0 0 1 1749.5237 555.2837)" style="fill:#8A1739; font-family:'MarselisPro'; font-size:10.1536px;">Mutrah Souq</text>
	
		<g id="NorthPoint" transform="translate(1831.070256, 181.453972) rotate(50.000000) translate(-1831.070256, -181.453972) translate(1792.570256, 137.953972)">
		<path id="Fill-933" style="fill:#8A1538;" d="M171.7,327.9l4.6,7.7l-7.9-3.6L171.7,327.9z M167,333.6l14.1,5.7l-8-12.7l-14.1-5.7
			L167,333.6z M171.7,327.9l4.6,7.7l-7.9-3.6L171.7,327.9z M167,333.6l14.1,5.7l-8-12.7l-14.1-5.7L167,333.6z M171.7,327.9l4.6,7.7
			l-7.9-3.6L171.7,327.9z M181,339.4l-8-12.7l-14.1-5.8l8,12.7L181,339.4z M164.1,314.5c8.5-3,17.8,1.4,20.8,9.9
			c3,8.5-1.4,17.8-9.8,20.8c-8.4,3.1-17.8-1.4-20.8-9.8C151.2,327,155.7,317.6,164.1,314.5z M176.3,348.8
			c10.4-3.8,15.8-15.2,12-25.6c-3.7-10.4-15.1-15.7-25.5-11.9c-10.4,3.7-15.7,15-12,25.3C154.6,347.1,166,352.4,176.3,348.8z
			 M171.7,327.9l4.6,7.7l-7.9-3.6L171.7,327.9z M167,333.6l14.1,5.7l-8-12.7l-14.1-5.7L167,333.6z M171.7,327.9l4.6,7.7l-7.9-3.6
			L171.7,327.9z M167,333.6l14.1,5.7l-8-12.7l-14.1-5.7L167,333.6z M171.7,327.9l4.6,7.7l-7.9-3.6L171.7,327.9z M167,333.6l14.1,5.7
			l-8-12.7l-14.1-5.7L167,333.6z M171.7,327.9l4.6,7.7l-7.9-3.6L171.7,327.9z M167,333.6l14.1,5.7l-8-12.7l-14.1-5.7L167,333.6z"/>
		<g id="Back-Copy-5_1_" transform="translate(34.000000, 0.000000)">
			
				<text transform="matrix(0.6467 -0.7628 0.7628 0.6467 116.1372 317.6581)" style="fill:#8A1538; font-family:'ArialMT'; font-size:10.1514px;">N</text>
		</g>
	</g>
</g>
</svg>
