<?xml version="1.0" encoding="utf-8"?>
<!-- Generator: Adobe Illustrator 19.1.0, SVG Export Plug-In . SVG Version: 6.00 Build 0)  -->
<svg version="1.1" id="app_x5F_Muscat--parent" xmlns="http://www.w3.org/2000/svg" xmlns:xlink="http://www.w3.org/1999/xlink"
	 x="0px" y="0px" width="3840px" height="2160px" viewBox="0 0 3840 2160" style="enable-background:new 0 0 3840 2160;"
	 xml:space="preserve">
<g id="map-data" style="display:none;">
	<rect x="1730.4" y="-1190.3" style="display:inline;fill:#FFFFFF;" width="4135.8" height="2898.2"/>
	<g style="display:inline;">
		<g>
			<g>
				<path style="fill:#E0DAD5;" d="M2143,403.3l46,12l22.4,5l23.8,0.8l22.2-2.4l19-2.4l23.4-1.6l9.6-2l28.8-22.6l29.4-4l10.8-14
					l14-0.2l3.2-6.2l-7.6-50v-0.2c2-19-21.2-90.6-22.2-94l-5.8-13.6l-7.8-22l-5.4-19l5.6-7.6l0.4-0.2c7.8-4.6,16.6-9.8,17.6-10.6
					l-0.2,0.2c0.8-0.8,4.2-3.6,32.2-23l34.6-22.2l21.8-11.6l10.6-11.2l7.4-10l2-9.4l-2.4-4.6L2464,43.9l-3.8-9.6l-0.6-27l1.4-13.6
					l0.8,0.2l-117.2-75.8L2169-223.7l-26.2-27L2143,403.3L2143,403.3z"/>
			</g>
			<g>
				<polygon style="fill:#E0DAD5;" points="5554,589.5 5561.2,591.1 5571.2,589.9 5574.6,591.5 5577.2,594.5 5582.2,588.9 
					5582.2,585.1 5574.2,579.7 5567.4,575.7 5561.6,573.3 5557,574.9 5553.8,578.1 5554,582.9 				"/>
				<polygon style="fill:#E0DAD5;" points="5737.2,747.7 5729.4,749.9 5727,752.5 5727,754.5 5731.6,754.5 5737.2,754.5 
					5739.8,751.5 5743.4,749.3 5746.6,747.7 5746.6,745.3 5740.6,745.3 				"/>
				<path style="fill:#E0DAD5;" d="M5539.8,641.7l6.4,1l6.2-3.2h4l2.4-1.6l6-3.2v-3h-3c0,0-7.6,1.8-8.4,2.2
					c-0.8,0.2-7.8,3.4-7.8,3.4l-5.8-0.8L5539.8,641.7L5539.8,641.7z"/>
				<path style="fill:#E0DAD5;" d="M5862.6,831.3l-37-26l-7.6-3.4l-5.4-6.8c0,0-6.8-1.8-7.8-3.4c-1.2-1.4-6.6-8.4-6.6-8.4l-8-8.4
					l-5-7.6c0,0-3-7.2-3-8.8c0-1.4,0.8-7.8,0.8-7.8v-5.8l3.4-3.4l0.2-2.4l-4.4,0.6l-3-1.2l-0.8-5l0.8-1.8v-2.8l-1.2-3.4
					c0,0-1.8-2-2.4-3.2s-2-3.4-2-3.4h-5l-7-0.8l-7.6,1.8l-1.4,2.6l2.4,1.8l6.4,2.4l4.4,2l4,1.4l3.2,2v3.2v3.8c0,0-1.4,0.6-2.4,1.2
					s-2.6,1.8-2.6,1.8l-3.4,1.8l-3.4,0.6c0,0-2.6,0.6-3.4,1.2s-5.2,3.4-5.2,3.4l-2,2l-5.8,2l-2.4,1.2l-6.2,1.8l-2.6,1.4l-4.4,2
					l-1.8,1.4l-9,1.4l-3,0.8c0,0,2-0.2-3.4,1.4c-5.6,1.8-2.4-0.2-2.4-0.2l-3.2,2l-4,5.8l-3.4,5.2l-0.8,7c0,0,0.6,0.8-0.8,2.4
					c-1.4,1.4-4,5.8-4,5.8l-5,5.6l-2.6,3.4l-2.4,1.4l-3,5.8l-2.8,10.8c0,0,0,3.8,0,5s-0.8,1.2,0.6,3.4c1.4,2.4,5,9.8,6.6,11.2
					c1.4,1.4,4.4,4.6,4.4,4.6l4,10.8c0,0,1.6,7.2,1.8,8.2c0.2,0.8-10.8,4.8-10.8,4.8s-6.8-20.8-6.8-21.8c0-0.8-0.2-9.4-0.2-9.4
					l-3.4-11l-2-3.8l-1.8-5.2l-2.4-2.4l-3.4-0.6c0,0-1.2-0.6-2.6,2s-5.4,8.2-5.4,8.2s0.8,4.4,0.8,5.2s0.2,10.2,0.2,10.2l0.6,5.6
					l6.2,15.6c0,0-2,3.4-2.4,5.2c-0.2,1.8-0.6,3.8-0.6,3.8l-0.2,10.4l0.8,12.2c0,0-0.2,7.2-0.4,8.2c-0.2,0.8-2.2,10.8-2.2,10.8
					l-8.6-9.8c0,0-1.8-9-1.8-10.4s-2.2-10.8-2.2-10.8l-2.4-22.2l0.8-14.8c0,0,1-7.6,1.4-8.4c0.2-0.8,3.4-10,3.4-10l2.8-8.8l3-7
					l8.6-5.6l3-3.2l2.6-3l8.4-4l4-4l1.6-6.8l2.6-2.6l3.2-4.4c0,0,0-1.4,0.6-2.6s1.8-3.8,1.8-3.8l1.8-3.4l-0.2-2.6l2-3.2l6.8-4.2
					l5.6-2l7-3l4-5.2l2.6-5.6l2.2-6.4l0.6-3l2.4-3l3.2-3l3-4.4l11.2-8.6l-1.4-2.6l-11.8,9.4l-6.8-5.6l-3.4-2l-1.4-3.2l1.4-3l7.4-6.6
					l2.4-11l-2,1.2l-3,9l-7.4,7.2c0,0-3.2,1.8-4,1.8s-6.2-1.8-6.2-1.8s-1.2,0.2-2.4-2c-1.2-2.4-2.4-5-2.4-5l1.8-4.4l3.4-3.2l7,1
					l2,2.4l2.4,2.6l2.4-2.4l1.2-5.8l-2.4-3.4l-5-0.8c0,0-7,0.2-7.8,0.4s-7.2-1-7.2-1s-1.4,1.2-3-0.2c-1.4-1.4-2.4-1.8-2.6-3
					s-0.6-4.6-0.6-4.6l-1.4-4.4l-2.6-3.4l-2.6-2l-4-1.2l-4-0.8l-0.2-7.6l-4.6-2l-8.2,3.6c0,0-3.4,2.4-5.6,0.8
					c-2-1.4-4.4-3.4-4.4-3.4l-3.8-5.8l-2.4-5.6l-0.4-10.4l3.4-5.2l-5.2-2.6l-5.2-2.6c0,0-6.4,0.2-7-0.8s-0.2,2-0.6-0.8
					c-0.2-3,0.4-7.6,0.8-9c0.2-1.4,1.8-4.4,1.8-4.4l3-2.6l3.4-3l3.8-5v-4h2l0.2-5.6l-2.4-1.2l-2.4,1.4l-4.4,1.2l-3.4-0.8l-2.2,11.6
					l-2.8,12l-3.6,8.4l-3,6.4l-1.8,5.8l-1.4,2.4l2.2,8.4c0,0-0.2,7-0.4,7.8s-4.2,9.4-4.2,9.4h-4.4h-2.6h-3l-4.4,3
					c0,0-1.8,2.4-1.8,4.6s-1.4,7.8-1.6,9s-4,7-4.6,8.4s-4,4.4-4,4.4h-4.4l-3.2-4.6l-2.6-3.2c0,0-7.6,3.4-8.4,5.6
					c-0.8,2.4-3.2,4.6-3.2,4.6l-4.6,3.8l-6.2,0.2c0,0-2,1.8-3,0c-0.8-1.8-5.8-4.6-6.2-6.6c-0.2-2-1.6-11-1.6-11l4.6-4.4l3.2-2
					l10.2-1.4l0.6-3.8l4.6-1.2l6.4-1.4l3.2-3.4l-1.4-5.8l-3.4-3.2c0,0,0.6-2.6-3.4,1.2l-4,2.6l-12.8,2.4l-7.6-0.4v-5l-4.4-2.6
					l-6.4-1.8l-5.2,0.6l-6.4-4l-1.4,0.8l-5.8,1.8l-3.2-2.6l-3.8-4l-3.4-3.2l-4.2-8.4l-1.6-7.2l4.4-2.6l2.6-2h2.4l1.8-1.8l2.4-6.8
					l3-2.4l8.4-4l4.6-3.2l5-3.2c0,0,3-0.8,3-2.6s-1.8-5-1.8-5l-3-5.8h-4.4h-2.4c0,0-3.4,5.6-6,8.2s-2.4,3.8-5,5.2
					c-2.6,1.4-0.2-0.2-2.6,1.4c-2.4,1.8-3.8,1.4-3.8,1.4l-4.2-7l-2.6,1.4h-3.2l-3.2,2l-1.8-8.8l-0.2-10h-2.4h-4.6l-4.6,6.2l-3.4,1.6
					l-1.8-1.4c0,0,0.4-1.6,0-4s1.4-6.8,1.4-6.8s0.4-0.8,0.8-2.4c0.2-1.6,0.2-4.2,0.2-4.2l2.4-3l3.4-3.2l5-3.4l2.6-2.4l3.8-2l3.4-2.8
					l4.2-4l-1.2-2.8l-6.6-2.6h-2.8l-2.6,4.4l-8.2,3.2c0,0-0.4,1.6-3,2.4s-5.4,2-5.4,2l-9.4,1.4l-4.6,0.4l-1.8,1.2l-3.2-3.4
					c0,0,0-2.4,0-3.4s1.4-3.4,1.4-3.4l2.4-1.2l6.6-2.8l3-2c0,0,1.4-2.8,0.2-4.2c-1.2-1.6-1.2-1.6-1.2-1.6s-0.8,0-3.8,2.4
					s-3,2.4-3,2.4l-5.8,0.4l-6.6-2.2l-2.8-0.2l-5.8,2.4l-3,4.6c0,0-1.2,1.6-1.8,3c-0.8,1.6,0.4,2.4-3,4.6c-3.4,2.4-5.4,4.4-5.4,4.4
					l-5.4,1.2l-3.4-0.2l-6.2-0.2c0,0-2.8-1.2-4.2-1.8c-1.4-0.8-4-2.6-4-2.6s-1.8-0.8-3.2-2.6c-1.2-1.8-2.8-2.4-2.8-5
					c0-2.8-2.8,1.2,0-2.8c2.6-4,4.2-5.6,3.8-6.8c-0.4-1.2-2-2.6-3.2-2.6s-6.2,1.6-6.2,1.6l-1.8,1.2l-5.8,2.4l-68.6,40.8l-35,12
					c-3.4-13.6-0.2-27,6-39.8l1.4-9l-15.8-2l-7.4-8.8l-6.4-9.4l-15.8-3l-9.4-7.4l-10-4c-36.2,19.4-47.2-5.4-47.2-5.4l-6.2-7.4
					l0.2-0.2l-14.2-16.4l-6.4-16.4v-23.8l-28.8-19.8v-8.8l-8.8-3.4l-3.4-14.4l7.8-7l-12-10h-9.4l-4.6-11l4-14.4l10-6.4l4.6-13.4
					h-8.4l-6.4-7.4l-1-12l7.4-5.4l-3.4-7l-6-11c0,0-8.8-5.4-7.4,0s-4,11-4,11c-14.4-1-13.4-9.4-13.4-9.4l0.4-6.4l4-4l6-6.4l2-12
					l-7.8-6.4l-4.6,12.4l-12-4.4c0,0-2,6-11,4s-4-15.8-4-15.8l5-8.4l5,8.4l14.8-3.4v-6.4l6.4-11c0,0,0-4.6,0-7s7.4-11,7.4-11
					l12.4-15.8l10-2.4l-12.4-21.8l-8.4,6.4l-7-3l-10,7l-7.8-4.6l6-8.8l-11.4-4.6l3-6l16.4,0.4v-5l-19.8-18v-28.2l-11-1h-36.8
					l-15.4-11l-0.4-15.4l8.8-2.4v-3h-18.8l-5-8.8l-6.4-16.4l-14.4-7.4l-10,6l3,8.8l-3.4,21.8l-9.4,2.4l-13.4-20.4l-10-5l-10.4-19.8
					l-8.4,4.6v13.4l-5.4,12.4l-19.4,9.4l-12-7.4l-12-2l-25.8,16.8l-10-2.4l-19.4,5.4l-8.4-9.4l-6.4-13.8l7.4-7.4l7,5l2,9.4l8.4-1.4
					l2-6.4l-11.4-19.4l7-8.8l16.4,16.2l13.4-6l-16.8-26.4l9.4-7l27.2,21.8l6-4.6l-32.2-29.2h-10.4L4795-22.5l-4.6-12.4l8.4-6.4
					l-5-7.8l-13-3.4l-8.4,6h-7l-7.4,4.6l-8.4,6.4l-13.4,1l-11.4,8.8l-11-8.8l-8.4-2.4l-6,3.4l-9.4,13.8l-23.8,4l-11.4-18.8
					L4628-10.7l-11.4-2l-13.4,4l-26.8-10l-9.4-7.4l-13,6l-14.4,2.4l-13.8-3l-18.8,11v8.4l-24.8,6l-49.6-4.6l-29.8-8.8l-28.6-17.4
					l-6-11.4l-12-7.4l-6-8.8l1.4-7l18.8-9.4l-11.4-1l-3-11l-9.4-6.4l-34.6-31.4l-9.4,6.4l-9.4-5.4v22.8l-13.4,7.8l-11,3.4l-7.4-14.8
					l-11-7.4l-11-2v14.8l-9.4,0.4l-3,11.4l7,8.8l-10.4,12.4l-4.6,11.4l-18.4,5l-7-6l-8.8,8.4l-1,7.4l10,10l-27.2,13l-13.8,11
					l5.4,2.4l-3.4,21.8l9.4,14.8L4063,98.5l-54,26.4l-162.2,65l-120,25.4l-113.6,12l-147.4,13.8l-174.6-18.4l-147.8,5h-38.8
					l-35.2-7.4h-30.8l-75.6-16.4l-72.4-21.8l-35.2-7.4l-10.4-8.4h-10l-9.4-5l-4-11l-20.8-5l-22.8,7.4l-56.6-19.4l-55-26.4L2640,94.5
					l-33.8-17.4l-3.2-1.8l-11.6-13.6l-4.2-4.8l-1-8.6l-6.8-8.2V21.5l-8.2-14.6l-10-8.4l-1.4,8.4l3.8,14l-10.4,6.8l-4.2-3l-15.2,3
					l-1-3.4l-5.6-2.4v-3.2l7.2-2.4l5.6-3.8l-3.8-4.8l-7.2,1.4l-7.6-1.8l7.6-8.2l12.8,3.4l7.2,6.2l4.2-3.8v-8.2l-8.6-6.2l-12-4.2
					L2505-5.1l-6.8,8.2l-1.4,10l-25-13.2l-20.2-13.6c0,0-0.2,0.2-0.4,0.2l-110.6-71.6L2165-226.9l-81-84.2l-36.2-23.8l-53.4-46.2
					l-59.8-23.2l-43.8-35.8v-15.8l-9.8-14.8v-3.8h-6l3.4,9l6.8,10l-1.4,14.8l3.4,6.8l-1.8,7l-31-15.4c0-3.6,0.2-8.6,0-10
					c-0.2-2.4-11.2-10.4-11.2-10.4s4.2-4.2,4.2-8.6c0-4.2-4.2-3.4-4.2-3.4l25.6-8.6l24.8,2.4v-2.2l-24.8-3l-29,9l-21,17.4l-159.8-60
					l-151-55.6l-97-27.6l-31.4-27.6v2337.6h4181.2v-0.4h303L5862.6,831.3z"/>
			</g>
			<path style="fill:#E0DAD5;" d="M5282.6,553.5c0,0,64,35.2,113,21.8l-12,43.6l-50.6,22.2l-50.6-11l-15.6-47.8L5282.6,553.5z"/>
		</g>
		<g>
			<path style="fill:#E0DAD5;" d="M2500-47.1C2500-47.3,2500-47.3,2500-47.1c0.2-1.2,1.2-2,2.2-1.8c0.4,0.2,39.8,7.4,72.6,29.6
				c33,22.2,43.4,50,43.8,51.2c0.2,1-0.2,2-1.2,2.4c-1,0.2-2-0.2-2.4-1.2c-0.2-0.2-10.4-27.8-42.4-49.2
				c-32.4-21.8-70.8-28.8-71.2-29C2500.6-45.5,2500-46.3,2500-47.1z"/>
		</g>
		<g>
			<path style="fill:#E0DAD5;" d="M3647.2,228.9c-1.2,0-2-0.8-2.4-2l-6.4-40.4l-8.6-4.4c-1.2-0.6-1.8-2-1.2-3.4
				c0.6-1.2,2-1.8,3.2-1.2l10.6,5.6l6.8,43C3649.6,227.3,3648.6,228.5,3647.2,228.9C3647.4,228.9,3647.4,228.9,3647.2,228.9z"/>
		</g>
		<g>
			<path style="fill:#E0DAD5;" d="M3634,228.3c-1.4,0-2.2-1-2.4-2.4l-3-36.2c-0.2-1.4,0.8-2.6,2.2-2.8s2.4,0.8,2.6,2.4l3,36.2
				c0.2,1.4-0.8,2.6-2.2,2.8C3634,228.3,3634,228.3,3634,228.3z"/>
		</g>
		<g>
			<path style="fill:#E0DAD5;" d="M3358.2,255.3c-1.4-0.2-2.2-1.2-2.2-2.4l0.2-36.2c0-1.4,1-2.4,2.4-2.6c1.4,0,2.4,1.2,2.4,2.6
				l-0.2,36.2C3360.8,254.3,3359.8,255.3,3358.2,255.3C3358.4,255.3,3358.2,255.3,3358.2,255.3z"/>
		</g>
		<g>
			<path style="fill:#E0DAD5;" d="M3190.6,243.1c-1.4-0.2-2.2-0.8-2.2-1.6l-1-22.2c0-0.8,1-1.4,2.4-1.4s2.4,0.8,2.4,1.6l1,22.2
				c0,0.8-1,1.4-2.4,1.4H3190.6z"/>
		</g>
		<path style="fill:#E0DAD5;" d="M4321.6-261.1l-1.8,5v4.4l4.4,1.4c0,0,1.8-0.6,3-2.4c1.4-1.8,3.8-2.4,1.8-4.4
			c-1.8-1.8,0,0.6-1.8-1.8c-1.8-2.4,3-8.2,3-8.2s-1.4-6.2-3-8.2c-1.8-1.8-5-0.6-5-0.6l-5.6,5c0,0,0,4.4-1.4,6.2
			c-1.4,1.8-2.4,6.2-2.4,6.2l2.4,3.8L4321.6-261.1z"/>
		<circle style="fill:#E0DAD5;" cx="5509.8" cy="767.9" r="3.4"/>
		<circle style="fill:#E0DAD5;" cx="5531" cy="708.5" r="3.4"/>
		<circle style="fill:#E0DAD5;" cx="5402.4" cy="931.7" r="3.4"/>
		<circle style="fill:#E0DAD5;" cx="5374" cy="765.9" r="3.4"/>
		<circle style="fill:#E0DAD5;" cx="3721.4" cy="271.9" r="3.4"/>
		<circle style="fill:#E0DAD5;" cx="3676.2" cy="428.1" r="3.4"/>
		<circle style="fill:#E0DAD5;" cx="3563.2" cy="538.9" r="3.4"/>
		<circle style="fill:#E0DAD5;" cx="3563.2" cy="518.1" r="3.4"/>
		<circle style="fill:#E0DAD5;" cx="3554.8" cy="541.5" r="3.4"/>
		<circle style="fill:#E0DAD5;" cx="3554.8" cy="519.9" r="3.4"/>
		<circle style="fill:#E0DAD5;" cx="3853.4" cy="262.3" r="3.4"/>
		<circle style="fill:#E0DAD5;" cx="4649.2" cy="403.3" r="3.4"/>
		<circle style="fill:#E0DAD5;" cx="5533" cy="838.9" r="3.4"/>
		<path style="fill:#E0DAD5;" d="M5046.4,10.1c-2.4,4-10.2,16.6,4.6,13.6s25,23.8,14.8-3C5055.6-6.1,5048.8,6.1,5046.4,10.1z"/>
		<path style="fill:#E0DAD5;" d="M5017.2-57.3c3.4,3.4,6.8,11.6,6.8,11.6l13.6,8.8c0,0,2.4-3.4,18.6,6.8
			c16.4,10.2,24.4,20.6,24.4,20.6h15.8c0,0-6.8,15.4,11.4,3.4c18-11.8,6.8-7.2,18-11.8c11.4-4.6,0,0,0,0l11.4-4.6
			c-11.4-23.8-4.4-16.8-4.4-16.8l-7-6.8c0,0-1.2-2-16.8-4.4c-15.8-2.4-15.8-2.4-15.8-2.4l0,0l-1.8-14.8c17.6-15.8,9.6-3.4,17.6-15.8
			c7.8-12.4,23.8,10.2,7.8-12.4c-15.8-22.6-5.6-15.2-5.6-15.2l-19.8-14l28.6-28.8c0,0-2.4-2,0-14.8s5.6-32,0-42.2
			s-16.8-19.2-16.8-19.2l-26-5.6v-27.6l7.8-26.8l6.2-10.2c0,0-9.6-22.6-14.2-15.8c-4.6,6.8-7.2,22.6-7.2,22.6s-7.6-3-13.6,17.2
			c-6.2,20.2-13.6,26-13.6,26H5031l-13.6-17.2l-6.8-34l-12.2-22.6l-11.6-16.8v-12.4l-27,7.8l-24.4-32.8l-25.8-29.8l9,64.6
			c0,0-45.4,7.8-26,26c19.2,18,19.2,18,19.2,18l7.8,22.8c0,0-3.4,0.2,15.2,13.2c18.8,12.8,44.8-23.4,18.6,12.8
			c-26,36.2-18.6,38.4-18.6,38.4s21-28.2,24.4,0s18,12.4,3.4,28.2c-14.8,15.8-13.6,6.8-14.8,15.8c-1.2,9-46.4,6.8-1.2,9
			s45.4,2.4,45.4,2.4l26-5.6l3.4,15.6l-5.6,15.2l21.4,13.4c26,18,26,18,26,18s19.6,6.8,6.4,14.8c-13.2,7.8,6.2,9-13.2,7.8
			c-19.4-1.2-2.4-10.2-19.2-1.2c-16.8,9-16.8,9-16.8,9L5017.2-57.3z"/>
	</g>
	<path style="display:inline;fill:none;stroke:#FFFFFF;stroke-width:4;stroke-miterlimit:10;" d="M2357.6,155.5
		c0,0,99.4-85.2,133-96.2c0,0-125.2-82.2-168.6-108.6"/>
	<path style="display:inline;fill:#FFFFFF;" d="M2932.4,205.5l-4,11.8l-2.2,8.4v7.4l-1.6,11.2l-3,13.2l-2.2,6.6l-7.2,1.6h-8.8
		l-4.6,5.2l-4.6,5.4v4.2v6v7.2v9v10.4l-7.4,15l-8.4,11l-10.6,11.2l-16.4,7.4c0,0-8,3-10.4,3.8c-2.4,0.6-16.8,3.8-16.8,3.8l-15,3
		l-23.4,4.6l-17,5.4l-20.6,4l-6.2,8l-6,5.6l-4,9.4v5.6l-2.4,7.8l-1.8,6.8l-11.8,6.8h-8.2h-2.4v6l-3,4.4l-7.8,15.8l-6.2,6.2l-9,13.2
		l-8.8,11.8l-7.6,8.4l-6.6,4l-8.4,5.2l-3,5v11.8l3,7.2l7,13.6l3.4,11.6v7.4l2.2,9.4l2.2,8.2v23.4l-1.8,5.6l12,15l-5.4,5.2l-9.4,12
		l-9.4,6.8l-8.4,7.2l-1.4,5l2.8,3.8l7.2,4.4l5.8,4.4l8,4l7.6,8.4l4,4.2l-1.4,8.2l-10.2,8.8l-9.4,5.2l-7.2,5.6l-1.4,5l5.6,4l7.6,3.4
		l12,4.6c0,0-0.8,2.8,0,3.8c0.8,0.8-2.8,12-2.8,12l-4.8,5.2l-4.6,6.2l-2,6.8l2,2.4l1.4-2.8l3.2-5.6l4.8-8.2l2.8-6.2l4.6-8.2l0.2-6.6
		l-4.8-3.8l-5.8-2.8l-9.8-2.4l-4-4.6c0,0,1.8-1.8,2.4-2.8c0.6-0.8,6.6-6.2,6.6-6.2l6.8-3l4-3.4c0,0,4.6-4,5.4-5c0.8-0.8,4-5.6,4-5.6
		l-6.8-8.8l-6.6-10.4l-5.6-2.8l-6-4.6l-7-2.6l-1.8-5.4l4.6-5.4c0,0,9.8-9.4,10.4-10.4c0.6-0.8,6-5,6.4-6c0.4-0.8,2-3,2.8-4
		c0.8-0.8,4.6-5.6,4.6-5.6l2.4-8.2l-4.4-6l-6.6-5.6l-2.2-4.4c0,0,3-6,3.2-7.8c0.2-1.8-0.4-4,0-7.2c0.4-3.2-1.2-13.6-1.2-13.6
		l-3.6-17.2l-2.6-12.4c0,0-3.4-3.8-3.8-5c-0.2-1.4-3.4-7.2-4-8.8c-0.6-1.6-5-9.4-4.6-11c0.2-1.6,1.2-10.6,1.2-10.6s3-3,3.4-4.4
		c0.6-1.4,10.4-7.2,10.4-7.2l7.6-8.4l8.2-10.6l12-13.2c0,0,6.8-6.6,6.6-7.8c-0.2-1.4,6-11.6,6-11.6l5-11.8l4.6-3l10.4-2.8
		c0,0,4.4-3.8,5.6-4.6c1.4-0.8,7.2-11.2,7.4-12.8c0.2-1.6,3.4-9.4,3.4-10.4s0-6.2,0-6.2l8.8-13.4l21.4-4.6l19.8-4.4l10-0.8l21.2-5.6
		l11-3l15-1.6c0,0,15.8-6.2,18-7.2c2.2-0.8,11-4,11-4l6.6-6.2c0,0,15.8-11.6,16.8-13.6c0.8-2.2,10.6-11.8,10.6-11.8
		s0.6-12.8,0.6-14.2s-1.6-13.2-1.6-13.2s1.8-6.2,2.2-7.2s3.4-2.8,3.8-3.8c0.2-0.8,5-4.6,5-4.6l5-1.8l5.2-3.8l2.4-5.2l1.4-14l0.6-9.6
		l-0.6-7.2l2.8-10l6-12.4l3-8.2l2.8-6.8l1.4-5.6l-11.6-3.8"/>
	<g style="display:inline;">
		<polygon style="fill:none;stroke:#FFFFFF;stroke-width:4;stroke-miterlimit:10;" points="2487.4,74.5 2469.4,97.7 2416.4,130.7 
			2411.2,144.1 2422.8,143.1 2433.2,153.3 2447.4,153.3 2478.2,150.1 2506.2,147.5 2543.8,144.9 2562.4,141.1 2569.8,133.1 
			2579.2,137.3 2611.8,136.7 2606.4,126.5 		"/>
		<polyline style="fill:none;stroke:#FFFFFF;stroke-width:4;stroke-miterlimit:10;" points="2569.8,133.1 2509,106.1 2477.8,108.9 
			2422.8,143.1 		"/>
		<polyline style="fill:none;stroke:#FFFFFF;stroke-width:4;stroke-miterlimit:10;" points="2450.8,125.7 2454.4,129.3 
			2533.6,122.5 2536.2,118.1 		"/>
	</g>
	<path style="display:inline;fill:#FFFFFF;" d="M2753.8,169.5l11.4,4.6l-13.6,11l-63,1.8l-12.8-1.8l-27-13.4l-121.4,8.2l-44.8,2.2
		c0,0-21.8,1.6-37,12.8c0,0-35.8,28-14.2,80.8c0,0,18,36.4,23.4,44.8c0,0,4.2,9.6-6,4.4l-10.2-6.8l-3.4-3h-3.6l-2.8,2.4
		c0,0-0.8,18,10,28l13.4,11.2l11.2,8.8l29.4,19l44.2,28l9.6,9l10.4,10l15.2,15l14,14.2c0,0,5.6,3.4,4,9.6l-8.8,42.6l-10.4,9
		l-10.6,8.4c0,0-22.8,28-24,37c0,0,12.2-30.4,21-37.2l20.8-17.4l10.6-41.4c0,0-4-10-13.4-17.2l-27.4-27.8l-28.6-23l-26.8-15
		l-24.2-14l-19.6-12l-15.2-11.6c0,0-10.6-8.4-13.4-16.4v-19v-8.8c0,0,0.8-6.6,0-7.4c-0.8-0.8,1.8-11.2,1.8-11.2l-2-10l-4.2-10
		l-1.8-21.4v-14.2l2.2-17.2c0,0,15.2-30.2,34.8-36.2l19-3.8l11.8-1.6l9-0.6l1.8-3.4l3-4.4l41-3c0,0,40.4-4,42.2-4.2
		c1.6-0.2,25.8-3,27.4-3c1.6,0,20.2-1.6,20.6-1.6c0.6,0,12,3,12,3l10,5.8l10.2,5.4l12,5.6l14.8,5l10,1.8l26.8-0.2l18-0.2l5-2.4
		L2753.8,169.5z"/>
	<path style="display:inline;fill:#FFFFFF;" d="M4073.4,94.5l-4,2.4v4.4v6.2l2,3.4l2.8,2.4l3,1h4h3l2.8-2.4l4.6-2.8l3.4-1.8l4-0.4
		l3.4,1l3,1l3.4,1l4.6,0.6c0,0,1.8-1.4,2-2.4s1-2.8,1.4-3.8s2-3.8,2-3.8l3-1.4l3-0.2l2.8-0.2l2.4,1.4l2,2.4c0,0,1.6,1.6,2.4,1.8
		c0.8,0.2,2.4,0,2.4,0l1.6-1c0,0-0.4,0,1-0.6c1.4-0.6,3.4-2.4,3.4-2.4l2.4-0.8l2.8,0.4l2.4,2c0,0,1,0.2,1.4,2.4c0.4,2.4,3,7,3,7
		l3.4,3l5.2,1.6l7.2,2.8l8.2,4.2l4.8,4.8l2,2.8l1,2.4l2.4,2l8.4,6.4c0,0,1.4,3,2,4.2c0.8,1,6.8,7.4,6.8,7.4l2,3.8l1.4,6.2v9.6v6.8
		l-2,5.6v5.4v5.4l3.8,4.4l5.8,5l-4.8-7.8l-1.4-5.8l0.6-7.8l1.4-5.2l0.4-8.2l-0.2-9.2c0,0-1.6-4.2-2-5.2c-0.4-1-0.6-2.8-1.4-3.8
		s-3.8-5.4-3.8-5.4s-1.4-2-1.4-2.8s1-2,1-2l3.4-1.4l4.8-0.6l3.8-2.4l7.2-3l7.2-1.4l6.4,0.6l8.2,1l8.8,4.4l9.4,5.6l4.4,6l6.2,6.2
		l3.4,7l2.8,7.4v8.2l-1.8,8.8l-1.8,10.2l0.6,8.2l-0.2,11.8l0.2,6.8l1.8,5.2c0,0,0,3.4,1.4,5c1.4,1.4,9.2,6.2,9.2,6.2h6.2l4.8,1h5.2
		l4,1.6c0,0,3.4,0.4,5.8,0.8c2.4,0.4,7.2,3,7.2,3l6,4.2l5.4,4.8l5.4,5.2c0,0,5.2,4.4,6,5.2c0.8,0.8,8.4,7.4,8.4,7.4s5,4.8,5.6,5.4
		c0.6,0.6,5.2,4.6,6,5.6c0.8,1,3.8,4.2,4.8,4.8s8.2,4.6,9.6,5.6c1.4,1,6.2,4.4,7.2,4.4s7.4,4.2,7.4,4.2l7.2,1.6c0,0,7.2,0.4,8.8,0.8
		c1.4,0.4,15.8,4.4,18,12l0.8,6.2l1.4,7.4v7l1.4,0.8l1.4-1.4v-5.2v-7.8l1-4c0,0,0.4-0.6,1.8,1.4c1.4,1.8,4.8,3.4,4.8,3.4l3.4,1.6
		l5.2,2c0,0,4,1.4,4.4,1.8c0.4,0.6,5.4,4,5.4,4l4.8,3.4l6.8,4.4l2.8,3.4l3,2.8l-1.4,5.2c0,0,0.2,12.2,0.2,13.2
		c0,0.8,0.4,13.2,0.4,13.2s-0.8,11.8-0.8,12.8s-1.4,12.8-1.4,12.8s0.2,4.6,0.6,5.4c0.4,0.8,1.6,5.2,2.4,6.4c0.8,1.2,3.4,1.4,3.4,1.4
		s1.6-5.2,1.6-6.2s-1.4-11.2-1.4-12s-0.2-14.8-0.2-14.8s2.4-7.8,1.6-8.8c-0.6-1.4-0.4-3.8,0.2-8.4c0.6-4.8,0.8-8.8,0.8-8.8
		s2.4-6.8,2-7.4c-0.2-0.8-2.4-4.4-2.8-5s-2-3-3-4s-3.4-3-3.4-3s-3-1.8-3.8-2.8c-0.8-0.8-4-3-4.6-4c-0.6-1-2.4-1.6-3-2
		c-0.6-0.4-2.4-1-3-1.6c-0.6-0.6-3.8-3-4.4-3c-0.6,0-4.8-2.8-4.8-2.8s-1.8-0.4-3-0.8c-1-0.4-4.6-2.4-5.6-2.8s-2.4-0.8-3-1.8
		s-1.4-1.4-1.8-2.8c-0.6-1.4-2-1.6-3-3.4c-0.8-1.6-1.4-1.4-2.4-3.4c-1.4-2-2.4-3-2.4-3s-1.4-0.8-2.4-1c-0.8-0.2-4.2-1.4-4.2-1.4
		l2.2-4.8l1.8-3l2-3.4l2.4-1.8c0,0,1.4-0.4,1.8-0.6c0.4-0.2,2.4-0.6,2.8-0.6s4.6-1.4,4.6-1.4l3.4-0.6l2.2-0.6l-0.8-1.8
		c0,0-5,1-6.2,1.4c-0.8,0.2-2,0.4-3.4,1c-1.4,0.6-6,2-6,2l-4,1.8l-2,1.6l-7.2,5c0,0-1,0.2-2.4,0s-1.8-0.4-3-0.6
		c-1.4-0.2-6.8-0.2-7.8-1s-5-1.6-6.2-2.2c-1-0.6-5.2-2.2-6.2-3c-0.8-0.8-3.4-2.2-4-3c-0.6-0.8-7.2-4.2-7.2-4.2s-5-6.4-5.6-6.8
		s-1-5-7.2-6.2c-6.2-1.4-13.2-8.8-13.6-9c-0.4-0.2-8.4-6-8.4-6s-5.2-4-6-4.6c-0.6-0.8-6.4-3.2-8-4.6c-1.6-1.4-4-2.6-6.2-4
		s-10.6-3-11.8-3.4c-1.4-0.2-8.6-2.4-10.6-2.8c-2-0.2-8.2-2-8.8-2.8s-4.4-4.2-4.4-4.2l-5.4-9.6l-2.4-10.4l0.6-8.4c0,0,0.2-5,0.4-5.6
		s2.4-5.6,2.4-5.6l2-6l-1.6-15.2c0,0-5-11.6-5.8-13.2c-0.8-1.4-4-5.8-5-7c-1.2-1.4-6.4-6-6.6-6.8c-0.2-0.6-6.8-5.8-6.8-5.8
		s-12.6-8.8-23.8-11.2c0,0-13.6,2.8-14.2,2.4c-0.6-0.2-9.4,2.8-10.4,3s-10.4,3.4-10.4,3.4s-5.2,1.4-6.4,0.6s-5.6-3-6.4-3.8
		c-0.8-0.8-3.4-3-4-4.2c-0.8-1-4-4.8-4-5.6c-0.2-0.8-4.8-4-4.8-4l-5.4-2.6l-4-2l-7.6-2.8l-4.6-3l-1.8-5v-3l0.6-4.8l1.8-1.8l1.8-2.4
		c0,0,0.2-1-0.2-2.4c-0.2-1.4-0.4-1-1-2.4c-0.6-1.4-1.8-1.6-2.2-2.4s-2-1-2-1.8c0-0.6,0-1.4,0-2.8s0-3,0-3l1.4-1.8l-1.4-9.2l0.8-5
		l0.6-4.2l1.8-3l2.6-2.4l0.8-3.6l-2.4,0.8l-2.4,2.4l-1.8,1.8c0,0-1.8,2.2-2,3s0,2.6-0.8,3.4c-0.8,0.8-2.2,2-2.2,2l-4-0.6
		c0,0-0.6-2-0.8-2.6c-0.2-0.6-1-1.6-1-1.6s-1.8,0.8-3.6,1.6c-1.8,0.8-8,3-8,3s-2,1.4-3.2,2.4c-1.4,1-3.6,2.2-5.4,3.4
		c-1.8,1.4-4.8,2.6-5.8,3.2s-5.2,2.8-5.2,2.8s-0.8,2.4-1.8,3c-0.8,0.8-0.8,1-2.4,2.8c-1.6,1.8-0.2,2.6-3,3c-2.8,0.2-5.4,0.2-5.4,0.2
		l-3.8,1.4l-2.4,0.6l-2.8,1.8l-3.2,1.8l-2.8,2.2l-3,1.4l-3.6,0.8L4073.4,94.5z"/>
	<g style="display:inline;">
		<polygon style="fill:none;stroke:#FFFFFF;stroke-width:4;stroke-miterlimit:10;" points="2771.4,263.9 2734,240.9 2708.4,248.3 
			2710.4,286.5 2716,293.3 2744,290.1 		"/>
		<path style="fill:none;stroke:#FFFFFF;stroke-width:4;stroke-miterlimit:10;" d="M2771.4,263.9l20-2.4l86-8.8l43.6-1.8l29.8,4.4
			l40,16.8c0,0,48.6,24.4,42.4,102.2l6.2,143.2l29.8,32.4l10.6,18.6l8.2,58l1.4,21.2l-8.2,8.2"/>
	</g>
	<path style="display:inline;fill:#FFFFFF;" d="M3421.6,243.9v-2.8h3.8l3,1.4c0,0,1.4-0.8,1.6,1.4c0.2,2.2,2.2,7.2,2.2,7.2v7.2
		l-1.6,5.6l-0.6,5.6c0,0-3.4,2.4-3,3.4c0.2,0.8,0,4,0,4v10.4l-2.4,6.6v4.4c0,0,0.6,4,0.8,5c0.2,0.8,1.6,6,1.6,6l7.4,7.8
		c0,0,3.4,3.4,5,5s7.4,6.6,7.4,6.6l4.4,4.6l4.6,5l2.8,4v8.4l-2.8,15.2l-1.4,8.8l-1.4,9.4l-2.8,15.2l-3.4,11.2l-5,9.8l-4.6,12.8
		l-5.6,11.4l-4.4,8.2l-2.4,5.2l1.8,21l0.4,3.4l0.4,5.2l1.6,8.4l1.4,6.8l4.4,4.8l5.2,5l1.6,2.4l2.4,2.4l1.4,2.4l-3,5.6l-3.8,8.4
		l-10,12.6l-4.4,5l-9,10.6c0,0-9.4,7-9.4,8.2c0,1-4.8,7.8-4.8,7.8l-3,6.8l-3,8.8l-5.4,9.6l-10.6,26l-5.2,12.6l-4.8,11.2l-3,3
		l-6.2,1.4l-9.2,1.4l-8.8,3l-7,1.8l-6,2.8l-6.8,3l-31.8,18l-12.2,9.4l-8.2,5.8c0,0-7.8,4.4-8.2,5.2s-7.2,6.2-7.2,6.2l-4,3.4
		l-3.4,1.8h-7.2l-7.4-2.8l-5.2-1.4l-6-1.6l-6.6-1.6l-9.8-1.2l-11.6,1c0,0-16,3-23.4,5.4l-11.4-1.4l-7.8-1.4l-8.8-0.8l-9.2-1.4h-8.4
		l-1.8,1.4l-2.4,6.8v6.4c0,0-0.2,3.8,0,6s-0.4,9.8-0.2,10.6c0.2,0.8-0.8,5-1.2,5.6c-0.2,0.6-1.6,3.4-2,5.2c-0.4,1.8-1.4,5.8-1.4,6.8
		s-2,6-1.4,7.8c0.6,1.6,0.8,5,0.8,5l1.4,3l1.4,6l2.4,10.4l1.8,5.2l-0.6,6.8l-2.4,7.8l-3,9.4l-2.2,5.8v6.8l-0.8,8.8l1.4,7.4l2.8,7
		l4,12.6l2.4,4.4l3.4,5.4l2.8,5.2l1.6,3l1.6,4.8l1,4.2l0.6,8.2l2.4,30.8l-0.6,9.4l0.4,6l-0.8,4.6c0,0-2.4,3.4-3,4.8s-4.4,7-4.4,7
		l-4,4.8l-10.6,14.6l-1,1.6l-3.6,1.8l-1.6-1.8l1.6-2.4l3.8-4.6l2.4-3l2.4-2.8l3-3l2.8-3.4l3-5.2l1.6-1.8l1.4-2.8l1.4-5.6l-0.8-9.4
		l0.4-6.2l-1-7.8l-1.4-7.4l-1.8-9.6l-2.4-9.4c0,0-2.4-2.4-2.4-4c0-1.4-2.8-10.4-2.8-10.4s-1.6-5.8-1.8-6.4s-2.4-6.8-2.4-6.8
		s-1.8-5.2-2-6.4c-0.2-1.4-3.2-10.4-3.2-10.4l-1.2-7.6c0,0,2.4-7.8-11.6,0.6l-9.4,3.8l-5,2.8l-6,3.8l-3,4.4l-6.2,8.4l-4,6.8
		l-6.4,9.8l-5.8,8.8l-8.6,8.8l-2.8,7.4l-1.6,6.8c0,0-3,4.8-3,6c-0.2,1.4-3,7-3,7l-3,5l-2.4,4.4l-2.4,3.4v7.8l-1.4,12.8v10.8
		l-2.4,5.4l-4.6,2.4l1-6l1-10l-0.8-6l1-10.4c0,0,1-8.8,1.4-10c0.2-1.4,3-11.4,3-11.4s2.4-2.4,3.4-5c1-2.4,3-7.2,3-7.2l4-4.8l2-5.4
		c0,0,4.4-4,4.6-4.6c0.2-0.6,3-4.8,3.8-6c0.6-1.4,8.4-9.6,8.4-9.6l9.2-13.6l3-6.8c0,0,1.4-1.4,2.8-4c1.4-2.8,3-3.8,3.8-5
		c0.8-1.4,2.4-4.6,3.8-5s6.2-3.4,6.2-3.4l13.2-7.2c0,0,5.6-5.2,6.2-5.6s5.4-3.4,6-4s4.6-10.6,4.6-10.6l2.2-15.6
		c0,0,1.8-15.2,1.8-16.2s-0.8-5.6-1.4-7.8c-0.4-2-3-11.6-4.6-13.8c-1.4-2.2-1.4-0.8-1.6-3.4c-0.4-2.8,1.4-13.6,1.4-14.2
		c0-0.8,2-20.6,2-20.6l1.2-18.6c0,0-1-6-1.2-6.8s-0.8-7.4-1.2-9.6c-0.4-2-2-8.4-2-8.4s-3-11.8-3-13.2s-1.6-11.4-1.6-11.4l-1.4-6.2
		l-1.4-11.6l1.8-8.4c0,0,2.4-3.8,3-4.6c0.6-0.8,6.8-10.4,6.8-10.4l5.6-5l9.6-6.2l4.4-2.8l7.8-5.2l4.6-3.8l3.4-1.4l2-2.4l1.6-1.4
		l4.2-0.6l6.4,0.6l5.4-0.4l6.8,0.4l2.6-1l1.8-1.4l1.8-3.8l2.4-0.8l7,2c0,0,4,1,5,1s4.8,0,4.8,0l4.8-0.6l4.6-3l5-3.4l4.6-2.4l6.8-1.4
		l7.2-0.4l5.8-2.4l4.2-2.8l3-4.6l4-9.4c0,0-0.6,0.2,2-1.8c2.8-2,7.4-5.4,8.2-5.8c0.6-0.4,4.8-5.6,6.2-7.2c1.4-1.8,6.8-6.4,6.8-6.4
		s1.4-3.8,2.8-5.6c1.4-1.8,5-6.4,5-6.4s5-8.4,5-8.8s3.4-7.2,3.4-7.2l3-4.2l2.4-5.2l3.4-4.4l1.8-2.8c0,0,2.4-2.4,5-2.4
		s19.6-2.4,19.6-2.4l14.2-3.4l7.8-3c0,0,7.8-3.8,8.8-4c0.8-0.4,2-1.6,3.4-2.4c1.4-0.8,5.8-3.4,5.8-3.4l8.2-0.8c0,0,5,1.6,6.8,1.6
		c1.6,0,6.8-0.2,6.8-0.2s1.4-1,2-1.8c0.8-0.8,3-3.4,3-3.4l4.6-0.4c0,0,3.4-0.4,4-0.4s8.4-2.4,8.4-2.4l3-1.6l7.8-11l8.2-15.2
		c0,0,3.8-10.6,4-11.4c0.2-0.8,4.4-10.2,4.4-10.2l4.8-9.8l2.4-9.2l3.8-18l3.4-9.4l2.4-11.8c0,0,1.8-7.2,1.8-8.4s0.6-7.2,0.6-7.8
		s-1.8-4.4-2.8-6c-0.8-1.6-3-5.2-3.8-6c-0.6-0.8-3.4-4-3.4-4l-5.6-7.2l-5.4-5.2l-7-7.2l-2.4-5.2l-1-9.4c0,0,0.6-4.2,0.8-5.6
		c0.2-1.4,1-6,1-6s-1-3.4-1-4.4c0-0.8,1-6.4,1-6.4l2-8.4l-0.6-5.6c0,0-0.4-4-0.6-5.4s-0.2-3-0.4-4c-0.2-0.8-1.4-3-1.4-3
		L3421.6,243.9z M3420.6,458.9c0,0-0.8,0.2-2,0.8c-1.4,0.8-0.8,1.4-1.4,1.8c-0.8,0.6-2.6,3-3,3.4c-0.2,0.6-1.4,1.4-1.6,2.4
		c-0.2,0.8-1.8,1.8-2.4,2.6c-0.6,0.8-2.4,2.4-4,4s0,0-1.4,0.8s-3.6,1.8-4.2,2.4c-0.6,0.6-2.8,1.4-4,1.8c-1.2,0.4-3,1.8-3,1.8
		s-3,1.6-8.4,2.6c-5.2,1-2.6,0.8-2.6,0.8s-2.8-0.6-3.2-0.8s-4.8-1.8-4.8-1.8s-5.2-1.4-7-2s-3.4,0.6-5.2,1.4
		c-1.8,0.8-2.2,1.8-3.4,2.6c-1.4,0.8-5.2,2.4-6.2,2.6c-0.8,0.2-3.6,1.8-5.6,2.6c-2,0.8-6.2,1.6-6.8,1.8c-0.6,0.2-6.2,1.8-6.2,1.8
		l-8.2,2l-7.2,1.6l-4.8,1.4c0,0-8.4,1-10.4,1.4c-1.8,0.2-4,1.4-4.4,1.6s-4,5.4-4.2,6.2c-0.2,0.6-3.2,6.6-3.2,6.6l-2.4,6.2l-2,6
		l-3,6.2l-2.8,6.8c0,0-7.4,11-7.8,11.6c-0.2,0.4-5,7.2-5,8s-1.6,5-1.6,5s-9.4,8.8-10,10c-0.8,1.4-5.2,2.4-6.8,3
		c-1.4,0.6-5.2,3.8-5.2,3.8l-8,3.6c0,0-4.6,2.8-5,3.4s-4.2,3.2-4.2,3.2s-10.8,5-12,6.2c-1.2,1-8.4,2.4-8.4,2.4s-9.6,0.4-11.8,0.6
		s-7,1-8.4,1.4c-1.4,0.2-10,1.4-10,1.4l-10.6,2.2l-6.6-0.8l-9.4,2.2c0,0-10.6,2.6-11.6,3s-4.6,2.8-4.6,2.8l-6.8,6.6c0,0-2.4,3-3,4.4
		s-1.8,3.8-1.8,3.8l-5.6,3.8c0,0-3,2.8-3.2,3.8c-0.2,0.8-3,6.8-3.2,7.8s-3,6.8-3.6,7.4c-0.8,0.8,0,10.8,0,10.8s0.2,8.6,0.8,9.4
		s2.4,5,3,6.2s4.8,8.6,4.8,8.6s3,8.2,3.4,9c0.2,0.8,6.8,6.8,7.2,7.2s10.4,4,10.4,4l12,3l15.4,1l11-2.4l6.8-4.6l5.4-2.8
		c0,0,4-2.4,4.6-2.4s5.4,0,5.4,0s1.4,1.4,2.2,2.4s3.4,0.8,3.4,0.8l3-2l7-1.8l3.6,1l2.4,2.2l3.8,2.2l5,3l6.6,2.2l4.2,2.4l7.2,1.8h6.4
		l3.8-2l6.2-4.6l6.6-3.8l9-6.8l9.2-5.8l7-5.8l13.6-9.4l5-3c0,0,6.8-5,8.8-5.8s8-2.2,8-2.2l9.2-1.8l8.8-1.8l7.2-1.8l3.6-4.6l4.4-5
		l6.2-10.4l5-8.8c0,0,5-15.8,5.2-16.4s1.4-3.6,1.6-4.2s1.4-4,1.4-4s-6.2,1.8-6.8,1.8s-3.6,1-4.6,1.4s-3,1-3,1s-3.6,1-4.4,1.4
		c-0.8,0.4-3.8,0-3.8,0l4-2l6.2-2l5.4-2.8l2.4-2.2c0,0,1.4-2.6,0.8-3c-0.4-0.4,0-3.8,0-3.8l3.4-6.8c0,0,5-6.8,5.8-7.4
		c0.8-0.8,5.6-3.6,5.6-3.6l7.2-6.2l8.4-10.4l3.6-3l4.6-6.4l8.8-6.4l3.8-7.2l0.8-5v-6.6c0,0-1-4.8-1-5.6c0-0.8,0-6,0-6l-2-6.4
		c0,0-1.4-11.6-1.6-12.4c-0.2-0.8-0.8-4.6-0.8-4.6v-5l-0.8-7.4l-0.8-4.8l-0.8-5.2l-1.4-4.6L3420.6,458.9z"/>
	<g style="display:inline;">
		<path style="fill:#FFFFFF;" d="M3001.2,490.7l22.8,19l2.4,2l0.8,8.4v4l-3.4,5.2l-2,5.6l-3,8.2v8.4c0,0,1,2,1.8,8.2
			c0.8,6,2.4,8.8,2.4,8.8l1,5.2l0.4,7.8l0.8,7.2l-3,5l-11.4,4.4h-3.2h-1.4v-3l-1.4-1c0,0-2.4,0.4-4,1.4s-8.8,4.6-8.8,4.6l-1.6,1.8
			l-4.4-6.2l-5.2-4.4l-3-0.8l-9.2-0.2h-2.4v-2.8l5-1.6l9.4-0.6l3.4-3l5.4-2.8l7-4.8l5.8-5.8l5-4.6l5.2-2.8l2.8-3v-2.4v-10l-1.2-6
			c0,0,0.6-2,1.2-3c0.6-1,1.4-1.8,2.2-3.4c0.8-1.4,2.8-6.2,2.8-6.2s3-5.2,3-6.2s0.8-3.4,0.8-5.6s-3.4-7.2-3.4-7.2l-2.8-1.4l-2.6-0.4
			l-4,0.8c0,0,0-4.2-0.4-4.8c-0.4-0.6-1.4-2-1.4-2h-2.2l-6.2-1.4c0,0,0-0.2-0.6-1.4c-0.6-1-1.4-3.4-1.4-3.4v-2.4L3001.2,490.7z"/>
		<path style="fill:#FFFFFF;" d="M3028.8,563.7l0.8,7.8l2,1.8l2.8-1.4l5.6-1.4l1.6-2.2l2.4-3.6c0,0-0.6-4,0-4.8s0-0.8,0-0.8
			l-6.4,1.4c0,0,0.2,0-1.2,0.8s-1.6,1.4-2.2,1.4s-3.4,0.2-3.4,0.2L3028.8,563.7z"/>
	</g>
	<circle style="display:inline;fill:none;stroke:#FFFFFF;stroke-width:4;stroke-miterlimit:10;" cx="2317.8" cy="-51.9" r="6.4"/>
	<polyline style="display:inline;fill:none;stroke:#FFFFFF;stroke-width:4;stroke-miterlimit:10;" points="3435.8,246.3 
		3436.6,256.3 3429.6,282.5 3430.8,327.9 3405.4,417.7 3418.4,480.5 3482.6,496.7 3635.8,456.3 3672,430.7 3691.8,419.5 
		3711.2,396.9 3755.2,393.3 3871.6,347.1 3884.4,345.5 3910.6,345.1 3940.8,352.7 4009.4,353.9 	"/>
	<path style="display:inline;fill:none;stroke:#FFFFFF;stroke-width:4;stroke-miterlimit:10;" d="M3634,305.1
		c-23.4-4.6-47.2-8.4-70.8-11.6c-12-1.8-24.2-3.4-36.2-4.8c-10.2-1.4-25-0.4-33.6-6.4c-3.2-2.2-6.2-4.8-9.6-6.4
		c-6.2-2.8-13-1.4-19.4,0.2c-7.2,1.8-12,2.6-19.6,2c-48.6-4-95.6-13.4-143-24.4c-13.2-3-28.2-0.6-41.8-0.6
		c-15.2,0-30.4-0.2-45.4-0.8c-30.4-1-60.6-2.8-91-4.4c-83.6-4.6-198.2-16.8-273.8-52.8"/>
	<g style="display:inline;">
		<polyline style="fill:none;stroke:#FFFFFF;stroke-width:4;stroke-miterlimit:10;" points="3417.4,480.3 3394.2,528.9 3390,545.7 
			3370.8,572.3 3333.2,615.3 3316,634.7 3305.2,654.1 3296,686.5 3291.6,720.7 3287.8,744.3 3281,756.7 3240.4,791.1 		"/>
		<circle style="fill:none;stroke:#FFFFFF;stroke-width:4;stroke-miterlimit:10;" cx="3237.2" cy="794.3" r="3"/>
		<circle style="fill:none;stroke:#FFFFFF;stroke-width:4;stroke-miterlimit:10;" cx="3150.4" cy="938.1" r="3"/>
		<polyline style="fill:none;stroke:#FFFFFF;stroke-width:4;stroke-miterlimit:10;" points="3234,796.9 3167.4,887.1 3152,933.3 		
			"/>
		<polyline style="fill:none;stroke:#FFFFFF;stroke-width:4;stroke-miterlimit:10;" points="3150.4,934.9 3146,880.1 3148.8,846.1 
			3155.8,811.5 3228.6,740.1 3271.6,702.5 3291.6,720.7 		"/>
	</g>
	<g style="display:inline;">
		<g>
			<g>
				<path style="fill:none;stroke:#FFFFFF;stroke-width:4;stroke-linecap:round;stroke-miterlimit:10;" d="M4173.8,45.1
					c0,0,3-2.4,6.8-5.4s6.8-8.8,6.8-12.8s-2.4-9.4-5.4-11.8s-3-6.6,0-9.2s6.4-3.4,7.8-1.4c1.4,1.8,5,3,8.2,2.4
					c3.2-0.6,8.4,1.2,11.6,3.8s9.6,5,14.2,5.4s10.8-0.8,13.6-2.8s6.4-4.8,7.8-6.8c1.4-1.8,7-0.8,12.6,2.4c5.6,3.2,12,5.8,14.2,5.8
					s6.4-0.4,9.8-0.8c3.4-0.4,7-2.4,8.2-4.4c1.2-1.8,1.2-5.2,0.2-7.4s-4.4-8.2-7.4-13.2s-12-9.4-20.2-9.4h-6.2
					c-8-0.2-14.6-3.4-14.6-7.2s-2.8-6.8-6-6.4c-3.4,0.2-4.6-1.4-3-3.4c1.6-2.4,3.4-7.8,4.4-12.2c0.8-4.6,4.6-10.8,8.4-13.8
					c3.8-3.2,11.6-6.8,17.2-7.8c5.6-1.2,13.6,0.8,18,4.6c4,3.6,10,12.6,13.4,20l9.4,21.6"/>
			</g>
			<g>
				<path style="fill:none;stroke:#FFFFFF;stroke-width:4;stroke-linecap:round;stroke-miterlimit:10;" d="M4242.4,70.9
					c0,0,1.8-4.6,3.8-10.2s10.2-9.6,18.2-8.8l17,1.6c8,0.8,16.8,0.4,19.6-0.8s8.4-2.4,12.2-2.8c4-0.2,4.4-6.6,1.2-14l-35.2-78.8
					c-3.2-7.2-11.4-9.8-18-5.2l-19.8,13.2"/>
			</g>
			<g>
				<path style="fill:none;stroke:#FFFFFF;stroke-width:4;stroke-linecap:round;stroke-miterlimit:10;" d="M4194,51.1
					c0,0,0.8-2.2,1.8-5c0.8-2.8,4.8-4.8,8.8-4.6c3.8,0.2,9.4-1,12.6-2.4c3-1.6,10-5.6,15.2-9c5.2-3.4,9.4-6.2,9.4-6.2"/>
			</g>
			<g>
				<path style="fill:none;stroke:#FFFFFF;stroke-width:4;stroke-linecap:round;stroke-miterlimit:10;" d="M4211.6,41.9
					c0,0,1.2,2.2,2.4,4.8c1.4,2.6,0.8,6.4-1.4,8.4c-2.2,1.8-3.8,4.6-3.8,6.2c0.2,1.6,5.2,1.6,11.4,0.2c6.2-1.4,11.6-0.2,12,2.8
					c0.4,3,0.8,5.4,0.8,5.4"/>
			</g>
		</g>
	</g>
	<path style="display:inline;fill:#FFFFFF;" d="M4206,114.9l-1,4l0.8,2.8l3.4,0.8l3.8-0.4l5.8-1.8l0.8-2.4l-0.2-3l-2.8-1.4l-2.4,1.6
		c0,0-2.8,0-3.4,0C4210.4,114.7,4206,114.9,4206,114.9z"/>
	<polyline style="display:inline;fill:none;stroke:#FFFFFF;stroke-width:4;stroke-linecap:round;stroke-miterlimit:10;" points="
		2390.6,427.1 2405.4,451.7 2430,456.3 2467.8,455.9 2499.8,452.5 2526,454.5 2561.2,460.7 2576.6,459.9 2572.4,442.5 2568.4,425.5 
			"/>
	
		<line style="display:inline;fill:none;stroke:#FFFFFF;stroke-width:10;stroke-linecap:round;stroke-miterlimit:10;" x1="2503.4" y1="420.9" x2="2427.4" y2="434.9"/>
	
		<line style="display:inline;fill:none;stroke:#FFFFFF;stroke-width:10;stroke-linecap:round;stroke-miterlimit:10;" x1="2420.2" y1="427.5" x2="2414" y2="331.5"/>
	<polyline style="display:inline;fill:none;stroke:#FFFFFF;stroke-width:4;stroke-linecap:round;stroke-miterlimit:10;" points="
		2418.8,440.3 2424,476.9 2434.2,518.1 2429.6,543.3 2409,569.9 2396.4,559.9 	"/>
	<g style="display:inline;">
		<polyline style="fill:none;stroke:#FFFFFF;stroke-width:4;stroke-linecap:round;stroke-miterlimit:10;" points="2573,445.1 
			2578,461.3 2608.4,484.9 2630.8,517.3 2652.6,525.5 2693.2,521.1 2752.4,486.9 		"/>
		
			<circle style="fill:none;stroke:#FFFFFF;stroke-width:4;stroke-linecap:round;stroke-miterlimit:10;" cx="2757.8" cy="484.7" r="5.6"/>
		
			<circle style="fill:none;stroke:#FFFFFF;stroke-width:4;stroke-linecap:round;stroke-miterlimit:10;" cx="2720.8" cy="666.5" r="5.6"/>
		
			<circle style="fill:none;stroke:#FFFFFF;stroke-width:4;stroke-linecap:round;stroke-miterlimit:10;" cx="2726" cy="688.1" r="5.6"/>
		
			<circle style="fill:none;stroke:#FFFFFF;stroke-width:4;stroke-linecap:round;stroke-miterlimit:10;" cx="2732.4" cy="660.3" r="5.6"/>
		
			<ellipse style="fill:none;stroke:#FFFFFF;stroke-width:4;stroke-linecap:round;stroke-miterlimit:10;" cx="2737" cy="679.7" rx="5.6" ry="5.6"/>
		<polyline style="fill:none;stroke:#FFFFFF;stroke-width:4;stroke-linecap:round;stroke-miterlimit:10;" points="2755,479.3 
			2739,453.7 2722.8,428.9 2723.4,422.1 2727.4,387.9 		"/>
		<polyline style="fill:none;stroke:#FFFFFF;stroke-width:4;stroke-linecap:round;stroke-miterlimit:10;" points="2749.6,469.3 
			2750.4,444.1 2757.8,428.3 2759.4,414.5 2765.2,380.1 		"/>
		<path style="fill:none;stroke:#FFFFFF;stroke-width:4;stroke-linecap:round;stroke-miterlimit:10;" d="M2760,490.3l8.4,23
			l-2.2,22.4l-44.2,66.2c0,0-9.4,15.2-3.8,38l36.4,115"/>
		<path style="fill:none;stroke:#FFFFFF;stroke-width:4;stroke-linecap:round;stroke-miterlimit:10;" d="M2719,641.7
			c0,0,9.6,15,37.6,20l0.8,3.4c0,0-22.6,11.6-17.4,41.6c0,0-18-21.2-39.6-19C2700.4,687.5,2721.2,669.9,2719,641.7z"/>
	</g>
	<path style="display:inline;fill:none;stroke:#FFFFFF;stroke-width:4;stroke-miterlimit:10;" d="M2764,481.1l18-5.8l157-13.4
		l85.8-14.6l186.2-1.2l160,4l75.4,2.4l21,12.8l88.2-6.4l4-20.4l23.8-22.2l59.2-52.8c0,0,56.6-0.8,60.6-1.4s19.8-3.4,19.8-3.4
		l20.4-13.4l47.2,1.8c0,0,29.2,13.4,27.4,32.6l-1.2,21.6l-0.6,28.6l8.2,16.4"/>
	<polyline style="display:inline;fill:none;stroke:#FFFFFF;stroke-width:4;stroke-miterlimit:10;" points="3080.2,330.7 
		3040.8,297.1 2989.2,271.3 	"/>
	<path style="display:inline;fill:none;stroke:#FFFFFF;stroke-width:4;stroke-miterlimit:10;" d="M3076.6,330.5c0,0-37.2,6-43.6,40"
		/>
	<circle style="display:inline;fill:none;stroke:#FFFFFF;stroke-width:10;stroke-miterlimit:10;" cx="2420.2" cy="433.9" r="6.2"/>
	<polyline style="display:inline;fill:none;stroke:#FFFFFF;stroke-width:4;stroke-miterlimit:10;" points="4012,345.3 3988.2,335.7 
		3976.2,304.7 3967.6,286.7 3936.4,286.7 3892.8,291.3 3874.2,288.1 3852.4,263.3 3861.2,230.1 3878.6,213.5 3922.2,196.9 
		3948.4,196.9 3961.8,191.5 3965.4,196.9 	"/>
	<polyline style="display:inline;fill:none;stroke:#FFFFFF;stroke-width:4;stroke-miterlimit:10;" points="3718.8,295.5 3720,285.9 
		3721.4,272.5 3725.4,269.7 3755,268.3 3770.8,263.3 3810.6,262.1 3880.8,260.9 3901.6,260.9 	"/>
	<polyline style="display:inline;fill:none;stroke:#FFFFFF;stroke-width:4;stroke-miterlimit:10;" points="3722,271.9 3740.4,287.3 
		3747.8,294.7 	"/>
	<polyline style="display:inline;fill:none;stroke:#FFFFFF;stroke-width:4;stroke-linecap:round;stroke-miterlimit:10;" points="
		3721.4,272.5 3703.2,284.5 3644.2,286.5 3627.6,297.3 3554.2,292.3 	"/>
	<polyline style="display:inline;fill:none;stroke:#FFFFFF;stroke-width:4;stroke-miterlimit:10;" points="4598,373.5 4627.2,402.1 
		4650.4,403.3 4652.8,352.3 4647.2,340.5 4643.4,303.7 4630.4,306.9 	"/>
	<polyline style="display:inline;fill:none;stroke:#FFFFFF;stroke-width:4;stroke-miterlimit:10;" points="4672.8,227.9 
		4640.6,226.9 4619.6,237.9 4586.8,233.3 	"/>
	<polyline style="display:inline;fill:none;stroke:#FFFFFF;stroke-width:4;stroke-miterlimit:10;" points="4644,304.7 4614,271.5 
		4604.4,255.7 4603.2,241.5 4602.8,227.5 4605.8,210.3 4607.4,190.1 4622.4,178.9 4629.8,173.7 4641.8,161.9 4667.6,160.9 	"/>
	<path style="display:inline;fill:none;stroke:#FFFFFF;stroke-width:4;stroke-miterlimit:10;" d="M4440.6,256.7h-52.2v-51.4
		l44.8-70.6c0,0,30.8-18.2,15.8-40l-24,10.8"/>
	<polyline style="display:inline;fill:none;stroke:#FFFFFF;stroke-width:4;stroke-linecap:round;stroke-miterlimit:10;" points="
		4258.6,117.1 4257.2,93.5 4238,72.9 4207.4,71.1 4188.8,52.5 4181.4,57.9 4170.8,57.5 4167.6,48.1 4157,48.7 4080.4,94.9 
		4023.8,124.7 3983.8,140.3 3908.6,173.7 3853.4,192.3 	"/>
	<g style="display:inline;">
		<polyline style="fill:none;stroke:#FFFFFF;stroke-width:4;stroke-linecap:round;stroke-miterlimit:10;" points="3421.6,356.3 
			3355.6,336.3 3319.4,330.9 3274,314.7 3244.6,303.5 3204.8,302.1 3170.6,312.7 3151.8,319.7 		"/>
		<polyline style="fill:none;stroke:#FFFFFF;stroke-width:4;stroke-linecap:round;stroke-miterlimit:10;" points="3426.4,335.7 
			3366.4,311.7 3347.6,318.7 3322.8,315.9 3317.8,331.3 		"/>
		<polyline style="fill:none;stroke:#FFFFFF;stroke-width:4;stroke-linecap:round;stroke-miterlimit:10;" points="3373.4,268.5 
			3362.6,300.5 3366.4,311.7 		"/>
		
			<line style="fill:none;stroke:#FFFFFF;stroke-width:4;stroke-linecap:round;stroke-miterlimit:10;" x1="3327.8" y1="259.7" x2="3303.2" y2="325.1"/>
		<polyline style="fill:none;stroke:#FFFFFF;stroke-width:4;stroke-linecap:round;stroke-miterlimit:10;" points="3277.4,252.7 
			3279.6,283.5 3287.8,307.5 3275.4,315.9 3271.6,358.5 		"/>
		<polyline style="fill:none;stroke:#FFFFFF;stroke-width:4;stroke-linecap:round;stroke-miterlimit:10;" points="3142,248.9 
			3145,291.3 3153.4,324.5 3153.4,339.5 		"/>
	</g>
	
		<line style="display:inline;fill:none;stroke:#FFFFFF;stroke-width:4;stroke-miterlimit:10;" x1="4643.4" y1="303.7" x2="4698.6" y2="290.5"/>
	<polyline style="display:inline;fill:none;stroke:#FFFFFF;stroke-width:4;stroke-miterlimit:10;" points="3172.2,447.7 
		3173.2,496.3 3115,495.9 3089.6,543.9 3072.6,555.1 	"/>
	<g style="display:inline;">
		<polyline style="fill:none;stroke:#FFFFFF;stroke-width:4;stroke-linecap:round;stroke-miterlimit:10;" points="2357.6,156.5 
			2319.8,174.9 2284,163.9 2245.6,152.1 2043.8,134.1 2075,233.5 2076,328.3 2054.4,361.1 2052.8,393.1 		"/>
		<path style="fill:none;stroke:#FFFFFF;stroke-width:4;stroke-linecap:round;stroke-miterlimit:10;" d="M2331.4,407.5v-33.6l-24-77
			l-27.8-57.4c0,0-19.6-32.4-9.4-53l13.8-22.8"/>
		<polyline style="fill:none;stroke:#FFFFFF;stroke-width:4;stroke-linecap:round;stroke-miterlimit:10;" points="2075,280.3 
			2090.6,278.7 2121.8,255.3 2151.4,245.1 2187,214.5 2269,214.1 		"/>
	</g>
	<polyline style="display:inline;fill:none;stroke:#FFFFFF;stroke-width:4;stroke-linecap:round;stroke-miterlimit:10;" points="
		3516,401.1 3520.4,360.1 3518.2,342.9 	"/>
	<polyline style="display:inline;fill:none;stroke:#FFFFFF;stroke-width:4;stroke-miterlimit:10;" points="4672.8,205.5 
		4740.4,161.3 4771.2,145.1 4779.6,116.7 4792.2,117.1 4825.2,102.5 4846,86.1 4869.8,97.1 4887.4,101.1 4917.6,100.7 4931.6,110.3 
		4944.2,138.3 4950.6,128.3 4974.8,123.7 	"/>
	
		<line style="display:inline;fill:none;stroke:#FFFFFF;stroke-width:4;stroke-linecap:round;stroke-miterlimit:10;" x1="3568.2" y1="409.3" x2="3517.4" y2="390.9"/>
	<g style="display:inline;">
		<polyline style="fill:none;stroke:#FFFFFF;stroke-width:4;stroke-linecap:round;stroke-miterlimit:10;" points="2330.8,395.1 
			2298.6,419.5 2288.8,426.9 2261,432.3 2240.4,435.3 2226.2,447.3 2222,465.5 2223,519.3 2224.6,541.3 2242.4,548.7 2261.6,547.5 
			2275,555.7 2285.2,569.1 2285.4,604.3 2288.4,691.7 		"/>
		<path style="fill:none;stroke:#FFFFFF;stroke-width:4;stroke-linecap:round;stroke-miterlimit:10;" d="M2288.8,426.9l13.2,19.6
			l1.6,66.2l10.4,17l-11.6,40.2l17,12l2.4,14.8l-4.6,37.2l-15.8,7l11.2,17.4l19.8,19.8l22.8,0.8l7,7l14.6,3.8l-3,32
			c0,0,2,14.6,29.4,24c0,0,25.8,10,27.4,10"/>
	</g>
	<g style="display:inline;">
		<g>
			<g>
				<path style="fill:none;stroke:#FFFFFF;stroke-width:4;stroke-linecap:round;stroke-miterlimit:10;" d="M4258.6,111.5l15.2,0.2
					c8,0.2,20.2-3.4,26.8-7.8l36.2-23.4c6.8-4.4,7.2-12.2,1.4-17.4c-6.2-5.2-12.6-15.8-14.2-23.8l-2.2-9.8c-1.8-7.8-6.4-20-10.2-27
					L4306-7.9c-3.8-7-2.8-14.8,2.2-17c5-2.4,10.4-7.2,12-10.8c1.6-3.6,6.6-7.8,11-8.8c4.6-1.4,11-1,14.2,0.6
					c3.4,1.6,10.4,7.8,15.6,14.2l0.8,0.8c5,6.2,10.4,13,11.6,15.2c1.2,2.4,8.4,6.4,15.8,9.2l48.2,17.4"/>
			</g>
			<g>
				<path style="fill:none;stroke:#FFFFFF;stroke-width:4;stroke-linecap:round;stroke-miterlimit:10;" d="M4375.2-9.3
					c0,0-2.4,6-5.2,13.2s-4.8,19-4.4,25.8s-3,17.8-7.8,24.4l-17.4,24.4"/>
			</g>
			<g>
				<path style="fill:none;stroke:#FFFFFF;stroke-width:4;stroke-linecap:round;stroke-miterlimit:10;" d="M4284.6,111.9l-2,18
					c-0.8,8,1,20.6,4.2,27.8l4.8,11c3.2,7.2,7.8,15.8,10,18.6s4,5.2,4,5.2"/>
			</g>
		</g>
	</g>
	<polyline style="display:inline;fill:none;stroke:#FFFFFF;stroke-width:4;stroke-linecap:round;stroke-miterlimit:10;" points="
		3554.8,459.1 3560.2,493.5 3558.6,540.1 3552.4,565.9 3530,595.7 3514.2,639.7 3496.8,712.1 3492,745.7 3500.6,784.3 3477,790.5 
		3462.6,799.3 3459.6,817.3 	"/>
	<polyline style="display:inline;fill:none;stroke:#FFFFFF;stroke-width:4;stroke-linecap:round;stroke-miterlimit:10;" points="
		3571.8,332.7 3518.2,342.9 3494,341.7 3488.6,333.7 3431.2,312.5 	"/>
	<polyline style="display:inline;fill:none;stroke:#FFFFFF;stroke-width:10;stroke-linecap:round;stroke-miterlimit:10;" points="
		2413.4,434.5 2399.8,432.1 2359.2,416.3 2339.2,411.3 2290.6,411.9 2241.2,417.9 2206.4,417.9 2132,402.3 2071.8,393.1 2002,389.7 
		1938.2,391.3 	"/>
	
		<line style="display:inline;fill:none;stroke:#FFFFFF;stroke-width:10;stroke-linecap:round;stroke-miterlimit:10;" x1="4250.6" y1="124.7" x2="4180" y2="137.3"/>
	<path style="display:inline;fill:none;stroke:#FFFFFF;stroke-width:10;stroke-miterlimit:10;" d="M4664,80.5c0,0-27,13.2-51,10"/>
	<path style="display:inline;fill:none;stroke:#FFFFFF;stroke-width:10;stroke-linecap:round;stroke-miterlimit:10;" d="
		M5122.2,512.7l-22.2-52.2l-0.8-29.8l-12.4-34.8l-33.2-70.6l-13.2-37.2l-6.8-44l7.4-30.8c0,0-5.8-26.6-7.4-30.8
		c-1.6-4.2-15-25.8-15-25.8l-24-12.4l-17.4-21.2l-9.4-8.2l-13.2-13.6l-13.6-9.4l-11.8-5.6l-13.6-13.6l-13.2-5.6l-18,13.6l-14.2,6.2
		l-24.4-10.6l-11.8,8.2l-9.4,6.8l-9.4,4.4l-23,3l-22.4-11.2l-7.4-15.6l-6.2-4.4l-8.4-4.6"/>
	<polyline style="display:inline;fill:none;stroke:#FFFFFF;stroke-width:4;stroke-linecap:round;stroke-miterlimit:10;" points="
		3331,617.3 3335.6,640.7 3341.4,708.3 3384.6,718.7 3398,785.5 3417,803.9 3440.2,802.1 3484.2,743.3 3507.4,669.3 	"/>
	<polyline style="display:inline;fill:none;stroke:#FFFFFF;stroke-width:4;stroke-linecap:round;stroke-miterlimit:10;" points="
		3334.8,642.1 3312.2,640.9 3289.8,640.5 3279.8,633.1 3280.4,616.5 3270.2,613.5 3260.8,615.1 3252.2,619.5 3253.2,627.5 
		3245.8,640.9 3217.4,657.3 3216.6,663.5 3221.2,677.5 3247,681.3 3291.6,720.5 	"/>
	<polyline style="display:inline;fill:none;stroke:#FFFFFF;stroke-width:4;stroke-linecap:round;stroke-miterlimit:10;" points="
		3333,628.1 3298.6,623.7 3287.2,639.5 	"/>
	<g style="display:inline;">
		
			<polyline style="fill:none;stroke:#FFFFFF;stroke-width:4;stroke-linecap:round;stroke-linejoin:round;stroke-miterlimit:10;" points="
			2401.4,6.3 2400.2,12.9 2465,59.5 2431.6,82.7 2427.6,76.1 2421.2,75.3 2413.8,80.5 2406.8,71.9 2388.8,82.1 		"/>
		
			<polyline style="fill:none;stroke:#FFFFFF;stroke-width:4;stroke-linecap:round;stroke-linejoin:round;stroke-miterlimit:10;" points="
			2372.2,3.7 2362,35.3 2360.4,40.5 2351.2,53.7 2331,70.3 2319,75.7 		"/>
		
			<line style="fill:none;stroke:#FFFFFF;stroke-width:4;stroke-linecap:round;stroke-linejoin:round;stroke-miterlimit:10;" x1="2402.6" y1="104.5" x2="2362" y2="35.3"/>
		
			<polyline style="fill:none;stroke:#FFFFFF;stroke-width:4;stroke-linecap:round;stroke-linejoin:round;stroke-miterlimit:10;" points="
			2417.4,25.7 2407,39.3 2374.8,57.9 		"/>
		
			<polyline style="fill:none;stroke:#FFFFFF;stroke-width:4;stroke-linecap:round;stroke-linejoin:round;stroke-miterlimit:10;" points="
			2387.8,49.7 2380.6,36.1 2387,0.1 		"/>
		
			<polyline style="fill:none;stroke:#FFFFFF;stroke-width:4;stroke-linecap:round;stroke-linejoin:round;stroke-miterlimit:10;" points="
			2351.2,53.7 2357.8,65.5 2369.6,60.7 2379.4,77.7 2348.6,97.1 2332.4,69.1 		"/>
		
			<polyline style="fill:none;stroke:#FFFFFF;stroke-width:4;stroke-linecap:round;stroke-linejoin:round;stroke-miterlimit:10;" points="
			2359.8,41.7 2326.4,13.7 2301.6,42.9 		"/>
		
			<polyline style="fill:none;stroke:#FFFFFF;stroke-width:4;stroke-linecap:round;stroke-linejoin:round;stroke-miterlimit:10;" points="
			2369.6,-0.7 2351.6,-5.1 2340,-7.9 2327.6,-18.7 2321.6,-16.3 2326.4,13.7 2343.2,6.5 2351.2,-3.9 		"/>
	</g>
	<path style="display:inline;fill:#FFFFFF;" d="M2513.2,196.7l0.4,12.8l-3.6,4.6l2.6,19l248-30l1.4,5l-6.2,1l1.8,16.6l-4.4,4.6
		l-59.2,7.2l0.2,25.4l-9.2,0.2c0,0-1.8-20.2-1.8-22c0-1.6-19,3-19,3l0.2,5.8l5.8,0.2l2.6,16.6l-4.8,6.4l-18.6,3l-1,8.8l25-0.8
		l4,25.2l11.2-0.2l-1.2-23.6l9.6,0.2l3,13.2l14.2,5l55-7.2l1.4-7.8l32-2.6l2.8,11l6,6.4l18.2-1l2.6,4.6l-188,23.6l0.8,12.4
		l152.6-20.2l0.2,20l-22,1.8l-0.2,10.8l-8.4,0.8l1.6,10.8l-240,29.8l-2.4-11l7.8-2.8l-6.8-44.2l-22.4,1.4l0.8-5.4l66.8-7l-8.4-70.8
		l-111.4,10l-2.4-25l55.4-7.8l-2.4-34.4L2513.2,196.7z M2464.8,261.7l43.8-4l-1.4-14.8l-43.8,5L2464.8,261.7z M2514.2,241.3
		l1.2,15.6l14.8-1.8l15.2-18L2514.2,241.3z M2558.8,250.5l4.6-7.2l97.4-12l-15.2-7l-88.2,10.2l-17.4,18.4L2558.8,250.5z
		 M2691.2,232.7l9.6-1.2l-1.6-13.6l-37.8,5L2691.2,232.7z M2705.2,216.7l1.8,14.2l38.2-4.2l-2-15.2L2705.2,216.7z M2610.2,242.7
		l0.2,3.8l36-4l-0.4-5.2L2610.2,242.7z M2650.4,318.3l-0.8-10.6l-19.6,2.2l-5.2,9.8L2650.4,318.3z M2579.6,339.1c-0.8,0-7-6-7-6
		l-38.4,5l3,19.2l102.2-14l-1.6-11.6C2637.8,331.9,2580.8,339.1,2579.6,339.1z M2606.6,355.1l-68.8,9.4l1.4,9.4l68.8-9.4
		L2606.6,355.1z M2708.8,340.3l-63.2,8.6l1.4,9.4l63.2-8.6L2708.8,340.3z M2639.2,350.7l-26.4,3.4l1.4,9.4l26.4-3.4L2639.2,350.7z
		 M2753.4,334.5l-38.4,5.2l1.4,9.4l38.4-5.2L2753.4,334.5z M2790.6,329.3l-30.4,4l1.4,9.4l30.4-4L2790.6,329.3z M2574.8,256.3
		l10,68.6l19.8-2.2c0,0-11-7.4-10.4-8.4c0.6-1,25.4-24.4,23.8-27.8c-1.6-3.4-22-18.4-22-18.4l4.6-16.4L2574.8,256.3z M2621.8,260.1
		l22.2-3.2l-0.6-7.8l-28.6,3.4L2621.8,260.1z M2559,377.1l-11.4,1.4l0.8,6.8l11.4-1.4L2559,377.1z M2576.4,374.3l-11.4,1.4l0.8,6.8
		l11.4-1.4L2576.4,374.3z M2595,372.3l-11.4,1.4l0.8,6.8l11.4-1.4L2595,372.3z"/>
	<g style="display:inline;">
		<line style="fill:none;stroke:#FFFFFF;stroke-width:4;stroke-miterlimit:10;" x1="3222.8" y1="374.9" x2="3189.6" y2="445.9"/>
		<path style="fill:none;stroke:#FFFFFF;stroke-width:4;stroke-miterlimit:10;" d="M3213.2,396.7l52.2-2.8c0,0,47.4-3.8,49-3.4
			s90.2,25.4,90.2,25.4"/>
		<line style="fill:none;stroke:#FFFFFF;stroke-width:4;stroke-miterlimit:10;" x1="3265.8" y1="370.9" x2="3267.2" y2="447.3"/>
		<line style="fill:none;stroke:#FFFFFF;stroke-width:4;stroke-miterlimit:10;" x1="3300" y1="391.1" x2="3301" y2="448.3"/>
		<line style="fill:none;stroke:#FFFFFF;stroke-width:4;stroke-miterlimit:10;" x1="3317.4" y1="358.3" x2="3314.4" y2="390.5"/>
	</g>
	<g style="display:inline;">
		<line style="fill:none;stroke:#FFFFFF;stroke-width:4;stroke-miterlimit:10;" x1="2879" y1="382.7" x2="2887" y2="463.9"/>
		<line style="fill:none;stroke:#FFFFFF;stroke-width:4;stroke-miterlimit:10;" x1="2904.6" y1="377.1" x2="2906.6" y2="462.7"/>
		<polyline style="fill:none;stroke:#FFFFFF;stroke-width:4;stroke-miterlimit:10;" points="2979.8,355.5 2978,371.7 2970.8,372.7 
			2972.6,389.3 2984,390.3 2984.8,409.7 2975.8,411.9 2977.6,453.7 		"/>
		<polyline style="fill:none;stroke:#FFFFFF;stroke-width:4;stroke-miterlimit:10;" points="3001.6,349.7 3004.2,407.9 
			2984.8,409.7 2986.6,440.9 2976.6,440.9 		"/>
	</g>
	<path style="display:inline;fill:none;stroke:#FFFFFF;stroke-width:4;stroke-miterlimit:10;" d="M2724,420.7l44.2-18.2l29.8-11
		l95.2-12.6l53.4-15.8l43.6-12.6l35.2,2.4l13.2,1.2l23.6-5.4l58.8-1.2l49,14c0,0,35.6,18.2,75,12.6l73.8-17.6l69,20l26.6,8.6"/>
	<path style="display:inline;fill:none;stroke:#FFFFFF;stroke-width:10;stroke-linecap:round;stroke-miterlimit:10;" d="
		M4501.8,318.1l-24,49c0,0-19,35.6,0.8,61.4c0,0,43.2,34.8,1.6,68c0,0-32.4,28.2-13.2,62.4l38.2,59l41.6,34l10,50.6l-8.4,21.6
		l-37.4,26.6l-97.2,3.4l-17.4,30.8l-69.8,185.2L4215,1262.7"/>
	<g style="display:inline;">
		
			<polyline style="fill:none;stroke:#FFFFFF;stroke-width:2;stroke-linecap:round;stroke-linejoin:round;stroke-miterlimit:10;" points="
			3957.8,780.9 3958.8,775.5 3959.6,771.3 3961.2,737.9 3994.6,772.7 4057,787.9 4046.4,777.7 4020.8,725.1 		"/>
		
			<polyline style="fill:none;stroke:#FFFFFF;stroke-width:2;stroke-linecap:round;stroke-linejoin:round;stroke-miterlimit:10;" points="
			3958.8,775.5 3966,780.5 3962.8,795.9 3969.4,805.7 3982.6,806.3 3991,795.1 4013.8,798.1 4029.8,790.1 4031.8,781.9 		"/>
		
			<polyline style="fill:none;stroke:#FFFFFF;stroke-width:2;stroke-linecap:round;stroke-linejoin:round;stroke-miterlimit:10;" points="
			3991.4,843.7 4045.4,808.9 4057,787.9 		"/>
		
			<polyline style="fill:none;stroke:#FFFFFF;stroke-width:2;stroke-linecap:round;stroke-linejoin:round;stroke-miterlimit:10;" points="
			3982.6,806.3 3977.2,827.1 3976.2,831.3 		"/>
		
			<polyline style="fill:none;stroke:#FFFFFF;stroke-width:2;stroke-linecap:round;stroke-linejoin:round;stroke-miterlimit:10;" points="
			4011.2,830.7 3987.4,826.3 3978.4,820.3 		"/>
		
			<line style="fill:none;stroke:#FFFFFF;stroke-width:2;stroke-linecap:round;stroke-linejoin:round;stroke-miterlimit:10;" x1="3987.4" y1="826.3" x2="3985.8" y2="837.3"/>
	</g>
	
		<path style="display:inline;fill:none;stroke:#FFFFFF;stroke-width:4;stroke-linecap:round;stroke-linejoin:round;stroke-miterlimit:10;" d="
		M3559.8,291.7l10,33.2l11.6,21.6l14.2,5.8l18.2,9.2l20.6,3.4l14.2-0.8l13.2,13.2l7.4,17.4c0,0,2.4,22.4,3.4,25
		c0.8,2.4,6.8,15.8,10.8,19c4,3.4,35.6,26.6,35.6,26.6l12.4,15l7.4,21.6l20,29.8l8.8,17.4l7,10.8l-3.4,9.6l-7,2h-9.6l-8.4,5.8
		l1.6,4.6l13.6-4.6h8.4l3.4,3l-4,4.6l-12,0.8l-7,4.2l0.4,4l11.2,0.8l4.6-2l3.4,3v3.4l-4.2,11.2l-5,8.8l16.2,66l-5,38.2l4,26.6
		l-9.6,25.4l0.4,21.6l4.2,3l9.6-3.8l9.2-3.8l15.2,2.4l22,7.8l25.4,6.2l18.6,1.4l28.2-10.4l22.8-9.6l18-14.6l17,6.2l6.2,27v8.4
		l12,14.2l212.8,153l102.6,71"/>
	<g style="display:inline;">
		<path style="fill:none;stroke:#FFFFFF;stroke-width:10;stroke-miterlimit:10;" d="M4262.8,125.3c36.6,4.2,76,7.8,108-10.4
			c4.6-2.6,9.2-5.8,14.6-6.8c7.8-1.4,15.4,2,23.4,2.2c8.4,0.2,16.6-3.6,25-5c14.6-2,29,3.6,42.2,10c13.2,6.2,26.6,13.6,41.4,14.4
			c14.8,0.8,31-6.6,35.2-20.6c1.2-4,1.4-8.2,3.2-11.6c3.6-7,12.6-9.2,20.4-10.4c12.6-1.8,26.2-2.8,37.2,3.4
			c10,5.6,16.4,15.8,22.2,25.8c8.8,15.2,26,36,35,51.2l0.2,8.4c-1.2,38.4,10.6,76.2,28.4,110.2c17.8,34,41,64.6,64.6,95
			c10.8,14,21.8,28.6,25.8,45.8c1.6,7,2,14.4,5.2,21c3.8,7.8,11,13.4,18,18.6c40,29.8,79.6,59.2,119.6,89
			c14.2,10.4,28.4,21.2,44.8,27.4c16.4,6.2,35.4,8,51.2,0.4c6.2-3,11.8-7.2,17.4-11.6c9-7,18.2-14.2,27.2-21.2
			c8.2-6.2,16.4-12.6,25.8-16.4c8.2-3.4,17.2-4.8,23.8-10.4"/>
		<path style="fill:none;stroke:#FFFFFF;stroke-width:10;stroke-miterlimit:10;" d="M4737.6,62.3c-15.6,17-47.4-3.4-66.2,9.6
			c-11,7.6-12.6,22.6-16.8,35.2c-12.4,37.6-52.6,60.4-66,97.6c-12.4,34.2,3.8,80.8,35.8,98.2"/>
		<path style="fill:none;stroke:#FFFFFF;stroke-width:10;stroke-miterlimit:10;" d="M4629,315.7c-2.8,19.6-17.8,37.2-28.2,54"/>
		<path style="fill:none;stroke:#FFFFFF;stroke-width:10;stroke-miterlimit:10;" d="M4587.8,371.1c-16.8-19-45.6-36.8-69.4-46
			c-17.4-6.8-37-12.6-48-27.8c-7.8-10.8-10-25-18.8-34.8c-14.2-15.2-43.2-17.6-47-38.2c-1-5.8,0.4-12.2-2.2-17.4
			c-5.2-10.6-20.8-8.4-32.6-6.2c-21.8,4-44.8,1.4-65.2-7.8c-24.8-11.2-44.6-31.2-69.4-42.4c-23.4-10.8-50-13-75.8-12.6
			c-77.4,1.4-164.6,18.6-213.6,78.6c-27,33-62.8,66-106,74.4c-17.6,3.4-36.4,2.6-54.4,3.8c-33.2,2.2-66.8,1.6-99.8-1.8
			c-31.8-3.4-54.4,5-69,35c-10,20.2-14.2,42.8-26.2,62.2c-5.6,8.8-12.6,18.6-23.2,21.8c-15,4.8-35.6-4.6-50.8-7
			c-18.8-3-36.8-9.2-54-16.8c-35.4-15.4-62.2-23.6-98.2-37.6c-11.6-4.6-29.8-9-42-6.8c-9.2,1.8-24.8,5.8-33.4,9.4
			c-11,4.6-37.6,7-49.6,8.6c-17,2.2-35.4,2.6-51.8-3.2c-10-3.4-16.8-12-26.4-16.4c-9.4-4.4-21-6.2-31.2-7.8c-23.4-4-47-4.6-70.6-3.4
			c-37,1.8-81.6,6-114.2,25.4c-15.2,9-57.6,10.2-75,13.6c-22.6,4.4-45.8,2.8-68.8,4.2c-42.8,2.8-84,15.8-125,27.6
			c-31.4,9.2-63.6,18.8-96,22.8c-18,2.2-36.8-3-55-2.6c-20.2,0.4-39.2-8.4-55.8-19c-14.8-9.6-28.6-21.2-39.8-35
			c-12.6-15.8-15.2-34-18.2-53.4c-18.6-122-89.4-229.4-166-326.2c-50-63.2-106-126.2-180.6-156.8c-24.6-10-50.6-16.4-76.6-22.6
			c-61.8-14.8-123.6-29.8-185.4-44.8"/>
		<path style="fill:none;stroke:#FFFFFF;stroke-width:10;stroke-miterlimit:10;" d="M1380.4,303.9c25,21.6,46.8,46.8,64.4,74.8
			c5.8,9.4,11.4,19,19.4,26.6c24.4,22.8,64.8,18.4,91.4,38.6c18.6,14.2,27,37.8,43.8,54c29.4,28.4,75.4,27.6,116.2,27
			c43.8-0.4,87.4,1.8,130.6,6.4c31,3.4,62,8.2,92.6,14.2c29.8,6,58.8,13.6,87.6,23c52.4,17.2,104.6,35,154.8,58
			c49.6,22.8,97.2,50.6,138.2,86.6c17.4,15.4,34.4,32.6,56.2,40.6c14.4,5.4,30.2,6.2,45.6,5.6c49.8-2,99-20,138.4-50.6
			c8.4-6.6,16.4-13.6,26-18.2c20.4-9.4,44.2-5.2,66.8-4c12,0.6,23.8,0.2,35.8-1c6.2-0.6,12-1.4,18-2.4c5.2-0.8,10.6-0.8,15-4
			c2.8-2.2,5-5,7.8-6.8c3-2,6.8-3,10.4-3.8c20-4.8,40-9.6,60-13.8c26-5.6,52.2-10.4,78.6-14.8c41.6-6.8,59-19,101-22.8
			c18-1.6,46.4-7.8,63.8-12c23.8-6.2,44-6.8,65.8-18.2c35.4-18.6,82-13.6,120.4-24.4c38.6-10.6,85.2-35.4,123.6-23.8
			c30.2,9,57.2,26.6,87.2,35.8c22.8,7,51.8,7.2,65.8-12.2c27.8-38.2,94.6-40.4,141.6-46.4c27-3.4,50.6-4.6,76.2-14.8
			c25-10.2,48.6-23.8,71.8-37.4c19.4-11.2,38.8-22.6,57.4-34.8c14.2-9.4,28.4-19.6,44.2-26c29.2-12,65.2,5.6,90-18.6
			c7.2-6.8,11.2-16.2,16-24.6c8.2-14.2,19.2-20.6,33.6-27.6c33.4-16.4,69.4-26.6,101.6-45.4c15.4-9,30.4-20,47.8-23.6
			c6.8-1.4,14.2-1.8,20.6-5c10.2-5.2,15.2-16.6,19.4-27.4c13.2-33.6,25-64.2,28.2-100"/>
		<circle style="fill:none;stroke:#FFFFFF;stroke-width:10;stroke-miterlimit:10;" cx="4741" cy="60.1" r="6.4"/>
		<circle style="fill:none;stroke:#FFFFFF;stroke-width:10;stroke-miterlimit:10;" cx="4626.8" cy="309.1" r="6.4"/>
		<circle style="fill:none;stroke:#FFFFFF;stroke-width:10;stroke-miterlimit:10;" cx="4594.2" cy="371.1" r="6.4"/>
		<circle style="fill:none;stroke:#FFFFFF;stroke-width:10;stroke-miterlimit:10;" cx="4257" cy="124.7" r="6.4"/>
		<circle style="fill:none;stroke:#FFFFFF;stroke-width:10;stroke-miterlimit:10;" cx="5126.2" cy="519.1" r="6.4"/>
	</g>
	<g style="display:inline;">
		<g>
			<g>
				<path style="fill:none;stroke:#FFFFFF;stroke-width:4;stroke-linecap:round;stroke-miterlimit:10;" d="M5620.6,668.5l-8.4,12.6
					c-4.6,6.8-8.8,13.2-9.8,14.8c-0.8,1.4-4.2,8.6-7.4,16l-1.4,3c-3.2,7.4-8.4,14.8-11.8,16.6c-3.4,1.8-6.8,5.4-7.8,7.8
					c-1,2.6-5.6,4.6-10.4,4.8c-4.8,0-11,3-13.6,6.2c-2.8,3.4-8.4,7.2-12.4,8.2c-4,1.2-9.6,1.4-12.6,0.2c-2.8-0.8-7.2,1-10,4.4
					c-2.6,3.4-8.4,7.2-13,9s-11.8,1.8-16,0.4c-4.4-1.4-9.6-3-11.8-3.4s-8.2,0.2-13.2,1.4c-5,1.2-12.6,3.4-16.8,4.8
					c-4.4,1.4-13.2,3.4-19.8,4.2c-6.6,0.8-15.2,1.6-19.4,1.8c-4,0-11-2-15.4-4.6s-13.2-9-19.2-14.2l-8.4-7.2c-6.2-5-9.2-13.6-6.8-19
					c2.4-5.2,4.2-13.6,3.8-18.4s-4.8-13.8-10-20.2l-2.6-3.4c-5-6.2-11-17.4-13-24.6s-6.8-18-10.4-23.6s-7.8-13.2-9.4-16.6
					c-1.4-3.4,12-19,17.4-24.4c5.6-5.2,10-9.4,10-9.4"/>
			</g>
			<g>
				<path style="fill:none;stroke:#FFFFFF;stroke-width:4;stroke-linecap:round;stroke-miterlimit:10;" d="M5512.2,771.3l13.4,26.8
					c3.6,7.2,6.6,19.6,6.8,27.6l0.2,25.4c0.2,8-5.2,18.4-11.8,23l-23.2,16.4c-6.6,4.6-16.8,12.8-22.6,18.4l-13.2,12.2
					c-5.8,5.4-17.2,10-25.2,10l-19.4,0.2c-8,0.2-17.4-0.2-20.6-0.6c-3.4-0.4-9.4-0.2-13.2,0.2c-3.8,0.6-11.6-3.8-17-9.6l-4.2-4.4
					c-5.6-5.8-12.6-12-15.8-13.8s-12-5.4-19.6-7.8l-19.8-6.4c-7.6-2.4-16.4-8.8-19.6-14c-3-5.2-20.4-15.8-25.4-17.2
					c-5-1.4-10-3.6-10.8-5s-10.4-8.6-13.6-10.4s3.2-19,6.2-22.8c3-4-22.2-9-26.2-7.8c-4,1.4-10.4,0.8-14.4-0.8c-4-1.8-7-6.2-7.2-9.4
					c0-3.4-4.2-9.4-9.2-13s-13.6-8.4-19-10.6c-5.6-2.2-10.8-2.4-11.6-0.8c-0.8,1.8-4.6,3.4-8.2,4c-3.6,0.4-10.2,0.6-14.8,0.2
					c-4.6-0.2-9.4,0.4-11,1.8s-8.6-0.8-15.8-4.4l-14.8-7.8c-7.2-3.6-17-9.4-21.8-12.4c-5-3.2-10-7.4-11.2-9.4c-1.4-1.8-5.6-6-10-8.8
					c-4.2-3-7.8-6.8-7.8-8.4c0-1.8-6.4-4.8-14.2-6.8l-48.6-12.6c-7.8-2-17.6-3.6-22-3.6s-13.4-3.6-20-8.2l-11.6-7.8
					c-6.8-4.6-16.4-8.2-21.8-8c-5.4,0-15-4-21.2-8.8l-31.4-25c-6.2-5-16.2-10-21.8-11c-5.8-1.2-14.4-7.4-19-13.8l-2.8-3.8
					c-4.6-6.4-12.6-17-17.2-23.4l-20.8-28.2c-4.8-6.4-13.6-16-19.8-21.2l-13.6-11.2c-6.2-5-14.8-14.8-19-21.8l-7.8-12.4
					c-4.2-6.8-11-14.8-14.8-17.6c-3.8-3-6.4-6.8-5.6-8.4c0.8-1.8,0.8-4.4,0-5.6c-0.8-1.4-1.6-4.8-1.8-7.6c0-2.8-3.8-4-8.4-2.8
					c-4.6,1.4-11.6-1.8-15.6-6.8s-8.2-15.6-9-23.6l-3.4-28.6"/>
			</g>
			<g>
				<path style="fill:none;stroke:#FFFFFF;stroke-width:4;stroke-linecap:round;stroke-miterlimit:10;" d="M5354.8,746.5
					c0,0-6.2-0.6-13.6-1.2c-7.6-0.8-19.6-3.8-27-6.8l-33.6-14c-7.4-3-19.2-8.8-26-12.8l-6.6-3.6c-7-4-18.2-10.6-25-14.8l-0.8-0.4
					c-6.8-4.2-18.8-9.4-26.6-11.4l-45.6-12c-7.8-2-17.8-6.4-22.4-10c-4.6-3.4-10-10-12.2-14.4c-2.2-4.6-5.4-9.8-7.2-11.8
					s-7.8-2.8-13.6-1.8s-15.4-1.4-21.6-5.6c-6.2-4-14.8-12.8-19.6-19.4l-15.8-22.8"/>
			</g>
			<g>
				<path style="fill:none;stroke:#FFFFFF;stroke-width:4;stroke-linecap:round;stroke-miterlimit:10;" d="M5402.8,931.3l-3.8,25.2
					c-1.2,7.8-1.4,21-0.6,29l0.6,5.2c0.8,8,3.2,20.8,5.2,28.6l4,14.8c2,7.8,4.2,18.6,4.8,23.8c0.6,5.4,51.8,3.6,59.4,1.4l28.8-8.4
					c7.8-2.2,16.8-6,20.4-8.4c3.4-2.4,17.4,22.2,22,28.6l2.8,4c4.6,6.8,13.6,12.8,20.6,13.6c6.8,0.8,18.6-0.8,26-3.8l15-5.8
					c7.4-3,17.4-10.4,22.2-16.8c4.8-6.2,11-9.4,13.8-6.6s11.6,5.4,19.6,5.8l69.8,4c8,0.4,17.4,0.2,20.8-0.4c3.4-0.8,14-15.2,18-22.2
					l3.2-5.6c4-6.8,11.8-16.4,17-21.2c5.2-4.8,39.4,4.6,45.4,6.2c6,1.8,33.6-16.8,40-17.2c6.4-0.4,11.6-0.8,20.6,9.4"/>
			</g>
		</g>
	</g>
	<path style="display:inline;fill:none;stroke:#FFFFFF;stroke-width:4;stroke-linecap:round;stroke-miterlimit:10;" d="M5508,764.5
		c0,0-27-37,19.6-55.6"/>
	<path style="display:inline;fill:none;stroke:#FFFFFF;stroke-width:4;stroke-miterlimit:10;" d="M4737.6,50.5V30.9
		c0,0,13.8-9.4,19.4,7.2l5.6,28.8"/>
	<path style="display:inline;fill:#FFFFFF;" d="M3567,565.3c-2,1.4-4.6,3.6-5.4,5c-0.8,1.4-3,3.4-4.8,4.6s-4.2,4-5.4,6.6
		c-1.2,2.4-3.4,7.8-4.6,11.8c-1.4,4,0.4,9.2,4,11.4c3.4,2.2,10.8,2.4,16.2,0.6c0,0,0,0-0.2-1.8s-1.6-3.2-1.4-4.6s7.8-2.8,7.8-2.8
		c7.8-1.4,13.6-4.2,12.6-6s-4-5.6-7-8.4c0,0,0,0,0.2-0.4s2-3.4,0-7.8s-4-6.4-4.8-7.2c-0.8-0.8-0.8-1-0.8-1
		C3571.8,563.7,3569,563.7,3567,565.3z"/>
</g>
<rect id="app_x5F_Muscat-road--zoom" x="337.6" y="752.4" style="fill:none;" width="1704" height="968.9"/>
<path style="fill:#B4985A;fill-opacity:0.75;stroke:#B4985A;stroke-width:0.6258;" d="M574.8,1104.5c-2.6,6.7-8.8,12.1-12.8,17.6
	c-1.4,1.8-5.6,9.3-3.2,11.1c8.2,6.3,16.2,12.7,24.4,18.8c0,0,33.6,20.2,33.6,20.4c3.4,2.2,7.8,3.4,11.6,5.5c5.4,2.6,11,5.3,16.4,7.9
	c26.2,11.9,53.6,21.2,80.6,31.1c7.6,2.8,15,5.5,22.6,8.3l77.4,25.3c0,0,60.2,23.7,60.2,23.9c10.4,4,21.6,7.3,32.2,10.9
	c2.6,0.8,5.2,1.8,7.8,2.2c4.2,0.6,8.6-0.8,12.8,0c10,1.4,20,7.7,26.6,9.7c2.2-7.7,4.4-15.2,6.6-22.8c0.4-1.4,1.6-3.6,1.4-5.1
	c-0.2-3-7.8-3.2-10.4-4c-8.4-1.8-16.8-3.4-25.2-5.3c-5.8-1.4-8.8-9.1-15.2-9.1c-5.4,0-13.6-0.2-17-5.5c-0.2-0.4-0.4-0.8-0.6-1.4
	c-0.6-1.6-1-3.2-1.6-4.6c-2-5.9-7-5.7-12.2-7.3c-4.6-1.4-9.4-3-14.2-1.2c-5.6,2-11.4,4-17.2,6.1c-0.8,0.2-1.4,0.4-2,0.4
	c-2.2,0.2-4.6-1.6-6.6-2.4c-3-1-6-2.2-9-3c-8.4-2.6-16.8-5.5-25.2-8.5c-16.6-6.3-33-13.3-48.8-21.2c-7.2-3.6-14.4-7.3-21.8-10.9
	c-12-5.9-24.6-11.7-36.8-18c-6.2-3.2-12.4-6.5-18.6-9.9c-2.8-1.6-6-3-8.4-5.1s-4.6-4.9-6.4-7.3c-2.4-3-5-6.1-7.6-8.9
	c-0.6-0.8-1.4-1.4-1.6-2.4s-0.2-2-0.2-3c-0.2-5.7-4-8.9-7.2-12.9v-5.7c0-6.5,0.2-12.9-2.6-19c-3-6.1-7.6-12.1-13.2-16
	c-3.4-2.4-3.4,4.2-3.6,6.3c-0.2,4.4,2.4,9.9,3.4,14.2c0.8,2.6-8,6.5-10,7.7c-0.2,0.2-4.6-2.6-5.6-2.6c-4.6,0-9.4,1.8-14,2.6
	c0.6-0.2-2.4-4-2.8-4.2c-1.4-0.6-2.6-0.8-3.8-1.4c0-3.4,1.2-3.6,4-4.6c2.2-0.8,4.6-1.8,6.4-3.4c2.4-2.2,1-3-0.8-5.3
	c-1.8-2.3-4.2,0-6.4,0.2c-3.4,0.4-6-0.8-9.2-1.8c0.8-4.6,5.2-5.5,7-7.3c1.6-1.8,6.4,0.4,8.6,1c2.6,0.6,5.2,1.4,7.2,3
	c1.8,1.4,3.4,5.1,6,4c1.6-0.6,3.4-4,3.4-5.7c0-1.8,0-4.6-1-6.1c-1.2-1.6-4-3-5.6-4c-4-2.4-8-4-12.2-5.7c-3.8-1.4-9.4,1.6-13.2,2.6
	c-5,1.4-10,3-14.8,5.1c-3.4,1.4-5.6,5.9-7.8,8.5l-1.4,10.1c-0.4,2.6-0.6,5.9-1.4,8.5C575,1104.3,574.8,1104.3,574.8,1104.5z"/>
<g>
	<path style="fill:#676767;" d="M719.2,1369.9l-3.2-0.6l-1.4,1.4l4,2.4l2,4.2l1.4-1.4l-0.2-3.2l5.4-4.9l4.6,10.1l1.8-1.8l-2.2-12.3
		l5.4-4.9c0.8-0.8,0.8-2,0.2-2.8c-0.6-0.8-2-0.8-2.8-0.2l-5.4,4.9l-12-3.4l-1.8,1.8l9.4,5.7L719.2,1369.9z"/>
	<path style="fill:#676767;" d="M709,1381.8c9,10.1,24.4,10.9,34.4,1.8c10-9.1,10.8-24.7,1.8-34.8s-24.4-10.9-34.4-1.8
		C701,1356.2,700.2,1371.7,709,1381.8z M743.6,1350.3c8.2,9.1,7.4,23.2-1.6,31.3c-9,8.3-23,7.5-31-1.6c-8.2-9.1-7.4-23.2,1.6-31.3
		S735.4,1341.2,743.6,1350.3z"/>
</g>
<text transform="matrix(0.983 0.1137 -0.1125 0.9937 1060.9384 1336.1738)" style="fill:#3C3C3D; font-family:'MarselisPro-Bold'; font-size:14.5913px;">18th November St.</text>
<text transform="matrix(0.9695 -0.2012 0.199 0.98 1052.4279 1717.7703)" style="fill:#8A1739; font-family:'MarselisPro'; font-size:20.5197px;">Muscat Expressway</text>
<text transform="matrix(0.8716 -0.5148 0.5287 0.8488 1890.298 1564.1622)" style="fill:#3C3C3D; font-family:'MarselisPro-Bold'; font-size:14.1688px;">Muscat Expressway</text>
<text transform="matrix(0.9893 0 0 1 1110.6514 1435.5829)" style="fill:#3C3C3D; font-family:'MarselisPro-Bold'; font-size:14.5925px;">Sultan Qaboos St.</text>
<text transform="matrix(0.9488 -0.2863 0.2832 0.9591 688.1185 1531.5923)" style="fill:#3C3C3D; font-family:'MarselisPro-Bold'; font-size:14.5796px;">Sultan Qaboos St.</text>
<text transform="matrix(0.9889 -3.029354e-02 2.996950e-02 0.9996 1818.2357 1399.8761)" style="fill:#3C3C3D; font-family:'MarselisPro-Bold'; font-size:14.5873px;">Sultan Qaboos St.</text>
<text transform="matrix(0.9893 0 0 1 433.3213 1871.1932)" style="fill:#3C3C3D; font-family:'MarselisPro-Bold'; font-size:14.5925px;">Muscat Expressway</text>
<line style="fill:none;stroke:#8A1739;stroke-width:2.0108;stroke-miterlimit:10;" x1="870.3" y1="1495.9" x2="870.3" y2="1545.2"/>
<ellipse style="fill:#8A1739;" cx="870.3" cy="1495.9" rx="6.6" ry="6.7"/>
<g>
	
		<text transform="matrix(0.9893 0 0 1 782.2881 1566.4491)" style="fill:#8A1538; font-family:'MarselisPro'; font-size:20.5268px;">Oman International</text>
	
		<text transform="matrix(0.9893 0 0 1 782.2881 1591.0419)" style="fill:#8A1538; font-family:'MarselisPro'; font-size:20.5268px;">Exhibition Centre</text>
</g>
<g>
	
		<line style="fill:none;stroke:#8A1739;stroke-width:2.0108;stroke-miterlimit:10;" x1="1064.8" y1="1650.2" x2="1064.8" y2="1600.9"/>
	<ellipse style="fill:#8A1739;" cx="1064.8" cy="1650.2" rx="6.6" ry="6.7"/>
</g>
<g>
	
		<text transform="matrix(0.9893 0 0 1 1003.4883 1573.9237)" style="fill:#8A1538; font-family:'MarselisPro'; font-size:20.5268px;">Oman Convention</text>
	
		<text transform="matrix(0.9893 0 0 1 1003.4883 1598.5165)" style="fill:#8A1538; font-family:'MarselisPro'; font-size:20.5268px;">&amp; Exhibition Centre</text>
</g>
<g>
	<line style="fill:none;stroke:#8A1739;stroke-width:2.0108;stroke-miterlimit:10;" x1="766" y1="1352.3" x2="800.6" y2="1352.3"/>
	<ellipse style="fill:#8A1739;" cx="766" cy="1352.3" rx="6.6" ry="6.7"/>
</g>
<g>
	
		<line style="fill:none;stroke:#8A1739;stroke-width:2.0108;stroke-miterlimit:10;" x1="447.2" y1="1211.2" x2="418.2" y2="1192.2"/>
	<ellipse style="fill:#8A1739;" cx="447.2" cy="1211.2" rx="6.6" ry="6.7"/>
</g>
<line style="fill:none;stroke:#8A1739;stroke-width:2.0108;stroke-miterlimit:10;" x1="916" y1="1633.5" x2="916" y2="1682.9"/>
<ellipse style="fill:#8A1739;" cx="916" cy="1633.5" rx="6.6" ry="6.7"/>
<g>
	<text transform="matrix(0.9893 0 0 1 851.668 1704.2001)" style="fill:#8A1538; font-family:'MarselisPro'; font-size:20.5268px;">Muscat Hills</text>
	<text transform="matrix(0.9893 0 0 1 851.668 1728.7909)" style="fill:#8A1538; font-family:'MarselisPro'; font-size:20.5268px;">Golf &amp; Country Club</text>
</g>
<g>
	<line style="fill:none;stroke:#8A1739;stroke-width:2.0108;stroke-miterlimit:10;" x1="606" y1="1100.4" x2="606" y2="1019.8"/>
	<ellipse style="fill:#8A1739;" cx="606" cy="1100.4" rx="6.6" ry="6.7"/>
</g>
<g>
	
		<line style="fill:none;stroke:#8A1739;stroke-width:2.0108;stroke-miterlimit:10;" x1="616.4" y1="1123.5" x2="641.4" y2="1045.8"/>
	<ellipse style="fill:#8A1739;" cx="616.4" cy="1123.5" rx="6.6" ry="6.7"/>
</g>
<g>
	
		<line style="fill:none;stroke:#8A1739;stroke-width:2.0108;stroke-miterlimit:10;" x1="655.2" y1="1124.7" x2="697.2" y2="1075.6"/>
	<ellipse style="fill:#8A1739;" cx="655.2" cy="1124.7" rx="6.6" ry="6.7"/>
</g>
<g>
	
		<line style="fill:none;stroke:#8A1739;stroke-width:2.0108;stroke-miterlimit:10;" x1="635.6" y1="1128.7" x2="599.6" y2="1182.5"/>
	<ellipse style="fill:#8A1739;" cx="635.6" cy="1128.7" rx="6.6" ry="6.7"/>
</g>
<line style="fill:none;stroke:#8A1739;stroke-width:2.0108;stroke-miterlimit:10;" x1="1492" y1="1628.9" x2="1443.2" y2="1628.9"/>
<ellipse style="fill:#8A1739;" cx="1492" cy="1628.5" rx="6.6" ry="6.7"/>
<line style="fill:none;stroke:#8A1739;stroke-width:2.0108;stroke-miterlimit:10;" x1="462.8" y1="1494.6" x2="462.8" y2="1544"/>
<ellipse style="fill:#8A1739;" cx="462.8" cy="1494.6" rx="6.6" ry="6.7"/>
<g>
	
		<text transform="matrix(0.9893 0 0 1 401.2578 1566.1649)" style="fill:#8A1538; font-family:'MarselisPro'; font-size:20.5268px;">As Sahwah</text>
	
		<text transform="matrix(0.9893 0 0 1 401.2578 1590.7577)" style="fill:#8A1538; font-family:'MarselisPro'; font-size:20.5268px;">Public Garden</text>
</g>
<g>
	
		<text transform="matrix(0.9893 0 0 1 181.2881 1127.1317)" style="fill:#8A1538; font-family:'MarselisPro'; font-size:20.5268px;">The International</text>
	
		<text transform="matrix(0.9893 0 0 1 181.2881 1151.7225)" style="fill:#8A1538; font-family:'MarselisPro'; font-size:20.5268px;">School of</text>
	
		<text transform="matrix(0.9893 0 0 1 181.2881 1176.4608)" style="fill:#8A1538; font-family:'MarselisPro'; font-size:20.5268px;">Choueifat</text>
</g>
<g>
	
		<text transform="matrix(0.9893 0 0 1 1470.9775 1780.6669)" style="fill:#8A1538; font-family:'MarselisPro'; font-size:20.5268px;">Ghala Valley</text>
	
		<text transform="matrix(1.0461 0 0 1 1470.9775 1805.2557)" style="fill:#8A1538; font-family:'MarselisPro'; font-size:20.5268px;">Golf Club</text>
</g>
<line style="fill:none;stroke:#8A1739;stroke-width:2.0108;stroke-miterlimit:10;" x1="1726.6" y1="1586.2" x2="1726.6" y2="1635.5"/>
<ellipse style="fill:#8A1739;" cx="1726.4" cy="1586.2" rx="6.6" ry="6.7"/>
<g>
	
		<text transform="matrix(0.9893 0 0 1 1667.4941 1655.3573)" style="fill:#8A1538; font-family:'MarselisPro'; font-size:20.5268px;">Mall of Oman</text>
</g>
<line style="fill:none;stroke:#8A1739;stroke-width:2.0108;stroke-miterlimit:10;" x1="3363" y1="1642.2" x2="3363" y2="1691.3"/>
<ellipse style="fill:#8A1739;" cx="3362.6" cy="1642" rx="6.6" ry="6.7"/>
<g>
	
		<text transform="matrix(0.9893 0 0 1 3299.4226 1713.3544)" style="fill:#8A1538; font-family:'MarselisPro'; font-size:20.5268px;">Qantab Beach</text>
</g>
<line style="fill:none;stroke:#8A1739;stroke-width:2.0108;stroke-miterlimit:10;" x1="3723" y1="1732.8" x2="3723" y2="1781.9"/>
<ellipse style="fill:#8A1739;" cx="3722.8" cy="1732.6" rx="6.6" ry="6.7"/>
<g>
	
		<text transform="matrix(0.9893 0 0 1 3652.364 1801.9052)" style="fill:#8A1538; font-family:'MarselisPro'; font-size:20.5268px;">Bandar Khiran</text>
</g>
<line style="fill:none;stroke:#8A1739;stroke-width:2.0108;stroke-miterlimit:10;" x1="3555.2" y1="1728.1" x2="3555.2" y2="1777.3"/>
<ellipse style="fill:#8A1739;" cx="3555" cy="1727.9" rx="6.6" ry="6.7"/>
<g>
	
		<text transform="matrix(0.9893 0 0 1 3541.1238 1797.1591)" style="fill:#8A1538; font-family:'MarselisPro'; font-size:20.5268px;">Yiti</text>
</g>
<line style="fill:none;stroke:#8A1739;stroke-width:2.0108;stroke-miterlimit:10;" x1="3210.6" y1="1559.5" x2="3210.6" y2="1608.9"/>
<ellipse style="fill:#8A1739;" cx="3210.4" cy="1559.5" rx="6.6" ry="6.7"/>
<g>
	
		<text transform="matrix(0.9893 0 0 1 3169.0427 1628.7128)" style="fill:#8A1538; font-family:'MarselisPro'; font-size:20.5268px;">Al Bustan</text>
</g>
<line style="fill:none;stroke:#8A1739;stroke-width:2.0108;stroke-miterlimit:10;" x1="1929.6" y1="1500.5" x2="1929.6" y2="1588.8"/>
<ellipse style="fill:#8A1739;" cx="1929.4" cy="1500.3" rx="6.6" ry="6.7"/>
<g>
	
		<text transform="matrix(0.9893 0 0 1 1829.7754 1608.0507)" style="fill:#8A1538; font-family:'MarselisPro'; font-size:20.5268px;">ABA International school</text>
</g>
<line style="fill:none;stroke:#8A1739;stroke-width:2.0108;stroke-miterlimit:10;" x1="2193.2" y1="1214" x2="2193.2" y2="1263.2"/>
<ellipse style="fill:#8A1739;" cx="2193" cy="1213.8" rx="6.6" ry="6.7"/>
<g>
	<line style="fill:none;stroke:#8A1739;stroke-width:2.0108;stroke-miterlimit:10;" x1="2832" y1="1169.6" x2="2832" y2="1218.7"/>
	<ellipse style="fill:#8A1739;" cx="2831.8" cy="1169.4" rx="6.6" ry="6.7"/>
</g>
<g>
	
		<text transform="matrix(0.9893 0 0 1 2109.3201 1283.1815)" style="fill:#8A1538; font-family:'MarselisPro'; font-size:20.5268px;">Royal Opera House</text>
</g>
<g>
	
		<text transform="matrix(0.9893 0 0 1 2001.5215 1380.5507)" style="fill:#8A1538; font-family:'MarselisPro'; font-size:20.5268px;">British International School</text>
</g>
<g>
	
		<text transform="matrix(0.9893 0 0 1 2419.0059 1196.6464)" style="fill:#8A1538; font-family:'MarselisPro'; font-size:20.5268px;">Qurum Natural Park</text>
</g>
<line style="fill:none;stroke:#8A1739;stroke-width:2.0108;stroke-miterlimit:10;" x1="1550.8" y1="1512.4" x2="1550.8" y2="1561.6"/>
<ellipse style="fill:#8A1739;" cx="1550.4" cy="1512.2" rx="6.6" ry="6.7"/>
<g>
	
		<text transform="matrix(0.9893 0 0 1 1491.7363 1581.5126)" style="fill:#8A1538; font-family:'MarselisPro'; font-size:20.5268px;">Sultan Qaboos </text>
	
		<text transform="matrix(0.9893 0 0 1 1491.7363 1606.0995)" style="fill:#8A1538; font-family:'MarselisPro'; font-size:20.5268px;">Grand Mosque</text>
</g>
<g>
	
		<text transform="matrix(0.9893 0 0 1 1318.283 1610.5546)" style="fill:#8A1538; font-family:'MarselisPro'; font-size:20.5268px;">Taisam</text>
	
		<text transform="matrix(0.9893 0 0 1 1318.283 1635.1454)" style="fill:#8A1538; font-family:'MarselisPro'; font-size:20.5268px;">International </text>
	
		<text transform="matrix(0.9893 0 0 1 1318.283 1659.8846)" style="fill:#8A1538; font-family:'MarselisPro'; font-size:20.5268px;">School</text>
</g>
<text transform="matrix(0.9893 0 0 1 533.5342 1010.0966)" style="fill:#8A1739; font-family:'MarselisPro'; font-size:20.5268px;"> Al Mouj Marina</text>
<g>
	
		<line style="fill:none;stroke:#8A1739;stroke-width:2.0108;stroke-miterlimit:10;" x1="943.6" y1="1275.3" x2="943.6" y2="1194.4"/>
	<ellipse style="fill:#8A1739;" cx="943.6" cy="1275.3" rx="6.6" ry="6.7"/>
</g>
<g>
	<line style="fill:none;stroke:#8A1739;stroke-width:2.0108;stroke-miterlimit:10;" x1="790" y1="1226.8" x2="790" y2="1145.9"/>
	<ellipse style="fill:#8A1739;" cx="790" cy="1227" rx="6.6" ry="6.7"/>
</g>
<text transform="matrix(0.9893 0 0 1 619.7891 1040.8905)" style="fill:#8A1739; font-family:'MarselisPro'; font-size:20.5268px;">The Walk</text>
<text transform="matrix(0.9893 0 0 1 667.3848 1068.1552)" style="fill:#8A1739; font-family:'MarselisPro'; font-size:20.5268px;">Kempinski Hotel </text>
<text transform="matrix(0.9893 0 0 1 533.5342 1211.9462)" style="fill:#8A1739; font-family:'MarselisPro'; font-size:20.5268px;">Mysk by Shaza </text>
<text transform="matrix(0.9893 0 0 1 533.5342 1236.537)" style="fill:#8A1739; font-family:'MarselisPro'; font-size:20.5268px;">Al Mouj Hotel</text>
<text transform="matrix(0.9893 0 0 1 808.2185 1356.911)" style="fill:#8A1739; font-family:'MarselisPro'; font-size:20.5268px;">Muscat International Airport</text>
<text transform="matrix(0.9893 0 0 1 342.2061 1186.3983)" style="fill:#8A1739; font-family:'MarselisPro'; font-size:20.5268px;">Markaz Al Bahja</text>
<text transform="matrix(0.9893 0 0 1 890.3943 1189.785)" style="fill:#8A1739; font-family:'MarselisPro'; font-size:20.5268px;">Al Mouj Golf</text>
<g>
	
		<line style="fill:none;stroke:#8A1739;stroke-width:2.0108;stroke-miterlimit:10;" x1="1429.2" y1="1336.3" x2="1429.2" y2="1255.5"/>
	<ellipse style="fill:#8A1739;" cx="1429.2" cy="1336.3" rx="6.6" ry="6.7"/>
</g>
<g>
	
		<line style="fill:none;stroke:#8A1739;stroke-width:2.0108;stroke-miterlimit:10;" x1="2327.6" y1="1190.8" x2="2407.6" y2="1190.8"/>
	<ellipse style="fill:#8A1739;" cx="2327.6" cy="1190.8" rx="6.6" ry="6.7"/>
</g>
<text transform="matrix(0.9893 0 0 1 1376.0957 1250.7753)" style="fill:#8A1739; font-family:'MarselisPro'; font-size:20.5268px;">Azaiba Beach</text>
<g>
	
		<line style="fill:none;stroke:#8A1739;stroke-width:2.0108;stroke-miterlimit:10;" x1="2131.8" y1="1182.7" x2="2131.8" y2="1101.8"/>
	<ellipse style="fill:#8A1739;" cx="2131.8" cy="1182.7" rx="6.6" ry="6.7"/>
</g>
<text transform="matrix(0.9893 0 0 1 2078.6873 1097.1288)" style="fill:#8A1739; font-family:'MarselisPro'; font-size:20.5268px;">Qurum Beach</text>
<g>
	
		<line style="fill:none;stroke:#8A1739;stroke-width:2.0108;stroke-miterlimit:10;" x1="2887.6" y1="1166.5" x2="2851.6" y2="1125.3"/>
	<ellipse style="fill:#8A1739;" cx="2887.6" cy="1166.5" rx="6.6" ry="6.7"/>
</g>
<text transform="matrix(0.9893 0 0 1 2769.9353 1240.7343)" style="fill:#8A1739; font-family:'MarselisPro'; font-size:20.5268px;">Bait Al Baranda</text>
<text transform="matrix(0.9893 0 0 1 2917.4744 1294.703)" style="fill:#8A1739; font-family:'MarselisPro'; font-size:20.5268px;">Bait Al Zubair </text>
<text transform="matrix(0.9893 0 0 1 2917.4744 1319.2919)" style="fill:#8A1739; font-family:'MarselisPro'; font-size:20.5268px;">Museum</text>
<text transform="matrix(0.9893 0 0 1 3059.1023 1476.8124)" style="fill:#8A1739; font-family:'MarselisPro'; font-size:20.5268px;">Muscat Gate </text>
<text transform="matrix(0.9893 0 0 1 3059.1023 1501.4042)" style="fill:#8A1739; font-family:'MarselisPro'; font-size:20.5268px;">Museum</text>
<g>
	
		<line style="fill:none;stroke:#8A1739;stroke-width:2.0108;stroke-miterlimit:10;" x1="3082.4" y1="1207.8" x2="3082.4" y2="1126.9"/>
	<ellipse style="fill:#8A1739;" cx="3082.4" cy="1207.8" rx="6.6" ry="6.7"/>
</g>
<g>
	
		<line style="fill:none;stroke:#8A1739;stroke-width:2.0108;stroke-miterlimit:10;" x1="3045.6" y1="1143.1" x2="3125.6" y2="1143.1"/>
	<ellipse style="fill:#8A1739;" cx="3045.6" cy="1143.1" rx="6.6" ry="6.7"/>
</g>
<g>
	
		<line style="fill:none;stroke:#8A1739;stroke-width:2.0108;stroke-miterlimit:10;" x1="2968.6" y1="1237.3" x2="2968.6" y2="1271.5"/>
	<ellipse style="fill:#8A1739;" cx="2968.6" cy="1237.3" rx="6.6" ry="6.7"/>
</g>
<g>
	
		<line style="fill:none;stroke:#8A1739;stroke-width:2.0108;stroke-miterlimit:10;" x1="3160.8" y1="1431.2" x2="3140.4" y2="1453.2"/>
	<ellipse style="fill:#8A1739;" cx="3160.8" cy="1431.2" rx="6.6" ry="6.7"/>
</g>
<text transform="matrix(0.9893 0 0 1 3079.1338 1288.4442)" style="fill:#8A1739; font-family:'MarselisPro'; font-size:20.5268px;">The National Museum</text>
<text transform="matrix(0.9893 0 0 1 3079.1338 1313.035)" style="fill:#8A1739; font-family:'MarselisPro'; font-size:20.5268px;">Of Oman</text>
<g>
	<line style="fill:none;stroke:#8A1739;stroke-width:2.0108;stroke-miterlimit:10;" x1="3068.2" y1="1247.4" x2="3090" y2="1268"/>
	<ellipse style="fill:#8A1739;" cx="3068.2" cy="1247.4" rx="6.6" ry="6.7"/>
</g>
<g>
	
		<line style="fill:none;stroke:#8A1739;stroke-width:2.0108;stroke-miterlimit:10;" x1="453.6" y1="1367.7" x2="453.6" y2="1286.8"/>
	<ellipse style="fill:#8A1739;" cx="453.6" cy="1367.7" rx="6.6" ry="6.7"/>
</g>
<g>
	
		<line style="fill:none;stroke:#8A1739;stroke-width:2.0108;stroke-miterlimit:10;" x1="295.4" y1="1201.3" x2="262.2" y2="1185.5"/>
	<ellipse style="fill:#8A1739;" cx="295.4" cy="1201.3" rx="6.6" ry="6.7"/>
</g>
<g>
	<path id="Rectangle-Copy-2_10_" style="fill:#FFFFFF;" d="M382.2,1265.8h143.6c4,0,7.2,3.2,7.2,7.3v38.2c0,4-3.2,7.3-7.2,7.3H382.2
		c-4,0-7.2-3.2-7.2-7.3v-38.2C375,1269,378.2,1265.8,382.2,1265.8z"/>
	
		<text transform="matrix(0.9893 0 0 1 418.4277 1288.4462)" style="fill:#8A1538; font-family:'MarselisPro-Bold'; font-size:20.5197px;">City Cent</text>
	
		<text transform="matrix(0.9893 0 0 1 500.5879 1288.4462)" style="fill:#8A1538; font-family:'MarselisPro-Bold'; font-size:20.5197px;">r</text>
	
		<text transform="matrix(0.9893 0 0 1 508.0176 1288.4462)" style="fill:#8A1538; font-family:'MarselisPro-Bold'; font-size:20.5197px;">e</text>
	
		<text transform="matrix(0.9893 0 0 1 418.4277 1308.9647)" style="fill:#8A1538; font-family:'MarselisPro-Light'; font-size:20.5197px;">Muscat</text>
	<g>
		<path id="Path_6_" style="fill:#8A1538;" d="M396.8,1282c-6.8,0-11.8,4.2-11.8,9.7v10.7h4c0,0,0-6.1,0-10.7c0-5.1,4.4-8.9,8.8-9.5
			c0.2,0,0.2,0,0.2,0L396.8,1282L396.8,1282z"/>
		<path id="Path_3_" style="fill:#8A1538;" d="M397.6,1282.2c-0.2,0.2-0.8,0.2-1.4,0.8c-2.4,1.6-3.8,5.1-3.8,7.9c0,0.2,0,0.2,0,0.6
			l0,0v0.2v10.7h3.2v-10.7c0-0.8,0.2-1.4,0.8-1.6l1.4,1.6l1.4-1.6c0.6,0.2,0.8,1,0.8,1.6v10.7h3.2v-10.7c0-3-2.4-5.9-5.4-5.9
			c-0.8,0-1.4,0.2-2,0.2l0,0c0.8-0.8,1.6-1.4,3-1.4l0,0c0.2,0,0.8,0,1,0.2c3,0.6,5.2,3,5.2,6.5c0,0.2,0,0.2,0,0.2v10.5h3.2
			c0,0,0-10.5,0-10.7c0-4.6-2.4-8.5-7.2-9.5c-0.2,0-0.2-0.2-0.8-0.2c-0.2,0-0.8,0-1,0C398.8,1282,398.4,1282,397.6,1282.2z"/>
	</g>
</g>
<g>
	
		<line style="fill:none;stroke:#8A1739;stroke-width:2.0108;stroke-miterlimit:10;" x1="2311.6" y1="1261.1" x2="2311.6" y2="1180.3"/>
	<ellipse style="fill:#8A1739;" cx="2311.6" cy="1261.1" rx="6.6" ry="6.7"/>
</g>
<g>
	<path id="Rectangle-Copy-2_1_" style="fill:#FFFFFF;" d="M2240.2,1127.1h143.6c4,0,7.2,3.2,7.2,7.3v38.2c0,4-3.2,7.3-7.2,7.3
		h-143.6c-4,0-7.2-3.2-7.2-7.3v-38.2C2233.2,1130.5,2236.4,1127.1,2240.2,1127.1z"/>
	
		<text transform="matrix(0.9893 0 0 1 2276.5154 1149.8514)" style="fill:#8A1538; font-family:'MarselisPro-Bold'; font-size:20.5197px;">City Cent</text>
	
		<text transform="matrix(0.9893 0 0 1 2358.6777 1149.8514)" style="fill:#8A1538; font-family:'MarselisPro-Bold'; font-size:20.5197px;">r</text>
	
		<text transform="matrix(0.9893 0 0 1 2366.1055 1149.8514)" style="fill:#8A1538; font-family:'MarselisPro-Bold'; font-size:20.5197px;">e</text>
	
		<text transform="matrix(0.9893 0 0 1 2276.5154 1170.369)" style="fill:#8A1538; font-family:'MarselisPro-Light'; font-size:20.5197px;">Qurum</text>
	<g>
		<path id="Path_2_" style="fill:#8A1538;" d="M2255,1143.3c-6.8,0-11.8,4.2-11.8,9.7v10.7h4c0,0,0-6.1,0-10.7
			c0-5.1,4.4-8.9,8.8-9.5c0.2,0,0.2,0,0.2,0L2255,1143.3L2255,1143.3z"/>
		<path id="Path_1_" style="fill:#8A1538;" d="M2255.8,1143.7c-0.2,0.2-0.8,0.2-1.4,0.8c-2.4,1.6-3.8,5.1-3.8,7.9c0,0.2,0,0.2,0,0.6
			l0,0v0.2v10.7h3.2v-10.7c0-0.8,0.2-1.4,0.8-1.6l1.4,1.6l1.4-1.6c0.6,0.2,0.8,1,0.8,1.6v10.7h3.2v-10.7c0-3-2.4-5.9-5.4-5.9
			c-0.8,0-1.4,0.2-2,0.2l0,0c0.8-0.8,1.6-1.4,3-1.4l0,0c0.2,0,0.8,0,1,0.2c3,0.6,5.2,3,5.2,6.5c0,0.2,0,0.2,0,0.2v10.5h3.2
			c0,0,0-10.5,0-10.7c0-4.6-2.4-8.5-7.2-9.5c-0.2,0-0.2-0.2-0.8-0.2c-0.2,0-0.8,0-1,0C2256.8,1143.3,2256.4,1143.5,2255.8,1143.7z"
			/>
	</g>
</g>
<g>
	<path id="Rectangle-Copy-2_29_" style="fill:#8A1739;" d="M718.6,1093.3h143.6c4,0,7.2,3.2,7.2,7.3v38.2c0,4-3.2,7.3-7.2,7.3H718.6
		c-4,0-7.2-3.2-7.2-7.3v-38.2C711.6,1096.6,714.8,1093.3,718.6,1093.3z"/>
	
		<text transform="matrix(0.9893 0 0 1 754.949 1116.0135)" style="fill:#FFFFFF; font-family:'MarselisPro-Bold'; font-size:20.5197px;">Al Mouj</text>
	
		<text transform="matrix(0.9893 0 0 1 754.949 1136.5302)" style="fill:#FFFFFF; font-family:'MarselisPro-Light'; font-size:20.5197px;">Muscat</text>
	<g>
		<path id="Path_10_" style="fill:#FFFFFF;" d="M733.4,1109.5c-6.8,0-11.8,4.2-11.8,9.7v10.7h4c0,0,0-6.1,0-10.7
			c0-5.1,4.4-8.9,8.8-9.5c0.2,0,0.2,0,0.2,0L733.4,1109.5L733.4,1109.5z"/>
		<path id="Path_11_" style="fill:#FFFFFF;" d="M734.2,1109.9c-0.2,0.2-0.8,0.2-1.4,0.8c-2.4,1.6-3.8,5.1-3.8,7.9c0,0.2,0,0.2,0,0.6
			l0,0v0.2v10.7h3.2v-10.7c0-0.8,0.2-1.4,0.8-1.6l1.4,1.6l1.4-1.6c0.6,0.2,0.8,1,0.8,1.6v10.7h3.2v-10.7c0-3-2.4-5.9-5.4-5.9
			c-0.8,0-1.4,0.2-2,0.2l0,0c0.8-0.8,1.6-1.4,3-1.4l0,0c0.2,0,0.8,0,1,0.2c3,0.6,5.2,3,5.2,6.5c0,0.2,0,0.2,0,0.2v10.5h3.2
			c0,0,0-10.5,0-10.7c0-4.6-2.4-8.5-7.2-9.5c-0.2,0-0.2-0.2-0.8-0.2c-0.2,0-0.8,0-1,0C735.4,1109.5,734.8,1109.7,734.2,1109.9z"/>
	</g>
</g>
<text transform="matrix(0.9893 0 0 1 3029.2185 1122.161)" style="fill:#8A1739; font-family:'MarselisPro'; font-size:20.5268px;">Al Alam Palace</text>
<text transform="matrix(0.9893 0 0 1 3130.2185 1150.3788)" style="fill:#8A1739; font-family:'MarselisPro'; font-size:20.5268px;">Jalali Fort</text>
<text transform="matrix(0.9893 0 0 1 2869.5625 1068.1552)" style="fill:#8A1739; font-family:'MarselisPro'; font-size:20.5268px;">Corniche Mutrah</text>
<g>
	
		<line style="fill:none;stroke:#8A1739;stroke-width:2.0108;stroke-miterlimit:10;" x1="2940.8" y1="1154.6" x2="2940.8" y2="1073.9"/>
	<ellipse style="fill:#8A1739;" cx="2940.8" cy="1154.6" rx="6.6" ry="6.7"/>
</g>
<text transform="matrix(0.9893 0 0 1 2937.7578 1017.4803)" style="fill:#8A1739; font-family:'MarselisPro'; font-size:20.5268px;">Riyam Park Monument</text>
<g>
	
		<line style="fill:none;stroke:#8A1739;stroke-width:2.0108;stroke-miterlimit:10;" x1="2983" y1="1130.9" x2="3050.6" y2="1025.2"/>
	<ellipse style="fill:#8A1739;" cx="2983" cy="1130.9" rx="6.6" ry="6.7"/>
</g>
<text transform="matrix(0.9893 0 0 1 2783.0486 1114.3143)" style="fill:#8A1739; font-family:'MarselisPro'; font-size:20.5268px;">Mutrah Souq</text>
<g id="NorthPoint" transform="translate(1831.070256, 181.453972) rotate(50.000000) translate(-1831.070256, -181.453972) translate(1792.570256, 137.953972)">
	<path id="Fill-933" style="fill:#8A1538;" d="M1387.9-1310l9.3,15.5l-15.9-7.3L1387.9-1310z M1378.5-1298.6l28.4,11.6l-16.2-25.6
		l-28.4-11.6L1378.5-1298.6z M1387.9-1310l9.3,15.5l-15.9-7.3L1387.9-1310z M1378.5-1298.6l28.4,11.6l-16.2-25.6l-28.4-11.6
		L1378.5-1298.6z M1387.9-1310l9.3,15.5l-15.9-7.3L1387.9-1310z M1406.7-1286.8l-16.2-25.6l-28.4-11.8l16.2,25.6L1406.7-1286.8z
		 M1372.4-1337c17.1-5.9,35.8,3,42,20.1s-2.6,35.7-19.5,41.7c-16.9,6.1-35.8-3-42-19.9C1346.6-1312.1,1355.6-1330.9,1372.4-1337z
		 M1397.4-1268c20.9-7.5,31.6-30.4,23.9-51.3c-7.6-20.9-30.6-31.7-51.5-24.2c-20.9,7.3-31.4,30-23.9,50.7
		C1353.7-1271.7,1376.7-1260.9,1397.4-1268z M1387.9-1310l9.3,15.5l-15.9-7.3L1387.9-1310z M1378.5-1298.6l28.4,11.6l-16.2-25.6
		l-28.4-11.6L1378.5-1298.6z M1387.9-1310l9.3,15.5l-15.9-7.3L1387.9-1310z M1378.5-1298.6l28.4,11.6l-16.2-25.6l-28.4-11.6
		L1378.5-1298.6z M1387.9-1310l9.3,15.5l-15.9-7.3L1387.9-1310z M1378.5-1298.6l28.4,11.6l-16.2-25.6l-28.4-11.6L1378.5-1298.6z
		 M1387.9-1310l9.3,15.5l-15.9-7.3L1387.9-1310z M1378.5-1298.6l28.4,11.6l-16.2-25.6l-28.4-11.6L1378.5-1298.6z"/>
	<g id="Back-Copy-5_1_" transform="translate(34.000000, 0.000000)">
		
			<text transform="matrix(0.6398 -0.7546 0.7628 0.6466 1310.3008 -1330.754)" style="fill:#8A1538; font-family:'ArialMT'; font-size:20.5267px;">N</text>
	</g>
</g>
</svg>
