<?xml version="1.0" encoding="utf-8"?>
<!-- Generator: Adobe Illustrator 19.1.0, SVG Export Plug-In . SVG Version: 6.00 Build 0)  -->
<svg version="1.1" id="app_x5F_Muscat--parent" xmlns="http://www.w3.org/2000/svg" xmlns:xlink="http://www.w3.org/1999/xlink"
	 x="0px" y="0px" width="3840px" height="2160px" viewBox="0 0 3840 2160" style="enable-background:new 0 0 3840 2160;"
	 xml:space="preserve">
<g id="map-data" style="display:none;">
	<rect x="-189.6" y="-110.3" style="display:inline;fill:#FFFFFF;" width="4135.8" height="2898.2"/>
	<g style="display:inline;">
		<g>
			<g>
				<path style="fill:#E0DAD5;" d="M223,1483.3l46,12l22.4,5l23.8,0.8l22.2-2.4l19-2.4l23.4-1.6l9.6-2l28.8-22.6l29.4-4l10.8-14
					l14-0.2l3.2-6.2l-7.6-50v-0.2c2-19-21.2-90.6-22.2-94l-5.8-13.6l-7.8-22l-5.4-19l5.6-7.6l0.4-0.2c7.8-4.6,16.6-9.8,17.6-10.6
					l-0.2,0.2c0.8-0.8,4.2-3.6,32.2-23l34.6-22.2l21.8-11.6l10.6-11.2l7.4-10l2-9.4l-2.4-4.6l-12.4-12.8l-3.8-9.6l-0.6-27l1.4-13.6
					l0.8,0.2l-117.2-75.8L249,856.3l-26.2-27L223,1483.3L223,1483.3z"/>
			</g>
			<g>
				<polygon style="fill:#E0DAD5;" points="3634,1669.5 3641.2,1671.1 3651.2,1669.9 3654.6,1671.5 3657.2,1674.5 3662.2,1668.9 
					3662.2,1665.1 3654.2,1659.7 3647.4,1655.7 3641.6,1653.3 3637,1654.9 3633.8,1658.1 3634,1662.9 				"/>
				<polygon style="fill:#E0DAD5;" points="3817.2,1827.7 3809.4,1829.9 3807,1832.5 3807,1834.5 3811.6,1834.5 3817.2,1834.5 
					3819.8,1831.5 3823.4,1829.3 3826.6,1827.7 3826.6,1825.3 3820.6,1825.3 				"/>
				<path style="fill:#E0DAD5;" d="M3619.8,1721.7l6.4,1l6.2-3.2h4l2.4-1.6l6-3.2v-3h-3c0,0-7.6,1.8-8.4,2.2
					c-0.8,0.2-7.8,3.4-7.8,3.4l-5.8-0.8L3619.8,1721.7L3619.8,1721.7z"/>
				<path style="fill:#E0DAD5;" d="M3942.6,1911.3l-37-26l-7.6-3.4l-5.4-6.8c0,0-6.8-1.8-7.8-3.4c-1.2-1.4-6.6-8.4-6.6-8.4l-8-8.4
					l-5-7.6c0,0-3-7.2-3-8.8c0-1.4,0.8-7.8,0.8-7.8v-5.8l3.4-3.4l0.2-2.4l-4.4,0.6l-3-1.2l-0.8-5l0.8-1.8v-2.8l-1.2-3.4
					c0,0-1.8-2-2.4-3.2s-2-3.4-2-3.4h-5l-7-0.8l-7.6,1.8l-1.4,2.6l2.4,1.8l6.4,2.4l4.4,2l4,1.4l3.2,2v3.2v3.8c0,0-1.4,0.6-2.4,1.2
					s-2.6,1.8-2.6,1.8l-3.4,1.8l-3.4,0.6c0,0-2.6,0.6-3.4,1.2s-5.2,3.4-5.2,3.4l-2,2l-5.8,2l-2.4,1.2l-6.2,1.8l-2.6,1.4l-4.4,2
					l-1.8,1.4l-9,1.4l-3,0.8c0,0,2-0.2-3.4,1.4c-5.6,1.8-2.4-0.2-2.4-0.2l-3.2,2l-4,5.8l-3.4,5.2l-0.8,7c0,0,0.6,0.8-0.8,2.4
					c-1.4,1.4-4,5.8-4,5.8l-5,5.6l-2.6,3.4l-2.4,1.4l-3,5.8l-2.8,10.8c0,0,0,3.8,0,5s-0.8,1.2,0.6,3.4c1.4,2.4,5,9.8,6.6,11.2
					c1.4,1.4,4.4,4.6,4.4,4.6l4,10.8c0,0,1.6,7.2,1.8,8.2c0.2,0.8-10.8,4.8-10.8,4.8s-6.8-20.8-6.8-21.8c0-0.8-0.2-9.4-0.2-9.4
					l-3.4-11l-2-3.8l-1.8-5.2l-2.4-2.4l-3.4-0.6c0,0-1.2-0.6-2.6,2s-5.4,8.2-5.4,8.2s0.8,4.4,0.8,5.2s0.2,10.2,0.2,10.2l0.6,5.6
					l6.2,15.6c0,0-2,3.4-2.4,5.2c-0.2,1.8-0.6,3.8-0.6,3.8l-0.2,10.4l0.8,12.2c0,0-0.2,7.2-0.4,8.2c-0.2,0.8-2.2,10.8-2.2,10.8
					l-8.6-9.8c0,0-1.8-9-1.8-10.4s-2.2-10.8-2.2-10.8l-2.4-22.2l0.8-14.8c0,0,1-7.6,1.4-8.4c0.2-0.8,3.4-10,3.4-10l2.8-8.8l3-7
					l8.6-5.6l3-3.2l2.6-3l8.4-4l4-4l1.6-6.8l2.6-2.6l3.2-4.4c0,0,0-1.4,0.6-2.6s1.8-3.8,1.8-3.8l1.8-3.4l-0.2-2.6l2-3.2l6.8-4.2
					l5.6-2l7-3l4-5.2l2.6-5.6l2.2-6.4l0.6-3l2.4-3l3.2-3l3-4.4l11.2-8.6l-1.4-2.6l-11.8,9.4l-6.8-5.6l-3.4-2l-1.4-3.2l1.4-3l7.4-6.6
					l2.4-11l-2,1.2l-3,9l-7.4,7.2c0,0-3.2,1.8-4,1.8s-6.2-1.8-6.2-1.8s-1.2,0.2-2.4-2c-1.2-2.4-2.4-5-2.4-5l1.8-4.4l3.4-3.2l7,1
					l2,2.4l2.4,2.6l2.4-2.4l1.2-5.8l-2.4-3.4l-5-0.8c0,0-7,0.2-7.8,0.4s-7.2-1-7.2-1s-1.4,1.2-3-0.2c-1.4-1.4-2.4-1.8-2.6-3
					s-0.6-4.6-0.6-4.6l-1.4-4.4l-2.6-3.4l-2.6-2l-4-1.2l-4-0.8l-0.2-7.6l-4.6-2l-8.2,3.6c0,0-3.4,2.4-5.6,0.8
					c-2-1.4-4.4-3.4-4.4-3.4l-3.8-5.8l-2.4-5.6l-0.4-10.4l3.4-5.2l-5.2-2.6l-5.2-2.6c0,0-6.4,0.2-7-0.8s-0.2,2-0.6-0.8
					c-0.2-3,0.4-7.6,0.8-9c0.2-1.4,1.8-4.4,1.8-4.4l3-2.6l3.4-3l3.8-5v-4h2l0.2-5.6l-2.4-1.2l-2.4,1.4l-4.4,1.2l-3.4-0.8l-2.2,11.6
					l-2.8,12l-3.6,8.4l-3,6.4l-1.8,5.8l-1.4,2.4l2.2,8.4c0,0-0.2,7-0.4,7.8s-4.2,9.4-4.2,9.4h-4.4h-2.6h-3l-4.4,3
					c0,0-1.8,2.4-1.8,4.6s-1.4,7.8-1.6,9s-4,7-4.6,8.4s-4,4.4-4,4.4h-4.4l-3.2-4.6l-2.6-3.2c0,0-7.6,3.4-8.4,5.6
					c-0.8,2.4-3.2,4.6-3.2,4.6l-4.6,3.8l-6.2,0.2c0,0-2,1.8-3,0c-0.8-1.8-5.8-4.6-6.2-6.6c-0.2-2-1.6-11-1.6-11l4.6-4.4l3.2-2
					l10.2-1.4l0.6-3.8l4.6-1.2l6.4-1.4l3.2-3.4l-1.4-5.8l-3.4-3.2c0,0,0.6-2.6-3.4,1.2l-4,2.6l-12.8,2.4l-7.6-0.4v-5l-4.4-2.6
					l-6.4-1.8l-5.2,0.6l-6.4-4l-1.4,0.8l-5.8,1.8l-3.2-2.6l-3.8-4l-3.4-3.2l-4.2-8.4l-1.6-7.2l4.4-2.6l2.6-2h2.4l1.8-1.8l2.4-6.8
					l3-2.4l8.4-4l4.6-3.2l5-3.2c0,0,3-0.8,3-2.6s-1.8-5-1.8-5l-3-5.8h-4.4h-2.4c0,0-3.4,5.6-6,8.2s-2.4,3.8-5,5.2
					c-2.6,1.4-0.2-0.2-2.6,1.4c-2.4,1.8-3.8,1.4-3.8,1.4l-4.2-7l-2.6,1.4h-3.2l-3.2,2l-1.8-8.8l-0.2-10h-2.4h-4.6l-4.6,6.2l-3.4,1.6
					l-1.8-1.4c0,0,0.4-1.6,0-4s1.4-6.8,1.4-6.8s0.4-0.8,0.8-2.4c0.2-1.6,0.2-4.2,0.2-4.2l2.4-3l3.4-3.2l5-3.4l2.6-2.4l3.8-2l3.4-2.8
					l4.2-4l-1.2-2.8l-6.6-2.6h-2.8l-2.6,4.4l-8.2,3.2c0,0-0.4,1.6-3,2.4s-5.4,2-5.4,2l-9.4,1.4l-4.6,0.4l-1.8,1.2l-3.2-3.4
					c0,0,0-2.4,0-3.4s1.4-3.4,1.4-3.4l2.4-1.2l6.6-2.8l3-2c0,0,1.4-2.8,0.2-4.2c-1.2-1.6-1.2-1.6-1.2-1.6s-0.8,0-3.8,2.4
					s-3,2.4-3,2.4l-5.8,0.4l-6.6-2.2l-2.8-0.2l-5.8,2.4l-3,4.6c0,0-1.2,1.6-1.8,3c-0.8,1.6,0.4,2.4-3,4.6c-3.4,2.4-5.4,4.4-5.4,4.4
					l-5.4,1.2l-3.4-0.2l-6.2-0.2c0,0-2.8-1.2-4.2-1.8c-1.4-0.8-4-2.6-4-2.6s-1.8-0.8-3.2-2.6c-1.2-1.8-2.8-2.4-2.8-5
					c0-2.8-2.8,1.2,0-2.8c2.6-4,4.2-5.6,3.8-6.8c-0.4-1.2-2-2.6-3.2-2.6s-6.2,1.6-6.2,1.6l-1.8,1.2l-5.8,2.4l-68.6,40.8l-35,12
					c-3.4-13.6-0.2-27,6-39.8l1.4-9l-15.8-2l-7.4-8.8l-6.4-9.4l-15.8-3l-9.4-7.4l-10-4c-36.2,19.4-47.2-5.4-47.2-5.4l-6.2-7.4
					l0.2-0.2l-14.2-16.4l-6.4-16.4v-23.8l-28.8-19.8v-8.8l-8.8-3.4l-3.4-14.4l7.8-7l-12-10h-9.4l-4.6-11l4-14.4l10-6.4l4.6-13.4
					h-8.4l-6.4-7.4l-1-12l7.4-5.4l-3.4-7l-6-11c0,0-8.8-5.4-7.4,0s-4,11-4,11c-14.4-1-13.4-9.4-13.4-9.4l0.4-6.4l4-4l6-6.4l2-12
					l-7.8-6.4l-4.6,12.4l-12-4.4c0,0-2,6-11,4s-4-15.8-4-15.8l5-8.4l5,8.4l14.8-3.4v-6.4l6.4-11c0,0,0-4.6,0-7s7.4-11,7.4-11
					l12.4-15.8l10-2.4l-12.4-21.8l-8.4,6.4l-7-3l-10,7l-7.8-4.6l6-8.8l-11.4-4.6l3-6l16.4,0.4v-5l-19.8-18v-28.2l-11-1h-36.8
					l-15.4-11l-0.4-15.4l8.8-2.4v-3h-18.8l-5-8.8l-6.4-16.4l-14.4-7.4l-10,6l3,8.8l-3.4,21.8l-9.4,2.4l-13.4-20.4l-10-5l-10.4-19.8
					l-8.4,4.6v13.4l-5.4,12.4l-19.4,9.4l-12-7.4l-12-2l-25.8,16.8l-10-2.4l-19.4,5.4l-8.4-9.4l-6.4-13.8l7.4-7.4l7,5l2,9.4l8.4-1.4
					l2-6.4l-11.4-19.4l7-8.8l16.4,16.2l13.4-6l-16.8-26.4l9.4-7l27.2,21.8l6-4.6l-32.2-29.2h-10.4l-14.4-16.4l-4.6-12.4l8.4-6.4
					l-5-7.8l-13-3.4l-8.4,6h-7l-7.4,4.6l-8.4,6.4l-13.4,1l-11.4,8.8l-11-8.8l-8.4-2.4l-6,3.4l-9.4,13.8l-23.8,4l-11.4-18.8
					l-26.8,23.8l-11.4-2l-13.4,4l-26.8-10l-9.4-7.4l-13,6l-14.4,2.4l-13.8-3l-18.8,11v8.4l-24.8,6l-49.6-4.6l-29.8-8.8l-28.6-17.4
					l-6-11.4l-12-7.4l-6-8.8l1.4-7l18.8-9.4l-11.4-1l-3-11l-9.4-6.4l-34.6-31.4l-9.4,6.4l-9.4-5.4v22.8l-13.4,7.8l-11,3.4l-7.4-14.8
					l-11-7.4l-11-2v14.8l-9.4,0.4l-3,11.4l7,8.8l-10.4,12.4l-4.6,11.4l-18.4,5l-7-6l-8.8,8.4l-1,7.4l10,10l-27.2,13l-13.8,11
					l5.4,2.4l-3.4,21.8l9.4,14.8l-101.2,60.6l-54,26.4l-162.2,65l-120,25.4l-113.6,12l-147.4,13.8l-174.6-18.4l-147.8,5h-38.8
					l-35.2-7.4h-30.8l-75.6-16.4l-72.4-21.8l-35.2-7.4l-10.4-8.4h-10l-9.4-5l-4-11l-20.8-5l-22.8,7.4l-56.6-19.4l-55-26.4
					l-26.4-12.4l-33.8-17.4l-3.2-1.8l-11.6-13.6l-4.2-4.8l-1-8.6l-6.8-8.2v-18.6l-8.2-14.6l-10-8.4l-1.4,8.4l3.8,14l-10.4,6.8
					l-4.2-3l-15.2,3l-1-3.4l-5.6-2.4v-3.2l7.2-2.4l5.6-3.8l-3.8-4.8l-7.2,1.4l-7.6-1.8l7.6-8.2l12.8,3.4l7.2,6.2l4.2-3.8v-8.2
					l-8.6-6.2l-12-4.2l-27.6,8.6l-6.8,8.2l-1.4,10l-25-13.2l-20.2-13.6c0,0-0.2,0.2-0.4,0.2l-110.6-71.6L245,853.1l-81-84.2
					l-36.2-23.8l-53.4-46.2l-59.8-23.2l-43.8-35.8v-15.8l-9.8-14.8v-3.8h-6l3.4,9l6.8,10l-1.4,14.8l3.4,6.8l-1.8,7l-31-15.4
					c0-3.6,0.2-8.6,0-10c-0.2-2.4-11.2-10.4-11.2-10.4s4.2-4.2,4.2-8.6c0-4.2-4.2-3.4-4.2-3.4l25.6-8.6l24.8,2.4v-2.2l-24.8-3l-29,9
					l-21,17.4l-159.8-60l-151-55.6l-97-27.6l-31.4-27.6v2337.6h4181.2v-0.4h303L3942.6,1911.3z"/>
			</g>
			<path style="fill:#E0DAD5;" d="M3362.6,1633.5c0,0,64,35.2,113,21.8l-12,43.6l-50.6,22.2l-50.6-11l-15.6-47.8L3362.6,1633.5z"/>
		</g>
		<g>
			<path style="fill:#E0DAD5;" d="M580,1032.9C580,1032.7,580,1032.7,580,1032.9c0.2-1.2,1.2-2,2.2-1.8c0.4,0.2,39.8,7.4,72.6,29.6
				c33,22.2,43.4,50,43.8,51.2c0.2,1-0.2,2-1.2,2.4c-1,0.2-2-0.2-2.4-1.2c-0.2-0.2-10.4-27.8-42.4-49.2
				c-32.4-21.8-70.8-28.8-71.2-29C580.6,1034.5,580,1033.7,580,1032.9z"/>
		</g>
		<g>
			<path style="fill:#E0DAD5;" d="M1727.2,1308.9c-1.2,0-2-0.8-2.4-2l-6.4-40.4l-8.6-4.4c-1.2-0.6-1.8-2-1.2-3.4
				c0.6-1.2,2-1.8,3.2-1.2l10.6,5.6l6.8,43C1729.6,1307.3,1728.6,1308.5,1727.2,1308.9C1727.4,1308.9,1727.4,1308.9,1727.2,1308.9z"
				/>
		</g>
		<g>
			<path style="fill:#E0DAD5;" d="M1714,1308.3c-1.4,0-2.2-1-2.4-2.4l-3-36.2c-0.2-1.4,0.8-2.6,2.2-2.8c1.4-0.2,2.4,0.8,2.6,2.4
				l3,36.2c0.2,1.4-0.8,2.6-2.2,2.8C1714,1308.3,1714,1308.3,1714,1308.3z"/>
		</g>
		<g>
			<path style="fill:#E0DAD5;" d="M1438.2,1335.3c-1.4-0.2-2.2-1.2-2.2-2.4l0.2-36.2c0-1.4,1-2.4,2.4-2.6c1.4,0,2.4,1.2,2.4,2.6
				l-0.2,36.2C1440.8,1334.3,1439.8,1335.3,1438.2,1335.3C1438.4,1335.3,1438.2,1335.3,1438.2,1335.3z"/>
		</g>
		<g>
			<path style="fill:#E0DAD5;" d="M1270.6,1323.1c-1.4-0.2-2.2-0.8-2.2-1.6l-1-22.2c0-0.8,1-1.4,2.4-1.4s2.4,0.8,2.4,1.6l1,22.2
				c0,0.8-1,1.4-2.4,1.4H1270.6z"/>
		</g>
		<path style="fill:#E0DAD5;" d="M2401.6,818.9l-1.8,5v4.4l4.4,1.4c0,0,1.8-0.6,3-2.4c1.4-1.8,3.8-2.4,1.8-4.4
			c-1.8-1.8,0,0.6-1.8-1.8c-1.8-2.4,3-8.2,3-8.2s-1.4-6.2-3-8.2c-1.8-1.8-5-0.6-5-0.6l-5.6,5c0,0,0,4.4-1.4,6.2
			c-1.4,1.8-2.4,6.2-2.4,6.2l2.4,3.8L2401.6,818.9z"/>
		<circle style="fill:#E0DAD5;" cx="3589.8" cy="1847.9" r="3.4"/>
		<circle style="fill:#E0DAD5;" cx="3611" cy="1788.5" r="3.4"/>
		<circle style="fill:#E0DAD5;" cx="3482.4" cy="2011.7" r="3.4"/>
		<circle style="fill:#E0DAD5;" cx="3454" cy="1845.9" r="3.4"/>
		<circle style="fill:#E0DAD5;" cx="1801.4" cy="1351.9" r="3.4"/>
		<circle style="fill:#E0DAD5;" cx="1756.2" cy="1508.1" r="3.4"/>
		<circle style="fill:#E0DAD5;" cx="1643.2" cy="1618.9" r="3.4"/>
		<circle style="fill:#E0DAD5;" cx="1643.2" cy="1598.1" r="3.4"/>
		<circle style="fill:#E0DAD5;" cx="1634.8" cy="1621.5" r="3.4"/>
		<circle style="fill:#E0DAD5;" cx="1634.8" cy="1599.9" r="3.4"/>
		<circle style="fill:#E0DAD5;" cx="1933.4" cy="1342.3" r="3.4"/>
		<circle style="fill:#E0DAD5;" cx="2729.2" cy="1483.3" r="3.4"/>
		<circle style="fill:#E0DAD5;" cx="3613" cy="1918.9" r="3.4"/>
		<path style="fill:#E0DAD5;" d="M3126.4,1090.1c-2.4,4-10.2,16.6,4.6,13.6c14.8-3,25,23.8,14.8-3
			C3135.6,1073.9,3128.8,1086.1,3126.4,1090.1z"/>
		<path style="fill:#E0DAD5;" d="M3097.2,1022.7c3.4,3.4,6.8,11.6,6.8,11.6l13.6,8.8c0,0,2.4-3.4,18.6,6.8
			c16.4,10.2,24.4,20.6,24.4,20.6h15.8c0,0-6.8,15.4,11.4,3.4c18-11.8,6.8-7.2,18-11.8c11.4-4.6,0,0,0,0l11.4-4.6
			c-11.4-23.8-4.4-16.8-4.4-16.8l-7-6.8c0,0-1.2-2-16.8-4.4c-15.8-2.4-15.8-2.4-15.8-2.4l0,0l-1.8-14.8c17.6-15.8,9.6-3.4,17.6-15.8
			c7.8-12.4,23.8,10.2,7.8-12.4c-15.8-22.6-5.6-15.2-5.6-15.2l-19.8-14l28.6-28.8c0,0-2.4-2,0-14.8s5.6-32,0-42.2
			s-16.8-19.2-16.8-19.2l-26-5.6v-27.6l7.8-26.8l6.2-10.2c0,0-9.6-22.6-14.2-15.8s-7.2,22.6-7.2,22.6s-7.6-3-13.6,17.2
			c-6.2,20.2-13.6,26-13.6,26H3111l-13.6-17.2l-6.8-34l-12.2-22.6l-11.6-16.8v-12.4l-27,7.8l-24.4-32.8l-25.8-29.8l9,64.6
			c0,0-45.4,7.8-26,26c19.2,18,19.2,18,19.2,18l7.8,22.8c0,0-3.4,0.2,15.2,13.2c18.8,12.8,44.8-23.4,18.6,12.8
			c-26,36.2-18.6,38.4-18.6,38.4s21-28.2,24.4,0s18,12.4,3.4,28.2c-14.8,15.8-13.6,6.8-14.8,15.8s-46.4,6.8-1.2,9s45.4,2.4,45.4,2.4
			l26-5.6l3.4,15.6l-5.6,15.2l21.4,13.4c26,18,26,18,26,18s19.6,6.8,6.4,14.8c-13.2,7.8,6.2,9-13.2,7.8c-19.4-1.2-2.4-10.2-19.2-1.2
			s-16.8,9-16.8,9L3097.2,1022.7z"/>
	</g>
	<path style="display:inline;fill:none;stroke:#FFFFFF;stroke-width:4;stroke-miterlimit:10;" d="M437.6,1235.5
		c0,0,99.4-85.2,133-96.2c0,0-125.2-82.2-168.6-108.6"/>
	<path style="display:inline;fill:#FFFFFF;" d="M1012.4,1285.5l-4,11.8l-2.2,8.4v7.4l-1.6,11.2l-3,13.2l-2.2,6.6l-7.2,1.6h-8.8
		l-4.6,5.2l-4.6,5.4v4.2v6v7.2v9v10.4l-7.4,15l-8.4,11l-10.6,11.2l-16.4,7.4c0,0-8,3-10.4,3.8c-2.4,0.6-16.8,3.8-16.8,3.8l-15,3
		l-23.4,4.6l-17,5.4l-20.6,4l-6.2,8l-6,5.6l-4,9.4v5.6l-2.4,7.8l-1.8,6.8l-11.8,6.8h-8.2h-2.4v6l-3,4.4l-7.8,15.8l-6.2,6.2l-9,13.2
		l-8.8,11.8l-7.6,8.4l-6.6,4l-8.4,5.2l-3,5v11.8l3,7.2l7,13.6l3.4,11.6v7.4l2.2,9.4l2.2,8.2v23.4l-1.8,5.6l12,15l-5.4,5.2l-9.4,12
		l-9.4,6.8l-8.4,7.2l-1.4,5l2.8,3.8l7.2,4.4l5.8,4.4l8,4l7.6,8.4l4,4.2l-1.4,8.2l-10.2,8.8l-9.4,5.2l-7.2,5.6l-1.4,5l5.6,4l7.6,3.4
		l12,4.6c0,0-0.8,2.8,0,3.8c0.8,0.8-2.8,12-2.8,12l-4.8,5.2l-4.6,6.2l-2,6.8l2,2.4l1.4-2.8l3.2-5.6l4.8-8.2l2.8-6.2l4.6-8.2l0.2-6.6
		l-4.8-3.8l-5.8-2.8l-9.8-2.4l-4-4.6c0,0,1.8-1.8,2.4-2.8c0.6-0.8,6.6-6.2,6.6-6.2l6.8-3l4-3.4c0,0,4.6-4,5.4-5c0.8-0.8,4-5.6,4-5.6
		l-6.8-8.8l-6.6-10.4l-5.6-2.8l-6-4.6l-7-2.6l-1.8-5.4l4.6-5.4c0,0,9.8-9.4,10.4-10.4c0.6-0.8,6-5,6.4-6c0.4-0.8,2-3,2.8-4
		c0.8-0.8,4.6-5.6,4.6-5.6l2.4-8.2l-4.4-6l-6.6-5.6l-2.2-4.4c0,0,3-6,3.2-7.8s-0.4-4,0-7.2s-1.2-13.6-1.2-13.6l-3.6-17.2l-2.6-12.4
		c0,0-3.4-3.8-3.8-5c-0.2-1.4-3.4-7.2-4-8.8c-0.6-1.6-5-9.4-4.6-11c0.2-1.6,1.2-10.6,1.2-10.6s3-3,3.4-4.4
		c0.6-1.4,10.4-7.2,10.4-7.2l7.6-8.4l8.2-10.6l12-13.2c0,0,6.8-6.6,6.6-7.8c-0.2-1.4,6-11.6,6-11.6l5-11.8l4.6-3l10.4-2.8
		c0,0,4.4-3.8,5.6-4.6c1.4-0.8,7.2-11.2,7.4-12.8c0.2-1.6,3.4-9.4,3.4-10.4s0-6.2,0-6.2l8.8-13.4l21.4-4.6l19.8-4.4l10-0.8l21.2-5.6
		l11-3l15-1.6c0,0,15.8-6.2,18-7.2c2.2-0.8,11-4,11-4l6.6-6.2c0,0,15.8-11.6,16.8-13.6c0.8-2.2,10.6-11.8,10.6-11.8
		s0.6-12.8,0.6-14.2s-1.6-13.2-1.6-13.2s1.8-6.2,2.2-7.2s3.4-2.8,3.8-3.8c0.2-0.8,5-4.6,5-4.6l5-1.8l5.2-3.8l2.4-5.2l1.4-14l0.6-9.6
		l-0.6-7.2l2.8-10l6-12.4l3-8.2l2.8-6.8l1.4-5.6l-11.6-3.8"/>
	<g style="display:inline;">
		<polygon style="fill:none;stroke:#FFFFFF;stroke-width:4;stroke-miterlimit:10;" points="567.4,1154.5 549.4,1177.7 496.4,1210.7 
			491.2,1224.1 502.8,1223.1 513.2,1233.3 527.4,1233.3 558.2,1230.1 586.2,1227.5 623.8,1224.9 642.4,1221.1 649.8,1213.1 
			659.2,1217.3 691.8,1216.7 686.4,1206.5 		"/>
		<polyline style="fill:none;stroke:#FFFFFF;stroke-width:4;stroke-miterlimit:10;" points="649.8,1213.1 589,1186.1 557.8,1188.9 
			502.8,1223.1 		"/>
		<polyline style="fill:none;stroke:#FFFFFF;stroke-width:4;stroke-miterlimit:10;" points="530.8,1205.7 534.4,1209.3 
			613.6,1202.5 616.2,1198.1 		"/>
	</g>
	<path style="display:inline;fill:#FFFFFF;" d="M833.8,1249.5l11.4,4.6l-13.6,11l-63,1.8l-12.8-1.8l-27-13.4l-121.4,8.2l-44.8,2.2
		c0,0-21.8,1.6-37,12.8c0,0-35.8,28-14.2,80.8c0,0,18,36.4,23.4,44.8c0,0,4.2,9.6-6,4.4l-10.2-6.8l-3.4-3h-3.6l-2.8,2.4
		c0,0-0.8,18,10,28l13.4,11.2l11.2,8.8l29.4,19l44.2,28l9.6,9l10.4,10l15.2,15l14,14.2c0,0,5.6,3.4,4,9.6l-8.8,42.6l-10.4,9
		l-10.6,8.4c0,0-22.8,28-24,37c0,0,12.2-30.4,21-37.2l20.8-17.4l10.6-41.4c0,0-4-10-13.4-17.2l-27.4-27.8l-28.6-23l-26.8-15
		l-24.2-14l-19.6-12l-15.2-11.6c0,0-10.6-8.4-13.4-16.4v-19v-8.8c0,0,0.8-6.6,0-7.4c-0.8-0.8,1.8-11.2,1.8-11.2l-2-10l-4.2-10
		l-1.8-21.4v-14.2l2.2-17.2c0,0,15.2-30.2,34.8-36.2l19-3.8l11.8-1.6l9-0.6l1.8-3.4l3-4.4l41-3c0,0,40.4-4,42.2-4.2
		c1.6-0.2,25.8-3,27.4-3s20.2-1.6,20.6-1.6c0.6,0,12,3,12,3l10,5.8l10.2,5.4l12,5.6l14.8,5l10,1.8l26.8-0.2l18-0.2l5-2.4
		L833.8,1249.5z"/>
	<path style="display:inline;fill:#FFFFFF;" d="M2153.4,1174.5l-4,2.4v4.4v6.2l2,3.4l2.8,2.4l3,1h4h3l2.8-2.4l4.6-2.8l3.4-1.8l4-0.4
		l3.4,1l3,1l3.4,1l4.6,0.6c0,0,1.8-1.4,2-2.4s1-2.8,1.4-3.8s2-3.8,2-3.8l3-1.4l3-0.2l2.8-0.2l2.4,1.4l2,2.4c0,0,1.6,1.6,2.4,1.8
		c0.8,0.2,2.4,0,2.4,0l1.6-1c0,0-0.4,0,1-0.6s3.4-2.4,3.4-2.4l2.4-0.8l2.8,0.4l2.4,2c0,0,1,0.2,1.4,2.4c0.4,2.4,3,7,3,7l3.4,3
		l5.2,1.6l7.2,2.8l8.2,4.2l4.8,4.8l2,2.8l1,2.4l2.4,2l8.4,6.4c0,0,1.4,3,2,4.2c0.8,1,6.8,7.4,6.8,7.4l2,3.8l1.4,6.2v9.6v6.8l-2,5.6
		v5.4v5.4l3.8,4.4l5.8,5l-4.8-7.8l-1.4-5.8l0.6-7.8l1.4-5.2l0.4-8.2l-0.2-9.2c0,0-1.6-4.2-2-5.2s-0.6-2.8-1.4-3.8
		c-0.8-1-3.8-5.4-3.8-5.4s-1.4-2-1.4-2.8c0-0.8,1-2,1-2l3.4-1.4l4.8-0.6l3.8-2.4l7.2-3l7.2-1.4l6.4,0.6l8.2,1l8.8,4.4l9.4,5.6l4.4,6
		l6.2,6.2l3.4,7l2.8,7.4v8.2l-1.8,8.8l-1.8,10.2l0.6,8.2l-0.2,11.8l0.2,6.8l1.8,5.2c0,0,0,3.4,1.4,5c1.4,1.4,9.2,6.2,9.2,6.2h6.2
		l4.8,1h5.2l4,1.6c0,0,3.4,0.4,5.8,0.8c2.4,0.4,7.2,3,7.2,3l6,4.2l5.4,4.8l5.4,5.2c0,0,5.2,4.4,6,5.2c0.8,0.8,8.4,7.4,8.4,7.4
		s5,4.8,5.6,5.4c0.6,0.6,5.2,4.6,6,5.6s3.8,4.2,4.8,4.8s8.2,4.6,9.6,5.6c1.4,1,6.2,4.4,7.2,4.4s7.4,4.2,7.4,4.2l7.2,1.6
		c0,0,7.2,0.4,8.8,0.8c1.4,0.4,15.8,4.4,18,12l0.8,6.2l1.4,7.4v7l1.4,0.8l1.4-1.4v-5.2v-7.8l1-4c0,0,0.4-0.6,1.8,1.4
		c1.4,1.8,4.8,3.4,4.8,3.4l3.4,1.6l5.2,2c0,0,4,1.4,4.4,1.8c0.4,0.6,5.4,4,5.4,4l4.8,3.4l6.8,4.4l2.8,3.4l3,2.8l-1.4,5.2
		c0,0,0.2,12.2,0.2,13.2c0,0.8,0.4,13.2,0.4,13.2s-0.8,11.8-0.8,12.8s-1.4,12.8-1.4,12.8s0.2,4.6,0.6,5.4c0.4,0.8,1.6,5.2,2.4,6.4
		c0.8,1.2,3.4,1.4,3.4,1.4s1.6-5.2,1.6-6.2s-1.4-11.2-1.4-12c0-0.8-0.2-14.8-0.2-14.8s2.4-7.8,1.6-8.8c-0.6-1.4-0.4-3.8,0.2-8.4
		c0.6-4.8,0.8-8.8,0.8-8.8s2.4-6.8,2-7.4c-0.2-0.8-2.4-4.4-2.8-5s-2-3-3-4s-3.4-3-3.4-3s-3-1.8-3.8-2.8c-0.8-0.8-4-3-4.6-4
		s-2.4-1.6-3-2s-2.4-1-3-1.6s-3.8-3-4.4-3s-4.8-2.8-4.8-2.8s-1.8-0.4-3-0.8c-1-0.4-4.6-2.4-5.6-2.8c-1-0.4-2.4-0.8-3-1.8
		s-1.4-1.4-1.8-2.8c-0.6-1.4-2-1.6-3-3.4c-0.8-1.6-1.4-1.4-2.4-3.4c-1.4-2-2.4-3-2.4-3s-1.4-0.8-2.4-1c-0.8-0.2-4.2-1.4-4.2-1.4
		l2.2-4.8l1.8-3l2-3.4l2.4-1.8c0,0,1.4-0.4,1.8-0.6c0.4-0.2,2.4-0.6,2.8-0.6c0.4,0,4.6-1.4,4.6-1.4l3.4-0.6l2.2-0.6l-0.8-1.8
		c0,0-5,1-6.2,1.4c-0.8,0.2-2,0.4-3.4,1s-6,2-6,2l-4,1.8l-2,1.6l-7.2,5c0,0-1,0.2-2.4,0c-1.4-0.2-1.8-0.4-3-0.6
		c-1.4-0.2-6.8-0.2-7.8-1c-1-0.8-5-1.6-6.2-2.2c-1-0.6-5.2-2.2-6.2-3c-0.8-0.8-3.4-2.2-4-3c-0.6-0.8-7.2-4.2-7.2-4.2s-5-6.4-5.6-6.8
		c-0.6-0.4-1-5-7.2-6.2c-6.2-1.4-13.2-8.8-13.6-9c-0.4-0.2-8.4-6-8.4-6s-5.2-4-6-4.6c-0.6-0.8-6.4-3.2-8-4.6c-1.6-1.4-4-2.6-6.2-4
		s-10.6-3-11.8-3.4c-1.4-0.2-8.6-2.4-10.6-2.8c-2-0.2-8.2-2-8.8-2.8c-0.6-0.8-4.4-4.2-4.4-4.2l-5.4-9.6l-2.4-10.4l0.6-8.4
		c0,0,0.2-5,0.4-5.6s2.4-5.6,2.4-5.6l2-6l-1.6-15.2c0,0-5-11.6-5.8-13.2c-0.8-1.4-4-5.8-5-7c-1.2-1.4-6.4-6-6.6-6.8
		c-0.2-0.6-6.8-5.8-6.8-5.8s-12.6-8.8-23.8-11.2c0,0-13.6,2.8-14.2,2.4c-0.6-0.2-9.4,2.8-10.4,3c-1,0.2-10.4,3.4-10.4,3.4
		s-5.2,1.4-6.4,0.6s-5.6-3-6.4-3.8c-0.8-0.8-3.4-3-4-4.2c-0.8-1-4-4.8-4-5.6c-0.2-0.8-4.8-4-4.8-4l-5.4-2.6l-4-2l-7.6-2.8l-4.6-3
		l-1.8-5v-3l0.6-4.8l1.8-1.8l1.8-2.4c0,0,0.2-1-0.2-2.4c-0.2-1.4-0.4-1-1-2.4s-1.8-1.6-2.2-2.4s-2-1-2-1.8c0-0.6,0-1.4,0-2.8
		c0-1.4,0-3,0-3l1.4-1.8l-1.4-9.2l0.8-5l0.6-4.2l1.8-3l2.6-2.4l0.8-3.6l-2.4,0.8l-2.4,2.4l-1.8,1.8c0,0-1.8,2.2-2,3
		c-0.2,0.8,0,2.6-0.8,3.4s-2.2,2-2.2,2l-4-0.6c0,0-0.6-2-0.8-2.6s-1-1.6-1-1.6s-1.8,0.8-3.6,1.6c-1.8,0.8-8,3-8,3s-2,1.4-3.2,2.4
		c-1.4,1-3.6,2.2-5.4,3.4c-1.8,1.4-4.8,2.6-5.8,3.2c-1,0.6-5.2,2.8-5.2,2.8s-0.8,2.4-1.8,3c-0.8,0.8-0.8,1-2.4,2.8
		c-1.6,1.8-0.2,2.6-3,3c-2.8,0.2-5.4,0.2-5.4,0.2l-3.8,1.4l-2.4,0.6l-2.8,1.8l-3.2,1.8l-2.8,2.2l-3,1.4l-3.6,0.8L2153.4,1174.5z"/>
	<g style="display:inline;">
		<polygon style="fill:none;stroke:#FFFFFF;stroke-width:4;stroke-miterlimit:10;" points="851.4,1343.9 814,1320.9 788.4,1328.3 
			790.4,1366.5 796,1373.3 824,1370.1 		"/>
		<path style="fill:none;stroke:#FFFFFF;stroke-width:4;stroke-miterlimit:10;" d="M851.4,1343.9l20-2.4l86-8.8l43.6-1.8l29.8,4.4
			l40,16.8c0,0,48.6,24.4,42.4,102.2l6.2,143.2l29.8,32.4l10.6,18.6l8.2,58l1.4,21.2l-8.2,8.2"/>
	</g>
	<path style="display:inline;fill:#FFFFFF;" d="M1501.6,1323.9v-2.8h3.8l3,1.4c0,0,1.4-0.8,1.6,1.4c0.2,2.2,2.2,7.2,2.2,7.2v7.2
		l-1.6,5.6l-0.6,5.6c0,0-3.4,2.4-3,3.4c0.2,0.8,0,4,0,4v10.4l-2.4,6.6v4.4c0,0,0.6,4,0.8,5c0.2,0.8,1.6,6,1.6,6l7.4,7.8
		c0,0,3.4,3.4,5,5s7.4,6.6,7.4,6.6l4.4,4.6l4.6,5l2.8,4v8.4l-2.8,15.2l-1.4,8.8l-1.4,9.4l-2.8,15.2l-3.4,11.2l-5,9.8l-4.6,12.8
		l-5.6,11.4l-4.4,8.2l-2.4,5.2l1.8,21l0.4,3.4l0.4,5.2l1.6,8.4l1.4,6.8l4.4,4.8l5.2,5l1.6,2.4l2.4,2.4l1.4,2.4l-3,5.6l-3.8,8.4
		l-10,12.6l-4.4,5l-9,10.6c0,0-9.4,7-9.4,8.2c0,1-4.8,7.8-4.8,7.8l-3,6.8l-3,8.8l-5.4,9.6l-10.6,26l-5.2,12.6l-4.8,11.2l-3,3
		l-6.2,1.4l-9.2,1.4l-8.8,3l-7,1.8l-6,2.8l-6.8,3l-31.8,18l-12.2,9.4l-8.2,5.8c0,0-7.8,4.4-8.2,5.2s-7.2,6.2-7.2,6.2l-4,3.4
		l-3.4,1.8h-7.2l-7.4-2.8l-5.2-1.4l-6-1.6l-6.6-1.6l-9.8-1.2l-11.6,1c0,0-16,3-23.4,5.4l-11.4-1.4l-7.8-1.4l-8.8-0.8l-9.2-1.4h-8.4
		l-1.8,1.4l-2.4,6.8v6.4c0,0-0.2,3.8,0,6s-0.4,9.8-0.2,10.6c0.2,0.8-0.8,5-1.2,5.6c-0.2,0.6-1.6,3.4-2,5.2c-0.4,1.8-1.4,5.8-1.4,6.8
		s-2,6-1.4,7.8c0.6,1.6,0.8,5,0.8,5l1.4,3l1.4,6l2.4,10.4l1.8,5.2l-0.6,6.8l-2.4,7.8l-3,9.4l-2.2,5.8v6.8l-0.8,8.8l1.4,7.4l2.8,7
		l4,12.6l2.4,4.4l3.4,5.4l2.8,5.2l1.6,3l1.6,4.8l1,4.2l0.6,8.2l2.4,30.8l-0.6,9.4l0.4,6l-0.8,4.6c0,0-2.4,3.4-3,4.8s-4.4,7-4.4,7
		l-4,4.8l-10.6,14.6l-1,1.6l-3.6,1.8l-1.6-1.8l1.6-2.4l3.8-4.6l2.4-3l2.4-2.8l3-3l2.8-3.4l3-5.2l1.6-1.8l1.4-2.8l1.4-5.6l-0.8-9.4
		l0.4-6.2l-1-7.8l-1.4-7.4l-1.8-9.6l-2.4-9.4c0,0-2.4-2.4-2.4-4c0-1.4-2.8-10.4-2.8-10.4s-1.6-5.8-1.8-6.4s-2.4-6.8-2.4-6.8
		s-1.8-5.2-2-6.4c-0.2-1.4-3.2-10.4-3.2-10.4l-1.2-7.6c0,0,2.4-7.8-11.6,0.6l-9.4,3.8l-5,2.8l-6,3.8l-3,4.4l-6.2,8.4l-4,6.8
		l-6.4,9.8l-5.8,8.8l-8.6,8.8l-2.8,7.4l-1.6,6.8c0,0-3,4.8-3,6c-0.2,1.4-3,7-3,7l-3,5l-2.4,4.4l-2.4,3.4v7.8l-1.4,12.8v10.8
		l-2.4,5.4l-4.6,2.4l1-6l1-10l-0.8-6l1-10.4c0,0,1-8.8,1.4-10c0.2-1.4,3-11.4,3-11.4s2.4-2.4,3.4-5c1-2.4,3-7.2,3-7.2l4-4.8l2-5.4
		c0,0,4.4-4,4.6-4.6c0.2-0.6,3-4.8,3.8-6c0.6-1.4,8.4-9.6,8.4-9.6l9.2-13.6l3-6.8c0,0,1.4-1.4,2.8-4c1.4-2.8,3-3.8,3.8-5
		c0.8-1.4,2.4-4.6,3.8-5s6.2-3.4,6.2-3.4l13.2-7.2c0,0,5.6-5.2,6.2-5.6s5.4-3.4,6-4s4.6-10.6,4.6-10.6l2.2-15.6
		c0,0,1.8-15.2,1.8-16.2s-0.8-5.6-1.4-7.8c-0.4-2-3-11.6-4.6-13.8c-1.4-2.2-1.4-0.8-1.6-3.4c-0.4-2.8,1.4-13.6,1.4-14.2
		c0-0.8,2-20.6,2-20.6l1.2-18.6c0,0-1-6-1.2-6.8s-0.8-7.4-1.2-9.6c-0.4-2-2-8.4-2-8.4s-3-11.8-3-13.2s-1.6-11.4-1.6-11.4l-1.4-6.2
		l-1.4-11.6l1.8-8.4c0,0,2.4-3.8,3-4.6c0.6-0.8,6.8-10.4,6.8-10.4l5.6-5l9.6-6.2l4.4-2.8l7.8-5.2l4.6-3.8l3.4-1.4l2-2.4l1.6-1.4
		l4.2-0.6l6.4,0.6l5.4-0.4l6.8,0.4l2.6-1l1.8-1.4l1.8-3.8l2.4-0.8l7,2c0,0,4,1,5,1s4.8,0,4.8,0l4.8-0.6l4.6-3l5-3.4l4.6-2.4l6.8-1.4
		l7.2-0.4l5.8-2.4l4.2-2.8l3-4.6l4-9.4c0,0-0.6,0.2,2-1.8c2.8-2,7.4-5.4,8.2-5.8c0.6-0.4,4.8-5.6,6.2-7.2c1.4-1.8,6.8-6.4,6.8-6.4
		s1.4-3.8,2.8-5.6c1.4-1.8,5-6.4,5-6.4s5-8.4,5-8.8s3.4-7.2,3.4-7.2l3-4.2l2.4-5.2l3.4-4.4l1.8-2.8c0,0,2.4-2.4,5-2.4
		s19.6-2.4,19.6-2.4l14.2-3.4l7.8-3c0,0,7.8-3.8,8.8-4c0.8-0.4,2-1.6,3.4-2.4s5.8-3.4,5.8-3.4l8.2-0.8c0,0,5,1.6,6.8,1.6
		c1.6,0,6.8-0.2,6.8-0.2s1.4-1,2-1.8c0.8-0.8,3-3.4,3-3.4l4.6-0.4c0,0,3.4-0.4,4-0.4s8.4-2.4,8.4-2.4l3-1.6l7.8-11l8.2-15.2
		c0,0,3.8-10.6,4-11.4s4.4-10.2,4.4-10.2l4.8-9.8l2.4-9.2l3.8-18l3.4-9.4l2.4-11.8c0,0,1.8-7.2,1.8-8.4c0-1.2,0.6-7.2,0.6-7.8
		s-1.8-4.4-2.8-6c-0.8-1.6-3-5.2-3.8-6c-0.6-0.8-3.4-4-3.4-4l-5.6-7.2l-5.4-5.2l-7-7.2l-2.4-5.2l-1-9.4c0,0,0.6-4.2,0.8-5.6
		c0.2-1.4,1-6,1-6s-1-3.4-1-4.4c0-0.8,1-6.4,1-6.4l2-8.4l-0.6-5.6c0,0-0.4-4-0.6-5.4s-0.2-3-0.4-4c-0.2-0.8-1.4-3-1.4-3
		L1501.6,1323.9z M1500.6,1538.9c0,0-0.8,0.2-2,0.8c-1.4,0.8-0.8,1.4-1.4,1.8c-0.8,0.6-2.6,3-3,3.4c-0.2,0.6-1.4,1.4-1.6,2.4
		c-0.2,0.8-1.8,1.8-2.4,2.6c-0.6,0.8-2.4,2.4-4,4s0,0-1.4,0.8c-1.4,0.8-3.6,1.8-4.2,2.4c-0.6,0.6-2.8,1.4-4,1.8s-3,1.8-3,1.8
		s-3,1.6-8.4,2.6c-5.2,1-2.6,0.8-2.6,0.8s-2.8-0.6-3.2-0.8c-0.4-0.2-4.8-1.8-4.8-1.8s-5.2-1.4-7-2s-3.4,0.6-5.2,1.4
		c-1.8,0.8-2.2,1.8-3.4,2.6c-1.4,0.8-5.2,2.4-6.2,2.6c-0.8,0.2-3.6,1.8-5.6,2.6c-2,0.8-6.2,1.6-6.8,1.8c-0.6,0.2-6.2,1.8-6.2,1.8
		l-8.2,2l-7.2,1.6l-4.8,1.4c0,0-8.4,1-10.4,1.4c-1.8,0.2-4,1.4-4.4,1.6s-4,5.4-4.2,6.2c-0.2,0.6-3.2,6.6-3.2,6.6l-2.4,6.2l-2,6
		l-3,6.2l-2.8,6.8c0,0-7.4,11-7.8,11.6c-0.2,0.4-5,7.2-5,8s-1.6,5-1.6,5s-9.4,8.8-10,10c-0.8,1.4-5.2,2.4-6.8,3
		c-1.4,0.6-5.2,3.8-5.2,3.8l-8,3.6c0,0-4.6,2.8-5,3.4s-4.2,3.2-4.2,3.2s-10.8,5-12,6.2c-1.2,1-8.4,2.4-8.4,2.4s-9.6,0.4-11.8,0.6
		s-7,1-8.4,1.4c-1.4,0.2-10,1.4-10,1.4l-10.6,2.2l-6.6-0.8l-9.4,2.2c0,0-10.6,2.6-11.6,3s-4.6,2.8-4.6,2.8l-6.8,6.6c0,0-2.4,3-3,4.4
		s-1.8,3.8-1.8,3.8l-5.6,3.8c0,0-3,2.8-3.2,3.8c-0.2,0.8-3,6.8-3.2,7.8s-3,6.8-3.6,7.4c-0.8,0.8,0,10.8,0,10.8s0.2,8.6,0.8,9.4
		s2.4,5,3,6.2s4.8,8.6,4.8,8.6s3,8.2,3.4,9c0.2,0.8,6.8,6.8,7.2,7.2s10.4,4,10.4,4l12,3l15.4,1l11-2.4l6.8-4.6l5.4-2.8
		c0,0,4-2.4,4.6-2.4s5.4,0,5.4,0s1.4,1.4,2.2,2.4s3.4,0.8,3.4,0.8l3-2l7-1.8l3.6,1l2.4,2.2l3.8,2.2l5,3l6.6,2.2l4.2,2.4l7.2,1.8h6.4
		l3.8-2l6.2-4.6l6.6-3.8l9-6.8l9.2-5.8l7-5.8l13.6-9.4l5-3c0,0,6.8-5,8.8-5.8s8-2.2,8-2.2l9.2-1.8l8.8-1.8l7.2-1.8l3.6-4.6l4.4-5
		l6.2-10.4l5-8.8c0,0,5-15.8,5.2-16.4s1.4-3.6,1.6-4.2s1.4-4,1.4-4s-6.2,1.8-6.8,1.8s-3.6,1-4.6,1.4s-3,1-3,1s-3.6,1-4.4,1.4
		c-0.8,0.4-3.8,0-3.8,0l4-2l6.2-2l5.4-2.8l2.4-2.2c0,0,1.4-2.6,0.8-3c-0.4-0.4,0-3.8,0-3.8l3.4-6.8c0,0,5-6.8,5.8-7.4
		c0.8-0.8,5.6-3.6,5.6-3.6l7.2-6.2l8.4-10.4l3.6-3l4.6-6.4l8.8-6.4l3.8-7.2l0.8-5v-6.6c0,0-1-4.8-1-5.6c0-0.8,0-6,0-6l-2-6.4
		c0,0-1.4-11.6-1.6-12.4c-0.2-0.8-0.8-4.6-0.8-4.6v-5l-0.8-7.4l-0.8-4.8l-0.8-5.2l-1.4-4.6L1500.6,1538.9z"/>
	<g style="display:inline;">
		<path style="fill:#FFFFFF;" d="M1081.2,1570.7l22.8,19l2.4,2l0.8,8.4v4l-3.4,5.2l-2,5.6l-3,8.2v8.4c0,0,1,2,1.8,8.2
			c0.8,6,2.4,8.8,2.4,8.8l1,5.2l0.4,7.8l0.8,7.2l-3,5l-11.4,4.4h-3.2h-1.4v-3l-1.4-1c0,0-2.4,0.4-4,1.4s-8.8,4.6-8.8,4.6l-1.6,1.8
			l-4.4-6.2l-5.2-4.4l-3-0.8l-9.2-0.2h-2.4v-2.8l5-1.6l9.4-0.6l3.4-3l5.4-2.8l7-4.8l5.8-5.8l5-4.6l5.2-2.8l2.8-3v-2.4v-10l-1.2-6
			c0,0,0.6-2,1.2-3c0.6-1,1.4-1.8,2.2-3.4c0.8-1.4,2.8-6.2,2.8-6.2s3-5.2,3-6.2s0.8-3.4,0.8-5.6s-3.4-7.2-3.4-7.2l-2.8-1.4l-2.6-0.4
			l-4,0.8c0,0,0-4.2-0.4-4.8c-0.4-0.6-1.4-2-1.4-2h-2.2l-6.2-1.4c0,0,0-0.2-0.6-1.4c-0.6-1-1.4-3.4-1.4-3.4v-2.4L1081.2,1570.7z"/>
		<path style="fill:#FFFFFF;" d="M1108.8,1643.7l0.8,7.8l2,1.8l2.8-1.4l5.6-1.4l1.6-2.2l2.4-3.6c0,0-0.6-4,0-4.8s0-0.8,0-0.8
			l-6.4,1.4c0,0,0.2,0-1.2,0.8s-1.6,1.4-2.2,1.4s-3.4,0.2-3.4,0.2L1108.8,1643.7z"/>
	</g>
	<circle style="display:inline;fill:none;stroke:#FFFFFF;stroke-width:4;stroke-miterlimit:10;" cx="397.8" cy="1028.1" r="6.4"/>
	<polyline style="display:inline;fill:none;stroke:#FFFFFF;stroke-width:4;stroke-miterlimit:10;" points="1515.8,1326.3 
		1516.6,1336.3 1509.6,1362.5 1510.8,1407.9 1485.4,1497.7 1498.4,1560.5 1562.6,1576.7 1715.8,1536.3 1752,1510.7 1771.8,1499.5 
		1791.2,1476.9 1835.2,1473.3 1951.6,1427.1 1964.4,1425.5 1990.6,1425.1 2020.8,1432.7 2089.4,1433.9 	"/>
	<path style="display:inline;fill:none;stroke:#FFFFFF;stroke-width:4;stroke-miterlimit:10;" d="M1714,1385.1
		c-23.4-4.6-47.2-8.4-70.8-11.6c-12-1.8-24.2-3.4-36.2-4.8c-10.2-1.4-25-0.4-33.6-6.4c-3.2-2.2-6.2-4.8-9.6-6.4
		c-6.2-2.8-13-1.4-19.4,0.2c-7.2,1.8-12,2.6-19.6,2c-48.6-4-95.6-13.4-143-24.4c-13.2-3-28.2-0.6-41.8-0.6
		c-15.2,0-30.4-0.2-45.4-0.8c-30.4-1-60.6-2.8-91-4.4c-83.6-4.6-198.2-16.8-273.8-52.8"/>
	<g style="display:inline;">
		<polyline style="fill:none;stroke:#FFFFFF;stroke-width:4;stroke-miterlimit:10;" points="1497.4,1560.3 1474.2,1608.9 
			1470,1625.7 1450.8,1652.3 1413.2,1695.3 1396,1714.7 1385.2,1734.1 1376,1766.5 1371.6,1800.7 1367.8,1824.3 1361,1836.7 
			1320.4,1871.1 		"/>
		<circle style="fill:none;stroke:#FFFFFF;stroke-width:4;stroke-miterlimit:10;" cx="1317.2" cy="1874.3" r="3"/>
		<circle style="fill:none;stroke:#FFFFFF;stroke-width:4;stroke-miterlimit:10;" cx="1230.4" cy="2018.1" r="3"/>
		<polyline style="fill:none;stroke:#FFFFFF;stroke-width:4;stroke-miterlimit:10;" points="1314,1876.9 1247.4,1967.1 1232,2013.3 
					"/>
		<polyline style="fill:none;stroke:#FFFFFF;stroke-width:4;stroke-miterlimit:10;" points="1230.4,2014.9 1226,1960.1 
			1228.8,1926.1 1235.8,1891.5 1308.6,1820.1 1351.6,1782.5 1371.6,1800.7 		"/>
	</g>
	<g style="display:inline;">
		<g>
			<g>
				<path style="fill:none;stroke:#FFFFFF;stroke-width:4;stroke-linecap:round;stroke-miterlimit:10;" d="M2253.8,1125.1
					c0,0,3-2.4,6.8-5.4s6.8-8.8,6.8-12.8s-2.4-9.4-5.4-11.8c-3-2.4-3-6.6,0-9.2c3-2.6,6.4-3.4,7.8-1.4c1.4,1.8,5,3,8.2,2.4
					s8.4,1.2,11.6,3.8s9.6,5,14.2,5.4c4.6,0.4,10.8-0.8,13.6-2.8s6.4-4.8,7.8-6.8c1.4-1.8,7-0.8,12.6,2.4c5.6,3.2,12,5.8,14.2,5.8
					s6.4-0.4,9.8-0.8c3.4-0.4,7-2.4,8.2-4.4c1.2-1.8,1.2-5.2,0.2-7.4c-1-2.2-4.4-8.2-7.4-13.2s-12-9.4-20.2-9.4h-6.2
					c-8-0.2-14.6-3.4-14.6-7.2c0-3.8-2.8-6.8-6-6.4c-3.4,0.2-4.6-1.4-3-3.4c1.6-2.4,3.4-7.8,4.4-12.2c0.8-4.6,4.6-10.8,8.4-13.8
					c3.8-3.2,11.6-6.8,17.2-7.8c5.6-1.2,13.6,0.8,18,4.6c4,3.6,10,12.6,13.4,20l9.4,21.6"/>
			</g>
			<g>
				<path style="fill:none;stroke:#FFFFFF;stroke-width:4;stroke-linecap:round;stroke-miterlimit:10;" d="M2322.4,1150.9
					c0,0,1.8-4.6,3.8-10.2c2-5.6,10.2-9.6,18.2-8.8l17,1.6c8,0.8,16.8,0.4,19.6-0.8c2.8-1.2,8.4-2.4,12.2-2.8c4-0.2,4.4-6.6,1.2-14
					l-35.2-78.8c-3.2-7.2-11.4-9.8-18-5.2l-19.8,13.2"/>
			</g>
			<g>
				<path style="fill:none;stroke:#FFFFFF;stroke-width:4;stroke-linecap:round;stroke-miterlimit:10;" d="M2274,1131.1
					c0,0,0.8-2.2,1.8-5c0.8-2.8,4.8-4.8,8.8-4.6c3.8,0.2,9.4-1,12.6-2.4c3-1.6,10-5.6,15.2-9s9.4-6.2,9.4-6.2"/>
			</g>
			<g>
				<path style="fill:none;stroke:#FFFFFF;stroke-width:4;stroke-linecap:round;stroke-miterlimit:10;" d="M2291.6,1121.9
					c0,0,1.2,2.2,2.4,4.8c1.4,2.6,0.8,6.4-1.4,8.4c-2.2,1.8-3.8,4.6-3.8,6.2c0.2,1.6,5.2,1.6,11.4,0.2c6.2-1.4,11.6-0.2,12,2.8
					s0.8,5.4,0.8,5.4"/>
			</g>
		</g>
	</g>
	<path style="display:inline;fill:#FFFFFF;" d="M2286,1194.9l-1,4l0.8,2.8l3.4,0.8l3.8-0.4l5.8-1.8l0.8-2.4l-0.2-3l-2.8-1.4
		l-2.4,1.6c0,0-2.8,0-3.4,0C2290.4,1194.7,2286,1194.9,2286,1194.9z"/>
	<polyline style="display:inline;fill:none;stroke:#FFFFFF;stroke-width:4;stroke-linecap:round;stroke-miterlimit:10;" points="
		470.6,1507.1 485.4,1531.7 510,1536.3 547.8,1535.9 579.8,1532.5 606,1534.5 641.2,1540.7 656.6,1539.9 652.4,1522.5 648.4,1505.5 
			"/>
	
		<line style="display:inline;fill:none;stroke:#FFFFFF;stroke-width:10;stroke-linecap:round;stroke-miterlimit:10;" x1="583.4" y1="1500.9" x2="507.4" y2="1514.9"/>
	
		<line style="display:inline;fill:none;stroke:#FFFFFF;stroke-width:10;stroke-linecap:round;stroke-miterlimit:10;" x1="500.2" y1="1507.5" x2="494" y2="1411.5"/>
	<polyline style="display:inline;fill:none;stroke:#FFFFFF;stroke-width:4;stroke-linecap:round;stroke-miterlimit:10;" points="
		498.8,1520.3 504,1556.9 514.2,1598.1 509.6,1623.3 489,1649.9 476.4,1639.9 	"/>
	<g style="display:inline;">
		<polyline style="fill:none;stroke:#FFFFFF;stroke-width:4;stroke-linecap:round;stroke-miterlimit:10;" points="653,1525.1 
			658,1541.3 688.4,1564.9 710.8,1597.3 732.6,1605.5 773.2,1601.1 832.4,1566.9 		"/>
		
			<circle style="fill:none;stroke:#FFFFFF;stroke-width:4;stroke-linecap:round;stroke-miterlimit:10;" cx="837.8" cy="1564.7" r="5.6"/>
		
			<circle style="fill:none;stroke:#FFFFFF;stroke-width:4;stroke-linecap:round;stroke-miterlimit:10;" cx="800.8" cy="1746.5" r="5.6"/>
		
			<circle style="fill:none;stroke:#FFFFFF;stroke-width:4;stroke-linecap:round;stroke-miterlimit:10;" cx="806" cy="1768.1" r="5.6"/>
		
			<circle style="fill:none;stroke:#FFFFFF;stroke-width:4;stroke-linecap:round;stroke-miterlimit:10;" cx="812.4" cy="1740.3" r="5.6"/>
		
			<ellipse style="fill:none;stroke:#FFFFFF;stroke-width:4;stroke-linecap:round;stroke-miterlimit:10;" cx="817" cy="1759.7" rx="5.6" ry="5.6"/>
		<polyline style="fill:none;stroke:#FFFFFF;stroke-width:4;stroke-linecap:round;stroke-miterlimit:10;" points="835,1559.3 
			819,1533.7 802.8,1508.9 803.4,1502.1 807.4,1467.9 		"/>
		<polyline style="fill:none;stroke:#FFFFFF;stroke-width:4;stroke-linecap:round;stroke-miterlimit:10;" points="829.6,1549.3 
			830.4,1524.1 837.8,1508.3 839.4,1494.5 845.2,1460.1 		"/>
		<path style="fill:none;stroke:#FFFFFF;stroke-width:4;stroke-linecap:round;stroke-miterlimit:10;" d="M840,1570.3l8.4,23
			l-2.2,22.4l-44.2,66.2c0,0-9.4,15.2-3.8,38l36.4,115"/>
		<path style="fill:none;stroke:#FFFFFF;stroke-width:4;stroke-linecap:round;stroke-miterlimit:10;" d="M799,1721.7
			c0,0,9.6,15,37.6,20l0.8,3.4c0,0-22.6,11.6-17.4,41.6c0,0-18-21.2-39.6-19C780.4,1767.5,801.2,1749.9,799,1721.7z"/>
	</g>
	<path style="display:inline;fill:none;stroke:#FFFFFF;stroke-width:4;stroke-miterlimit:10;" d="M844,1561.1l18-5.8l157-13.4
		l85.8-14.6l186.2-1.2l160,4l75.4,2.4l21,12.8l88.2-6.4l4-20.4l23.8-22.2l59.2-52.8c0,0,56.6-0.8,60.6-1.4c4-0.6,19.8-3.4,19.8-3.4
		l20.4-13.4l47.2,1.8c0,0,29.2,13.4,27.4,32.6l-1.2,21.6l-0.6,28.6l8.2,16.4"/>
	<polyline style="display:inline;fill:none;stroke:#FFFFFF;stroke-width:4;stroke-miterlimit:10;" points="1160.2,1410.7 
		1120.8,1377.1 1069.2,1351.3 	"/>
	<path style="display:inline;fill:none;stroke:#FFFFFF;stroke-width:4;stroke-miterlimit:10;" d="M1156.6,1410.5c0,0-37.2,6-43.6,40
		"/>
	<circle style="display:inline;fill:none;stroke:#FFFFFF;stroke-width:10;stroke-miterlimit:10;" cx="500.2" cy="1513.9" r="6.2"/>
	<polyline style="display:inline;fill:none;stroke:#FFFFFF;stroke-width:4;stroke-miterlimit:10;" points="2092,1425.3 
		2068.2,1415.7 2056.2,1384.7 2047.6,1366.7 2016.4,1366.7 1972.8,1371.3 1954.2,1368.1 1932.4,1343.3 1941.2,1310.1 1958.6,1293.5 
		2002.2,1276.9 2028.4,1276.9 2041.8,1271.5 2045.4,1276.9 	"/>
	<polyline style="display:inline;fill:none;stroke:#FFFFFF;stroke-width:4;stroke-miterlimit:10;" points="1798.8,1375.5 
		1800,1365.9 1801.4,1352.5 1805.4,1349.7 1835,1348.3 1850.8,1343.3 1890.6,1342.1 1960.8,1340.9 1981.6,1340.9 	"/>
	<polyline style="display:inline;fill:none;stroke:#FFFFFF;stroke-width:4;stroke-miterlimit:10;" points="1802,1351.9 
		1820.4,1367.3 1827.8,1374.7 	"/>
	<polyline style="display:inline;fill:none;stroke:#FFFFFF;stroke-width:4;stroke-linecap:round;stroke-miterlimit:10;" points="
		1801.4,1352.5 1783.2,1364.5 1724.2,1366.5 1707.6,1377.3 1634.2,1372.3 	"/>
	<polyline style="display:inline;fill:none;stroke:#FFFFFF;stroke-width:4;stroke-miterlimit:10;" points="2678,1453.5 
		2707.2,1482.1 2730.4,1483.3 2732.8,1432.3 2727.2,1420.5 2723.4,1383.7 2710.4,1386.9 	"/>
	<polyline style="display:inline;fill:none;stroke:#FFFFFF;stroke-width:4;stroke-miterlimit:10;" points="2752.8,1307.9 
		2720.6,1306.9 2699.6,1317.9 2666.8,1313.3 	"/>
	<polyline style="display:inline;fill:none;stroke:#FFFFFF;stroke-width:4;stroke-miterlimit:10;" points="2724,1384.7 2694,1351.5 
		2684.4,1335.7 2683.2,1321.5 2682.8,1307.5 2685.8,1290.3 2687.4,1270.1 2702.4,1258.9 2709.8,1253.7 2721.8,1241.9 2747.6,1240.9 
			"/>
	<path style="display:inline;fill:none;stroke:#FFFFFF;stroke-width:4;stroke-miterlimit:10;" d="M2520.6,1336.7h-52.2v-51.4
		l44.8-70.6c0,0,30.8-18.2,15.8-40l-24,10.8"/>
	<polyline style="display:inline;fill:none;stroke:#FFFFFF;stroke-width:4;stroke-linecap:round;stroke-miterlimit:10;" points="
		2338.6,1197.1 2337.2,1173.5 2318,1152.9 2287.4,1151.1 2268.8,1132.5 2261.4,1137.9 2250.8,1137.5 2247.6,1128.1 2237,1128.7 
		2160.4,1174.9 2103.8,1204.7 2063.8,1220.3 1988.6,1253.7 1933.4,1272.3 	"/>
	<g style="display:inline;">
		<polyline style="fill:none;stroke:#FFFFFF;stroke-width:4;stroke-linecap:round;stroke-miterlimit:10;" points="1501.6,1436.3 
			1435.6,1416.3 1399.4,1410.9 1354,1394.7 1324.6,1383.5 1284.8,1382.1 1250.6,1392.7 1231.8,1399.7 		"/>
		<polyline style="fill:none;stroke:#FFFFFF;stroke-width:4;stroke-linecap:round;stroke-miterlimit:10;" points="1506.4,1415.7 
			1446.4,1391.7 1427.6,1398.7 1402.8,1395.9 1397.8,1411.3 		"/>
		<polyline style="fill:none;stroke:#FFFFFF;stroke-width:4;stroke-linecap:round;stroke-miterlimit:10;" points="1453.4,1348.5 
			1442.6,1380.5 1446.4,1391.7 		"/>
		
			<line style="fill:none;stroke:#FFFFFF;stroke-width:4;stroke-linecap:round;stroke-miterlimit:10;" x1="1407.8" y1="1339.7" x2="1383.2" y2="1405.1"/>
		<polyline style="fill:none;stroke:#FFFFFF;stroke-width:4;stroke-linecap:round;stroke-miterlimit:10;" points="1357.4,1332.7 
			1359.6,1363.5 1367.8,1387.5 1355.4,1395.9 1351.6,1438.5 		"/>
		<polyline style="fill:none;stroke:#FFFFFF;stroke-width:4;stroke-linecap:round;stroke-miterlimit:10;" points="1222,1328.9 
			1225,1371.3 1233.4,1404.5 1233.4,1419.5 		"/>
	</g>
	
		<line style="display:inline;fill:none;stroke:#FFFFFF;stroke-width:4;stroke-miterlimit:10;" x1="2723.4" y1="1383.7" x2="2778.6" y2="1370.5"/>
	<polyline style="display:inline;fill:none;stroke:#FFFFFF;stroke-width:4;stroke-miterlimit:10;" points="1252.2,1527.7 
		1253.2,1576.3 1195,1575.9 1169.6,1623.9 1152.6,1635.1 	"/>
	<g style="display:inline;">
		<polyline style="fill:none;stroke:#FFFFFF;stroke-width:4;stroke-linecap:round;stroke-miterlimit:10;" points="437.6,1236.5 
			399.8,1254.9 364,1243.9 325.6,1232.1 123.8,1214.1 155,1313.5 156,1408.3 134.4,1441.1 132.8,1473.1 		"/>
		<path style="fill:none;stroke:#FFFFFF;stroke-width:4;stroke-linecap:round;stroke-miterlimit:10;" d="M411.4,1487.5v-33.6l-24-77
			l-27.8-57.4c0,0-19.6-32.4-9.4-53l13.8-22.8"/>
		<polyline style="fill:none;stroke:#FFFFFF;stroke-width:4;stroke-linecap:round;stroke-miterlimit:10;" points="155,1360.3 
			170.6,1358.7 201.8,1335.3 231.4,1325.1 267,1294.5 349,1294.1 		"/>
	</g>
	<polyline style="display:inline;fill:none;stroke:#FFFFFF;stroke-width:4;stroke-linecap:round;stroke-miterlimit:10;" points="
		1596,1481.1 1600.4,1440.1 1598.2,1422.9 	"/>
	<polyline style="display:inline;fill:none;stroke:#FFFFFF;stroke-width:4;stroke-miterlimit:10;" points="2752.8,1285.5 
		2820.4,1241.3 2851.2,1225.1 2859.6,1196.7 2872.2,1197.1 2905.2,1182.5 2926,1166.1 2949.8,1177.1 2967.4,1181.1 2997.6,1180.7 
		3011.6,1190.3 3024.2,1218.3 3030.6,1208.3 3054.8,1203.7 	"/>
	
		<line style="display:inline;fill:none;stroke:#FFFFFF;stroke-width:4;stroke-linecap:round;stroke-miterlimit:10;" x1="1648.2" y1="1489.3" x2="1597.4" y2="1470.9"/>
	<g style="display:inline;">
		<polyline style="fill:none;stroke:#FFFFFF;stroke-width:4;stroke-linecap:round;stroke-miterlimit:10;" points="410.8,1475.1 
			378.6,1499.5 368.8,1506.9 341,1512.3 320.4,1515.3 306.2,1527.3 302,1545.5 303,1599.3 304.6,1621.3 322.4,1628.7 341.6,1627.5 
			355,1635.7 365.2,1649.1 365.4,1684.3 368.4,1771.7 		"/>
		<path style="fill:none;stroke:#FFFFFF;stroke-width:4;stroke-linecap:round;stroke-miterlimit:10;" d="M368.8,1506.9l13.2,19.6
			l1.6,66.2l10.4,17l-11.6,40.2l17,12l2.4,14.8l-4.6,37.2l-15.8,7l11.2,17.4l19.8,19.8l22.8,0.8l7,7l14.6,3.8l-3,32
			c0,0,2,14.6,29.4,24c0,0,25.8,10,27.4,10"/>
	</g>
	<g style="display:inline;">
		<g>
			<g>
				<path style="fill:none;stroke:#FFFFFF;stroke-width:4;stroke-linecap:round;stroke-miterlimit:10;" d="M2338.6,1191.5l15.2,0.2
					c8,0.2,20.2-3.4,26.8-7.8l36.2-23.4c6.8-4.4,7.2-12.2,1.4-17.4c-6.2-5.2-12.6-15.8-14.2-23.8l-2.2-9.8c-1.8-7.8-6.4-20-10.2-27
					l-5.6-10.4c-3.8-7-2.8-14.8,2.2-17c5-2.4,10.4-7.2,12-10.8s6.6-7.8,11-8.8c4.6-1.4,11-1,14.2,0.6c3.4,1.6,10.4,7.8,15.6,14.2
					l0.8,0.8c5,6.2,10.4,13,11.6,15.2c1.2,2.4,8.4,6.4,15.8,9.2l48.2,17.4"/>
			</g>
			<g>
				<path style="fill:none;stroke:#FFFFFF;stroke-width:4;stroke-linecap:round;stroke-miterlimit:10;" d="M2455.2,1070.7
					c0,0-2.4,6-5.2,13.2c-2.8,7.2-4.8,19-4.4,25.8c0.4,6.8-3,17.8-7.8,24.4l-17.4,24.4"/>
			</g>
			<g>
				<path style="fill:none;stroke:#FFFFFF;stroke-width:4;stroke-linecap:round;stroke-miterlimit:10;" d="M2364.6,1191.9l-2,18
					c-0.8,8,1,20.6,4.2,27.8l4.8,11c3.2,7.2,7.8,15.8,10,18.6c2.2,2.8,4,5.2,4,5.2"/>
			</g>
		</g>
	</g>
	<polyline style="display:inline;fill:none;stroke:#FFFFFF;stroke-width:4;stroke-linecap:round;stroke-miterlimit:10;" points="
		1634.8,1539.1 1640.2,1573.5 1638.6,1620.1 1632.4,1645.9 1610,1675.7 1594.2,1719.7 1576.8,1792.1 1572,1825.7 1580.6,1864.3 
		1557,1870.5 1542.6,1879.3 1539.6,1897.3 	"/>
	<polyline style="display:inline;fill:none;stroke:#FFFFFF;stroke-width:4;stroke-linecap:round;stroke-miterlimit:10;" points="
		1651.8,1412.7 1598.2,1422.9 1574,1421.7 1568.6,1413.7 1511.2,1392.5 	"/>
	<polyline style="display:inline;fill:none;stroke:#FFFFFF;stroke-width:10;stroke-linecap:round;stroke-miterlimit:10;" points="
		493.4,1514.5 479.8,1512.1 439.2,1496.3 419.2,1491.3 370.6,1491.9 321.2,1497.9 286.4,1497.9 212,1482.3 151.8,1473.1 82,1469.7 
		18.2,1471.3 	"/>
	
		<line style="display:inline;fill:none;stroke:#FFFFFF;stroke-width:10;stroke-linecap:round;stroke-miterlimit:10;" x1="2330.6" y1="1204.7" x2="2260" y2="1217.3"/>
	<path style="display:inline;fill:none;stroke:#FFFFFF;stroke-width:10;stroke-miterlimit:10;" d="M2744,1160.5c0,0-27,13.2-51,10"
		/>
	<path style="display:inline;fill:none;stroke:#FFFFFF;stroke-width:10;stroke-linecap:round;stroke-miterlimit:10;" d="
		M3202.2,1592.7l-22.2-52.2l-0.8-29.8l-12.4-34.8l-33.2-70.6l-13.2-37.2l-6.8-44l7.4-30.8c0,0-5.8-26.6-7.4-30.8
		c-1.6-4.2-15-25.8-15-25.8l-24-12.4l-17.4-21.2l-9.4-8.2l-13.2-13.6l-13.6-9.4l-11.8-5.6l-13.6-13.6l-13.2-5.6l-18,13.6l-14.2,6.2
		l-24.4-10.6l-11.8,8.2l-9.4,6.8l-9.4,4.4l-23,3l-22.4-11.2l-7.4-15.6l-6.2-4.4l-8.4-4.6"/>
	<polyline style="display:inline;fill:none;stroke:#FFFFFF;stroke-width:4;stroke-linecap:round;stroke-miterlimit:10;" points="
		1411,1697.3 1415.6,1720.7 1421.4,1788.3 1464.6,1798.7 1478,1865.5 1497,1883.9 1520.2,1882.1 1564.2,1823.3 1587.4,1749.3 	"/>
	<polyline style="display:inline;fill:none;stroke:#FFFFFF;stroke-width:4;stroke-linecap:round;stroke-miterlimit:10;" points="
		1414.8,1722.1 1392.2,1720.9 1369.8,1720.5 1359.8,1713.1 1360.4,1696.5 1350.2,1693.5 1340.8,1695.1 1332.2,1699.5 1333.2,1707.5 
		1325.8,1720.9 1297.4,1737.3 1296.6,1743.5 1301.2,1757.5 1327,1761.3 1371.6,1800.5 	"/>
	<polyline style="display:inline;fill:none;stroke:#FFFFFF;stroke-width:4;stroke-linecap:round;stroke-miterlimit:10;" points="
		1413,1708.1 1378.6,1703.7 1367.2,1719.5 	"/>
	<g style="display:inline;">
		
			<polyline style="fill:none;stroke:#FFFFFF;stroke-width:4;stroke-linecap:round;stroke-linejoin:round;stroke-miterlimit:10;" points="
			481.4,1086.3 480.2,1092.9 545,1139.5 511.6,1162.7 507.6,1156.1 501.2,1155.3 493.8,1160.5 486.8,1151.9 468.8,1162.1 		"/>
		
			<polyline style="fill:none;stroke:#FFFFFF;stroke-width:4;stroke-linecap:round;stroke-linejoin:round;stroke-miterlimit:10;" points="
			452.2,1083.7 442,1115.3 440.4,1120.5 431.2,1133.7 411,1150.3 399,1155.7 		"/>
		
			<line style="fill:none;stroke:#FFFFFF;stroke-width:4;stroke-linecap:round;stroke-linejoin:round;stroke-miterlimit:10;" x1="482.6" y1="1184.5" x2="442" y2="1115.3"/>
		
			<polyline style="fill:none;stroke:#FFFFFF;stroke-width:4;stroke-linecap:round;stroke-linejoin:round;stroke-miterlimit:10;" points="
			497.4,1105.7 487,1119.3 454.8,1137.9 		"/>
		
			<polyline style="fill:none;stroke:#FFFFFF;stroke-width:4;stroke-linecap:round;stroke-linejoin:round;stroke-miterlimit:10;" points="
			467.8,1129.7 460.6,1116.1 467,1080.1 		"/>
		
			<polyline style="fill:none;stroke:#FFFFFF;stroke-width:4;stroke-linecap:round;stroke-linejoin:round;stroke-miterlimit:10;" points="
			431.2,1133.7 437.8,1145.5 449.6,1140.7 459.4,1157.7 428.6,1177.1 412.4,1149.1 		"/>
		
			<polyline style="fill:none;stroke:#FFFFFF;stroke-width:4;stroke-linecap:round;stroke-linejoin:round;stroke-miterlimit:10;" points="
			439.8,1121.7 406.4,1093.7 381.6,1122.9 		"/>
		
			<polyline style="fill:none;stroke:#FFFFFF;stroke-width:4;stroke-linecap:round;stroke-linejoin:round;stroke-miterlimit:10;" points="
			449.6,1079.3 431.6,1074.9 420,1072.1 407.6,1061.3 401.6,1063.7 406.4,1093.7 423.2,1086.5 431.2,1076.1 		"/>
	</g>
	<path style="display:inline;fill:#FFFFFF;" d="M593.2,1276.7l0.4,12.8l-3.6,4.6l2.6,19l248-30l1.4,5l-6.2,1l1.8,16.6l-4.4,4.6
		l-59.2,7.2l0.2,25.4l-9.2,0.2c0,0-1.8-20.2-1.8-22c0-1.6-19,3-19,3l0.2,5.8l5.8,0.2l2.6,16.6l-4.8,6.4l-18.6,3l-1,8.8l25-0.8
		l4,25.2l11.2-0.2l-1.2-23.6l9.6,0.2l3,13.2l14.2,5l55-7.2l1.4-7.8l32-2.6l2.8,11l6,6.4l18.2-1l2.6,4.6l-188,23.6l0.8,12.4
		l152.6-20.2l0.2,20l-22,1.8l-0.2,10.8l-8.4,0.8l1.6,10.8l-240,29.8l-2.4-11l7.8-2.8l-6.8-44.2l-22.4,1.4l0.8-5.4l66.8-7l-8.4-70.8
		l-111.4,10l-2.4-25l55.4-7.8l-2.4-34.4L593.2,1276.7z M544.8,1341.7l43.8-4l-1.4-14.8l-43.8,5L544.8,1341.7z M594.2,1321.3
		l1.2,15.6l14.8-1.8l15.2-18L594.2,1321.3z M638.8,1330.5l4.6-7.2l97.4-12l-15.2-7l-88.2,10.2l-17.4,18.4L638.8,1330.5z
		 M771.2,1312.7l9.6-1.2l-1.6-13.6l-37.8,5L771.2,1312.7z M785.2,1296.7l1.8,14.2l38.2-4.2l-2-15.2L785.2,1296.7z M690.2,1322.7
		l0.2,3.8l36-4l-0.4-5.2L690.2,1322.7z M730.4,1398.3l-0.8-10.6l-19.6,2.2l-5.2,9.8L730.4,1398.3z M659.6,1419.1c-0.8,0-7-6-7-6
		l-38.4,5l3,19.2l102.2-14l-1.6-11.6C717.8,1411.9,660.8,1419.1,659.6,1419.1z M686.6,1435.1l-68.8,9.4l1.4,9.4l68.8-9.4
		L686.6,1435.1z M788.8,1420.3l-63.2,8.6l1.4,9.4l63.2-8.6L788.8,1420.3z M719.2,1430.7l-26.4,3.4l1.4,9.4l26.4-3.4L719.2,1430.7z
		 M833.4,1414.5l-38.4,5.2l1.4,9.4l38.4-5.2L833.4,1414.5z M870.6,1409.3l-30.4,4l1.4,9.4l30.4-4L870.6,1409.3z M654.8,1336.3
		l10,68.6l19.8-2.2c0,0-11-7.4-10.4-8.4s25.4-24.4,23.8-27.8s-22-18.4-22-18.4l4.6-16.4L654.8,1336.3z M701.8,1340.1l22.2-3.2
		l-0.6-7.8l-28.6,3.4L701.8,1340.1z M639,1457.1l-11.4,1.4l0.8,6.8l11.4-1.4L639,1457.1z M656.4,1454.3l-11.4,1.4l0.8,6.8l11.4-1.4
		L656.4,1454.3z M675,1452.3l-11.4,1.4l0.8,6.8l11.4-1.4L675,1452.3z"/>
	<g style="display:inline;">
		<line style="fill:none;stroke:#FFFFFF;stroke-width:4;stroke-miterlimit:10;" x1="1302.8" y1="1454.9" x2="1269.6" y2="1525.9"/>
		<path style="fill:none;stroke:#FFFFFF;stroke-width:4;stroke-miterlimit:10;" d="M1293.2,1476.7l52.2-2.8c0,0,47.4-3.8,49-3.4
			c1.6,0.4,90.2,25.4,90.2,25.4"/>
		<line style="fill:none;stroke:#FFFFFF;stroke-width:4;stroke-miterlimit:10;" x1="1345.8" y1="1450.9" x2="1347.2" y2="1527.3"/>
		<line style="fill:none;stroke:#FFFFFF;stroke-width:4;stroke-miterlimit:10;" x1="1380" y1="1471.1" x2="1381" y2="1528.3"/>
		<line style="fill:none;stroke:#FFFFFF;stroke-width:4;stroke-miterlimit:10;" x1="1397.4" y1="1438.3" x2="1394.4" y2="1470.5"/>
	</g>
	<g style="display:inline;">
		<line style="fill:none;stroke:#FFFFFF;stroke-width:4;stroke-miterlimit:10;" x1="959" y1="1462.7" x2="967" y2="1543.9"/>
		<line style="fill:none;stroke:#FFFFFF;stroke-width:4;stroke-miterlimit:10;" x1="984.6" y1="1457.1" x2="986.6" y2="1542.7"/>
		<polyline style="fill:none;stroke:#FFFFFF;stroke-width:4;stroke-miterlimit:10;" points="1059.8,1435.5 1058,1451.7 
			1050.8,1452.7 1052.6,1469.3 1064,1470.3 1064.8,1489.7 1055.8,1491.9 1057.6,1533.7 		"/>
		<polyline style="fill:none;stroke:#FFFFFF;stroke-width:4;stroke-miterlimit:10;" points="1081.6,1429.7 1084.2,1487.9 
			1064.8,1489.7 1066.6,1520.9 1056.6,1520.9 		"/>
	</g>
	<path style="display:inline;fill:none;stroke:#FFFFFF;stroke-width:4;stroke-miterlimit:10;" d="M804,1500.7l44.2-18.2l29.8-11
		l95.2-12.6l53.4-15.8l43.6-12.6l35.2,2.4l13.2,1.2l23.6-5.4l58.8-1.2l49,14c0,0,35.6,18.2,75,12.6l73.8-17.6l69,20l26.6,8.6"/>
	<path style="display:inline;fill:none;stroke:#FFFFFF;stroke-width:10;stroke-linecap:round;stroke-miterlimit:10;" d="
		M2581.8,1398.1l-24,49c0,0-19,35.6,0.8,61.4c0,0,43.2,34.8,1.6,68c0,0-32.4,28.2-13.2,62.4l38.2,59l41.6,34l10,50.6l-8.4,21.6
		l-37.4,26.6l-97.2,3.4l-17.4,30.8l-69.8,185.2L2295,2342.7"/>
	<g style="display:inline;">
		
			<polyline style="fill:none;stroke:#FFFFFF;stroke-width:2;stroke-linecap:round;stroke-linejoin:round;stroke-miterlimit:10;" points="
			2037.8,1860.9 2038.8,1855.5 2039.6,1851.3 2041.2,1817.9 2074.6,1852.7 2137,1867.9 2126.4,1857.7 2100.8,1805.1 		"/>
		
			<polyline style="fill:none;stroke:#FFFFFF;stroke-width:2;stroke-linecap:round;stroke-linejoin:round;stroke-miterlimit:10;" points="
			2038.8,1855.5 2046,1860.5 2042.8,1875.9 2049.4,1885.7 2062.6,1886.3 2071,1875.1 2093.8,1878.1 2109.8,1870.1 2111.8,1861.9 		
			"/>
		
			<polyline style="fill:none;stroke:#FFFFFF;stroke-width:2;stroke-linecap:round;stroke-linejoin:round;stroke-miterlimit:10;" points="
			2071.4,1923.7 2125.4,1888.9 2137,1867.9 		"/>
		
			<polyline style="fill:none;stroke:#FFFFFF;stroke-width:2;stroke-linecap:round;stroke-linejoin:round;stroke-miterlimit:10;" points="
			2062.6,1886.3 2057.2,1907.1 2056.2,1911.3 		"/>
		
			<polyline style="fill:none;stroke:#FFFFFF;stroke-width:2;stroke-linecap:round;stroke-linejoin:round;stroke-miterlimit:10;" points="
			2091.2,1910.7 2067.4,1906.3 2058.4,1900.3 		"/>
		
			<line style="fill:none;stroke:#FFFFFF;stroke-width:2;stroke-linecap:round;stroke-linejoin:round;stroke-miterlimit:10;" x1="2067.4" y1="1906.3" x2="2065.8" y2="1917.3"/>
	</g>
	
		<path style="display:inline;fill:none;stroke:#FFFFFF;stroke-width:4;stroke-linecap:round;stroke-linejoin:round;stroke-miterlimit:10;" d="
		M1639.8,1371.7l10,33.2l11.6,21.6l14.2,5.8l18.2,9.2l20.6,3.4l14.2-0.8l13.2,13.2l7.4,17.4c0,0,2.4,22.4,3.4,25
		c0.8,2.4,6.8,15.8,10.8,19c4,3.4,35.6,26.6,35.6,26.6l12.4,15l7.4,21.6l20,29.8l8.8,17.4l7,10.8l-3.4,9.6l-7,2h-9.6l-8.4,5.8
		l1.6,4.6l13.6-4.6h8.4l3.4,3l-4,4.6l-12,0.8l-7,4.2l0.4,4l11.2,0.8l4.6-2l3.4,3v3.4l-4.2,11.2l-5,8.8l16.2,66l-5,38.2l4,26.6
		l-9.6,25.4l0.4,21.6l4.2,3l9.6-3.8l9.2-3.8l15.2,2.4l22,7.8l25.4,6.2l18.6,1.4l28.2-10.4l22.8-9.6l18-14.6l17,6.2l6.2,27v8.4
		l12,14.2l212.8,153l102.6,71"/>
	<g style="display:inline;">
		<path style="fill:none;stroke:#FFFFFF;stroke-width:10;stroke-miterlimit:10;" d="M2342.8,1205.3c36.6,4.2,76,7.8,108-10.4
			c4.6-2.6,9.2-5.8,14.6-6.8c7.8-1.4,15.4,2,23.4,2.2c8.4,0.2,16.6-3.6,25-5c14.6-2,29,3.6,42.2,10c13.2,6.2,26.6,13.6,41.4,14.4
			c14.8,0.8,31-6.6,35.2-20.6c1.2-4,1.4-8.2,3.2-11.6c3.6-7,12.6-9.2,20.4-10.4c12.6-1.8,26.2-2.8,37.2,3.4
			c10,5.6,16.4,15.8,22.2,25.8c8.8,15.2,26,36,35,51.2l0.2,8.4c-1.2,38.4,10.6,76.2,28.4,110.2c17.8,34,41,64.6,64.6,95
			c10.8,14,21.8,28.6,25.8,45.8c1.6,7,2,14.4,5.2,21c3.8,7.8,11,13.4,18,18.6c40,29.8,79.6,59.2,119.6,89
			c14.2,10.4,28.4,21.2,44.8,27.4c16.4,6.2,35.4,8,51.2,0.4c6.2-3,11.8-7.2,17.4-11.6c9-7,18.2-14.2,27.2-21.2
			c8.2-6.2,16.4-12.6,25.8-16.4c8.2-3.4,17.2-4.8,23.8-10.4"/>
		<path style="fill:none;stroke:#FFFFFF;stroke-width:10;stroke-miterlimit:10;" d="M2817.6,1142.3c-15.6,17-47.4-3.4-66.2,9.6
			c-11,7.6-12.6,22.6-16.8,35.2c-12.4,37.6-52.6,60.4-66,97.6c-12.4,34.2,3.8,80.8,35.8,98.2"/>
		<path style="fill:none;stroke:#FFFFFF;stroke-width:10;stroke-miterlimit:10;" d="M2709,1395.7c-2.8,19.6-17.8,37.2-28.2,54"/>
		<path style="fill:none;stroke:#FFFFFF;stroke-width:10;stroke-miterlimit:10;" d="M2667.8,1451.1c-16.8-19-45.6-36.8-69.4-46
			c-17.4-6.8-37-12.6-48-27.8c-7.8-10.8-10-25-18.8-34.8c-14.2-15.2-43.2-17.6-47-38.2c-1-5.8,0.4-12.2-2.2-17.4
			c-5.2-10.6-20.8-8.4-32.6-6.2c-21.8,4-44.8,1.4-65.2-7.8c-24.8-11.2-44.6-31.2-69.4-42.4c-23.4-10.8-50-13-75.8-12.6
			c-77.4,1.4-164.6,18.6-213.6,78.6c-27,33-62.8,66-106,74.4c-17.6,3.4-36.4,2.6-54.4,3.8c-33.2,2.2-66.8,1.6-99.8-1.8
			c-31.8-3.4-54.4,5-69,35c-10,20.2-14.2,42.8-26.2,62.2c-5.6,8.8-12.6,18.6-23.2,21.8c-15,4.8-35.6-4.6-50.8-7
			c-18.8-3-36.8-9.2-54-16.8c-35.4-15.4-62.2-23.6-98.2-37.6c-11.6-4.6-29.8-9-42-6.8c-9.2,1.8-24.8,5.8-33.4,9.4
			c-11,4.6-37.6,7-49.6,8.6c-17,2.2-35.4,2.6-51.8-3.2c-10-3.4-16.8-12-26.4-16.4c-9.4-4.4-21-6.2-31.2-7.8c-23.4-4-47-4.6-70.6-3.4
			c-37,1.8-81.6,6-114.2,25.4c-15.2,9-57.6,10.2-75,13.6c-22.6,4.4-45.8,2.8-68.8,4.2c-42.8,2.8-84,15.8-125,27.6
			c-31.4,9.2-63.6,18.8-96,22.8c-18,2.2-36.8-3-55-2.6c-20.2,0.4-39.2-8.4-55.8-19c-14.8-9.6-28.6-21.2-39.8-35
			c-12.6-15.8-15.2-34-18.2-53.4c-18.6-122-89.4-229.4-166-326.2c-50-63.2-106-126.2-180.6-156.8c-24.6-10-50.6-16.4-76.6-22.6
			c-61.8-14.8-123.6-29.8-185.4-44.8"/>
		<path style="fill:none;stroke:#FFFFFF;stroke-width:10;stroke-miterlimit:10;" d="M-539.6,1383.9c25,21.6,46.8,46.8,64.4,74.8
			c5.8,9.4,11.4,19,19.4,26.6c24.4,22.8,64.8,18.4,91.4,38.6c18.6,14.2,27,37.8,43.8,54c29.4,28.4,75.4,27.6,116.2,27
			c43.8-0.4,87.4,1.8,130.6,6.4c31,3.4,62,8.2,92.6,14.2c29.8,6,58.8,13.6,87.6,23c52.4,17.2,104.6,35,154.8,58
			c49.6,22.8,97.2,50.6,138.2,86.6c17.4,15.4,34.4,32.6,56.2,40.6c14.4,5.4,30.2,6.2,45.6,5.6c49.8-2,99-20,138.4-50.6
			c8.4-6.6,16.4-13.6,26-18.2c20.4-9.4,44.2-5.2,66.8-4c12,0.6,23.8,0.2,35.8-1c6.2-0.6,12-1.4,18-2.4c5.2-0.8,10.6-0.8,15-4
			c2.8-2.2,5-5,7.8-6.8c3-2,6.8-3,10.4-3.8c20-4.8,40-9.6,60-13.8c26-5.6,52.2-10.4,78.6-14.8c41.6-6.8,59-19,101-22.8
			c18-1.6,46.4-7.8,63.8-12c23.8-6.2,44-6.8,65.8-18.2c35.4-18.6,82-13.6,120.4-24.4c38.6-10.6,85.2-35.4,123.6-23.8
			c30.2,9,57.2,26.6,87.2,35.8c22.8,7,51.8,7.2,65.8-12.2c27.8-38.2,94.6-40.4,141.6-46.4c27-3.4,50.6-4.6,76.2-14.8
			c25-10.2,48.6-23.8,71.8-37.4c19.4-11.2,38.8-22.6,57.4-34.8c14.2-9.4,28.4-19.6,44.2-26c29.2-12,65.2,5.6,90-18.6
			c7.2-6.8,11.2-16.2,16-24.6c8.2-14.2,19.2-20.6,33.6-27.6c33.4-16.4,69.4-26.6,101.6-45.4c15.4-9,30.4-20,47.8-23.6
			c6.8-1.4,14.2-1.8,20.6-5c10.2-5.2,15.2-16.6,19.4-27.4c13.2-33.6,25-64.2,28.2-100"/>
		<circle style="fill:none;stroke:#FFFFFF;stroke-width:10;stroke-miterlimit:10;" cx="2821" cy="1140.1" r="6.4"/>
		<circle style="fill:none;stroke:#FFFFFF;stroke-width:10;stroke-miterlimit:10;" cx="2706.8" cy="1389.1" r="6.4"/>
		<circle style="fill:none;stroke:#FFFFFF;stroke-width:10;stroke-miterlimit:10;" cx="2674.2" cy="1451.1" r="6.4"/>
		<circle style="fill:none;stroke:#FFFFFF;stroke-width:10;stroke-miterlimit:10;" cx="2337" cy="1204.7" r="6.4"/>
		<circle style="fill:none;stroke:#FFFFFF;stroke-width:10;stroke-miterlimit:10;" cx="3206.2" cy="1599.1" r="6.4"/>
	</g>
	<g style="display:inline;">
		<g>
			<g>
				<path style="fill:none;stroke:#FFFFFF;stroke-width:4;stroke-linecap:round;stroke-miterlimit:10;" d="M3700.6,1748.5l-8.4,12.6
					c-4.6,6.8-8.8,13.2-9.8,14.8c-0.8,1.4-4.2,8.6-7.4,16l-1.4,3c-3.2,7.4-8.4,14.8-11.8,16.6c-3.4,1.8-6.8,5.4-7.8,7.8
					c-1,2.6-5.6,4.6-10.4,4.8c-4.8,0-11,3-13.6,6.2c-2.8,3.4-8.4,7.2-12.4,8.2c-4,1.2-9.6,1.4-12.6,0.2c-2.8-0.8-7.2,1-10,4.4
					c-2.6,3.4-8.4,7.2-13,9s-11.8,1.8-16,0.4c-4.4-1.4-9.6-3-11.8-3.4s-8.2,0.2-13.2,1.4c-5,1.2-12.6,3.4-16.8,4.8
					c-4.4,1.4-13.2,3.4-19.8,4.2c-6.6,0.8-15.2,1.6-19.4,1.8c-4,0-11-2-15.4-4.6s-13.2-9-19.2-14.2l-8.4-7.2c-6.2-5-9.2-13.6-6.8-19
					c2.4-5.2,4.2-13.6,3.8-18.4s-4.8-13.8-10-20.2l-2.6-3.4c-5-6.2-11-17.4-13-24.6s-6.8-18-10.4-23.6s-7.8-13.2-9.4-16.6
					c-1.4-3.4,12-19,17.4-24.4c5.6-5.2,10-9.4,10-9.4"/>
			</g>
			<g>
				<path style="fill:none;stroke:#FFFFFF;stroke-width:4;stroke-linecap:round;stroke-miterlimit:10;" d="M3592.2,1851.3l13.4,26.8
					c3.6,7.2,6.6,19.6,6.8,27.6l0.2,25.4c0.2,8-5.2,18.4-11.8,23l-23.2,16.4c-6.6,4.6-16.8,12.8-22.6,18.4l-13.2,12.2
					c-5.8,5.4-17.2,10-25.2,10l-19.4,0.2c-8,0.2-17.4-0.2-20.6-0.6c-3.4-0.4-9.4-0.2-13.2,0.2c-3.8,0.6-11.6-3.8-17-9.6l-4.2-4.4
					c-5.6-5.8-12.6-12-15.8-13.8s-12-5.4-19.6-7.8l-19.8-6.4c-7.6-2.4-16.4-8.8-19.6-14c-3-5.2-20.4-15.8-25.4-17.2
					c-5-1.4-10-3.6-10.8-5s-10.4-8.6-13.6-10.4s3.2-19,6.2-22.8c3-4-22.2-9-26.2-7.8c-4,1.4-10.4,0.8-14.4-0.8c-4-1.8-7-6.2-7.2-9.4
					c0-3.4-4.2-9.4-9.2-13s-13.6-8.4-19-10.6c-5.6-2.2-10.8-2.4-11.6-0.8c-0.8,1.8-4.6,3.4-8.2,4c-3.6,0.4-10.2,0.6-14.8,0.2
					c-4.6-0.2-9.4,0.4-11,1.8s-8.6-0.8-15.8-4.4l-14.8-7.8c-7.2-3.6-17-9.4-21.8-12.4c-5-3.2-10-7.4-11.2-9.4c-1.4-1.8-5.6-6-10-8.8
					c-4.2-3-7.8-6.8-7.8-8.4c0-1.8-6.4-4.8-14.2-6.8l-48.6-12.6c-7.8-2-17.6-3.6-22-3.6s-13.4-3.6-20-8.2l-11.6-7.8
					c-6.8-4.6-16.4-8.2-21.8-8c-5.4,0-15-4-21.2-8.8l-31.4-25c-6.2-5-16.2-10-21.8-11c-5.8-1.2-14.4-7.4-19-13.8l-2.8-3.8
					c-4.6-6.4-12.6-17-17.2-23.4l-20.8-28.2c-4.8-6.4-13.6-16-19.8-21.2l-13.6-11.2c-6.2-5-14.8-14.8-19-21.8l-7.8-12.4
					c-4.2-6.8-11-14.8-14.8-17.6c-3.8-3-6.4-6.8-5.6-8.4c0.8-1.8,0.8-4.4,0-5.6c-0.8-1.4-1.6-4.8-1.8-7.6c0-2.8-3.8-4-8.4-2.8
					c-4.6,1.4-11.6-1.8-15.6-6.8s-8.2-15.6-9-23.6l-3.4-28.6"/>
			</g>
			<g>
				<path style="fill:none;stroke:#FFFFFF;stroke-width:4;stroke-linecap:round;stroke-miterlimit:10;" d="M3434.8,1826.5
					c0,0-6.2-0.6-13.6-1.2c-7.6-0.8-19.6-3.8-27-6.8l-33.6-14c-7.4-3-19.2-8.8-26-12.8l-6.6-3.6c-7-4-18.2-10.6-25-14.8l-0.8-0.4
					c-6.8-4.2-18.8-9.4-26.6-11.4l-45.6-12c-7.8-2-17.8-6.4-22.4-10c-4.6-3.4-10-10-12.2-14.4c-2.2-4.6-5.4-9.8-7.2-11.8
					s-7.8-2.8-13.6-1.8s-15.4-1.4-21.6-5.6c-6.2-4-14.8-12.8-19.6-19.4l-15.8-22.8"/>
			</g>
			<g>
				<path style="fill:none;stroke:#FFFFFF;stroke-width:4;stroke-linecap:round;stroke-miterlimit:10;" d="M3482.8,2011.3l-3.8,25.2
					c-1.2,7.8-1.4,21-0.6,29l0.6,5.2c0.8,8,3.2,20.8,5.2,28.6l4,14.8c2,7.8,4.2,18.6,4.8,23.8c0.6,5.4,51.8,3.6,59.4,1.4l28.8-8.4
					c7.8-2.2,16.8-6,20.4-8.4c3.4-2.4,17.4,22.2,22,28.6l2.8,4c4.6,6.8,13.6,12.8,20.6,13.6c6.8,0.8,18.6-0.8,26-3.8l15-5.8
					c7.4-3,17.4-10.4,22.2-16.8c4.8-6.2,11-9.4,13.8-6.6s11.6,5.4,19.6,5.8l69.8,4c8,0.4,17.4,0.2,20.8-0.4c3.4-0.8,14-15.2,18-22.2
					l3.2-5.6c4-6.8,11.8-16.4,17-21.2s39.4,4.6,45.4,6.2c6,1.8,33.6-16.8,40-17.2s11.6-0.8,20.6,9.4"/>
			</g>
		</g>
	</g>
	<path style="display:inline;fill:none;stroke:#FFFFFF;stroke-width:4;stroke-linecap:round;stroke-miterlimit:10;" d="M3588,1844.5
		c0,0-27-37,19.6-55.6"/>
	<path style="display:inline;fill:none;stroke:#FFFFFF;stroke-width:4;stroke-miterlimit:10;" d="M2817.6,1130.5v-19.6
		c0,0,13.8-9.4,19.4,7.2l5.6,28.8"/>
	<path style="display:inline;fill:#FFFFFF;" d="M1647,1645.3c-2,1.4-4.6,3.6-5.4,5c-0.8,1.4-3,3.4-4.8,4.6s-4.2,4-5.4,6.6
		c-1.2,2.4-3.4,7.8-4.6,11.8c-1.4,4,0.4,9.2,4,11.4c3.4,2.2,10.8,2.4,16.2,0.6c0,0,0,0-0.2-1.8s-1.6-3.2-1.4-4.6s7.8-2.8,7.8-2.8
		c7.8-1.4,13.6-4.2,12.6-6s-4-5.6-7-8.4c0,0,0,0,0.2-0.4s2-3.4,0-7.8s-4-6.4-4.8-7.2c-0.8-0.8-0.8-1-0.8-1
		C1651.8,1643.7,1649,1643.7,1647,1645.3z"/>
</g>
<rect id="app_x5F_Muscat-road--zoom" x="337.6" y="752.4" style="fill:none;" width="1704" height="968.9"/>
<path style="fill:#B4985A;fill-opacity:0.75;stroke:#B4985A;stroke-width:0.6258;" d="M574.8,1104.5c-2.6,6.7-8.8,12.1-12.8,17.6
	c-1.4,1.8-5.6,9.3-3.2,11.1c8.2,6.3,16.2,12.7,24.4,18.8c0,0,33.6,20.2,33.6,20.4c3.4,2.2,7.8,3.4,11.6,5.5c5.4,2.6,11,5.3,16.4,7.9
	c26.2,11.9,53.6,21.2,80.6,31.1c7.6,2.8,15,5.5,22.6,8.3l77.4,25.3c0,0,60.2,23.7,60.2,23.9c10.4,4,21.6,7.3,32.2,10.9
	c2.6,0.8,5.2,1.8,7.8,2.2c4.2,0.6,8.6-0.8,12.8,0c10,1.4,20,7.7,26.6,9.7c2.2-7.7,4.4-15.2,6.6-22.8c0.4-1.4,1.6-3.6,1.4-5.1
	c-0.2-3-7.8-3.2-10.4-4c-8.4-1.8-16.8-3.4-25.2-5.3c-5.8-1.4-8.8-9.1-15.2-9.1c-5.4,0-13.6-0.2-17-5.5c-0.2-0.4-0.4-0.8-0.6-1.4
	c-0.6-1.6-1-3.2-1.6-4.6c-2-5.9-7-5.7-12.2-7.3c-4.6-1.4-9.4-3-14.2-1.2c-5.6,2-11.4,4-17.2,6.1c-0.8,0.2-1.4,0.4-2,0.4
	c-2.2,0.2-4.6-1.6-6.6-2.4c-3-1-6-2.2-9-3c-8.4-2.6-16.8-5.5-25.2-8.5c-16.6-6.3-33-13.3-48.8-21.2c-7.2-3.6-14.4-7.3-21.8-10.9
	c-12-5.9-24.6-11.7-36.8-18c-6.2-3.2-12.4-6.5-18.6-9.9c-2.8-1.6-6-3-8.4-5.1s-4.6-4.9-6.4-7.3c-2.4-3-5-6.1-7.6-8.9
	c-0.6-0.8-1.4-1.4-1.6-2.4c-0.2-1-0.2-2-0.2-3c-0.2-5.7-4-8.9-7.2-12.9v-5.7c0-6.5,0.2-12.9-2.6-19c-3-6.1-7.6-12.1-13.2-16
	c-3.4-2.4-3.4,4.2-3.6,6.3c-0.2,4.4,2.4,9.9,3.4,14.2c0.8,2.6-8,6.5-10,7.7c-0.2,0.2-4.6-2.6-5.6-2.6c-4.6,0-9.4,1.8-14,2.6
	c0.6-0.2-2.4-4-2.8-4.2c-1.4-0.6-2.6-0.8-3.8-1.4c0-3.4,1.2-3.6,4-4.6c2.2-0.8,4.6-1.8,6.4-3.4c2.4-2.2,1-3-0.8-5.3s-4.2,0-6.4,0.2
	c-3.4,0.4-6-0.8-9.2-1.8c0.8-4.6,5.2-5.5,7-7.3c1.6-1.8,6.4,0.4,8.6,1c2.6,0.6,5.2,1.4,7.2,3c1.8,1.4,3.4,5.1,6,4
	c1.6-0.6,3.4-4,3.4-5.7c0-1.8,0-4.6-1-6.1c-1.2-1.6-4-3-5.6-4c-4-2.4-8-4-12.2-5.7c-3.8-1.4-9.4,1.6-13.2,2.6c-5,1.4-10,3-14.8,5.1
	c-3.4,1.4-5.6,5.9-7.8,8.5l-1.4,10.1c-0.4,2.6-0.6,5.9-1.4,8.5C575,1104.3,574.8,1104.3,574.8,1104.5z"/>
<g>
	<path style="fill:#676767;" d="M719.2,1369.9l-3.2-0.6l-1.4,1.4l4,2.4l2,4.2l1.4-1.4l-0.2-3.2l5.4-4.9l4.6,10.1l1.8-1.8l-2.2-12.3
		l5.4-4.9c0.8-0.8,0.8-2,0.2-2.8c-0.6-0.8-2-0.8-2.8-0.2l-5.4,4.9l-12-3.4l-1.8,1.8l9.4,5.7L719.2,1369.9z"/>
	<path style="fill:#676767;" d="M709,1381.8c9,10.1,24.4,10.9,34.4,1.8c10-9.1,10.8-24.7,1.8-34.8c-9-10.1-24.4-10.9-34.4-1.8
		C701,1356.2,700.2,1371.7,709,1381.8z M743.6,1350.3c8.2,9.1,7.4,23.2-1.6,31.3c-9,8.3-23,7.5-31-1.6c-8.2-9.1-7.4-23.2,1.6-31.3
		C721.6,1340.6,735.4,1341.2,743.6,1350.3z"/>
</g>
<text transform="matrix(0.983 0.1137 -0.1125 0.9937 1060.9386 1336.1721)" style="fill:#3C3C3D; font-family:'MarselisPro-Bold'; font-size:14.5899px;">18th November St.</text>
<text transform="matrix(0.9695 -0.2012 0.199 0.98 1052.4279 1717.7705)" style="fill:#8A1739; font-family:'MarselisPro'; font-size:20.5197px;">Muscat Expressway</text>
<text transform="matrix(0.8716 -0.5148 0.5287 0.8488 1890.2979 1564.1614)" style="fill:#3C3C3D; font-family:'MarselisPro-Bold'; font-size:14.1688px;">Muscat Expressway</text>
<text transform="matrix(0.9893 0 0 1 1110.6514 1435.583)" style="fill:#3C3C3D; font-family:'MarselisPro-Bold'; font-size:14.5925px;">Sultan Qaboos St.</text>
<text transform="matrix(0.9488 -0.2863 0.2832 0.9591 688.1188 1531.5916)" style="fill:#3C3C3D; font-family:'MarselisPro-Bold'; font-size:14.5786px;">Sultan Qaboos St.</text>
<text transform="matrix(0.9889 -3.029652e-02 2.997245e-02 0.9996 1818.2355 1399.8761)" style="fill:#3C3C3D; font-family:'MarselisPro-Bold'; font-size:14.5859px;">Sultan Qaboos St.</text>
<text transform="matrix(0.9893 0 0 1 433.3213 1871.1934)" style="fill:#3C3C3D; font-family:'MarselisPro-Bold'; font-size:14.5925px;">Muscat Expressway</text>
<line style="fill:none;stroke:#8A1739;stroke-width:2.0108;stroke-miterlimit:10;" x1="870.3" y1="1495.9" x2="870.3" y2="1545.2"/>
<ellipse style="fill:#8A1739;" cx="870.3" cy="1495.9" rx="6.6" ry="6.7"/>
<g>
	
		<text transform="matrix(0.9893 0 0 1 782.2881 1566.4492)" style="fill:#8A1538; font-family:'MarselisPro'; font-size:20.5268px;">Oman International</text>
	<text transform="matrix(0.9893 0 0 1 782.2881 1591.042)" style="fill:#8A1538; font-family:'MarselisPro'; font-size:20.5268px;">Exhibition Centre</text>
</g>
<g>
	
		<line style="fill:none;stroke:#8A1739;stroke-width:2.0108;stroke-miterlimit:10;" x1="1064.8" y1="1650.2" x2="1064.8" y2="1600.9"/>
	<ellipse style="fill:#8A1739;" cx="1064.8" cy="1650.2" rx="6.6" ry="6.7"/>
</g>
<g>
	
		<text transform="matrix(0.9893 0 0 1 1003.4883 1573.9233)" style="fill:#8A1538; font-family:'MarselisPro'; font-size:20.5268px;">Oman Convention</text>
	
		<text transform="matrix(0.9893 0 0 1 1003.4883 1598.5166)" style="fill:#8A1538; font-family:'MarselisPro'; font-size:20.5268px;">&amp; Exhibition Centre</text>
</g>
<g>
	<line style="fill:none;stroke:#8A1739;stroke-width:2.0108;stroke-miterlimit:10;" x1="766" y1="1352.3" x2="800.6" y2="1352.3"/>
	<ellipse style="fill:#8A1739;" cx="766" cy="1352.3" rx="6.6" ry="6.7"/>
</g>
<g>
	
		<line style="fill:none;stroke:#8A1739;stroke-width:2.0108;stroke-miterlimit:10;" x1="447.2" y1="1211.2" x2="418.2" y2="1192.2"/>
	<ellipse style="fill:#8A1739;" cx="447.2" cy="1211.2" rx="6.6" ry="6.7"/>
</g>
<line style="fill:none;stroke:#8A1739;stroke-width:2.0108;stroke-miterlimit:10;" x1="916" y1="1633.5" x2="916" y2="1682.9"/>
<ellipse style="fill:#8A1739;" cx="916" cy="1633.5" rx="6.6" ry="6.7"/>
<g>
	<text transform="matrix(0.9893 0 0 1 851.668 1704.2002)" style="fill:#8A1538; font-family:'MarselisPro'; font-size:20.5268px;">Muscat Hills</text>
	<text transform="matrix(0.9893 0 0 1 851.668 1728.791)" style="fill:#8A1538; font-family:'MarselisPro'; font-size:20.5268px;">Golf &amp; Country Club</text>
</g>
<g>
	<line style="fill:none;stroke:#8A1739;stroke-width:2.0108;stroke-miterlimit:10;" x1="606" y1="1100.4" x2="606" y2="1019.8"/>
	<ellipse style="fill:#8A1739;" cx="606" cy="1100.4" rx="6.6" ry="6.7"/>
</g>
<g>
	
		<line style="fill:none;stroke:#8A1739;stroke-width:2.0108;stroke-miterlimit:10;" x1="616.4" y1="1123.5" x2="641.4" y2="1045.8"/>
	<ellipse style="fill:#8A1739;" cx="616.4" cy="1123.5" rx="6.6" ry="6.7"/>
</g>
<g>
	
		<line style="fill:none;stroke:#8A1739;stroke-width:2.0108;stroke-miterlimit:10;" x1="655.2" y1="1124.7" x2="697.2" y2="1075.6"/>
	<ellipse style="fill:#8A1739;" cx="655.2" cy="1124.7" rx="6.6" ry="6.7"/>
</g>
<g>
	
		<line style="fill:none;stroke:#8A1739;stroke-width:2.0108;stroke-miterlimit:10;" x1="635.6" y1="1128.7" x2="599.6" y2="1182.5"/>
	<ellipse style="fill:#8A1739;" cx="635.6" cy="1128.7" rx="6.6" ry="6.7"/>
</g>
<line style="fill:none;stroke:#8A1739;stroke-width:2.0108;stroke-miterlimit:10;" x1="1492" y1="1628.9" x2="1443.2" y2="1628.9"/>
<ellipse style="fill:#8A1739;" cx="1492" cy="1628.5" rx="6.6" ry="6.7"/>
<line style="fill:none;stroke:#8A1739;stroke-width:2.0108;stroke-miterlimit:10;" x1="462.8" y1="1494.6" x2="462.8" y2="1544"/>
<ellipse style="fill:#8A1739;" cx="462.8" cy="1494.6" rx="6.6" ry="6.7"/>
<g>
	<text transform="matrix(0.9893 0 0 1 401.2583 1566.165)" style="fill:#8A1538; font-family:'MarselisPro'; font-size:20.5268px;">As Sahwah</text>
	
		<text transform="matrix(0.9893 0 0 1 401.2583 1590.7583)" style="fill:#8A1538; font-family:'MarselisPro'; font-size:20.5268px;">Public Garden</text>
</g>
<g>
	
		<text transform="matrix(0.9893 0 0 1 181.2881 1127.1318)" style="fill:#8A1538; font-family:'MarselisPro'; font-size:20.5268px;">The International</text>
	
		<text transform="matrix(0.9893 0 0 1 181.2881 1151.7222)" style="fill:#8A1538; font-family:'MarselisPro'; font-size:20.5268px;">School of</text>
	
		<text transform="matrix(0.9893 0 0 1 181.2881 1176.4604)" style="fill:#8A1538; font-family:'MarselisPro'; font-size:20.5268px;">Choueifat</text>
</g>
<g>
	
		<text transform="matrix(0.9893 0 0 1 1470.9775 1780.667)" style="fill:#8A1538; font-family:'MarselisPro'; font-size:20.5268px;">Ghala Valley</text>
	
		<text transform="matrix(1.0461 0 0 1 1470.9775 1805.2559)" style="fill:#8A1538; font-family:'MarselisPro'; font-size:20.5268px;">Golf Club</text>
</g>
<line style="fill:none;stroke:#8A1739;stroke-width:2.0108;stroke-miterlimit:10;" x1="1726.6" y1="1586.2" x2="1726.6" y2="1635.5"/>
<ellipse style="fill:#8A1739;" cx="1726.4" cy="1586.2" rx="6.6" ry="6.7"/>
<g>
	
		<text transform="matrix(0.9893 0 0 1 1667.4941 1655.3574)" style="fill:#8A1538; font-family:'MarselisPro'; font-size:20.5268px;">Mall of Oman</text>
</g>
<line style="fill:none;stroke:#8A1739;stroke-width:2.0108;stroke-miterlimit:10;" x1="3363" y1="1642.2" x2="3363" y2="1691.3"/>
<ellipse style="fill:#8A1739;" cx="3362.6" cy="1642" rx="6.6" ry="6.7"/>
<g>
	
		<text transform="matrix(0.9893 0 0 1 3299.4229 1713.3545)" style="fill:#8A1538; font-family:'MarselisPro'; font-size:20.5268px;">Qantab Beach</text>
</g>
<line style="fill:none;stroke:#8A1739;stroke-width:2.0108;stroke-miterlimit:10;" x1="3723" y1="1732.8" x2="3723" y2="1781.9"/>
<ellipse style="fill:#8A1739;" cx="3722.8" cy="1732.6" rx="6.6" ry="6.7"/>
<g>
	
		<text transform="matrix(0.9893 0 0 1 3652.3643 1801.9053)" style="fill:#8A1538; font-family:'MarselisPro'; font-size:20.5268px;">Bandar Khiran</text>
</g>
<line style="fill:none;stroke:#8A1739;stroke-width:2.0108;stroke-miterlimit:10;" x1="3555.2" y1="1728.1" x2="3555.2" y2="1777.3"/>
<ellipse style="fill:#8A1739;" cx="3555" cy="1727.9" rx="6.6" ry="6.7"/>
<g>
	
		<text transform="matrix(0.9893 0 0 1 3541.124 1797.1592)" style="fill:#8A1538; font-family:'MarselisPro'; font-size:20.5268px;">Yiti</text>
</g>
<line style="fill:none;stroke:#8A1739;stroke-width:2.0108;stroke-miterlimit:10;" x1="3210.6" y1="1559.5" x2="3210.6" y2="1608.9"/>
<ellipse style="fill:#8A1739;" cx="3210.4" cy="1559.5" rx="6.6" ry="6.7"/>
<g>
	
		<text transform="matrix(0.9893 0 0 1 3169.043 1628.7129)" style="fill:#8A1538; font-family:'MarselisPro'; font-size:20.5268px;">Al Bustan</text>
</g>
<line style="fill:none;stroke:#8A1739;stroke-width:2.0108;stroke-miterlimit:10;" x1="1929.6" y1="1500.5" x2="1929.6" y2="1588.8"/>
<ellipse style="fill:#8A1739;" cx="1929.4" cy="1500.3" rx="6.6" ry="6.7"/>
<g>
	
		<text transform="matrix(0.9893 0 0 1 1829.7754 1608.0508)" style="fill:#8A1538; font-family:'MarselisPro'; font-size:20.5268px;">ABA International school</text>
</g>
<line style="fill:none;stroke:#8A1739;stroke-width:2.0108;stroke-miterlimit:10;" x1="2193.2" y1="1214" x2="2193.2" y2="1263.2"/>
<ellipse style="fill:#8A1739;" cx="2193" cy="1213.8" rx="6.6" ry="6.7"/>
<g>
	<line style="fill:none;stroke:#8A1739;stroke-width:2.0108;stroke-miterlimit:10;" x1="2832" y1="1169.6" x2="2832" y2="1218.7"/>
	<ellipse style="fill:#8A1739;" cx="2831.8" cy="1169.4" rx="6.6" ry="6.7"/>
</g>
<g>
	
		<text transform="matrix(0.9893 0 0 1 2109.3203 1283.1812)" style="fill:#8A1538; font-family:'MarselisPro'; font-size:20.5268px;">Royal Opera House</text>
</g>
<g>
	
		<text transform="matrix(0.9893 0 0 1 2001.5215 1380.5508)" style="fill:#8A1538; font-family:'MarselisPro'; font-size:20.5268px;">British International School</text>
</g>
<g>
	
		<text transform="matrix(0.9893 0 0 1 2419.0059 1196.646)" style="fill:#8A1538; font-family:'MarselisPro'; font-size:20.5268px;">Qurum Natural Park</text>
</g>
<line style="fill:none;stroke:#8A1739;stroke-width:2.0108;stroke-miterlimit:10;" x1="1550.8" y1="1512.4" x2="1550.8" y2="1561.6"/>
<ellipse style="fill:#8A1739;" cx="1550.4" cy="1512.2" rx="6.6" ry="6.7"/>
<g>
	
		<text transform="matrix(0.9893 0 0 1 1491.7363 1581.5127)" style="fill:#8A1538; font-family:'MarselisPro'; font-size:20.5268px;">Sultan Qaboos </text>
	
		<text transform="matrix(0.9893 0 0 1 1491.7363 1606.1001)" style="fill:#8A1538; font-family:'MarselisPro'; font-size:20.5268px;">Grand Mosque</text>
</g>
<g>
	
		<text transform="matrix(0.9893 0 0 1 1318.2832 1610.5542)" style="fill:#8A1538; font-family:'MarselisPro'; font-size:20.5268px;">Taisam</text>
	
		<text transform="matrix(0.9893 0 0 1 1318.2832 1635.1455)" style="fill:#8A1538; font-family:'MarselisPro'; font-size:20.5268px;">International </text>
	
		<text transform="matrix(0.9893 0 0 1 1318.2832 1659.8848)" style="fill:#8A1538; font-family:'MarselisPro'; font-size:20.5268px;">School</text>
</g>
<text transform="matrix(0.9893 0 0 1 533.5342 1010.0967)" style="fill:#8A1739; font-family:'MarselisPro'; font-size:20.5268px;"> Al Mouj Marina</text>
<g>
	
		<line style="fill:none;stroke:#8A1739;stroke-width:2.0108;stroke-miterlimit:10;" x1="943.6" y1="1275.3" x2="943.6" y2="1194.4"/>
	<ellipse style="fill:#8A1739;" cx="943.6" cy="1275.3" rx="6.6" ry="6.7"/>
</g>
<g>
	<line style="fill:none;stroke:#8A1739;stroke-width:2.0108;stroke-miterlimit:10;" x1="790" y1="1226.8" x2="790" y2="1145.9"/>
	<ellipse style="fill:#8A1739;" cx="790" cy="1227" rx="6.6" ry="6.7"/>
</g>
<text transform="matrix(0.9893 0 0 1 619.7896 1040.8911)" style="fill:#8A1739; font-family:'MarselisPro'; font-size:20.5268px;">The Walk</text>
<text transform="matrix(0.9893 0 0 1 667.3848 1068.1552)" style="fill:#8A1739; font-family:'MarselisPro'; font-size:20.5268px;">Kempinski Hotel </text>
<text transform="matrix(0.9893 0 0 1 533.5342 1211.9463)" style="fill:#8A1739; font-family:'MarselisPro'; font-size:20.5268px;">Mysk by Shaza </text>
<text transform="matrix(0.9893 0 0 1 533.5342 1236.5376)" style="fill:#8A1739; font-family:'MarselisPro'; font-size:20.5268px;">Al Mouj Hotel</text>
<text transform="matrix(0.9893 0 0 1 808.2188 1356.9111)" style="fill:#8A1739; font-family:'MarselisPro'; font-size:20.5268px;">Muscat International Airport</text>
<text transform="matrix(0.9893 0 0 1 342.2061 1186.3989)" style="fill:#8A1739; font-family:'MarselisPro'; font-size:20.5268px;">Markaz Al Bahja</text>
<text transform="matrix(0.9893 0 0 1 890.3945 1189.7847)" style="fill:#8A1739; font-family:'MarselisPro'; font-size:20.5268px;">Al Mouj Golf</text>
<g>
	
		<line style="fill:none;stroke:#8A1739;stroke-width:2.0108;stroke-miterlimit:10;" x1="1429.2" y1="1336.3" x2="1429.2" y2="1255.5"/>
	<ellipse style="fill:#8A1739;" cx="1429.2" cy="1336.3" rx="6.6" ry="6.7"/>
</g>
<g>
	
		<line style="fill:none;stroke:#8A1739;stroke-width:2.0108;stroke-miterlimit:10;" x1="2327.6" y1="1190.8" x2="2407.6" y2="1190.8"/>
	<ellipse style="fill:#8A1739;" cx="2327.6" cy="1190.8" rx="6.6" ry="6.7"/>
</g>
<text transform="matrix(0.9893 0 0 1 1376.0957 1250.7759)" style="fill:#8A1739; font-family:'MarselisPro'; font-size:20.5268px;">Azaiba Beach</text>
<g>
	
		<line style="fill:none;stroke:#8A1739;stroke-width:2.0108;stroke-miterlimit:10;" x1="2131.8" y1="1182.7" x2="2131.8" y2="1101.8"/>
	<ellipse style="fill:#8A1739;" cx="2131.8" cy="1182.7" rx="6.6" ry="6.7"/>
</g>
<text transform="matrix(0.9893 0 0 1 2078.6875 1097.1284)" style="fill:#8A1739; font-family:'MarselisPro'; font-size:20.5268px;">Qurum Beach</text>
<g>
	
		<line style="fill:none;stroke:#8A1739;stroke-width:2.0108;stroke-miterlimit:10;" x1="2887.6" y1="1166.5" x2="2851.6" y2="1125.3"/>
	<ellipse style="fill:#8A1739;" cx="2887.6" cy="1166.5" rx="6.6" ry="6.7"/>
</g>
<text transform="matrix(0.9893 0 0 1 2769.9355 1240.7349)" style="fill:#8A1739; font-family:'MarselisPro'; font-size:20.5268px;">Bait Al Baranda</text>
<text transform="matrix(0.9893 0 0 1 2917.4746 1294.7031)" style="fill:#8A1739; font-family:'MarselisPro'; font-size:20.5268px;">Bait Al Zubair </text>
<text transform="matrix(0.9893 0 0 1 2917.4746 1319.292)" style="fill:#8A1739; font-family:'MarselisPro'; font-size:20.5268px;">Museum</text>
<text transform="matrix(0.9893 0 0 1 3059.1025 1476.813)" style="fill:#8A1739; font-family:'MarselisPro'; font-size:20.5268px;">Muscat Gate </text>
<text transform="matrix(0.9893 0 0 1 3059.1025 1501.4043)" style="fill:#8A1739; font-family:'MarselisPro'; font-size:20.5268px;">Museum</text>
<g>
	
		<line style="fill:none;stroke:#8A1739;stroke-width:2.0108;stroke-miterlimit:10;" x1="3082.4" y1="1207.8" x2="3082.4" y2="1126.9"/>
	<ellipse style="fill:#8A1739;" cx="3082.4" cy="1207.8" rx="6.6" ry="6.7"/>
</g>
<g>
	
		<line style="fill:none;stroke:#8A1739;stroke-width:2.0108;stroke-miterlimit:10;" x1="3045.6" y1="1143.1" x2="3125.6" y2="1143.1"/>
	<ellipse style="fill:#8A1739;" cx="3045.6" cy="1143.1" rx="6.6" ry="6.7"/>
</g>
<g>
	
		<line style="fill:none;stroke:#8A1739;stroke-width:2.0108;stroke-miterlimit:10;" x1="2968.6" y1="1237.3" x2="2968.6" y2="1271.5"/>
	<ellipse style="fill:#8A1739;" cx="2968.6" cy="1237.3" rx="6.6" ry="6.7"/>
</g>
<g>
	
		<line style="fill:none;stroke:#8A1739;stroke-width:2.0108;stroke-miterlimit:10;" x1="3160.8" y1="1431.2" x2="3140.4" y2="1453.2"/>
	<ellipse style="fill:#8A1739;" cx="3160.8" cy="1431.2" rx="6.6" ry="6.7"/>
</g>
<text transform="matrix(0.9893 0 0 1 3079.1338 1288.4443)" style="fill:#8A1739; font-family:'MarselisPro'; font-size:20.5268px;">The National Museum</text>
<text transform="matrix(0.9893 0 0 1 3079.1338 1313.0356)" style="fill:#8A1739; font-family:'MarselisPro'; font-size:20.5268px;">Of Oman</text>
<g>
	<line style="fill:none;stroke:#8A1739;stroke-width:2.0108;stroke-miterlimit:10;" x1="3068.2" y1="1247.4" x2="3090" y2="1268"/>
	<ellipse style="fill:#8A1739;" cx="3068.2" cy="1247.4" rx="6.6" ry="6.7"/>
</g>
<g>
	
		<line style="fill:none;stroke:#8A1739;stroke-width:2.0108;stroke-miterlimit:10;" x1="453.6" y1="1367.7" x2="453.6" y2="1286.8"/>
	<ellipse style="fill:#8A1739;" cx="453.6" cy="1367.7" rx="6.6" ry="6.7"/>
</g>
<g>
	
		<line style="fill:none;stroke:#8A1739;stroke-width:2.0108;stroke-miterlimit:10;" x1="295.4" y1="1201.3" x2="262.2" y2="1185.5"/>
	<ellipse style="fill:#8A1739;" cx="295.4" cy="1201.3" rx="6.6" ry="6.7"/>
</g>
<g>
	<path id="Rectangle-Copy-2_10_" style="fill:#FFFFFF;" d="M382.2,1265.8h143.6c4,0,7.2,3.2,7.2,7.3v38.2c0,4-3.2,7.3-7.2,7.3H382.2
		c-4,0-7.2-3.2-7.2-7.3v-38.2C375,1269,378.2,1265.8,382.2,1265.8z"/>
	
		<text transform="matrix(0.9893 0 0 1 418.4282 1288.4463)" style="fill:#8A1538; font-family:'MarselisPro-Bold'; font-size:20.5197px;">City Cent</text>
	
		<text transform="matrix(0.9893 0 0 1 500.5879 1288.4463)" style="fill:#8A1538; font-family:'MarselisPro-Bold'; font-size:20.5197px;">r</text>
	
		<text transform="matrix(0.9893 0 0 1 508.0176 1288.4463)" style="fill:#8A1538; font-family:'MarselisPro-Bold'; font-size:20.5197px;">e</text>
	
		<text transform="matrix(0.9893 0 0 1 418.4282 1308.9648)" style="fill:#8A1538; font-family:'MarselisPro-Light'; font-size:20.5197px;">Muscat</text>
	<g>
		<path id="Path_6_" style="fill:#8A1538;" d="M396.8,1282c-6.8,0-11.8,4.2-11.8,9.7v10.7h4c0,0,0-6.1,0-10.7c0-5.1,4.4-8.9,8.8-9.5
			c0.2,0,0.2,0,0.2,0L396.8,1282L396.8,1282z"/>
		<path id="Path_3_" style="fill:#8A1538;" d="M397.6,1282.2c-0.2,0.2-0.8,0.2-1.4,0.8c-2.4,1.6-3.8,5.1-3.8,7.9c0,0.2,0,0.2,0,0.6
			l0,0v0.2v10.7h3.2v-10.7c0-0.8,0.2-1.4,0.8-1.6l1.4,1.6l1.4-1.6c0.6,0.2,0.8,1,0.8,1.6v10.7h3.2v-10.7c0-3-2.4-5.9-5.4-5.9
			c-0.8,0-1.4,0.2-2,0.2l0,0c0.8-0.8,1.6-1.4,3-1.4l0,0c0.2,0,0.8,0,1,0.2c3,0.6,5.2,3,5.2,6.5c0,0.2,0,0.2,0,0.2v10.5h3.2
			c0,0,0-10.5,0-10.7c0-4.6-2.4-8.5-7.2-9.5c-0.2,0-0.2-0.2-0.8-0.2c-0.2,0-0.8,0-1,0C398.8,1282,398.4,1282,397.6,1282.2z"/>
	</g>
</g>
<g>
	
		<line style="fill:none;stroke:#8A1739;stroke-width:2.0108;stroke-miterlimit:10;" x1="2311.6" y1="1261.1" x2="2311.6" y2="1180.3"/>
	<ellipse style="fill:#8A1739;" cx="2311.6" cy="1261.1" rx="6.6" ry="6.7"/>
</g>
<g>
	<path id="Rectangle-Copy-2_1_" style="fill:#FFFFFF;" d="M2240.2,1127.1h143.6c4,0,7.2,3.2,7.2,7.3v38.2c0,4-3.2,7.3-7.2,7.3
		h-143.6c-4,0-7.2-3.2-7.2-7.3v-38.2C2233.2,1130.5,2236.4,1127.1,2240.2,1127.1z"/>
	
		<text transform="matrix(0.9893 0 0 1 2276.5156 1149.8514)" style="fill:#8A1538; font-family:'MarselisPro-Bold'; font-size:20.5197px;">City Cent</text>
	
		<text transform="matrix(0.9893 0 0 1 2358.6777 1149.8514)" style="fill:#8A1538; font-family:'MarselisPro-Bold'; font-size:20.5197px;">r</text>
	
		<text transform="matrix(0.9893 0 0 1 2366.1055 1149.8514)" style="fill:#8A1538; font-family:'MarselisPro-Bold'; font-size:20.5197px;">e</text>
	
		<text transform="matrix(0.9893 0 0 1 2276.5156 1170.3691)" style="fill:#8A1538; font-family:'MarselisPro-Light'; font-size:20.5197px;">Qurum</text>
	<g>
		<path id="Path_2_" style="fill:#8A1538;" d="M2255,1143.3c-6.8,0-11.8,4.2-11.8,9.7v10.7h4c0,0,0-6.1,0-10.7
			c0-5.1,4.4-8.9,8.8-9.5c0.2,0,0.2,0,0.2,0L2255,1143.3L2255,1143.3z"/>
		<path id="Path_1_" style="fill:#8A1538;" d="M2255.8,1143.7c-0.2,0.2-0.8,0.2-1.4,0.8c-2.4,1.6-3.8,5.1-3.8,7.9c0,0.2,0,0.2,0,0.6
			l0,0v0.2v10.7h3.2v-10.7c0-0.8,0.2-1.4,0.8-1.6l1.4,1.6l1.4-1.6c0.6,0.2,0.8,1,0.8,1.6v10.7h3.2v-10.7c0-3-2.4-5.9-5.4-5.9
			c-0.8,0-1.4,0.2-2,0.2l0,0c0.8-0.8,1.6-1.4,3-1.4l0,0c0.2,0,0.8,0,1,0.2c3,0.6,5.2,3,5.2,6.5c0,0.2,0,0.2,0,0.2v10.5h3.2
			c0,0,0-10.5,0-10.7c0-4.6-2.4-8.5-7.2-9.5c-0.2,0-0.2-0.2-0.8-0.2c-0.2,0-0.8,0-1,0C2256.8,1143.3,2256.4,1143.5,2255.8,1143.7z"
			/>
	</g>
</g>
<g>
	<path id="Rectangle-Copy-2_29_" style="fill:#8A1739;" d="M718.6,1093.3h143.6c4,0,7.2,3.2,7.2,7.3v38.2c0,4-3.2,7.3-7.2,7.3H718.6
		c-4,0-7.2-3.2-7.2-7.3v-38.2C711.6,1096.6,714.8,1093.3,718.6,1093.3z"/>
	
		<text transform="matrix(0.9893 0 0 1 754.9487 1116.0132)" style="fill:#FFFFFF; font-family:'MarselisPro-Bold'; font-size:20.5197px;">Al Mouj</text>
	
		<text transform="matrix(0.9893 0 0 1 754.9487 1136.5303)" style="fill:#FFFFFF; font-family:'MarselisPro-Light'; font-size:20.5197px;">Muscat</text>
	<g>
		<path id="Path_10_" style="fill:#FFFFFF;" d="M733.4,1109.5c-6.8,0-11.8,4.2-11.8,9.7v10.7h4c0,0,0-6.1,0-10.7
			c0-5.1,4.4-8.9,8.8-9.5c0.2,0,0.2,0,0.2,0L733.4,1109.5L733.4,1109.5z"/>
		<path id="Path_11_" style="fill:#FFFFFF;" d="M734.2,1109.9c-0.2,0.2-0.8,0.2-1.4,0.8c-2.4,1.6-3.8,5.1-3.8,7.9c0,0.2,0,0.2,0,0.6
			l0,0v0.2v10.7h3.2v-10.7c0-0.8,0.2-1.4,0.8-1.6l1.4,1.6l1.4-1.6c0.6,0.2,0.8,1,0.8,1.6v10.7h3.2v-10.7c0-3-2.4-5.9-5.4-5.9
			c-0.8,0-1.4,0.2-2,0.2l0,0c0.8-0.8,1.6-1.4,3-1.4l0,0c0.2,0,0.8,0,1,0.2c3,0.6,5.2,3,5.2,6.5c0,0.2,0,0.2,0,0.2v10.5h3.2
			c0,0,0-10.5,0-10.7c0-4.6-2.4-8.5-7.2-9.5c-0.2,0-0.2-0.2-0.8-0.2c-0.2,0-0.8,0-1,0C735.4,1109.5,734.8,1109.7,734.2,1109.9z"/>
	</g>
</g>
<text transform="matrix(0.9893 0 0 1 3029.2188 1122.1611)" style="fill:#8A1739; font-family:'MarselisPro'; font-size:20.5268px;">Al Alam Palace</text>
<text transform="matrix(0.9893 0 0 1 3130.2188 1150.3789)" style="fill:#8A1739; font-family:'MarselisPro'; font-size:20.5268px;">Jalali Fort</text>
<text transform="matrix(0.9893 0 0 1 2869.5625 1068.1552)" style="fill:#8A1739; font-family:'MarselisPro'; font-size:20.5268px;">Corniche Mutrah</text>
<g>
	
		<line style="fill:none;stroke:#8A1739;stroke-width:2.0108;stroke-miterlimit:10;" x1="2940.8" y1="1154.6" x2="2940.8" y2="1073.9"/>
	<ellipse style="fill:#8A1739;" cx="2940.8" cy="1154.6" rx="6.6" ry="6.7"/>
</g>
<text transform="matrix(0.9893 0 0 1 2937.7578 1017.4805)" style="fill:#8A1739; font-family:'MarselisPro'; font-size:20.5268px;">Riyam Park Monument</text>
<g>
	
		<line style="fill:none;stroke:#8A1739;stroke-width:2.0108;stroke-miterlimit:10;" x1="2983" y1="1130.9" x2="3050.6" y2="1025.2"/>
	<ellipse style="fill:#8A1739;" cx="2983" cy="1130.9" rx="6.6" ry="6.7"/>
</g>
<text transform="matrix(0.9893 0 0 1 2783.0488 1114.3145)" style="fill:#8A1739; font-family:'MarselisPro'; font-size:20.5268px;">Mutrah Souq</text>
<g id="NorthPoint" transform="translate(1831.070256, 181.453972) rotate(50.000000) translate(-1831.070256, -181.453972) translate(1792.570256, 137.953972)">
	<path id="Fill-933" style="fill:#8A1538;" d="M1162.1-124.1l9.3,15.5l-15.9-7.3L1162.1-124.1z M1152.7-112.7l28.4,11.6l-16.2-25.6
		l-28.4-11.6L1152.7-112.7z M1162.1-124.1l9.3,15.5l-15.9-7.3L1162.1-124.1z M1152.7-112.7l28.4,11.6l-16.2-25.6l-28.4-11.6
		L1152.7-112.7z M1162.1-124.1l9.3,15.5l-15.9-7.3L1162.1-124.1z M1180.9-100.9l-16.2-25.6l-28.4-11.8l16.2,25.6L1180.9-100.9z
		 M1146.6-151.1c17.1-5.9,35.8,3,42,20.1s-2.6,35.7-19.5,41.7c-16.9,6.1-35.8-3-42-19.9C1120.8-126.2,1129.8-145,1146.6-151.1z
		 M1171.6-82.1c20.9-7.5,31.6-30.4,23.9-51.3c-7.6-20.9-30.6-31.7-51.5-24.2c-20.9,7.3-31.4,30-23.9,50.7
		C1127.9-85.8,1150.9-75,1171.6-82.1z M1162.1-124.1l9.3,15.5l-15.9-7.3L1162.1-124.1z M1152.7-112.7l28.4,11.6l-16.2-25.6
		l-28.4-11.6L1152.7-112.7z M1162.1-124.1l9.3,15.5l-15.9-7.3L1162.1-124.1z M1152.7-112.7l28.4,11.6l-16.2-25.6l-28.4-11.6
		L1152.7-112.7z M1162.1-124.1l9.3,15.5l-15.9-7.3L1162.1-124.1z M1152.7-112.7l28.4,11.6l-16.2-25.6l-28.4-11.6L1152.7-112.7z
		 M1162.1-124.1l9.3,15.5l-15.9-7.3L1162.1-124.1z M1152.7-112.7l28.4,11.6l-16.2-25.6l-28.4-11.6L1152.7-112.7z"/>
	<g id="Back-Copy-5_1_" transform="translate(34.000000, 0.000000)">
		
			<text transform="matrix(0.6398 -0.7546 0.7628 0.6466 1084.5564 -144.9134)" style="fill:#8A1538; font-family:'ArialMT'; font-size:20.5267px;">N</text>
	</g>
</g>
</svg>
