<?xml version="1.0" encoding="utf-8"?>
<!-- Generator: Adobe Illustrator 19.1.0, SVG Export Plug-In . SVG Version: 6.00 Build 0)  -->
<svg version="1.1" id="app_x5F_Muscat-road--parent"
	 xmlns="http://www.w3.org/2000/svg" xmlns:xlink="http://www.w3.org/1999/xlink" x="0px" y="0px" width="1920px" height="1080px"
	 viewBox="0 0 1920 1080" style="enable-background:new 0 0 1920 1080;" xml:space="preserve">
<g id="map-data" style="display:none;">
	<path style="display:inline;fill:#FFFFFF;" d="M1474.4,946.3c-2.3,1.5-5,4-6.1,5.6c-1,1.6-3.5,3.9-5.4,5.2s-4.7,4.6-6.1,7.4
		c-1.4,2.8-3.8,8.7-5.3,13.2s0.5,10.3,4.4,12.8s12.1,2.8,18.3,0.6c0,0,0,0-0.1-2.2s-1.7-3.7-1.5-5.1c0.3-1.5,8.7-3.1,8.7-3.1
		c8.9-1.7,15.2-4.7,14.2-6.7c-1.1-2-4.6-6.2-7.9-9.3c0,0,0,0,0.4-0.5s2.3-3.9,0-8.9s-4.6-7.1-5.5-8.2s-0.9-1.1-0.9-1.1
		C1479.9,944.7,1476.7,944.8,1474.4,946.3z"/>
	<circle style="display:inline;fill:#E0DAD5;" cx="1796.8" cy="605.4" r="3.8"/>
	<circle style="display:inline;fill:#E0DAD5;" cx="1648.1" cy="616.4" r="3.8"/>
	<circle style="display:inline;fill:#E0DAD5;" cx="1597.4" cy="792" r="3.8"/>
	<circle style="display:inline;fill:#E0DAD5;" cx="1470.2" cy="916.8" r="3.8"/>
	<circle style="display:inline;fill:#E0DAD5;" cx="1470.2" cy="893.3" r="3.8"/>
	<circle style="display:inline;fill:#E0DAD5;" cx="1460.8" cy="919.7" r="3.8"/>
	<circle style="display:inline;fill:#E0DAD5;" cx="1460.8" cy="895.4" r="3.8"/>
	<g style="display:inline;">
		<path style="fill:none;stroke:#FFFFFF;stroke-width:5;stroke-miterlimit:10;" d="M2622.9,728.1c-19.1-21.5-51.3-41.3-78.1-51.7
			c-19.7-7.6-41.7-14.1-53.9-31.3c-8.6-12.2-11.1-28.2-21.2-39.1c-16-17.2-48.7-19.9-52.9-42.9c-1.2-6.6,0.5-13.7-2.5-19.7
			c-6-12-23.5-9.3-36.7-6.9c-24.6,4.6-50.5,1.4-73.3-8.8c-27.8-12.5-50.2-35-77.9-47.7c-26.4-12.1-56.3-14.6-85.3-14.1
			c-87.2,1.5-185.1,21-240.2,88.5c-30.4,37.2-70.6,74.2-119.4,83.8c-19.9,3.9-41,2.9-61.3,4.3c-37.4,2.5-75,1.8-112.3-2.2
			c-35.7-3.8-61.3,5.6-77.7,39.3c-11.1,22.8-16.1,48.1-29.5,69.9c-6.2,10.1-14.3,20.8-26.1,24.6c-16.8,5.4-40.1-5.1-57.2-7.9
			c-21.1-3.4-41.3-10.4-60.9-18.9c-39.8-17.4-70-26.6-110.5-42.4c-13-5-33.4-10.1-47.1-7.5c-10.3,2-27.8,6.6-37.5,10.7
			c-12.5,5.3-42.2,7.9-55.7,9.6c-19.1,2.4-39.9,2.9-58.4-3.6c-11.2-4-19-13.6-29.6-18.6c-10.6-5-23.6-6.9-35-8.8
			c-26.1-4.4-52.9-5.2-79.4-3.9c-41.7,2-91.7,6.8-128.5,28.5c-17.3,10.2-64.7,11.4-84.4,15.2c-25.4,4.9-51.6,3.2-77.4,4.8
			c-48.2,3.1-94.6,17.7-140.6,31.2c-35.3,10.4-71.4,21.1-108,25.5c-20.3,2.5-41.3-3.3-61.8-2.9c-22.6,0.4-44.1-9.3-62.7-21.3
			c-16.7-10.8-32.2-23.8-44.7-39.3c-14.2-17.7-17.2-38.2-20.6-60.1c-20.8-137.3-100.6-258-186.7-367C-68,226.5-131,155.8-215,121.3
			c-27.7-11.4-57-18.4-86.2-25.5C-370.7,79-440.3,62.3-509.8,45.5"/>
		<path style="fill:none;stroke:#FFFFFF;stroke-width:5;stroke-miterlimit:10;" d="M-985.5,652.3c28.2,24.2,52.7,52.6,72.4,84.1
			c6.6,10.5,12.8,21.4,21.8,29.8c27.5,25.5,72.9,20.7,102.7,43.5c20.8,15.9,30.5,42.6,49.3,60.8c33.1,32,84.8,31,130.8,30.4
			c49.1-0.6,98.3,1.9,147.1,7.3c34.9,3.9,69.6,9.2,104,16c33.6,6.7,66.1,15.2,98.6,25.9c58.9,19.3,117.7,39.4,174.2,65.2
			c55.8,25.5,109.3,56.8,155.5,97.4c19.7,17.3,38.7,36.7,63.3,45.7c16.3,6,34,7.1,51.3,6.4c56.1-2.2,111.4-22.5,155.7-57
			c9.4-7.3,18.5-15.4,29.4-20.4c23-10.6,49.7-5.9,75-4.5c13.4,0.7,26.9,0.2,40.3-1.1c6.8-0.7,13.6-1.6,20.4-2.7
			c5.9-0.9,12-0.8,16.8-4.7c3.1-2.4,5.6-5.5,8.9-7.6c3.5-2.2,7.7-3.2,11.7-4.2c22.5-5.4,44.9-10.8,67.5-15.6
			c29.3-6.2,58.8-11.8,88.3-16.6c46.7-7.6,66.3-21.5,113.5-25.6c20.1-1.7,52.2-8.7,71.8-13.7c26.9-6.9,49.5-7.6,74-20.5
			c39.8-20.9,92.2-15.5,135.6-27.3c43.3-11.9,95.9-39.8,139-26.8c33.9,10.2,64.3,30,98.1,40.4c25.7,7.9,58.3,8,74.1-13.8
			c31.2-43,106.5-45.6,159.2-52.2c30.3-3.8,57.1-5,85.7-16.7c28.2-11.5,54.6-26.8,80.9-42.1c21.8-12.7,43.6-25.4,64.6-39.2
			c16.1-10.6,32-22,49.9-29.3c32.9-13.4,73.3,6.3,101.3-20.9c8-7.7,12.6-18.1,18.1-27.7c9.1-16,21.7-23.2,37.8-31.1
			c37.5-18.4,78.2-30,114.4-51.1c17.3-10.1,34.1-22.4,53.7-26.5c7.8-1.6,16-1.9,23-5.6c11.4-5.9,17.1-18.8,21.8-30.7
			c14.7-37.6,28.1-72.2,31.7-112.4"/>
	</g>
	
		<path style="display:inline;fill:none;stroke:#FFFFFF;stroke-width:2;stroke-linecap:round;stroke-linejoin:round;stroke-miterlimit:10;" d="
		M1466.4,638.5l11.2,37.4l13.1,24.3l15.9,6.5l20.6,10.3l23.4,3.7l15.9-0.9l14.9,14.9l8.4,19.6c0,0,2.8,25.2,3.7,28
		c0.9,2.8,7.5,17.7,12.1,21.5c4.7,3.7,40.2,29.9,40.2,29.9l14,16.8l8.4,24.3l22.4,33.6l9.8,19.6l7.9,12.1l-3.7,10.9l-7.9,2.3H1686
		l-9.3,6.5l1.9,5.1l15.4-5.1h9.3l3.7,3.3l-4.7,5.1l-13.5,0.9l-7.9,4.7l0.5,4.7l12.6,0.9l5.1-2.3l3.7,3.3v3.7l-4.7,12.6l-5.6,9.8
		l18.2,74.3l-5.6,43l4.7,29.9l-10.7,28.5l0.5,24.3l4.7,3.3l10.7-4.2l10.3-4.2l17.3,2.8l24.8,8.9l28.5,7l21,1.4l31.8-11.7l25.7-10.7
		l20.1-16.3l19.2,7l7,30.4v9.3l13.5,15.9l239.4,172.1l115.4,79.9"/>
	<path style="display:inline;fill:none;stroke:#FFFFFF;stroke-width:2;stroke-miterlimit:10;" d="M526.2,783.8l49.7-20.4l33.4-12.3
		l107-14.3l60-17.7l49.1-14.3l39.5,2.7l15,1.4l26.6-6.1l66.1-1.4l55,15.6c0,0,40.2,20.4,84.5,14.3l83.1-19.8l77.7,22.5l30,9.7"/>
	<g style="display:inline;">
		<line style="fill:none;stroke:#FFFFFF;stroke-width:2;stroke-miterlimit:10;" x1="700.5" y1="741" x2="709.6" y2="832.5"/>
		<line style="fill:none;stroke:#FFFFFF;stroke-width:2;stroke-miterlimit:10;" x1="729.5" y1="734.8" x2="731.5" y2="831"/>
		<polyline style="fill:none;stroke:#FFFFFF;stroke-width:2;stroke-miterlimit:10;" points="813.9,710.4 811.9,728.7 803.8,729.8 
			805.8,748.6 818.5,749.6 819.5,771.5 809.3,774 811.4,820.8 		"/>
		<polyline style="fill:none;stroke:#FFFFFF;stroke-width:2;stroke-miterlimit:10;" points="838.4,703.8 841.4,769.4 819.5,771.5 
			821.6,806.6 810.4,806.6 		"/>
	</g>
	<g style="display:inline;">
		<line style="fill:none;stroke:#FFFFFF;stroke-width:2;stroke-miterlimit:10;" x1="1087.4" y1="732.3" x2="1050" y2="812.2"/>
		<path style="fill:none;stroke:#FFFFFF;stroke-width:2;stroke-miterlimit:10;" d="M1076.5,756.7l58.7-3.1c0,0,53.2-4.3,55-3.7
			s101.4,28.4,101.4,28.4"/>
		<line style="fill:none;stroke:#FFFFFF;stroke-width:2;stroke-miterlimit:10;" x1="1135.7" y1="727.8" x2="1137.1" y2="813.8"/>
		<line style="fill:none;stroke:#FFFFFF;stroke-width:2;stroke-miterlimit:10;" x1="1174.2" y1="750.6" x2="1175.2" y2="814.7"/>
		<line style="fill:none;stroke:#FFFFFF;stroke-width:2;stroke-miterlimit:10;" x1="1193.7" y1="713.5" x2="1190.3" y2="749.9"/>
	</g>
	<path style="display:inline;fill:#FFFFFF;" d="M288.8,531.8l0.4,14.5l-4,5.3l3,21.4l278.9-33.8l1.6,5.6l-7,1.1l2,18.6l-5,5.3
		l-66.6,8.1l0.4,28.5l-10.3,0.3c0,0-2.1-22.8-2.2-24.7s-21.4,3.5-21.4,3.5l0.2,6.5l6.6,0.3l2.9,18.6l-5.4,7.2l-20.9,3.4l-1.1,9.8
		l28-0.9l4.6,28.4l12.6-0.4l-1.3-26.6l10.8,0.2l3.3,14.9l16.1,5.6l61.9-8l1.6-8.9l35.9-3l3.2,12.5l6.8,7.3l20.5-1.1l3,5l-211.3,26.6
		l0.9,14l171.1-22.6l0.2,22.4l-24.7,2.2l-0.1,12.2l-9.3,0.8l1.8,12.1l-270,33.5l-2.7-12.5l8.8-3.1l-7.6-49.8l-25.2,1.7l0.7-6.1
		l75-7.9l-9.4-79.6l-125.4,11.3l-2.7-28l62.3-8.9l-2.6-38.7L288.8,531.8z M234.6,604.9l49.3-4.7l-1.6-16.8l-49.2,5.7L234.6,604.9z
		 M290,581.9l1.2,17.5l16.8-1.9l17.3-20.2L290,581.9z M340.4,592.2l5-8.2L455,570.5l-17.1-7.9L338.7,574L319,594.6L340.4,592.2z
		 M489.1,572.3l10.8-1.4l-1.9-15.4l-42.6,5.5L489.1,572.3z M505,554.2l1.9,16.1l43-4.8l-2.3-17.1L505,554.2z M398,583.5l0.1,4.2
		l40.5-4.4l-0.5-5.9L398,583.5z M443.3,668.6l-1.1-11.9l-22,2.4l-6,11L443.3,668.6z M363.8,692.1c-1.1,0-7.9-6.8-7.9-6.8l-43.3,5.5
		l3.5,21.6l114.8-15.8l-1.8-12.9C429.1,683.8,364.8,692.1,363.8,692.1z M394.1,709.9l-77.4,10.5l1.4,10.4l77.4-10.5L394.1,709.9z
		 M509.2,693.4l-71.1,9.6l1.4,10.4l71.1-9.6L509.2,693.4z M430.8,705l-29.7,4l1.4,10.4l29.7-4L430.8,705z M559.2,686.8l-43.3,5.8
		l1.4,10.4l43.3-5.8L559.2,686.8z M601.1,680.9l-34.3,4.6l1.4,10.4l34.3-4.6L601.1,680.9z M358.1,598.7l11.1,77.1l22.4-2.4
		c0,0-12.5-8.4-11.9-9.5c0.7-1.1,28.6-27.5,26.7-31.3S381.6,612,381.6,612l5-18.4L358.1,598.7z M411.2,603l25.1-3.6l-0.6-8.7
		l-32.1,3.8L411.2,603z M340.5,734.6l-12.9,1.6l1,7.6l12.9-1.6L340.5,734.6z M360.2,731.7l-12.9,1.6l1,7.6l12.9-1.6L360.2,731.7z
		 M381,729.2l-12.9,1.6l1,7.6l12.9-1.6L381,729.2z"/>
	<g style="display:inline;">
		
			<polyline style="fill:none;stroke:#FFFFFF;stroke-width:2;stroke-linecap:round;stroke-linejoin:round;stroke-miterlimit:10;" points="
			163.1,317.5 161.8,324.9 234.7,377.5 197.1,403.4 192.6,396.3 185.5,395.3 177,401.1 169.3,391.4 149.2,402.7 		"/>
		
			<polyline style="fill:none;stroke:#FFFFFF;stroke-width:2;stroke-linecap:round;stroke-linejoin:round;stroke-miterlimit:10;" points="
			130.3,314.6 118.9,350.2 117.1,356.1 106.7,371 84,389.5 70.4,395.6 		"/>
		
			<line style="fill:none;stroke:#FFFFFF;stroke-width:2;stroke-linecap:round;stroke-linejoin:round;stroke-miterlimit:10;" x1="164.7" y1="428" x2="118.9" y2="350.2"/>
		
			<polyline style="fill:none;stroke:#FFFFFF;stroke-width:2;stroke-linecap:round;stroke-linejoin:round;stroke-miterlimit:10;" points="
			181.2,339.5 169.6,354.8 133.3,375.5 		"/>
		
			<polyline style="fill:none;stroke:#FFFFFF;stroke-width:2;stroke-linecap:round;stroke-linejoin:round;stroke-miterlimit:10;" points="
			147.9,366.4 139.8,351.2 146.9,310.7 		"/>
		
			<polyline style="fill:none;stroke:#FFFFFF;stroke-width:2;stroke-linecap:round;stroke-linejoin:round;stroke-miterlimit:10;" points="
			106.7,371 114.1,384.3 127.4,378.8 138.5,397.9 103.8,419.6 85.6,388.2 		"/>
		
			<polyline style="fill:none;stroke:#FFFFFF;stroke-width:2;stroke-linecap:round;stroke-linejoin:round;stroke-miterlimit:10;" points="
			116.4,357.4 78.8,325.9 50.9,358.7 		"/>
		
			<polyline style="fill:none;stroke:#FFFFFF;stroke-width:2;stroke-linecap:round;stroke-linejoin:round;stroke-miterlimit:10;" points="
			127.4,309.7 107.1,304.8 94,301.6 80.1,289.6 73.3,292.2 78.8,325.9 97.6,317.8 106.7,306.1 		"/>
	</g>
	<polyline style="display:inline;fill:none;stroke:#FFFFFF;stroke-width:2;stroke-linecap:round;stroke-miterlimit:10;" points="
		1211.2,1017.2 1172.6,1012.3 1159.8,1030 	"/>
	<polyline style="display:inline;fill:none;stroke:#FFFFFF;stroke-width:2;stroke-linecap:round;stroke-miterlimit:10;" points="
		1209.1,1005.1 1214.2,1031.2 1220.7,1107.3 1269.3,1119 1284.3,1194.2 1305.7,1214.8 1331.9,1212.9 1381.4,1146.6 1407.6,1063.4 	
		"/>
	<polyline style="display:inline;fill:none;stroke:#FFFFFF;stroke-width:2;stroke-linecap:round;stroke-miterlimit:10;" points="
		1213.4,1032.8 1187.8,1031.4 1162.6,1031.1 1151.4,1022.7 1152.1,1004.1 1140.5,1000.6 1130,1002.4 1120.2,1007.3 1121.6,1016.4 
		1113.2,1031.4 1081.3,1050 1080.3,1057 1085.5,1072.8 1114.6,1077 1164.7,1121.1 	"/>
	<polyline style="display:inline;fill:none;stroke:#FFFFFF;stroke-width:2;stroke-linecap:round;stroke-miterlimit:10;" points="
		1460.8,826.9 1466.9,865.7 1465,918 1458,947 1432.8,980.6 1415,1030.1 1395.7,1111.6 1390,1149.4 1399.9,1192.9 1373.2,1199.9 
		1357.1,1209.7 1353.6,1230 	"/>
	<polyline style="display:inline;fill:none;stroke:#FFFFFF;stroke-width:2;stroke-linecap:round;stroke-miterlimit:10;" points="
		1480.1,684.8 1419.5,696.3 1392.5,694.9 1386.2,685.8 1321.7,662 	"/>
	<polyline style="display:inline;fill:none;stroke:#FFFFFF;stroke-width:5;stroke-linecap:round;stroke-miterlimit:10;" points="
		176.8,799.4 161.4,796.6 115.6,778.9 93.2,773.3 38.6,773.8 -17,780.8 -56.3,780.8 -139.9,763 -207.6,752.6 -286.1,748.9 
		-358,750.7 	"/>
	<g style="display:inline;">
		<polyline style="fill:none;stroke:#FFFFFF;stroke-width:2;stroke-linecap:round;stroke-miterlimit:10;" points="83.9,754.9 
			47.7,782.4 36.5,790.8 5.3,796.9 -18,800.1 -33.8,813.7 -38.5,834.2 -37.6,894.7 -35.7,919.4 -15.7,927.8 5.8,926.4 21.1,935.8 
			32.3,950.7 32.8,990.3 36.1,1088.6 		"/>
		<path style="fill:none;stroke:#FFFFFF;stroke-width:2;stroke-linecap:round;stroke-miterlimit:10;" d="M36.5,790.8l14.9,21.9
			l1.9,74.6l11.6,19.1l-13,45.2L71,965.1l2.8,16.8l-5.1,41.9l-17.7,7.9l12.6,19.6l22.4,22.4l25.6,0.9l7.9,7.9l16.3,4.2l-3.3,35.9
			c0,0,2.3,16.3,33.1,27c0,0,29,11.2,30.8,11.2"/>
	</g>
	
		<line style="display:inline;fill:none;stroke:#FFFFFF;stroke-width:2;stroke-linecap:round;stroke-miterlimit:10;" x1="1475.9" y1="770.9" x2="1418.8" y2="750.3"/>
	<polyline style="display:inline;fill:none;stroke:#FFFFFF;stroke-width:2;stroke-linecap:round;stroke-miterlimit:10;" points="
		1417,761.8 1421.9,715.6 1419.5,696.3 	"/>
	<g style="display:inline;">
		<polyline style="fill:none;stroke:#FFFFFF;stroke-width:2;stroke-linecap:round;stroke-miterlimit:10;" points="114,486.6 
			71.3,507.3 31.2,494.9 -12.1,481.6 -239.1,461.5 -204,573.1 -202.7,679.8 -227.2,716.8 -229.1,752.7 		"/>
		<path style="fill:none;stroke:#FFFFFF;stroke-width:2;stroke-linecap:round;stroke-miterlimit:10;" d="M84.5,768.8v-37.6l-27-86.6
			L26.2,580c0,0-22-36.4-10.7-59.6l15.6-25.6"/>
		<polyline style="fill:none;stroke:#FFFFFF;stroke-width:2;stroke-linecap:round;stroke-miterlimit:10;" points="-204,625.8 
			-186.4,623.9 -151.3,597.6 -118.1,586.3 -77.9,551.8 14.3,551.2 		"/>
	</g>
	<rect x="-583.6" y="-1031.3" style="display:inline;fill:#FFFFFF;" width="4652.7" height="3260.5"/>
	<g style="display:inline;">
		<g>
			<path style="fill:#E0DAD5;" d="M-130.5,764.5l51.8,13.4l25.2,5.7l27,0.8l25.1-2.8l21.5-2.8l26.2-1.9l10.8-2.3l32.4-25.3l33-4.4
				l12.2-15.8l15.7-0.4l3.6-7.1l-8.6-56.2V665c2.2-21.4-23.8-102-25-105.7l-6.5-15.4l-8.7-24.8l-6.1-21.2l6.2-8.4l0.6-0.3
				c8.8-5.1,18.6-11,19.8-12c0,0-0.1,0.1-0.2,0.2c0.8-0.9,4.8-4.1,36.2-25.9l38.8-24.8l24.4-13.1l12-12.6l8.3-11.2l2.3-10.4
				l-2.4-5.1L231.2,360l-4.3-10.9l-0.7-30.3l1.5-15.2l0.8,0.1L96.7,218.4L-100.9,58.9l-29.6-30.5V764.5z"/>
		</g>
		<g>
			<path style="fill:#E0DAD5;" d="M4054.2,1246.2l-41.6-29.3l-8.6-3.8l-6-7.8c0,0-7.6-2.2-8.9-3.8c-1.3-1.6-7.3-9.4-7.3-9.4
				l-8.9-9.4l-5.7-8.4c0,0-3.4-8.1-3.4-9.8c0-1.6,0.9-8.8,0.9-8.8l-0.1-6.5l3.9-4l0.3-2.6l-4.9,0.7l-3.3-1.3l-1-5.6l1-2v-3.6
				l-1.4-3.9c0,0-2-2.3-2.7-3.6s-2.3-3.9-2.3-3.9l-5.6,0.1l-7.9-0.9l-8.5,2.1l-1.6,3l2.6,1.9l7.2,2.9l4.9,2.2l4.6,1.6l3.6,2.2v3.6
				l0.1,4.3c0,0-1.6,0.7-2.6,1.3c-1,0.7-2.9,2-2.9,2l-3.9,2l-3.9,0.7c0,0-2.9,0.7-3.9,1.4c-1,0.7-5.8,4-5.8,4l-2.3,2.3l-6.5,2.4
				l-2.6,1.3l-6.8,2l-2.9,1.7l-4.9,2.3l-1.9,1.7l-10.1,1.4l-3.3,1c0,0,2.3-0.4-3.9,1.7c-6.2,2-2.6-0.3-2.6-0.3l-3.6,2.3l-4.5,6.6
				l-3.9,5.9l-0.9,7.9c0,0,0.7,1-1,2.6c-1.6,1.7-4.5,6.6-4.5,6.6l-5.8,6.3l-2.9,3.7l-2.6,1.6l-3.5,6.6l-3.2,12.1
				c0,0,0.1,4.3,0.1,5.6c0,1.3-1,1.3,0.7,3.9s5.7,11.1,7.4,12.7s5,5.2,5,5.2l4.4,12.1c0,0,1.7,8.2,2.1,9.1c0.3,1-12,5.4-12,5.4
				s-7.5-23.5-7.5-24.5s-0.1-10.5-0.1-10.5l-3.7-12.4l-2.3-4.2l-2-5.9l-2.6-2.6l-3.9-0.6c0,0-1.3-0.6-2.9,2.3
				c-1.6,3-6.1,9.2-6.1,9.2s1,4.9,1.1,5.9c0,1,0.1,11.5,0.1,11.5l0.7,6.2l7.1,17.6c0,0-2.2,4-2.5,5.9c-0.3,2-0.6,4.3-0.6,4.3
				l-0.2,11.8l0.8,13.7c0,0-0.2,8.2-0.5,9.2s-2.5,12.1-2.5,12.1l-9.6-11c0,0-2.1-10.1-2.1-11.8c0-1.6-2.4-12.1-2.4-12.1l-2.6-24.8
				l0.8-16.7c0,0,1.2-8.5,1.5-9.5s3.8-11.2,3.8-11.2l3.1-9.9l3.5-7.9l9.7-6.3l3.2-3.6l2.9-3.3l9.4-4.4l4.5-4.6l1.9-7.6l2.9-3l3.5-5
				c0,0,0-1.6,0.6-3c0.6-1.3,1.9-4.3,1.9-4.3l1.9-4l-0.4-2.9l2.2-3.6l7.5-4.7l6.2-2.4l7.8-3.4l4.5-5.9l2.9-6.3l2.5-7.2l0.6-3.3
				l2.6-3.3l3.6-3.3l3.2-4.9l12.6-9.6l-1.7-2.9l-13.3,10.6l-7.6-6.5l-4-2.2l-1.7-3.6l1.6-3.3l8.4-7.3l2.8-12.5l-2.3,1.3l-3.5,10.2
				l-8.4,8.3c0,0-3.6,2-4.6,2s-6.9-1.9-6.9-1.9s-1.3,0.4-2.6-2.3c-1.3-2.6-2.7-5.5-2.7-5.5l1.9-4.9l3.9-3.6l7.9,1.2l2.3,2.6l2.7,2.9
				l2.6-2.6l1.2-6.6l-2.7-3.9l-5.6-0.9c0,0-7.9,0.1-8.8,0.4c-1,0.3-8.2-1.2-8.2-1.2s-1.6,1.3-3.3-0.3s-2.6-1.9-3-3.2
				c-0.3-1.3-0.7-5.2-0.7-5.2l-1.7-4.9l-3-3.9l-3-2.3l-4.6-1.3l-4.5-0.9l-0.1-8.5l-5-2.2l-9.1,4c0,0-3.9,2.7-6.2,1.1
				c-2.3-1.6-5-3.9-5-3.9l-4.3-6.5l-2.7-6.2l-0.5-11.8l3.9-5.9l-5.9-2.9l-5.9-2.9c0,0-7.2,0.1-7.9-0.9s-0.3,2.3-0.7-1
				s0.6-8.5,0.9-10.2c0.3-1.6,1.9-4.9,1.9-4.9l3.2-3l3.9-3.3l4.2-5.6l-0.1-4.6h2.3l0.3-6.2l-2.6-1.3l-2.6,1.7l-4.9,1.4l-3.9-0.9
				l-2.5,13.1l-3.1,13.5l-4.1,9.5l-3.5,7.2l-2.2,6.6l-1.6,2.6l2.4,9.5c0,0-0.2,7.9-0.5,8.8c-0.3,1-4.8,10.5-4.8,10.5l-4.9,0.1h-2.9
				h-3.3l-4.9,3.3c0,0-1.9,2.6-1.9,5.3c0,2.6-1.5,8.9-1.8,10.2c-0.3,1.3-4.5,7.9-5.1,9.6c-0.6,1.6-4.5,5-4.5,5l-4.9,0.1l-3.7-5.2
				l-3-3.6c0,0-8.5,3.7-9.4,6.3c-0.9,2.6-3.5,5.3-3.5,5.3l-5.2,4.3l-6.9,0.1c0,0-2.3,2-3.3,0s-6.6-5.2-7-7.4
				c-0.4-2.3-1.8-12.4-1.8-12.4l5.2-5l3.6-2.3l11.5-1.4l0.7-4.3l5.1-1.4l7.2-1.4l3.6-4l-1.7-6.5l-4-3.6c0,0,0.6-3-3.9,1.4l-4.5,3
				l-14.4,2.8l-8.5-0.6l-0.1-5.6l-4.9-2.9l-7.2-2.2l-5.9,0.7l-7.3-4.5l-1.6,1l-6.5,2l-3.6-2.9l-4.3-4.5l-4-3.6l-4.7-9.4l-1.7-8.2
				l4.9-3l2.9-2.3h2.6l1.9-2l2.9-7.6l3.2-2.7l9.4-4.4l5.2-3.7l5.5-3.7c0,0,3.3-1,3.2-3c0-2-2-5.5-2-5.5l-3.4-6.5l-4.9,0.1h-2.6
				c0,0-3.9,6.3-6.8,9.2c-2.9,3-2.6,4.3-5.5,6s-0.3-0.3-2.9,1.7c-2.6,2-4.2,1.7-4.2,1.7l-4.7-7.8l-2.9,1.7h-3.6l-3.6,2.3l-2-10
				l-0.1-11.3h-2.6l-5.2,0.1l-5.2,7l-3.9,1.8l-2.2-1.7c0,0,0.4-1.8-0.1-4.4c-0.5-2.6,1.7-7.8,1.7-7.8s0.4-1,0.8-2.7s0.4-4.8,0.4-4.8
				l2.6-3.5l3.9-3.5l5.6-4l3-2.7l4.3-2.2l3.9-3.1l4.7-4.4l-1.3-3l-7.5-3h-3.1l-3,4.8l-9.1,3.6c0,0-0.4,1.8-3.5,2.7s-6.1,2.3-6.1,2.3
				l-10.5,1.4l-5.2,0.5l-2.2,1.3l-3.5-3.9c0,0,0-2.6,0-3.9c0-1.3,1.7-3.9,1.7-3.9l2.6-1.3l7.4-3.1l3.5-2.2c0,0,1.7-3.1,0.4-4.8
				s-1.3-1.7-1.3-1.7s-0.9,0-4.3,2.7c-3.5,2.7-3.5,2.7-3.5,2.7l-6.5,0.5l-7.4-2.5l-3.1-0.4l-6.5,2.7l-3.4,5.3c0,0-1.3,1.8-2.1,3.5
				c-0.9,1.8,0.5,2.6-3.4,5.3s-6.1,4.9-6.1,4.9l-6.1,1.4l-3.9-0.4l-7-0.4c0,0-3.1-1.3-4.8-2.1c-1.8-0.9-4.4-3-4.4-3s-2.2-0.8-3.5-3
				s-3.1-2.6-3.1-5.6c0-3.1-3,1.3,0-3.1c3-4.4,4.7-6.2,4.3-7.5c-0.5-1.3-2.2-3-3.5-3s-7,1.8-7,1.8l-2.2,1.3l-6.5,2.7l-77.1,45.9
				l-39.3,13.6c-3.7-15.3-0.2-30.6,6.7-44.7l1.5-10.1l-17.9-2.2l-8.4-10l-7.3-10.6l-17.9-3.3l-10.6-8.4l-11.2-4.5
				c-40.7,21.8-53-6.1-53-6.1l-7.1-8.4l0.3-0.4l-16.1-18.5l-7.3-18.4v-26.8l-32.4-22.3v-10l-10-3.8l-3.9-16.3l8.9-7.8l-13.4-11.2
				h-10.6l-5-12.3l4.5-16.2l11.2-7.3l5-15.1h-9.5l-7.3-8.4l-1.1-13.4l8.4-6.1l-3.9-7.8l-6.7-12.3c0,0-10-6.1-8.4,0
				c1.7,6.1-4.5,12.3-4.5,12.3c-16.2-1.1-15.1-10.6-15.1-10.6l0.6-7.3l4.5-4.5l6.7-7.3l2.2-13.4l-8.9-7.3l-5,13.9l-13.4-4.9
				c0,0-2.2,6.7-12.3,4.5c-10-2.2-4.5-17.9-4.5-17.9l5.6-9.5l5.6,9.5l16.7-3.9v-6.9l7.3-12.3c0,0,0-5,0-7.8s8.4-12.3,8.4-12.3
				l14-17.9l11.2-2.8l-14-24.6l-9.5,7.3l-7.8-3.3l-11.2,7.8l-8.9-5l6.7-10l-12.8-5l3.3-6.7l18.4,0.6v-5.6l-22.3-20.1v-31.8
				l-12.3-1.1H3089l-17.3-12.3l-0.6-17.3l10-2.8v-6.1h-21.2l-5.6-10l-7.3-18.4l-16.2-8.4l-11.2,6.7l3.3,10l-3.9,24.6l-10.6,2.8
				l-15.1-22.9l-11.2-5.6l-11.7-22.3l-9.5,5v15.1l-6.1,14l-21.8,10.6l-13.4-8.4l-13.4-2.2l-29,19L2866,396l-21.8,6.1l-9.5-10.6
				l-7.3-15.6l8.4-8.4l7.8,5.6l2.2,10.6l9.5-1.7l2.2-7.3l-12.8-21.8l7.8-10l19.5,18.4l15.1-6.7l-19-29.6l10.6-7.8l30.7,24.6l6.7-5
				l-36.3-32.9h-11.7l-16.2-18.4l-5-14l9.5-7.3l-5.6-8.9l-14.5-3.9l-9.5,6.7h-7.8l-8.4,5l-9.5,7.3l-15.1,1.1l-12.8,10l-12.3-10
				l-9.5-2.8l-6.7,3.9l-10.6,15.6l-26.8,4.5l-12.8-21.2l-30.1,26.8l-12.8-2.2l-15.1,4.5l-30.1-11.2l-10.6-8.4l-14.5,6.7l-16.2,2.8
				l-15.6-3.3l-21.2,12.3v9.5l-27.9,6.7l-55.8-5l-33.5-10l-32.4-19.5l-6.7-12.8l-13.4-8.4l-6.7-10l1.7-7.8l21.2-10.6l-12.8-1.1
				l-3.3-12.3l-10.6-7.3l-39.1-35.2l-10.6,7.3l-10.6-6.1v25.7l-15.1,8.9l-12.3,3.9l-8.4-16.7l-12.3-8.4l-12.3-2.2v16.2l-10.6,0.6
				l-3.3,12.8l7.8,10l-11.7,14l-5,12.8l-20.7,5.6l-7.8-6.7l-10,9.5l-1.1,8.4l11.2,11.2l-30.7,14.5l-15.6,12.3l6.1,2.8l-3.9,24.6
				l10.6,16.7l-113.9,68.1l-60.8,29.6l-182.5,73.1l-135.1,28.5l-127.8,13.4l-165.8,15.6L1160.3,561L994,566.6h-43.5l-39.6-8.4h-34.6
				l-85.4-18.4l-81.5-24.6l-39.6-8.4l-11.7-9.5h-11.2l-10.6-5.6l-4.5-12.3l-23.4-5.6l-25.7,8.4l-63.6-21.8l-62-29.6l-29.6-14
				L389.4,397l-3.6-2.1l-13.2-15.1l-4.8-5.4l-1.1-9.6l-7.5-9.1v-20.9l-9.1-16.3l-11.2-9.4l-1.6,9.4l4.3,15.8l-11.8,7.5l-4.8-3.2
				l-17.1,3.2l-1.1-3.7l-6.4-2.7v-3.7l8-2.7l6.4-4.3l-4.3-5.4l-8,1.6l-8.6-2.1l8.6-9.1l14.5,3.7l8,7l4.8-4.3V307l-9.6-7l-13.4-4.8
				l-31.1,9.6l-7.5,9.1l-1.7,11.3l-28-14.7l-22.6-15.3c0,0-0.2,0.1-0.4,0.4L91.1,215.1L-106.5,55.6L-198.2-39l-40.7-26.8l-60.1-52
				l-67.4-26l-49.3-40.3v-17.6l-11-16.6v-4.3h-6.7l3.7,10.2l7.8,11.2l-1.9,16.6l3.7,7.5l-2.2,7.8l-34.9-17.4
				c0.1-4.1,0.1-9.7-0.1-11.3c-0.3-2.7-12.6-11.8-12.6-11.8s4.8-4.8,4.8-9.6c0-4.8-4.8-3.7-4.8-3.7l28.9-9.6l27.8,2.7v-2.7
				l-27.8-3.2l-32.7,10.2l-23.6,19.5l-179.9-67.5l-169.9-62.4l-109.2-31.2l-35.2-31.2v2629.8h4703.9v-0.5h340.9L4054.2,1246.2z"/>
		</g>
	</g>
	<g style="display:inline;">
		<path style="fill:#E0DAD5;" d="M274.1,257.4c0-0.1,0-0.3,0-0.4c0.2-1.2,1.3-1.9,2.5-1.7c0.4,0.1,44.7,8.4,81.8,33.2
			c37.2,25,48.8,56.2,49.3,57.5c0.4,1.1-0.2,2.3-1.3,2.7c-1.1,0.4-2.3-0.2-2.7-1.3c-0.1-0.3-11.6-31.3-47.7-55.4
			c-36.3-24.3-79.7-32.5-80.1-32.6C274.8,259.3,274.1,258.4,274.1,257.4z"/>
	</g>
	<path style="display:inline;fill:none;stroke:#FFFFFF;stroke-width:2;stroke-miterlimit:10;" d="M114,485.5
		c0,0,111.9-95.8,149.7-108.3c0,0-140.9-92.5-189.8-122.1"/>
	<path style="display:inline;fill:#FFFFFF;" d="M760.5,541.8l-4.6,13.3l-2.5,9.5v8.4l-1.8,12.6l-3.5,14.7l-2.5,7.4l-8.2,1.8h-10
		l-5.3,6l-5.3,6.1v4.8v6.7v8.1v10.2V663l-8.4,16.8l-9.5,12.3L687,704.7l-18.6,8.4c0,0-9,3.5-11.6,4.2s-18.9,4.2-18.9,4.2l-16.8,3.5
		l-26.3,5.3l-19.2,6l-23.2,4.6l-7.1,8.9l-6.7,6.3l-4.6,10.5v6.3l-2.8,8.8l-2.1,7.7l-13.3,7.7h-9.1h-2.8v6.7l-3.5,4.9l-8.8,17.9l-7,7
		L475,848l-10,13.3l-8.5,9.5l-7.4,4.6l-9.5,6l-3.5,5.6v13.3l3.5,8.1l7.9,15.4l3.9,13v8.4l2.5,10.5l2.5,9.1v26.3l-2.2,6.3l13.6,16.8
		l-6.1,6l-10.4,13.7l-10.6,7.7l-9.3,8.1l-1.7,5.6l3,4.2l8,4.9l6.6,4.9l9,4.6l8.5,9.6l4.3,4.8l-1.5,9.1l-11.4,9.8l-10.6,6l-8.1,6.3
		l-1.4,5.6l6.5,4.6l8.5,3.9l13.6,5.3c0,0-0.8,3.2,0,4.2c0.8,1.1-3.2,13.7-3.2,13.7l-5.4,6l-5.1,7l-2.4,7.7l2.4,2.8l1.5-3.2l3.6-6.3
		l5.4-9.1l3.2-7l5-9.1l0.4-7.4l-5.4-4.2l-6.5-3.2l-11-2.8l-4.6-5.3c0,0,2-2.1,2.7-3.2c0.7-1.1,7.4-7,7.4-7l7.6-3.5l4.5-3.9
		c0,0,5-4.6,6.1-5.6c1.1-1.1,4.6-6.3,4.6-6.3l-7.8-9.8l-7.4-11.6l-6.2-3.2l-6.8-5.3l-7.9-3l-2-6l5.3-6.1c0,0,11.1-10.5,11.8-11.6
		c0.7-1.1,6.7-5.6,7.2-6.7s2.3-3.5,3.2-4.6c0.8-1.1,5-6.3,5-6.3l2.8-9.1l-5-6.7l-7.4-6.3l-2.4-4.9c0,0,3.5-6.7,3.7-8.8
		s-0.5-4.6,0-8.1s-1.3-15.4-1.3-15.4l-4.1-19.3l-2.9-14c0,0-3.9-4.2-4.2-5.6s-3.9-8.1-4.6-9.8c-0.7-1.8-5.6-10.5-5.2-12.3
		c0.3-1.8,1.3-11.9,1.3-11.9s3.3-3.5,4-4.9s11.6-8.1,11.6-8.1l8.5-9.5l9.3-11.9l13.7-14.7c0,0,7.6-7.4,7.3-8.8
		c-0.3-1.4,6.7-13,6.7-13l5.6-13.3l5.2-3.5l11.6-3.2c0,0,4.9-4.2,6.3-5.3c1.4-1.1,8.1-12.6,8.4-14.4c0.4-1.8,3.9-10.5,3.9-11.6
		s0-7,0-7l9.9-15.1l24.1-5.3l22.2-5l11.1-1l23.8-6.3l12.3-3.5l16.8-1.8c0,0,17.9-7,20.3-8.1s12.3-4.6,12.3-4.6l7.4-7
		c0,0,17.9-13,18.9-15.5c1.1-2.4,11.9-13.3,11.9-13.3s0.7-14.4,0.7-16.1c0-1.7-1.8-14.7-1.8-14.7s2.1-7,2.5-8.1s3.9-3.2,4.2-4.2
		c0.4-1.1,5.6-5.3,5.6-5.3l5.6-2l6-4.3l2.8-6l1.4-15.8l0.7-10.9l-0.7-8.1l3.1-11.2l6.7-14l3.5-9.1l3.1-7.7l1.5-6.3l-13-4.2"/>
	<g style="display:inline;">
		<polygon style="fill:none;stroke:#FFFFFF;stroke-width:2;stroke-miterlimit:10;" points="260,394.4 239.7,420.3 180.1,457.4 
			174.1,472.5 187.3,471.5 199,482.9 214.9,482.9 249.7,479.4 281,476.6 323.3,473.3 344.5,469.1 352.7,460.3 363.2,464.9 
			399.9,464.5 393.8,452.8 		"/>
		<polyline style="fill:none;stroke:#FFFFFF;stroke-width:2;stroke-miterlimit:10;" points="352.7,460.3 284.3,429.9 249,433.2 
			187.3,471.5 		"/>
		<polyline style="fill:none;stroke:#FFFFFF;stroke-width:2;stroke-miterlimit:10;" points="218.8,451.9 222.8,455.8 311.8,448.3 
			314.7,443.4 		"/>
	</g>
	<path style="display:inline;fill:#FFFFFF;" d="M559.6,501.1l12.8,5.3l-15.3,12.3l-71,2.1l-14.4-2.1l-30.4-15.1l-136.5,9.1
		l-50.3,2.5c0,0-24.5,1.8-41.7,14.4c0,0-40.3,31.5-16.1,90.7c0,0,20.2,41,26.4,50.4c0,0,4.8,10.9-6.8,4.9l-11.5-7.7l-4-3.5h-4.1
		l-3.2,2.8c0,0-1,20.3,11.3,31.5l15,12.6l12.6,9.8l33.2,21.4l49.8,31.5l10.9,10.2l11.6,11.2l17.1,16.8l15.7,16.1
		c0,0,6.2,3.9,4.5,10.9l-9.9,48l-11.9,10.2l-12,9.5c0,0-25.7,31.5-27.1,41.7c0,0,13.8-34.3,23.5-42l23.4-19.6l12-46.6
		c0,0-4.6-11.2-15.1-19.3L328,790.3l-32.2-25.9l-30.2-17l-27.2-15.8L216.3,718l-17.2-13c0,0-11.9-9.5-15.1-18.6V665v-9.8
		c0,0,1.1-7.4,0-8.4c-1.1-1.1,2.1-12.6,2.1-12.6l-2.3-11.2l-4.7-11.2l-2.1-24.2v-16.1l2.5-19.3c0,0,17.2-34,39.2-40.6l21.4-4.2
		l13.3-1.8l10.2-0.6l2-3.9l3.4-4.9l46-3.3c0,0,45.5-4.4,47.3-4.8s28.9-3.5,30.8-3.5s22.5-1.8,23.2-1.8s13.6,3.5,13.6,3.5l11.3,6.5
		l11.4,6.1l13.6,6.3l16.6,5.6l11.2,2.1l30.1-0.4l20.3-0.4l5.6-2.8L559.6,501.1z"/>
	<g style="display:inline;">
		<polygon style="fill:none;stroke:#FFFFFF;stroke-width:2;stroke-miterlimit:10;" points="579.4,607.5 537.4,581.6 508.7,590 
			510.8,632.7 517.1,640.4 548.6,636.9 		"/>
		<path style="fill:none;stroke:#FFFFFF;stroke-width:2;stroke-miterlimit:10;" d="M579.4,607.5l22.4-2.8l96.7-9.8l49-2.1l33.6,4.9
			l44.8,18.9c0,0,54.6,27.3,47.6,114.9l7,161.1l33.6,36.4l11.9,21l9.1,65.2l1.4,23.8l-9.1,9.1"/>
	</g>
	<path style="display:inline;fill:#FFFFFF;" d="M1309.8,574.6L1309.8,574.6c0-1.5,1.2-2.6,2.6-2.6h1c0.4,0,0.8,0.1,1.1,0.2l2.1,1
		c0.4,0.2,0.9,0.2,1.3,0.2s2.2,9.9,2.4,11.4c0.4,2.5,2.5,8.1,2.5,8.1v8.1l-1.8,6.3l-0.7,6.3c0,0-3.9,2.8-3.5,3.9s0,4.6,0,4.6v11.6
		l-2.8,7.4v4.9c0,0,0.7,4.6,1.1,5.6c0.4,1.1,1.8,6.7,1.8,6.7l8.4,8.8c0,0,3.9,3.9,5.6,5.6c1.8,1.8,8.4,7.4,8.4,7.4l4.9,5.3l5.3,5.6
		l3.2,4.5v9.5l-3.2,17.2l-1.6,10l-1.4,10.5l-3,17l-4,12.6l-5.6,11l-5.1,14.5l-6.3,12.8l-4.9,9.1l-2.8,5.8l2.1,23.6l0.5,3.7l0.5,5.8
		l1.9,9.6l1.4,7.7l4.9,5.4l5.9,5.6l1.8,2.8l2.8,2.6l1.4,2.6l-3.5,6.3l-4.2,9.3l-11.2,14.2l-4.9,5.6l-10.1,11.9
		c0,0-10.5,7.9-10.5,9.1c0,1.2-5.4,8.9-5.4,8.9l-3.3,7.5l-3.5,10l-6.1,10.7l-11.9,29.2l-5.8,14.2l-5.4,12.6l-3.3,3.5l-7,1.4
		l-10.3,1.4l-10,3.5l-7.9,2.1l-6.8,3l-7.5,3.5l-35.7,20.1l-13.8,10.5l-9.1,6.5c0,0-8.6,4.9-9.1,5.8c-0.5,0.9-8.2,7-8.2,7l-4.4,4
		l-3.7,2.1h-8.2l-8.4-3l-5.8-1.6l-6.8-1.9l-7.4-1.9l-11-0.7l-13.1,1.2c0,0-18,3.3-26.2,6.1l-12.8-1.6l-8.6-1.4l-10-0.9l-10.3-1.4
		h-9.2l-2.1,1.4l-2.8,7.5v7.2c0,0-0.2,4.2,0,6.8c0.2,2.6-0.4,11-0.1,11.9c0.3,0.9-1.1,5.6-1.3,6.3s-1.9,3.7-2.3,5.8
		c-0.5,2.1-1.4,6.5-1.4,7.7s-2.3,6.8-1.6,8.6c0.7,1.9,0.9,5.6,0.9,5.6l1.6,3.3l1.6,6.8l2.8,11.7l2.1,5.8l-0.7,7.5l-2.8,8.6
		l-3.3,10.5l-2.5,6.5v7.5l-1,10l1.4,8.4l3,7.9l4.4,14.2l2.6,4.9l4,6.1l3,5.8l1.9,3.5l1.9,5.4l1.2,4.7l0.7,9.1l2.8,34.8l-0.7,10.5
		l0.5,6.8l-0.9,5.1c0,0-2.6,4-3.3,5.4s-4.9,7.9-4.9,7.9l-4.4,5.4l-11.9,16.3l-1.2,1.8l-4,2.1l-1.8-2.1l1.8-2.8l4.3-5.1l2.8-3.5
		l2.8-3l3.3-3.5l3-4l3.3-5.8l1.9-2.1l1.6-3l1.6-6.3l-0.9-10.5l0.5-7l-1.2-8.9l-1.6-8.4l-2.1-10.8l-2.8-10.5c0,0-2.6-2.8-2.6-4.4
		s-3-11.7-3-11.7s-1.9-6.5-2.1-7.2c-0.2-0.7-2.8-7.7-2.8-7.7s-2.1-5.8-2.3-7.2c-0.2-1.4-3.6-11.7-3.6-11.7l-1.8-7.7
		c0,0,2.8-8.6-13.1,0.7l-10.7,4.2l-5.7,3l-6.8,4.2l-3.3,4.9l-7,9.3l-4.4,7.5l-7.2,11l-6.5,9.8l-9.6,10.3l-3,8.4l-1.9,7.5
		c0,0-3.3,5.4-3.5,6.8s-3.5,7.9-3.5,7.9l-3.3,5.6l-2.6,4.9l-2.8,3.7v8.9l-1.6,14.5v12.1l-2.6,6.1l-5.1,2.6l1.1-6.8l1.2-11.2
		l-0.9-6.8l1.2-11.7c0,0,1.2-9.8,1.4-11.2c0.2-1.4,3.5-12.8,3.5-12.8s2.6-2.8,3.7-5.6c1.2-2.8,3.3-8.2,3.3-8.2l4.4-5.4l2.3-6.1
		c0,0,4.9-4.4,5.1-5.1c0.2-0.7,3.5-5.4,4.2-6.8s9.3-10.7,9.3-10.7L905,1300l3.3-7.7c0,0,1.4-1.4,3-4.4s3.3-4.2,4.2-5.6
		s2.8-5.1,4.2-5.6s7-4,7-4l14.9-8.2c0,0,6.3-5.8,7-6.3s6.1-3.7,6.8-4.4c0.7-0.7,5.3-11.9,5.3-11.9l2.4-17.5c0,0,2.1-17,2.1-18.2
		s-0.9-6.3-1.4-8.6c-0.5-2.3-3.5-13.1-5.1-15.6c-1.6-2.6-1.4-0.9-1.9-4c-0.5-3,1.6-15.2,1.6-16.1c0-0.9,2.3-23.1,2.3-23.1l1.2-21
		c0,0-1.1-6.8-1.2-7.5c-0.2-0.7-0.9-8.4-1.3-10.7c-0.5-2.3-2.3-9.3-2.3-9.3s-3.3-13.3-3.3-14.9s-2.1-13.1-2.1-13.1l-1.6-7l-1.6-13.1
		l2.1-9.3c0,0,2.8-4.2,3.5-5.1c0.7-0.9,7.7-11.7,7.7-11.7l6.3-5.6l10.7-6.9l4.9-3.2l8.9-5.8l5.1-4.2l3.7-1.6l2.3-2.6l1.9-1.4
		l4.7-0.7l7.2,0.7l6.1-0.5l7.8,0.5l3-1.2l2.1-1.6l2.1-4.2l2.8-0.9l7.9,2.3c0,0,4.7,1.2,5.6,1.2s5.4,0,5.4,0l5.4-0.7l5.1-3.5l5.6-4
		l5.1-2.8l7.7-1.4l8.2-0.5l6.5-2.6l4.7-3l3.5-5.1l4.7-10.5c0,0-0.7,0.2,2.3-2.1s8.4-6.1,9.1-6.5c0.7-0.5,5.4-6.3,7-8.2
		s7.7-7.2,7.7-7.2s1.6-4.2,3-6.3s5.6-7.2,5.6-7.2s5.6-9.3,5.6-10s4-8.2,4-8.2l3.3-4.7l2.6-5.8l3.7-4.9l2.1-3c0,0,2.8-2.6,5.6-2.6
		s22.2-2.8,22.2-2.8l16.1-3.7l8.6-3.5c0,0,8.9-4.2,9.8-4.7s2.3-1.9,4-2.8c1.6-0.9,6.5-3.7,6.5-3.7l9.1-0.9c0,0,5.6,1.9,7.5,1.9
		s7.7-0.2,7.7-0.2s1.4-1.2,2.3-2.1c0.9-0.9,3.3-4,3.3-4l5.1-0.5c0,0,3.7-0.5,4.4-0.5c0.7,0,9.3-2.8,9.3-2.8l3.5-1.9l8.9-12.4l9.1-17
		c0,0,4.2-11.9,4.4-12.8c0.2-0.9,4.9-11.4,4.9-11.4l5.4-11l2.8-10.3l4.2-20.1l4-10.5l2.8-13.3c0,0,2.1-8.2,2.1-9.3
		c0-1.2,0.7-8.2,0.7-8.9s-2.1-4.9-3-6.8c-0.9-1.9-3.5-5.8-4.2-6.8c-0.7-0.9-4-4.7-4-4.7l-6.3-8.2l-6.1-5.8l-7.9-8.2l-2.6-5.8
		l-1.2-10.5c0,0,0.7-4.7,0.9-6.3s1.2-6.8,1.2-6.8s-1.2-4-1.2-4.9c0-0.9,1.2-7.2,1.2-7.2l2.3-9.3l-0.7-6.3c0,0-0.5-4.4-0.7-6.1
		s-0.2-3.5-0.5-4.4c-0.2-0.9-1.6-3.5-1.6-3.5l-2.7-13.1C1309.9,575.4,1309.8,575,1309.8,574.6z M1309.8,826.7c0,0-0.9,0.2-2.3,1.1
		c-1.4,0.9-0.9,1.4-1.6,2.1s-3,3.3-3.3,3.9c-0.4,0.5-1.4,1.6-1.8,2.6c-0.4,1.1-2.1,2.1-2.6,3s-2.6,2.8-4.4,4.6s0,0-1.6,0.9
		s-4,1.9-4.7,2.8c-0.7,0.9-3.2,1.6-4.6,1.9c-1.4,0.4-3.5,2.1-3.5,2.1s-3.3,1.8-9.3,3s-3,0.9-3,0.9s-3.2-0.7-3.7-0.9
		s-5.4-1.9-5.4-1.9s-6-1.6-7.9-2.3s-3.9,0.7-6,1.6c-2.1,0.9-2.5,2.1-3.9,3s-6,2.6-6.8,3c-0.9,0.4-4,2.1-6.3,3s-6.8,1.8-7.5,2.1
		c-0.7,0.4-7,1.9-7,1.9l-9.1,2.3l-8.2,1.8l-5.4,1.6c0,0-9.5,1.2-11.6,1.4s-4.4,1.4-4.9,1.8c-0.5,0.4-4.4,6.1-4.7,6.8
		c-0.4,0.7-3.7,7.4-3.7,7.4l-2.8,7l-2.3,6.7l-3.5,7l-3.2,7.5c0,0-8.4,12.4-8.8,13c-0.4,0.5-5.6,8.1-5.6,8.9c0,0.9-1.8,5.8-1.8,5.8
		s-10.5,10-11.4,11.4s-6,2.6-7.5,3.3c-1.6,0.7-6,4.2-6,4.2l-9,4c0,0-5.1,3.2-5.6,3.9s-4.7,3.7-4.7,3.7s-12.1,5.8-13.5,6.8
		s-9.5,2.6-9.5,2.6s-10.9,0.5-13.3,0.7c-2.5,0.2-7.9,1.2-9.3,1.4s-11.2,1.6-11.2,1.6l-11.9,2.5l-7.4-0.9l-10.7,2.5
		c0,0-11.9,3-13.1,3.3c-1.2,0.4-5.1,3.2-5.1,3.2l-7.7,7.4c0,0-2.8,3.3-3.5,4.9s-2.1,4.2-2.1,4.2l-6.3,4.2c0,0-3.3,3.2-3.7,4.2
		c-0.4,1.1-3.5,7.5-3.7,8.8c-0.2,1.2-3.3,7.5-4,8.4s0,12.1,0,12.1s0.4,9.6,0.9,10.5s2.6,5.8,3.3,7s5.4,9.6,5.4,9.6s3.5,9.1,3.9,10.2
		c0.4,1.1,7.7,7.5,8.2,8.1c0.5,0.6,11.6,4.6,11.6,4.6l13.5,3.3l17.3,1.2l12.3-2.8l7.5-5.3l6.1-3.2c0,0,4.6-2.6,5.1-2.6s6.1,0,6.1,0
		s1.4,1.4,2.5,2.6s3.9,1.1,3.9,1.1l3.5-2.3l7.9-1.9l4,1.2l2.6,2.5l4.2,2.5l5.8,3.5l7.4,2.5l4.7,2.8l8.2,1.9h7.2l4.2-2.3l7-5.1
		l7.4-4.2l10.2-7.5l10.3-6.5l7.9-6.5l15.2-10.5l5.8-3.5c0,0,7.7-5.6,10-6.5c2.3-0.9,8.9-2.5,8.9-2.5l10.3-2.1l10-1.9l8.2-2.1l4-5.3
		l4.9-5.6l6.8-11.6l5.6-10c0,0,5.6-17.9,6-18.6c0.4-0.7,1.6-4,1.8-4.7s1.6-4.4,1.6-4.4s-7,1.9-7.5,1.9s-4,1.2-5.1,1.6
		c-1.1,0.4-3.5,1.2-3.5,1.2s-4,1.2-4.9,1.6c-0.9,0.4-4.2,0-4.2,0l4.4-2.3l7-2.3l6.1-3.2l2.8-2.5c0,0,1.4-3,1.1-3.5s0-4.2,0-4.2
		l3.9-7.5c0,0,5.8-7.5,6.5-8.4s6.3-4,6.3-4l8.1-7l9.5-11.6l4-3.3l5.3-7.2l10-7.2l4.2-8.1l1.1-5.8v-7.4c0,0-1.2-5.4-1.2-6.3
		c0-0.9,0-6.7,0-6.7l-2.3-7.2c0,0-1.6-13-1.8-14c-0.2-1.1-0.9-5.1-0.9-5.1v-5.8l-1.1-8.4l-0.9-5.4l-1.1-6l-1.4-5.3L1309.8,826.7z"/>
	<g style="display:inline;">
		<path style="fill:#FFFFFF;" d="M838,862.6l25.6,21.5l2.8,2.3l1.1,9.3v4.4l-4,5.8l-2.3,6.3l-3.3,9.1v9.6c0,0,1.2,2.3,2.1,9.1
			c0.9,6.8,2.8,10,2.8,10l1.2,5.8l0.5,8.9l0.9,8.2l-3.5,5.6l-12.8,4.9h-3.6H844v-3.3l-1.4-1.2c0,0-2.8,0.5-4.4,1.6s-9.8,5.1-9.8,5.1
			l-1.9,2.1l-4.9-7l-5.8-4.9l-3.5-0.9l-10.3-0.2h-2.6v-3l5.6-1.9l10.5-0.7l4-3.3l6.1-3l7.9-5.4l6.5-6.5l5.5-5.1l5.9-3l3.1-3.5v-2.8
			v-11.3l-1.2-6.7c0,0,0.6-2.3,1.2-3.5c0.6-1.2,1.6-2.1,2.5-3.7s3-7,3-7s3.3-5.8,3.3-7s0.9-4,0.9-6.3s-3.7-8.2-3.7-8.2l-3-1.6
			l-3-0.5l-4.5,0.9c0,0,0-4.7-0.5-5.4s-1.6-2.3-1.6-2.3h-2.4l-6.9-1.4c0,0,0-0.2-0.7-1.4s-1.4-4-1.4-4v-2.6L838,862.6z"/>
		<path style="fill:#FFFFFF;" d="M869,944.8l0.9,8.9l2.3,2.1l3-1.4l6.3-1.6l1.9-2.5l2.8-4.1c0,0-0.7-4.4,0-5.4s0-0.9,0-0.9l-7.2,1.6
			c0,0,0.3,0-1.2,0.9c-1.6,0.9-1.8,1.4-2.5,1.4s-3.7,0.2-3.7,0.2L869,944.8z"/>
	</g>
	<circle style="display:inline;fill:none;stroke:#FFFFFF;stroke-width:2;stroke-miterlimit:10;" cx="69.1" cy="252" r="7.3"/>
	<polyline style="display:inline;fill:none;stroke:#FFFFFF;stroke-width:2;stroke-miterlimit:10;" points="1327,587.6 1327.7,598.8 
		1320,628.3 1321.4,679.4 1292.7,780.3 1307.4,851.1 1379.5,869.3 1551.9,823.7 1592.5,795 1614.9,782.4 1636.7,757.2 1686.4,753 
		1817.2,701.1 1831.7,699.3 1861.1,698.8 1895.2,707.2 1972.3,708.6 	"/>
	<path style="display:inline;fill:none;stroke:#FFFFFF;stroke-width:2;stroke-miterlimit:10;" d="M1549.8,653.7
		c-26.4-5.2-53-9.3-79.7-13.1c-13.6-1.9-27.2-3.7-40.8-5.4c-11.5-1.5-28-0.4-37.8-7.2c-3.6-2.5-6.8-5.5-10.8-7.2
		c-7.1-3.1-14.6-1.5-21.7,0.4c-8,2.1-13.7,2.9-21.9,2.3c-54.6-4.5-107.5-15.1-160.8-27.4c-14.8-3.4-31.8-0.6-47.1-0.7
		c-17.1,0-34.1-0.4-51.2-0.9c-34.1-1.1-68.2-3.1-102.3-5c-94.1-5.1-222.8-19.1-307.9-59.5"/>
	<g style="display:inline;">
		<polyline style="fill:none;stroke:#FFFFFF;stroke-width:2;stroke-miterlimit:10;" points="1306.2,850.8 1280.3,905.5 
			1275.4,924.4 1253.7,954.5 1211.6,1002.8 1192,1024.6 1180.1,1046.3 1169.6,1082.7 1164.7,1121.2 1160.5,1147.9 1152.8,1161.9 
			1107.2,1200.4 		"/>
	</g>
	<path style="display:inline;fill:#E0DAD5;" d="M265.2,335.2c-2.9,7.4-9.8,13.4-14.4,19.7c-1.5,2.1-6.4,10.4-3.7,12.4
		c9.3,6.9,18.3,14,27.4,21.1c0,0,37.8,22.5,37.9,22.6c4,2.4,8.7,4,12.9,6c6.1,3,12.2,5.9,18.4,8.7c29.5,13.3,60.3,23.6,90.7,34.6
		c8.5,3.1,16.9,6.1,25.4,9.2l87,27.9l67.7,26.5c11.8,4.6,24.2,8.1,36.2,12.1c2.9,1,5.8,1.9,8.9,2.4c4.8,0.7,9.7-0.8,14.5-0.1
		c11.2,1.7,22.5,8.5,30.1,10.8c2.5-8.5,4.9-17,7.4-25.4c0.4-1.5,1.8-4.2,1.6-5.7c-0.4-3.2-8.7-3.7-11.8-4.4
		c-9.4-2.2-18.9-3.9-28.4-6c-6.6-1.4-9.9-10.1-17.2-10.1c-6,0-15.3-0.1-19.2-6.1c-0.3-0.5-0.5-1-0.7-1.6c-0.6-1.8-1.2-3.5-1.8-5.3
		c-2.3-6.6-7.8-6.3-13.8-8c-5.2-1.4-10.6-3.3-15.9-1.4c-6.4,2.3-12.8,4.5-19.3,6.6c-0.7,0.2-1.5,0.5-2.3,0.5
		c-2.5,0.1-5.2-1.8-7.4-2.6c-3.4-1.2-6.8-2.4-10.2-3.4c-9.5-2.9-19-6.1-28.3-9.5c-18.7-6.9-37.1-14.8-54.9-23.7
		c-8.2-4.1-16.2-8.1-24.4-12.1c-13.6-6.5-27.7-13.1-41.3-20c-7-3.6-14-7.2-20.8-11c-3.1-1.7-6.8-3.3-9.5-5.6s-5-5.3-7.3-8
		c-2.8-3.3-5.6-6.7-8.5-10c-0.7-0.8-1.4-1.7-1.8-2.7c-0.4-1.1-0.3-2.3-0.4-3.5c-0.3-6.2-4.5-10-8.2-14.5v-6.4
		c0-7.1,0.3-14.5-2.9-21.1c-3.3-6.7-8.6-13.4-14.8-17.6c-3.9-2.7-4,4.8-4.1,6.9c-0.2,4.9,2.6,10.9,3.8,15.7c0.8,3-9,7.2-11.3,8.5
		c-0.4,0.2-5.2-2.9-6.4-2.9c-5.1,0.1-10.7,2-15.7,3c0.6-0.1-2.5-4.5-3.2-4.8c-1.4-0.6-3-0.8-4.3-1.7c0.1-3.7,1.3-4.2,4.7-5.3
		c2.5-0.9,5.2-1.9,7.2-3.7c2.8-2.5,1.1-3.5-0.8-6c-1.9-2.4-4.8,0-7.2,0.3c-3.9,0.4-6.7-1.1-10.4-1.9c0.8-5.2,5.9-6,7.9-8.3
		c1.9-2.1,7.2,0.5,9.6,1.1c2.9,0.7,5.8,1.6,8.2,3.5c2,1.6,3.8,5.7,6.7,4.6c1.8-0.7,3.8-4.6,3.9-6.4c0-2.2,0-5-1.2-6.8
		c-1.3-1.8-4.5-3.3-6.4-4.4c-4.4-2.6-9.1-4.4-13.8-6.2c-4.2-1.5-10.7,1.8-14.9,3c-5.7,1.6-11.3,3.2-16.8,5.5
		c-3.7,1.6-6.4,6.5-8.9,9.5L267,325c-0.5,3-0.6,6.6-1.6,9.4C265.4,334.8,265.3,335,265.2,335.2z"/>
	<polyline style="display:inline;fill:none;stroke:#FFFFFF;stroke-width:2;stroke-linecap:round;stroke-miterlimit:10;" points="
		151,791 167.8,818.6 195.4,823.7 237.9,823.3 273.9,819.5 303.3,821.9 343,828.9 360.3,827.9 355.6,808.3 351,789.3 	"/>
	
		<line style="display:inline;fill:none;stroke:#FFFFFF;stroke-width:5;stroke-linecap:round;stroke-miterlimit:10;" x1="277.8" y1="783.9" x2="192.3" y2="799.7"/>
	
		<line style="display:inline;fill:none;stroke:#FFFFFF;stroke-width:5;stroke-linecap:round;stroke-miterlimit:10;" x1="184.3" y1="791.5" x2="177.3" y2="683.5"/>
	<polyline style="display:inline;fill:none;stroke:#FFFFFF;stroke-width:2;stroke-linecap:round;stroke-miterlimit:10;" points="
		182.9,806 188.5,847.1 200.2,893.3 195,921.8 171.7,951.7 157.7,940.5 	"/>
	<g style="display:inline;">
		<polyline style="fill:none;stroke:#FFFFFF;stroke-width:2;stroke-linecap:round;stroke-miterlimit:10;" points="356.2,811.2 
			361.8,829.4 396.1,856.1 421.3,892.5 445.9,901.6 491.4,896.7 558,858.2 		"/>
		
			<circle style="fill:none;stroke:#FFFFFF;stroke-width:2;stroke-linecap:round;stroke-miterlimit:10;" cx="564.3" cy="855.7" r="6.3"/>
		
			<circle style="fill:none;stroke:#FFFFFF;stroke-width:2;stroke-linecap:round;stroke-miterlimit:10;" cx="522.6" cy="1060.3" r="6.3"/>
		
			<circle style="fill:none;stroke:#FFFFFF;stroke-width:2;stroke-linecap:round;stroke-miterlimit:10;" cx="528.5" cy="1084.6" r="6.3"/>
		
			<circle style="fill:none;stroke:#FFFFFF;stroke-width:2;stroke-linecap:round;stroke-miterlimit:10;" cx="535.7" cy="1053.3" r="6.3"/>
		
			<circle style="fill:none;stroke:#FFFFFF;stroke-width:2;stroke-linecap:round;stroke-miterlimit:10;" cx="540.7" cy="1075" r="6.3"/>
		<polyline style="fill:none;stroke:#FFFFFF;stroke-width:2;stroke-linecap:round;stroke-miterlimit:10;" points="561.1,849.8 
			542.9,821 524.7,793 525.4,785.3 529.9,747 		"/>
		<polyline style="fill:none;stroke:#FFFFFF;stroke-width:2;stroke-linecap:round;stroke-miterlimit:10;" points="554.8,838.5 
			555.9,810.2 564.3,792.3 566,776.9 572.4,738.1 		"/>
		<path style="fill:none;stroke:#FFFFFF;stroke-width:2;stroke-linecap:round;stroke-miterlimit:10;" d="M566.7,862l9.5,25.9
			l-2.5,25.2L524,987.7c0,0-10.5,17.2-4.2,42.7l41,129.4"/>
		<path style="fill:none;stroke:#FFFFFF;stroke-width:2;stroke-linecap:round;stroke-miterlimit:10;" d="M520.6,1032.4
			c0,0,10.7,16.8,42.3,22.4l0.9,3.7c0,0-25.5,13.1-19.6,46.7c0,0-20.3-23.8-44.6-21.3C499.6,1084,522.9,1064.1,520.6,1032.4z"/>
	</g>
	<path style="display:inline;fill:none;stroke:#FFFFFF;stroke-width:2;stroke-miterlimit:10;" d="M571,851.9l20.4-6.6L768,830.2
		l96.5-16.4l209.4-1.3l179.9,4.6l84.7,2.6l23.6,14.4l99.1-7.2l4.6-23l26.9-24.9l66.5-59.5c0,0,63.5-0.9,68.1-1.5s22.3-3.9,22.3-3.9
		l23-15.1l53.2,2c0,0,32.8,15.1,30.9,36.8l-1.3,24.3l-0.7,32.2l9.2,18.4"/>
	<polyline style="display:inline;fill:none;stroke:#FFFFFF;stroke-width:2;stroke-miterlimit:10;" points="926.9,682.5 882.4,644.8 
		824.4,615.7 	"/>
	<path style="display:inline;fill:none;stroke:#FFFFFF;stroke-width:2;stroke-miterlimit:10;" d="M922.7,682.3c0,0-42,6.7-49,44.8"
		/>
	<circle style="display:inline;fill:none;stroke:#FFFFFF;stroke-width:5;stroke-miterlimit:10;" cx="184.3" cy="798.5" r="7"/>
	<polyline style="display:inline;fill:none;stroke:#FFFFFF;stroke-width:2;stroke-miterlimit:10;" points="1975.1,698.9 
		1948.4,688.1 1934.9,653.1 1925.1,633 1890.1,633 1841,638.2 1820,634.4 1795.7,606.9 1805.5,569.5 1825.1,550.8 1874.2,532.1 
		1903.6,532.1 1918.5,526.1 1922.7,531.9 	"/>
	<polyline style="display:inline;fill:none;stroke:#FFFFFF;stroke-width:2;stroke-miterlimit:10;" points="1645.3,642.8 1646.7,632 
		1648.1,617.1 1652.8,613.8 1685.9,612.4 1703.7,606.8 1748.5,605.4 1827.5,604 1850.8,604.1 	"/>
	<polyline style="display:inline;fill:none;stroke:#FFFFFF;stroke-width:2;stroke-miterlimit:10;" points="1649,616.4 1669.6,633.6 
		1677.9,642 	"/>
	<polyline style="display:inline;fill:none;stroke:#FFFFFF;stroke-width:2;stroke-linecap:round;stroke-miterlimit:10;" points="
		1648.1,617.1 1627.8,630.6 1561.5,632.7 1542.8,645.1 1460,639.3 	"/>
	<polyline style="display:inline;fill:none;stroke:#FFFFFF;stroke-width:2;stroke-linecap:round;stroke-miterlimit:10;" points="
		2252.5,442.3 2251.1,415.7 2229.4,392.6 2195.1,390.5 2174,369.5 2165.6,375.8 2153.7,375.1 2150.2,364.6 2138.3,365.3 
		2052.1,417.1 1988.4,450.8 1943.5,468.3 1858.8,506.1 1796.8,526.8 	"/>
	<g style="display:inline;">
		<polyline style="fill:none;stroke:#FFFFFF;stroke-width:2;stroke-linecap:round;stroke-miterlimit:10;" points="1310.9,711.4 
			1236.6,689 1196,682.7 1144.8,664.4 1111.9,651.8 1067.1,650.4 1028.5,662.3 1007.5,670 		"/>
		<polyline style="fill:none;stroke:#FFFFFF;stroke-width:2;stroke-linecap:round;stroke-miterlimit:10;" points="1316.5,688.3 
			1248.8,661.2 1227.7,669.1 1199.7,665.8 1194.1,683.1 		"/>
		<polyline style="fill:none;stroke:#FFFFFF;stroke-width:2;stroke-linecap:round;stroke-miterlimit:10;" points="1256.7,612.5 
			1244.6,648.6 1248.8,661.2 		"/>
		
			<line style="fill:none;stroke:#FFFFFF;stroke-width:2;stroke-linecap:round;stroke-miterlimit:10;" x1="1205.3" y1="602.8" x2="1177.8" y2="676.1"/>
		<polyline style="fill:none;stroke:#FFFFFF;stroke-width:2;stroke-linecap:round;stroke-miterlimit:10;" points="1148.8,594.7 
			1151.1,629.4 1160.5,656.5 1146.5,665.8 1142.3,713.8 		"/>
		<polyline style="fill:none;stroke:#FFFFFF;stroke-width:2;stroke-linecap:round;stroke-miterlimit:10;" points="996.3,590.5 
			999.8,638.3 1009.1,675.6 1009.4,692.6 		"/>
	</g>
	<g style="display:inline;">
		<g>
			<path style="fill:#E0DAD5;" d="M1564.5,568c-1.3,0-2.5-1-2.8-2.3l-7.5-45.5l-9.9-5c-1.4-0.7-1.9-2.4-1.3-3.8
				c0.7-1.4,2.4-1.9,3.8-1.3l12.5,6.2l7.9,48.4c0.3,1.5-0.8,3-2.3,3.2C1564.8,568,1564.6,568,1564.5,568z"/>
		</g>
		<g>
			<path style="fill:#E0DAD5;" d="M1549.1,567.3c-1.4,0-2.7-1.1-2.8-2.6l-3.5-40.6c-0.1-1.5,1-2.9,2.6-3c1.5-0.1,2.9,1,3,2.6
				l3.5,40.6c0.1,1.5-1,2.9-2.6,3C1549.2,567.3,1549.2,567.3,1549.1,567.3z"/>
		</g>
	</g>
	<polyline style="display:inline;fill:none;stroke:#FFFFFF;stroke-width:2;stroke-miterlimit:10;" points="1030.5,814.2 
		1031.5,868.8 966.1,868.3 937.6,922.5 918.4,935.1 	"/>
</g>
<g id="Map_Labels">
	
		<g id="NorthPoint" transform="translate(1831.070256, 181.453972) rotate(50.000000) translate(-1831.070256, -181.453972) translate(1792.570256, 137.953972)">
		<path id="Fill-933" style="fill:#8A1538;" d="M131.1,173.1l6.3,10.6l-10.8-5L131.1,173.1z M124.6,181l19.3,7.8l-11-17.5l-19.3-7.8
			L124.6,181z M131.1,173.1l6.3,10.6l-10.8-5L131.1,173.1z M124.6,181l19.3,7.8l-11-17.5l-19.3-7.8L124.6,181z M131.1,173.1
			l6.3,10.6l-10.8-5L131.1,173.1z M143.9,188.9l-11-17.5l-19.3-7.9l11,17.5L143.9,188.9z M120.7,154.8c11.7-4.1,24.5,1.9,28.6,13.6
			c4.1,11.7-1.9,24.5-13.5,28.6c-11.6,4.2-24.5-1.9-28.6-13.5C103,171.9,109.1,159,120.7,154.8z M137.4,201.8
			c14.3-5.2,21.7-20.8,16.5-35.1c-5.1-14.3-20.7-21.5-35-16.4s-21.5,20.6-16.5,34.8C107.6,199.5,123.3,206.8,137.4,201.8z
			 M131.1,173.1l6.3,10.6l-10.8-5L131.1,173.1z M124.6,181l19.3,7.8l-11-17.5l-19.3-7.8L124.6,181z M131.1,173.1l6.3,10.6l-10.8-5
			L131.1,173.1z M124.6,181l19.3,7.8l-11-17.5l-19.3-7.8L124.6,181z M131.1,173.1l6.3,10.6l-10.8-5L131.1,173.1z M124.6,181
			l19.3,7.8l-11-17.5l-19.3-7.8L124.6,181z M131.1,173.1l6.3,10.6l-10.8-5L131.1,173.1z M124.6,181l19.3,7.8l-11-17.5l-19.3-7.8
			L124.6,181z"/>
		<g id="Back-Copy-5_1_" transform="translate(34.000000, 0.000000)">
			
				<text transform="matrix(0.6467 -0.7628 0.7628 0.6467 67.4477 159.1474)" style="fill:#8A1538; font-family:'ArialMT'; font-size:13.9371px;">N</text>
		</g>
	</g>
	<g>
		<path id="Rectangle-Copy-2_10_" style="fill:#FFFFFF;" d="M78,499.5h98.6c2.7,0,5,2.2,5,5v25.9c0,2.7-2.2,5-5,5H78
			c-2.7,0-5-2.2-5-5v-25.9C73.1,501.8,75.3,499.5,78,499.5z"/>
		
			<text transform="matrix(1 0 0 1 102.8865 514.8801)" style="fill:#8A1538; font-family:'MarselisPro-Bold'; font-size:13.9353px;">City Cent</text>
		
			<text transform="matrix(1 0 0 1 159.2865 514.8801)" style="fill:#8A1538; font-family:'MarselisPro-Bold'; font-size:13.9353px;">r</text>
		
			<text transform="matrix(1 0 0 1 164.3864 514.8801)" style="fill:#8A1538; font-family:'MarselisPro-Bold'; font-size:13.9353px;">e</text>
		
			<text transform="matrix(1 0 0 1 102.8865 528.8137)" style="fill:#8A1538; font-family:'MarselisPro-Light'; font-size:13.9353px;">Muscat</text>
	</g>
	<g>
		<path id="Rectangle-Copy-2_29_" style="fill:#8A1739;" d="M463.9,342h85.5c2.7,0,5,2.2,5,5v25.9c0,2.7-2.2,5-5,5h-85.5
			c-2.7,0-5-2.2-5-5V347C459,344.3,461.2,342,463.9,342z"/>
		<text transform="matrix(1 0 0 1 492.13 357.4243)" style="fill:#FFFFFF; font-family:'MarselisPro-Bold'; font-size:13.9353px;">Al Mouj</text>
		<text transform="matrix(1 0 0 1 492.13 371.3579)" style="fill:#FFFFFF; font-family:'MarselisPro-Light'; font-size:13.9353px;">Muscat</text>
		<g id="Group_12_" transform="translate(5.000000, 5.000000)">
			<path id="Path_24_" style="fill:#FFFFFF;" d="M471.6,347.4c-4.3,0-7.3,3-7.3,6.8v7.6h2.5c0,0,0-4.2,0-7.6c0-3.6,2.7-6.2,5.5-6.7
				c0.1,0,0.2-0.1,0.1-0.1H471.6z"/>
			<path id="Path_25_" style="fill:#FFFFFF;" d="M472.1,347.7c-0.3,0.1-0.7,0.2-1.1,0.6c-1.9,1.3-2.7,3.4-2.9,5.6c0,0.1,0,0.2,0,0.3
				l0,0v0.1v7.6h2.5v-7.6c0-0.5,0.2-0.9,0.6-1.1l1,1.1l1-1.1c0.3,0.2,0.6,0.7,0.6,1.1v7.6h2.5v-7.6c0-2.3-1.8-4.1-4-4.1
				c-0.6,0-1,0.1-1.5,0.3l0,0c0.5-0.6,1.3-0.9,2.2-0.9l0,0c0.2,0,0.6,0,0.8,0.1c2.2,0.3,3.9,2.3,3.9,4.4c0,0.1,0,0.2,0,0.2v7.5h2.3
				v-7.5c0-3.3-1.9-5.9-5.2-6.7c-0.1,0-0.3-0.1-0.5-0.1s-0.5-0.1-0.8-0.1C472.9,347.5,472.5,347.6,472.1,347.7z"/>
		</g>
	</g>
	<g>
		<line style="fill:none;stroke:#8A1739;stroke-miterlimit:10;" x1="118.2" y1="449.6" x2="98.3" y2="436.7"/>
		<circle style="fill:#8A1739;" cx="118.2" cy="449.6" r="4.5"/>
	</g>
	<g>
		<line style="fill:none;stroke:#8A1739;stroke-miterlimit:10;" x1="211.9" y1="379.7" x2="192" y2="366.8"/>
		<circle style="fill:#8A1739;" cx="211.9" cy="379.7" r="4.5"/>
	</g>
	<g>
		<text transform="matrix(1 0 0 1 166.7596 410.3723)" style="fill:#8A1538; font-family:'MarselisPro'; font-size:13.8803px;">The Marsa Plaza</text>
	</g>
	<g>
		<line style="fill:none;stroke:#8A1739;stroke-miterlimit:10;" x1="286.4" y1="373.6" x2="268.1" y2="405"/>
		<circle style="fill:#8A1739;" cx="286.4" cy="373.6" r="4.5"/>
	</g>
	<g>
		<line style="fill:none;stroke:#8A1739;stroke-miterlimit:10;" x1="367.8" y1="383.2" x2="390.8" y2="355"/>
		<circle style="fill:#8A1739;" cx="367.8" cy="383.2" r="4.5"/>
	</g>
	<g>
		<text transform="matrix(1 0 0 1 39.899 259.2999)" style="fill:#8A1538; font-family:'MarselisPro'; font-size:13.8803px;">Oman Oil Petrol Stations</text>
	</g>
	<g>
		<line style="fill:none;stroke:#8A1739;stroke-miterlimit:10;" x1="10.6" y1="255.3" x2="34.3" y2="255.1"/>
		<circle style="fill:#8A1739;" cx="10.6" cy="255.3" r="4.5"/>
	</g>
	<text transform="matrix(1 0 0 1 46.1521 432.7453)" style="fill:#8A1739; font-family:'MarselisPro'; font-size:13.94px;">Markaz Al Bahja</text>
	<text transform="matrix(1 0 0 1 395.4995 406.886)" style="fill:#8A1739; font-family:'MarselisPro'; font-size:13.94px;">Dog Park</text>
	<g>
		<g>
			<circle style="fill:#8A1538;" cx="137.2" cy="768.8" r="4.7"/>
		</g>
		<line style="fill:none;stroke:#8A1739;stroke-miterlimit:10;" x1="137.2" y1="764.3" x2="137.2" y2="819.2"/>
	</g>
	<g>
		<g>
			<ellipse style="fill:#8A1538;" cx="283.5" cy="319.7" rx="4.7" ry="4.7"/>
		</g>
		<line style="fill:none;stroke:#8A1739;stroke-miterlimit:10;" x1="288.1" y1="319.6" x2="233.2" y2="319.5"/>
	</g>
	<g>
		<g>
			<ellipse style="fill:#8A1538;" cx="368" cy="412.4" rx="4.7" ry="4.7"/>
		</g>
		<line style="fill:none;stroke:#8A1739;stroke-miterlimit:10;" x1="371.7" y1="410.4" x2="390.8" y2="403.4"/>
	</g>
	<g id="Group_1_" transform="translate(5.000000, 5.000000)">
		<path id="Path_2_" style="fill:#8A1538;" d="M82.3,505.1c-4.3,0-7.3,3-7.3,6.8v7.6h2.5c0,0,0-4.2,0-7.6c0-3.6,2.7-6.2,5.5-6.7
			c0.1,0,0.2-0.1,0.1-0.1L82.3,505.1L82.3,505.1z"/>
		<path id="Path_1_" style="fill:#8A1538;" d="M82.8,505.4c-0.3,0.1-0.7,0.2-1.1,0.6c-1.9,1.3-2.7,3.4-2.9,5.6c0,0.1,0,0.2,0,0.3
			l0,0v0.1v7.6h2.5V512c0-0.5,0.2-0.9,0.6-1.1l1,1.1l1-1.1c0.3,0.2,0.6,0.7,0.6,1.1v7.6H87V512c0-2.3-1.8-4.1-4-4.1
			c-0.6,0-1,0.1-1.5,0.3l0,0c0.5-0.6,1.3-0.9,2.2-0.9l0,0c0.2,0,0.6,0,0.8,0.1c2.2,0.3,3.9,2.3,3.9,4.4c0,0.1,0,0.2,0,0.2v7.5h2.2
			V512c0-3.3-1.9-5.9-5.2-6.7c-0.1,0-0.3-0.1-0.5-0.1s-0.5-0.1-0.8-0.1C83.6,505.2,83.2,505.3,82.8,505.4z"/>
	</g>
	<g>
		<path style="fill:#E0DAD5;" d="M1264.3,579.8c-0.9-0.1-1.5-0.8-1.5-1.7l0.2-24.9c0-0.9,0.7-1.7,1.7-1.8c0.9,0,1.7,0.8,1.7,1.8
			l-0.2,24.9c0,0.9-0.7,1.7-1.7,1.8C1264.4,579.8,1264.3,579.8,1264.3,579.8z"/>
	</g>
	<g>
		<path style="fill:#E0DAD5;" d="M1149.3,571.5c-0.9-0.1-1.5-0.6-1.5-1.1l-0.7-15.3c0-0.6,0.7-1,1.6-1s1.7,0.5,1.7,1.1l0.7,15.3
			c0,0.6-0.7,1-1.6,1C1149.4,571.5,1149.3,571.5,1149.3,571.5z"/>
	</g>
	<g>
		<line style="fill:none;stroke:#8A1739;stroke-miterlimit:10;" x1="1255.2" y1="573.9" x2="1255.2" y2="519"/>
		<circle style="fill:#8A1739;" cx="1255.2" cy="573.9" r="4.5"/>
	</g>
	<text transform="matrix(1 0 0 1 1218.662 515.8027)" style="fill:#8A1739; font-family:'MarselisPro'; font-size:13.94px;">Azaiba Beach</text>
	<g>
		<line style="fill:none;stroke:#8A1739;stroke-miterlimit:10;" x1="885" y1="565.7" x2="885" y2="510.8"/>
		<circle style="fill:#8A1739;" cx="885" cy="565.7" r="4.5"/>
	</g>
	<text transform="matrix(1 0 0 1 842.486 507.6496)" style="fill:#8A1739; font-family:'MarselisPro'; font-size:13.94px;">Al Shafaq Club</text>
	<line style="fill:none;stroke:#8A1739;stroke-miterlimit:10;" x1="715.5" y1="760.1" x2="715.5" y2="814.9"/>
	<g>
		<g>
			<text transform="matrix(1 0 0 1 661.1326 838.5402)" style="fill:#8A1538; font-family:'MarselisPro'; font-size:13.8803px;">Oman International</text>
			<text transform="matrix(1 0 0 1 661.1326 855.9404)" style="fill:#8A1538; font-family:'MarselisPro'; font-size:13.8803px;">Exhibition Centre</text>
		</g>
	</g>
	<g>
		<line style="fill:none;stroke:#8A1739;stroke-miterlimit:10;" x1="478.5" y1="605.8" x2="517.3" y2="605.8"/>
	</g>
	<line style="fill:none;stroke:#8A1739;stroke-miterlimit:10;" x1="647.1" y1="918.9" x2="647.1" y2="973.8"/>
	<g>
		<g>
			<text transform="matrix(1 0 0 1 610.4996 994.4998)" style="fill:#8A1538; font-family:'MarselisPro'; font-size:13.8803px;">Muscat Hills</text>
			<text transform="matrix(1 0 0 1 610.4996 1011.8999)" style="fill:#8A1538; font-family:'MarselisPro'; font-size:13.8803px;">Golf &amp; Country Club</text>
		</g>
	</g>
	<g>
		<line style="fill:none;stroke:#8A1739;stroke-miterlimit:10;" x1="331.6" y1="357" x2="290" y2="424.4"/>
	</g>
	<g>
		<g>
			<text transform="matrix(1 0 0 1 104.1884 836.1249)" style="fill:#8A1538; font-family:'MarselisPro'; font-size:13.8803px;">As Sahwah</text>
			<text transform="matrix(1 0 0 1 104.1884 853.5248)" style="fill:#8A1538; font-family:'MarselisPro'; font-size:13.8803px;">Public Garden</text>
		</g>
	</g>
	<g>
		<text transform="matrix(1 0 0 1 250.1801 255.2659)" style="fill:#8A1538; font-family:'MarselisPro'; font-size:13.8803px;"> Al Mouj Marina</text>
	</g>
	<g>
		<text transform="matrix(1 0 0 1 97.5997 307.8002)" style="fill:#8A1538; font-family:'MarselisPro'; font-size:13.8803px;">Horizon Kids</text>
		<text transform="matrix(1 0 0 1 97.5997 324.5002)" style="fill:#8A1538; font-family:'MarselisPro'; font-size:13.8803px;">International Nursery</text>
	</g>
	<g>
		<line style="fill:none;stroke:#8A1739;stroke-miterlimit:10;" x1="678.2" y1="520.1" x2="678.2" y2="430.1"/>
	</g>
	<g>
		<line style="fill:none;stroke:#8A1739;stroke-miterlimit:10;" x1="505.6" y1="466.3" x2="505.6" y2="376.3"/>
	</g>
	<g>
		<text transform="matrix(1 0 0 1 308.2173 286.7646)" style="fill:#8A1538; font-family:'MarselisPro'; font-size:13.8803px;">The Walk</text>
	</g>
	<g>
		<text transform="matrix(1 0 0 1 395.4994 306.9541)" style="fill:#8A1538; font-family:'MarselisPro'; font-size:13.8803px;">Kempinski Hotel </text>
	</g>
	<g>
		<g>
			<text transform="matrix(1 0 0 1 380.6501 335.5501)" style="fill:#8A1538; font-family:'MarselisPro'; font-size:13.8803px;">Al Mouj Muscat</text>
			<text transform="matrix(1 0 0 1 380.6501 352.2501)" style="fill:#8A1538; font-family:'MarselisPro'; font-size:13.8803px;">Beach Park</text>
		</g>
	</g>
	<g>
		<text transform="matrix(1 0 0 1 214.2793 438.65)" style="fill:#8A1538; font-family:'MarselisPro'; font-size:13.8803px;">Mysk by Shaza Al Mouj Hotel</text>
	</g>
	<g>
		<text transform="matrix(1 0 0 1 50.8997 370.2998)" style="fill:#8A1538; font-family:'MarselisPro'; font-size:13.8803px;">Al Maha Petrol Station</text>
	</g>
	<g>
		<text transform="matrix(1 0 0 1 525.952 610.9875)" style="fill:#8A1538; font-family:'MarselisPro'; font-size:13.8803px;">Muscat International Airport</text>
	</g>
	<g>
		<text transform="matrix(1 0 0 1 618.4003 424.979)" style="fill:#8A1538; font-family:'MarselisPro'; font-size:13.8803px;">Al Mouj Golf</text>
	</g>
	<g>
		<line style="fill:none;stroke:#8A1739;stroke-miterlimit:10;" x1="127" y1="622.9" x2="127" y2="532.9"/>
	</g>
	<g>
		<g>
			
				<line style="fill:none;stroke:#8A1538;stroke-width:1.2756;stroke-miterlimit:10;" x1="298.5" y1="263.4" x2="298.5" y2="327.9"/>
			<g>
				<circle style="fill:#8A1538;" cx="298.5" cy="327.7" r="4.7"/>
			</g>
		</g>
	</g>
	<g>
		<g>
			
				<line style="fill:none;stroke:#8A1538;stroke-width:1.2756;stroke-miterlimit:10;" x1="330.4" y1="292.5" x2="309.4" y2="353.5"/>
			<g>
				<circle style="fill:#8A1538;" cx="309.5" cy="353.2" r="4.7"/>
			</g>
			<g>
				<circle style="fill:#8A1538;" cx="331.3" cy="357" r="4.7"/>
			</g>
		</g>
	</g>
	<line style="fill:none;stroke:#8A1538;stroke-width:1.2756;stroke-miterlimit:10;" x1="391.9" y1="304.2" x2="353.6" y2="356.1"/>
	<g>
		<circle style="fill:#8A1538;" cx="353.8" cy="355.8" r="4.7"/>
	</g>
	<g>
		<circle style="fill:#8A1538;" cx="505.6" cy="461.5" r="4.7"/>
	</g>
	<g>
		<circle style="fill:#8A1538;" cx="481.4" cy="605.8" r="4.7"/>
	</g>
	<g>
		<circle style="fill:#8A1538;" cx="715.5" cy="762.2" r="4.7"/>
	</g>
	<g>
		<circle style="fill:#8A1538;" cx="647.1" cy="922.4" r="4.7"/>
	</g>
	<g>
		<ellipse style="fill:#8A1538;" cx="127" cy="620.2" rx="4.7" ry="4.7"/>
	</g>
	<g>
		<circle style="fill:#8A1538;" cx="678.2" cy="517.4" r="4.7"/>
	</g>
	
		<text transform="matrix(0.9935 0.1137 -0.1137 0.9935 810.2652 587.9031)" style="fill:#3C3C3D; font-family:'MarselisPro-Bold'; font-size:9.95px;">18th November St.</text>
	<g>
		
			<text transform="matrix(0.9796 -0.2011 0.2011 0.9796 800.6896 1012.6177)" style="fill:#8A1538; font-family:'MarselisPro'; font-size:13.8803px;">Muscat Expressway</text>
	</g>
	
		<text transform="matrix(0.855 -0.5186 0.5186 0.855 1743.2931 844.825)" style="fill:#3C3C3D; font-family:'MarselisPro-Bold'; font-size:9.95px;">Muscat Expressway</text>
	<text transform="matrix(1 0 0 1 866.1918 698.5471)" style="fill:#3C3C3D; font-family:'MarselisPro-Bold'; font-size:9.95px;">Sultan Qaboos St.</text>
	
		<text transform="matrix(0.9582 -0.286 0.286 0.9582 390.84 805.404)" style="fill:#3C3C3D; font-family:'MarselisPro-Bold'; font-size:9.95px;">Sultan Qaboos St.</text>
	
		<text transform="matrix(0.9995 -3.028880e-02 3.028880e-02 0.9995 1662.2302 658.8094)" style="fill:#3C3C3D; font-family:'MarselisPro-Bold'; font-size:9.9476px;">Sultan Qaboos St.</text>
	<g>
		<path style="fill:#676767;" d="M422.9,624.8l-3.1-0.6l-1.4,1.3l3.9,2.5l2,4.1l1.4-1.3l-0.3-3.1l5.1-4.6l4.4,9.6l1.9-1.7l-2.2-11.7
			l5.1-4.6c0.8-0.7,0.8-2,0.2-2.6c-0.7-0.8-2-0.8-2.6-0.2l-5.1,4.6l-11.4-3.2l-1.9,1.7l9,5.3L422.9,624.8z"/>
		<path style="fill:#676767;" d="M413.4,635.8c8.6,9.5,23.3,10.4,32.8,1.8c9.6-8.6,10.4-23.3,1.8-32.8c-8.6-9.6-23.3-10.4-32.8-1.8
			C405.7,611.6,404.8,626.3,413.4,635.8z M446.4,606.3c7.7,8.6,7,21.9-1.6,29.6s-21.9,7-29.6-1.6c-7.7-8.6-7-21.9,1.6-29.7
			C425.3,597,438.5,597.6,446.4,606.3z"/>
	</g>
</g>
</svg>
