<?xml version="1.0" encoding="utf-8"?>
<!-- Generator: Adobe Illustrator 19.1.0, SVG Export Plug-In . SVG Version: 6.00 Build 0)  -->
<svg version="1.1" id="app_x5F_Muscat-road--parent"
	 xmlns="http://www.w3.org/2000/svg" xmlns:xlink="http://www.w3.org/1999/xlink" x="0px" y="0px" width="1920px" height="1080px"
	 viewBox="0 0 1920 1080" style="enable-background:new 0 0 1920 1080;" xml:space="preserve">
<g id="Map_Labels">

		<g id="NorthPoint" transform="translate(1831.070256, 181.453972) rotate(50.000000) translate(-1831.070256, -181.453972) translate(1792.570256, 137.953972)">
		<path id="Fill-933" style="fill:#8A1538;" d="M19.6,80.4L25.9,91l-10.8-5L19.6,80.4z M13.1,88.3l19.3,7.8l-11-17.5L2.1,70.8
			L13.1,88.3z M19.6,80.4L25.9,91l-10.8-5L19.6,80.4z M13.1,88.3l19.3,7.8l-11-17.5L2.1,70.8L13.1,88.3z M19.6,80.4L25.9,91l-10.8-5
			L19.6,80.4z M32.4,96.2l-11-17.5L2.1,70.8l11,17.5L32.4,96.2z M9.2,62.1C20.9,58,33.7,64,37.8,75.7s-1.9,24.5-13.5,28.6
			c-11.6,4.2-24.5-1.9-28.6-13.5C-8.5,79.2-2.4,66.3,9.2,62.1z M25.9,109.1c14.3-5.2,21.7-20.8,16.5-35.1
			c-5.1-14.3-20.7-21.5-35-16.4S-14.1,78.2-9.1,92.4C-3.9,106.8,11.8,114.1,25.9,109.1z M19.6,80.4L25.9,91l-10.8-5L19.6,80.4z
			 M13.1,88.3l19.3,7.8l-11-17.5L2.1,70.8L13.1,88.3z M19.6,80.4L25.9,91l-10.8-5L19.6,80.4z M13.1,88.3l19.3,7.8l-11-17.5L2.1,70.8
			L13.1,88.3z M19.6,80.4L25.9,91l-10.8-5L19.6,80.4z M13.1,88.3l19.3,7.8l-11-17.5L2.1,70.8L13.1,88.3z M19.6,80.4L25.9,91l-10.8-5
			L19.6,80.4z M13.1,88.3l19.3,7.8l-11-17.5L2.1,70.8L13.1,88.3z"/>
		<g id="Back-Copy-5_1_" transform="translate(34.000000, 0.000000)">

				<text transform="matrix(0.6467 -0.7628 0.7628 0.6467 -44.0133 66.4031)" style="fill:#8A1538; font-family:'ArialMT'; font-size:13.9365px;">N</text>
		</g>
	</g>
	<g>
		<path id="Rectangle-Copy-2_10_" style="fill:#FFFFFF;" d="M77.4,354.5H176c2.7,0,5,2.2,5,5v25.9c0,2.7-2.2,5-5,5H77.4
			c-2.7,0-5-2.2-5-5v-25.9C72.5,356.8,74.7,354.5,77.4,354.5z"/>

			<text transform="matrix(1 0 0 1 102.2869 369.8801)" style="fill:#8A1538; font-family:'MarselisPro-Bold'; font-size:13.9353px;">City Cent</text>

			<text transform="matrix(1 0 0 1 158.6869 369.8801)" style="fill:#8A1538; font-family:'MarselisPro-Bold'; font-size:13.9353px;">r</text>

			<text transform="matrix(1 0 0 1 163.7869 369.8801)" style="fill:#8A1538; font-family:'MarselisPro-Bold'; font-size:13.9353px;">e</text>

			<text transform="matrix(1 0 0 1 102.2869 383.8137)" style="fill:#8A1538; font-family:'MarselisPro-Light'; font-size:13.9353px;">Muscat</text>
	</g>
	<g>
		<path id="Rectangle-Copy-2_29_" style="fill:#8A1739;" d="M463.3,197h85.5c2.7,0,5,2.2,5,5v25.9c0,2.7-2.2,5-5,5h-85.5
			c-2.7,0-5-2.2-5-5V202C458.4,199.3,460.6,197,463.3,197z"/>

			<text transform="matrix(1 0 0 1 491.5305 212.4243)" style="fill:#FFFFFF; font-family:'MarselisPro-Bold'; font-size:13.9353px;">Al Mouj</text>

			<text transform="matrix(1 0 0 1 491.5305 226.3579)" style="fill:#FFFFFF; font-family:'MarselisPro-Light'; font-size:13.9353px;">Muscat</text>
		<g id="Group_12_" transform="translate(5.000000, 5.000000)">
			<path id="Path_24_" style="fill:#FFFFFF;" d="M471,202.4c-4.3,0-7.3,3-7.3,6.8v7.6h2.5c0,0,0-4.2,0-7.6c0-3.6,2.7-6.2,5.5-6.7
				c0.1,0,0.2-0.1,0.1-0.1H471z"/>
			<path id="Path_25_" style="fill:#FFFFFF;" d="M471.5,202.7c-0.3,0.1-0.7,0.2-1.1,0.6c-1.9,1.3-2.7,3.4-2.9,5.6c0,0.1,0,0.2,0,0.3
				l0,0v0.1v7.6h2.5v-7.6c0-0.5,0.2-0.9,0.6-1.1l1,1.1l1-1.1c0.3,0.2,0.6,0.7,0.6,1.1v7.6h2.5v-7.6c0-2.3-1.8-4.1-4-4.1
				c-0.6,0-1,0.1-1.5,0.3l0,0c0.5-0.6,1.3-0.9,2.2-0.9l0,0c0.2,0,0.6,0,0.8,0.1c2.2,0.3,3.9,2.3,3.9,4.4c0,0.1,0,0.2,0,0.2v7.5h2.3
				v-7.5c0-3.3-1.9-5.9-5.2-6.7c-0.1,0-0.3-0.1-0.5-0.1s-0.5-0.1-0.8-0.1C472.3,202.5,471.9,202.6,471.5,202.7z"/>
		</g>
	</g>
	<g>
		<line style="fill:none;stroke:#8A1739;stroke-miterlimit:10;" x1="117.6" y1="304.6" x2="97.7" y2="291.7"/>
		<circle style="fill:#8A1739;" cx="117.6" cy="304.6" r="4.5"/>
	</g>
	<g>
		<line style="fill:none;stroke:#8A1739;stroke-miterlimit:10;" x1="211.3" y1="234.7" x2="191.4" y2="221.8"/>
		<circle style="fill:#8A1739;" cx="211.3" cy="234.7" r="4.5"/>
	</g>
	<g>
		<text transform="matrix(1 0 0 1 166.1601 265.3723)" style="fill:#8A1538; font-family:'MarselisPro'; font-size:13.8803px;">The Marsa Plaza</text>
	</g>
	<g>
		<line style="fill:none;stroke:#8A1739;stroke-miterlimit:10;" x1="285.8" y1="228.6" x2="267.5" y2="260"/>
		<circle style="fill:#8A1739;" cx="285.8" cy="228.6" r="4.5"/>
	</g>
	<g>
		<line style="fill:none;stroke:#8A1739;stroke-miterlimit:10;" x1="367.2" y1="238.2" x2="390.2" y2="210"/>
		<circle style="fill:#8A1739;" cx="367.2" cy="238.2" r="4.5"/>
	</g>
	<g>
		<text transform="matrix(1 0 0 1 39.2995 114.2999)" style="fill:#8A1538; font-family:'MarselisPro'; font-size:13.8803px;">Oman Oil Petrol Stations</text>
	</g>
	<g>
		<line style="fill:none;stroke:#8A1739;stroke-miterlimit:10;" x1="10" y1="110.3" x2="33.7" y2="110.1"/>
		<circle style="fill:#8A1739;" cx="10" cy="110.3" r="4.5"/>
	</g>
	<text transform="matrix(1 0 0 1 45.5525 287.7453)" style="fill:#8A1739; font-family:'MarselisPro'; font-size:13.94px;">Markaz Al Bahja</text>
	<text transform="matrix(1 0 0 1 394.8999 261.886)" style="fill:#8A1739; font-family:'MarselisPro'; font-size:13.94px;">Dog Park</text>
	<g>
		<g>
			<circle style="fill:#8A1538;" cx="136.6" cy="623.8" r="4.7"/>
		</g>
		<line style="fill:none;stroke:#8A1739;stroke-miterlimit:10;" x1="136.6" y1="619.3" x2="136.6" y2="674.2"/>
	</g>
	<g>
		<g>
			<ellipse style="fill:#8A1538;" cx="282.9" cy="174.7" rx="4.7" ry="4.7"/>
		</g>
		<line style="fill:none;stroke:#8A1739;stroke-miterlimit:10;" x1="287.5" y1="174.6" x2="232.6" y2="174.5"/>
	</g>
	<g>
		<g>
			<ellipse style="fill:#8A1538;" cx="367.4" cy="267.4" rx="4.7" ry="4.7"/>
		</g>
		<line style="fill:none;stroke:#8A1739;stroke-miterlimit:10;" x1="371.1" y1="265.4" x2="390.2" y2="258.4"/>
	</g>
	<g id="Group_1_" transform="translate(5.000000, 5.000000)">
		<path id="Path_2_" style="fill:#8A1538;" d="M81.7,360.1c-4.3,0-7.3,3-7.3,6.8v7.6h2.5c0,0,0-4.2,0-7.6c0-3.6,2.7-6.2,5.5-6.7
			c0.1,0,0.2-0.1,0.1-0.1L81.7,360.1L81.7,360.1z"/>
		<path id="Path_1_" style="fill:#8A1538;" d="M82.2,360.4c-0.3,0.1-0.7,0.2-1.1,0.6c-1.9,1.3-2.7,3.4-2.9,5.6c0,0.1,0,0.2,0,0.3
			l0,0v0.1v7.6h2.5V367c0-0.5,0.2-0.9,0.6-1.1l1,1.1l1-1.1c0.3,0.2,0.6,0.7,0.6,1.1v7.6h2.5V367c0-2.3-1.8-4.1-4-4.1
			c-0.6,0-1,0.1-1.5,0.3l0,0c0.5-0.6,1.3-0.9,2.2-0.9l0,0c0.2,0,0.6,0,0.8,0.1c2.2,0.3,3.9,2.3,3.9,4.4c0,0.1,0,0.2,0,0.2v7.5H90
			V367c0-3.3-1.9-5.9-5.2-6.7c-0.1,0-0.3-0.1-0.5-0.1s-0.5-0.1-0.8-0.1C83,360.2,82.6,360.3,82.2,360.4z"/>
	</g>
	<g>
		<path style="fill:#E0DAD5;" d="M1263.7,434.8c-0.9-0.1-1.5-0.8-1.5-1.7l0.2-24.9c0-0.9,0.7-1.7,1.7-1.8c0.9,0,1.7,0.8,1.7,1.8
			l-0.2,24.9c0,0.9-0.7,1.7-1.7,1.8C1263.8,434.8,1263.7,434.8,1263.7,434.8z"/>
	</g>
	<g>
		<path style="fill:#E0DAD5;" d="M1148.7,426.5c-0.9-0.1-1.5-0.6-1.5-1.1l-0.7-15.3c0-0.6,0.7-1,1.6-1s1.7,0.5,1.7,1.1l0.7,15.3
			c0,0.6-0.7,1-1.6,1C1148.8,426.5,1148.7,426.5,1148.7,426.5z"/>
	</g>
	<g>
		<line style="fill:none;stroke:#8A1739;stroke-miterlimit:10;" x1="1254.6" y1="428.9" x2="1254.6" y2="374"/>
		<circle style="fill:#8A1739;" cx="1254.6" cy="428.9" r="4.5"/>
	</g>
	<text transform="matrix(1 0 0 1 1218.0625 370.8027)" style="fill:#8A1739; font-family:'MarselisPro'; font-size:13.94px;">Azaiba Beach</text>
	<g>
		<line style="fill:none;stroke:#8A1739;stroke-miterlimit:10;" x1="884.4" y1="420.7" x2="884.4" y2="365.8"/>
		<circle style="fill:#8A1739;" cx="884.4" cy="420.7" r="4.5"/>
	</g>
	<text transform="matrix(1 0 0 1 841.8865 362.6496)" style="fill:#8A1739; font-family:'MarselisPro'; font-size:13.94px;">Al Shafaq Club</text>
	<line style="fill:none;stroke:#8A1739;stroke-miterlimit:10;" x1="714.9" y1="615.1" x2="714.9" y2="669.9"/>
	<g>
		<g>
			<text transform="matrix(1 0 0 1 660.5331 693.5402)" style="fill:#8A1538; font-family:'MarselisPro'; font-size:13.8803px;">Oman International</text>
			<text transform="matrix(1 0 0 1 660.5331 710.9404)" style="fill:#8A1538; font-family:'MarselisPro'; font-size:13.8803px;">Exhibition Centre</text>
		</g>
	</g>
	<g>
		<line style="fill:none;stroke:#8A1739;stroke-miterlimit:10;" x1="477.9" y1="460.8" x2="516.7" y2="460.8"/>
	</g>
	<line style="fill:none;stroke:#8A1739;stroke-miterlimit:10;" x1="646.5" y1="773.9" x2="646.5" y2="828.8"/>
	<g>
		<g>
			<text transform="matrix(1 0 0 1 609.9 849.4998)" style="fill:#8A1538; font-family:'MarselisPro'; font-size:13.8803px;">Muscat Hills</text>
			<text transform="matrix(1 0 0 1 609.9 866.8999)" style="fill:#8A1538; font-family:'MarselisPro'; font-size:13.8803px;">Golf &amp; Country Club</text>
		</g>
	</g>
	<g>
		<line style="fill:none;stroke:#8A1739;stroke-miterlimit:10;" x1="331" y1="212" x2="289.4" y2="279.4"/>
	</g>
	<line style="fill:none;stroke:#8A1739;stroke-miterlimit:10;" x1="1305.2" y1="878.7" x2="1305.2" y2="933.5"/>
	<g>
		<g>
			<text transform="matrix(1 0 0 1 103.5889 691.1249)" style="fill:#8A1538; font-family:'MarselisPro'; font-size:13.8803px;">As Sahwah</text>
			<text transform="matrix(1 0 0 1 103.5889 708.5248)" style="fill:#8A1538; font-family:'MarselisPro'; font-size:13.8803px;">Public Garden</text>
		</g>
	</g>
	<g>
		<g>
			<text transform="matrix(1 0 0 1 1277.314 951.5002)" style="fill:#8A1538; font-family:'MarselisPro'; font-size:13.8803px;">Ghala Valley</text>
			<text transform="matrix(1 0 0 1 1277.314 968.9001)" style="fill:#8A1538; font-family:'MarselisPro'; font-size:13.8803px;">Golf Club</text>
		</g>
	</g>
	<g>
		<text transform="matrix(1 0 0 1 249.5806 110.2659)" style="fill:#8A1538; font-family:'MarselisPro'; font-size:13.8803px;"> Al Mouj Marina</text>
	</g>
	<g>
		<text transform="matrix(1 0 0 1 97.0002 162.8002)" style="fill:#8A1538; font-family:'MarselisPro'; font-size:13.8803px;">Horizon Kids</text>
		<text transform="matrix(1 0 0 1 97.0002 179.5002)" style="fill:#8A1538; font-family:'MarselisPro'; font-size:13.8803px;">International Nursery</text>
	</g>
	<g>
		<line style="fill:none;stroke:#8A1739;stroke-miterlimit:10;" x1="677.6" y1="375.1" x2="677.6" y2="285.1"/>
	</g>
	<g>
		<line style="fill:none;stroke:#8A1739;stroke-miterlimit:10;" x1="505" y1="321.3" x2="505" y2="231.3"/>
	</g>
	<g>
		<text transform="matrix(1 0 0 1 307.6177 141.7646)" style="fill:#8A1538; font-family:'MarselisPro'; font-size:13.8803px;">The Walk</text>
	</g>
	<g>
		<text transform="matrix(1 0 0 1 394.8998 161.9541)" style="fill:#8A1538; font-family:'MarselisPro'; font-size:13.8803px;">Kempinski Hotel </text>
	</g>
	<g>
		<g>
			<text transform="matrix(1 0 0 1 380.0506 190.5501)" style="fill:#8A1538; font-family:'MarselisPro'; font-size:13.8803px;">Al Mouj Muscat</text>
			<text transform="matrix(1 0 0 1 380.0506 207.2501)" style="fill:#8A1538; font-family:'MarselisPro'; font-size:13.8803px;">Beach Park</text>
		</g>
	</g>
	<g>
		<text transform="matrix(1 0 0 1 213.6798 293.65)" style="fill:#8A1538; font-family:'MarselisPro'; font-size:13.8803px;">Mysk by Shaza Al Mouj Hotel</text>
	</g>
	<g>
		<text transform="matrix(1 0 0 1 50.3002 225.2998)" style="fill:#8A1538; font-family:'MarselisPro'; font-size:13.8803px;">Al Maha Petrol Station</text>
	</g>
	<g>
		<text transform="matrix(1 0 0 1 525.3525 465.9875)" style="fill:#8A1538; font-family:'MarselisPro'; font-size:13.8803px;">Muscat International Airport</text>
	</g>
	<g>
		<text transform="matrix(1 0 0 1 617.8008 279.979)" style="fill:#8A1538; font-family:'MarselisPro'; font-size:13.8803px;">Al Mouj Golf</text>
	</g>
	<g>
		<line style="fill:none;stroke:#8A1739;stroke-miterlimit:10;" x1="126.4" y1="477.9" x2="126.4" y2="387.9"/>
	</g>
	<g>
		<g>

				<line style="fill:none;stroke:#8A1538;stroke-width:1.2756;stroke-miterlimit:10;" x1="297.9" y1="118.4" x2="297.9" y2="182.9"/>
			<g>
				<circle style="fill:#8A1538;" cx="297.9" cy="182.7" r="4.7"/>
			</g>
		</g>
	</g>
	<g>
		<g>

				<line style="fill:none;stroke:#8A1538;stroke-width:1.2756;stroke-miterlimit:10;" x1="329.8" y1="147.5" x2="308.8" y2="208.5"/>
			<g>
				<circle style="fill:#8A1538;" cx="308.9" cy="208.2" r="4.7"/>
			</g>
			<g>
				<circle style="fill:#8A1538;" cx="330.7" cy="212" r="4.7"/>
			</g>
		</g>
	</g>
	<line style="fill:none;stroke:#8A1538;stroke-width:1.2756;stroke-miterlimit:10;" x1="391.3" y1="159.2" x2="353" y2="211.1"/>
	<g>
		<circle style="fill:#8A1538;" cx="353.2" cy="210.8" r="4.7"/>
	</g>
	<g>
		<circle style="fill:#8A1538;" cx="505" cy="316.5" r="4.7"/>
	</g>
	<g>
		<circle style="fill:#8A1538;" cx="480.8" cy="460.8" r="4.7"/>
	</g>
	<g>
		<circle style="fill:#8A1538;" cx="714.9" cy="617.2" r="4.7"/>
	</g>
	<g>
		<circle style="fill:#8A1538;" cx="646.5" cy="777.4" r="4.7"/>
	</g>
	<g>
		<circle style="fill:#8A1538;" cx="1305.2" cy="883.5" r="4.7"/>
	</g>
	<g>
		<ellipse style="fill:#8A1538;" cx="126.4" cy="475.2" rx="4.7" ry="4.7"/>
	</g>
	<g>
		<circle style="fill:#8A1538;" cx="677.6" cy="372.4" r="4.7"/>
	</g>

		<text transform="matrix(0.9935 0.1137 -0.1137 0.9935 809.6657 442.903)" style="fill:#3C3C3D; font-family:'MarselisPro-Bold'; font-size:9.95px;">18th November St.</text>
	<g>

			<text transform="matrix(0.9796 -0.2011 0.2011 0.9796 800.0901 867.6177)" style="fill:#8A1538; font-family:'MarselisPro'; font-size:13.8803px;">Muscat Expressway</text>
	</g>

		<text transform="matrix(0.855 -0.5186 0.5186 0.855 1742.6936 699.825)" style="fill:#3C3C3D; font-family:'MarselisPro-Bold'; font-size:9.95px;">Muscat Expressway</text>
	<text transform="matrix(1 0 0 1 865.5923 553.5471)" style="fill:#3C3C3D; font-family:'MarselisPro-Bold'; font-size:9.95px;">Sultan Qaboos St.</text>

		<text transform="matrix(0.9582 -0.286 0.286 0.9582 390.2405 660.4039)" style="fill:#3C3C3D; font-family:'MarselisPro-Bold'; font-size:9.95px;">Sultan Qaboos St.</text>

		<text transform="matrix(0.9995 -3.028755e-02 3.028755e-02 0.9995 1661.631 513.8096)" style="fill:#3C3C3D; font-family:'MarselisPro-Bold'; font-size:9.948px;">Sultan Qaboos St.</text>
	<text transform="matrix(1 0 0 1 103.5889 1038.3713)" style="fill:#3C3C3D; font-family:'MarselisPro-Bold'; font-size:9.95px;">Muscat Expressway</text>
	<g>
		<path style="fill:#676767;" d="M422.3,479.8l-3.1-0.6l-1.4,1.3l3.9,2.5l2,4.1l1.4-1.3l-0.3-3.1l5.1-4.6l4.4,9.6l1.9-1.7l-2.2-11.7
			l5.1-4.6c0.8-0.7,0.8-2,0.2-2.6c-0.7-0.8-2-0.8-2.6-0.2l-5.1,4.6l-11.4-3.2l-1.9,1.7l9,5.3L422.3,479.8z"/>
		<path style="fill:#676767;" d="M412.8,490.8c8.6,9.5,23.3,10.4,32.8,1.8c9.6-8.6,10.4-23.3,1.8-32.8c-8.6-9.6-23.3-10.4-32.8-1.8
			C405.1,466.6,404.2,481.3,412.8,490.8z M445.8,461.3c7.7,8.6,7,21.9-1.6,29.6s-21.9,7-29.6-1.6s-7-21.9,1.6-29.7
			C424.7,452,437.9,452.6,445.8,461.3z"/>
	</g>
</g>
</svg>
