<?xml version="1.0" encoding="utf-8"?>
<!-- Generator: Adobe Illustrator 19.1.0, SVG Export Plug-In . SVG Version: 6.00 Build 0)  -->
<svg version="1.1" id="app_x5F_Muscat-road--parent"
	 xmlns="http://www.w3.org/2000/svg" xmlns:xlink="http://www.w3.org/1999/xlink" x="0px" y="0px" width="3840px" height="2160px"
	 viewBox="960 -540 3840 2160" style="enable-background:new 960 -540 3840 2160;" xml:space="preserve">
<g id="Map_Data" style="display:none;">
	<g style="display:inline;">
		<g>
			<path style="fill:#E0DAD5;" d="M4087.8,706c-2.6,0-5-2-5.6-4.6l-15-91l-19.8-10c-2.8-1.4-3.8-4.8-2.6-7.6
				c1.4-2.8,4.8-3.8,7.6-2.6l25,12.4l15.8,96.8c0.6,3-1.6,6-4.6,6.4C4088.4,706,4088,706,4087.8,706z"/>
		</g>
		<g>
			<path style="fill:#E0DAD5;" d="M4057,704.6c-2.8,0-5.4-2.2-5.6-5.2l-7-81.2c-0.2-3,2-5.8,5.2-6c3-0.2,5.8,2,6,5.2l7,81.2
				c0.2,3-2,5.8-5.2,6C4057.2,704.6,4057.2,704.6,4057,704.6z"/>
		</g>
	</g>
	<circle style="display:inline;fill:#E0DAD5;" cx="4255" cy="802.8" r="7.6"/>
	<circle style="display:inline;fill:#E0DAD5;" cx="4153.6" cy="1154" r="7.6"/>
	<circle style="display:inline;fill:#E0DAD5;" cx="3899.2" cy="1403.6" r="7.6"/>
	<circle style="display:inline;fill:#E0DAD5;" cx="3899.2" cy="1356.6" r="7.6"/>
	<circle style="display:inline;fill:#E0DAD5;" cx="3880.4" cy="1409.4" r="7.6"/>
	<circle style="display:inline;fill:#E0DAD5;" cx="3880.4" cy="1360.8" r="7.6"/>
	<circle style="display:inline;fill:#E0DAD5;" cx="4552.4" cy="780.8" r="7.6"/>
	<path style="display:inline;fill:#FFFFFF;" d="M3907.6,1462.6c-4.6,3-10,8-12.2,11.2c-2,3.2-7,7.8-10.8,10.4s-9.4,9.2-12.2,14.8
		c-2.8,5.6-7.6,17.4-10.6,26.4s1,20.6,8.8,25.6s24.2,5.6,36.6,1.2c0,0,0,0-0.2-4.4s-3.4-7.4-3-10.2c0.6-3,17.4-6.2,17.4-6.2
		c17.8-3.4,30.4-9.4,28.4-13.4c-2.2-4-9.2-12.4-15.8-18.6c0,0,0,0,0.8-1s4.6-7.8,0-17.8s-9.2-14.2-11-16.4s-1.8-2.2-1.8-2.2
		C3918.6,1459.4,3912.2,1459.6,3907.6,1462.6z"/>
	<g style="display:inline;">
		<path style="fill:#E0DAD5;" d="M3487.4,729.6c-1.8-0.2-3-1.6-3-3.4l0.4-49.8c0-1.8,1.4-3.4,3.4-3.6c1.8,0,3.4,1.6,3.4,3.6
			l-0.4,49.8c0,1.8-1.4,3.4-3.4,3.6C3487.6,729.6,3487.4,729.6,3487.4,729.6z"/>
	</g>
	<g style="display:inline;">
		<path style="fill:#E0DAD5;" d="M3257.4,713c-1.8-0.2-3-1.2-3-2.2l-1.4-30.6c0-1.2,1.4-2,3.2-2s3.4,1,3.4,2.2l1.4,30.6
			c0,1.2-1.4,2-3.2,2C3257.6,713,3257.4,713,3257.4,713z"/>
	</g>
	<rect x="-208.4" y="-2492.6" style="display:inline;fill:#FFFFFF;" width="9305.4" height="6521"/>
	<g style="display:inline;">
		<g>
			<path style="fill:#E0DAD5;" d="M697.8,1099l103.6,26.8l50.4,11.4l54,1.6l50.2-5.6l43-5.6l52.4-3.8l21.6-4.6l64.8-50.6l66-8.8
				l24.4-31.6l31.4-0.8l7.2-14.2l-17.2-112.4V900c4.4-42.8-47.6-204-50-211.4l-13-30.8l-17.4-49.6l-12.2-42.4l12.4-16.8l1.2-0.6
				c17.6-10.2,37.2-22,39.6-24c0,0-0.2,0.2-0.4,0.4c1.6-1.8,9.6-8.2,72.4-51.8l77.6-49.6l48.8-26.2l24-25.2l16.6-22.4l4.6-20.8
				l-4.8-10.2l-27.8-28.6l-8.6-21.8l-1.4-60.6l3-30.4l1.6,0.2L1152.2,6.8L757-312.2l-59.2-61V1099z"/>
		</g>
		<g>
			<path style="fill:#E0DAD5;" d="M9067.2,2062.4l-83.2-58.6l-17.2-7.6l-12-15.6c0,0-15.2-4.4-17.8-7.6
				c-2.6-3.2-14.6-18.8-14.6-18.8l-17.8-18.8l-11.4-16.8c0,0-6.8-16.2-6.8-19.6c0-3.2,1.8-17.6,1.8-17.6l-0.2-13l7.8-8l0.6-5.2
				l-9.8,1.4l-6.6-2.6l-2-11.2l2-4v-7.2l-2.8-7.8c0,0-4-4.6-5.4-7.2c-1.4-2.6-4.6-7.8-4.6-7.8l-11.2,0.2l-15.8-1.8l-17,4.2l-3.2,6
				l5.2,3.8l14.4,5.8l9.8,4.4l9.2,3.2l7.2,4.4v7.2l0.2,8.6c0,0-3.2,1.4-5.2,2.6c-2,1.4-5.8,4-5.8,4l-7.8,4l-7.8,1.4
				c0,0-5.8,1.4-7.8,2.8c-2,1.4-11.6,8-11.6,8l-4.6,4.6l-13,4.8l-5.2,2.6l-13.6,4l-5.8,3.4l-9.8,4.6l-3.8,3.4l-20.2,2.8l-6.6,2
				c0,0,4.6-0.8-7.8,3.4c-12.4,4-5.2-0.6-5.2-0.6l-7.2,4.6l-9,13.2l-7.8,11.8l-1.8,15.8c0,0,1.4,2-2,5.2c-3.2,3.4-9,13.2-9,13.2
				L8676,1989l-5.8,7.4l-5.2,3.2l-7,13.2l-6.4,24.2c0,0,0.2,8.6,0.2,11.2c0,2.6-2,2.6,1.4,7.8s11.4,22.2,14.8,25.4s10,10.4,10,10.4
				l8.8,24.2c0,0,3.4,16.4,4.2,18.2c0.6,2-24,10.8-24,10.8s-15-47-15-49s-0.2-21-0.2-21l-7.4-24.8l-4.6-8.4l-4-11.8l-5.2-5.2
				l-7.8-1.2c0,0-2.6-1.2-5.8,4.6c-3.2,6-12.2,18.4-12.2,18.4s2,9.8,2.2,11.8c0,2,0.2,23,0.2,23l1.4,12.4l14.2,35.2
				c0,0-4.4,8-5,11.8c-0.6,4-1.2,8.6-1.2,8.6l-0.4,23.6l1.6,27.4c0,0-0.4,16.4-1,18.4c-0.6,2-5,24.2-5,24.2l-19.2-22
				c0,0-4.2-20.2-4.2-23.6c0-3.2-4.8-24.2-4.8-24.2l-5.2-49.6l1.6-33.4c0,0,2.4-17,3-19s7.6-22.4,7.6-22.4l6.2-19.8l7-15.8
				l19.4-12.6l6.4-7.2l5.8-6.6l18.8-8.8l9-9.2l3.8-15.2l5.8-6l7-10c0,0,0-3.2,1.2-6c1.2-2.6,3.8-8.6,3.8-8.6l3.8-8l-0.8-5.8l4.4-7.2
				l15-9.4l12.4-4.8l15.6-6.8l9-11.8l5.8-12.6l5-14.4l1.2-6.6l5.2-6.6l7.2-6.6l6.4-9.8l25.2-19.2l-3.4-5.8l-26.6,21.2l-15.2-13
				l-8-4.4l-3.4-7.2l3.2-6.6l16.8-14.6l5.6-25l-4.6,2.6l-7,20.4l-16.8,16.6c0,0-7.2,4-9.2,4s-13.8-3.8-13.8-3.8s-2.6,0.8-5.2-4.6
				c-2.6-5.2-5.4-11-5.4-11l3.8-9.8l7.8-7.2l15.8,2.4l4.6,5.2l5.4,5.8l5.2-5.2l2.4-13.2l-5.4-7.8l-11.2-1.8c0,0-15.8,0.2-17.6,0.8
				c-2,0.6-16.4-2.4-16.4-2.4s-3.2,2.6-6.6-0.6s-5.2-3.8-6-6.4c-0.6-2.6-1.4-10.4-1.4-10.4l-3.4-9.8l-6-7.8l-6-4.6l-9.2-2.6l-9-1.8
				l-0.2-17l-10-4.4l-18.2,8c0,0-7.8,5.4-12.4,2.2c-4.6-3.2-10-7.8-10-7.8l-8.6-13l-5.4-12.4l-1-23.6l7.8-11.8l-11.8-5.8l-11.8-5.8
				c0,0-14.4,0.2-15.8-1.8c-1.4-2-0.6,4.6-1.4-2s1.2-17,1.8-20.4c0.6-3.2,3.8-9.8,3.8-9.8l6.4-6l7.8-6.6l8.4-11.2l-0.2-9.2h4.6
				l0.6-12.4l-5.2-2.6l-5.2,3.4l-9.8,2.8l-7.8-1.8l-5,26.2l-6.2,27l-8.2,19l-7,14.4l-4.4,13.2l-3.2,5.2l4.8,19c0,0-0.4,15.8-1,17.6
				c-0.6,2-9.6,21-9.6,21l-9.8,0.2h-5.8h-6.6l-9.8,6.6c0,0-3.8,5.2-3.8,10.6c0,5.2-3,17.8-3.6,20.4c-0.6,2.6-9,15.8-10.2,19.2
				c-1.2,3.2-9,10-9,10l-9.8,0.2l-7.4-10.4l-6-7.2c0,0-17,7.4-18.8,12.6c-1.8,5.2-7,10.6-7,10.6l-10.4,8.6l-13.8,0.2
				c0,0-4.6,4-6.6,0s-13.2-10.4-14-14.8c-0.8-4.6-3.6-24.8-3.6-24.8l10.4-10l7.2-4.6l23-2.8l1.4-8.6l10.2-2.8l14.4-2.8l7.2-8
				l-3.4-13l-8-7.2c0,0,1.2-6-7.8,2.8l-9,6l-28.8,5.6l-17-1.2l-0.2-11.2l-9.8-5.8l-14.4-4.4l-11.8,1.4l-14.6-9l-3.2,2l-13,4
				l-7.2-5.8l-8.6-9l-8-7.2l-9.4-18.8l-3.4-16.4l9.8-6l5.8-4.6h5.2l3.8-4l5.8-15.2l6.4-5.4l18.8-8.8l10.4-7.4l11-7.4
				c0,0,6.6-2,6.4-6c0-4-4-11-4-11l-6.8-13l-9.8,0.2h-5.2c0,0-7.8,12.6-13.6,18.4c-5.8,6-5.2,8.6-11,12c-5.8,3.4-0.6-0.6-5.8,3.4
				c-5.2,4-8.4,3.4-8.4,3.4l-9.4-15.6l-5.8,3.4h-7.2l-7.2,4.6l-4-20l-0.2-22.6h-5.2l-10.4,0.2l-10.4,14l-7.8,3.6l-4.4-3.4
				c0,0,0.8-3.6-0.2-8.8c-1-5.2,3.4-15.6,3.4-15.6s0.8-2,1.6-5.4s0.8-9.6,0.8-9.6l5.2-7l7.8-7l11.2-8l6-5.4l8.6-4.4l7.8-6.2l9.4-8.8
				l-2.6-6l-15-6h-6.2l-6,9.6l-18.2,7.2c0,0-0.8,3.6-7,5.4c-6.2,1.8-12.2,4.6-12.2,4.6l-21,2.8l-10.4,1l-4.4,2.6l-7-7.8
				c0,0,0-5.2,0-7.8c0-2.6,3.4-7.8,3.4-7.8l5.2-2.6l14.8-6.2l7-4.4c0,0,3.4-6.2,0.8-9.6c-2.6-3.4-2.6-3.4-2.6-3.4s-1.8,0-8.6,5.4
				c-7,5.4-7,5.4-7,5.4l-13,1l-14.8-5l-6.2-0.8l-13,5.4l-6.8,10.6c0,0-2.6,3.6-4.2,7c-1.8,3.6,1,5.2-6.8,10.6s-12.2,9.8-12.2,9.8
				l-12.2,2.8l-7.8-0.8l-14-0.8c0,0-6.2-2.6-9.6-4.2c-3.6-1.8-8.8-6-8.8-6s-4.4-1.6-7-6s-6.2-5.2-6.2-11.2c0-6.2-6,2.6,0-6.2
				c6-8.8,9.4-12.4,8.6-15c-1-2.6-4.4-6-7-6s-14,3.6-14,3.6l-4.4,2.6l-13,5.4l-154.2,91.8l-78.6,27.2c-7.4-30.6-0.4-61.2,13.4-89.4
				l3-20.2l-35.8-4.4l-16.8-20l-14.6-21.2l-35.8-6.6l-21.2-16.8l-22.4-9c-81.4,43.6-106-12.2-106-12.2l-14.2-16.8l0.6-0.8l-32.2-37
				l-14.6-36.8v-53.6l-64.8-44.6v-20l-20-7.6l-7.8-32.6l17.8-15.6l-26.8-22.4h-21.2l-10-24.6l9-32.4l22.4-14.6l10-30.2h-19
				l-14.6-16.8l-2.2-26.8l16.8-12.2l-7.8-15.6l-13.4-24.6c0,0-20-12.2-16.8,0c3.4,12.2-9,24.6-9,24.6c-32.4-2.2-30.2-21.2-30.2-21.2
				l1.2-14.6l9-9l13.4-14.6l4.4-26.8L7293,757l-10,27.8l-26.8-9.8c0,0-4.4,13.4-24.6,9c-20-4.4-9-35.8-9-35.8l11.2-19l11.2,19
				l33.4-7.8v-13.8L7293,702c0,0,0-10,0-15.6s16.8-24.6,16.8-24.6l28-35.8l22.4-5.6l-28-49.2l-19,14.6l-15.6-6.6l-22.4,15.6
				l-17.8-10l13.4-20l-25.6-10l6.6-13.4l36.8,1.2v-11.2l-44.6-40.2v-63.6l-24.6-2.2h-82.6l-34.6-24.6l-1.2-34.6l20-5.6v-12.2h-42.4
				l-11.2-20l-14.6-36.8l-32.4-16.8l-22.4,13.4l6.6,20l-7.8,49.2l-21.2,5.6l-30.2-45.8L6923,306l-23.4-44.6l-19,10v30.2l-12.2,28
				l-43.6,21.2L6798,334l-26.8-4.4l-58,38l-22.4-5.6l-43.6,12.2l-19-21.2l-14.6-31.2l16.8-16.8l15.6,11.2l4.4,21.2l19-3.4l4.4-14.6
				l-25.6-43.6l15.6-20l39,36.8l30.2-13.4l-38-59.2l21.2-15.6l61.4,49.2l13.4-10l-72.6-65.8H6695l-32.4-36.8l-10-28l19-14.6
				l-11.2-17.8l-29-7.8l-19,13.4h-15.6l-16.8,10l-19,14.6l-30.2,2.2l-25.6,20l-24.6-20l-19-5.6l-13.4,7.8l-21.2,31.2l-53.6,9
				l-25.6-42.4l-60.2,53.6l-25.6-4.4l-30.2,9l-60.2-22.4l-21.2-16.8l-29,13.4L6089,151l-31.2-6.6l-42.4,24.6v19l-55.8,13.4
				l-111.6-10l-67-20l-64.8-39l-13.4-25.6L5676,90l-13.4-20l3.4-15.6l42.4-21.2l-25.6-2.2l-6.6-24.6L5655-8.2l-78.2-70.4L5555.6-64
				l-21.2-12.2v51.4L5504.2-7l-24.6,7.8l-16.8-33.4l-24.6-16.8l-24.6-4.4v32.4l-21.2,1.2l-6.6,25.6l15.6,20l-23.4,28L5368,79
				l-41.4,11.2L5311,76.8l-20,19l-2.2,16.8l22.4,22.4l-61.4,29l-31.2,24.6l12.2,5.6l-7.8,49.2l21.2,33.4L5016.4,413l-121.6,59.2
				l-365,146.2l-270.2,57L4004,702.2l-331.6,31.2l-393-41.4l-332.6,11.2h-87l-79.2-16.8h-69.2l-170.8-36.8l-163-49.2l-79.2-16.8
				l-23.4-19h-22.4l-21.2-11.2l-9-24.6l-46.8-11.2l-51.4,16.8L1997,490.8l-124-59.2l-59.2-28l-76.2-39.6l-7.2-4.2l-26.4-30.2
				l-9.6-10.8l-2.2-19.2l-15-18.2v-41.8L1659,207l-22.4-18.8l-3.2,18.8l8.6,31.6l-23.6,15l-9.6-6.4l-34.2,6.4l-2.2-7.4l-12.8-5.4
				v-7.4l16-5.4l12.8-8.6l-8.6-10.8l-16,3.2l-17.2-4.2l17.2-18.2l29,7.4l16,14l9.6-8.6V184l-19.2-14l-26.8-9.6l-62.2,19.2l-15,18.2
				l-3.4,22.6l-56-29.4l-45.2-30.6c0,0-0.4,0.2-0.8,0.8L1141,0.2l-395.2-319L562.4-508L481-561.6l-120.2-104l-134.8-52l-98.6-80.6
				v-35.2l-22-33.2v-8.6H92l7.4,20.4l15.6,22.4l-3.8,33.2l7.4,15l-4.4,15.6l-69.8-34.8c0.2-8.2,0.2-19.4-0.2-22.6
				c-0.6-5.4-25.2-23.6-25.2-23.6s9.6-9.6,9.6-19.2s-9.6-7.4-9.6-7.4l57.8-19.2l55.6,5.4v-5.4l-55.6-6.4l-65.4,20.4l-47.2,39
				l-359.8-135l-339.8-124.8l-218.4-62.4l-70.4-62.4v5259.6h9407.8v-1h681.8L9067.2,2062.4z"/>
		</g>
	</g>
	<g style="display:inline;">
		<path style="fill:#E0DAD5;" d="M1507,84.8c0-0.2,0-0.6,0-0.8c0.4-2.4,2.6-3.8,5-3.4c0.8,0.2,89.4,16.8,163.6,66.4
			c74.4,50,97.6,112.4,98.6,115c0.8,2.2-0.4,4.6-2.6,5.4c-2.2,0.8-4.6-0.4-5.4-2.6c-0.2-0.6-23.2-62.6-95.4-110.8
			c-72.6-48.6-159.4-65-160.2-65.2C1508.4,88.6,1507,86.8,1507,84.8z"/>
	</g>
	<path style="display:inline;fill:none;stroke:#FFFFFF;stroke-width:4;stroke-miterlimit:10;" d="M1186.8,541
		c0,0,223.8-191.6,299.4-216.6c0,0-281.8-185-379.6-244.2"/>
	<path style="display:inline;fill:#FFFFFF;" d="M2479.8,653.6l-9.2,26.6l-5,19V716l-3.6,25.2l-7,29.4l-5,14.8l-16.4,3.6h-20
		l-10.6,12l-10.6,12.2v9.6v13.4v16.2v20.4V896l-16.8,33.6l-19,24.6l-23.8,25.2l-37.2,16.8c0,0-18,7-23.2,8.4s-37.8,8.4-37.8,8.4
		l-33.6,7l-52.6,10.6l-38.4,12l-46.4,9.2l-14.2,17.8l-13.4,12.6l-9.2,21v12.6l-5.6,17.6l-4.2,15.4l-26.6,15.4h-18.2h-5.6v13.4
		l-7,9.8l-17.6,35.8l-14,14l-19.2,28.8l-20,26.6l-17,19l-14.8,9.2l-19,12l-7,11.2v26.6l7,16.2l15.8,30.8l7.8,26v16.8l5,21l5,18.2
		v52.6l-4.4,12.6l27.2,33.6l-12.2,12l-20.8,27.4l-21.2,15.4l-18.6,16.2l-3.4,11.2l6,8.4l16,9.8l13.2,9.8l18,9.2l17,19.2l8.6,9.6
		l-3,18.2l-22.8,19.6l-21.2,12l-16.2,12.6l-2.8,11.2l13,9.2l17,7.8l27.2,10.6c0,0-1.6,6.4,0,8.4c1.6,2.2-6.4,27.4-6.4,27.4l-10.8,12
		l-10.2,14l-4.8,15.4l4.8,5.6l3-6.4l7.2-12.6l10.8-18.2l6.4-14l10-18.2l0.8-14.8l-10.8-8.4l-13-6.4l-22-5.6l-9.2-10.6
		c0,0,4-4.2,5.4-6.4s14.8-14,14.8-14l15.2-7l9-7.8c0,0,10-9.2,12.2-11.2c2.2-2.2,9.2-12.6,9.2-12.6l-15.6-19.6l-14.8-23.2l-12.4-6.4
		l-13.6-10.6l-15.8-6l-4-12l10.6-12.2c0,0,22.2-21,23.6-23.2c1.4-2.2,13.4-11.2,14.4-13.4s4.6-7,6.4-9.2c1.6-2.2,10-12.6,10-12.6
		l5.6-18.2l-10-13.4l-14.8-12.6l-4.8-9.8c0,0,7-13.4,7.4-17.6s-1-9.2,0-16.2s-2.6-30.8-2.6-30.8l-8.2-38.6l-5.8-28
		c0,0-7.8-8.4-8.4-11.2s-7.8-16.2-9.2-19.6c-1.4-3.6-11.2-21-10.4-24.6c0.6-3.6,2.6-23.8,2.6-23.8s6.6-7,8-9.8
		c1.4-2.8,23.2-16.2,23.2-16.2l17-19l18.6-23.8l27.4-29.4c0,0,15.2-14.8,14.6-17.6c-0.6-2.8,13.4-26,13.4-26l11.2-26.6l10.4-7
		l23.2-6.4c0,0,9.8-8.4,12.6-10.6c2.8-2.2,16.2-25.2,16.8-28.8c0.8-3.6,7.8-21,7.8-23.2s0-14,0-14l19.8-30.2l48.2-10.6l44.4-10
		l22.2-2l47.6-12.6l24.6-7l33.6-3.6c0,0,35.8-14,40.6-16.2c4.8-2.2,24.6-9.2,24.6-9.2l14.8-14c0,0,35.8-26,37.8-31
		c2.2-4.8,23.8-26.6,23.8-26.6s1.4-28.8,1.4-32.2c0-3.4-3.6-29.4-3.6-29.4s4.2-14,5-16.2s7.8-6.4,8.4-8.4
		c0.8-2.2,11.2-10.6,11.2-10.6l11.2-4l12-8.6l5.6-12l2.8-31.6l1.4-21.8l-1.4-16.2l6.2-22.4l13.4-28l7-18.2l6.2-15.4l3-12.6l-26-8.4"
		/>
	<g style="display:inline;">
		<polygon style="fill:none;stroke:#FFFFFF;stroke-width:4;stroke-miterlimit:10;" points="1478.8,358.8 1438.2,410.6 1319,484.8 
			1307,515 1333.4,513 1356.8,535.8 1388.6,535.8 1458.2,528.8 1520.8,523.2 1605.4,516.6 1647.8,508.2 1664.2,490.6 1685.2,499.8 
			1758.6,499 1746.4,475.6 		"/>
		<polyline style="fill:none;stroke:#FFFFFF;stroke-width:4;stroke-miterlimit:10;" points="1664.2,490.6 1527.4,429.8 
			1456.8,436.4 1333.4,513 		"/>
		<polyline style="fill:none;stroke:#FFFFFF;stroke-width:4;stroke-miterlimit:10;" points="1396.4,473.8 1404.4,481.6 
			1582.4,466.6 1588.2,456.8 		"/>
	</g>
	<path style="display:inline;fill:#FFFFFF;" d="M2078,572.2l25.6,10.6l-30.6,24.6l-142,4.2l-28.8-4.2l-60.8-30.2l-273,18.2l-100.6,5
		c0,0-49,3.6-83.4,28.8c0,0-80.6,63-32.2,181.4c0,0,40.4,82,52.8,100.8c0,0,9.6,21.8-13.6,9.8l-23-15.4l-8-7h-8.2l-6.4,5.6
		c0,0-2,40.6,22.6,63l30,25.2l25.2,19.6l66.4,42.8l99.6,63l21.8,20.4l23.2,22.4l34.2,33.6l31.4,32.2c0,0,12.4,7.8,9,21.8l-19.8,96
		l-23.8,20.4l-24,19c0,0-51.4,63-54.2,83.4c0,0,27.6-68.6,47-84l46.8-39.2l24-93.2c0,0-9.2-22.4-30.2-38.6l-60.2-61.6l-64.4-51.8
		l-60.4-34l-54.4-31.6l-44.2-27.2l-34.4-26c0,0-23.8-19-30.2-37.2V900v-19.6c0,0,2.2-14.8,0-16.8c-2.2-2.2,4.2-25.2,4.2-25.2
		l-4.6-22.4l-9.4-22.4l-4.2-48.4V713l5-38.6c0,0,34.4-68,78.4-81.2l42.8-8.4l26.6-3.6l20.4-1.2l4-7.8l6.8-9.8l92-6.6
		c0,0,91-8.8,94.6-9.6s57.8-7,61.6-7s45-3.6,46.4-3.6s27.2,7,27.2,7l22.6,13l22.8,12.2l27.2,12.6l33.2,11.2l22.4,4.2l60.2-0.8
		l40.6-0.8l11.2-5.6L2078,572.2z"/>
	<g style="display:inline;">
		<polygon style="fill:none;stroke:#FFFFFF;stroke-width:4;stroke-miterlimit:10;" points="2117.6,785 2033.6,733.2 1976.2,750 
			1980.4,835.4 1993,850.8 2056,843.8 		"/>
		<path style="fill:none;stroke:#FFFFFF;stroke-width:4;stroke-miterlimit:10;" d="M2117.6,785l44.8-5.6l193.4-19.6l98-4.2l67.2,9.8
			l89.6,37.8c0,0,109.2,54.6,95.2,229.8l14,322.2l67.2,72.8l23.8,42l18.2,130.4l2.8,47.6l-18.2,18.2"/>
	</g>
	<path style="display:inline;fill:#FFFFFF;" d="M3578.4,719.2L3578.4,719.2c0-3,2.4-5.2,5.2-5.2h2c0.8,0,1.6,0.2,2.2,0.4l4.2,2
		c0.8,0.4,1.8,0.4,2.6,0.4s4.4,19.8,4.8,22.8c0.8,5,5,16.2,5,16.2V772l-3.6,12.6l-1.4,12.6c0,0-7.8,5.6-7,7.8s0,9.2,0,9.2v23.2
		l-5.6,14.8v9.8c0,0,1.4,9.2,2.2,11.2c0.8,2.2,3.6,13.4,3.6,13.4l16.8,17.6c0,0,7.8,7.8,11.2,11.2c3.6,3.6,16.8,14.8,16.8,14.8
		l9.8,10.6l10.6,11.2l6.4,9v19l-6.4,34.4l-3.2,20l-2.8,21l-6,34l-8,25.2l-11.2,22l-10.2,29l-12.6,25.6l-9.8,18.2l-5.6,11.6l4.2,47.2
		l1,7.4l1,11.6l3.8,19.2l2.8,15.4l9.8,10.8l11.8,11.2l3.6,5.6l5.6,5.2l2.8,5.2l-7,12.6l-8.4,18.6l-22.4,28.4l-9.8,11.2l-20.2,23.8
		c0,0-21,15.8-21,18.2c0,2.4-10.8,17.8-10.8,17.8l-6.6,15l-7,20l-12.2,21.4l-23.8,58.4l-11.6,28.4l-10.8,25.2l-6.6,7l-14,2.8
		l-20.6,2.8l-20,7l-15.8,4.2l-13.6,6l-15,7l-71.4,40.2l-27.6,21l-18.2,13c0,0-17.2,9.8-18.2,11.6s-16.4,14-16.4,14l-8.8,8l-7.4,4.2
		h-16.4l-16.8-6l-11.6-3.2l-13.6-3.8l-14.8-3.8l-22-1.4l-26.2,2.4c0,0-36,6.6-52.4,12.2l-25.6-3.2l-17.2-2.8l-20-1.8l-20.6-2.8H2914
		l-4.2,2.8l-5.6,15v14.4c0,0-0.4,8.4,0,13.6c0.4,5.2-0.8,22-0.2,23.8s-2.2,11.2-2.6,12.6s-3.8,7.4-4.6,11.6c-1,4.2-2.8,13-2.8,15.4
		s-4.6,13.6-3.2,17.2c1.4,3.8,1.8,11.2,1.8,11.2l3.2,6.6l3.2,13.6l5.6,23.4l4.2,11.6l-1.4,15l-5.6,17.2l-6.6,21l-5,13v15l-2,20
		l2.8,16.8l6,15.8l8.8,28.4l5.2,9.8l8,12.2l6,11.6l3.8,7l3.8,10.8l2.4,9.4l1.4,18.2l5.6,69.6l-1.4,21l1,13.6l-1.8,10.2
		c0,0-5.2,8-6.6,10.8s-9.8,15.8-9.8,15.8l-8.8,10.8l-23.8,32.6l-2.4,3.6l-8,4.2l-3.6-4.2l3.6-5.6l8.6-10.2l5.6-7l5.6-6l6.6-7l6-8
		l6.6-11.6l3.8-4.2l3.2-6l3.2-12.6l-1.8-21l1-14l-2.4-17.8l-3.2-16.8l-4.2-21.6l-5.6-21c0,0-5.2-5.6-5.2-8.8s-6-23.4-6-23.4
		s-3.8-13-4.2-14.4s-5.6-15.4-5.6-15.4s-4.2-11.6-4.6-14.4c-0.4-2.8-7.2-23.4-7.2-23.4l-3.6-15.4c0,0,5.6-17.2-26.2,1.4l-21.4,8.4
		l-11.4,6l-13.6,8.4l-6.6,9.8l-14,18.6l-8.8,15l-14.4,22l-13,19.6l-19.2,20.6l-6,16.8l-3.8,15c0,0-6.6,10.8-7,13.6s-7,15.8-7,15.8
		l-6.6,11.2l-5.2,9.8l-5.6,7.4v17.8l-3.2,29v24.2l-5.2,12.2l-10.2,5.2l2.2-13.6l2.4-22.4l-1.8-13.6l2.4-23.4c0,0,2.4-19.6,2.8-22.4
		c0.4-2.8,7-25.6,7-25.6s5.2-5.6,7.4-11.2c2.4-5.6,6.6-16.4,6.6-16.4l8.8-10.8l4.6-12.2c0,0,9.8-8.8,10.2-10.2
		c0.4-1.4,7-10.8,8.4-13.6s18.6-21.4,18.6-21.4l20.6-30.8l6.6-15.4c0,0,2.8-2.8,6-8.8c3.2-6,6.6-8.4,8.4-11.2s5.6-10.2,8.4-11.2
		c2.8-1,14-8,14-8l29.8-16.4c0,0,12.6-11.6,14-12.6c1.4-1,12.2-7.4,13.6-8.8c1.4-1.4,10.6-23.8,10.6-23.8l4.8-35
		c0,0,4.2-34,4.2-36.4s-1.8-12.6-2.8-17.2c-1-4.6-7-26.2-10.2-31.2c-3.2-5.2-2.8-1.8-3.8-8c-1-6,3.2-30.4,3.2-32.2
		s4.6-46.2,4.6-46.2l2.4-42c0,0-2.2-13.6-2.4-15c-0.4-1.4-1.8-16.8-2.6-21.4c-1-4.6-4.6-18.6-4.6-18.6s-6.6-26.6-6.6-29.8
		s-4.2-26.2-4.2-26.2l-3.2-14l-3.2-26.2l4.2-18.6c0,0,5.6-8.4,7-10.2c1.4-1.8,15.4-23.4,15.4-23.4l12.6-11.2l21.4-13.8l9.8-6.4
		l17.8-11.6l10.2-8.4l7.4-3.2l4.6-5.2l3.8-2.8l9.4-1.4l14.4,1.4l12.2-1l15.6,1l6-2.4l4.2-3.2l4.2-8.4l5.6-1.8l15.8,4.6
		c0,0,9.4,2.4,11.2,2.4s10.8,0,10.8,0l10.8-1.4l10.2-7l11.2-8l10.2-5.6l15.4-2.8l16.4-1l13-5.2l9.4-6l7-10.2l9.4-21
		c0,0-1.4,0.4,4.6-4.2s16.8-12.2,18.2-13c1.4-1,10.8-12.6,14-16.4s15.4-14.4,15.4-14.4s3.2-8.4,6-12.6s11.2-14.4,11.2-14.4
		s11.2-18.6,11.2-20s8-16.4,8-16.4l6.6-9.4l5.2-11.6l7.4-9.8l4.2-6c0,0,5.6-5.2,11.2-5.2s44.4-5.6,44.4-5.6l32.2-7.4l17.2-7
		c0,0,17.8-8.4,19.6-9.4s4.6-3.8,8-5.6c3.2-1.8,13-7.4,13-7.4l18.2-1.8c0,0,11.2,3.8,15,3.8s15.4-0.4,15.4-0.4s2.8-2.4,4.6-4.2
		c1.8-1.8,6.6-8,6.6-8l10.2-1c0,0,7.4-1,8.8-1c1.4,0,18.6-5.6,18.6-5.6l7-3.8l17.8-24.8l18.2-34c0,0,8.4-23.8,8.8-25.6
		c0.4-1.8,9.8-22.8,9.8-22.8l10.8-22l5.6-20.6l8.4-40.2l8-21l5.6-26.6c0,0,4.2-16.4,4.2-18.6c0-2.4,1.4-16.4,1.4-17.8
		s-4.2-9.8-6-13.6c-1.8-3.8-7-11.6-8.4-13.6c-1.4-1.8-8-9.4-8-9.4l-12.6-16.4l-12.2-11.6l-15.8-16.4l-5.2-11.6l-2.4-21
		c0,0,1.4-9.4,1.8-12.6s2.4-13.6,2.4-13.6s-2.4-8-2.4-9.8s2.4-14.4,2.4-14.4l4.6-18.6l-1.4-12.6c0,0-1-8.8-1.4-12.2s-0.4-7-1-8.8
		c-0.4-1.8-3.2-7-3.2-7l-5.4-26.2C3578.6,720.8,3578.4,720,3578.4,719.2z M3578.4,1223.4c0,0-1.8,0.4-4.6,2.2
		c-2.8,1.8-1.8,2.8-3.2,4.2s-6,6.6-6.6,7.8c-0.8,1-2.8,3.2-3.6,5.2c-0.8,2.2-4.2,4.2-5.2,6s-5.2,5.6-8.8,9.2s0,0-3.2,1.8
		s-8,3.8-9.4,5.6c-1.4,1.8-6.4,3.2-9.2,3.8c-2.8,0.8-7,4.2-7,4.2s-6.6,3.6-18.6,6s-6,1.8-6,1.8s-6.4-1.4-7.4-1.8s-10.8-3.8-10.8-3.8
		s-12-3.2-15.8-4.6s-7.8,1.4-12,3.2c-4.2,1.8-5,4.2-7.8,6s-12,5.2-13.6,6c-1.8,0.8-8,4.2-12.6,6s-13.6,3.6-15,4.2
		c-1.4,0.8-14,3.8-14,3.8l-18.2,4.6l-16.4,3.6l-10.8,3.2c0,0-19,2.4-23.2,2.8s-8.8,2.8-9.8,3.6c-1,0.8-8.8,12.2-9.4,13.6
		c-0.8,1.4-7.4,14.8-7.4,14.8l-5.6,14l-4.6,13.4l-7,14l-6.4,15c0,0-16.8,24.8-17.6,26c-0.8,1-11.2,16.2-11.2,17.8
		c0,1.8-3.6,11.6-3.6,11.6s-21,20-22.8,22.8s-12,5.2-15,6.6c-3.2,1.4-12,8.4-12,8.4l-18,8c0,0-10.2,6.4-11.2,7.8s-9.4,7.4-9.4,7.4
		s-24.2,11.6-27,13.6s-19,5.2-19,5.2s-21.8,1-26.6,1.4c-5,0.4-15.8,2.4-18.6,2.8s-22.4,3.2-22.4,3.2l-23.8,5l-14.8-1.8l-21.4,5
		c0,0-23.8,6-26.2,6.6c-2.4,0.8-10.2,6.4-10.2,6.4l-15.4,14.8c0,0-5.6,6.6-7,9.8s-4.2,8.4-4.2,8.4l-12.6,8.4c0,0-6.6,6.4-7.4,8.4
		c-0.8,2.2-7,15-7.4,17.6c-0.4,2.4-6.6,15-8,16.8c-1.4,1.8,0,24.2,0,24.2s0.8,19.2,1.8,21s5.2,11.6,6.6,14s10.8,19.2,10.8,19.2
		s7,18.2,7.8,20.4s15.4,15,16.4,16.2s23.2,9.2,23.2,9.2l27,6.6l34.6,2.4l24.6-5.6l15-10.6l12.2-6.4c0,0,9.2-5.2,10.2-5.2
		s12.2,0,12.2,0s2.8,2.8,5,5.2s7.8,2.2,7.8,2.2l7-4.6l15.8-3.8l8,2.4l5.2,5l8.4,5l11.6,7l14.8,5l9.4,5.6l16.4,3.8h14.4l8.4-4.6
		l14-10.2l14.8-8.4l20.4-15l20.6-13l15.8-13l30.4-21l11.6-7c0,0,15.4-11.2,20-13s17.8-5,17.8-5l20.6-4.2l20-3.8l16.4-4.2l8-10.6
		l9.8-11.2l13.6-23.2l11.2-20c0,0,11.2-35.8,12-37.2s3.2-8,3.6-9.4c0.4-1.4,3.2-8.8,3.2-8.8s-14,3.8-15,3.8s-8,2.4-10.2,3.2
		s-7,2.4-7,2.4s-8,2.4-9.8,3.2s-8.4,0-8.4,0l8.8-4.6l14-4.6l12.2-6.4l5.6-5c0,0,2.8-6,2.2-7s0-8.4,0-8.4l7.8-15c0,0,11.6-15,13-16.8
		s12.6-8,12.6-8l16.2-14l19-23.2l8-6.6l10.6-14.4l20-14.4l8.4-16.2l2.2-11.6v-14.8c0,0-2.4-10.8-2.4-12.6c0-1.8,0-13.4,0-13.4
		l-4.6-14.4c0,0-3.2-26-3.6-28c-0.4-2.2-1.8-10.2-1.8-10.2v-11.6l-2.2-16.8l-1.8-10.8l-2.2-12l-2.8-10.6L3578.4,1223.4z"/>
	<g style="display:inline;">
		<path style="fill:#FFFFFF;" d="M2634.8,1295.2l51.2,43l5.6,4.6l2.2,18.6v8.8l-8,11.6l-4.6,12.6l-6.6,18.2v19.2
			c0,0,2.4,4.6,4.2,18.2c1.8,13.6,5.6,20,5.6,20l2.4,11.6l1,17.8l1.8,16.4l-7,11.2l-25.6,9.8h-7.2h-3v-6.6l-2.8-2.4
			c0,0-5.6,1-8.8,3.2s-19.6,10.2-19.6,10.2l-3.8,4.2l-9.8-14l-11.6-9.8l-7-1.8l-20.6-0.4h-5.2v-6l11.2-3.8l21-1.4l8-6.6l12.2-6
			l15.8-10.8l13-13l11-10.2l11.8-6l6.2-7v-5.6v-22.6l-2.4-13.4c0,0,1.2-4.6,2.4-7c1.2-2.4,3.2-4.2,5-7.4c1.8-3.2,6-14,6-14
			s6.6-11.6,6.6-14s1.8-8,1.8-12.6s-7.4-16.4-7.4-16.4l-6-3.2l-6-1l-9,1.8c0,0,0-9.4-1-10.8s-3.2-4.6-3.2-4.6h-4.8l-13.8-2.8
			c0,0,0-0.4-1.4-2.8s-2.8-8-2.8-8v-5.2L2634.8,1295.2z"/>
		<path style="fill:#FFFFFF;" d="M2696.8,1459.6l1.8,17.8l4.6,4.2l6-2.8l12.6-3.2l3.8-5l5.6-8.2c0,0-1.4-8.8,0-10.8
			c1.4-2,0-1.8,0-1.8l-14.4,3.2c0,0,0.6,0-2.4,1.8c-3.2,1.8-3.6,2.8-5,2.8c-1.4,0-7.4,0.4-7.4,0.4L2696.8,1459.6z"/>
	</g>
	<circle style="display:inline;fill:none;stroke:#FFFFFF;stroke-width:4;stroke-miterlimit:10;" cx="1097" cy="74" r="14.6"/>
	<polyline style="display:inline;fill:none;stroke:#FFFFFF;stroke-width:4;stroke-miterlimit:10;" points="3612.8,745.2 
		3614.2,767.6 3598.8,826.6 3601.6,928.8 3544.2,1130.6 3573.6,1272.2 3717.8,1308.6 4062.6,1217.4 4143.8,1160 4188.6,1134.8 
		4232.2,1084.4 4331.6,1076 4593.2,972.2 4622.2,968.6 4681,967.6 4749.2,984.4 4903.4,987.2 	"/>
	<path style="display:inline;fill:none;stroke:#FFFFFF;stroke-width:4;stroke-miterlimit:10;" d="M4058.4,877.4
		c-52.8-10.4-106-18.6-159.4-26.2c-27.2-3.8-54.4-7.4-81.6-10.8c-23-3-56-0.8-75.6-14.4c-7.2-5-13.6-11-21.6-14.4
		c-14.2-6.2-29.2-3-43.4,0.8c-16,4.2-27.4,5.8-43.8,4.6c-109.2-9-215-30.2-321.6-54.8c-29.6-6.8-63.6-1.2-94.2-1.4
		c-34.2,0-68.2-0.8-102.4-1.8c-68.2-2.2-136.4-6.2-204.6-10c-188.2-10.2-445.6-38.2-615.8-119"/>
	<g style="display:inline;">
		<polyline style="fill:none;stroke:#FFFFFF;stroke-width:4;stroke-miterlimit:10;" points="3571.2,1271.6 3519.4,1381 
			3509.6,1418.8 3466.2,1479 3382,1575.6 3342.8,1619.2 3319,1662.6 3298,1735.4 3288.2,1812.4 3279.8,1865.8 3264.4,1893.8 
			3173.2,1970.8 		"/>
	</g>
	<polyline style="display:inline;fill:none;stroke:#FFFFFF;stroke-width:4;stroke-linecap:round;stroke-miterlimit:10;" points="
		1260.8,1152 1294.4,1207.2 1349.6,1217.4 1434.6,1216.6 1506.6,1209 1565.4,1213.8 1644.8,1227.8 1679.4,1225.8 1670,1186.6 
		1660.8,1148.6 	"/>
	
		<line style="display:inline;fill:none;stroke:#FFFFFF;stroke-width:10;stroke-linecap:round;stroke-miterlimit:10;" x1="1514.4" y1="1137.8" x2="1343.4" y2="1169.4"/>
	
		<line style="display:inline;fill:none;stroke:#FFFFFF;stroke-width:10;stroke-linecap:round;stroke-miterlimit:10;" x1="1327.4" y1="1153" x2="1313.4" y2="937"/>
	<polyline style="display:inline;fill:none;stroke:#FFFFFF;stroke-width:4;stroke-linecap:round;stroke-miterlimit:10;" points="
		1324.6,1182 1335.8,1264.2 1359.2,1356.6 1348.8,1413.6 1302.2,1473.4 1274.2,1451 	"/>
	<g style="display:inline;">
		<polyline style="fill:none;stroke:#FFFFFF;stroke-width:4;stroke-linecap:round;stroke-miterlimit:10;" points="1671.2,1192.4 
			1682.4,1228.8 1751,1282.2 1801.4,1355 1850.6,1373.2 1941.6,1363.4 2074.8,1286.4 		"/>
		
			<circle style="fill:none;stroke:#FFFFFF;stroke-width:4;stroke-linecap:round;stroke-miterlimit:10;" cx="2087.4" cy="1281.4" r="12.6"/>
		<polyline style="fill:none;stroke:#FFFFFF;stroke-width:4;stroke-linecap:round;stroke-miterlimit:10;" points="2081,1269.6 
			2044.6,1212 2008.2,1156 2009.6,1140.6 2018.6,1064 		"/>
		<polyline style="fill:none;stroke:#FFFFFF;stroke-width:4;stroke-linecap:round;stroke-miterlimit:10;" points="2068.4,1247 
			2070.6,1190.4 2087.4,1154.6 2090.8,1123.8 2103.6,1046.2 		"/>
		<path style="fill:none;stroke:#FFFFFF;stroke-width:4;stroke-linecap:round;stroke-miterlimit:10;" d="M2092.2,1294l19,51.8
			l-5,50.4l-99.4,149.2c0,0-21,34.4-8.4,85.4l82,258.8"/>
	</g>
	<path style="display:inline;fill:none;stroke:#FFFFFF;stroke-width:4;stroke-miterlimit:10;" d="M2100.8,1273.8l40.8-13.2
		l353.2-30.2l193-32.8l418.8-2.6l359.8,9.2l169.4,5.2l47.2,28.8l198.2-14.4l9.2-46l53.8-49.8l133-119c0,0,127-1.8,136.2-3
		s44.6-7.8,44.6-7.8l46-30.2l106.4,4c0,0,65.6,30.2,61.8,73.6l-2.6,48.6l-1.4,64.4l18.4,36.8"/>
	<polyline style="display:inline;fill:none;stroke:#FFFFFF;stroke-width:4;stroke-miterlimit:10;" points="2812.6,935 2723.6,859.6 
		2607.6,801.4 	"/>
	<path style="display:inline;fill:none;stroke:#FFFFFF;stroke-width:4;stroke-miterlimit:10;" d="M2804.2,934.6c0,0-84,13.4-98,89.6
		"/>
	<circle style="display:inline;fill:none;stroke:#FFFFFF;stroke-width:10;stroke-miterlimit:10;" cx="1327.4" cy="1167" r="14"/>
	<polyline style="display:inline;fill:none;stroke:#FFFFFF;stroke-width:4;stroke-miterlimit:10;" points="4909,967.8 4855.6,946.2 
		4828.6,876.2 4809,836 4739,836 4640.8,846.4 4598.8,838.8 4550.2,783.8 4569.8,709 4609,671.6 4707.2,634.2 4766,634.2 
		4795.8,622.2 4804.2,633.8 	"/>
	<polyline style="display:inline;fill:none;stroke:#FFFFFF;stroke-width:4;stroke-miterlimit:10;" points="4249.4,855.6 4252.2,834 
		4255,804.2 4264.4,797.6 4330.6,794.8 4366.2,783.6 4455.8,780.8 4613.8,778 4660.4,778.2 	"/>
	<polyline style="display:inline;fill:none;stroke:#FFFFFF;stroke-width:4;stroke-miterlimit:10;" points="4256.8,802.8 4298,837.2 
		4314.6,854 	"/>
	<polyline style="display:inline;fill:none;stroke:#FFFFFF;stroke-width:4;stroke-linecap:round;stroke-miterlimit:10;" points="
		4255,804.2 4214.4,831.2 4081.8,835.4 4044.4,860.2 3878.8,848.6 	"/>
	<polyline style="display:inline;fill:none;stroke:#FFFFFF;stroke-width:4;stroke-linecap:round;stroke-miterlimit:10;" points="
		5463.8,454.6 5461,401.4 5417.6,355.2 5349,351 5306.8,309 5290,321.6 5266.2,320.2 5259.2,299.2 5235.4,300.6 5063,404.2 
		4935.6,471.6 4845.8,506.6 4676.4,582.2 4552.4,623.6 	"/>
	<g style="display:inline;">
		<polyline style="fill:none;stroke:#FFFFFF;stroke-width:4;stroke-linecap:round;stroke-miterlimit:10;" points="3580.6,992.8 
			3432,948 3350.8,935.4 3248.4,898.8 3182.6,873.6 3093,870.8 3015.8,894.6 2973.8,910 		"/>
		<polyline style="fill:none;stroke:#FFFFFF;stroke-width:4;stroke-linecap:round;stroke-miterlimit:10;" points="3591.8,946.6 
			3456.4,892.4 3414.2,908.2 3358.2,901.6 3347,936.2 		"/>
		<polyline style="fill:none;stroke:#FFFFFF;stroke-width:4;stroke-linecap:round;stroke-miterlimit:10;" points="3472.2,795 
			3448,867.2 3456.4,892.4 		"/>
		
			<line style="fill:none;stroke:#FFFFFF;stroke-width:4;stroke-linecap:round;stroke-miterlimit:10;" x1="3369.4" y1="775.6" x2="3314.4" y2="922.2"/>
		<polyline style="fill:none;stroke:#FFFFFF;stroke-width:4;stroke-linecap:round;stroke-miterlimit:10;" points="3256.4,759.4 
			3261,828.8 3279.8,883 3251.8,901.6 3243.4,997.6 		"/>
		<polyline style="fill:none;stroke:#FFFFFF;stroke-width:4;stroke-linecap:round;stroke-miterlimit:10;" points="2951.4,751 
			2958.4,846.6 2977,921.2 2977.6,955.2 		"/>
	</g>
	<polyline style="display:inline;fill:none;stroke:#FFFFFF;stroke-width:4;stroke-miterlimit:10;" points="3019.8,1198.4 
		3021.8,1307.6 2891,1306.6 2834,1415 2795.6,1440.2 	"/>
	<g style="display:inline;">
		<polyline style="fill:none;stroke:#FFFFFF;stroke-width:4;stroke-linecap:round;stroke-miterlimit:10;" points="1186.8,543.2 
			1101.4,584.6 1021.2,559.8 934.6,533.2 480.6,493 550.8,716.2 553.4,929.6 504.4,1003.6 500.6,1075.4 		"/>
		<path style="fill:none;stroke:#FFFFFF;stroke-width:4;stroke-linecap:round;stroke-miterlimit:10;" d="M1127.8,1107.6v-75.2
			l-54-173.2L1011.2,730c0,0-44-72.8-21.4-119.2l31.2-51.2"/>
		<polyline style="fill:none;stroke:#FFFFFF;stroke-width:4;stroke-linecap:round;stroke-miterlimit:10;" points="550.8,821.6 
			586,817.8 656.2,765.2 722.6,742.6 803,673.6 987.4,672.4 		"/>
	</g>
	<polyline style="display:inline;fill:none;stroke:#FFFFFF;stroke-width:4;stroke-linecap:round;stroke-miterlimit:10;" points="
		3792.8,1093.6 3802.6,1001.2 3797.8,962.6 	"/>
	
		<line style="display:inline;fill:none;stroke:#FFFFFF;stroke-width:4;stroke-linecap:round;stroke-miterlimit:10;" x1="3910.6" y1="1111.8" x2="3796.4" y2="1070.6"/>
	<g style="display:inline;">
		<polyline style="fill:none;stroke:#FFFFFF;stroke-width:4;stroke-linecap:round;stroke-miterlimit:10;" points="1126.6,1079.8 
			1054.2,1134.8 1031.8,1151.6 969.4,1163.8 922.8,1170.2 891.2,1197.4 881.8,1238.4 883.6,1359.4 887.4,1408.8 927.4,1425.6 
			970.4,1422.8 1001,1441.6 1023.4,1471.4 1024.4,1550.6 1031,1747.2 		"/>
		<path style="fill:none;stroke:#FFFFFF;stroke-width:4;stroke-linecap:round;stroke-miterlimit:10;" d="M1031.8,1151.6l29.8,43.8
			l3.8,149.2l23.2,38.2l-26,90.4l38.2,27l5.6,33.6l-10.2,83.8l-35.4,15.8l25.2,39.2l44.8,44.8l51.2,1.8l15.8,15.8l32.6,8.4
			l-6.6,71.8c0,0,4.6,32.6,66.2,54c0,0,58,22.4,61.6,22.4"/>
	</g>
	<polyline style="display:inline;fill:none;stroke:#FFFFFF;stroke-width:4;stroke-linecap:round;stroke-miterlimit:10;" points="
		3880.4,1223.8 3892.6,1301.4 3888.8,1406 3874.8,1464 3824.4,1531.2 3788.8,1630.2 3750.2,1793.2 3738.8,1868.8 3758.6,1955.8 
		3705.2,1969.8 3673,1989.4 3666,2030 	"/>
	<polyline style="display:inline;fill:none;stroke:#FFFFFF;stroke-width:4;stroke-linecap:round;stroke-miterlimit:10;" points="
		3919,939.6 3797.8,962.6 3743.8,959.8 3731.2,941.6 3602.2,894 	"/>
	<polyline style="display:inline;fill:none;stroke:#FFFFFF;stroke-width:10;stroke-linecap:round;stroke-miterlimit:10;" points="
		1312.4,1168.8 1281.6,1163.2 1190,1127.8 1145.2,1116.6 1036,1117.6 924.8,1131.6 846.2,1131.6 679,1096 543.6,1075.2 
		386.6,1067.8 242.8,1071.4 	"/>
	<polyline style="display:inline;fill:none;stroke:#FFFFFF;stroke-width:4;stroke-linecap:round;stroke-miterlimit:10;" points="
		3377,1580.2 3387.2,1632.4 3400.2,1784.6 3497.4,1808 3527.4,1958.4 3570.2,1999.6 3622.6,1995.8 3721.6,1863.2 3774,1696.8 	"/>
	<polyline style="display:inline;fill:none;stroke:#FFFFFF;stroke-width:4;stroke-linecap:round;stroke-miterlimit:10;" points="
		3385.6,1635.6 3334.4,1632.8 3284,1632.2 3261.6,1615.4 3263,1578.2 3239.8,1571.2 3218.8,1574.8 3199.2,1584.6 3202,1602.8 
		3185.2,1632.8 3121.4,1670 3119.4,1684 3129.8,1715.6 3188,1724 3288.2,1812.2 	"/>
	<polyline style="display:inline;fill:none;stroke:#FFFFFF;stroke-width:4;stroke-linecap:round;stroke-miterlimit:10;" points="
		3381.2,1604.4 3304,1594.6 3278.4,1630 	"/>
	<g style="display:inline;">
		
			<polyline style="fill:none;stroke:#FFFFFF;stroke-width:4;stroke-linecap:round;stroke-linejoin:round;stroke-miterlimit:10;" points="
			1285,205 1282.4,219.8 1428.2,325 1353,376.8 1344,362.6 1329.8,360.6 1312.8,372.2 1297.4,352.8 1257.2,375.4 		"/>
		
			<polyline style="fill:none;stroke:#FFFFFF;stroke-width:4;stroke-linecap:round;stroke-linejoin:round;stroke-miterlimit:10;" points="
			1219.4,199.2 1196.6,270.4 1193,282.2 1172.2,312 1126.8,349 1099.6,361.2 		"/>
		
			<line style="fill:none;stroke:#FFFFFF;stroke-width:4;stroke-linecap:round;stroke-linejoin:round;stroke-miterlimit:10;" x1="1288.2" y1="426" x2="1196.6" y2="270.4"/>
		
			<polyline style="fill:none;stroke:#FFFFFF;stroke-width:4;stroke-linecap:round;stroke-linejoin:round;stroke-miterlimit:10;" points="
			1321.2,249 1298,279.6 1225.4,321 		"/>
		
			<polyline style="fill:none;stroke:#FFFFFF;stroke-width:4;stroke-linecap:round;stroke-linejoin:round;stroke-miterlimit:10;" points="
			1254.6,302.8 1238.4,272.4 1252.6,191.4 		"/>
		
			<polyline style="fill:none;stroke:#FFFFFF;stroke-width:4;stroke-linecap:round;stroke-linejoin:round;stroke-miterlimit:10;" points="
			1172.2,312 1187,338.6 1213.6,327.6 1235.8,365.8 1166.4,409.2 1130,346.4 		"/>
		
			<polyline style="fill:none;stroke:#FFFFFF;stroke-width:4;stroke-linecap:round;stroke-linejoin:round;stroke-miterlimit:10;" points="
			1191.6,284.8 1116.4,221.8 1060.6,287.4 		"/>
		
			<polyline style="fill:none;stroke:#FFFFFF;stroke-width:4;stroke-linecap:round;stroke-linejoin:round;stroke-miterlimit:10;" points="
			1213.6,189.4 1173,179.6 1146.8,173.2 1119,149.2 1105.4,154.4 1116.4,221.8 1154,205.6 1172.2,182.2 		"/>
	</g>
	<path style="display:inline;fill:#FFFFFF;" d="M1536.4,633.6l0.8,29l-8,10.6l6,42.8l557.8-67.6l3.2,11.2l-14,2.2l4,37.2l-10,10.6
		L1943,725.8l0.8,57l-20.6,0.6c0,0-4.2-45.6-4.4-49.4c-0.2-3.8-42.8,7-42.8,7l0.4,13l13.2,0.6l5.8,37.2l-10.8,14.4l-41.8,6.8
		l-2.2,19.6l56-1.8l9.2,56.8l25.2-0.8l-2.6-53.2l21.6,0.4l6.6,29.8l32.2,11.2l123.8-16l3.2-17.8l71.8-6l6.4,25l13.6,14.6l41-2.2
		l6,10L1832,935.8l1.8,28l342.2-45.2l0.4,44.8l-49.4,4.4l-0.2,24.4l-18.6,1.6l3.6,24.2l-540,67l-5.4-25l17.6-6.2l-15.2-99.6
		l-50.4,3.4l1.4-12.2l150-15.8L1651,770.4L1400.2,793l-5.4-56l124.6-17.8l-5.2-77.4L1536.4,633.6z M1428,779.8l98.6-9.4l-3.2-33.6
		l-98.4,11.4L1428,779.8z M1538.8,733.8l2.4,35l33.6-3.8l34.6-40.4L1538.8,733.8z M1639.6,754.4l10-16.4l219.2-27l-34.2-15.8
		L1636.2,718l-39.4,41.2L1639.6,754.4z M1937,714.6l21.6-2.8l-3.8-30.8l-85.2,11L1937,714.6z M1968.8,678.4l3.8,32.2l86-9.6
		l-4.6-34.2L1968.8,678.4z M1754.8,737l0.2,8.4l81-8.8l-1-11.8L1754.8,737z M1845.4,907.2l-2.2-23.8l-44,4.8l-12,22L1845.4,907.2z
		 M1686.4,954.2c-2.2,0-15.8-13.6-15.8-13.6l-86.6,11l7,43.2l229.6-31.6l-3.6-25.8C1817,937.6,1688.4,954.2,1686.4,954.2z
		 M1747,989.8l-154.8,21l2.8,20.8l154.8-21L1747,989.8z M1977.2,956.8L1835,976l2.8,20.8l142.2-19.2L1977.2,956.8z M1820.4,980
		l-59.4,8l2.8,20.8l59.4-8L1820.4,980z M2077.2,943.6l-86.6,11.6l2.8,20.8l86.6-11.6L2077.2,943.6z M2161,931.8l-68.6,9.2l2.8,20.8
		l68.6-9.2L2161,931.8z M1675,767.4l22.2,154.2l44.8-4.8c0,0-25-16.8-23.8-19c1.4-2.2,57.2-55,53.4-62.6
		c-3.8-7.6-49.6-41.2-49.6-41.2l10-36.8L1675,767.4z M1781.2,776l50.2-7.2l-1.2-17.4L1766,759L1781.2,776z M1639.8,1039.2l-25.8,3.2
		l2,15.2l25.8-3.2L1639.8,1039.2z M1679.2,1033.4l-25.8,3.2l2,15.2l25.8-3.2L1679.2,1033.4z M1720.8,1028.4l-25.8,3.2l2,15.2
		l25.8-3.2L1720.8,1028.4z"/>
	<g style="display:inline;">
		<line style="fill:none;stroke:#FFFFFF;stroke-width:4;stroke-miterlimit:10;" x1="3133.6" y1="1034.6" x2="3058.8" y2="1194.4"/>
		<path style="fill:none;stroke:#FFFFFF;stroke-width:4;stroke-miterlimit:10;" d="M3111.8,1083.4l117.4-6.2c0,0,106.4-8.6,110-7.4
			s202.8,56.8,202.8,56.8"/>
		<line style="fill:none;stroke:#FFFFFF;stroke-width:4;stroke-miterlimit:10;" x1="3230.2" y1="1025.6" x2="3233" y2="1197.6"/>
		<line style="fill:none;stroke:#FFFFFF;stroke-width:4;stroke-miterlimit:10;" x1="3307.2" y1="1071.2" x2="3309.2" y2="1199.4"/>
		<line style="fill:none;stroke:#FFFFFF;stroke-width:4;stroke-miterlimit:10;" x1="3346.2" y1="997" x2="3339.4" y2="1069.8"/>
	</g>
	<g style="display:inline;">
		<line style="fill:none;stroke:#FFFFFF;stroke-width:4;stroke-miterlimit:10;" x1="2359.8" y1="1052" x2="2378" y2="1235"/>
		<line style="fill:none;stroke:#FFFFFF;stroke-width:4;stroke-miterlimit:10;" x1="2417.8" y1="1039.6" x2="2421.8" y2="1232"/>
		<polyline style="fill:none;stroke:#FFFFFF;stroke-width:4;stroke-miterlimit:10;" points="2586.6,990.8 2582.6,1027.4 
			2566.4,1029.6 2570.4,1067.2 2595.8,1069.2 2597.8,1113 2577.4,1118 2581.6,1211.6 		"/>
		<polyline style="fill:none;stroke:#FFFFFF;stroke-width:4;stroke-miterlimit:10;" points="2635.6,977.6 2641.6,1108.8 
			2597.8,1113 2602,1183.2 2579.6,1183.2 		"/>
	</g>
	<path style="display:inline;fill:none;stroke:#FFFFFF;stroke-width:4;stroke-miterlimit:10;" d="M2011.2,1137.6l99.4-40.8
		l66.8-24.6l214-28.6l120-35.4l98.2-28.6l79,5.4l30,2.8l53.2-12.2l132.2-2.8l110,31.2c0,0,80.4,40.8,169,28.6l166.2-39.6l155.4,45
		l60,19.4"/>
	
		<path style="display:inline;fill:none;stroke:#FFFFFF;stroke-width:4;stroke-linecap:round;stroke-linejoin:round;stroke-miterlimit:10;" d="
		M3891.6,847l22.4,74.8l26.2,48.6l31.8,13l41.2,20.6l46.8,7.4l31.8-1.8l29.8,29.8l16.8,39.2c0,0,5.6,50.4,7.4,56
		c1.8,5.6,15,35.4,24.2,43c9.4,7.4,80.4,59.8,80.4,59.8l28,33.6l16.8,48.6l44.8,67.2l19.6,39.2l15.8,24.2l-7.4,21.8l-15.8,4.6h-21.4
		l-18.6,13l3.8,10.2l30.8-10.2h18.6l7.4,6.6l-9.4,10.2l-27,1.8l-15.8,9.4l1,9.4l25.2,1.8l10.2-4.6l7.4,6.6v7.4l-9.4,25.2l-11.2,19.6
		l36.4,148.6l-11.2,86l9.4,59.8l-21.4,57l1,48.6l9.4,6.6l21.4-8.4l20.6-8.4l34.6,5.6l49.6,17.8l57,14l42,2.8l63.6-23.4l51.4-21.4
		l40.2-32.6l38.4,14l14,60.8v18.6l27,31.8L5306,2405l230.8,159.8"/>
	<g style="display:inline;">
		<path style="fill:none;stroke:#FFFFFF;stroke-width:10;stroke-miterlimit:10;" d="M6204.6,1026.2c-38.2-43-102.6-82.6-156.2-103.4
			c-39.4-15.2-83.4-28.2-107.8-62.6c-17.2-24.4-22.2-56.4-42.4-78.2c-32-34.4-97.4-39.8-105.8-85.8c-2.4-13.2,1-27.4-5-39.4
			c-12-24-47-18.6-73.4-13.8c-49.2,9.2-101,2.8-146.6-17.6c-55.6-25-100.4-70-155.8-95.4c-52.8-24.2-112.6-29.2-170.6-28.2
			c-174.4,3-370.2,42-480.4,177c-60.8,74.4-141.2,148.4-238.8,167.6c-39.8,7.8-82,5.8-122.6,8.6c-74.8,5-150,3.6-224.6-4.4
			c-71.4-7.6-122.6,11.2-155.4,78.6c-22.2,45.6-32.2,96.2-59,139.8c-12.4,20.2-28.6,41.6-52.2,49.2c-33.6,10.8-80.2-10.2-114.4-15.8
			c-42.2-6.8-82.6-20.8-121.8-37.8c-79.6-34.8-140-53.2-221-84.8c-26-10-66.8-20.2-94.2-15c-20.6,4-55.6,13.2-75,21.4
			c-25,10.6-84.4,15.8-111.4,19.2c-38.2,4.8-79.8,5.8-116.8-7.2c-22.4-8-38-27.2-59.2-37.2s-47.2-13.8-70-17.6
			c-52.2-8.8-105.8-10.4-158.8-7.8c-83.4,4-183.4,13.6-257,57c-34.6,20.4-129.4,22.8-168.8,30.4c-50.8,9.8-103.2,6.4-154.8,9.6
			c-96.4,6.2-189.2,35.4-281.2,62.4c-70.6,20.8-142.8,42.2-216,51c-40.6,5-82.6-6.6-123.6-5.8c-45.2,0.8-88.2-18.6-125.4-42.6
			c-33.4-21.6-64.4-47.6-89.4-78.6c-28.4-35.4-34.4-76.4-41.2-120.2c-41.6-274.6-201.2-516-373.4-734
			C822.8,23,696.8-118.4,528.8-187.4c-55.4-22.8-114-36.8-172.4-51C217.4-272,78.2-305.4-60.8-339"/>
		<path style="fill:none;stroke:#FFFFFF;stroke-width:10;stroke-miterlimit:10;" d="M-1012.2,874.6
			c56.4,48.4,105.4,105.2,144.8,168.2c13.2,21,25.6,42.8,43.6,59.6c55,51,145.8,41.4,205.4,87c41.6,31.8,61,85.2,98.6,121.6
			c66.2,64,169.6,62,261.6,60.8c98.2-1.2,196.6,3.8,294.2,14.6c69.8,7.8,139.2,18.4,208,32c67.2,13.4,132.2,30.4,197.2,51.8
			c117.8,38.6,235.4,78.8,348.4,130.4c111.6,51,218.6,113.6,311,194.8c39.4,34.6,77.4,73.4,126.6,91.4c32.6,12,68,14.2,102.6,12.8
			c112.2-4.4,222.8-45,311.4-114c18.8-14.6,37-30.8,58.8-40.8c46-21.2,99.4-11.8,150-9c26.8,1.4,53.8,0.4,80.6-2.2
			c13.6-1.4,27.2-3.2,40.8-5.4c11.8-1.8,24-1.6,33.6-9.4c6.2-4.8,11.2-11,17.8-15.2c7-4.4,15.4-6.4,23.4-8.4
			c45-10.8,89.8-21.6,135-31.2c58.6-12.4,117.6-23.6,176.6-33.2c93.4-15.2,132.6-43,227-51.2c40.2-3.4,104.4-17.4,143.6-27.4
			c53.8-13.8,99-15.2,148-41c79.6-41.8,184.4-31,271.2-54.6c86.6-23.8,191.8-79.6,278-53.6c67.8,20.4,128.6,60,196.2,80.8
			c51.4,15.8,116.6,16,148.2-27.6c62.4-86,213-91.2,318.4-104.4c60.6-7.6,114.2-10,171.4-33.4c56.4-23,109.2-53.6,161.8-84.2
			c43.6-25.4,87.2-50.8,129.2-78.4c32.2-21.2,64-44,99.8-58.6c65.8-26.8,146.6,12.6,202.6-41.8c16-15.4,25.2-36.2,36.2-55.4
			c18.2-32,43.4-46.4,75.6-62.2c75-36.8,156.4-60,228.8-102.2c34.6-20.2,68.2-44.8,107.4-53c15.6-3.2,32-3.8,46-11.2
			c22.8-11.8,34.2-37.6,43.6-61.4c29.4-75.2,56.2-144.4,63.4-224.8"/>
	</g>
</g>
<g id="Map_Labels">
	
		<g id="NorthPoint" transform="translate(1831.070256, 181.453972) rotate(50.000000) translate(-1831.070256, -181.453972) translate(1792.570256, 137.953972)">
		<path id="Fill-933" style="fill:#8A1538;" d="M1826.5-1994l12.6,21.2l-21.6-10L1826.5-1994z M1813.5-1978.2l38.6,15.6l-22-35
			l-38.6-15.6L1813.5-1978.2z M1826.5-1994l12.6,21.2l-21.6-10L1826.5-1994z M1813.5-1978.2l38.6,15.6l-22-35l-38.6-15.6
			L1813.5-1978.2z M1826.5-1994l12.6,21.2l-21.6-10L1826.5-1994z M1852.1-1962.4l-22-35l-38.6-15.8l22,35L1852.1-1962.4z
			 M1805.7-2030.6c23.4-8.2,49,3.8,57.2,27.2s-3.8,49-27,57.2c-23.2,8.4-49-3.8-57.2-27C1770.3-1996.4,1782.5-2022.2,1805.7-2030.6z
			 M1839.1-1936.6c28.6-10.4,43.4-41.6,33-70.2c-10.2-28.6-41.4-43-70-32.8c-28.6,10.2-43,41.2-33,69.6
			C1779.5-1941.2,1810.9-1926.6,1839.1-1936.6z M1826.5-1994l12.6,21.2l-21.6-10L1826.5-1994z M1813.5-1978.2l38.6,15.6l-22-35
			l-38.6-15.6L1813.5-1978.2z M1826.5-1994l12.6,21.2l-21.6-10L1826.5-1994z M1813.5-1978.2l38.6,15.6l-22-35l-38.6-15.6
			L1813.5-1978.2z M1826.5-1994l12.6,21.2l-21.6-10L1826.5-1994z M1813.5-1978.2l38.6,15.6l-22-35l-38.6-15.6L1813.5-1978.2z
			 M1826.5-1994l12.6,21.2l-21.6-10L1826.5-1994z M1813.5-1978.2l38.6,15.6l-22-35l-38.6-15.6L1813.5-1978.2z"/>
		<g id="Back-Copy-5_1_" transform="translate(34.000000, 0.000000)">
			
				<text transform="matrix(0.6467 -0.7628 0.7628 0.6467 1733.3108 -2022.1567)" style="fill:#8A1538; font-family:'ArialMT'; font-size:27.8778px;">N</text>
		</g>
	</g>
	<path style="fill:#B4985A;fill-opacity:0.75;" d="M1489.2,240.4c-5.8,14.8-19.6,26.8-28.8,39.4c-3,4.2-12.8,20.8-7.4,24.8
		c18.6,13.8,36.6,28,54.8,42.2c0,0,75.6,45,75.8,45.2c8,4.8,17.4,8,25.8,12c12.2,6,24.4,11.8,36.8,17.4
		c59,26.6,120.6,47.2,181.4,69.2c17,6.2,33.8,12.2,50.8,18.4l174,55.8l135.4,53c23.6,9.2,48.4,16.2,72.4,24.2
		c5.8,2,11.6,3.8,17.8,4.8c9.6,1.4,19.4-1.6,29-0.2c22.4,3.4,45,17,60.2,21.6c5-17,9.8-34,14.8-50.8c0.8-3,3.6-8.4,3.2-11.4
		c-0.8-6.4-17.4-7.4-23.6-8.8c-18.8-4.4-37.8-7.8-56.8-12c-13.2-2.8-19.8-20.2-34.4-20.2c-12,0-30.6-0.2-38.4-12.2
		c-0.6-1-1-2-1.4-3.2c-1.2-3.6-2.4-7-3.6-10.6c-4.6-13.2-15.6-12.6-27.6-16c-10.4-2.8-21.2-6.6-31.8-2.8c-12.8,4.6-25.6,9-38.6,13.2
		c-1.4,0.4-3,1-4.6,1c-5,0.2-10.4-3.6-14.8-5.2c-6.8-2.4-13.6-4.8-20.4-6.8c-19-5.8-38-12.2-56.6-19c-37.4-13.8-109.4-46.2-145-64
		c-16.4-8.2,2.8,0.4-13.6-7.6c-27.2-13-55.4-26.2-82.6-40c-14-7.2-28-14.4-41.6-22c-6.2-3.4-13.6-6.6-19-11.2
		c-5.4-4.6-10-10.6-14.6-16c-5.6-6.6-11.2-13.4-17-20c-1.4-1.6-2.8-3.4-3.6-5.4c-0.8-2.2-0.6-4.6-0.8-7c-0.6-12.4-9-20-16.4-29
		v-12.8c0-14.2,0.6-29-5.8-42.2c-6.6-13.4-17.2-26.8-29.6-35.2c-7.8-5.4-8,9.6-8.2,13.8c-0.4,9.8,5.2,21.8,7.6,31.4
		c1.6,6-18,14.4-22.6,17c-0.8,0.4-10.4-5.8-12.8-5.8c-10.2,0.2-21.4,4-31.4,6c1.2-0.2-5-9-6.4-9.6c-2.8-1.2-6-1.6-8.6-3.4
		c0.2-7.4,2.6-8.4,9.4-10.6c5-1.8,10.4-3.8,14.4-7.4c5.6-5,2.2-7-1.6-12c-3.8-4.8-9.6,0-14.4,0.6c-7.8,0.8-13.4-2.2-20.8-3.8
		c1.6-10.4,11.8-12,15.8-16.6c3.8-4.2,14.4,1,19.2,2.2c5.8,1.4,11.6,3.2,16.4,7c4,3.2,7.6,11.4,13.4,9.2c3.6-1.4,7.6-9.2,7.8-12.8
		c0-4.4,0-10-2.4-13.6c-2.6-3.6-9-6.6-12.8-8.8c-8.8-5.2-18.2-8.8-27.6-12.4c-8.4-3-21.4,3.6-29.8,6c-11.4,3.2-22.6,6.4-33.6,11
		c-7.4,3.2-12.8,13-17.8,19l-3.4,22.6c-1,6-1.2,13.2-3.2,18.8C1489.6,239.6,1489.4,240,1489.2,240.4z"/>
	<g>
		<path id="Rectangle-Copy-2_10_" style="fill:#FFFFFF;" d="M1114.8,569H1312c5.4,0,10,4.4,10,10v51.8c0,5.4-4.4,10-10,10h-197.2
			c-5.4,0-10-4.4-10-10V579C1105,573.6,1109.4,569,1114.8,569z"/>
		
			<text transform="matrix(1 0 0 1 1164.5737 599.7598)" style="fill:#8A1538; font-family:'MarselisPro-Bold'; font-size:27.8706px;">City Cent</text>
		
			<text transform="matrix(1 0 0 1 1277.3735 599.7598)" style="fill:#8A1538; font-family:'MarselisPro-Bold'; font-size:27.8706px;">r</text>
		
			<text transform="matrix(1 0 0 1 1287.5737 599.7598)" style="fill:#8A1538; font-family:'MarselisPro-Bold'; font-size:27.8706px;">e</text>
		
			<text transform="matrix(1 0 0 1 1164.5737 627.627)" style="fill:#8A1538; font-family:'MarselisPro-Light'; font-size:27.8706px;">Muscat</text>
	</g>
	<g>
		<path id="Rectangle-Copy-2_29_" style="fill:#8A1739;" d="M1886.6,254h171c5.4,0,10,4.4,10,10v51.8c0,5.4-4.4,10-10,10h-171
			c-5.4,0-10-4.4-10-10V264C1876.8,258.6,1881.2,254,1886.6,254z"/>
		
			<text transform="matrix(1 0 0 1 1943.0605 284.8477)" style="fill:#FFFFFF; font-family:'MarselisPro-Bold'; font-size:27.8706px;">Al Mouj</text>
		
			<text transform="matrix(1 0 0 1 1943.0605 312.7148)" style="fill:#FFFFFF; font-family:'MarselisPro-Light'; font-size:27.8706px;">Muscat</text>
		<g id="Group_12_" transform="translate(5.000000, 5.000000)">
			<path id="Path_24_" style="fill:#FFFFFF;" d="M1907,269.8c-8.6,0-14.6,6-14.6,13.6v15.2h5c0,0,0-8.4,0-15.2
				c0-7.2,5.4-12.4,11-13.4c0.2,0,0.4-0.2,0.2-0.2L1907,269.8L1907,269.8z"/>
			<path id="Path_25_" style="fill:#FFFFFF;" d="M1908,270.4c-0.6,0.2-1.4,0.4-2.2,1.2c-3.8,2.6-5.4,6.8-5.8,11.2c0,0.2,0,0.4,0,0.6
				l0,0v0.2v15.2h5v-15.2c0-1,0.4-1.8,1.2-2.2l2,2.2l2-2.2c0.6,0.4,1.2,1.4,1.2,2.2v15.2h5v-15.2c0-4.6-3.6-8.2-8-8.2
				c-1.2,0-2,0.2-3,0.6l0,0c1-1.2,2.6-1.8,4.4-1.8l0,0c0.4,0,1.2,0,1.6,0.2c4.4,0.6,7.8,4.6,7.8,8.8c0,0.2,0,0.4,0,0.4v15h4.6v-15
				c0-6.6-3.8-11.8-10.4-13.4c-0.2,0-0.6-0.2-1-0.2c-0.4,0-1-0.2-1.6-0.2C1909.6,270,1908.8,270.2,1908,270.4z"/>
		</g>
	</g>
	<g>
		<line style="fill:none;stroke:#8A1739;stroke-width:2;stroke-miterlimit:10;" x1="1195.2" y1="469.2" x2="1155.4" y2="443.4"/>
		<circle style="fill:#8A1739;" cx="1195.2" cy="469.2" r="9"/>
	</g>
	<g>
		<line style="fill:none;stroke:#8A1739;stroke-width:2;stroke-miterlimit:10;" x1="1382.6" y1="329.4" x2="1342.8" y2="303.6"/>
		<circle style="fill:#8A1739;" cx="1382.6" cy="329.4" r="9"/>
	</g>
	<g>
		<text transform="matrix(1 0 0 1 1292.3203 390.7441)" style="fill:#8A1538; font-family:'MarselisPro'; font-size:27.7606px;">The Marsa Plaza</text>
	</g>
	<g>
		<line style="fill:none;stroke:#8A1739;stroke-width:2;stroke-miterlimit:10;" x1="1531.6" y1="317.2" x2="1495" y2="380"/>
		<circle style="fill:#8A1739;" cx="1531.6" cy="317.2" r="9"/>
	</g>
	<g>
		<line style="fill:none;stroke:#8A1739;stroke-width:2;stroke-miterlimit:10;" x1="1694.4" y1="336.4" x2="1740.4" y2="280"/>
		<circle style="fill:#8A1739;" cx="1694.4" cy="336.4" r="9"/>
	</g>
	<g>
		<text transform="matrix(1 0 0 1 1038.5991 88.5996)" style="fill:#8A1538; font-family:'MarselisPro'; font-size:27.7606px;">Oman Oil Petrol Stations</text>
	</g>
	<g>
		<line style="fill:none;stroke:#8A1739;stroke-width:2;stroke-miterlimit:10;" x1="980" y1="80.6" x2="1027.4" y2="80.2"/>
		<circle style="fill:#8A1739;" cx="980" cy="80.6" r="9"/>
	</g>
	<text transform="matrix(1 0 0 1 1051.105 435.4902)" style="fill:#8A1739; font-family:'MarselisPro'; font-size:27.88px;">Markaz Al Bahja</text>
	<text transform="matrix(1 0 0 1 1749.7998 383.7715)" style="fill:#8A1739; font-family:'MarselisPro'; font-size:27.88px;">Dog Park</text>
	<g>
		<g>
			<circle style="fill:#8A1538;" cx="1233.2" cy="1107.6" r="9.4"/>
		</g>
		<line style="fill:none;stroke:#8A1739;stroke-width:2;stroke-miterlimit:10;" x1="1233.2" y1="1098.6" x2="1233.2" y2="1208.4"/>
	</g>
	<g>
		<g>
			<ellipse style="fill:#8A1538;" cx="1525.8" cy="209.4" rx="9.4" ry="9.4"/>
		</g>
		<line style="fill:none;stroke:#8A1739;stroke-width:2;stroke-miterlimit:10;" x1="1535" y1="209.2" x2="1425.2" y2="209"/>
	</g>
	<g>
		<g>
			<ellipse style="fill:#8A1538;" cx="1694.8" cy="394.8" rx="9.4" ry="9.4"/>
		</g>
		<line style="fill:none;stroke:#8A1739;stroke-width:2;stroke-miterlimit:10;" x1="1702.2" y1="390.8" x2="1740.4" y2="376.8"/>
	</g>
	<g id="Group_1_" transform="translate(5.000000, 5.000000)">
		<path id="Path_2_" style="fill:#8A1538;" d="M1128.4,585.2c-8.6,0-14.6,6-14.6,13.6V614h5c0,0,0-8.4,0-15.2
			c0-7.2,5.4-12.4,11-13.4c0.2,0,0.4-0.2,0.2-0.2H1128.4L1128.4,585.2z"/>
		<path id="Path_1_" style="fill:#8A1538;" d="M1129.4,585.8c-0.6,0.2-1.4,0.4-2.2,1.2c-3.8,2.6-5.4,6.8-5.8,11.2c0,0.2,0,0.4,0,0.6
			l0,0v0.2v15.2h5V599c0-1,0.4-1.8,1.2-2.2l2,2.2l2-2.2c0.6,0.4,1.2,1.4,1.2,2.2v15.2h5V599c0-4.6-3.6-8.2-8-8.2c-1.2,0-2,0.2-3,0.6
			l0,0c1-1.2,2.6-1.8,4.4-1.8l0,0c0.4,0,1.2,0,1.6,0.2c4.4,0.6,7.8,4.6,7.8,8.8c0,0.2,0,0.4,0,0.4v15h4.4v-15
			c0-6.6-3.8-11.8-10.4-13.4c-0.2,0-0.6-0.2-1-0.2s-1-0.2-1.6-0.2C1131,585.4,1130.2,585.6,1129.4,585.8z"/>
	</g>
	<g>
		<line style="fill:none;stroke:#8A1739;stroke-width:2;stroke-miterlimit:10;" x1="3469.2" y1="717.8" x2="3469.2" y2="608"/>
		<circle style="fill:#8A1739;" cx="3469.2" cy="717.8" r="9"/>
	</g>
	<text transform="matrix(1 0 0 1 3396.125 601.6055)" style="fill:#8A1739; font-family:'MarselisPro'; font-size:27.88px;">Azaiba Beach</text>
	<g>
		<line style="fill:none;stroke:#8A1739;stroke-width:2;stroke-miterlimit:10;" x1="2728.8" y1="701.4" x2="2728.8" y2="591.6"/>
		<circle style="fill:#8A1739;" cx="2728.8" cy="701.4" r="9"/>
	</g>
	<text transform="matrix(1 0 0 1 2643.7734 585.2988)" style="fill:#8A1739; font-family:'MarselisPro'; font-size:27.88px;">Al Shafaq Club</text>
	<g>
		<text transform="matrix(1 0 0 1 1575.2354 143.5293)" style="fill:#8A1538; font-family:'MarselisPro'; font-size:27.7606px;">The Walk</text>
	</g>
	<g>
		<text transform="matrix(1 0 0 1 1749.7993 183.9082)" style="fill:#8A1538; font-family:'MarselisPro'; font-size:27.7606px;">Kempinski Hotel </text>
	</g>
	<g>
		<g>
			<text transform="matrix(1 0 0 1 1720.1011 241.0996)" style="fill:#8A1538; font-family:'MarselisPro'; font-size:27.7606px;">Al Mouj Muscat</text>
			<text transform="matrix(1 0 0 1 1720.1011 274.5)" style="fill:#8A1538; font-family:'MarselisPro'; font-size:27.7606px;">Beach Park</text>
		</g>
	</g>
	<g>
		<text transform="matrix(1 0 0 1 1387.3594 447.3008)" style="fill:#8A1538; font-family:'MarselisPro'; font-size:27.7606px;">Mysk by Shaza Al Mouj Hotel</text>
	</g>
	<g>
		<text transform="matrix(1 0 0 1 1060.6001 310.5996)" style="fill:#8A1538; font-family:'MarselisPro'; font-size:27.7606px;">Al Maha Petrol Station</text>
	</g>
	<g>
		<text transform="matrix(1 0 0 1 2010.7051 791.9746)" style="fill:#8A1538; font-family:'MarselisPro'; font-size:27.7606px;">Muscat International Airport</text>
	</g>
	<g>
		<text transform="matrix(1 0 0 1 2195.6016 419.957)" style="fill:#8A1538; font-family:'MarselisPro'; font-size:27.7606px;">Al Mouj Golf</text>
	</g>
	<g>
		<line style="fill:none;stroke:#8A1739;stroke-width:2;stroke-miterlimit:10;" x1="1212.8" y1="815.8" x2="1212.8" y2="635.8"/>
	</g>
	<g>
		<g>
			
				<line style="fill:none;stroke:#8A1538;stroke-width:2.5512;stroke-miterlimit:10;" x1="1555.8" y1="96.8" x2="1555.8" y2="225.8"/>
			<g>
				<circle style="fill:#8A1538;" cx="1555.8" cy="225.4" r="9.4"/>
			</g>
		</g>
	</g>
	<g>
		<g>
			<line style="fill:none;stroke:#8A1538;stroke-width:2.5512;stroke-miterlimit:10;" x1="1619.6" y1="155" x2="1577.6" y2="277"/>
			<g>
				<circle style="fill:#8A1538;" cx="1577.8" cy="276.4" r="9.4"/>
			</g>
			<g>
				<circle style="fill:#8A1538;" cx="1621.4" cy="284" r="9.4"/>
			</g>
		</g>
	</g>
	<line style="fill:none;stroke:#8A1538;stroke-width:2.5512;stroke-miterlimit:10;" x1="1742.6" y1="178.4" x2="1666" y2="282.2"/>
	<g>
		<circle style="fill:#8A1538;" cx="1666.4" cy="281.6" r="9.4"/>
	</g>
	<g>
		<circle style="fill:#8A1538;" cx="1970" cy="493" r="9.4"/>
	</g>
	<g>
		<circle style="fill:#8A1538;" cx="1921.6" cy="781.6" r="9.4"/>
	</g>
	<g>
		<circle style="fill:#8A1538;" cx="2389.8" cy="1094.4" r="9.4"/>
	</g>
	<g>
		<circle style="fill:#8A1538;" cx="2253" cy="1414.8" r="9.4"/>
	</g>
	<g>
		<circle style="fill:#8A1538;" cx="3570.4" cy="1627" r="9.4"/>
	</g>
	<g>
		<ellipse style="fill:#8A1538;" cx="1212.8" cy="810.4" rx="9.4" ry="9.4"/>
	</g>
	<g>
		<circle style="fill:#8A1538;" cx="2315.2" cy="604.8" r="9.4"/>
	</g>
	
		<text transform="matrix(0.9935 0.1137 -0.1137 0.9935 2579.3306 745.8081)" style="fill:#3C3C3D; font-family:'MarselisPro-Bold'; font-size:19.8997px;">18th November St.</text>
	<g>
		
			<text transform="matrix(0.9796 -0.2011 0.2011 0.9796 2560.1814 1595.236)" style="fill:#8A1538; font-family:'MarselisPro'; font-size:27.7614px;">Muscat Expressway</text>
	</g>
	
		<text transform="matrix(0.855 -0.5186 0.5186 0.855 4445.3872 1259.6503)" style="fill:#3C3C3D; font-family:'MarselisPro-Bold'; font-size:19.8997px;">Muscat Expressway</text>
	<text transform="matrix(1 0 0 1 2691.1846 967.0938)" style="fill:#3C3C3D; font-family:'MarselisPro-Bold'; font-size:19.9px;">Sultan Qaboos St.</text>
	
		<text transform="matrix(0.9582 -0.286 0.286 0.9582 1740.4806 1180.8064)" style="fill:#3C3C3D; font-family:'MarselisPro-Bold'; font-size:19.8994px;">Sultan Qaboos St.</text>
	
		<text transform="matrix(0.9995 -3.029255e-02 3.029254e-02 0.9995 4283.2593 887.6197)" style="fill:#3C3C3D; font-family:'MarselisPro-Bold'; font-size:19.8928px;">Sultan Qaboos St.</text>
	<line style="fill:none;stroke:#8A1739;stroke-width:2;stroke-miterlimit:10;" x1="2389.8" y1="1090.2" x2="2389.8" y2="1199.8"/>
	<g>
		<g>
			<text transform="matrix(1 0 0 1 2281.0664 1247.0801)" style="fill:#8A1538; font-family:'MarselisPro'; font-size:27.7606px;">Oman International</text>
			<text transform="matrix(1 0 0 1 2281.0664 1281.8809)" style="fill:#8A1538; font-family:'MarselisPro'; font-size:27.7606px;">Exhibition Centre</text>
		</g>
	</g>
	<g>
		<line style="fill:none;stroke:#8A1739;stroke-width:2;stroke-miterlimit:10;" x1="1915.8" y1="781.6" x2="1993.4" y2="781.6"/>
	</g>
	<line style="fill:none;stroke:#8A1739;stroke-width:2;stroke-miterlimit:10;" x1="2253" y1="1407.8" x2="2253" y2="1517.6"/>
	<g>
		<g>
			<text transform="matrix(1 0 0 1 2179.7998 1559)" style="fill:#8A1538; font-family:'MarselisPro'; font-size:27.7606px;">Muscat Hills</text>
			<text transform="matrix(1 0 0 1 2179.7998 1593.8008)" style="fill:#8A1538; font-family:'MarselisPro'; font-size:27.7606px;">Golf &amp; Country Club</text>
		</g>
	</g>
	<g>
		<line style="fill:none;stroke:#8A1739;stroke-width:2;stroke-miterlimit:10;" x1="1622" y1="284" x2="1538.8" y2="418.8"/>
	</g>
	<line style="fill:none;stroke:#8A1739;stroke-width:2;stroke-miterlimit:10;" x1="3570.4" y1="1617.4" x2="3570.4" y2="1727"/>
	<g>
		<g>
			<text transform="matrix(1 0 0 1 1167.1777 1242.25)" style="fill:#8A1538; font-family:'MarselisPro'; font-size:27.7606px;">As Sahwah</text>
			<text transform="matrix(1 0 0 1 1167.1777 1277.0488)" style="fill:#8A1538; font-family:'MarselisPro'; font-size:27.7606px;">Public Garden</text>
		</g>
	</g>
	<g>
		<text transform="matrix(1 0 0 1 1459.1611 80.5312)" style="fill:#8A1538; font-family:'MarselisPro'; font-size:27.7606px;"> Al Mouj Marina</text>
	</g>
	<g>
		<text transform="matrix(1 0 0 1 1154.0005 185.5996)" style="fill:#8A1538; font-family:'MarselisPro'; font-size:27.7606px;">Horizon Kids</text>
		<text transform="matrix(1 0 0 1 1154.0005 219)" style="fill:#8A1538; font-family:'MarselisPro'; font-size:27.7606px;">International Nursery</text>
	</g>
	<g>
		<line style="fill:none;stroke:#8A1739;stroke-width:2;stroke-miterlimit:10;" x1="2315.2" y1="610.2" x2="2315.2" y2="430.2"/>
	</g>
	<g>
		<line style="fill:none;stroke:#8A1739;stroke-width:2;stroke-miterlimit:10;" x1="1970" y1="502.6" x2="1970" y2="322.6"/>
	</g>
	<g>
		<path style="fill:#676767;" d="M1804.6,819.6l-6.2-1.2l-2.8,2.6l7.8,5l4,8.2l2.8-2.6l-0.6-6.2l10.2-9.2l8.8,19.2l3.8-3.4
			l-4.4-23.4l10.2-9.2c1.6-1.4,1.6-4,0.4-5.2c-1.4-1.6-4-1.6-5.2-0.4l-10.2,9.2l-22.8-6.4l-3.8,3.4l18,10.6L1804.6,819.6z"/>
		<path style="fill:#676767;" d="M1785.6,841.6c17.2,19,46.6,20.8,65.6,3.6c19.2-17.2,20.8-46.6,3.6-65.6
			c-17.2-19.2-46.6-20.8-65.6-3.6C1770.2,793.2,1768.4,822.6,1785.6,841.6z M1851.6,782.6c15.4,17.2,14,43.8-3.2,59.2
			c-17.2,15.4-43.8,14-59.2-3.2s-14-43.8,3.2-59.4C1809.4,764,1835.8,765.2,1851.6,782.6z"/>
	</g>
</g>
</svg>
