<?xml version="1.0" encoding="utf-8"?>
<!-- Generator: Adobe Illustrator 19.1.0, SVG Export Plug-In . SVG Version: 6.00 Build 0)  -->
<svg version="1.1" id="app_x5F_Muscat-road--parent"
	 xmlns="http://www.w3.org/2000/svg" xmlns:xlink="http://www.w3.org/1999/xlink" x="0px" y="0px" width="1920px" height="1080px"
	 viewBox="0 0 1920 1080" style="enable-background:new 0 0 1920 1080;" xml:space="preserve">
<g id="map-data">
	<path style="fill:#FFFFFF;" d="M1473.8,801.3c-2.3,1.5-5,4-6.1,5.6c-1,1.6-3.5,3.9-5.4,5.2s-4.7,4.6-6.1,7.4
		c-1.4,2.8-3.8,8.7-5.3,13.2s0.5,10.3,4.4,12.8s12.1,2.8,18.3,0.6c0,0,0,0-0.1-2.2s-1.7-3.7-1.5-5.1c0.3-1.5,8.7-3.1,8.7-3.1
		c8.9-1.7,15.2-4.7,14.2-6.7c-1.1-2-4.6-6.2-7.9-9.3c0,0,0,0,0.4-0.5s2.3-3.9,0-8.9s-4.6-7.1-5.5-8.2s-0.9-1.1-0.9-1.1
		C1479.3,799.7,1476.1,799.8,1473.8,801.3z"/>
	<circle style="fill:#E0DAD5;" cx="1796.2" cy="460.4" r="3.8"/>
	<circle style="fill:#E0DAD5;" cx="1647.5" cy="471.4" r="3.8"/>
	<circle style="fill:#E0DAD5;" cx="1596.8" cy="647" r="3.8"/>
	<circle style="fill:#E0DAD5;" cx="1469.6" cy="771.8" r="3.8"/>
	<circle style="fill:#E0DAD5;" cx="1469.6" cy="748.3" r="3.8"/>
	<circle style="fill:#E0DAD5;" cx="1460.2" cy="774.7" r="3.8"/>
	<circle style="fill:#E0DAD5;" cx="1460.2" cy="750.4" r="3.8"/>
	<g>
		<path style="fill:none;stroke:#FFFFFF;stroke-width:5;stroke-miterlimit:10;" d="M2256.8,306.4c41.1,4.7,85.5,8.9,121.4-11.8
			c5.2-3,10.4-6.6,16.3-7.7c8.7-1.6,17.4,2.3,26.1,2.5c9.6,0.2,18.7-4.2,28.1-5.5c16.3-2.4,32.6,4.1,47.5,11.2s30,15.2,46.5,16.2
			s35-7.3,39.5-23.2c1.3-4.4,1.4-9.1,3.5-13.1c4.2-7.9,14.1-10.3,22.9-11.6c14.2-2.1,29.5-3.1,42,3.9c11.3,6.3,18.3,17.9,24.9,29
			c10.1,17.1,29.3,40.4,39.4,57.5l0.1,9.4c-1.4,43.1,12,85.6,32,123.9s46.3,72.7,72.6,106.8c12.1,15.7,24.6,32.1,29.1,51.4
			c1.8,7.9,2.3,16.3,5.9,23.6c4.3,8.9,12.5,15.1,20.4,21c44.8,33.4,89.7,66.7,134.5,100.1c15.9,11.8,32,23.7,50.4,30.9
			c18.4,7.1,39.8,9,57.7,0.5c7.1-3.4,13.3-8.2,19.5-13c10.2-7.9,20.5-15.8,30.7-23.7c9.1-7,18.3-14.2,29-18.5
			c9.1-3.7,19.4-5.4,26.9-11.8"/>
		<path style="fill:none;stroke:#FFFFFF;stroke-width:5;stroke-miterlimit:10;" d="M2790.8,235.4c-17.6,19.2-53.2-3.9-74.6,10.9
			c-12.3,8.5-14.1,25.4-18.8,39.5c-14,42.3-59.1,68-74.3,109.8c-13.9,38.6,4.3,90.8,40.4,110.4"/>
		<path style="fill:none;stroke:#FFFFFF;stroke-width:5;stroke-miterlimit:10;" d="M2668.7,520.6c-3.1,22-20,42-31.8,60.8"/>
		<path style="fill:none;stroke:#FFFFFF;stroke-width:5;stroke-miterlimit:10;" d="M2622.3,583.1c-19.1-21.5-51.3-41.3-78.1-51.7
			c-19.7-7.6-41.7-14.1-53.9-31.3c-8.6-12.2-11.1-28.2-21.2-39.1c-16-17.2-48.7-19.9-52.9-42.9c-1.2-6.6,0.5-13.7-2.5-19.7
			c-6-12-23.5-9.3-36.7-6.9c-24.6,4.6-50.5,1.4-73.3-8.8c-27.8-12.5-50.2-35-77.9-47.7c-26.4-12.1-56.3-14.6-85.3-14.1
			c-87.2,1.5-185.1,21-240.2,88.5c-30.4,37.2-70.6,74.2-119.4,83.8c-19.9,3.9-41,2.9-61.3,4.3c-37.4,2.5-75,1.8-112.3-2.2
			c-35.7-3.8-61.3,5.6-77.7,39.3c-11.1,22.8-16.1,48.1-29.5,69.9c-6.2,10.1-14.3,20.8-26.1,24.6c-16.8,5.4-40.1-5.1-57.2-7.9
			c-21.1-3.4-41.3-10.4-60.9-18.9c-39.8-17.4-70-26.6-110.5-42.4c-13-5-33.4-10.1-47.1-7.5c-10.3,2-27.8,6.6-37.5,10.7
			c-12.5,5.3-42.2,7.9-55.7,9.6c-19.1,2.4-39.9,2.9-58.4-3.6c-11.2-4-19-13.6-29.6-18.6s-23.6-6.9-35-8.8
			c-26.1-4.4-52.9-5.2-79.4-3.9c-41.7,2-91.7,6.8-128.5,28.5c-17.3,10.2-64.7,11.4-84.4,15.2c-25.4,4.9-51.6,3.2-77.4,4.8
			c-48.2,3.1-94.6,17.7-140.6,31.2c-35.3,10.4-71.4,21.1-108,25.5c-20.3,2.5-41.3-3.3-61.8-2.9c-22.6,0.4-44.1-9.3-62.7-21.3
			c-16.7-10.8-32.2-23.8-44.7-39.3c-14.2-17.7-17.2-38.2-20.6-60.1c-20.8-137.3-100.6-258-186.7-367
			C-68.6,81.5-131.6,10.8-215.6-23.7c-27.7-11.4-57-18.4-86.2-25.5C-371.3-66-440.9-82.7-510.4-99.5"/>
		<path style="fill:none;stroke:#FFFFFF;stroke-width:5;stroke-miterlimit:10;" d="M-528-104c-52.8-11.9-118.6-34.6-165.8-61
			c-27.2-15.2-53.4-32.8-82.3-44.5c-31.4-12.7-65.3-18-98.9-22.2c-34-4.2-68.1-7.2-102.3-9.1"/>
		<path style="fill:none;stroke:#FFFFFF;stroke-width:5;stroke-miterlimit:10;" d="M-986.1,507.3c28.2,24.2,52.7,52.6,72.4,84.1
			c6.6,10.5,12.8,21.4,21.8,29.8c27.5,25.5,72.9,20.7,102.7,43.5c20.8,15.9,30.5,42.6,49.3,60.8c33.1,32,84.8,31,130.8,30.4
			c49.1-0.6,98.3,1.9,147.1,7.3c34.9,3.9,69.6,9.2,104,16c33.6,6.7,66.1,15.2,98.6,25.9c58.9,19.3,117.7,39.4,174.2,65.2
			c55.8,25.5,109.3,56.8,155.5,97.4c19.7,17.3,38.7,36.7,63.3,45.7c16.3,6,34,7.1,51.3,6.4c56.1-2.2,111.4-22.5,155.7-57
			c9.4-7.3,18.5-15.4,29.4-20.4c23-10.6,49.7-5.9,75-4.5c13.4,0.7,26.9,0.2,40.3-1.1c6.8-0.7,13.6-1.6,20.4-2.7
			c5.9-0.9,12-0.8,16.8-4.7c3.1-2.4,5.6-5.5,8.9-7.6c3.5-2.2,7.7-3.2,11.7-4.2c22.5-5.4,44.9-10.8,67.5-15.6
			c29.3-6.2,58.8-11.8,88.3-16.6c46.7-7.6,66.3-21.5,113.5-25.6c20.1-1.7,52.2-8.7,71.8-13.7c26.9-6.9,49.5-7.6,74-20.5
			c39.8-20.9,92.2-15.5,135.6-27.3c43.3-11.9,95.9-39.8,139-26.8c33.9,10.2,64.3,30,98.1,40.4c25.7,7.9,58.3,8,74.1-13.8
			c31.2-43,106.5-45.6,159.2-52.2c30.3-3.8,57.1-5,85.7-16.7c28.2-11.5,54.6-26.8,80.9-42.1c21.8-12.7,43.6-25.4,64.6-39.2
			c16.1-10.6,32-22,49.9-29.3c32.9-13.4,73.3,6.3,101.3-20.9c8-7.7,12.6-18.1,18.1-27.7c9.1-16,21.7-23.2,37.8-31.1
			c37.5-18.4,78.2-30,114.4-51.1c17.3-10.1,34.1-22.4,53.7-26.5c7.8-1.6,16-1.9,23-5.6c11.4-5.9,17.1-18.8,21.8-30.7
			c14.7-37.6,28.1-72.2,31.7-112.4"/>
		<circle style="fill:none;stroke:#FFFFFF;stroke-width:5;stroke-miterlimit:10;" cx="2794.6" cy="232.9" r="7.3"/>
		<circle style="fill:none;stroke:#FFFFFF;stroke-width:5;stroke-miterlimit:10;" cx="2666.2" cy="513.3" r="7.3"/>
		<circle style="fill:none;stroke:#FFFFFF;stroke-width:5;stroke-miterlimit:10;" cx="2629.6" cy="583.1" r="7.3"/>
		<circle style="fill:none;stroke:#FFFFFF;stroke-width:5;stroke-miterlimit:10;" cx="2250.2" cy="305.9" r="7.3"/>
		<circle style="fill:none;stroke:#FFFFFF;stroke-width:5;stroke-miterlimit:10;" cx="-519.6" cy="-101.6" r="7.3"/>
		<circle style="fill:none;stroke:#FFFFFF;stroke-width:5;stroke-miterlimit:10;" cx="3228" cy="749.7" r="7.3"/>
	</g>
	<path style="fill:none;stroke:#FFFFFF;stroke-width:2;stroke-linecap:round;stroke-linejoin:round;stroke-miterlimit:10;" d="
		M1465.8,493.5l11.2,37.4l13.1,24.3l15.9,6.5l20.6,10.3l23.4,3.7l15.9-0.9l14.9,14.9l8.4,19.6c0,0,2.8,25.2,3.7,28
		c0.9,2.8,7.5,17.7,12.1,21.5c4.7,3.7,40.2,29.9,40.2,29.9l14,16.8l8.4,24.3l22.4,33.6l9.8,19.6l7.9,12.1L1704,806l-7.9,2.3h-10.7
		l-9.3,6.5l1.9,5.1l15.4-5.1h9.3l3.7,3.3l-4.7,5.1l-13.5,0.9l-7.9,4.7l0.5,4.7l12.6,0.9l5.1-2.3l3.7,3.3v3.7l-4.7,12.6l-5.6,9.8
		l18.2,74.3l-5.6,43l4.7,29.9l-10.7,28.5l0.5,24.3l4.7,3.3l10.7-4.2l10.3-4.2l17.3,2.8l24.8,8.9l28.5,7l21,1.4l31.8-11.7l25.7-10.7
		l20.1-16.3l19.2,7l7,30.4v9.3l13.5,15.9l239.4,172.1l115.4,79.9"/>
	<g>
		<polyline style="fill:none;stroke:#FFFFFF;stroke-linecap:round;stroke-linejoin:round;stroke-miterlimit:10;" points="
			1913.6,1044.1 1914.7,1037.9 1915.6,1033.3 1917.3,995.7 1954.9,1034.8 2025.2,1051.7 2013.2,1040.3 1984.3,981.2 		"/>
		<polyline style="fill:none;stroke:#FFFFFF;stroke-linecap:round;stroke-linejoin:round;stroke-miterlimit:10;" points="
			1914.7,1037.9 1922.8,1043.7 1919,1060.9 1926.6,1072 1941.3,1072.6 1950.9,1060 1976.7,1063.5 1994.4,1054.3 1996.8,1045.1 		"/>
		<polyline style="fill:none;stroke:#FFFFFF;stroke-linecap:round;stroke-linejoin:round;stroke-miterlimit:10;" points="
			1951.4,1114.6 2012.2,1075.6 2025.2,1051.7 		"/>
		<polyline style="fill:none;stroke:#FFFFFF;stroke-linecap:round;stroke-linejoin:round;stroke-miterlimit:10;" points="
			1941.3,1072.6 1935.3,1096 1934.3,1100.8 		"/>
		<polyline style="fill:none;stroke:#FFFFFF;stroke-linecap:round;stroke-linejoin:round;stroke-miterlimit:10;" points="
			1973.6,1099.9 1947,1095 1936.7,1088.3 		"/>

			<line style="fill:none;stroke:#FFFFFF;stroke-linecap:round;stroke-linejoin:round;stroke-miterlimit:10;" x1="1947" y1="1095" x2="1945.1" y2="1107.3"/>
	</g>
	<path style="fill:none;stroke:#FFFFFF;stroke-width:2;stroke-miterlimit:10;" d="M525.6,638.8l49.7-20.4l33.4-12.3l107-14.3
		l60-17.7l49.1-14.3l39.5,2.7l15,1.4l26.6-6.1l66.1-1.4l55,15.6c0,0,40.2,20.4,84.5,14.3l83.1-19.8l77.7,22.5l30,9.7"/>
	<g>
		<line style="fill:none;stroke:#FFFFFF;stroke-width:2;stroke-miterlimit:10;" x1="699.9" y1="596" x2="709" y2="687.5"/>
		<line style="fill:none;stroke:#FFFFFF;stroke-width:2;stroke-miterlimit:10;" x1="728.9" y1="589.8" x2="730.9" y2="686"/>
		<polyline style="fill:none;stroke:#FFFFFF;stroke-width:2;stroke-miterlimit:10;" points="813.3,565.4 811.3,583.7 803.2,584.8
			805.2,603.6 817.9,604.6 818.9,626.5 808.7,629 810.8,675.8 		"/>
		<polyline style="fill:none;stroke:#FFFFFF;stroke-width:2;stroke-miterlimit:10;" points="837.8,558.8 840.8,624.4 818.9,626.5
			821,661.6 809.8,661.6 		"/>
	</g>
	<g>
		<line style="fill:none;stroke:#FFFFFF;stroke-width:2;stroke-miterlimit:10;" x1="1086.8" y1="587.3" x2="1049.4" y2="667.2"/>
		<path style="fill:none;stroke:#FFFFFF;stroke-width:2;stroke-miterlimit:10;" d="M1075.9,611.7l58.7-3.1c0,0,53.2-4.3,55-3.7
			s101.4,28.4,101.4,28.4"/>
		<line style="fill:none;stroke:#FFFFFF;stroke-width:2;stroke-miterlimit:10;" x1="1135.1" y1="582.8" x2="1136.5" y2="668.8"/>
		<line style="fill:none;stroke:#FFFFFF;stroke-width:2;stroke-miterlimit:10;" x1="1173.6" y1="605.6" x2="1174.6" y2="669.7"/>
		<line style="fill:none;stroke:#FFFFFF;stroke-width:2;stroke-miterlimit:10;" x1="1193.1" y1="568.5" x2="1189.7" y2="604.9"/>
	</g>
	<path style="fill:#FFFFFF;" d="M288.2,386.8l0.4,14.5l-4,5.3l3,21.4l278.9-33.8l1.6,5.6l-7,1.1l2,18.6l-5,5.3l-66.6,8.1l0.4,28.5
		l-10.3,0.3c0,0-2.1-22.8-2.2-24.7c-0.1-1.9-21.4,3.5-21.4,3.5l0.2,6.5l6.6,0.3l2.9,18.6l-5.4,7.2l-20.9,3.4l-1.1,9.8l28-0.9
		l4.6,28.4l12.6-0.4l-1.3-26.6L495,487l3.3,14.9l16.1,5.6l61.9-8l1.6-8.9l35.9-3l3.2,12.5l6.8,7.3l20.5-1.1l3,5L436,537.9l0.9,14
		L608,529.3l0.2,22.4l-24.7,2.2l-0.1,12.2l-9.3,0.8l1.8,12.1l-270,33.5l-2.7-12.5l8.8-3.1l-7.6-49.8l-25.2,1.7l0.7-6.1l75-7.9
		l-9.4-79.6l-125.4,11.3l-2.7-28l62.3-8.9l-2.6-38.7L288.2,386.8z M234,459.9l49.3-4.7l-1.6-16.8l-49.2,5.7L234,459.9z M289.4,436.9
		l1.2,17.5l16.8-1.9l17.3-20.2L289.4,436.9z M339.8,447.2l5-8.2l109.6-13.5l-17.1-7.9L338.1,429l-19.7,20.6L339.8,447.2z
		 M488.5,427.3l10.8-1.4l-1.9-15.4l-42.6,5.5L488.5,427.3z M504.4,409.2l1.9,16.1l43-4.8l-2.3-17.1L504.4,409.2z M397.4,438.5
		l0.1,4.2l40.5-4.4l-0.5-5.9L397.4,438.5z M442.7,523.6l-1.1-11.9l-22,2.4l-6,11L442.7,523.6z M363.2,547.1c-1.1,0-7.9-6.8-7.9-6.8
		l-43.3,5.5l3.5,21.6l114.8-15.8l-1.8-12.9C428.5,538.8,364.2,547.1,363.2,547.1z M393.5,564.9l-77.4,10.5l1.4,10.4l77.4-10.5
		L393.5,564.9z M508.6,548.4l-71.1,9.6l1.4,10.4l71.1-9.6L508.6,548.4z M430.2,560l-29.7,4l1.4,10.4l29.7-4L430.2,560z M558.6,541.8
		l-43.3,5.8l1.4,10.4l43.3-5.8L558.6,541.8z M600.5,535.9l-34.3,4.6l1.4,10.4l34.3-4.6L600.5,535.9z M357.5,453.7l11.1,77.1
		l22.4-2.4c0,0-12.5-8.4-11.9-9.5c0.7-1.1,28.6-27.5,26.7-31.3S381,467,381,467l5-18.4L357.5,453.7z M410.6,458l25.1-3.6l-0.6-8.7
		l-32.1,3.8L410.6,458z M339.9,589.6l-12.9,1.6l1,7.6l12.9-1.6L339.9,589.6z M359.6,586.7l-12.9,1.6l1,7.6l12.9-1.6L359.6,586.7z
		 M380.4,584.2l-12.9,1.6l1,7.6l12.9-1.6L380.4,584.2z"/>
	<g>

			<polyline style="fill:none;stroke:#FFFFFF;stroke-width:2;stroke-linecap:round;stroke-linejoin:round;stroke-miterlimit:10;" points="
			162.5,172.5 161.2,179.9 234.1,232.5 196.5,258.4 192,251.3 184.9,250.3 176.4,256.1 168.7,246.4 148.6,257.7 		"/>

			<polyline style="fill:none;stroke:#FFFFFF;stroke-width:2;stroke-linecap:round;stroke-linejoin:round;stroke-miterlimit:10;" points="
			129.7,169.6 118.3,205.2 116.5,211.1 106.1,226 83.4,244.5 69.8,250.6 		"/>

			<line style="fill:none;stroke:#FFFFFF;stroke-width:2;stroke-linecap:round;stroke-linejoin:round;stroke-miterlimit:10;" x1="164.1" y1="283" x2="118.3" y2="205.2"/>

			<polyline style="fill:none;stroke:#FFFFFF;stroke-width:2;stroke-linecap:round;stroke-linejoin:round;stroke-miterlimit:10;" points="
			180.6,194.5 169,209.8 132.7,230.5 		"/>

			<polyline style="fill:none;stroke:#FFFFFF;stroke-width:2;stroke-linecap:round;stroke-linejoin:round;stroke-miterlimit:10;" points="
			147.3,221.4 139.2,206.2 146.3,165.7 		"/>

			<polyline style="fill:none;stroke:#FFFFFF;stroke-width:2;stroke-linecap:round;stroke-linejoin:round;stroke-miterlimit:10;" points="
			106.1,226 113.5,239.3 126.8,233.8 137.9,252.9 103.2,274.6 85,243.2 		"/>

			<polyline style="fill:none;stroke:#FFFFFF;stroke-width:2;stroke-linecap:round;stroke-linejoin:round;stroke-miterlimit:10;" points="
			115.8,212.4 78.2,180.9 50.3,213.7 		"/>

			<polyline style="fill:none;stroke:#FFFFFF;stroke-width:2;stroke-linecap:round;stroke-linejoin:round;stroke-miterlimit:10;" points="
			126.8,164.7 106.5,159.8 93.4,156.6 79.5,144.6 72.7,147.2 78.2,180.9 97,172.8 106.1,161.1 		"/>
	</g>
	<polyline style="fill:none;stroke:#FFFFFF;stroke-width:2;stroke-linecap:round;stroke-miterlimit:10;" points="1210.6,872.2
		1172,867.3 1159.2,885 	"/>
	<polyline style="fill:none;stroke:#FFFFFF;stroke-width:2;stroke-linecap:round;stroke-miterlimit:10;" points="1208.5,860.1
		1213.6,886.2 1220.1,962.3 1268.7,974 1283.7,1049.2 1305.1,1069.8 1331.3,1067.9 1380.8,1001.6 1407,918.4 	"/>
	<polyline style="fill:none;stroke:#FFFFFF;stroke-width:2;stroke-linecap:round;stroke-miterlimit:10;" points="1212.8,887.8
		1187.2,886.4 1162,886.1 1150.8,877.7 1151.5,859.1 1139.9,855.6 1129.4,857.4 1119.6,862.3 1121,871.4 1112.6,886.4 1080.7,905
		1079.7,912 1084.9,927.8 1114,932 1164.1,976.1 	"/>
	<polyline style="fill:none;stroke:#FFFFFF;stroke-width:2;stroke-linecap:round;stroke-miterlimit:10;" points="1460.2,681.9
		1466.3,720.7 1464.4,773 1457.4,802 1432.2,835.6 1414.4,885.1 1395.1,966.6 1389.4,1004.4 1399.3,1047.9 1372.6,1054.9
		1356.5,1064.7 1353,1085 	"/>
	<polyline style="fill:none;stroke:#FFFFFF;stroke-width:2;stroke-linecap:round;stroke-miterlimit:10;" points="1479.5,539.8
		1418.9,551.3 1391.9,549.9 1385.6,540.8 1321.1,517 	"/>
	<polyline style="fill:none;stroke:#FFFFFF;stroke-width:5;stroke-linecap:round;stroke-miterlimit:10;" points="176.2,654.4
		160.8,651.6 115,633.9 92.6,628.3 38,628.8 -17.6,635.8 -56.9,635.8 -140.5,618 -208.2,607.6 -286.7,603.9 -358.6,605.7 	"/>
	<g>
		<polyline style="fill:none;stroke:#FFFFFF;stroke-width:2;stroke-linecap:round;stroke-miterlimit:10;" points="83.3,609.9
			47.1,637.4 35.9,645.8 4.7,651.9 -18.6,655.1 -34.4,668.7 -39.1,689.2 -38.2,749.7 -36.3,774.4 -16.3,782.8 5.2,781.4 20.5,790.8
			31.7,805.7 32.2,845.3 35.5,943.6 		"/>
		<path style="fill:none;stroke:#FFFFFF;stroke-width:2;stroke-linecap:round;stroke-miterlimit:10;" d="M35.9,645.8l14.9,21.9
			l1.9,74.6l11.6,19.1l-13,45.2l19.1,13.5l2.8,16.8l-5.1,41.9l-17.7,7.9L63,906.3l22.4,22.4l25.6,0.9l7.9,7.9l16.3,4.2l-3.3,35.9
			c0,0,2.3,16.3,33.1,27c0,0,29,11.2,30.8,11.2"/>
	</g>

		<line style="fill:none;stroke:#FFFFFF;stroke-width:2;stroke-linecap:round;stroke-miterlimit:10;" x1="1475.3" y1="625.9" x2="1418.2" y2="605.3"/>
	<polyline style="fill:none;stroke:#FFFFFF;stroke-width:2;stroke-linecap:round;stroke-miterlimit:10;" points="1416.4,616.8
		1421.3,570.6 1418.9,551.3 	"/>
	<g>
		<polyline style="fill:none;stroke:#FFFFFF;stroke-width:2;stroke-linecap:round;stroke-miterlimit:10;" points="113.4,341.6
			70.7,362.3 30.6,349.9 -12.7,336.6 -239.7,316.5 -204.6,428.1 -203.3,534.8 -227.8,571.8 -229.7,607.7 		"/>
		<path style="fill:none;stroke:#FFFFFF;stroke-width:2;stroke-linecap:round;stroke-miterlimit:10;" d="M83.9,623.8v-37.6l-27-86.6
			L25.6,435c0,0-22-36.4-10.7-59.6l15.6-25.6"/>
		<polyline style="fill:none;stroke:#FFFFFF;stroke-width:2;stroke-linecap:round;stroke-miterlimit:10;" points="-204.6,480.8
			-187,478.9 -151.9,452.6 -118.7,441.3 -78.5,406.8 13.7,406.2 		"/>
	</g>
	<path style="fill:#FFFFFF;" d="M2043.6,271.9l-4.4,2.8v4.9v7l2.2,4l3.2,2.6l3.5,1.2h4.4h3.5l3-2.8l5.1-3l3.7-2.1l4.4-0.5l3.7,1.2
		l3.5,1.2l4,1.2l5.1,0.7c0,0,2.1-1.6,2.3-2.8c0.2-1.2,1.2-3,1.6-4.2s2.3-4.2,2.3-4.2l3.3-1.6l3.3-0.2l3-0.2l2.6,1.6l2.3,2.6
		c0,0,1.9,1.9,2.8,2.1c0.9,0.2,2.6,0,2.6,0l1.9-1.2c0,0-0.5,0,1.2-0.7c1.6-0.7,4-2.8,4-2.8l2.6-0.9l3,0.5l2.6,2.3
		c0,0,1.2,0.2,1.6,2.8s3.3,7.9,3.3,7.9l4,3.3l5.8,1.9l8.2,3l9.1,4.7l5.4,5.4l2.3,3l1.2,2.6l2.8,2.3l9.6,7.2c0,0,1.4,3.5,2.3,4.7
		c0.9,1.2,7.5,8.4,7.5,8.4l2.3,4.2l1.6,7v10.7v7.5l-2.3,6.3v6.1v6.1l4.2,4.9l6.5,5.6l-5.4-8.6l-1.6-6.5l0.7-8.9l1.4-5.8l0.5-9.1
		l-0.2-10.3c0,0-1.9-4.7-2.3-5.8c-0.5-1.2-0.7-3-1.6-4.2c-0.9-1.2-4.2-6.1-4.2-6.1s-1.6-2.3-1.6-3s1.2-2.3,1.2-2.3l3.7-1.6l5.4-0.7
		l4.2-2.6l8.2-3.3l8.2-1.6l7.2,0.7l9.1,1.2l9.8,4.9l10.5,6.3l4.9,6.8l7,7l3.7,7.9l3,8.4v9.1l-2.1,10l-2.1,11.4l0.7,9.1l-0.2,13.3
		l0.2,7.7l2.1,5.8c0,0,0,4,1.4,5.6s10.3,7,10.3,7h7l5.4,1.2h5.8l4.4,1.9c0,0,3.7,0.5,6.5,0.9s8.2,3.5,8.2,3.5l6.8,4.7l6.1,5.4
		l6.1,5.8c0,0,5.8,4.9,6.8,5.8c0.9,0.9,9.6,8.4,9.6,8.4s5.6,5.4,6.3,6.1s5.8,5.1,6.8,6.3c0.9,1.2,4.2,4.7,5.4,5.4s9.1,5.1,10.7,6.3
		s7,4.9,8.2,4.9s8.4,4.7,8.4,4.7l8.2,1.9c0,0,8.2,0.5,9.8,0.9c1.6,0.5,17.7,4.9,20.1,13.5l0.9,7l1.4,8.4v7.9l1.4,0.9l1.4-1.6v-5.8
		v-8.9l1.2-4.7c0,0,0.5-0.7,2.1,1.4c1.6,2.1,5.4,3.7,5.4,3.7l3.7,1.9l5.8,2.3c0,0,4.4,1.4,4.9,2.1c0.5,0.7,6.1,4.4,6.1,4.4l5.4,4
		l7.5,4.9l3,3.7l3.3,3l-1.6,5.8c0,0,0.2,13.8,0.2,14.7s0.5,14.7,0.5,14.7s-0.9,13.3-0.9,14.5s-1.4,14.5-1.4,14.5s0.2,5.1,0.7,6.1
		s1.9,5.8,2.6,7.2c0.7,1.4,3.7,1.6,3.7,1.6s1.9-5.8,1.9-7s-1.6-12.6-1.6-13.5s-0.2-16.6-0.2-16.6s2.6-8.6,1.9-10
		c-0.7-1.4-0.5-4.2,0.1-9.6c0.6-5.4,1-9.8,1-9.8s2.6-7.5,2.3-8.4c-0.2-0.9-2.6-4.9-3-5.6c-0.5-0.7-2.3-3.5-3.3-4.4s-3.7-3.3-3.7-3.3
		s-3.3-2.1-4.2-3s-4.4-3.5-5.1-4.4s-2.6-1.9-3.3-2.3c-0.7-0.5-2.8-1.2-3.5-1.9s-4.2-3.3-4.9-3.5s-5.4-3-5.4-3s-2.1-0.5-3.3-0.9
		c-1.2-0.5-5.1-2.6-6.3-3c-1.2-0.5-2.8-0.9-3.5-2.1c-0.7-1.2-1.4-1.6-2.1-3c-0.7-1.4-2.3-1.9-3.3-3.7c-0.9-1.9-1.4-1.6-2.8-4
		c-1.4-2.3-2.6-3.3-2.6-3.3s-1.6-0.9-2.6-1.2c-0.9-0.2-4.7-1.6-4.7-1.6l2.4-5.5l2.1-3.3l2.3-3.9l2.8-1.9c0,0,1.6-0.5,2.1-0.7
		s2.6-0.7,3.2-0.7c0.5,0,5.3-1.4,5.3-1.4l3.9-0.7l2.5-0.7l-0.9-1.9c0,0-5.8,1.2-6.8,1.4c-1.1,0.2-2.3,0.5-3.9,1.2s-6.7,2.3-6.7,2.3
		l-4.6,2.1l-2.3,1.8l-8.1,5.8c0,0-1.2,0.4-2.6,0c-1.4-0.4-2.1-0.5-3.5-0.7s-7.7-0.4-8.8-1.2c-1.1-0.9-5.8-1.8-7-2.5s-6-2.5-6.8-3.3
		s-3.9-2.5-4.6-3.5c-0.7-1.1-8.1-4.7-8.1-4.7s-5.6-7.2-6.3-7.5c-0.7-0.4-1.2-5.6-8.1-7c-6.8-1.4-14.9-9.8-15.4-10.2
		c-0.5-0.4-9.3-6.7-9.3-6.7s-6-4.4-6.7-5.3s-7.2-3.7-8.9-5.1c-1.8-1.4-4.4-3-6.8-4.4c-2.5-1.4-11.9-3.5-13.3-3.9
		c-1.4-0.4-9.6-2.8-11.9-3.2c-2.3-0.4-9.1-2.3-9.8-3.2c-0.7-0.9-4.9-4.7-4.9-4.7l-6.1-10.8l-2.6-11.7l0.7-9.3c0,0,0.2-5.6,0.5-6.3
		c0.2-0.7,2.6-6.3,2.6-6.3l2.3-6.8l-1.9-17c0,0-5.6-13.1-6.5-14.7s-4.4-6.5-5.7-7.9s-7.1-6.8-7.4-7.5c-0.2-0.7-7.5-6.5-7.5-6.5
		s-14.2-10-26.9-12.6c0,0-15.2,3-15.9,2.8s-10.5,3-11.7,3.3c-1.2,0.2-11.7,4-11.7,4s-5.8,1.4-7.2,0.7c-1.4-0.7-6.3-3.3-7.2-4.2
		c-0.9-0.9-3.7-3.5-4.7-4.7c-0.9-1.2-4.4-5.4-4.7-6.3s-5.4-4.7-5.4-4.7l-6.1-3l-4.4-2.3l-8.6-3.2l-5.1-3.5l-2.1-5.6v-3.3l0.7-5.4
		l1.9-2l1.9-2.7c0,0,0.2-1.2-0.2-2.6s-0.5-1.2-1.2-2.8c-0.7-1.6-1.9-1.8-2.5-2.6c-0.5-0.9-2.2-1.2-2.2-1.9s0-1.6,0-3.2s0-3.3,0-3.3
		l1.5-2.1l-1.5-10.3l0.8-5.8l0.7-4.7l1.9-3.5l3-2.6l1.1-4l-2.8,1.1l-2.6,2.6l-2.1,1.9c0,0-2,2.5-2.3,3.3s0,3-0.9,3.9
		s-2.5,2.3-2.5,2.3l-4.4-0.7c0,0-0.7-2.3-0.9-3s-1.2-1.8-1.2-1.8s-2.1,0.9-4,1.8c-1.9,0.9-8.9,3.3-8.9,3.3s-2.3,1.4-3.7,2.6
		c-1.4,1.2-4,2.5-6.1,3.9s-5.4,3-6.5,3.7s-6,3.2-6,3.2s-1.1,2.6-1.9,3.5c-0.9,0.9-1.1,1.2-2.8,3.2c-1.7,2-0.4,3-3.5,3.3
		c-3.2,0.4-6.1,0.4-6.1,0.4l-4.2,1.4l-2.6,0.7l-3.2,2.1l-3.7,1.9l-3.2,2.5l-3.3,1.6l-4,1.1L2043.6,271.9z"/>
	<g>
		<g>
			<g>
				<path style="fill:none;stroke:#FFFFFF;stroke-width:2;stroke-linecap:round;stroke-miterlimit:10;" d="M2156.6,216.3
					c0,0,3.5-2.7,7.7-6.1s7.7-9.9,7.7-14.5s-2.7-10.6-6.1-13.3s-3.3-7.3,0-10.3s7.2-3.7,8.6-1.6s5.5,3.2,9.1,2.6s9.5,1.2,13.1,4.2
					s10.7,5.7,15.9,6.1c5.1,0.4,12.1-1,15.4-3s7.2-5.4,8.6-7.5c1.4-2.1,6.5-1.5,11.3,1.2l5.9,3.3c4.8,2.7,10.6,4.9,12.9,4.9
					s7.3-0.4,11-0.9s7.8-2.7,9.1-4.9s1.4-6,0.2-8.4s-4.4-8.3-7.2-13l-2.3-3.9c-2.8-4.7-9.7-8.6-15.2-8.7l-19.7-0.2
					c-5.5-0.1-10-3.7-10-8.1c0-4.4-3-7.6-6.8-7.2c-3.7,0.4-5.3-1.4-3.5-4s4-8.8,4.9-13.8s5.1-12,9.3-15.6l0.2-0.1
					c4.2-3.6,12-7.4,17.4-8.4l3.7-0.7c5.4-1.1,13.2,1,17.3,4.7l1.9,1.7c4.1,3.7,9.3,10.8,11.5,15.8l13.2,30.1"/>
			</g>
			<g>
				<path style="fill:none;stroke:#FFFFFF;stroke-width:2;stroke-linecap:round;stroke-miterlimit:10;" d="M2233.7,245.3l5-13.5
					c1.9-5.2,7.9-9,13.4-8.5l31.9,2.9c5.5,0.5,12.6-0.2,15.8-1.4c3.2-1.3,9.4-2.7,13.8-3s6.1-4.8,3.9-9.8l-44.6-100.4
					c-2.2-5-7.8-6.7-12.4-3.6l-27.6,18.3"/>
			</g>
			<g>
				<path style="fill:none;stroke:#FFFFFF;stroke-width:2;stroke-linecap:round;stroke-miterlimit:10;" d="M2179.4,223
					c0,0,0.9-2.5,1.9-5.6c1.1-3.1,5.5-5.4,9.8-5.3c4.3,0.2,10.7-1.1,14.2-2.8s10.1-5.6,14.7-8.6l13-8.5"/>
			</g>
			<g>
				<path style="fill:none;stroke:#FFFFFF;stroke-width:2;stroke-linecap:round;stroke-miterlimit:10;" d="M2199,212.5
					c0,0,1.3,2.4,2.8,5.4s0.8,7.2-1.6,9.3c-2.4,2.1-4.3,5.3-4.2,7s4.6,2.1,9.9,0.9l5.7-1.4c5.4-1.3,10.1,0.5,10.6,3.8
					c0.5,3.4,0.9,6.1,0.9,6.1"/>
			</g>
		</g>
	</g>
	<path style="fill:#FFFFFF;" d="M2192.8,294.7l-1.2,4.4l0.9,3l3.7,0.9l4.2-0.5l6.5-2.1l0.9-2.8l-0.2-3.5l-3-1.6l-2.6,1.9
		c0,0-3,0-3.7,0S2192.8,294.7,2192.8,294.7z"/>
	<polyline style="fill:none;stroke:#FFFFFF;stroke-width:2;stroke-miterlimit:10;" points="2633.7,585.6 2666.7,617.9 2692.6,619.3
		2695.4,561.8 2689.1,548.5 2684.9,507.2 2670.2,510.7 	"/>
	<polyline style="fill:none;stroke:#FFFFFF;stroke-width:2;stroke-miterlimit:10;" points="2717.8,421.8 2681.8,420.9 2658,433.1
		2621.1,427.9 	"/>
	<polyline style="fill:none;stroke:#FFFFFF;stroke-width:2;stroke-miterlimit:10;" points="2685.4,508.2 2651.8,470.9 2641,453.1
		2639.6,437.2 2639.2,421.4 2642.4,402.2 2644.3,379.3 2661.1,366.7 2669.5,361.1 2683.1,347.6 2712,346.6 	"/>
	<path style="fill:none;stroke:#FFFFFF;stroke-width:2;stroke-miterlimit:10;" d="M2456.7,454.3h-58.9v-57.9l50.4-79.4
		c0,0,34.6-20.6,17.7-44.8l-27.1,12.1"/>
	<line style="fill:none;stroke:#FFFFFF;stroke-width:2;stroke-miterlimit:10;" x1="2684.9" y1="507.2" x2="2747" y2="492.2"/>
	<polyline style="fill:none;stroke:#FFFFFF;stroke-width:2;stroke-miterlimit:10;" points="2717.9,396.8 2794,347 2828.7,328.7
		2838.1,296.7 2852.2,297.2 2889.3,280.8 2912.9,262.3 2939.6,274.6 2959.5,279.2 2993.4,278.8 3009,289.5 3023.1,321.2
		3030.7,309.9 3057.6,304.7 	"/>
	<g>
		<g>
			<g>
				<path style="fill:none;stroke:#FFFFFF;stroke-width:2;stroke-linecap:round;stroke-miterlimit:10;" d="M2251.9,290.9l23.6,0.3
					c5.5,0.1,13.8-2.3,18.4-5.3l51.4-33.1c4.6-3,5-8.4,0.9-12l-9.6-8.4c-4.2-3.6-8.6-10.9-9.8-16.3l-5.4-23.5
					c-1.2-5.4-4.4-13.7-7-18.6l-12.4-23c-2.6-4.8-0.7-10.7,4.4-12.9l2.3-1.1c5-2.3,10.6-7.5,12.4-11.6c1.8-4.1,7.4-8.6,12.4-10
					s12.3-1.1,16.1,0.7s9.9,6.7,13.4,10.9l9.1,10.8c3.5,4.2,7.5,9.8,8.8,12.3c1.3,2.6,6.6,6.2,11.7,8.1l60.2,21.8"/>
			</g>
			<g>
				<path style="fill:none;stroke:#FFFFFF;stroke-width:2;stroke-linecap:round;stroke-miterlimit:10;" d="M2383.1,154.9l-8,20.6
					c-2,5.1-3.3,13.8-3,19.3l0.5,8.1c0.4,5.5-2,13.6-5.2,18.1l-23.3,32.6"/>
			</g>
			<g>
				<path style="fill:none;stroke:#FFFFFF;stroke-width:2;stroke-linecap:round;stroke-miterlimit:10;" d="M2281.3,291.3l-3.1,26.5
					c-0.6,5.5,0.7,14.1,2.9,19.1l10.6,24.2c2.2,5,6.1,11.8,8.7,15c2.6,3.2,4.7,5.8,4.7,5.8"/>
			</g>
		</g>
	</g>

		<line style="fill:none;stroke:#FFFFFF;stroke-width:5;stroke-linecap:round;stroke-miterlimit:10;" x1="2242.9" y1="305.9" x2="2163.6" y2="319.9"/>
	<path style="fill:none;stroke:#FFFFFF;stroke-width:5;stroke-miterlimit:10;" d="M2708,256c0,0-30.6,15-57.3,11.2"/>
	<path style="fill:none;stroke:#FFFFFF;stroke-width:5;stroke-linecap:round;stroke-miterlimit:10;" d="M3223.6,742.4l-24.9-58.7
		l-0.9-33.6l-14-39.2l-37.4-79.4l-14.9-42L3124,440l8.4-34.6c0,0-6.5-29.9-8.4-34.6s-16.8-29-16.8-29l-27.1-14l-19.6-23.8l-10.5-9.1
		l-14.7-15.4l-15.4-10.5l-13.3-6.3l-15.4-15.4l-14.7-6.3l-20.3,15.4l-16.1,7l-27.3-11.9l-13.3,9.1l-10.5,7.7l-10.5,4.9l-25.9,3.5
		l-25.2-12.6l-8.4-17.5l-7-4.9l-9.5-5.2"/>
	<path style="fill:#E0DAD5;" d="M2322.8-128.1l-2.1,5.6v4.9l4.9,1.4c0,0,2.1-0.7,3.5-2.8c1.4-2.1,4.2-2.8,2.1-4.9
		c-2.1-2.1,0,0.7-2.1-2.1s3.5-9.1,3.5-9.1s-1.4-7-3.5-9.1s-5.6-0.7-5.6-0.7l-6.3,5.6c0,0,0,4.9-1.4,7s-2.8,7-2.8,7l2.8,4.2
		L2322.8-128.1z"/>
	<path style="fill:none;stroke:#FFFFFF;stroke-width:5;stroke-linecap:round;stroke-miterlimit:10;" d="M2525.7,523.4l-27.1,55.1
		c0,0-21.5,40.2,0.9,69.1c0,0,48.6,39.2,1.9,76.6c0,0-36.4,31.8-14.9,70.1l43,66.3l46.7,38.3l11.2,57l-9.3,24.3l-42,29.9l-109.3,3.7
		l-19.6,34.6l-78.5,208.3l-125.5,329.1"/>
	<g>
		<g>
			<g>
				<path style="fill:none;stroke:#FFFFFF;stroke-width:2;stroke-linecap:round;stroke-miterlimit:10;" d="M3784.1,917.5L3771,937
					c-3.1,4.6-6.4,9.6-7.4,11.2s-3.6,7-5.8,12.1l-6.4,15c-2.2,5.1-7,10.8-10.8,12.8s-7.8,6-8.9,8.9s-6.5,5.3-11.8,5.4
					c-5.4,0.1-12.3,3.2-15.4,7.1c-3.1,3.8-9.4,8-13.9,9.2c-4.6,1.2-10.9,1.4-14,0.4s-8.1,1.2-11.1,4.9s-9.5,8.3-14.6,10.2
					s-13.2,2.1-18.1,0.5c-4.9-1.6-10.9-3.4-13.4-3.9s-8.9,0.2-14.2,1.5l-0.9,0.2c-5.3,1.3-13.7,3.7-18.5,5.3s-13.2,3.6-18.7,4.3
					l-7.2,1c-5.5,0.7-13.7,1.4-18.2,1.4s-12.2-2.2-16.9-5l-0.9-0.6c-4.7-2.8-12.1-8-16.3-11.5l-19.2-16.2
					c-4.2-3.5-5.7-10.5-3.4-15.5l1.7-3.6c2.3-5,3.9-13.5,3.4-18.9s-3.7-13.4-7.1-17.6l-11-13.6c-3.5-4.3-7.5-12.1-9-17.4l-3-10.6
					c-1.5-5.3-5.2-13.4-8.2-18l-4.1-6.3c-3-4.6-6.8-11.6-8.4-15.5c-1.6-3.9,11.6-19.8,15.7-23.6l15.4-14.4"/>
			</g>
			<g>
				<path style="fill:none;stroke:#FFFFFF;stroke-width:2;stroke-linecap:round;stroke-miterlimit:10;" d="M3662.4,1033.2l18,35.8
					c2.5,4.9,4.5,13.4,4.6,18.9l0.5,41.3c0.1,5.5-3.6,12.6-8.1,15.8l-36.4,25.7c-4.5,3.2-11.5,8.8-15.5,12.6l-24.3,22.5
					c-4,3.7-11.8,6.9-17.3,6.9l-34.6,0.4c-5.5,0.1-13.1-0.3-16.9-0.7s-10.4-0.4-14.7,0.2s-10.9-2.2-14.7-6.2l-13.6-14.2
					c-3.8-4-9.8-8.9-13.4-11c-3.6-2-10.7-5.1-16-6.8l-34.4-11.2c-5.2-1.7-11.8-7-14.6-11.7l-12.8-11.2c-3.7-4.1-11.1-8.5-16.4-9.8
					l-1.6-0.4c-5.3-1.3-10.5-3.8-11.4-5.6c-0.9-1.8-11.8-9.6-15.4-11.8c-3.6-2.2,3.6-21.4,6.8-25.7s-25-10.2-29.6-8.7
					s-11.8,1-16.2-1c-4.3-2-7.9-6.9-8-10.7c0-3.9-3.7-9.7-8.1-12.9l-4.5-3.3c-4.4-3.3-12.2-7.6-17.4-9.6l-3.8-1.5
					c-5.1-2-10.2-2-11.2-0.1c-1,2-5.2,4-9.2,4.5s-11.5,0.6-16.6,0.3c-5.1-0.3-10.7,0.5-12.5,1.9s-7.2,0.5-12.1-2.1l-28.1-14.5
					c-4.9-2.5-12.7-7-17.3-10l-3.3-2.1c-4.6-3-9.6-7.2-11-9.5c-1.4-2.2-6.2-6.6-10.8-9.7l-0.8-0.5c-4.5-3.1-8.3-7.3-8.3-9.2
					c0-2-4.4-4.7-9.7-6.1l-67.2-17.5c-5.3-1.4-13.7-2.5-18.6-2.4s-12.6-2.4-17.2-5.5l-23.7-16.1c-4.6-3.1-12.8-5.6-18.3-5.5h-2.1
					c-5.5,0.1-13.5-2.7-17.8-6.1l-45.5-36c-4.3-3.4-12.3-7.1-17.7-8.2l-4-0.8c-5.4-1.1-12.5-5.6-15.7-10l-10.7-14.6
					c-3.2-4.4-8.6-11.7-11.8-16.1l-30.9-42.2c-3.3-4.4-9.4-11-13.6-14.5l-25-20.9c-4.2-3.5-10.1-10.2-13-14.9l-15.5-24.8
					c-2.9-4.7-8.9-11.2-13.2-14.4s-7.1-7.6-6.2-9.6c1-2,0.9-4.9-0.1-6.4s-1.8-5.4-1.9-8.5c0-3.1-4.2-4.5-9.3-3.1s-12.1-0.9-15.5-5.2
					l-4-4.9c-3.5-4.3-6.8-12.2-7.5-17.7l-4.4-38.5"/>
			</g>
			<g>
				<path style="fill:none;stroke:#FFFFFF;stroke-width:2;stroke-linecap:round;stroke-miterlimit:10;" d="M3485.2,1005.2l-20.8-1.9
					c-5.5-0.5-14.1-2.6-19.2-4.7l-49.6-20.7c-5.1-2.1-13.2-6.1-17.9-8.8l-18.5-10.4c-4.8-2.7-12.5-7.3-17.2-10.2l-11.7-7.2
					c-4.7-2.9-12.9-6.4-18.2-7.8l-63.6-16.6c-5.3-1.4-13.3-5.2-17.7-8.5l-2.6-2c-4.4-3.3-10-10-12.3-15l-0.2-0.4
					c-2.4-5-5.9-10.9-7.9-13.1s-8-3.3-13.5-2.3l-3.8,0.7c-5.4,1-13.6-0.7-18.2-3.8l-8.5-5.7c-4.6-3.1-10.9-9.3-14-13.8l-21.6-31"/>
			</g>
			<g>
				<path style="fill:none;stroke:#FFFFFF;stroke-width:2;stroke-linecap:round;stroke-miterlimit:10;" d="M3539.1,1213.2l-5.1,34.6
					c-0.8,5.4-1,14.4-0.4,19.9l1.9,18.5c0.6,5.5,2.2,14.3,3.6,19.6l7.6,29c1.4,5.3,3,14.2,3.6,19.6l41.7,4.1
					c5.2,1.7,13.8,1.9,19.1,0.3l44.7-13c5.3-1.5,12.8-4.9,16.8-7.5s18.1,22.4,21.1,27l10.2,15.2c3.1,4.6,10,8.8,15.5,9.5l8,0.9
					c5.5,0.6,14.1-0.5,19.3-2.5l28.9-11.2c5.1-2,12.1-7.2,15.4-11.6l7.6-10c3.3-4.4,8.6-5.4,11.8-2.3s10.3,5.9,15.8,6.2l91.3,5.3
					c5.5,0.3,13.2-0.1,17.1-0.9s14.3-14.7,17.1-19.5l10.1-17.2c2.8-4.7,8.4-11.6,12.5-15.3l32.4,1.6c5.5-0.7,14.2,0,19.5,1.6
					l25-14.6c5.2-1.8,14-3.5,19.5-3.8c0,0,16.4-1,26.5,10.3"/>
			</g>
		</g>
	</g>
	<circle style="fill:#E0DAD5;" cx="3659.6" cy="1029.4" r="3.8"/>
	<circle style="fill:#E0DAD5;" cx="3683.5" cy="962.5" r="3.8"/>
	<circle style="fill:#E0DAD5;" cx="3538.8" cy="1213.6" r="3.8"/>
	<path style="fill:#E0DAD5;" d="M3506.8,1023.5c2.1,0,3.8,1.7,3.8,3.8s-1.7,3.8-3.8,3.8s-3.8-1.7-3.8-3.8
		S3504.7,1023.5,3506.8,1023.5z"/>
	<circle style="fill:#E0DAD5;" cx="2691.4" cy="619.3" r="3.8"/>
	<circle style="fill:#E0DAD5;" cx="3685.6" cy="1109.3" r="3.8"/>
	<path style="fill:none;stroke:#FFFFFF;stroke-width:2;stroke-linecap:round;stroke-miterlimit:10;" d="M3657.6,1025.6
		c0,0-30.3-41.6,22.1-62.6"/>
	<path style="fill:none;stroke:#FFFFFF;stroke-width:2;stroke-miterlimit:10;" d="M2790.8,222.2v-22.1c0,0,15.6-10.7,21.8,8.2
		l6.2,32.4"/>
	<path style="fill:#E0DAD5;" d="M4809.6,126.8h-0.3l-8.4,1.5c-0.5,0.1-1,0.2-1.5,0.4s-0.8,0.3-1,0.4l-0.3-0.4l0.3,0.4
		c-0.2,0.1-0.5,0.4-0.8,0.6c-0.3,0.3-0.6,0.6-0.9,0.9l-0.1,0.1h-0.1l-0.2,0.1l0,0l-0.1,0.1c-0.1,0.1-0.1,0.2-0.1,0.2l0,0
		c-0.4,0.9-0.7,2.1-0.8,2.6c-0.1,0.4-0.1,0.9-0.1,1.3v0.2l0,0c0,0.3,0.2,1,0.3,1.5c0.1,0.5,0.5,1.4,0.7,1.8c0.3,0.6,0.7,1.4,1,1.8
		l0,0c0.3,0.6,0.6,1.2,0.7,1.6c0.1,0.4,0.3,0.9,0.4,1.3l0,0c0,0.2,0,0.3,0,0.6c0,0.6,0,1.3-0.1,2l-4.2,40.5c0,0.1,0,0.3,0,0.4
		c0,0.3,0,0.5,0.1,0.6c0,0.1,0.1,0.2,0.1,0.2c0.3-0.1,0.6-0.1,1.1-0.1s1-0.1,1.6-0.1l12.6-0.5c1,0,2.7-0.1,3.7-0.2l0.8-0.1
		c1-0.1,2.7-0.2,3.7-0.3l4.1-0.3c1-0.1,2.6-0.3,3.5-0.6l0.4-0.1c0.5-0.1,0.8-0.3,1.2-0.4c0.4-0.2,0.6-0.3,0.6-0.4l0,0l0,0
		c0.1-0.1,0.2-0.4,0.4-0.7c0.2-0.4,0.4-0.7,0.5-1.2c0.3-0.6,0.5-1.9,0.5-2.9c0-0.1,0-0.2,0-0.3l-0.2-4.9c0-1-0.3-2.6-0.5-3.6
		l-1.9-8.7c-0.1-0.4-0.4-0.8-0.6-1.2c-0.4-0.4-0.7-0.6-1.1-0.7l-11-3.3c-0.6-0.2-1.1-0.6-1.5-1.1s-0.6-1.1-0.6-1.8l-0.6-26.5
		c0-0.4-0.1-0.6-0.4-0.8C4810.3,126.9,4810,126.8,4809.6,126.8"/>
	<rect x="-584.2" y="-1176.3" style="fill:#FFFFFF;" width="4652.7" height="3260.5"/>
	<g>
		<g>
			<path style="fill:#E0DAD5;" d="M-131.1,619.5l51.8,13.4l25.2,5.7l27,0.8l25.1-2.8l21.5-2.8l26.2-1.9l10.8-2.3l32.4-25.3l33-4.4
				l12.2-15.8l15.7-0.4l3.6-7.1l-8.6-56.2V520c2.2-21.4-23.8-102-25-105.7l-6.5-15.4l-8.7-24.8l-6.1-21.2l6.2-8.4l0.6-0.3
				c8.8-5.1,18.6-11,19.8-12c0,0-0.1,0.1-0.2,0.2c0.8-0.9,4.8-4.1,36.2-25.9l38.8-24.8l24.4-13.1l12-12.6l8.3-11.2l2.3-10.4
				l-2.4-5.1L230.6,215l-4.3-10.9l-0.7-30.3l1.5-15.2l0.8,0.1L96.1,73.4L-101.5-86.1l-29.6-30.5V619.5z"/>
		</g>
		<g>
			<polygon style="fill:#E0DAD5;" points="3706.3,829.1 3714.5,830.6 3725.6,829.5 3729.5,831.1 3732.5,834.7 3738,828.4
				3738,824.1 3729.1,818 3721.2,813.5 3714.9,810.7 3709.7,812.7 3706.1,816.3 3706.2,821.6 			"/>
			<polygon style="fill:#E0DAD5;" points="3912.3,1007 3903.5,1009.5 3900.9,1012.4 3901,1014.6 3906.2,1014.6 3912.4,1014.5
				3915.3,1011.2 3919.2,1008.9 3923.1,1006.9 3923.1,1004.2 3916.2,1004.3 			"/>
			<path style="fill:#E0DAD5;" d="M3690.3,887.7l7.2,1.2l6.9-3.6l4.4-0.1l2.8-1.8l6.7-3.6v-3.5h-3.5c0,0-8.5,2.1-9.4,2.5
				s-8.7,3.8-8.7,3.8l-6.6-0.8L3690.3,887.7z"/>
			<path style="fill:#E0DAD5;" d="M4053.6,1101.2l-41.6-29.3l-8.6-3.8l-6-7.8c0,0-7.6-2.2-8.9-3.8c-1.3-1.6-7.3-9.4-7.3-9.4
				l-8.9-9.4l-5.7-8.4c0,0-3.4-8.1-3.4-9.8c0-1.6,0.9-8.8,0.9-8.8l-0.1-6.5l3.9-4l0.3-2.6l-4.9,0.7l-3.3-1.3l-1-5.6l1-2v-3.6
				l-1.4-3.9c0,0-2-2.3-2.7-3.6s-2.3-3.9-2.3-3.9l-5.6,0.1l-7.9-0.9l-8.5,2.1l-1.6,3l2.6,1.9l7.2,2.9l4.9,2.2l4.6,1.6l3.6,2.2v3.6
				l0.1,4.3c0,0-1.6,0.7-2.6,1.3c-1,0.7-2.9,2-2.9,2l-3.9,2l-3.9,0.7c0,0-2.9,0.7-3.9,1.4s-5.8,4-5.8,4l-2.3,2.3l-6.5,2.4l-2.6,1.3
				l-6.8,2l-2.9,1.7l-4.9,2.3l-1.9,1.7l-10.1,1.4l-3.3,1c0,0,2.3-0.4-3.9,1.7c-6.2,2-2.6-0.3-2.6-0.3l-3.6,2.3l-4.5,6.6l-3.9,5.9
				l-0.9,7.9c0,0,0.7,1-1,2.6c-1.6,1.7-4.5,6.6-4.5,6.6l-5.8,6.3l-2.9,3.7l-2.6,1.6l-3.5,6.6l-3.2,12.1c0,0,0.1,4.3,0.1,5.6
				c0,1.3-1,1.3,0.7,3.9s5.7,11.1,7.4,12.7s5,5.2,5,5.2l4.4,12.1c0,0,1.7,8.2,2.1,9.1c0.3,1-12,5.4-12,5.4s-7.5-23.5-7.5-24.5
				s-0.1-10.5-0.1-10.5l-3.7-12.4l-2.3-4.2l-2-5.9l-2.6-2.6l-3.9-0.6c0,0-1.3-0.6-2.9,2.3c-1.6,3-6.1,9.2-6.1,9.2s1,4.9,1.1,5.9
				c0,1,0.1,11.5,0.1,11.5l0.7,6.2l7.1,17.6c0,0-2.2,4-2.5,5.9c-0.3,2-0.6,4.3-0.6,4.3l-0.2,11.8l0.8,13.7c0,0-0.2,8.2-0.5,9.2
				s-2.5,12.1-2.5,12.1l-9.6-11c0,0-2.1-10.1-2.1-11.8c0-1.6-2.4-12.1-2.4-12.1l-2.6-24.8l0.8-16.7c0,0,1.2-8.5,1.5-9.5
				s3.8-11.2,3.8-11.2l3.1-9.9l3.5-7.9l9.7-6.3l3.2-3.6l2.9-3.3l9.4-4.4l4.5-4.6l1.9-7.6l2.9-3l3.5-5c0,0,0-1.6,0.6-3
				c0.6-1.3,1.9-4.3,1.9-4.3l1.9-4l-0.4-2.9l2.2-3.6l7.5-4.7l6.2-2.4l7.8-3.4l4.5-5.9l2.9-6.3l2.5-7.2l0.6-3.3l2.6-3.3l3.6-3.3
				l3.2-4.9l12.6-9.6l-1.7-2.9l-13.3,10.6l-7.6-6.5l-4-2.2l-1.7-3.6l1.6-3.3l8.4-7.3l2.8-12.5l-2.3,1.3l-3.5,10.2l-8.4,8.3
				c0,0-3.6,2-4.6,2s-6.9-1.9-6.9-1.9s-1.3,0.4-2.6-2.3c-1.3-2.6-2.7-5.5-2.7-5.5l1.9-4.9l3.9-3.6l7.9,1.2l2.3,2.6l2.7,2.9l2.6-2.6
				l1.2-6.6l-2.7-3.9l-5.6-0.9c0,0-7.9,0.1-8.8,0.4c-1,0.3-8.2-1.2-8.2-1.2s-1.6,1.3-3.3-0.3s-2.6-1.9-3-3.2
				c-0.3-1.3-0.7-5.2-0.7-5.2l-1.7-4.9l-3-3.9l-3-2.3l-4.6-1.3l-4.5-0.9l-0.1-8.5l-5-2.2l-9.1,4c0,0-3.9,2.7-6.2,1.1
				c-2.3-1.6-5-3.9-5-3.9l-4.3-6.5l-2.7-6.2l-0.5-11.8l3.9-5.9l-5.9-2.9l-5.9-2.9c0,0-7.2,0.1-7.9-0.9s-0.3,2.3-0.7-1
				s0.6-8.5,0.9-10.2c0.3-1.6,1.9-4.9,1.9-4.9l3.2-3l3.9-3.3l4.2-5.6l-0.1-4.6h2.3l0.3-6.2l-2.6-1.3l-2.6,1.7l-4.9,1.4l-3.9-0.9
				l-2.5,13.1l-3.1,13.5l-4.1,9.5l-3.5,7.2l-2.2,6.6l-1.6,2.6l2.4,9.5c0,0-0.2,7.9-0.5,8.8c-0.3,1-4.8,10.5-4.8,10.5l-4.9,0.1h-2.9
				h-3.3l-4.9,3.3c0,0-1.9,2.6-1.9,5.3c0,2.6-1.5,8.9-1.8,10.2s-4.5,7.9-5.1,9.6c-0.6,1.6-4.5,5-4.5,5l-4.9,0.1l-3.7-5.2l-3-3.6
				c0,0-8.5,3.7-9.4,6.3s-3.5,5.3-3.5,5.3l-5.2,4.3l-6.9,0.1c0,0-2.3,2-3.3,0s-6.6-5.2-7-7.4c-0.4-2.3-1.8-12.4-1.8-12.4l5.2-5
				l3.6-2.3l11.5-1.4l0.7-4.3l5.1-1.4l7.2-1.4l3.6-4l-1.7-6.5l-4-3.6c0,0,0.6-3-3.9,1.4l-4.5,3l-14.4,2.8l-8.5-0.6l-0.1-5.6
				l-4.9-2.9l-7.2-2.2l-5.9,0.7l-7.3-4.5l-1.6,1l-6.5,2l-3.6-2.9l-4.3-4.5l-4-3.6l-4.7-9.4l-1.7-8.2l4.9-3l2.9-2.3h2.6l1.9-2
				l2.9-7.6l3.2-2.7l9.4-4.4l5.2-3.7l5.5-3.7c0,0,3.3-1,3.2-3c0-2-2-5.5-2-5.5l-3.4-6.5l-4.9,0.1h-2.6c0,0-3.9,6.3-6.8,9.2
				c-2.9,3-2.6,4.3-5.5,6s-0.3-0.3-2.9,1.7c-2.6,2-4.2,1.7-4.2,1.7l-4.7-7.8l-2.9,1.7h-3.6l-3.6,2.3l-2-10l-0.1-11.3h-2.6l-5.2,0.1
				l-5.2,7l-3.9,1.8l-2.2-1.7c0,0,0.4-1.8-0.1-4.4c-0.5-2.6,1.7-7.8,1.7-7.8s0.4-1,0.8-2.7s0.4-4.8,0.4-4.8l2.6-3.5l3.9-3.5l5.6-4
				l3-2.7l4.3-2.2l3.9-3.1l4.7-4.4l-1.3-3l-7.5-3h-3.1l-3,4.8l-9.1,3.6c0,0-0.4,1.8-3.5,2.7s-6.1,2.3-6.1,2.3l-10.5,1.4l-5.2,0.5
				l-2.2,1.3l-3.5-3.9c0,0,0-2.6,0-3.9c0-1.3,1.7-3.9,1.7-3.9l2.6-1.3l7.4-3.1l3.5-2.2c0,0,1.7-3.1,0.4-4.8s-1.3-1.7-1.3-1.7
				s-0.9,0-4.3,2.7c-3.5,2.7-3.5,2.7-3.5,2.7l-6.5,0.5l-7.4-2.5l-3.1-0.4l-6.5,2.7l-3.4,5.3c0,0-1.3,1.8-2.1,3.5
				c-0.9,1.8,0.5,2.6-3.4,5.3s-6.1,4.9-6.1,4.9l-6.1,1.4l-3.9-0.4l-7-0.4c0,0-3.1-1.3-4.8-2.1c-1.8-0.9-4.4-3-4.4-3s-2.2-0.8-3.5-3
				s-3.1-2.6-3.1-5.6c0-3.1-3,1.3,0-3.1c3-4.4,4.7-6.2,4.3-7.5c-0.5-1.3-2.2-3-3.5-3s-7,1.8-7,1.8l-2.2,1.3l-6.5,2.7l-77.1,45.9
				l-39.3,13.6c-3.7-15.3-0.2-30.6,6.7-44.7l1.5-10.1l-17.9-2.2l-8.4-10l-7.3-10.6l-17.9-3.3l-10.6-8.4l-11.2-4.5
				c-40.7,21.8-53-6.1-53-6.1l-7.1-8.4l0.3-0.4l-16.1-18.5l-7.3-18.4v-26.8l-32.4-22.3v-10l-10-3.8l-3.9-16.3l8.9-7.8l-13.4-11.2
				h-10.6l-5-12.3l4.5-16.2l11.2-7.3l5-15.1h-9.5l-7.3-8.4l-1.1-13.4l8.4-6.1l-3.9-7.8l-6.7-12.3c0,0-10-6.1-8.4,0
				c1.7,6.1-4.5,12.3-4.5,12.3c-16.2-1.1-15.1-10.6-15.1-10.6l0.6-7.3l4.5-4.5l6.7-7.3l2.2-13.4l-8.9-7.3l-5,13.9l-13.4-4.9
				c0,0-2.2,6.7-12.3,4.5c-10-2.2-4.5-17.9-4.5-17.9l5.6-9.5l5.6,9.5l16.7-3.9v-6.9l7.3-12.3c0,0,0-5,0-7.8s8.4-12.3,8.4-12.3
				l14-17.9l11.2-2.8l-14-24.6l-9.5,7.3l-7.8-3.3l-11.2,7.8l-8.9-5l6.7-10l-12.8-5l3.3-6.7l18.4,0.6v-5.6l-22.3-20.1v-31.8
				l-12.3-1.1h-41.3l-17.3-12.3l-0.6-17.3l10-2.8v-6.1h-21.2l-5.6-10l-7.3-18.4l-16.2-8.4l-11.2,6.7l3.3,10l-3.9,24.6l-10.6,2.8
				l-15.1-22.9l-11.2-5.6l-11.7-22.3l-9.5,5v15.1l-6.1,14l-21.8,10.6L2919,237l-13.4-2.2l-29,19l-11.2-2.8l-21.8,6.1l-9.5-10.6
				l-7.3-15.6l8.4-8.4l7.8,5.6l2.2,10.6l9.5-1.7l2.2-7.3l-12.8-21.8l7.8-10l19.5,18.4l15.1-6.7l-19-29.6l10.6-7.8l30.7,24.6l6.7-5
				l-36.3-32.9h-11.7l-16.2-18.4l-5-14l9.5-7.3l-5.6-8.9l-14.5-3.9l-9.5,6.7h-7.8l-8.4,5l-9.5,7.3l-15.1,1.1l-12.8,10l-12.3-10
				l-9.5-2.8l-6.7,3.9l-10.6,15.6l-26.8,4.5l-12.8-21.2l-30.1,26.8l-12.8-2.2l-15.1,4.5l-30.1-11.2l-10.6-8.4l-14.5,6.7l-16.2,2.8
				l-15.6-3.3l-21.2,12.3v9.5l-27.9,6.7l-55.8-5l-33.5-10l-32.4-19.5l-6.7-12.8L2358,115l-6.7-10l1.7-7.8l21.2-10.6l-12.8-1.1
				l-3.3-12.3l-10.6-7.3l-39.1-35.2l-10.6,7.3l-10.6-6.1v25.7l-15.1,8.9l-12.3,3.9l-8.4-16.7l-12.3-8.4l-12.3-2.2v16.2l-10.6,0.6
				l-3.3,12.8l7.8,10l-11.7,14l-5,12.8l-20.7,5.6l-7.8-6.7l-10,9.5l-1.1,8.4l11.2,11.2l-30.7,14.5l-15.6,12.3l6.1,2.8l-3.9,24.6
				l10.6,16.7l-113.9,68.1l-60.8,29.6l-182.5,73.1l-135.1,28.5L1522,421.1l-165.8,15.6L1159.7,416l-166.3,5.6h-43.5l-39.6-8.4h-34.6
				l-85.4-18.4l-81.5-24.6l-39.6-8.4l-11.7-9.5h-11.2l-10.6-5.6l-4.5-12.3l-23.4-5.6l-25.7,8.4l-63.6-21.8l-62-29.6l-29.6-14
				L388.8,252l-3.6-2.1L372,234.8l-4.8-5.4l-1.1-9.6l-7.5-9.1v-20.9l-9.1-16.3l-11.2-9.4l-1.6,9.4l4.3,15.8l-11.8,7.5l-4.8-3.2
				l-17.1,3.2l-1.1-3.7l-6.4-2.7v-3.7l8-2.7l6.4-4.3l-4.3-5.4l-8,1.6l-8.6-2.1l8.6-9.1l14.5,3.7l8,7l4.8-4.3V162l-9.6-7l-13.4-4.8
				l-31.1,9.6l-7.5,9.1l-1.7,11.3l-28-14.7l-22.6-15.3c0,0-0.2,0.1-0.4,0.4L90.5,70.1L-107.1-89.4l-91.7-94.6l-40.7-26.8l-60.1-52
				l-67.4-26l-49.3-40.3v-17.6l-11-16.6v-4.3h-6.7l3.7,10.2l7.8,11.2l-1.9,16.6l3.7,7.5l-2.2,7.8l-34.9-17.4
				c0.1-4.1,0.1-9.7-0.1-11.3c-0.3-2.7-12.6-11.8-12.6-11.8s4.8-4.8,4.8-9.6c0-4.8-4.8-3.7-4.8-3.7l28.9-9.6l27.8,2.7v-2.7
				l-27.8-3.2l-32.7,10.2l-23.6,19.5l-179.9-67.5l-169.9-62.4l-109.2-31.2l-35.2-31.2v2629.8h4703.9v-0.5h340.9L4053.6,1101.2z"/>
		</g>
		<path style="fill:#E0DAD5;" d="M3400.8,788.5c0,0,71.9,39.7,127.2,24.4l-13.6,49l-56.8,25l-56.8-12.5l-17.5-53.7L3400.8,788.5z"/>
	</g>
	<g>
		<path style="fill:#E0DAD5;" d="M273.5,112.4c0-0.1,0-0.3,0-0.4c0.2-1.2,1.3-1.9,2.5-1.7c0.4,0.1,44.7,8.4,81.8,33.2
			c37.2,25,48.8,56.2,49.3,57.5c0.4,1.1-0.2,2.3-1.3,2.7c-1.1,0.4-2.3-0.2-2.7-1.3c-0.1-0.3-11.6-31.3-47.7-55.4
			c-36.3-24.3-79.7-32.5-80.1-32.6C274.2,114.3,273.5,113.4,273.5,112.4z"/>
	</g>
	<path style="fill:none;stroke:#FFFFFF;stroke-width:2;stroke-miterlimit:10;" d="M113.4,340.5c0,0,111.9-95.8,149.7-108.3
		c0,0-140.9-92.5-189.8-122.1"/>
	<path style="fill:#FFFFFF;" d="M759.9,396.8l-4.6,13.3l-2.5,9.5v8.4l-1.8,12.6l-3.5,14.7l-2.5,7.4l-8.2,1.8h-10l-5.3,6l-5.3,6.1
		v4.8v6.7v8.1v10.2V518l-8.4,16.8l-9.5,12.3l-11.9,12.6l-18.6,8.4c0,0-9,3.5-11.6,4.2s-18.9,4.2-18.9,4.2l-16.8,3.5l-26.3,5.3
		l-19.2,6l-23.2,4.6l-7.1,8.9l-6.7,6.3l-4.6,10.5v6.3l-2.8,8.8l-2.1,7.7l-13.3,7.7h-9.1h-2.8v6.7l-3.5,4.9l-8.8,17.9l-7,7l-9.6,14.4
		l-10,13.3l-8.5,9.5l-7.4,4.6l-9.5,6l-3.5,5.6v13.3l3.5,8.1l7.9,15.4l3.9,13v8.4l2.5,10.5l2.5,9.1v26.3l-2.2,6.3l13.6,16.8l-6.1,6
		l-10.4,13.7l-10.6,7.7l-9.3,8.1l-1.7,5.6l3,4.2l8,4.9l6.6,4.9l9,4.6l8.5,9.6l4.3,4.8l-1.5,9.1l-11.4,9.8l-10.6,6l-8.1,6.3l-1.4,5.6
		l6.5,4.6l8.5,3.9l13.6,5.3c0,0-0.8,3.2,0,4.2c0.8,1.1-3.2,13.7-3.2,13.7l-5.4,6l-5.1,7l-2.4,7.7l2.4,2.8l1.5-3.2l3.6-6.3l5.4-9.1
		l3.2-7l5-9.1l0.4-7.4l-5.4-4.2l-6.5-3.2l-11-2.8l-4.6-5.3c0,0,2-2.1,2.7-3.2c0.7-1.1,7.4-7,7.4-7l7.6-3.5l4.5-3.9
		c0,0,5-4.6,6.1-5.6c1.1-1.1,4.6-6.3,4.6-6.3l-7.8-9.8l-7.4-11.6l-6.2-3.2l-6.8-5.3l-7.9-3l-2-6l5.3-6.1c0,0,11.1-10.5,11.8-11.6
		s6.7-5.6,7.2-6.7s2.3-3.5,3.2-4.6c0.8-1.1,5-6.3,5-6.3l2.8-9.1l-5-6.7l-7.4-6.3l-2.4-4.9c0,0,3.5-6.7,3.7-8.8s-0.5-4.6,0-8.1
		s-1.3-15.4-1.3-15.4l-4.1-19.3l-2.9-14c0,0-3.9-4.2-4.2-5.6s-3.9-8.1-4.6-9.8c-0.7-1.8-5.6-10.5-5.2-12.3
		c0.3-1.8,1.3-11.9,1.3-11.9s3.3-3.5,4-4.9s11.6-8.1,11.6-8.1l8.5-9.5l9.3-11.9l13.7-14.7c0,0,7.6-7.4,7.3-8.8
		c-0.3-1.4,6.7-13,6.7-13l5.6-13.3l5.2-3.5l11.6-3.2c0,0,4.9-4.2,6.3-5.3c1.4-1.1,8.1-12.6,8.4-14.4c0.4-1.8,3.9-10.5,3.9-11.6
		s0-7,0-7l9.9-15.1l24.1-5.3l22.2-5l11.1-1l23.8-6.3l12.3-3.5l16.8-1.8c0,0,17.9-7,20.3-8.1s12.3-4.6,12.3-4.6l7.4-7
		c0,0,17.9-13,18.9-15.5c1.1-2.4,11.9-13.3,11.9-13.3s0.7-14.4,0.7-16.1s-1.8-14.7-1.8-14.7s2.1-7,2.5-8.1s3.9-3.2,4.2-4.2
		c0.4-1.1,5.6-5.3,5.6-5.3l5.6-2l6-4.3l2.8-6l1.4-15.8l0.7-10.9l-0.7-8.1l3.1-11.2l6.7-14l3.5-9.1l3.1-7.7l1.5-6.3l-13-4.2"/>
	<g>
		<polygon style="fill:none;stroke:#FFFFFF;stroke-width:2;stroke-miterlimit:10;" points="259.4,249.4 239.1,275.3 179.5,312.4
			173.5,327.5 186.7,326.5 198.4,337.9 214.3,337.9 249.1,334.4 280.4,331.6 322.7,328.3 343.9,324.1 352.1,315.3 362.6,319.9
			399.3,319.5 393.2,307.8 		"/>
		<polyline style="fill:none;stroke:#FFFFFF;stroke-width:2;stroke-miterlimit:10;" points="352.1,315.3 283.7,284.9 248.4,288.2
			186.7,326.5 		"/>
		<polyline style="fill:none;stroke:#FFFFFF;stroke-width:2;stroke-miterlimit:10;" points="218.2,306.9 222.2,310.8 311.2,303.3
			314.1,298.4 		"/>
	</g>
	<path style="fill:#FFFFFF;" d="M559,356.1l12.8,5.3l-15.3,12.3l-71,2.1l-14.4-2.1l-30.4-15.1l-136.5,9.1l-50.3,2.5
		c0,0-24.5,1.8-41.7,14.4c0,0-40.3,31.5-16.1,90.7c0,0,20.2,41,26.4,50.4c0,0,4.8,10.9-6.8,4.9l-11.5-7.7l-4-3.5h-4.1l-3.2,2.8
		c0,0-1,20.3,11.3,31.5l15,12.6l12.6,9.8l33.2,21.4l49.8,31.5l10.9,10.2l11.6,11.2l17.1,16.8l15.7,16.1c0,0,6.2,3.9,4.5,10.9
		l-9.9,48l-11.9,10.2l-12,9.5c0,0-25.7,31.5-27.1,41.7c0,0,13.8-34.3,23.5-42l23.4-19.6l12-46.6c0,0-4.6-11.2-15.1-19.3l-30.1-30.8
		l-32.2-25.9l-30.2-17l-27.2-15.8L215.7,573l-17.2-13c0,0-11.9-9.5-15.1-18.6V520v-9.8c0,0,1.1-7.4,0-8.4
		c-1.1-1.1,2.1-12.6,2.1-12.6l-2.3-11.2l-4.7-11.2l-2.1-24.2v-16.1l2.5-19.3c0,0,17.2-34,39.2-40.6l21.4-4.2l13.3-1.8L263,360l2-3.9
		l3.4-4.9l46-3.3c0,0,45.5-4.4,47.3-4.8s28.9-3.5,30.8-3.5s22.5-1.8,23.2-1.8s13.6,3.5,13.6,3.5l11.3,6.5l11.4,6.1l13.6,6.3
		l16.6,5.6l11.2,2.1l30.1-0.4l20.3-0.4l5.6-2.8L559,356.1z"/>
	<g>
		<polygon style="fill:none;stroke:#FFFFFF;stroke-width:2;stroke-miterlimit:10;" points="578.8,462.5 536.8,436.6 508.1,445
			510.2,487.7 516.5,495.4 548,491.9 		"/>
		<path style="fill:none;stroke:#FFFFFF;stroke-width:2;stroke-miterlimit:10;" d="M578.8,462.5l22.4-2.8l96.7-9.8l49-2.1l33.6,4.9
			l44.8,18.9c0,0,54.6,27.3,47.6,114.9l7,161.1l33.6,36.4l11.9,21l9.1,65.2l1.4,23.8l-9.1,9.1"/>
	</g>
	<path style="fill:#FFFFFF;" d="M1309.2,429.6L1309.2,429.6c0-1.5,1.2-2.6,2.6-2.6h1c0.4,0,0.8,0.1,1.1,0.2l2.1,1
		c0.4,0.2,0.9,0.2,1.3,0.2s2.2,9.9,2.4,11.4c0.4,2.5,2.5,8.1,2.5,8.1v8.1l-1.8,6.3l-0.7,6.3c0,0-3.9,2.8-3.5,3.9s0,4.6,0,4.6v11.6
		l-2.8,7.4v4.9c0,0,0.7,4.6,1.1,5.6c0.4,1.1,1.8,6.7,1.8,6.7l8.4,8.8c0,0,3.9,3.9,5.6,5.6c1.8,1.8,8.4,7.4,8.4,7.4l4.9,5.3l5.3,5.6
		l3.2,4.5v9.5l-3.2,17.2l-1.6,10l-1.4,10.5l-3,17l-4,12.6l-5.6,11l-5.1,14.5l-6.3,12.8l-4.9,9.1l-2.8,5.8l2.1,23.6l0.5,3.7l0.5,5.8
		l1.9,9.6l1.4,7.7l4.9,5.4l5.9,5.6l1.8,2.8l2.8,2.6l1.4,2.6l-3.5,6.3l-4.2,9.3l-11.2,14.2l-4.9,5.6l-10.1,11.9
		c0,0-10.5,7.9-10.5,9.1c0,1.2-5.4,8.9-5.4,8.9l-3.3,7.5l-3.5,10l-6.1,10.7l-11.9,29.2l-5.8,14.2l-5.4,12.6l-3.3,3.5l-7,1.4
		l-10.3,1.4l-10,3.5l-7.9,2.1l-6.8,3l-7.5,3.5l-35.7,20.1l-13.8,10.5l-9.1,6.5c0,0-8.6,4.9-9.1,5.8s-8.2,7-8.2,7l-4.4,4l-3.7,2.1
		h-8.2l-8.4-3l-5.8-1.6l-6.8-1.9l-7.4-1.9l-11-0.7l-13.1,1.2c0,0-18,3.3-26.2,6.1l-12.8-1.6l-8.6-1.4l-10-0.9l-10.3-1.4H977
		l-2.1,1.4l-2.8,7.5v7.2c0,0-0.2,4.2,0,6.8s-0.4,11-0.1,11.9s-1.1,5.6-1.3,6.3s-1.9,3.7-2.3,5.8c-0.5,2.1-1.4,6.5-1.4,7.7
		s-2.3,6.8-1.6,8.6c0.7,1.9,0.9,5.6,0.9,5.6l1.6,3.3l1.6,6.8l2.8,11.7l2.1,5.8l-0.7,7.5l-2.8,8.6l-3.3,10.5l-2.5,6.5v7.5l-1,10
		l1.4,8.4l3,7.9l4.4,14.2l2.6,4.9l4,6.1l3,5.8l1.9,3.5l1.9,5.4l1.2,4.7l0.7,9.1l2.8,34.8l-0.7,10.5l0.5,6.8l-0.9,5.1
		c0,0-2.6,4-3.3,5.4s-4.9,7.9-4.9,7.9l-4.4,5.4l-11.9,16.3l-1.2,1.8l-4,2.1l-1.8-2.1l1.8-2.8l4.3-5.1l2.8-3.5l2.8-3l3.3-3.5l3-4
		l3.3-5.8l1.9-2.1l1.6-3l1.6-6.3l-0.9-10.5l0.5-7l-1.2-8.9l-1.6-8.4l-2.1-10.8l-2.8-10.5c0,0-2.6-2.8-2.6-4.4s-3-11.7-3-11.7
		s-1.9-6.5-2.1-7.2c-0.2-0.7-2.8-7.7-2.8-7.7s-2.1-5.8-2.3-7.2c-0.2-1.4-3.6-11.7-3.6-11.7l-1.8-7.7c0,0,2.8-8.6-13.1,0.7l-10.7,4.2
		l-5.7,3l-6.8,4.2l-3.3,4.9l-7,9.3l-4.4,7.5l-7.2,11l-6.5,9.8l-9.6,10.3l-3,8.4l-1.9,7.5c0,0-3.3,5.4-3.5,6.8s-3.5,7.9-3.5,7.9
		l-3.3,5.6l-2.6,4.9l-2.8,3.7v8.9L862,1258v12.1l-2.6,6.1l-5.1,2.6l1.1-6.8l1.2-11.2l-0.9-6.8l1.2-11.7c0,0,1.2-9.8,1.4-11.2
		c0.2-1.4,3.5-12.8,3.5-12.8s2.6-2.8,3.7-5.6c1.2-2.8,3.3-8.2,3.3-8.2l4.4-5.4l2.3-6.1c0,0,4.9-4.4,5.1-5.1c0.2-0.7,3.5-5.4,4.2-6.8
		s9.3-10.7,9.3-10.7l10.3-15.4l3.3-7.7c0,0,1.4-1.4,3-4.4s3.3-4.2,4.2-5.6s2.8-5.1,4.2-5.6s7-4,7-4l14.9-8.2c0,0,6.3-5.8,7-6.3
		s6.1-3.7,6.8-4.4c0.7-0.7,5.3-11.9,5.3-11.9l2.4-17.5c0,0,2.1-17,2.1-18.2s-0.9-6.3-1.4-8.6c-0.5-2.3-3.5-13.1-5.1-15.6
		c-1.6-2.6-1.4-0.9-1.9-4c-0.5-3,1.6-15.2,1.6-16.1c0-0.9,2.3-23.1,2.3-23.1l1.2-21c0,0-1.1-6.8-1.2-7.5c-0.2-0.7-0.9-8.4-1.3-10.7
		c-0.5-2.3-2.3-9.3-2.3-9.3s-3.3-13.3-3.3-14.9s-2.1-13.1-2.1-13.1l-1.6-7l-1.6-13.1l2.1-9.3c0,0,2.8-4.2,3.5-5.1s7.7-11.7,7.7-11.7
		l6.3-5.6l10.7-6.9l4.9-3.2l8.9-5.8l5.1-4.2l3.7-1.6l2.3-2.6l1.9-1.4l4.7-0.7l7.2,0.7l6.1-0.5l7.8,0.5l3-1.2l2.1-1.6l2.1-4.2
		l2.8-0.9l7.9,2.3c0,0,4.7,1.2,5.6,1.2s5.4,0,5.4,0l5.4-0.7l5.1-3.5l5.6-4l5.1-2.8l7.7-1.4l8.2-0.5l6.5-2.6l4.7-3l3.5-5.1l4.7-10.5
		c0,0-0.7,0.2,2.3-2.1s8.4-6.1,9.1-6.5c0.7-0.5,5.4-6.3,7-8.2s7.7-7.2,7.7-7.2s1.6-4.2,3-6.3s5.6-7.2,5.6-7.2s5.6-9.3,5.6-10
		s4-8.2,4-8.2l3.3-4.7l2.6-5.8l3.7-4.9l2.1-3c0,0,2.8-2.6,5.6-2.6s22.2-2.8,22.2-2.8l16.1-3.7l8.6-3.5c0,0,8.9-4.2,9.8-4.7
		s2.3-1.9,4-2.8c1.6-0.9,6.5-3.7,6.5-3.7l9.1-0.9c0,0,5.6,1.9,7.5,1.9s7.7-0.2,7.7-0.2s1.4-1.2,2.3-2.1c0.9-0.9,3.3-4,3.3-4l5.1-0.5
		c0,0,3.7-0.5,4.4-0.5c0.7,0,9.3-2.8,9.3-2.8l3.5-1.9l8.9-12.4l9.1-17c0,0,4.2-11.9,4.4-12.8c0.2-0.9,4.9-11.4,4.9-11.4l5.4-11
		l2.8-10.3l4.2-20.1l4-10.5l2.8-13.3c0,0,2.1-8.2,2.1-9.3c0-1.2,0.7-8.2,0.7-8.9s-2.1-4.9-3-6.8c-0.9-1.9-3.5-5.8-4.2-6.8
		c-0.7-0.9-4-4.7-4-4.7l-6.3-8.2l-6.1-5.8l-7.9-8.2l-2.6-5.8l-1.2-10.5c0,0,0.7-4.7,0.9-6.3s1.2-6.8,1.2-6.8s-1.2-4-1.2-4.9
		s1.2-7.2,1.2-7.2l2.3-9.3l-0.7-6.3c0,0-0.5-4.4-0.7-6.1s-0.2-3.5-0.5-4.4c-0.2-0.9-1.6-3.5-1.6-3.5l-2.7-13.1
		C1309.3,430.4,1309.2,430,1309.2,429.6z M1309.2,681.7c0,0-0.9,0.2-2.3,1.1c-1.4,0.9-0.9,1.4-1.6,2.1s-3,3.3-3.3,3.9
		c-0.4,0.5-1.4,1.6-1.8,2.6c-0.4,1.1-2.1,2.1-2.6,3s-2.6,2.8-4.4,4.6s0,0-1.6,0.9s-4,1.9-4.7,2.8c-0.7,0.9-3.2,1.6-4.6,1.9
		c-1.4,0.4-3.5,2.1-3.5,2.1s-3.3,1.8-9.3,3s-3,0.9-3,0.9s-3.2-0.7-3.7-0.9s-5.4-1.9-5.4-1.9s-6-1.6-7.9-2.3s-3.9,0.7-6,1.6
		c-2.1,0.9-2.5,2.1-3.9,3s-6,2.6-6.8,3c-0.9,0.4-4,2.1-6.3,3s-6.8,1.8-7.5,2.1c-0.7,0.4-7,1.9-7,1.9l-9.1,2.3l-8.2,1.8l-5.4,1.6
		c0,0-9.5,1.2-11.6,1.4s-4.4,1.4-4.9,1.8c-0.5,0.4-4.4,6.1-4.7,6.8c-0.4,0.7-3.7,7.4-3.7,7.4l-2.8,7l-2.3,6.7l-3.5,7l-3.2,7.5
		c0,0-8.4,12.4-8.8,13c-0.4,0.5-5.6,8.1-5.6,8.9c0,0.9-1.8,5.8-1.8,5.8s-10.5,10-11.4,11.4s-6,2.6-7.5,3.3c-1.6,0.7-6,4.2-6,4.2
		l-9,4c0,0-5.1,3.2-5.6,3.9s-4.7,3.7-4.7,3.7s-12.1,5.8-13.5,6.8s-9.5,2.6-9.5,2.6s-10.9,0.5-13.3,0.7c-2.5,0.2-7.9,1.2-9.3,1.4
		s-11.2,1.6-11.2,1.6l-11.9,2.5l-7.4-0.9l-10.7,2.5c0,0-11.9,3-13.1,3.3c-1.2,0.4-5.1,3.2-5.1,3.2l-7.7,7.4c0,0-2.8,3.3-3.5,4.9
		s-2.1,4.2-2.1,4.2l-6.3,4.2c0,0-3.3,3.2-3.7,4.2c-0.4,1.1-3.5,7.5-3.7,8.8c-0.2,1.2-3.3,7.5-4,8.4s0,12.1,0,12.1s0.4,9.6,0.9,10.5
		s2.6,5.8,3.3,7s5.4,9.6,5.4,9.6s3.5,9.1,3.9,10.2c0.4,1.1,7.7,7.5,8.2,8.1s11.6,4.6,11.6,4.6l13.5,3.3l17.3,1.2l12.3-2.8l7.5-5.3
		l6.1-3.2c0,0,4.6-2.6,5.1-2.6s6.1,0,6.1,0s1.4,1.4,2.5,2.6c1.1,1.2,3.9,1.1,3.9,1.1l3.5-2.3l7.9-1.9l4,1.2l2.6,2.5l4.2,2.5l5.8,3.5
		l7.4,2.5l4.7,2.8l8.2,1.9h7.2l4.2-2.3l7-5.1l7.4-4.2l10.2-7.5l10.3-6.5l7.9-6.5l15.2-10.5l5.8-3.5c0,0,7.7-5.6,10-6.5
		s8.9-2.5,8.9-2.5l10.3-2.1l10-1.9l8.2-2.1l4-5.3l4.9-5.6l6.8-11.6l5.6-10c0,0,5.6-17.9,6-18.6c0.4-0.7,1.6-4,1.8-4.7
		s1.6-4.4,1.6-4.4s-7,1.9-7.5,1.9s-4,1.2-5.1,1.6c-1.1,0.4-3.5,1.2-3.5,1.2s-4,1.2-4.9,1.6c-0.9,0.4-4.2,0-4.2,0l4.4-2.3l7-2.3
		l6.1-3.2l2.8-2.5c0,0,1.4-3,1.1-3.5s0-4.2,0-4.2l3.9-7.5c0,0,5.8-7.5,6.5-8.4s6.3-4,6.3-4l8.1-7l9.5-11.6l4-3.3l5.3-7.2l10-7.2
		l4.2-8.1l1.1-5.8v-7.4c0,0-1.2-5.4-1.2-6.3c0-0.9,0-6.7,0-6.7l-2.3-7.2c0,0-1.6-13-1.8-14c-0.2-1.1-0.9-5.1-0.9-5.1v-5.8l-1.1-8.4
		l-0.9-5.4l-1.1-6l-1.4-5.3L1309.2,681.7z"/>
	<g>
		<path style="fill:#FFFFFF;" d="M837.4,717.6l25.6,21.5l2.8,2.3l1.1,9.3v4.4l-4,5.8l-2.3,6.3l-3.3,9.1v9.6c0,0,1.2,2.3,2.1,9.1
			c0.9,6.8,2.8,10,2.8,10l1.2,5.8l0.5,8.9l0.9,8.2l-3.5,5.6l-12.8,4.9h-3.6h-1.5v-3.3l-1.4-1.2c0,0-2.8,0.5-4.4,1.6
			s-9.8,5.1-9.8,5.1l-1.9,2.1l-4.9-7l-5.8-4.9l-3.5-0.9l-10.3-0.2h-2.6v-3l5.6-1.9l10.5-0.7l4-3.3l6.1-3l7.9-5.4l6.5-6.5l5.5-5.1
			l5.9-3l3.1-3.5v-2.8v-11.3l-1.2-6.7c0,0,0.6-2.3,1.2-3.5c0.6-1.2,1.6-2.1,2.5-3.7s3-7,3-7s3.3-5.8,3.3-7s0.9-4,0.9-6.3
			s-3.7-8.2-3.7-8.2l-3-1.6l-3-0.5l-4.5,0.9c0,0,0-4.7-0.5-5.4s-1.6-2.3-1.6-2.3h-2.4l-6.9-1.4c0,0,0-0.2-0.7-1.4s-1.4-4-1.4-4v-2.6
			L837.4,717.6z"/>
		<path style="fill:#FFFFFF;" d="M868.4,799.8l0.9,8.9l2.3,2.1l3-1.4l6.3-1.6l1.9-2.5l2.8-4.1c0,0-0.7-4.4,0-5.4s0-0.9,0-0.9
			l-7.2,1.6c0,0,0.3,0-1.2,0.9c-1.6,0.9-1.8,1.4-2.5,1.4S871,799,871,799L868.4,799.8z"/>
	</g>
	<circle style="fill:none;stroke:#FFFFFF;stroke-width:2;stroke-miterlimit:10;" cx="68.5" cy="107" r="7.3"/>
	<polyline style="fill:none;stroke:#FFFFFF;stroke-width:2;stroke-miterlimit:10;" points="1326.4,442.6 1327.1,453.8 1319.4,483.3
		1320.8,534.4 1292.1,635.3 1306.8,706.1 1378.9,724.3 1551.3,678.7 1591.9,650 1614.3,637.4 1636.1,612.2 1685.8,608 1816.6,556.1
		1831.1,554.3 1860.5,553.8 1894.6,562.2 1971.7,563.6 	"/>
	<path style="fill:none;stroke:#FFFFFF;stroke-width:2;stroke-miterlimit:10;" d="M1549.2,508.7c-26.4-5.2-53-9.3-79.7-13.1
		c-13.6-1.9-27.2-3.7-40.8-5.4c-11.5-1.5-28-0.4-37.8-7.2c-3.6-2.5-6.8-5.5-10.8-7.2c-7.1-3.1-14.6-1.5-21.7,0.4
		c-8,2.1-13.7,2.9-21.9,2.3c-54.6-4.5-107.5-15.1-160.8-27.4c-14.8-3.4-31.8-0.6-47.1-0.7c-17.1,0-34.1-0.4-51.2-0.9
		c-34.1-1.1-68.2-3.1-102.3-5c-94.1-5.1-222.8-19.1-307.9-59.5"/>
	<g>
		<polyline style="fill:none;stroke:#FFFFFF;stroke-width:2;stroke-miterlimit:10;" points="1305.6,705.8 1279.7,760.5
			1274.8,779.4 1253.1,809.5 1211,857.8 1191.4,879.6 1179.5,901.3 1169,937.7 1164.1,976.2 1159.9,1002.9 1152.2,1016.9
			1106.6,1055.4 		"/>
		<circle style="fill:none;stroke:#FFFFFF;stroke-width:2;stroke-miterlimit:10;" cx="1102.9" cy="1059.1" r="3.5"/>
		<circle style="fill:none;stroke:#FFFFFF;stroke-width:2;stroke-miterlimit:10;" cx="1005.3" cy="1220.8" r="3.5"/>
		<polyline style="fill:none;stroke:#FFFFFF;stroke-width:2;stroke-miterlimit:10;" points="1099.2,1062.2 1024.4,1163.5
			1007.1,1215.4 		"/>
		<polyline style="fill:none;stroke:#FFFFFF;stroke-width:2;stroke-miterlimit:10;" points="1005.3,1217.3 1000.1,1155.6
			1003.4,1117.3 1011.3,1078.5 1093.1,998.2 1141.7,955.7 1164.1,976.2 		"/>
	</g>
	<path style="fill:#E0DAD5;" d="M264.6,190.2c-2.9,7.4-9.8,13.4-14.4,19.7c-1.5,2.1-6.4,10.4-3.7,12.4c9.3,6.9,18.3,14,27.4,21.1
		c0,0,37.8,22.5,37.9,22.6c4,2.4,8.7,4,12.9,6c6.1,3,12.2,5.9,18.4,8.7c29.5,13.3,60.3,23.6,90.7,34.6c8.5,3.1,16.9,6.1,25.4,9.2
		l87,27.9l67.7,26.5c11.8,4.6,24.2,8.1,36.2,12.1c2.9,1,5.8,1.9,8.9,2.4c4.8,0.7,9.7-0.8,14.5-0.1c11.2,1.7,22.5,8.5,30.1,10.8
		c2.5-8.5,4.9-17,7.4-25.4c0.4-1.5,1.8-4.2,1.6-5.7c-0.4-3.2-8.7-3.7-11.8-4.4c-9.4-2.2-18.9-3.9-28.4-6
		c-6.6-1.4-9.9-10.1-17.2-10.1c-6,0-15.3-0.1-19.2-6.1c-0.3-0.5-0.5-1-0.7-1.6c-0.6-1.8-1.2-3.5-1.8-5.3c-2.3-6.6-7.8-6.3-13.8-8
		c-5.2-1.4-10.6-3.3-15.9-1.4c-6.4,2.3-12.8,4.5-19.3,6.6c-0.7,0.2-1.5,0.5-2.3,0.5c-2.5,0.1-5.2-1.8-7.4-2.6
		c-3.4-1.2-6.8-2.4-10.2-3.4c-9.5-2.9-19-6.1-28.3-9.5c-18.7-6.9-37.1-14.8-54.9-23.7c-8.2-4.1-16.2-8.1-24.4-12.1
		c-13.6-6.5-27.7-13.1-41.3-20c-7-3.6-14-7.2-20.8-11c-3.1-1.7-6.8-3.3-9.5-5.6s-5-5.3-7.3-8c-2.8-3.3-5.6-6.7-8.5-10
		c-0.7-0.8-1.4-1.7-1.8-2.7c-0.4-1.1-0.3-2.3-0.4-3.5c-0.3-6.2-4.5-10-8.2-14.5v-6.4c0-7.1,0.3-14.5-2.9-21.1
		c-3.3-6.7-8.6-13.4-14.8-17.6c-3.9-2.7-4,4.8-4.1,6.9c-0.2,4.9,2.6,10.9,3.8,15.7c0.8,3-9,7.2-11.3,8.5c-0.4,0.2-5.2-2.9-6.4-2.9
		c-5.1,0.1-10.7,2-15.7,3c0.6-0.1-2.5-4.5-3.2-4.8c-1.4-0.6-3-0.8-4.3-1.7c0.1-3.7,1.3-4.2,4.7-5.3c2.5-0.9,5.2-1.9,7.2-3.7
		c2.8-2.5,1.1-3.5-0.8-6c-1.9-2.4-4.8,0-7.2,0.3c-3.9,0.4-6.7-1.1-10.4-1.9c0.8-5.2,5.9-6,7.9-8.3c1.9-2.1,7.2,0.5,9.6,1.1
		c2.9,0.7,5.8,1.6,8.2,3.5c2,1.6,3.8,5.7,6.7,4.6c1.8-0.7,3.8-4.6,3.9-6.4c0-2.2,0-5-1.2-6.8c-1.3-1.8-4.5-3.3-6.4-4.4
		c-4.4-2.6-9.1-4.4-13.8-6.2c-4.2-1.5-10.7,1.8-14.9,3c-5.7,1.6-11.3,3.2-16.8,5.5c-3.7,1.6-6.4,6.5-8.9,9.5l-1.7,11.3
		c-0.5,3-0.6,6.6-1.6,9.4C264.8,189.8,264.7,190,264.6,190.2z"/>
	<polyline style="fill:none;stroke:#FFFFFF;stroke-width:2;stroke-linecap:round;stroke-miterlimit:10;" points="150.4,646
		167.2,673.6 194.8,678.7 237.3,678.3 273.3,674.5 302.7,676.9 342.4,683.9 359.7,682.9 355,663.3 350.4,644.3 	"/>

		<line style="fill:none;stroke:#FFFFFF;stroke-width:5;stroke-linecap:round;stroke-miterlimit:10;" x1="277.2" y1="638.9" x2="191.7" y2="654.7"/>

		<line style="fill:none;stroke:#FFFFFF;stroke-width:5;stroke-linecap:round;stroke-miterlimit:10;" x1="183.7" y1="646.5" x2="176.7" y2="538.5"/>
	<polyline style="fill:none;stroke:#FFFFFF;stroke-width:2;stroke-linecap:round;stroke-miterlimit:10;" points="182.3,661
		187.9,702.1 199.6,748.3 194.4,776.8 171.1,806.7 157.1,795.5 	"/>
	<g>
		<polyline style="fill:none;stroke:#FFFFFF;stroke-width:2;stroke-linecap:round;stroke-miterlimit:10;" points="355.6,666.2
			361.2,684.4 395.5,711.1 420.7,747.5 445.3,756.6 490.8,751.7 557.4,713.2 		"/>

			<circle style="fill:none;stroke:#FFFFFF;stroke-width:2;stroke-linecap:round;stroke-miterlimit:10;" cx="563.7" cy="710.7" r="6.3"/>

			<circle style="fill:none;stroke:#FFFFFF;stroke-width:2;stroke-linecap:round;stroke-miterlimit:10;" cx="522" cy="915.3" r="6.3"/>

			<circle style="fill:none;stroke:#FFFFFF;stroke-width:2;stroke-linecap:round;stroke-miterlimit:10;" cx="527.9" cy="939.6" r="6.3"/>

			<circle style="fill:none;stroke:#FFFFFF;stroke-width:2;stroke-linecap:round;stroke-miterlimit:10;" cx="535.1" cy="908.3" r="6.3"/>

			<circle style="fill:none;stroke:#FFFFFF;stroke-width:2;stroke-linecap:round;stroke-miterlimit:10;" cx="540.1" cy="930" r="6.3"/>
		<polyline style="fill:none;stroke:#FFFFFF;stroke-width:2;stroke-linecap:round;stroke-miterlimit:10;" points="560.5,704.8
			542.3,676 524.1,648 524.8,640.3 529.3,602 		"/>
		<polyline style="fill:none;stroke:#FFFFFF;stroke-width:2;stroke-linecap:round;stroke-miterlimit:10;" points="554.2,693.5
			555.3,665.2 563.7,647.3 565.4,631.9 571.8,593.1 		"/>
		<path style="fill:none;stroke:#FFFFFF;stroke-width:2;stroke-linecap:round;stroke-miterlimit:10;" d="M566.1,717l9.5,25.9
			l-2.5,25.2l-49.7,74.6c0,0-10.5,17.2-4.2,42.7l41,129.4"/>
		<path style="fill:none;stroke:#FFFFFF;stroke-width:2;stroke-linecap:round;stroke-miterlimit:10;" d="M520,887.4
			c0,0,10.7,16.8,42.3,22.4l0.9,3.7c0,0-25.5,13.1-19.6,46.7c0,0-20.3-23.8-44.6-21.3C499,939,522.3,919.1,520,887.4z"/>
	</g>
	<path style="fill:none;stroke:#FFFFFF;stroke-width:2;stroke-miterlimit:10;" d="M570.4,706.9l20.4-6.6l176.6-15.1l96.5-16.4
		l209.4-1.3l179.9,4.6l84.7,2.6l23.6,14.4l99.1-7.2l4.6-23l26.9-24.9l66.5-59.5c0,0,63.5-0.9,68.1-1.5s22.3-3.9,22.3-3.9l23-15.1
		l53.2,2c0,0,32.8,15.1,30.9,36.8l-1.3,24.3l-0.7,32.2l9.2,18.4"/>
	<polyline style="fill:none;stroke:#FFFFFF;stroke-width:2;stroke-miterlimit:10;" points="926.3,537.5 881.8,499.8 823.8,470.7
		"/>
	<path style="fill:none;stroke:#FFFFFF;stroke-width:2;stroke-miterlimit:10;" d="M922.1,537.3c0,0-42,6.7-49,44.8"/>
	<circle style="fill:none;stroke:#FFFFFF;stroke-width:5;stroke-miterlimit:10;" cx="183.7" cy="653.5" r="7"/>
	<polyline style="fill:none;stroke:#FFFFFF;stroke-width:2;stroke-miterlimit:10;" points="1974.5,553.9 1947.8,543.1 1934.3,508.1
		1924.5,488 1889.5,488 1840.4,493.2 1819.4,489.4 1795.1,461.9 1804.9,424.5 1824.5,405.8 1873.6,387.1 1903,387.1 1917.9,381.1
		1922.1,386.9 	"/>
	<polyline style="fill:none;stroke:#FFFFFF;stroke-width:2;stroke-miterlimit:10;" points="1644.7,497.8 1646.1,487 1647.5,472.1
		1652.2,468.8 1685.3,467.4 1703.1,461.8 1747.9,460.4 1826.9,459 1850.2,459.1 	"/>
	<polyline style="fill:none;stroke:#FFFFFF;stroke-width:2;stroke-miterlimit:10;" points="1648.4,471.4 1669,488.6 1677.3,497 	"/>
	<polyline style="fill:none;stroke:#FFFFFF;stroke-width:2;stroke-linecap:round;stroke-miterlimit:10;" points="1647.5,472.1
		1627.2,485.6 1560.9,487.7 1542.2,500.1 1459.4,494.3 	"/>
	<polyline style="fill:none;stroke:#FFFFFF;stroke-width:2;stroke-linecap:round;stroke-miterlimit:10;" points="2251.9,297.3
		2250.5,270.7 2228.8,247.6 2194.5,245.5 2173.4,224.5 2165,230.8 2153.1,230.1 2149.6,219.6 2137.7,220.3 2051.5,272.1
		1987.8,305.8 1942.9,323.3 1858.2,361.1 1796.2,381.8 	"/>
	<g>
		<polyline style="fill:none;stroke:#FFFFFF;stroke-width:2;stroke-linecap:round;stroke-miterlimit:10;" points="1310.3,566.4
			1236,544 1195.4,537.7 1144.2,519.4 1111.3,506.8 1066.5,505.4 1027.9,517.3 1006.9,525 		"/>
		<polyline style="fill:none;stroke:#FFFFFF;stroke-width:2;stroke-linecap:round;stroke-miterlimit:10;" points="1315.9,543.3
			1248.2,516.2 1227.1,524.1 1199.1,520.8 1193.5,538.1 		"/>
		<polyline style="fill:none;stroke:#FFFFFF;stroke-width:2;stroke-linecap:round;stroke-miterlimit:10;" points="1256.1,467.5
			1244,503.6 1248.2,516.2 		"/>

			<line style="fill:none;stroke:#FFFFFF;stroke-width:2;stroke-linecap:round;stroke-miterlimit:10;" x1="1204.7" y1="457.8" x2="1177.2" y2="531.1"/>
		<polyline style="fill:none;stroke:#FFFFFF;stroke-width:2;stroke-linecap:round;stroke-miterlimit:10;" points="1148.2,449.7
			1150.5,484.4 1159.9,511.5 1145.9,520.8 1141.7,568.8 		"/>
		<polyline style="fill:none;stroke:#FFFFFF;stroke-width:2;stroke-linecap:round;stroke-miterlimit:10;" points="995.7,445.5
			999.2,493.3 1008.5,530.6 1008.8,547.6 		"/>
	</g>
	<g>
		<g>
			<path style="fill:#E0DAD5;" d="M1563.9,423c-1.3,0-2.5-1-2.8-2.3l-7.5-45.5l-9.9-5c-1.4-0.7-1.9-2.4-1.3-3.8
				c0.7-1.4,2.4-1.9,3.8-1.3l12.5,6.2l7.9,48.4c0.3,1.5-0.8,3-2.3,3.2C1564.2,423,1564,423,1563.9,423z"/>
		</g>
		<g>
			<path style="fill:#E0DAD5;" d="M1548.5,422.3c-1.4,0-2.7-1.1-2.8-2.6l-3.5-40.6c-0.1-1.5,1-2.9,2.6-3c1.5-0.1,2.9,1,3,2.6
				l3.5,40.6c0.1,1.5-1,2.9-2.6,3C1548.6,422.3,1548.6,422.3,1548.5,422.3z"/>
		</g>
	</g>
	<polyline style="fill:none;stroke:#FFFFFF;stroke-width:2;stroke-miterlimit:10;" points="1029.9,669.2 1030.9,723.8 965.5,723.3
		937,777.5 917.8,790.1 	"/>
</g>
<g id="Map_Labels">

		<g id="NorthPoint" transform="translate(1831.070256, 181.453972) rotate(50.000000) translate(-1831.070256, -181.453972) translate(1792.570256, 137.953972)">
		<path id="Fill-933" style="fill:#8A1538;" d="M19.6,80.4L25.9,91l-10.8-5L19.6,80.4z M13.1,88.3l19.3,7.8l-11-17.5L2.1,70.8
			L13.1,88.3z M19.6,80.4L25.9,91l-10.8-5L19.6,80.4z M13.1,88.3l19.3,7.8l-11-17.5L2.1,70.8L13.1,88.3z M19.6,80.4L25.9,91l-10.8-5
			L19.6,80.4z M32.4,96.2l-11-17.5L2.1,70.8l11,17.5L32.4,96.2z M9.2,62.1C20.9,58,33.7,64,37.8,75.7s-1.9,24.5-13.5,28.6
			c-11.6,4.2-24.5-1.9-28.6-13.5C-8.5,79.2-2.4,66.3,9.2,62.1z M25.9,109.1c14.3-5.2,21.7-20.8,16.5-35.1
			c-5.1-14.3-20.7-21.5-35-16.4S-14.1,78.2-9.1,92.4C-3.9,106.8,11.8,114.1,25.9,109.1z M19.6,80.4L25.9,91l-10.8-5L19.6,80.4z
			 M13.1,88.3l19.3,7.8l-11-17.5L2.1,70.8L13.1,88.3z M19.6,80.4L25.9,91l-10.8-5L19.6,80.4z M13.1,88.3l19.3,7.8l-11-17.5L2.1,70.8
			L13.1,88.3z M19.6,80.4L25.9,91l-10.8-5L19.6,80.4z M13.1,88.3l19.3,7.8l-11-17.5L2.1,70.8L13.1,88.3z M19.6,80.4L25.9,91l-10.8-5
			L19.6,80.4z M13.1,88.3l19.3,7.8l-11-17.5L2.1,70.8L13.1,88.3z"/>
		<g id="Back-Copy-5_1_" transform="translate(34.000000, 0.000000)">

				<text transform="matrix(0.6467 -0.7628 0.7628 0.6467 -44.0133 66.4031)" style="fill:#8A1538; font-family:'ArialMT'; font-size:13.9365px;">N</text>
		</g>
	</g>
	<g>
		<path id="Rectangle-Copy-2_10_" style="fill:#FFFFFF;" d="M77.4,354.5H176c2.7,0,5,2.2,5,5v25.9c0,2.7-2.2,5-5,5H77.4
			c-2.7,0-5-2.2-5-5v-25.9C72.5,356.8,74.7,354.5,77.4,354.5z"/>

			<text transform="matrix(1 0 0 1 102.2869 369.8801)" style="fill:#8A1538; font-family:'MarselisPro-Bold'; font-size:13.9353px;">City Cent</text>

			<text transform="matrix(1 0 0 1 158.6869 369.8801)" style="fill:#8A1538; font-family:'MarselisPro-Bold'; font-size:13.9353px;">r</text>

			<text transform="matrix(1 0 0 1 163.7869 369.8801)" style="fill:#8A1538; font-family:'MarselisPro-Bold'; font-size:13.9353px;">e</text>

			<text transform="matrix(1 0 0 1 102.2869 383.8137)" style="fill:#8A1538; font-family:'MarselisPro-Light'; font-size:13.9353px;">Muscat</text>
	</g>
	<g>
		<path id="Rectangle-Copy-2_29_" style="fill:#8A1739;" d="M463.3,197h85.5c2.7,0,5,2.2,5,5v25.9c0,2.7-2.2,5-5,5h-85.5
			c-2.7,0-5-2.2-5-5V202C458.4,199.3,460.6,197,463.3,197z"/>

			<text transform="matrix(1 0 0 1 491.5305 212.4243)" style="fill:#FFFFFF; font-family:'MarselisPro-Bold'; font-size:13.9353px;">Al Mouj</text>

			<text transform="matrix(1 0 0 1 491.5305 226.3579)" style="fill:#FFFFFF; font-family:'MarselisPro-Light'; font-size:13.9353px;">Muscat</text>
		<g id="Group_12_" transform="translate(5.000000, 5.000000)">
			<path id="Path_24_" style="fill:#FFFFFF;" d="M471,202.4c-4.3,0-7.3,3-7.3,6.8v7.6h2.5c0,0,0-4.2,0-7.6c0-3.6,2.7-6.2,5.5-6.7
				c0.1,0,0.2-0.1,0.1-0.1H471z"/>
			<path id="Path_25_" style="fill:#FFFFFF;" d="M471.5,202.7c-0.3,0.1-0.7,0.2-1.1,0.6c-1.9,1.3-2.7,3.4-2.9,5.6c0,0.1,0,0.2,0,0.3
				l0,0v0.1v7.6h2.5v-7.6c0-0.5,0.2-0.9,0.6-1.1l1,1.1l1-1.1c0.3,0.2,0.6,0.7,0.6,1.1v7.6h2.5v-7.6c0-2.3-1.8-4.1-4-4.1
				c-0.6,0-1,0.1-1.5,0.3l0,0c0.5-0.6,1.3-0.9,2.2-0.9l0,0c0.2,0,0.6,0,0.8,0.1c2.2,0.3,3.9,2.3,3.9,4.4c0,0.1,0,0.2,0,0.2v7.5h2.3
				v-7.5c0-3.3-1.9-5.9-5.2-6.7c-0.1,0-0.3-0.1-0.5-0.1s-0.5-0.1-0.8-0.1C472.3,202.5,471.9,202.6,471.5,202.7z"/>
		</g>
	</g>
	<g>
		<line style="fill:none;stroke:#8A1739;stroke-miterlimit:10;" x1="117.6" y1="304.6" x2="97.7" y2="291.7"/>
		<circle style="fill:#8A1739;" cx="117.6" cy="304.6" r="4.5"/>
	</g>
	<g>
		<line style="fill:none;stroke:#8A1739;stroke-miterlimit:10;" x1="211.3" y1="234.7" x2="191.4" y2="221.8"/>
		<circle style="fill:#8A1739;" cx="211.3" cy="234.7" r="4.5"/>
	</g>
	<g>
		<text transform="matrix(1 0 0 1 166.1601 265.3723)" style="fill:#8A1538; font-family:'MarselisPro'; font-size:13.8803px;">The Marsa Plaza</text>
	</g>
	<g>
		<line style="fill:none;stroke:#8A1739;stroke-miterlimit:10;" x1="285.8" y1="228.6" x2="267.5" y2="260"/>
		<circle style="fill:#8A1739;" cx="285.8" cy="228.6" r="4.5"/>
	</g>
	<g>
		<line style="fill:none;stroke:#8A1739;stroke-miterlimit:10;" x1="367.2" y1="238.2" x2="390.2" y2="210"/>
		<circle style="fill:#8A1739;" cx="367.2" cy="238.2" r="4.5"/>
	</g>
	<g>
		<text transform="matrix(1 0 0 1 39.2995 114.2999)" style="fill:#8A1538; font-family:'MarselisPro'; font-size:13.8803px;">Oman Oil Petrol Stations</text>
	</g>
	<g>
		<line style="fill:none;stroke:#8A1739;stroke-miterlimit:10;" x1="10" y1="110.3" x2="33.7" y2="110.1"/>
		<circle style="fill:#8A1739;" cx="10" cy="110.3" r="4.5"/>
	</g>
	<text transform="matrix(1 0 0 1 45.5525 287.7453)" style="fill:#8A1739; font-family:'MarselisPro'; font-size:13.94px;">Markaz Al Bahja</text>
	<text transform="matrix(1 0 0 1 394.8999 261.886)" style="fill:#8A1739; font-family:'MarselisPro'; font-size:13.94px;">Dog Park</text>
	<g>
		<g>
			<circle style="fill:#8A1538;" cx="136.6" cy="623.8" r="4.7"/>
		</g>
		<line style="fill:none;stroke:#8A1739;stroke-miterlimit:10;" x1="136.6" y1="619.3" x2="136.6" y2="674.2"/>
	</g>
	<g>
		<g>
			<ellipse style="fill:#8A1538;" cx="282.9" cy="174.7" rx="4.7" ry="4.7"/>
		</g>
		<line style="fill:none;stroke:#8A1739;stroke-miterlimit:10;" x1="287.5" y1="174.6" x2="232.6" y2="174.5"/>
	</g>
	<g>
		<g>
			<ellipse style="fill:#8A1538;" cx="367.4" cy="267.4" rx="4.7" ry="4.7"/>
		</g>
		<line style="fill:none;stroke:#8A1739;stroke-miterlimit:10;" x1="371.1" y1="265.4" x2="390.2" y2="258.4"/>
	</g>
	<g>
		<g>
			<text transform="matrix(1 0 0 1 -228.7119 159.2001)" style="fill:#8A1538; font-family:'MarselisPro'; font-size:13.8803px;">Mosque</text>
		</g>
	</g>
	<g>
		<g>
			<ellipse style="fill:#8A1538;" cx="-204.6" cy="220.2" rx="4.7" ry="4.7"/>
		</g>
		<line style="fill:none;stroke:#8A1739;stroke-miterlimit:10;" x1="-204.6" y1="224.6" x2="-204.5" y2="169.8"/>
	</g>
	<g id="Group_1_" transform="translate(5.000000, 5.000000)">
		<path id="Path_2_" style="fill:#8A1538;" d="M81.7,360.1c-4.3,0-7.3,3-7.3,6.8v7.6h2.5c0,0,0-4.2,0-7.6c0-3.6,2.7-6.2,5.5-6.7
			c0.1,0,0.2-0.1,0.1-0.1L81.7,360.1L81.7,360.1z"/>
		<path id="Path_1_" style="fill:#8A1538;" d="M82.2,360.4c-0.3,0.1-0.7,0.2-1.1,0.6c-1.9,1.3-2.7,3.4-2.9,5.6c0,0.1,0,0.2,0,0.3
			l0,0v0.1v7.6h2.5V367c0-0.5,0.2-0.9,0.6-1.1l1,1.1l1-1.1c0.3,0.2,0.6,0.7,0.6,1.1v7.6h2.5V367c0-2.3-1.8-4.1-4-4.1
			c-0.6,0-1,0.1-1.5,0.3l0,0c0.5-0.6,1.3-0.9,2.2-0.9l0,0c0.2,0,0.6,0,0.8,0.1c2.2,0.3,3.9,2.3,3.9,4.4c0,0.1,0,0.2,0,0.2v7.5H90
			V367c0-3.3-1.9-5.9-5.2-6.7c-0.1,0-0.3-0.1-0.5-0.1s-0.5-0.1-0.8-0.1C83,360.2,82.6,360.3,82.2,360.4z"/>
	</g>
	<g>
		<path style="fill:#E0DAD5;" d="M1263.7,434.8c-0.9-0.1-1.5-0.8-1.5-1.7l0.2-24.9c0-0.9,0.7-1.7,1.7-1.8c0.9,0,1.7,0.8,1.7,1.8
			l-0.2,24.9c0,0.9-0.7,1.7-1.7,1.8C1263.8,434.8,1263.7,434.8,1263.7,434.8z"/>
	</g>
	<g>
		<path style="fill:#E0DAD5;" d="M1148.7,426.5c-0.9-0.1-1.5-0.6-1.5-1.1l-0.7-15.3c0-0.6,0.7-1,1.6-1s1.7,0.5,1.7,1.1l0.7,15.3
			c0,0.6-0.7,1-1.6,1C1148.8,426.5,1148.7,426.5,1148.7,426.5z"/>
	</g>
	<g>
		<line style="fill:none;stroke:#8A1739;stroke-miterlimit:10;" x1="1254.6" y1="428.9" x2="1254.6" y2="374"/>
		<circle style="fill:#8A1739;" cx="1254.6" cy="428.9" r="4.5"/>
	</g>
	<text transform="matrix(1 0 0 1 1218.0625 370.8027)" style="fill:#8A1739; font-family:'MarselisPro'; font-size:13.94px;">Azaiba Beach</text>
	<g>
		<line style="fill:none;stroke:#8A1739;stroke-miterlimit:10;" x1="884.4" y1="420.7" x2="884.4" y2="365.8"/>
		<circle style="fill:#8A1739;" cx="884.4" cy="420.7" r="4.5"/>
	</g>
	<text transform="matrix(1 0 0 1 841.8865 362.6496)" style="fill:#8A1739; font-family:'MarselisPro'; font-size:13.94px;">Al Shafaq Club</text>
	<line style="fill:none;stroke:#8A1739;stroke-miterlimit:10;" x1="714.9" y1="615.1" x2="714.9" y2="669.9"/>
	<g>
		<g>
			<text transform="matrix(1 0 0 1 660.5331 693.5402)" style="fill:#8A1538; font-family:'MarselisPro'; font-size:13.8803px;">Oman International</text>
			<text transform="matrix(1 0 0 1 660.5331 710.9404)" style="fill:#8A1538; font-family:'MarselisPro'; font-size:13.8803px;">Exhibition Centre</text>
		</g>
	</g>
	<g>
		<line style="fill:none;stroke:#8A1739;stroke-miterlimit:10;" x1="477.9" y1="460.8" x2="516.7" y2="460.8"/>
	</g>
	<line style="fill:none;stroke:#8A1739;stroke-miterlimit:10;" x1="646.5" y1="773.9" x2="646.5" y2="828.8"/>
	<g>
		<g>
			<text transform="matrix(1 0 0 1 609.9 849.4998)" style="fill:#8A1538; font-family:'MarselisPro'; font-size:13.8803px;">Muscat Hills</text>
			<text transform="matrix(1 0 0 1 609.9 866.8999)" style="fill:#8A1538; font-family:'MarselisPro'; font-size:13.8803px;">Golf &amp; Country Club</text>
		</g>
	</g>
	<g>
		<line style="fill:none;stroke:#8A1739;stroke-miterlimit:10;" x1="331" y1="212" x2="289.4" y2="279.4"/>
	</g>
	<line style="fill:none;stroke:#8A1739;stroke-miterlimit:10;" x1="1305.2" y1="878.7" x2="1305.2" y2="933.5"/>
	<g>
		<g>
			<text transform="matrix(1 0 0 1 103.5889 691.1249)" style="fill:#8A1538; font-family:'MarselisPro'; font-size:13.8803px;">As Sahwah</text>
			<text transform="matrix(1 0 0 1 103.5889 708.5248)" style="fill:#8A1538; font-family:'MarselisPro'; font-size:13.8803px;">Public Garden</text>
		</g>
	</g>
	<g>
		<g>
			<text transform="matrix(1 0 0 1 1277.314 951.5002)" style="fill:#8A1538; font-family:'MarselisPro'; font-size:13.8803px;">Ghala Valley</text>
			<text transform="matrix(1 0 0 1 1277.314 968.9001)" style="fill:#8A1538; font-family:'MarselisPro'; font-size:13.8803px;">Golf Club</text>
		</g>
	</g>
	<g>
		<text transform="matrix(1 0 0 1 249.5806 110.2659)" style="fill:#8A1538; font-family:'MarselisPro'; font-size:13.8803px;"> Al Mouj Marina</text>
	</g>
	<g>
		<text transform="matrix(1 0 0 1 97.0002 162.8002)" style="fill:#8A1538; font-family:'MarselisPro'; font-size:13.8803px;">Horizon Kids</text>
		<text transform="matrix(1 0 0 1 97.0002 179.5002)" style="fill:#8A1538; font-family:'MarselisPro'; font-size:13.8803px;">International Nursery</text>
	</g>
	<g>
		<line style="fill:none;stroke:#8A1739;stroke-miterlimit:10;" x1="677.6" y1="375.1" x2="677.6" y2="285.1"/>
	</g>
	<g>
		<line style="fill:none;stroke:#8A1739;stroke-miterlimit:10;" x1="505" y1="321.3" x2="505" y2="231.3"/>
	</g>
	<g>
		<text transform="matrix(1 0 0 1 307.6177 141.7646)" style="fill:#8A1538; font-family:'MarselisPro'; font-size:13.8803px;">The Walk</text>
	</g>
	<g>
		<text transform="matrix(1 0 0 1 394.8998 161.9541)" style="fill:#8A1538; font-family:'MarselisPro'; font-size:13.8803px;">Kempinski Hotel </text>
	</g>
	<g>
		<g>
			<text transform="matrix(1 0 0 1 380.0506 190.5501)" style="fill:#8A1538; font-family:'MarselisPro'; font-size:13.8803px;">Al Mouj Muscat</text>
			<text transform="matrix(1 0 0 1 380.0506 207.2501)" style="fill:#8A1538; font-family:'MarselisPro'; font-size:13.8803px;">Beach Park</text>
		</g>
	</g>
	<g>
		<text transform="matrix(1 0 0 1 213.6798 293.65)" style="fill:#8A1538; font-family:'MarselisPro'; font-size:13.8803px;">Mysk by Shaza Al Mouj Hotel</text>
	</g>
	<g>
		<text transform="matrix(1 0 0 1 50.3002 225.2998)" style="fill:#8A1538; font-family:'MarselisPro'; font-size:13.8803px;">Al Maha Petrol Station</text>
	</g>
	<g>
		<text transform="matrix(1 0 0 1 525.3525 465.9875)" style="fill:#8A1538; font-family:'MarselisPro'; font-size:13.8803px;">Muscat International Airport</text>
	</g>
	<g>
		<text transform="matrix(1 0 0 1 617.8008 279.979)" style="fill:#8A1538; font-family:'MarselisPro'; font-size:13.8803px;">Al Mouj Golf</text>
	</g>
	<g>
		<line style="fill:none;stroke:#8A1739;stroke-miterlimit:10;" x1="126.4" y1="477.9" x2="126.4" y2="387.9"/>
	</g>
	<g>
		<g>

				<line style="fill:none;stroke:#8A1538;stroke-width:1.2756;stroke-miterlimit:10;" x1="297.9" y1="118.4" x2="297.9" y2="182.9"/>
			<g>
				<circle style="fill:#8A1538;" cx="297.9" cy="182.7" r="4.7"/>
			</g>
		</g>
	</g>
	<g>
		<g>

				<line style="fill:none;stroke:#8A1538;stroke-width:1.2756;stroke-miterlimit:10;" x1="329.8" y1="147.5" x2="308.8" y2="208.5"/>
			<g>
				<circle style="fill:#8A1538;" cx="308.9" cy="208.2" r="4.7"/>
			</g>
			<g>
				<circle style="fill:#8A1538;" cx="330.7" cy="212" r="4.7"/>
			</g>
		</g>
	</g>
	<line style="fill:none;stroke:#8A1538;stroke-width:1.2756;stroke-miterlimit:10;" x1="391.3" y1="159.2" x2="353" y2="211.1"/>
	<g>
		<circle style="fill:#8A1538;" cx="353.2" cy="210.8" r="4.7"/>
	</g>
	<g>
		<circle style="fill:#8A1538;" cx="505" cy="316.5" r="4.7"/>
	</g>
	<g>
		<circle style="fill:#8A1538;" cx="480.8" cy="460.8" r="4.7"/>
	</g>
	<g>
		<circle style="fill:#8A1538;" cx="714.9" cy="617.2" r="4.7"/>
	</g>
	<g>
		<circle style="fill:#8A1538;" cx="646.5" cy="777.4" r="4.7"/>
	</g>
	<g>
		<circle style="fill:#8A1538;" cx="1305.2" cy="883.5" r="4.7"/>
	</g>
	<g>
		<ellipse style="fill:#8A1538;" cx="126.4" cy="475.2" rx="4.7" ry="4.7"/>
	</g>
	<g>
		<circle style="fill:#8A1538;" cx="677.6" cy="372.4" r="4.7"/>
	</g>

		<text transform="matrix(0.9935 0.1137 -0.1137 0.9935 809.6657 442.903)" style="fill:#3C3C3D; font-family:'MarselisPro-Bold'; font-size:9.95px;">18th November St.</text>
	<g>

			<text transform="matrix(0.9796 -0.2011 0.2011 0.9796 800.0901 867.6177)" style="fill:#8A1538; font-family:'MarselisPro'; font-size:13.8803px;">Muscat Expressway</text>
	</g>

		<text transform="matrix(0.855 -0.5186 0.5186 0.855 1742.6936 699.825)" style="fill:#3C3C3D; font-family:'MarselisPro-Bold'; font-size:9.95px;">Muscat Expressway</text>
	<text transform="matrix(1 0 0 1 865.5923 553.5471)" style="fill:#3C3C3D; font-family:'MarselisPro-Bold'; font-size:9.95px;">Sultan Qaboos St.</text>

		<text transform="matrix(0.9582 -0.286 0.286 0.9582 390.2405 660.4039)" style="fill:#3C3C3D; font-family:'MarselisPro-Bold'; font-size:9.95px;">Sultan Qaboos St.</text>

		<text transform="matrix(0.9995 -3.028755e-02 3.028755e-02 0.9995 1661.631 513.8096)" style="fill:#3C3C3D; font-family:'MarselisPro-Bold'; font-size:9.948px;">Sultan Qaboos St.</text>
	<text transform="matrix(1 0 0 1 103.5889 1038.3713)" style="fill:#3C3C3D; font-family:'MarselisPro-Bold'; font-size:9.95px;">Muscat Expressway</text>
	<g>
		<path style="fill:#676767;" d="M422.3,479.8l-3.1-0.6l-1.4,1.3l3.9,2.5l2,4.1l1.4-1.3l-0.3-3.1l5.1-4.6l4.4,9.6l1.9-1.7l-2.2-11.7
			l5.1-4.6c0.8-0.7,0.8-2,0.2-2.6c-0.7-0.8-2-0.8-2.6-0.2l-5.1,4.6l-11.4-3.2l-1.9,1.7l9,5.3L422.3,479.8z"/>
		<path style="fill:#676767;" d="M412.8,490.8c8.6,9.5,23.3,10.4,32.8,1.8c9.6-8.6,10.4-23.3,1.8-32.8c-8.6-9.6-23.3-10.4-32.8-1.8
			C405.1,466.6,404.2,481.3,412.8,490.8z M445.8,461.3c7.7,8.6,7,21.9-1.6,29.6s-21.9,7-29.6-1.6s-7-21.9,1.6-29.7
			C424.7,452,437.9,452.6,445.8,461.3z"/>
	</g>
	<g>
		<line style="fill:none;stroke:#8A1739;stroke-miterlimit:10;" x1="-429.2" y1="-722.7" x2="-428.9" y2="-777.2"/>
		<circle style="fill:#8A1739;stroke:#FFFFFF;stroke-miterlimit:10;" cx="-429.2" cy="-722.6" r="7.4"/>
	</g>
	<g>
		<text transform="matrix(1 0 0 1 -518.1686 -781.301)" style="fill:#8A1739; font-family:'MarselisPro'; font-size:22.8457px;">Dimaniyat Islands</text>
	</g>
</g>
</svg>
