<?xml version="1.0" encoding="utf-8"?>
<!-- Generator: Adobe Illustrator 22.0.1, SVG Export Plug-In . SVG Version: 6.00 Build 0)  -->
<svg version="1.1" id="app_x5F_Sharjah-road--parent"
	 xmlns="http://www.w3.org/2000/svg" xmlns:xlink="http://www.w3.org/1999/xlink" x="0px" y="0px" width="1920px" height="1080px"
	 viewBox="0 0 1920 1080" style="enable-background:new 0 0 1920 1080;" xml:space="preserve">
<g id="Map_labels">

		<text transform="matrix(0.1045 0.9945 -0.9945 0.1045 1333.6447 477.8496)" style="fill:#3C3C3D; font-family:'MarselisPro-Bold'; font-size:9.9143px;">Al Dhaid Road</text>
	<text transform="matrix(0 1 -1 0 831 785.2434)" style="fill:#3C3C3D; font-family:'MarselisPro-Bold'; font-size:9.9145px;">Uni</text>
	<text transform="matrix(0 1 -1 0 831 800.9153)" style="fill:#3C3C3D; font-family:'MarselisPro-Bold'; font-size:9.9145px;">v</text>
	<text transform="matrix(0 1 -1 0 831 805.6536)" style="fill:#3C3C3D; font-family:'MarselisPro-Bold'; font-size:9.9145px;">ersity City Road</text>
	<text transform="matrix(1 0 0 1 941.2217 184.4231)" style="fill:#8A1538; font-family:'MarselisPro'; font-size:13.8803px;">T</text>
	<text transform="matrix(1 0 0 1 947.417 184.4231)" style="fill:#8A1538; font-family:'MarselisPro'; font-size:13.8803px;">ar</text>
	<text transform="matrix(1 0 0 1 959.8096 184.4231)" style="fill:#8A1538; font-family:'MarselisPro'; font-size:13.8803px;">f</text>
	<text transform="matrix(1 0 0 1 964.5479 184.4231)" style="fill:#8A1538; font-family:'MarselisPro'; font-size:13.8803px;">aa Park</text>
	<text transform="matrix(1 0 0 1 539.7686 391.636)" style="fill:#8A1538; font-family:'MarselisPro'; font-size:13.8803px;">Al Thiqah Club </text>
	<text transform="matrix(1 0 0 1 631.249 391.636)" style="fill:#8A1538; font-family:'MarselisPro'; font-size:13.8803px;">f</text>
	<text transform="matrix(1 0 0 1 635.6221 391.636)" style="fill:#8A1538; font-family:'MarselisPro'; font-size:13.8803px;">or Handicapped</text>
	<text transform="matrix(1 0 0 1 571.7295 508.6282)" style="fill:#8A1538; font-family:'MarselisPro'; font-size:13.8803px;">Sharjah Blood </text>
	<text transform="matrix(1 0 0 1 661.0225 508.6282)" style="fill:#8A1538; font-family:'MarselisPro'; font-size:13.8803px;">T</text>
	<text transform="matrix(1 0 0 1 667.583 508.6282)" style="fill:#8A1538; font-family:'MarselisPro'; font-size:13.8803px;">r</text>
	<text transform="matrix(1 0 0 1 672.3213 508.6282)" style="fill:#8A1538; font-family:'MarselisPro'; font-size:13.8803px;">ansfusion </text>
	<text transform="matrix(1 0 0 1 571.7295 522.509)" style="fill:#8A1538; font-family:'MarselisPro'; font-size:13.8803px;">and Resea</text>
	<text transform="matrix(1 0 0 1 635.5107 522.509)" style="fill:#8A1538; font-family:'MarselisPro'; font-size:13.8803px;">r</text>
	<text transform="matrix(1 0 0 1 640.2471 522.509)" style="fill:#8A1538; font-family:'MarselisPro'; font-size:13.8803px;">ch Cent</text>
	<text transform="matrix(1 0 0 1 685.4424 522.509)" style="fill:#8A1538; font-family:'MarselisPro'; font-size:13.8803px;">r</text>
	<text transform="matrix(1 0 0 1 690.1807 522.509)" style="fill:#8A1538; font-family:'MarselisPro'; font-size:13.8803px;">e</text>
	<text transform="matrix(1 0 0 1 639.5811 614.3645)" style="fill:#8A1538; font-family:'MarselisPro'; font-size:13.8803px;">ADNOC Station</text>
	<text transform="matrix(1 0 0 1 633.6943 711.0637)" style="fill:#8A1538; font-family:'MarselisPro'; font-size:13.8803px;">F</text>
	<text transform="matrix(1 0 0 1 640.6201 711.0637)" style="fill:#8A1538; font-family:'MarselisPro'; font-size:13.8803px;">amilies Market</text>
	<text transform="matrix(1 0 0 1 630.8916 749.554)" style="fill:#8A1538; font-family:'MarselisPro'; font-size:13.8803px;">Al </text>
	<text transform="matrix(1 0 0 1 646.9287 749.554)" style="fill:#8A1538; font-family:'MarselisPro'; font-size:13.8803px;">F</text>
	<text transform="matrix(1 0 0 1 653.4893 749.554)" style="fill:#8A1538; font-family:'MarselisPro'; font-size:13.8803px;">alah Mosque</text>
	<text transform="matrix(1 0 0 1 606.1689 840.7668)" style="fill:#8A1538; font-family:'MarselisPro'; font-size:13.8803px;">Mu</text>
	<text transform="matrix(1 0 0 1 625.8486 840.7668)" style="fill:#8A1538; font-family:'MarselisPro'; font-size:13.8803px;">w</text>
	<text transform="matrix(1 0 0 1 636.4189 840.7668)" style="fill:#8A1538; font-family:'MarselisPro'; font-size:13.8803px;">eilah Hypermarket</text>
	<text transform="matrix(1 0 0 1 1465.1494 704.9368)" style="fill:#8A1538; font-family:'MarselisPro'; font-size:13.8803px;">Sharjah International Airport</text>
	<text transform="matrix(1 0 0 1 136.8272 309.8665)" style="fill:#8A1538; font-family:'MarselisPro'; font-size:13.8803px;">F</text>
	<text transform="matrix(1 0 0 1 143.751 309.8665)" style="fill:#8A1538; font-family:'MarselisPro'; font-size:13.8803px;">r</text>
	<text transform="matrix(1 0 0 1 148.4893 309.8665)" style="fill:#8A1538; font-family:'MarselisPro'; font-size:13.8803px;">om Dubai and Abu Dhabi</text>
	<text transform="matrix(1 0 0 1 136.8272 587.9465)" style="fill:#8A1538; font-family:'MarselisPro'; font-size:13.8803px;">10 minutes to Mi</text>
	<text transform="matrix(1 0 0 1 238.5127 587.9465)" style="fill:#8A1538; font-family:'MarselisPro'; font-size:13.8803px;">r</text>
	<text transform="matrix(1 0 0 1 243.6143 587.9465)" style="fill:#8A1538; font-family:'MarselisPro'; font-size:13.8803px;">dif City Cent</text>
	<text transform="matrix(1 0 0 1 317.2373 587.9465)" style="fill:#8A1538; font-family:'MarselisPro'; font-size:13.8803px;">r</text>
	<text transform="matrix(1 0 0 1 321.9737 587.9465)" style="fill:#8A1538; font-family:'MarselisPro'; font-size:13.8803px;">e</text>
	<text transform="matrix(1 0 0 1 521.6611 953.343)" style="fill:#8A1538; font-family:'MarselisPro'; font-size:13.8803px;">Uni</text>
	<text transform="matrix(1 0 0 1 542.7998 953.343)" style="fill:#8A1538; font-family:'MarselisPro'; font-size:13.8803px;">v</text>
	<text transform="matrix(1 0 0 1 549.3604 953.343)" style="fill:#8A1538; font-family:'MarselisPro'; font-size:13.8803px;">ersity </text>
	<text transform="matrix(1 0 0 1 587.2646 953.343)" style="fill:#8A1538; font-family:'MarselisPro'; font-size:13.8803px;">o</text>
	<text transform="matrix(1 0 0 1 594.5537 953.343)" style="fill:#8A1538; font-family:'MarselisPro'; font-size:13.8803px;">f Sharjah</text>
	<text transform="matrix(1 0 0 1 1165.7979 937.4055)" style="fill:#8A1538; font-family:'MarselisPro'; font-size:13.8803px;">American Uni</text>
	<text transform="matrix(1 0 0 1 1248.5322 937.4055)" style="fill:#8A1538; font-family:'MarselisPro'; font-size:13.8803px;">v</text>
	<text transform="matrix(1 0 0 1 1255.0928 937.4055)" style="fill:#8A1538; font-family:'MarselisPro'; font-size:13.8803px;">ersity </text>
	<text transform="matrix(1 0 0 1 1292.9971 937.4055)" style="fill:#8A1538; font-family:'MarselisPro'; font-size:13.8803px;">o</text>
	<text transform="matrix(1 0 0 1 1300.2861 937.4055)" style="fill:#8A1538; font-family:'MarselisPro'; font-size:13.8803px;">f Sharjah</text>
	<text transform="matrix(1 0 0 1 1209.7217 953.3411)" style="fill:#8A1538; font-family:'MarselisPro'; font-size:13.8803px;">&amp; Uni</text>
	<text transform="matrix(1 0 0 1 1243.9814 953.3411)" style="fill:#8A1538; font-family:'MarselisPro'; font-size:13.8803px;">v</text>
	<text transform="matrix(1 0 0 1 1250.9053 953.3411)" style="fill:#8A1538; font-family:'MarselisPro'; font-size:13.8803px;">ersity City</text>
	<text transform="matrix(1 0 0 1 1086.6631 158.8352)" style="fill:#8A1538; font-family:'MarselisPro'; font-size:13.8803px;">Al Re</text>
	<text transform="matrix(1 0 0 1 1118.3721 158.8352)" style="fill:#8A1538; font-family:'MarselisPro'; font-size:13.8803px;">f</text>
	<text transform="matrix(1 0 0 1 1122.7451 158.8352)" style="fill:#8A1538; font-family:'MarselisPro'; font-size:13.8803px;">aa Park</text>
	<text transform="matrix(1 0 0 1 136.8272 551.261)" style="fill:#8A1538; font-family:'MarselisPro'; font-size:13.8803px;">20 minutes to Dubai International Airport</text>
	<polygon id="Path-7" style="fill:#B4985A;fill-opacity:0.75;" points="833.1,356.6 834.9,615.4 1100.9,615.4 1096.2,445.6
		1002.5,445.6 1000.7,357.7 	"/>
	<text transform="matrix(1 0 0 1 857.1416 667.0168)" style="fill:#8A1538; font-family:'MarselisPro'; font-size:13.8803px;">Al Zahia Sales Cent</text>
	<text transform="matrix(1 0 0 1 974.499 667.0168)" style="fill:#8A1538; font-family:'MarselisPro'; font-size:13.8803px;">r</text>
	<text transform="matrix(1 0 0 1 979.6025 667.0168)" style="fill:#8A1538; font-family:'MarselisPro'; font-size:13.8803px;">e</text>
	<g>
		<g>

				<line style="fill:none;stroke:#8A1538;stroke-width:1.2756;stroke-miterlimit:10;" x1="736.1" y1="745.9" x2="772.9" y2="745.9"/>
			<g>
				<path style="fill:#8A1538;" d="M772.9,750.6c2.6,0,4.7-2.2,4.7-4.7c0-2.6-2.2-4.7-4.7-4.7c-2.6,0-4.7,2.2-4.7,4.7
					C768.2,748.4,770,750.6,772.9,750.6z"/>
			</g>
		</g>
	</g>
	<g>
		<g>

				<line style="fill:none;stroke:#8A1538;stroke-width:1.2756;stroke-miterlimit:10;" x1="678.5" y1="828.3" x2="678.5" y2="791.5"/>
			<g>
				<circle style="fill:#8A1538;" cx="678.5" cy="791.8" r="4.7"/>
			</g>
		</g>
	</g>
	<g>
		<g>

				<line style="fill:none;stroke:#8A1538;stroke-width:1.2756;stroke-miterlimit:10;" x1="736.1" y1="707.6" x2="796.2" y2="707.6"/>
			<g>
				<circle style="fill:#8A1538;" cx="796.2" cy="707.6" r="4.7"/>
			</g>
		</g>
	</g>
	<g>
		<g>

				<line style="fill:none;stroke:#8A1538;stroke-width:1.2756;stroke-miterlimit:10;" x1="736.1" y1="610.7" x2="808.6" y2="610.7"/>
			<g>
				<circle style="fill:#8A1538;" cx="808.6" cy="610.7" r="4.7"/>
			</g>
		</g>
	</g>
	<g>
		<g>

				<line style="fill:none;stroke:#8A1538;stroke-width:1.2756;stroke-miterlimit:10;" x1="736.1" y1="505.7" x2="808.6" y2="505.7"/>
			<g>
				<circle style="fill:#8A1538;" cx="808.6" cy="505.7" r="4.7"/>
			</g>
		</g>
	</g>
	<g>
		<g>

				<line style="fill:none;stroke:#8A1538;stroke-width:1.2756;stroke-miterlimit:10;" x1="1122.1" y1="513.7" x2="1037.5" y2="513.7"/>
			<g>
				<circle style="fill:#8A1538;" cx="1037.5" cy="513.7" r="4.7"/>
			</g>
		</g>
	</g>
	<g>
		<g>

				<line style="fill:none;stroke:#8A1538;stroke-width:1.2756;stroke-miterlimit:10;" x1="736.1" y1="388.7" x2="800.6" y2="388.7"/>
			<g>
				<circle style="fill:#8A1538;" cx="800.3" cy="388.7" r="4.7"/>
			</g>
		</g>
	</g>
	<g>
		<g>
			<line style="fill:none;stroke:#8A1538;stroke-width:1.2756;stroke-miterlimit:10;" x1="922" y1="650" x2="922" y2="585.5"/>
			<g>
				<circle style="fill:#8A1538;" cx="922" cy="585.9" r="4.7"/>
			</g>
		</g>
	</g>
	<g>
		<g>

				<line style="fill:none;stroke:#8A1538;stroke-width:1.2756;stroke-miterlimit:10;" x1="1553.6" y1="710.9" x2="1553.6" y2="749.5"/>
			<g>
				<circle style="fill:#8A1538;" cx="1553.6" cy="749.2" r="4.7"/>
			</g>
		</g>
	</g>
	<g>
		<g>

				<line style="fill:none;stroke:#8A1538;stroke-width:1.2756;stroke-miterlimit:10;" x1="1260.2" y1="960.2" x2="1260.2" y2="1014.1"/>
			<g>
				<path style="fill:#8A1538;" d="M1255.5,1013.8c0,2.6,2.2,4.7,4.7,4.7c2.6,0,4.7-2.2,4.7-4.7c0-2.6-2.2-4.7-4.7-4.7
					C1257.7,1009,1255.5,1011.2,1255.5,1013.8z"/>
			</g>
		</g>
	</g>
	<g>
		<g>

				<line style="fill:none;stroke:#8A1538;stroke-width:1.2756;stroke-miterlimit:10;" x1="587.4" y1="960.2" x2="587.4" y2="1014.1"/>
			<g>
				<circle style="fill:#8A1538;" cx="587.4" cy="1013.8" r="4.7"/>
			</g>
		</g>
	</g>
	<g>
		<g>
			<line style="fill:none;stroke:#8A1538;stroke-width:1.2756;stroke-miterlimit:10;" x1="129.6" y1="584.4" x2="95.4" y2="584.4"/>
			<g>
				<polygon style="fill:#8A1538;" points="97.2,578.2 85.9,584.4 97.2,590.6 				"/>
			</g>
		</g>
	</g>
	<g>
		<g>
			<line style="fill:none;stroke:#8A1538;stroke-width:1.2756;stroke-miterlimit:10;" x1="129.6" y1="546.5" x2="95.4" y2="546.5"/>
			<g>
				<polygon style="fill:#8A1538;" points="97.2,540.3 85.9,546.5 97.2,553.1 				"/>
			</g>
		</g>
	</g>
	<g>
		<g>
			<line style="fill:none;stroke:#8A1538;stroke-width:1.2756;stroke-miterlimit:10;" x1="85.9" y1="307.4" x2="120.5" y2="307.4"/>
			<g>
				<polygon style="fill:#8A1538;" points="118.7,314 129.6,307.4 118.7,301.2 				"/>
			</g>
		</g>
	</g>
	<g>
		<g>

				<line style="fill:none;stroke:#8A1538;stroke-width:1.2756;stroke-miterlimit:10;" x1="876.8" y1="320.6" x2="876.8" y2="387.3"/>
			<g>
				<path style="fill:#8A1538;" d="M872.1,386.9c0,2.6,2.2,4.7,4.7,4.7s4.7-2.2,4.7-4.7s-2.2-4.7-4.7-4.7
					C874.2,382.2,872.1,384.3,872.1,386.9z"/>
			</g>
		</g>
	</g>
	<g>
		<g>

				<line style="fill:none;stroke:#8A1538;stroke-width:1.2756;stroke-miterlimit:10;" x1="975.9" y1="188.3" x2="975.9" y2="234.6"/>
			<g>
				<circle style="fill:#8A1538;" cx="975.9" cy="234.2" r="4.7"/>
			</g>
		</g>
	</g>
	<g>
		<g>

				<line style="fill:none;stroke:#8A1538;stroke-width:1.2756;stroke-miterlimit:10;" x1="1127.9" y1="164.6" x2="1127.9" y2="199.2"/>
			<g>
				<circle style="fill:#8A1538;" cx="1127.9" cy="198.8" r="4.7"/>
			</g>
		</g>
	</g>
	<text transform="matrix(1 0 0 1 972.5947 355.5461)" style="fill:#3C3C3D; font-family:'MarselisPro-Bold'; font-size:9.9145px;">Sheikh Mohammed Bin Zayed Road</text>
	<g>
		<path id="Rectangle-Copy-2_1_" style="fill:#FFFFFF;" d="M1126.4,495.1h98.4c2.7,0,5,2.2,5,5v25.8c0,2.7-2.2,5-5,5h-98.4
			c-2.7,0-5-2.2-5-5v-25.8C1121.5,497.4,1123.7,495.1,1126.4,495.1z"/>

			<text transform="matrix(1 0 0 1 1151.2979 510.5612)" style="fill:#8A1538; font-family:'MarselisPro-Bold'; font-size:13.9058px;">Al Zahia</text>

			<text transform="matrix(1 0 0 1 1151.2979 524.4666)" style="fill:#8A1538; font-family:'MarselisPro-Light'; font-size:13.9058px;">Sharjah</text>
		<g>
			<path id="Path_4_" style="fill:#8A1538;" d="M1136.5,506c-4.7,0-8.1,2.9-8.1,6.6v7.3h2.7c0,0,0-4.1,0-7.3c0-3.5,3-6,6-6.5
				c0.1,0,0.2,0,0.1,0L1136.5,506L1136.5,506z"/>
			<path id="Path_3_" style="fill:#8A1538;" d="M1137.1,506.3c-0.2,0.1-0.6,0.2-1,0.5c-1.7,1.1-2.6,3.4-2.6,5.3c0,0.1,0,0.2,0,0.4
				l0,0v0.1v7.3h2.2v-7.3c0-0.5,0.2-0.9,0.5-1.1l0.9,1.1l0.9-1.1c0.4,0.2,0.5,0.7,0.5,1.1v7.3h2.2v-7.3c0-2.1-1.6-4-3.7-4
				c-0.5,0-1,0.1-1.4,0.2l0,0c0.5-0.6,1.1-0.9,2-0.9l0,0c0.2,0,0.5,0,0.7,0.1c2,0.4,3.6,2.1,3.6,4.3c0,0.1,0,0.1,0,0.2v7.2h2.2
				c0,0,0-7.2,0-7.3c0-3.1-1.7-5.7-4.8-6.5c-0.1,0-0.2-0.1-0.5-0.1c-0.2,0-0.5,0-0.7,0C1137.9,506,1137.5,506.2,1137.1,506.3z"/>
		</g>
	</g>
	<g>
		<path id="Rectangle-Copy-2_3_" style="fill:#FFFFFF;" d="M827.6,284.8H926c2.7,0,5,2.2,5,5v25.8c0,2.7-2.2,5-5,5h-98.4
			c-2.7,0-5-2.2-5-5v-25.8C822.6,287.1,824.9,284.8,827.6,284.8z"/>
		<text transform="matrix(1 0 0 1 852.4743 300.2649)" style="enable-background:new    ;"><tspan x="0" y="0" style="fill:#8A1538; font-family:'MarselisPro-Bold'; font-size:13.9058px;">City Cent</tspan><tspan x="56.2" y="0" style="fill:#8A1538; font-family:'MarselisPro-Bold'; font-size:13.9058px;">r</tspan><tspan x="61.4" y="0" style="fill:#8A1538; font-family:'MarselisPro-Bold'; font-size:13.9058px;">e</tspan></text>

			<text transform="matrix(1 0 0 1 852.4743 314.1702)" style="fill:#8A1538; font-family:'MarselisPro-Light'; font-size:13.9058px;">AL Zahia</text>
		<g>
			<path id="Path_6_" style="fill:#8A1538;" d="M837.7,295.8c-4.7,0-8.1,2.9-8.1,6.6v7.3h2.7c0,0,0-4.1,0-7.3c0-3.5,3-6,6-6.5
				c0.1,0,0.2,0,0.1,0h-0.7V295.8z"/>
			<path id="Path_5_" style="fill:#8A1538;" d="M838.3,296c-0.2,0.1-0.6,0.2-1,0.5c-1.7,1.1-2.6,3.4-2.6,5.3c0,0.1,0,0.2,0,0.4l0,0
				v0.1v7.3h2.2v-7.3c0-0.5,0.2-0.9,0.5-1.1l0.9,1.1l0.9-1.1c0.4,0.2,0.5,0.7,0.5,1.1v7.3h2.2v-7.3c0-2.1-1.6-4-3.7-4
				c-0.5,0-1,0.1-1.4,0.2l0,0c0.5-0.6,1.1-0.9,2-0.9l0,0c0.2,0,0.5,0,0.7,0.1c2,0.4,3.6,2.1,3.6,4.3c0,0.1,0,0.1,0,0.2v7.2h2.2
				c0,0,0-7.2,0-7.3c0-3.1-1.7-5.7-4.8-6.5c-0.1,0-0.2-0.1-0.5-0.1c-0.2,0-0.5,0-0.7,0C839,295.8,838.7,295.9,838.3,296z"/>
		</g>
	</g>
</g>
</svg>
