<?xml version="1.0" encoding="utf-8"?>
<!-- Generator: Adobe Illustrator 19.1.0, SVG Export Plug-In . SVG Version: 6.00 Build 0)  -->
<svg version="1.1" id="app_x5F_Sharjah-road--parent"
	 xmlns="http://www.w3.org/2000/svg" xmlns:xlink="http://www.w3.org/1999/xlink" x="0px" y="0px" width="3840px" height="2160px"
	 viewBox="0 0 3840 2160" style="enable-background:new 0 0 3840 2160;" xml:space="preserve">
<g id="Map_labels">
	
		<text transform="matrix(0.1045 0.9945 -0.9945 0.1045 2667.2898 955.6999)" style="fill:#3C3C3D; font-family:'MarselisPro-Bold'; font-size:19.8281px;">Al Dhaid Road</text>
	<text transform="matrix(0 1 -1 0 1662 1570.4863)" style="fill:#3C3C3D; font-family:'MarselisPro-Bold'; font-size:19.829px;">Uni</text>
	<text transform="matrix(0 1 -1 0 1662 1601.8301)" style="fill:#3C3C3D; font-family:'MarselisPro-Bold'; font-size:19.829px;">v</text>
	<text transform="matrix(0 1 -1 0 1662 1611.3066)" style="fill:#3C3C3D; font-family:'MarselisPro-Bold'; font-size:19.829px;">ersity City Road</text>
	<text transform="matrix(1 0 0 1 1882.4434 368.8462)" style="fill:#8A1538; font-family:'MarselisPro'; font-size:27.7606px;">T</text>
	<text transform="matrix(1 0 0 1 1894.834 368.8462)" style="fill:#8A1538; font-family:'MarselisPro'; font-size:27.7606px;">ar</text>
	<text transform="matrix(1 0 0 1 1919.6191 368.8462)" style="fill:#8A1538; font-family:'MarselisPro'; font-size:27.7606px;">f</text>
	<text transform="matrix(1 0 0 1 1929.0957 368.8462)" style="fill:#8A1538; font-family:'MarselisPro'; font-size:27.7606px;">aa Park</text>
	<text transform="matrix(1 0 0 1 1079.5371 783.2715)" style="fill:#8A1538; font-family:'MarselisPro'; font-size:27.7606px;">Al Thiqah Club </text>
	<text transform="matrix(1 0 0 1 1262.498 783.2715)" style="fill:#8A1538; font-family:'MarselisPro'; font-size:27.7606px;">f</text>
	<text transform="matrix(1 0 0 1 1271.2441 783.2715)" style="fill:#8A1538; font-family:'MarselisPro'; font-size:27.7606px;">or Handicapped</text>
	<text transform="matrix(1 0 0 1 1143.459 1017.2559)" style="fill:#8A1538; font-family:'MarselisPro'; font-size:27.7606px;">Sharjah Blood </text>
	<text transform="matrix(1 0 0 1 1322.0449 1017.2559)" style="fill:#8A1538; font-family:'MarselisPro'; font-size:27.7606px;">T</text>
	<text transform="matrix(1 0 0 1 1335.166 1017.2559)" style="fill:#8A1538; font-family:'MarselisPro'; font-size:27.7606px;">r</text>
	<text transform="matrix(1 0 0 1 1344.6426 1017.2559)" style="fill:#8A1538; font-family:'MarselisPro'; font-size:27.7606px;">ansfusion </text>
	<text transform="matrix(1 0 0 1 1143.459 1045.0176)" style="fill:#8A1538; font-family:'MarselisPro'; font-size:27.7606px;">and Resea</text>
	<text transform="matrix(1 0 0 1 1271.0215 1045.0176)" style="fill:#8A1538; font-family:'MarselisPro'; font-size:27.7606px;">r</text>
	<text transform="matrix(1 0 0 1 1280.4941 1045.0176)" style="fill:#8A1538; font-family:'MarselisPro'; font-size:27.7606px;">ch Cent</text>
	<text transform="matrix(1 0 0 1 1370.8848 1045.0176)" style="fill:#8A1538; font-family:'MarselisPro'; font-size:27.7606px;">r</text>
	<text transform="matrix(1 0 0 1 1380.3613 1045.0176)" style="fill:#8A1538; font-family:'MarselisPro'; font-size:27.7606px;">e</text>
	<text transform="matrix(1 0 0 1 1279.1621 1228.7285)" style="fill:#8A1538; font-family:'MarselisPro'; font-size:27.7606px;">ADNOC Station</text>
	<text transform="matrix(1 0 0 1 1267.3887 1422.127)" style="fill:#8A1538; font-family:'MarselisPro'; font-size:27.7606px;">F</text>
	<text transform="matrix(1 0 0 1 1281.2402 1422.127)" style="fill:#8A1538; font-family:'MarselisPro'; font-size:27.7606px;">amilies Market</text>
	<text transform="matrix(1 0 0 1 1261.7832 1499.1074)" style="fill:#8A1538; font-family:'MarselisPro'; font-size:27.7606px;">Al </text>
	<text transform="matrix(1 0 0 1 1293.8574 1499.1074)" style="fill:#8A1538; font-family:'MarselisPro'; font-size:27.7606px;">F</text>
	<text transform="matrix(1 0 0 1 1306.9785 1499.1074)" style="fill:#8A1538; font-family:'MarselisPro'; font-size:27.7606px;">alah Mosque</text>
	<text transform="matrix(1 0 0 1 1212.3379 1681.5332)" style="fill:#8A1538; font-family:'MarselisPro'; font-size:27.7606px;">Mu</text>
	<text transform="matrix(1 0 0 1 1251.6973 1681.5332)" style="fill:#8A1538; font-family:'MarselisPro'; font-size:27.7606px;">w</text>
	<text transform="matrix(1 0 0 1 1272.8379 1681.5332)" style="fill:#8A1538; font-family:'MarselisPro'; font-size:27.7606px;">eilah Hypermarket</text>
	<text transform="matrix(1 0 0 1 2930.2979 1409.873)" style="fill:#8A1538; font-family:'MarselisPro'; font-size:27.7606px;">Sharjah International Airport</text>
	<text transform="matrix(1 0 0 1 273.6543 619.7325)" style="fill:#8A1538; font-family:'MarselisPro'; font-size:27.7606px;">F</text>
	<text transform="matrix(1 0 0 1 287.502 619.7325)" style="fill:#8A1538; font-family:'MarselisPro'; font-size:27.7606px;">r</text>
	<text transform="matrix(1 0 0 1 296.9785 619.7325)" style="fill:#8A1538; font-family:'MarselisPro'; font-size:27.7606px;">om Dubai and Abu Dhabi</text>
	<text transform="matrix(1 0 0 1 273.6543 1175.8926)" style="fill:#8A1538; font-family:'MarselisPro'; font-size:27.7606px;">10 minutes to Mi</text>
	<text transform="matrix(1 0 0 1 477.0249 1175.8926)" style="fill:#8A1538; font-family:'MarselisPro'; font-size:27.7606px;">r</text>
	<text transform="matrix(1 0 0 1 487.2285 1175.8926)" style="fill:#8A1538; font-family:'MarselisPro'; font-size:27.7606px;">dif City Cent</text>
	<text transform="matrix(1 0 0 1 634.4741 1175.8926)" style="fill:#8A1538; font-family:'MarselisPro'; font-size:27.7606px;">r</text>
	<text transform="matrix(1 0 0 1 643.9473 1175.8926)" style="fill:#8A1538; font-family:'MarselisPro'; font-size:27.7606px;">e</text>
	<text transform="matrix(1 0 0 1 1043.3223 1906.6855)" style="fill:#8A1538; font-family:'MarselisPro'; font-size:27.7606px;">Uni</text>
	<text transform="matrix(1 0 0 1 1085.5996 1906.6855)" style="fill:#8A1538; font-family:'MarselisPro'; font-size:27.7606px;">v</text>
	<text transform="matrix(1 0 0 1 1098.7207 1906.6855)" style="fill:#8A1538; font-family:'MarselisPro'; font-size:27.7606px;">ersity </text>
	<text transform="matrix(1 0 0 1 1174.5293 1906.6855)" style="fill:#8A1538; font-family:'MarselisPro'; font-size:27.7606px;">o</text>
	<text transform="matrix(1 0 0 1 1189.1074 1906.6855)" style="fill:#8A1538; font-family:'MarselisPro'; font-size:27.7606px;">f Sharjah</text>
	<text transform="matrix(1 0 0 1 2331.5957 1874.8105)" style="fill:#8A1538; font-family:'MarselisPro'; font-size:27.7606px;">American Uni</text>
	<text transform="matrix(1 0 0 1 2497.0635 1874.8105)" style="fill:#8A1538; font-family:'MarselisPro'; font-size:27.7606px;">v</text>
	<text transform="matrix(1 0 0 1 2510.1846 1874.8105)" style="fill:#8A1538; font-family:'MarselisPro'; font-size:27.7606px;">ersity </text>
	<text transform="matrix(1 0 0 1 2585.9932 1874.8105)" style="fill:#8A1538; font-family:'MarselisPro'; font-size:27.7606px;">o</text>
	<text transform="matrix(1 0 0 1 2600.5713 1874.8105)" style="fill:#8A1538; font-family:'MarselisPro'; font-size:27.7606px;">f Sharjah</text>
	<text transform="matrix(1 0 0 1 2419.4434 1906.6816)" style="fill:#8A1538; font-family:'MarselisPro'; font-size:27.7606px;">&amp; Uni</text>
	<text transform="matrix(1 0 0 1 2487.9619 1906.6816)" style="fill:#8A1538; font-family:'MarselisPro'; font-size:27.7606px;">v</text>
	<text transform="matrix(1 0 0 1 2501.8096 1906.6816)" style="fill:#8A1538; font-family:'MarselisPro'; font-size:27.7606px;">ersity City</text>
	<text transform="matrix(1 0 0 1 2173.3262 317.6704)" style="fill:#8A1538; font-family:'MarselisPro'; font-size:27.7606px;">Al Re</text>
	<text transform="matrix(1 0 0 1 2236.7441 317.6704)" style="fill:#8A1538; font-family:'MarselisPro'; font-size:27.7606px;">f</text>
	<text transform="matrix(1 0 0 1 2245.4902 317.6704)" style="fill:#8A1538; font-family:'MarselisPro'; font-size:27.7606px;">aa Park</text>
	<text transform="matrix(1 0 0 1 273.6543 1102.5215)" style="fill:#8A1538; font-family:'MarselisPro'; font-size:27.7606px;">20 minutes to Dubai International Airport</text>
	<polygon id="Path-7" style="fill:#B4985A;fill-opacity:0.75;" points="1666.2,713.2 1669.8,1230.8 2201.8,1230.8 2192.4,891.2 
		2005,891.2 2001.4,715.4 	"/>
	<text transform="matrix(1 0 0 1 1714.2832 1334.0332)" style="fill:#8A1538; font-family:'MarselisPro'; font-size:27.7606px;">Al Zahia Sales Cent</text>
	<text transform="matrix(1 0 0 1 1948.998 1334.0332)" style="fill:#8A1538; font-family:'MarselisPro'; font-size:27.7606px;">r</text>
	<text transform="matrix(1 0 0 1 1959.2041 1334.0332)" style="fill:#8A1538; font-family:'MarselisPro'; font-size:27.7606px;">e</text>
	<g>
		<g>
			
				<line style="fill:none;stroke:#8A1538;stroke-width:2.5512;stroke-miterlimit:10;" x1="1472.2" y1="1491.8" x2="1545.8" y2="1491.8"/>
			<g>
				<path style="fill:#8A1538;" d="M1545.8,1501.2c5.2,0,9.4-4.4,9.4-9.4c0-5.2-4.4-9.4-9.4-9.4c-5.2,0-9.4,4.4-9.4,9.4
					C1536.4,1496.8,1540,1501.2,1545.8,1501.2z"/>
			</g>
		</g>
	</g>
	<g>
		<g>
			<line style="fill:none;stroke:#8A1538;stroke-width:2.5512;stroke-miterlimit:10;" x1="1357" y1="1656.6" x2="1357" y2="1583"/>
			<g>
				<circle style="fill:#8A1538;" cx="1357" cy="1583.6" r="9.4"/>
			</g>
		</g>
	</g>
	<g>
		<g>
			
				<line style="fill:none;stroke:#8A1538;stroke-width:2.5512;stroke-miterlimit:10;" x1="1472.2" y1="1415.2" x2="1592.4" y2="1415.2"/>
			<g>
				<circle style="fill:#8A1538;" cx="1592.4" cy="1415.2" r="9.4"/>
			</g>
		</g>
	</g>
	<g>
		<g>
			
				<line style="fill:none;stroke:#8A1538;stroke-width:2.5512;stroke-miterlimit:10;" x1="1472.2" y1="1221.4" x2="1617.2" y2="1221.4"/>
			<g>
				<circle style="fill:#8A1538;" cx="1617.2" cy="1221.4" r="9.4"/>
			</g>
		</g>
	</g>
	<g>
		<g>
			
				<line style="fill:none;stroke:#8A1538;stroke-width:2.5512;stroke-miterlimit:10;" x1="1472.2" y1="1011.4" x2="1617.2" y2="1011.4"/>
			<g>
				<circle style="fill:#8A1538;" cx="1617.2" cy="1011.4" r="9.4"/>
			</g>
		</g>
	</g>
	<g>
		<g>
			
				<line style="fill:none;stroke:#8A1538;stroke-width:2.5512;stroke-miterlimit:10;" x1="2244.2" y1="1027.4" x2="2075" y2="1027.4"/>
			<g>
				<circle style="fill:#8A1538;" cx="2075" cy="1027.4" r="9.4"/>
			</g>
		</g>
	</g>
	<g>
		<g>
			
				<line style="fill:none;stroke:#8A1538;stroke-width:2.5512;stroke-miterlimit:10;" x1="1472.2" y1="777.4" x2="1601.2" y2="777.4"/>
			<g>
				<circle style="fill:#8A1538;" cx="1600.6" cy="777.4" r="9.4"/>
			</g>
		</g>
	</g>
	<g>
		<g>
			<line style="fill:none;stroke:#8A1538;stroke-width:2.5512;stroke-miterlimit:10;" x1="1844" y1="1300" x2="1844" y2="1171"/>
			<g>
				<circle style="fill:#8A1538;" cx="1844" cy="1171.8" r="9.4"/>
			</g>
		</g>
	</g>
	<g>
		<g>
			
				<line style="fill:none;stroke:#8A1538;stroke-width:2.5512;stroke-miterlimit:10;" x1="3107.2" y1="1421.8" x2="3107.2" y2="1499"/>
			<g>
				<circle style="fill:#8A1538;" cx="3107.2" cy="1498.4" r="9.4"/>
			</g>
		</g>
	</g>
	<g>
		<g>
			
				<line style="fill:none;stroke:#8A1538;stroke-width:2.5512;stroke-miterlimit:10;" x1="2520.4" y1="1920.4" x2="2520.4" y2="2028.2"/>
			<g>
				<path style="fill:#8A1538;" d="M2511,2027.6c0,5.2,4.4,9.4,9.4,9.4c5.2,0,9.4-4.4,9.4-9.4c0-5.2-4.4-9.4-9.4-9.4
					C2515.4,2018,2511,2022.4,2511,2027.6z"/>
			</g>
		</g>
	</g>
	<g>
		<g>
			
				<line style="fill:none;stroke:#8A1538;stroke-width:2.5512;stroke-miterlimit:10;" x1="1174.8" y1="1920.4" x2="1174.8" y2="2028.2"/>
			<g>
				<circle style="fill:#8A1538;" cx="1174.8" cy="2027.6" r="9.4"/>
			</g>
		</g>
	</g>
	<g>
		<g>
			
				<line style="fill:none;stroke:#8A1538;stroke-width:2.5512;stroke-miterlimit:10;" x1="259.2" y1="1168.8" x2="190.8" y2="1168.8"/>
			<g>
				<polygon style="fill:#8A1538;" points="194.4,1156.4 171.8,1168.8 194.4,1181.2 				"/>
			</g>
		</g>
	</g>
	<g>
		<g>
			<line style="fill:none;stroke:#8A1538;stroke-width:2.5512;stroke-miterlimit:10;" x1="259.2" y1="1093" x2="190.8" y2="1093"/>
			<g>
				<polygon style="fill:#8A1538;" points="194.4,1080.6 171.8,1093 194.4,1106.2 				"/>
			</g>
		</g>
	</g>
	<g>
		<g>
			<line style="fill:none;stroke:#8A1538;stroke-width:2.5512;stroke-miterlimit:10;" x1="171.8" y1="614.8" x2="241" y2="614.8"/>
			<g>
				<polygon style="fill:#8A1538;" points="237.4,628 259.2,614.8 237.4,602.4 				"/>
			</g>
		</g>
	</g>
	<g>
		<g>
			
				<line style="fill:none;stroke:#8A1538;stroke-width:2.5512;stroke-miterlimit:10;" x1="1753.6" y1="641.2" x2="1753.6" y2="774.6"/>
			<g>
				<path style="fill:#8A1538;" d="M1744.2,773.8c0,5.2,4.4,9.4,9.4,9.4s9.4-4.4,9.4-9.4s-4.4-9.4-9.4-9.4
					C1748.4,764.4,1744.2,768.6,1744.2,773.8z"/>
			</g>
		</g>
	</g>
	<g>
		<g>
			
				<line style="fill:none;stroke:#8A1538;stroke-width:2.5512;stroke-miterlimit:10;" x1="1951.8" y1="376.6" x2="1951.8" y2="469.2"/>
			<g>
				<circle style="fill:#8A1538;" cx="1951.8" cy="468.4" r="9.4"/>
			</g>
		</g>
	</g>
	<g>
		<g>
			
				<line style="fill:none;stroke:#8A1538;stroke-width:2.5512;stroke-miterlimit:10;" x1="2255.8" y1="329.2" x2="2255.8" y2="398.4"/>
			<g>
				<circle style="fill:#8A1538;" cx="2255.8" cy="397.6" r="9.4"/>
			</g>
		</g>
	</g>
	<text transform="matrix(1 0 0 1 1945.1895 711.0919)" style="fill:#3C3C3D; font-family:'MarselisPro-Bold'; font-size:19.829px;">Sheikh Mohammed Bin Zayed Road</text>
	<g>
		<path id="Rectangle-Copy-2_1_" style="fill:#FFFFFF;" d="M2252.8,990.2h196.8c5.4,0,10,4.4,10,10v51.6c0,5.4-4.4,10-10,10h-196.8
			c-5.4,0-10-4.4-10-10v-51.6C2243,994.8,2247.4,990.2,2252.8,990.2z"/>
		
			<text transform="matrix(1 0 0 1 2302.5957 1021.1212)" style="fill:#8A1538; font-family:'MarselisPro-Bold'; font-size:27.8116px;">Al Zahia</text>
		
			<text transform="matrix(1 0 0 1 2302.5957 1048.9316)" style="fill:#8A1538; font-family:'MarselisPro-Light'; font-size:27.8116px;">Sharjah</text>
		<g>
			<path id="Path_4_" style="fill:#8A1538;" d="M2273,1012c-9.4,0-16.2,5.8-16.2,13.2v14.6h5.4c0,0,0-8.2,0-14.6c0-7,6-12,12-13
				c0.2,0,0.4,0,0.2,0L2273,1012L2273,1012z"/>
			<path id="Path_3_" style="fill:#8A1538;" d="M2274.2,1012.6c-0.4,0.2-1.2,0.4-2,1c-3.4,2.2-5.2,6.8-5.2,10.6c0,0.2,0,0.4,0,0.8
				l0,0v0.2v14.6h4.4v-14.6c0-1,0.4-1.8,1-2.2l1.8,2.2l1.8-2.2c0.8,0.4,1,1.4,1,2.2v14.6h4.4v-14.6c0-4.2-3.2-8-7.4-8
				c-1,0-2,0.2-2.8,0.4l0,0c1-1.2,2.2-1.8,4-1.8l0,0c0.4,0,1,0,1.4,0.2c4,0.8,7.2,4.2,7.2,8.6c0,0.2,0,0.2,0,0.4v14.4h4.4
				c0,0,0-14.4,0-14.6c0-6.2-3.4-11.4-9.6-13c-0.2,0-0.4-0.2-1-0.2c-0.4,0-1,0-1.4,0C2275.8,1012,2275,1012.4,2274.2,1012.6z"/>
		</g>
	</g>
	<g>
		<path id="Rectangle-Copy-2_3_" style="fill:#FFFFFF;" d="M1655.2,569.6H1852c5.4,0,10,4.4,10,10v51.6c0,5.4-4.4,10-10,10h-196.8
			c-5.4,0-10-4.4-10-10v-51.6C1645.2,574.2,1649.8,569.6,1655.2,569.6z"/>
		
			<text transform="matrix(1 0 0 1 1704.9482 600.5294)" style="fill:#8A1538; font-family:'MarselisPro-Bold'; font-size:27.8116px;">City Cent</text>
		
			<text transform="matrix(1 0 0 1 1817.3477 600.5294)" style="fill:#8A1538; font-family:'MarselisPro-Bold'; font-size:27.8116px;">r</text>
		
			<text transform="matrix(1 0 0 1 1827.748 600.5294)" style="fill:#8A1538; font-family:'MarselisPro-Bold'; font-size:27.8116px;">e</text>
		
			<text transform="matrix(1 0 0 1 1704.9482 628.3399)" style="fill:#8A1538; font-family:'MarselisPro-Light'; font-size:27.8116px;">AL Zahia</text>
		<g>
			<path id="Path_6_" style="fill:#8A1538;" d="M1675.4,591.6c-9.4,0-16.2,5.8-16.2,13.2v14.6h5.4c0,0,0-8.2,0-14.6c0-7,6-12,12-13
				c0.2,0,0.4,0,0.2,0h-1.4V591.6z"/>
			<path id="Path_5_" style="fill:#8A1538;" d="M1676.6,592c-0.4,0.2-1.2,0.4-2,1c-3.4,2.2-5.2,6.8-5.2,10.6c0,0.2,0,0.4,0,0.8l0,0
				v0.2v14.6h4.4v-14.6c0-1,0.4-1.8,1-2.2l1.8,2.2l1.8-2.2c0.8,0.4,1,1.4,1,2.2v14.6h4.4v-14.6c0-4.2-3.2-8-7.4-8
				c-1,0-2,0.2-2.8,0.4l0,0c1-1.2,2.2-1.8,4-1.8l0,0c0.4,0,1,0,1.4,0.2c4,0.8,7.2,4.2,7.2,8.6c0,0.2,0,0.2,0,0.4v14.4h4.4
				c0,0,0-14.4,0-14.6c0-6.2-3.4-11.4-9.6-13c-0.2,0-0.4-0.2-1-0.2c-0.4,0-1,0-1.4,0C1678,591.6,1677.4,591.8,1676.6,592z"/>
		</g>
	</g>
	
		<g id="NorthPoint" transform="translate(1831.070256, 181.453972) rotate(50.000000) translate(-1831.070256, -181.453972) translate(1792.570256, 137.953972)">
		<path id="Fill-933" style="fill:#8A1538;" d="M1311.3-1161.3l-8,23.4l-6.4-23L1311.3-1161.3z M1290.7-1160.9l13,39.6l12.6-39.4
			l-13-39.6L1290.7-1160.9z M1311.3-1161.3l-8,23.4l-6.4-23L1311.3-1161.3z M1290.7-1160.9l13,39.6l12.6-39.4l-13-39.6
			L1290.7-1160.9z M1311.3-1161.3l-8,23.4l-6.4-23L1311.3-1161.3z M1303.7-1121.3l12.6-39.4l-13-39.6l-12.6,39.4L1303.7-1121.3z
			 M1325.7-1200.7c21.4,12.4,28.8,39.8,16.4,61.2c-12.4,21.4-39.8,28.8-61.2,16.4c-21.4-12.4-28.8-39.8-16.4-61.2
			C1276.7-1205.7,1304.3-1212.9,1325.7-1200.7z M1275.7-1114.5c26.4,15.2,59.8,6.2,75-20.2c15.2-26.2,6-59.4-20.2-74.6
			c-26.2-15.2-59.4-6.2-74.6,19.8C1240.7-1162.9,1249.7-1129.5,1275.7-1114.5z M1311.3-1161.3l-8,23.4l-6.4-23L1311.3-1161.3z
			 M1290.7-1160.9l13,39.6l12.6-39.4l-13-39.6L1290.7-1160.9z M1311.3-1161.3l-8,23.4l-6.4-23L1311.3-1161.3z M1290.7-1160.9
			l13,39.6l12.6-39.4l-13-39.6L1290.7-1160.9z M1311.3-1161.3l-8,23.4l-6.4-23L1311.3-1161.3z M1290.7-1160.9l13,39.6l12.6-39.4
			l-13-39.6L1290.7-1160.9z M1311.3-1161.3l-8,23.4l-6.4-23L1311.3-1161.3z M1290.7-1160.9l13,39.6l12.6-39.4l-13-39.6
			L1290.7-1160.9z"/>
		<g id="Back-Copy-5_1_" transform="translate(34.000000, 0.000000)">
			<text transform="matrix(1 0 0 1 1260.314 -1224.5187)" style="fill:#8A1538; font-family:'ArialMT'; font-size:27.8706px;">N</text>
		</g>
	</g>
</g>
</svg>
