<?xml version="1.0" encoding="utf-8"?>
<!-- Generator: Adobe Illustrator 22.0.1, SVG Export Plug-In . SVG Version: 6.00 Build 0)  -->
<svg version="1.1" id="app_x5F_Sharjah--parent" xmlns="http://www.w3.org/2000/svg" xmlns:xlink="http://www.w3.org/1999/xlink"
	 x="0px" y="0px" width="1920px" height="1080px" viewBox="0 0 1920 1080" style="enable-background:new 0 0 1920 1080;"
	 xml:space="preserve">
<rect id="app_x5F_Sharjah-road--zoom" x="1434.3" y="658.4" transform="matrix(0.9884 -0.1521 0.1521 0.9884 -89.8251 239.8509)" style="fill:none;stroke:#1D1D1B;stroke-width:0;stroke-miterlimit:10;" width="177.1" height="97.3"/>
<g id="Map_labels">
	<path id="Line-2_26_" style="fill:#8A1538;stroke:#8A1538;stroke-width:1.2447;stroke-linecap:square;" d="M1536.6,801.2h33.4"/>
	<text transform="matrix(1 0 0 1 962.5029 476.6725)" style="enable-background:new    ;"><tspan x="0" y="0" style="fill:#8A1538; font-family:'MarselisPro'; font-size:13.9353px;">Burj Khali</tspan><tspan x="60.1" y="0" style="fill:#8A1538; font-family:'MarselisPro'; font-size:13.9353px;">f</tspan><tspan x="64.6" y="0" style="fill:#8A1538; font-family:'MarselisPro'; font-size:13.9353px;">a</tspan></text>
	<text transform="matrix(1 0 0 1 762.4336 494.5894)" style="fill:#8A1538; font-family:'MarselisPro'; font-size:13.9353px;">Um Suqeim</text>
	<g>

			<text transform="matrix(0.9996 -2.671407e-02 2.671407e-02 0.9996 866.6806 568.6875)" style="fill:#3C3C3D; font-family:'MarselisPro-Bold'; font-size:9.9522px;">Sheikh Zayed Road</text>
	</g>
	<g>
		<text transform="matrix(0.1951 0.9808 -0.9808 0.1951 649.8752 606.5203)" style="enable-background:new    ;"><tspan x="0" y="0" style="fill:#3C3C3D; font-family:'MarselisPro-Bold'; font-size:9.9539px;">Hessa St</tspan><tspan x="39" y="0" style="fill:#3C3C3D; font-family:'MarselisPro-Bold'; font-size:9.9539px;">r</tspan><tspan x="42.7" y="0" style="fill:#3C3C3D; font-family:'MarselisPro-Bold'; font-size:9.9539px;">eet</tspan></text>
	</g>
	<g>

			<text transform="matrix(0.9945 -0.1049 0.1049 0.9945 1335.8433 704.29)" style="fill:#3C3C3D; font-family:'MarselisPro-Bold'; font-size:9.9539px;">Sheikh Mohammed Bin Zayed Road</text>
	</g>
	<g>
		<text transform="matrix(0.9458 -0.3249 0.3249 0.9458 1573.5669 1008.944)" style="enable-background:new    ;"><tspan x="0" y="0" style="fill:#3C3C3D; font-family:'MarselisPro-Bold'; font-size:9.9557px;">Emi</tspan><tspan x="17.4" y="0" style="fill:#3C3C3D; font-family:'MarselisPro-Bold'; font-size:9.9557px;">r</tspan><tspan x="21" y="0" style="fill:#3C3C3D; font-family:'MarselisPro-Bold'; font-size:9.9557px;">ates Road</tspan></text>
	</g>
	<g>

			<text transform="matrix(0.3249 0.9458 -0.9458 0.3249 1561.0177 678.28)" style="fill:#3C3C3D; font-family:'MarselisPro-Bold'; font-size:9.9557px;">Al Dhaid Road</text>
	</g>
	<text transform="matrix(1 0 0 1 1017.9941 536.3961)" style="fill:#8A1538; font-family:'MarselisPro'; font-size:13.9353px;">DIFC</text>
	<text transform="matrix(1 0 0 1 1072.9883 448.0558)" style="fill:#8A1538; font-family:'MarselisPro'; font-size:13.9353px;">Port Rashid</text>
	<text transform="matrix(1 0 0 1 1229.2607 333.5894)" style="enable-background:new    ;"><tspan x="0" y="0" style="fill:#8A1538; font-family:'MarselisPro'; font-size:13.9353px;">Dei</tspan><tspan x="20.1" y="0" style="fill:#8A1538; font-family:'MarselisPro'; font-size:13.9353px;">r</tspan><tspan x="24.9" y="0" style="fill:#8A1538; font-family:'MarselisPro'; font-size:13.9353px;">a Islands (Planned)</tspan></text>
	<text transform="matrix(1 0 0 1 1376.8271 426.1578)" style="fill:#8A1538; font-family:'MarselisPro'; font-size:13.9353px;">Al Qasba</text>
	<text transform="matrix(1 0 0 1 853.5127 237.2872)" style="enable-background:new    ;"><tspan x="0" y="0" style="fill:#8A1538; font-family:'MarselisPro'; font-size:13.9353px;">The </tspan><tspan x="25.8" y="0" style="fill:#8A1538; font-family:'MarselisPro'; font-size:13.9353px;">W</tspan><tspan x="38.1" y="0" style="fill:#8A1538; font-family:'MarselisPro'; font-size:13.9353px;">orld</tspan></text>
	<text transform="matrix(1 0 0 1 582.5195 374.15)" style="fill:#8A1538; font-family:'MarselisPro'; font-size:13.9353px;">Atlantis Hotel</text>
	<text transform="matrix(1 0 0 1 694.4448 716.8063)" style="fill:#FFFFFF; font-family:'MarselisPro'; font-size:13.9353px;"> </text>
	<text transform="matrix(1 0 0 1 1303.6123 752.6403)" style="fill:#FFFFFF; font-family:'MarselisPro'; font-size:13.9353px;"> </text>
	<text transform="matrix(1 0 0 1 628.5498 863.1256)" style="fill:#FFFFFF; font-family:'MarselisPro'; font-size:13.9353px;"> </text>
	<text transform="matrix(1 0 0 1 730.3306 455.8956)" style="enable-background:new    ;"><tspan x="0" y="0" style="fill:#8A1538; font-family:'MarselisPro'; font-size:13.9353px;">The Palm Jumei</tspan><tspan x="98" y="0" style="fill:#8A1538; font-family:'MarselisPro'; font-size:13.9353px;">r</tspan><tspan x="102.7" y="0" style="fill:#8A1538; font-family:'MarselisPro'; font-size:13.9353px;">ah</tspan></text>
	<text transform="matrix(1 0 0 1 748.249 818.3336)" style="fill:#8A1538; font-family:'MarselisPro'; font-size:13.9353px;">Global Village</text>
	<text transform="matrix(1 0 0 1 105.4907 799.4215)" style="fill:#8A1538; font-family:'MarselisPro'; font-size:13.9353px;">Al Maktoum International Airport</text>
	<text transform="matrix(1 0 0 1 1603.1523 526.8629)" style="fill:#8A1538; font-family:'MarselisPro'; font-size:13.9353px;">Museums</text>
	<text transform="matrix(1 0 0 1 1603.1523 543.5416)" style="enable-background:new    ;"><tspan x="0" y="0" style="fill:#8A1538; font-family:'MarselisPro'; font-size:13.9353px;">Public Lib</tspan><tspan x="58.6" y="0" style="fill:#8A1538; font-family:'MarselisPro'; font-size:13.9353px;">r</tspan><tspan x="63.3" y="0" style="fill:#8A1538; font-family:'MarselisPro'; font-size:13.9353px;">ary</tspan></text>
	<text transform="matrix(1 0 0 1 1603.1523 560.3458)" style="enable-background:new    ;"><tspan x="0" y="0" style="fill:#8A1538; font-family:'MarselisPro'; font-size:13.9353px;">Cultu</tspan><tspan x="32.4" y="0" style="fill:#8A1538; font-family:'MarselisPro'; font-size:13.9353px;">r</tspan><tspan x="37.1" y="0" style="fill:#8A1538; font-family:'MarselisPro'; font-size:13.9353px;">al Palace</tspan></text>
	<text transform="matrix(1 0 0 1 927.416 833.2643)" style="fill:#8A1538; font-family:'MarselisPro'; font-size:13.9353px;">Dubai Land</text>
	<text transform="matrix(1 0 0 1 1433.3135 843.7155)" style="enable-background:new    ;"><tspan x="0" y="0" style="fill:#8A1538; font-family:'MarselisPro'; font-size:13.9353px;">Uni</tspan><tspan x="21.1" y="0" style="fill:#8A1538; font-family:'MarselisPro'; font-size:13.9353px;">v</tspan><tspan x="27.9" y="0" style="fill:#8A1538; font-family:'MarselisPro'; font-size:13.9353px;">ersity City</tspan></text>
	<text transform="matrix(1 0 0 1 1584.2959 804.5563)" style="fill:#8A1538; font-family:'MarselisPro'; font-size:13.9353px;">Matajer</text>
	<text transform="matrix(1 0 0 1 1451.2295 514.0006)" style="fill:#8A1538; font-family:'MarselisPro'; font-size:13.9353px;">Mega Mall</text>
	<text transform="matrix(1 0 0 1 1338.7529 576.4586)" style="enable-background:new    ;"><tspan x="0" y="0" style="fill:#8A1538; font-family:'MarselisPro'; font-size:13.9353px;">Saha</tspan><tspan x="30.6" y="0" style="fill:#8A1538; font-family:'MarselisPro'; font-size:13.9353px;">r</tspan><tspan x="35.4" y="0" style="fill:#8A1538; font-family:'MarselisPro'; font-size:13.9353px;">a Mall</tspan></text>
	<text transform="matrix(1 0 0 1 1659.2598 734.6881)" style="fill:#8A1538; font-family:'MarselisPro'; font-size:13.9353px;">Sharjah International Airport</text>
	<text transform="matrix(1 0 0 1 1177.2559 615.2775)" style="fill:#8A1538; font-family:'MarselisPro'; font-size:13.9353px;">Dubai International Airport</text>
	<text transform="matrix(1 0 0 1 1640.3486 700.1246)" style="enable-background:new    ;"><tspan x="0" y="0" style="fill:#8A1538; font-family:'MarselisPro'; font-size:13.9353px;">Airport </tspan><tspan x="46.5" y="0" style="fill:#8A1538; font-family:'MarselisPro'; font-size:13.9353px;">F</tspan><tspan x="53.5" y="0" style="fill:#8A1538; font-family:'MarselisPro'; font-size:13.9353px;">r</tspan><tspan x="58.4" y="0" style="fill:#8A1538; font-family:'MarselisPro'; font-size:13.9353px;">ee </tspan><tspan x="76.3" y="0" style="fill:#8A1538; font-family:'MarselisPro'; font-size:13.9353px;">Z</tspan><tspan x="84.1" y="0" style="fill:#8A1538; font-family:'MarselisPro'; font-size:13.9353px;">one</tspan></text>
	<text transform="matrix(1 0 0 1 1581.6211 648.2926)" style="enable-background:new    ;"><tspan x="0" y="0" style="fill:#8A1538; font-family:'MarselisPro'; font-size:13.9353px;">Al </tspan><tspan x="15.9" y="0" style="fill:#8A1538; font-family:'MarselisPro'; font-size:13.9353px;">T</tspan><tspan x="22.3" y="0" style="fill:#8A1538; font-family:'MarselisPro'; font-size:13.9353px;">alah Park</tspan></text>
	<text transform="matrix(1 0 0 1 1581.6211 613.2599)" style="fill:#8A1538; font-family:'MarselisPro'; font-size:13.9353px;">Al Qassimi Hospital</text>
	<text transform="matrix(1 0 0 1 1634.6211 472.4)" style="enable-background:new    ;"><tspan x="0" y="0" style="fill:#8A1538; font-family:'MarselisPro'; font-size:13.9353px;">International School </tspan><tspan x="127.9" y="0" style="fill:#8A1538; font-family:'MarselisPro'; font-size:13.9353px;">o</tspan><tspan x="135.5" y="0" style="fill:#8A1538; font-family:'MarselisPro'; font-size:13.9353px;">f Chouei</tspan><tspan x="185.6" y="0" style="fill:#8A1538; font-family:'MarselisPro'; font-size:13.9353px;">f</tspan><tspan x="190.1" y="0" style="fill:#8A1538; font-family:'MarselisPro'; font-size:13.9353px;">at</tspan></text>
	<text transform="matrix(1 0 0 1 1289.4814 925.3365)" style="fill:#8A1538; font-family:'MarselisPro'; font-size:13.9353px;">Private School Compound</text>
	<polygon id="Path-6" style="fill:#B4985A;fill-opacity:0.75;stroke:#B4985A;stroke-width:0.3112;" points="1507.7,686.5
		1512,713.9 1543.2,709.6 1538.9,690 1525.4,691.9 1523.9,684.3 	"/>
	<text transform="matrix(1 0 0 1 1546.2305 744.6783)" style="fill:#FFFFFF; font-family:'MarselisPro'; font-size:13.9353px;"> </text>
	<text transform="matrix(1 0 0 1 1466.8545 648.1266)" style="fill:#FFFFFF; font-family:'MarselisPro'; font-size:13.9353px;"> </text>
	<g>
		<line style="fill:none;" x1="1578.2" y1="800.9" x2="1531.4" y2="800.9"/>
		<g>

				<line style="fill:none;stroke:#8A1538;stroke-width:1.2447;stroke-linecap:square;" x1="1578.2" y1="800.9" x2="1535.9" y2="800.9"/>
			<g>
				<circle style="fill:#8A1538;" cx="1536.1" cy="800.9" r="4.7"/>
			</g>
		</g>
	</g>
	<g>
		<line style="fill:none;" x1="1478.4" y1="826.3" x2="1478.4" y2="778.3"/>
		<g>

				<line style="fill:none;stroke:#8A1538;stroke-width:1.2447;stroke-linecap:square;" x1="1478.4" y1="826.3" x2="1478.4" y2="782.8"/>
			<g>
				<path style="fill:#8A1538;" d="M1483.1,783c0-2.6-2.1-4.7-4.7-4.7s-4.7,2.1-4.7,4.7c0,2.6,2.1,4.7,4.7,4.7
					S1483.1,785.6,1483.1,783z"/>
			</g>
		</g>
	</g>
	<g>
		<line style="fill:none;" x1="1520.4" y1="726.9" x2="1520.4" y2="702.9"/>
		<g>

				<line style="fill:none;stroke:#8A1538;stroke-width:1.2447;stroke-linecap:square;" x1="1520.4" y1="726.9" x2="1520.4" y2="707.3"/>
			<g>
				<path style="fill:#8A1538;" d="M1525,707.6c0-2.6-2.1-4.7-4.7-4.7s-4.7,2.1-4.7,4.7s2.1,4.7,4.7,4.7S1525,710.2,1525,707.6z"/>
			</g>
		</g>
	</g>
	<g>
		<line style="fill:none;" x1="1477" y1="653.7" x2="1518.1" y2="694.8"/>
		<g>
			<line style="fill:none;stroke:#8A1538;stroke-width:1.2447;stroke-linecap:square;" x1="1477" y1="653.7" x2="1515" y2="691.6"/>
			<g>
				<path style="fill:#8A1538;" d="M1511.5,694.8c1.9,1.9,4.7,1.9,6.6,0s1.9-4.7,0-6.6c-1.9-1.9-4.7-1.9-6.6,0
					C1509.6,690,1509.6,693,1511.5,694.8z"/>
			</g>
		</g>
	</g>
	<g>
		<line style="fill:none;" x1="1368.6" y1="907.7" x2="1368.6" y2="873.5"/>
		<g>

				<line style="fill:none;stroke:#8A1538;stroke-width:1.2447;stroke-linecap:square;" x1="1368.6" y1="907.7" x2="1368.6" y2="877.9"/>
			<g>
				<path style="fill:#8A1538;" d="M1373.2,878.1c0-2.6-2.1-4.7-4.7-4.7s-4.7,2.1-4.7,4.7s2.1,4.7,4.7,4.7
					S1373.2,880.7,1373.2,878.1z"/>
			</g>
		</g>
	</g>
	<g>
		<line style="fill:none;" x1="1261" y1="769.4" x2="1261" y2="801.4"/>
		<g>
			<line style="fill:none;stroke:#8A1538;stroke-width:1.2447;stroke-linecap:square;" x1="1261" y1="769.4" x2="1261" y2="797"/>
			<g>
				<path style="fill:#8A1538;" d="M1256.3,796.7c0,2.6,2.1,4.7,4.7,4.7s4.7-2.1,4.7-4.7c0-2.6-2.1-4.7-4.7-4.7
					S1256.3,794.1,1256.3,796.7z"/>
			</g>
		</g>
	</g>
	<g>
		<line style="fill:none;" x1="1260.5" y1="621.9" x2="1260.5" y2="660.5"/>
		<g>

				<line style="fill:none;stroke:#8A1538;stroke-width:1.2447;stroke-linecap:square;" x1="1260.5" y1="621.9" x2="1260.5" y2="656.2"/>
			<g>
				<path style="fill:#8A1538;" d="M1255.8,655.9c0,2.6,2.1,4.7,4.7,4.7s4.7-2.1,4.7-4.7c0-2.6-2.1-4.7-4.7-4.7
					S1255.8,653.3,1255.8,655.9z"/>
			</g>
		</g>
	</g>
	<g>
		<line style="fill:none;" x1="1375" y1="581.9" x2="1375" y2="602.4"/>
		<g>
			<line style="fill:none;stroke:#8A1538;stroke-width:1.2447;stroke-linecap:square;" x1="1375" y1="581.9" x2="1375" y2="597.9"/>
			<g>
				<path style="fill:#8A1538;" d="M1370.3,597.7c0,2.6,2.1,4.7,4.7,4.7s4.7-2.1,4.7-4.7c0-2.6-2.1-4.7-4.7-4.7
					C1372.4,592.9,1370.3,595.1,1370.3,597.7z"/>
			</g>
		</g>
	</g>
	<g>
		<line style="fill:none;" x1="1482.7" y1="519.3" x2="1482.7" y2="545.5"/>
		<g>

				<line style="fill:none;stroke:#8A1538;stroke-width:1.2447;stroke-linecap:square;" x1="1482.7" y1="519.3" x2="1482.7" y2="541.2"/>
			<g>
				<path style="fill:#8A1538;" d="M1478,540.9c0,2.6,2.1,4.7,4.7,4.7s4.7-2.1,4.7-4.7c0-2.6-2.1-4.7-4.7-4.7S1478,538.3,1478,540.9
					z"/>
			</g>
		</g>
	</g>
	<g>
		<line style="fill:none;" x1="1403.7" y1="432.1" x2="1403.7" y2="553"/>
		<g>

				<line style="fill:none;stroke:#8A1538;stroke-width:1.2447;stroke-linecap:square;" x1="1403.7" y1="432.1" x2="1403.7" y2="548.6"/>
			<g>
				<path style="fill:#8A1538;" d="M1399.1,548.4c0,2.6,2.1,4.7,4.7,4.7s4.7-2.1,4.7-4.7c0-2.6-2.1-4.7-4.7-4.7
					C1401.2,543.6,1399.1,545.8,1399.1,548.4z"/>
			</g>
		</g>
	</g>
	<g>
		<line style="fill:none;" x1="1299.9" y1="337.5" x2="1299.9" y2="458.5"/>
		<g>

				<line style="fill:none;stroke:#8A1538;stroke-width:1.2447;stroke-linecap:square;" x1="1299.9" y1="337.5" x2="1299.9" y2="454"/>
			<g>
				<path style="fill:#8A1538;" d="M1295.1,453.8c0,2.6,2.1,4.7,4.7,4.7s4.7-2.1,4.7-4.7s-2.1-4.7-4.7-4.7
					C1297.3,449.1,1295.1,451.2,1295.1,453.8z"/>
			</g>
		</g>
	</g>
	<g>
		<line style="fill:none;" x1="1629.8" y1="467.1" x2="1482.8" y2="614"/>
		<g>

				<line style="fill:none;stroke:#8A1538;stroke-width:1.2447;stroke-linecap:square;" x1="1629.8" y1="467.1" x2="1486" y2="610.9"/>
			<g>
				<path style="fill:#8A1538;" d="M1482.8,607.4c-1.9,1.9-1.9,4.7,0,6.6c1.9,1.9,4.7,1.9,6.6,0s1.9-4.7,0-6.6
					C1487.7,605.5,1484.7,605.5,1482.8,607.4z"/>
			</g>
		</g>
	</g>
	<g>
		<line style="fill:none;" x1="1598.9" y1="524.1" x2="1537.5" y2="585.6"/>
		<g>

				<line style="fill:none;stroke:#8A1538;stroke-width:1.2447;stroke-linecap:square;" x1="1598.9" y1="524.1" x2="1540.6" y2="582.4"/>
			<g>

					<ellipse transform="matrix(0.9141 -0.4055 0.4055 0.9141 -103.7363 674.7621)" style="fill:#8A1538;" cx="1540.7" cy="582.2" rx="4.7" ry="4.7"/>
			</g>
		</g>
	</g>
	<g>
		<line style="fill:none;" x1="962.5" y1="839.3" x2="962.5" y2="879.5"/>
		<g>
			<line style="fill:none;stroke:#8A1538;stroke-width:1.2447;stroke-linecap:square;" x1="962.5" y1="839.3" x2="962.5" y2="875"/>
			<g>
				<path style="fill:#8A1538;" d="M957.9,874.9c0,2.6,2.1,4.7,4.7,4.7s4.7-2.1,4.7-4.7s-2.1-4.7-4.7-4.7S957.9,872.3,957.9,874.9z"
					/>
			</g>
		</g>
	</g>
	<g>
		<line style="fill:none;" x1="798.5" y1="499.8" x2="798.5" y2="540.2"/>
		<g>

				<line style="fill:none;stroke:#8A1538;stroke-width:1.2447;stroke-linecap:square;" x1="798.5" y1="499.8" x2="798.5" y2="535.7"/>
			<g>
				<path style="fill:#8A1538;" d="M793.9,535.4c0,2.6,2.1,4.7,4.7,4.7c2.6,0,4.7-2.1,4.7-4.7c0-2.6-2.1-4.7-4.7-4.7
					S793.9,532.9,793.9,535.4z"/>
			</g>
		</g>
	</g>
	<g>
		<line style="fill:none;" x1="207.2" y1="805.4" x2="207.2" y2="868"/>
		<g>

				<line style="fill:none;stroke:#8A1538;stroke-width:1.2447;stroke-linecap:square;" x1="207.2" y1="805.4" x2="207.2" y2="863.7"/>
			<g>
				<path style="fill:#8A1538;" d="M202.5,863.4c0,2.6,2.1,4.7,4.7,4.7s4.7-2.1,4.7-4.7s-2.1-4.7-4.7-4.7S202.5,860.8,202.5,863.4z"
					/>
			</g>
		</g>
	</g>
	<g>
		<line style="fill:none;" x1="624.9" y1="379.1" x2="624.9" y2="419.3"/>
		<g>

				<line style="fill:none;stroke:#8A1538;stroke-width:1.2447;stroke-linecap:square;" x1="624.9" y1="379.1" x2="624.9" y2="414.9"/>
			<g>
				<path style="fill:#8A1538;" d="M620.1,414.7c0,2.6,2.1,4.7,4.7,4.7c2.6,0,4.7-2.1,4.7-4.7s-2.1-4.7-4.7-4.7
					C622.2,410,620.1,412.1,620.1,414.7z"/>
			</g>
		</g>
	</g>
	<g>
		<line style="fill:none;" x1="884.6" y1="243" x2="884.6" y2="298.2"/>
		<g>
			<line style="fill:none;stroke:#8A1538;stroke-width:1.2447;stroke-linecap:square;" x1="884.6" y1="243" x2="884.6" y2="293.7"/>
			<g>
				<path style="fill:#8A1538;" d="M879.9,293.5c0,2.6,2.1,4.7,4.7,4.7c2.6,0,4.7-2.1,4.7-4.7s-2.1-4.7-4.7-4.7
					C882,288.7,879.9,291,879.9,293.5z"/>
			</g>
		</g>
	</g>
	<g>
		<line style="fill:none;" x1="998.6" y1="483.2" x2="998.6" y2="584.7"/>
		<g>

				<line style="fill:none;stroke:#8A1538;stroke-width:1.2447;stroke-linecap:square;" x1="998.6" y1="483.2" x2="998.6" y2="580.4"/>
			<g>
				<path style="fill:#8A1538;" d="M993.9,580.1c0,2.6,2.1,4.7,4.7,4.7s4.7-2.1,4.7-4.7c0-2.6-2.1-4.7-4.7-4.7
					S993.9,577.5,993.9,580.1z"/>
			</g>
		</g>
	</g>
	<g>
		<line style="fill:none;" x1="1032.4" y1="542" x2="1032.4" y2="569"/>
		<g>

				<line style="fill:none;stroke:#8A1538;stroke-width:1.2447;stroke-linecap:square;" x1="1032.4" y1="542" x2="1032.4" y2="564.6"/>
			<g>
				<path style="fill:#8A1538;" d="M1027.8,564.4c0,2.6,2.1,4.7,4.7,4.7s4.7-2.1,4.7-4.7c0-2.6-2.1-4.7-4.7-4.7
					S1027.8,561.8,1027.8,564.4z"/>
			</g>
		</g>
	</g>
	<g>
		<line style="fill:none;" x1="1108.7" y1="452.4" x2="1108.7" y2="492.9"/>
		<g>

				<line style="fill:none;stroke:#8A1538;stroke-width:1.2447;stroke-linecap:square;" x1="1108.7" y1="452.4" x2="1108.7" y2="488.4"/>
			<g>
				<path style="fill:#8A1538;" d="M1103.9,488.1c0,2.6,2.1,4.7,4.7,4.7s4.7-2.1,4.7-4.7s-2.1-4.7-4.7-4.7
					S1103.9,485.5,1103.9,488.1z"/>
			</g>
		</g>
	</g>
	<g>
		<line style="fill:none;" x1="1150.4" y1="651.2" x2="1150.4" y2="612.7"/>
		<g>

				<line style="fill:none;stroke:#8A1538;stroke-width:1.2447;stroke-linecap:square;" x1="1150.4" y1="651.2" x2="1150.4" y2="617.2"/>
			<g>
				<path style="fill:#8A1538;" d="M1155.1,617.5c0-2.6-2.1-4.7-4.7-4.7s-4.7,2.1-4.7,4.7c0,2.6,2.1,4.7,4.7,4.7
					S1155.1,620.1,1155.1,617.5z"/>
			</g>
		</g>
	</g>
	<g>
		<line style="fill:none;" x1="585.6" y1="845.5" x2="585.6" y2="811.3"/>
		<g>

				<line style="fill:none;stroke:#8A1538;stroke-width:1.2447;stroke-linecap:square;" x1="585.6" y1="845.5" x2="585.6" y2="815.7"/>
			<g>
				<path style="fill:#8A1538;" d="M590.4,816c0-2.6-2.1-4.7-4.7-4.7c-2.6,0-4.7,2.1-4.7,4.7s2.1,4.7,4.7,4.7
					C588.3,820.7,590.4,818.6,590.4,816z"/>
			</g>
		</g>
	</g>
	<g>
		<line style="fill:none;" x1="598.3" y1="717.2" x2="571.8" y2="717.2"/>
		<g>

				<line style="fill:none;stroke:#8A1538;stroke-width:1.2447;stroke-linecap:square;" x1="598.3" y1="717.2" x2="576.3" y2="717.2"/>
			<g>
				<path style="fill:#8A1538;" d="M576.6,712.4c-2.6,0-4.7,2.1-4.7,4.7c0,2.6,2.1,4.7,4.7,4.7c2.6,0,4.7-2.1,4.7-4.7
					C581.3,714.6,579,712.4,576.6,712.4z"/>
			</g>
		</g>
	</g>
	<g>
		<line style="fill:none;" x1="726.5" y1="451.5" x2="679.4" y2="451.5"/>
		<g>

				<line style="fill:none;stroke:#8A1538;stroke-width:1.2447;stroke-linecap:square;" x1="726.5" y1="451.5" x2="683.7" y2="451.5"/>
			<g>
				<path style="fill:#8A1538;" d="M684,446.8c-2.6,0-4.7,2.1-4.7,4.7s2.1,4.7,4.7,4.7s4.7-2.1,4.7-4.7S686.6,446.8,684,446.8z"/>
			</g>
		</g>
	</g>
	<g>
		<line style="fill:none;" x1="735.6" y1="608" x2="735.6" y2="578.5"/>
		<g>
			<line style="fill:none;stroke:#8A1538;stroke-width:1.2447;stroke-linecap:square;" x1="735.6" y1="608" x2="735.6" y2="582.9"/>
			<g>
				<path style="fill:#8A1538;" d="M740.4,583.1c0-2.6-2.1-4.7-4.7-4.7s-4.7,2.1-4.7,4.7c0,2.6,2.1,4.7,4.7,4.7
					S740.4,585.7,740.4,583.1z"/>
			</g>
		</g>
	</g>
	<g>
		<line style="fill:none;" x1="792.4" y1="823.3" x2="792.4" y2="863.7"/>
		<g>

				<line style="fill:none;stroke:#8A1538;stroke-width:1.2447;stroke-linecap:square;" x1="792.4" y1="823.3" x2="792.4" y2="859.2"/>
			<g>
				<path style="fill:#8A1538;" d="M787.7,858.9c0,2.6,2.1,4.7,4.7,4.7s4.7-2.1,4.7-4.7c0-2.6-2.1-4.7-4.7-4.7
					S787.7,856.3,787.7,858.9z"/>
			</g>
		</g>
	</g>
	<g>
		<line style="fill:none;" x1="1653" y1="730.4" x2="1616.4" y2="730.4"/>
		<g>

				<line style="fill:none;stroke:#8A1538;stroke-width:1.2447;stroke-linecap:square;" x1="1653" y1="730.4" x2="1620.9" y2="730.4"/>
			<g>
				<circle style="fill:#8A1538;" cx="1621.1" cy="730.4" r="4.7"/>
			</g>
		</g>
	</g>
	<g>
		<line style="fill:none;" x1="1635.1" y1="695.8" x2="1598.4" y2="695.8"/>
		<g>

				<line style="fill:none;stroke:#8A1538;stroke-width:1.2447;stroke-linecap:square;" x1="1635.1" y1="695.8" x2="1602.8" y2="695.8"/>
			<g>
				<circle style="fill:#8A1538;" cx="1603.1" cy="695.8" r="4.7"/>
			</g>
		</g>
	</g>
	<g>
		<line style="fill:none;" x1="1577.1" y1="644" x2="1536.2" y2="644"/>
		<g>
			<line style="fill:none;stroke:#8A1538;stroke-width:1.2447;stroke-linecap:square;" x1="1577.1" y1="644" x2="1540.7" y2="644"/>
			<g>
				<circle style="fill:#8A1538;" cx="1541" cy="644" r="4.7"/>
			</g>
		</g>
	</g>
	<g>
		<line style="fill:none;" x1="1577.1" y1="608.9" x2="1525.2" y2="608.9"/>
		<g>

				<line style="fill:none;stroke:#8A1538;stroke-width:1.2447;stroke-linecap:square;" x1="1577.1" y1="608.9" x2="1529.5" y2="608.9"/>
			<g>
				<path style="fill:#8A1538;" d="M1529.8,604.3c-2.6,0-4.7,2.1-4.7,4.7s2.1,4.7,4.7,4.7s4.7-2.1,4.7-4.7
					S1532.4,604.3,1529.8,604.3z"/>
			</g>
		</g>
	</g>
	<g>
		<path id="Rectangle-Copy-2_8_" style="fill:#FFFFFF;" d="M602.9,698.9h98.6c2.7,0,5,2.2,5,5v25.9c0,2.7-2.2,5-5,5h-98.6
			c-2.7,0-5-2.2-5-5v-25.9C598,701.1,600.2,698.9,602.9,698.9z"/>
		<text transform="matrix(1 0 0 1 627.8096 714.318)" style="enable-background:new    ;"><tspan x="0" y="0" style="fill:#8A1538; font-family:'MarselisPro-Bold'; font-size:13.9353px;">City Cent</tspan><tspan x="56.4" y="0" style="fill:#8A1538; font-family:'MarselisPro-Bold'; font-size:13.9353px;">r</tspan><tspan x="61.5" y="0" style="fill:#8A1538; font-family:'MarselisPro-Bold'; font-size:13.9353px;">e</tspan></text>

			<text transform="matrix(1 0 0 1 627.8096 728.2526)" style="fill:#8A1538; font-family:'MarselisPro-Light'; font-size:13.9353px;">Me’aisem</text>
		<g>
			<path id="Path" style="fill:#8A1538;" d="M613,709.8c-4.7,0-8.1,2.9-8.1,6.6v7.3h2.7c0,0,0-4.1,0-7.3c0-3.5,3-6,6-6.5
				c0.1,0,0.2,0,0.1,0L613,709.8L613,709.8z"/>
			<path id="Path_1_" style="fill:#8A1538;" d="M613.5,710.1c-0.2,0.1-0.6,0.2-1,0.5c-1.7,1.1-2.6,3.4-2.6,5.4c0,0.1,0,0.2,0,0.4
				l0,0v0.1v7.3h2.2v-7.3c0-0.5,0.2-0.9,0.5-1.1l0.9,1.1l0.9-1.1c0.4,0.2,0.5,0.7,0.5,1.1v7.3h2.2v-7.3c0-2.1-1.6-4-3.7-4
				c-0.5,0-1,0.1-1.4,0.2l0,0c0.5-0.6,1.1-0.9,2-0.9l0,0c0.2,0,0.5,0,0.7,0.1c2,0.4,3.6,2.1,3.6,4.4c0,0.1,0,0.1,0,0.2v7.2h2.2
				c0,0,0-7.2,0-7.3c0-3.1-1.7-5.7-4.9-6.5c-0.1,0-0.2-0.1-0.5-0.1c-0.2,0-0.5,0-0.7,0C614.4,709.8,614,709.9,613.5,710.1z"/>
		</g>
	</g>
	<g>
		<path id="Rectangle-Copy-2_9_" style="fill:#FFFFFF;" d="M686.5,608.3H785c2.7,0,5,2.2,5,5v25.9c0,2.7-2.2,5-5,5h-98.6
			c-2.7,0-5-2.2-5-5v-25.9C681.5,610.5,683.7,608.3,686.5,608.3z"/>
		<text transform="matrix(1 0 0 1 711.4199 623.7399)" style="enable-background:new    ;"><tspan x="0" y="0" style="fill:#8A1538; font-family:'MarselisPro'; font-size:13.9353px;">Mall </tspan><tspan x="30.1" y="0" style="fill:#8A1538; font-family:'MarselisPro'; font-size:13.9353px;">o</tspan><tspan x="37.7" y="0" style="fill:#8A1538; font-family:'MarselisPro'; font-size:13.9353px;">f the </tspan></text>
		<text transform="matrix(1 0 0 1 711.4199 637.674)" style="enable-background:new    ;"><tspan x="0" y="0" style="fill:#8A1538; font-family:'MarselisPro'; font-size:13.9353px;">Emi</tspan><tspan x="23.6" y="0" style="fill:#8A1538; font-family:'MarselisPro'; font-size:13.9353px;">r</tspan><tspan x="28.4" y="0" style="fill:#8A1538; font-family:'MarselisPro'; font-size:13.9353px;">ates</tspan></text>
		<g>
			<path id="Path_2_" style="fill:#8A1538;" d="M696.7,619.2c-4.7,0-8.1,2.9-8.1,6.6v7.3h2.7c0,0,0-4.1,0-7.3c0-3.5,3-6,6-6.5
				c0.1,0,0.2,0,0.1,0L696.7,619.2L696.7,619.2z"/>
			<path id="Path_3_" style="fill:#8A1538;" d="M697.2,619.5c-0.2,0.1-0.6,0.2-1,0.5c-1.7,1.1-2.6,3.4-2.6,5.4c0,0.1,0,0.2,0,0.4
				l0,0v0.1v7.3h2.2v-7.3c0-0.5,0.2-0.9,0.5-1.1l0.9,1.1l0.9-1.1c0.4,0.2,0.5,0.7,0.5,1.1v7.3h2.2v-7.3c0-2.1-1.6-4-3.7-4
				c-0.5,0-1,0.1-1.4,0.2l0,0c0.5-0.6,1.1-0.9,2-0.9l0,0c0.2,0,0.5,0,0.7,0.1c2,0.4,3.6,2.1,3.6,4.4c0,0.1,0,0.1,0,0.2v7.2h2.2
				c0,0,0-7.2,0-7.3c0-3.1-1.7-5.7-4.9-6.5c-0.1,0-0.2-0.1-0.5-0.1s-0.5,0-0.7,0C697.9,619.2,697.5,619.3,697.2,619.5z"/>
		</g>
	</g>
	<g>
		<path id="Rectangle-Copy-2_10_" style="fill:#FFFFFF;" d="M1211.7,734.7h98.6c2.7,0,5,2.2,5,5v25.9c0,2.7-2.2,5-5,5h-98.6
			c-2.7,0-5-2.2-5-5v-25.9C1206.8,737,1209,734.7,1211.7,734.7z"/>
		<text transform="matrix(1 0 0 1 1236.5947 750.151)" style="enable-background:new    ;"><tspan x="0" y="0" style="fill:#8A1538; font-family:'MarselisPro-Bold'; font-size:13.9353px;">City Cent</tspan><tspan x="56.4" y="0" style="fill:#8A1538; font-family:'MarselisPro-Bold'; font-size:13.9353px;">r</tspan><tspan x="61.5" y="0" style="fill:#8A1538; font-family:'MarselisPro-Bold'; font-size:13.9353px;">e</tspan></text>
		<text transform="matrix(1 0 0 1 1236.5947 764.0846)" style="enable-background:new    ;"><tspan x="0" y="0" style="fill:#8A1538; font-family:'MarselisPro-Light'; font-size:13.9353px;">Mi</tspan><tspan x="14.6" y="0" style="fill:#8A1538; font-family:'MarselisPro-Light'; font-size:13.9353px;">r</tspan><tspan x="19.3" y="0" style="fill:#8A1538; font-family:'MarselisPro-Light'; font-size:13.9353px;">dif</tspan></text>
		<g>
			<path id="Path_4_" style="fill:#8A1538;" d="M1221.8,745.7c-4.7,0-8.1,2.9-8.1,6.6v7.3h2.7c0,0,0-4.1,0-7.3c0-3.5,3-6,6-6.5
				c0.1,0,0.2,0,0.1,0L1221.8,745.7L1221.8,745.7z"/>
			<path id="Path_5_" style="fill:#8A1538;" d="M1222.3,745.9c-0.2,0.1-0.6,0.2-1,0.5c-1.7,1.1-2.6,3.4-2.6,5.4c0,0.1,0,0.2,0,0.4
				l0,0v0.1v7.3h2.2v-7.3c0-0.5,0.2-0.9,0.5-1.1l0.9,1.1l0.9-1.1c0.4,0.2,0.5,0.7,0.5,1.1v7.3h2.2v-7.3c0-2.1-1.6-4-3.7-4
				c-0.5,0-1,0.1-1.4,0.2l0,0c0.5-0.6,1.1-0.9,2-0.9l0,0c0.2,0,0.5,0,0.7,0.1c2,0.4,3.6,2.1,3.6,4.4c0,0.1,0,0.1,0,0.2v7.2h2.2
				c0,0,0-7.2,0-7.3c0-3.1-1.7-5.7-4.9-6.5c-0.1,0-0.2-0.1-0.5-0.1c-0.2,0-0.5,0-0.7,0C1223.1,745.7,1222.8,745.8,1222.3,745.9z"/>
		</g>
	</g>
	<g>
		<path id="Rectangle-Copy-2_11_" style="fill:#FFFFFF;" d="M1101.1,651.1h98.6c2.7,0,5,2.2,5,5V682c0,2.7-2.2,5-5,5h-98.6
			c-2.7,0-5-2.2-5-5v-26C1096.1,653.3,1098.3,651.1,1101.1,651.1z"/>
		<text transform="matrix(1 0 0 1 1125.9941 666.5387)" style="enable-background:new    ;"><tspan x="0" y="0" style="fill:#8A1538; font-family:'MarselisPro-Bold'; font-size:13.9353px;">City Cent</tspan><tspan x="56.4" y="0" style="fill:#8A1538; font-family:'MarselisPro-Bold'; font-size:13.9353px;">r</tspan><tspan x="61.5" y="0" style="fill:#8A1538; font-family:'MarselisPro-Bold'; font-size:13.9353px;">e</tspan></text>
		<text transform="matrix(1 0 0 1 1125.9941 680.4752)" style="enable-background:new    ;"><tspan x="0" y="0" style="fill:#8A1538; font-family:'MarselisPro-Light'; font-size:13.9353px;">Dei</tspan><tspan x="19.6" y="0" style="fill:#8A1538; font-family:'MarselisPro-Light'; font-size:13.9353px;">r</tspan><tspan x="24.2" y="0" style="fill:#8A1538; font-family:'MarselisPro-Light'; font-size:13.9353px;">a</tspan></text>
		<g>
			<path id="Path_6_" style="fill:#8A1538;" d="M1111.2,662c-4.7,0-8.1,2.9-8.1,6.6v7.3h2.7c0,0,0-4.1,0-7.3c0-3.5,3-6,6-6.5
				c0.1,0,0.2,0,0.1,0L1111.2,662L1111.2,662z"/>
			<path id="Path_7_" style="fill:#8A1538;" d="M1111.8,662.3c-0.2,0.1-0.6,0.2-1,0.5c-1.7,1.1-2.6,3.4-2.6,5.4c0,0.1,0,0.2,0,0.4
				l0,0v0.1v7.3h2.2v-7.3c0-0.5,0.2-0.9,0.5-1.1l0.9,1.1l0.9-1.1c0.4,0.2,0.5,0.7,0.5,1.1v7.3h2.2v-7.3c0-2.1-1.6-4-3.7-4
				c-0.5,0-1,0.1-1.4,0.2l0,0c0.5-0.6,1.1-0.9,2-0.9l0,0c0.2,0,0.5,0,0.7,0.1c2,0.4,3.6,2.1,3.6,4.4c0,0.1,0,0.1,0,0.2v7.2h2.2
				c0,0,0-7.2,0-7.3c0-3.1-1.7-5.7-4.9-6.5c-0.1,0-0.2-0.1-0.5-0.1c-0.2,0-0.5,0-0.7,0C1112.5,662,1112.2,662.1,1111.8,662.3z"/>
		</g>
	</g>
	<g>
		<path id="Rectangle-Copy-2_12_" style="fill:#FFFFFF;" d="M529.3,845.2h106.5c2.7,0,5,2.2,5,5v25.9c0,2.7-2.2,5-5,5H529.3
			c-2.7,0-5-2.2-5-5v-25.9C524.3,847.5,526.5,845.2,529.3,845.2z"/>

			<text transform="matrix(1 0 0 1 554.1523 860.6364)" style="fill:#8A1538; font-family:'MarselisPro-Bold'; font-size:13.9353px;">Tilal Al Ghaf</text>

			<text transform="matrix(1 0 0 1 554.1523 874.5729)" style="fill:#8A1538; font-family:'MarselisPro-Light'; font-size:13.9353px;">Dubai</text>
		<g>
			<path id="Path_8_" style="fill:#8A1538;" d="M539.3,856.2c-4.7,0-8.1,2.9-8.1,6.6v7.3h2.7c0,0,0-4.1,0-7.3c0-3.5,3-6,6-6.5
				c0.1,0,0.2,0,0.1,0L539.3,856.2L539.3,856.2z"/>
			<path id="Path_9_" style="fill:#8A1538;" d="M540,856.5c-0.2,0.1-0.6,0.2-1,0.5c-1.7,1.1-2.6,3.4-2.6,5.4c0,0.1,0,0.2,0,0.4l0,0
				v0.1v7.3h2.2v-7.3c0-0.5,0.2-0.9,0.5-1.1l0.9,1.1l0.9-1.1c0.4,0.2,0.5,0.7,0.5,1.1v7.3h2.2v-7.3c0-2.1-1.6-4-3.7-4
				c-0.5,0-1,0.1-1.4,0.2l0,0c0.5-0.6,1.1-0.9,2-0.9l0,0c0.2,0,0.5,0,0.7,0.1c2,0.4,3.6,2.1,3.6,4.4c0,0.1,0,0.1,0,0.2v7.2h2.2
				c0,0,0-7.2,0-7.3c0-3.1-1.7-5.7-4.9-6.5c-0.1,0-0.2-0.1-0.5-0.1c-0.2,0-0.5,0-0.7,0C540.7,856.2,540.3,856.2,540,856.5z"/>
		</g>
	</g>
	<g>
		<path id="Rectangle-Copy-2_29_" style="fill:#FFFFFF;" d="M1471.1,726.7h98.6c2.7,0,5,2.2,5,5v25.9c0,2.7-2.2,5-5,5h-98.6
			c-2.7,0-5-2.2-5-5v-25.9C1466.2,729,1468.4,726.7,1471.1,726.7z"/>

			<text transform="matrix(1 0 0 1 1496.0137 742.1891)" style="fill:#8A1538; font-family:'MarselisPro-Bold'; font-size:13.9353px;">Al Zahia</text>

			<text transform="matrix(1 0 0 1 1496.0137 756.1227)" style="fill:#8A1538; font-family:'MarselisPro-Light'; font-size:13.9353px;">Sharjah</text>
		<g>
			<path id="Path_10_" style="fill:#8A1538;" d="M1481.2,737.7c-4.7,0-8.1,2.9-8.1,6.6v7.3h2.7c0,0,0-4.1,0-7.3c0-3.5,3-6,6-6.5
				c0.1,0,0.2,0,0.1,0L1481.2,737.7L1481.2,737.7z"/>
			<path id="Path_11_" style="fill:#8A1538;" d="M1481.7,738c-0.2,0.1-0.6,0.2-1,0.5c-1.7,1.1-2.6,3.4-2.6,5.4c0,0.1,0,0.2,0,0.4
				l0,0v0.1v7.3h2.2v-7.3c0-0.5,0.2-0.9,0.5-1.1l0.9,1.1l0.9-1.1c0.4,0.2,0.5,0.7,0.5,1.1v7.3h2.2v-7.3c0-2.1-1.6-4-3.7-4
				c-0.5,0-1,0.1-1.4,0.2l0,0c0.5-0.6,1.1-0.9,2-0.9l0,0c0.2,0,0.5,0,0.7,0.1c2,0.4,3.6,2.1,3.6,4.4c0,0.1,0,0.1,0,0.2v7.2h2.2
				c0,0,0-7.2,0-7.3c0-3.1-1.7-5.7-4.9-6.5c-0.1,0-0.2-0.1-0.5-0.1c-0.2,0-0.5,0-0.7,0C1482.6,737.7,1482.2,737.8,1481.7,738z"/>
		</g>
	</g>
	<g>
		<path id="Rectangle-Copy-2_30_" style="fill:#FFFFFF;" d="M1375.3,630.2h98.6c2.7,0,5,2.2,5,5V661c0,2.7-2.2,5-5,5h-98.6
			c-2.7,0-5-2.2-5-5v-25.9C1370.3,632.4,1372.6,630.2,1375.3,630.2z"/>
		<text transform="matrix(1 0 0 1 1400.2168 645.6373)" style="enable-background:new    ;"><tspan x="0" y="0" style="fill:#8A1538; font-family:'MarselisPro-Bold'; font-size:13.9353px;">City Cent</tspan><tspan x="56.4" y="0" style="fill:#8A1538; font-family:'MarselisPro-Bold'; font-size:13.9353px;">r</tspan><tspan x="61.5" y="0" style="fill:#8A1538; font-family:'MarselisPro-Bold'; font-size:13.9353px;">e</tspan></text>

			<text transform="matrix(1 0 0 1 1400.2168 659.5724)" style="fill:#8A1538; font-family:'MarselisPro-Light'; font-size:13.9353px;">Al Zahia</text>
		<g>
			<path id="Path_12_" style="fill:#8A1538;" d="M1385.4,641.1c-4.7,0-8.1,2.9-8.1,6.6v7.3h2.7c0,0,0-4.1,0-7.3c0-3.5,3-6,6-6.5
				c0.1,0,0.2,0,0.1,0L1385.4,641.1L1385.4,641.1z"/>
			<path id="Path_13_" style="fill:#8A1538;" d="M1386,641.4c-0.2,0.1-0.6,0.2-1,0.5c-1.7,1.1-2.6,3.4-2.6,5.4c0,0.1,0,0.2,0,0.4
				l0,0v0.1v7.3h2.2v-7.3c0-0.5,0.2-0.9,0.5-1.1l0.9,1.1l0.9-1.1c0.4,0.2,0.5,0.7,0.5,1.1v7.3h2.2v-7.3c0-2.1-1.6-4-3.7-4
				c-0.5,0-1,0.1-1.4,0.2l0,0c0.5-0.6,1.1-0.9,2-0.9l0,0c0.2,0,0.5,0,0.7,0.1c2,0.4,3.6,2.1,3.6,4.4c0,0.1,0,0.1,0,0.2v7.2h2.2
				c0,0,0-7.2,0-7.3c0-3.1-1.7-5.7-4.9-6.5c-0.1,0-0.2-0.1-0.5-0.1c-0.2,0-0.5,0-0.7,0C1386.8,641.1,1386.4,641.2,1386,641.4z"/>
		</g>
	</g>
</g>
</svg>
