<?xml version="1.0" encoding="utf-8"?>
<!-- Generator: Adobe Illustrator 19.1.0, SVG Export Plug-In . SVG Version: 6.00 Build 0)  -->
<svg version="1.1" id="app_x5F_UAE--parent" xmlns="http://www.w3.org/2000/svg" xmlns:xlink="http://www.w3.org/1999/xlink"
	 x="0px" y="0px" width="3840px" height="2160px" viewBox="0 0 3840 2160" style="enable-background:new 0 0 3840 2160;"
	 xml:space="preserve">
<g id="app_x5_Dummy--marker">
	<rect width="2" height="2"/>
</g>
<g id="NorthPoint" transform="translate(1831.070256, 181.453972) rotate(56.000000) translate(-1831.070256, -181.453972) translate(1792.570256, 137.953972)">
	<path id="Fill-933_1_" style="fill:#8A1538;" d="M1186.1-1292.5l15.2,19.6l-22.6-7L1186.1-1292.5z M1175.3-1275.1l40.2,10.6l-26-32
		l-40.2-10.6L1175.3-1275.1z M1186.1-1292.5l15.2,19.6l-22.6-7L1186.1-1292.5z M1175.3-1275.1l40.2,10.6l-26-32l-40.2-10.6
		L1175.3-1275.1z M1186.1-1292.5l15.2,19.6l-22.6-7L1186.1-1292.5z M1215.5-1264.5l-26-32l-40.2-10.6l26,32L1215.5-1264.5z
		 M1161.3-1326.3c22-10.8,48.6-2,59.8,20.4c10.8,22,2,48.6-20.4,59.8c-22,10.8-48.6,2-59.8-20.4
		C1130.1-1288.5,1138.9-1314.9,1161.3-1326.3z M1205.3-1237.1c27.4-13.4,37.8-46.8,24.6-73c-13.4-27.2-46-37.4-73.4-24
		c-27.4,13.4-37.4,46.4-24.6,73.2C1146.1-1234.9,1178.5-1224.3,1205.3-1237.1z M1186.1-1292.5l15.2,19.6l-22.6-7L1186.1-1292.5z
		 M1175.3-1275.1l40.2,10.6l-26-32l-40.2-10.6L1175.3-1275.1z M1186.1-1292.5l15.2,19.6l-22.6-7L1186.1-1292.5z M1175.3-1275.1
		l40.2,10.6l-26-32l-40.2-10.6L1175.3-1275.1z M1186.1-1292.5l15.2,19.6l-22.6-7L1186.1-1292.5z M1175.3-1275.1l40.2,10.6l-26-32
		l-40.2-10.6L1175.3-1275.1z M1186.1-1292.5l15.2,19.6l-22.6-7L1186.1-1292.5z M1175.3-1275.1l40.2,10.6l-26-32l-40.2-10.6
		L1175.3-1275.1z"/>
	<g id="Back-Copy-5_1_" transform="translate(34.000000, 0.000000)">

			<text transform="matrix(0.5505 -0.8348 0.8348 0.5505 1090.3087 -1312.9132)" style="fill:#8A1538; font-family:'ArialMT'; font-size:27.7598px;">N</text>
	</g>
</g>
<g>
	<g id="Map-ID-Grey" transform="translate(908.000000, 742.000000)">
		<polygon id="Fill-124" style="fill:#989898;" points="921.8,686.2 921.8,733.8 937.6,733.8 945.4,742.2 953.6,733.8 969.4,733.8
			969.4,686.2 		"/>
		<g id="Group" transform="translate(5.000000, 5.000000)">
			<path id="Path" style="fill:#FFFFFF;" d="M939.4,692.4c-7.6,0-13,5-13,12v13.4h4.4c0,0,0-7.4,0-13.4c0-6.2,4.8-10.8,9.6-11.8
				c0.2,0,0.4,0,0.2,0L939.4,692.4L939.4,692.4z"/>
			<path id="Path_1_" style="fill:#FFFFFF;" d="M940.4,693c-0.4,0.2-1.2,0.4-1.8,1c-3.4,2-4.8,6-5.2,9.8c0,0.2,0,0.4,0,0.6l0,0v0.2
				V718h4.4v-13.4c0-1,0.4-1.6,1-2l1.6,2l1.6-2c0.6,0.4,1,1.2,1,2V718h4.4v-13.4c0-4-3.2-7.2-7.2-7.2c-1,0-1.8,0.2-2.6,0.4l0,0
				c1-1.2,2.4-1.6,3.8-1.6l0,0c0.4,0,1,0,1.4,0c4,0.6,7,4,7,7.8c0,0.2,0,0.2,0,0.4v13.2h4.4v-13.2c0-5.8-3.4-10.4-9.2-11.8
				c-0.2,0-0.4-0.2-1-0.2c-0.4,0-1,0-1.4,0C941.8,692.6,941,692.6,940.4,693z"/>
		</g>
	</g>
	<text transform="matrix(1 0 0 1 1891.6641 1462.626)" style="fill:#989898; font-family:'MarselisPro'; font-size:33.9974px;">ABU DHABI</text>
</g>
<g>
	<g id="Map-ID-Grey_1_" transform="translate(1173.000000, 812.000000)">
		<polygon id="Fill-124_2_" style="fill:#989898;" points="1157.2,748.6 1157.2,796 1173,796 1181,804.6 1189,796 1204.8,796
			1204.8,748.6 		"/>
		<g id="Group_2_" transform="translate(5.000000, 5.000000)">
			<path id="Path_4_" style="fill:#FFFFFF;" d="M1175,754.6c-7.6,0-13,5-13,12V780h4.4c0,0,0-7.4,0-13.4c0-6.2,4.8-10.8,9.6-11.8
				c0.2,0,0.4,0,0.2,0L1175,754.6L1175,754.6z"/>
			<path id="Path_5_" style="fill:#FFFFFF;" d="M1175.8,755.2c-0.4,0.2-1.2,0.4-1.8,1c-3.4,2-4.8,6-5.2,9.8c0,0.2,0,0.4,0,0.6l0,0
				v0.2v13.4h4.4v-13.4c0-1,0.4-1.6,1-2l1.6,2l1.6-2c0.6,0.4,1,1.2,1,2v13.4h4.4v-13.4c0-4-3.2-7.2-7.2-7.2c-1,0-1.8,0.2-2.6,0.4
				l0,0c1-1.2,2.4-1.6,3.8-1.6l0,0c0.4,0,1,0,1.4,0c4,0.6,7,4,7,7.8c0,0.2,0,0.2,0,0.4v13.2h4.4v-13.2c0-5.6-3.6-10.2-9.4-11.6
				c-0.2,0-0.4-0.2-1-0.2c-0.4,0-1,0-1.4,0C1177.2,754.8,1176.6,755,1175.8,755.2z"/>
		</g>
	</g>
	<text transform="matrix(1 0 0 1 2394.3926 1594.8389)" style="fill:#989898; font-family:'MarselisPro'; font-size:33.9974px;">AL AIN</text>
</g>
<g>
	<g id="Map-ID-Grey_2_" transform="translate(1232.000000, 373.000000)">
		<polygon id="Fill-124_4_" style="fill:#989898;" points="1209.6,358.4 1209.6,405.8 1225.4,405.8 1233.4,414.4 1241.2,405.8
			1257.2,405.8 1257.2,358.4 		"/>
		<g id="Group_4_" transform="translate(5.000000, 5.000000)">
			<path id="Path_8_" style="fill:#FFFFFF;" d="M1227.4,364.6c-7.6,0-13,5-13,12V390h4.4c0,0,0-7.4,0-13.4c0-6.2,4.8-10.8,9.4-11.8
				c0.2,0,0.4,0,0.2,0h-1.2v-0.2H1227.4z"/>
			<path id="Path_9_" style="fill:#FFFFFF;" d="M1228,365c-0.4,0.2-1,0.4-1.8,0.8c-3.4,2-4.8,6-5,9.8c0,0.2,0,0.4,0,0.6l0,0v0.2V390
				h4.4v-13.4c0-1,0.4-1.6,1-2l1.6,2l1.6-2c0.6,0.4,1,1.2,1,2V390h4.2v-13.4c0-4-3.2-7.2-7.2-7.2c-1,0-1.8,0.2-2.6,0.4l0,0
				c1-1.2,2.4-1.6,3.8-1.6l0,0c0.4,0,1,0,1.4,0c4,0.6,7,4,7,7.8c0,0.2,0,0.2,0,0.4v13.2h4.4v-13.2c0-5.8-3.4-10.4-9.2-11.8
				c-0.2,0-0.4-0.2-1-0.2c-0.4,0-1,0-1.4,0C1229.8,364.6,1229,364.8,1228,365z"/>
		</g>
	</g>
	<text transform="matrix(1 0 0 1 2501.4082 765.6758)" style="fill:#989898; font-family:'MarselisPro'; font-size:33.9974px;">RAS AL-KHAIMAH</text>
</g>
<g id="app_x5F_Dubai--button">
	<g transform="translate(1032.000000, 577.000000)">
		<polygon id="Fill-124_1_" style="fill:#8A1538;" points="1032,539.8 1032,587.2 1047.8,587.2 1055.6,595.8 1063.8,587.2
			1079.6,587.2 1079.6,539.8 		"/>
		<g id="Group_1_" transform="translate(5.000000, 5.000000)">
			<path id="Path_2_" style="fill:#FFFFFF;" d="M1049.6,545.8c-7.6,0-13,5-13,12v13.4h4.4c0,0,0-7.4,0-13.4c0-6.2,4.8-10.8,9.6-11.8
				c0.2,0,0.4,0,0.2,0L1049.6,545.8L1049.6,545.8z"/>
			<path id="Path_3_" style="fill:#FFFFFF;" d="M1050.6,546.4c-0.4,0.2-1.2,0.4-1.8,1c-3.4,2-4.8,6-5.2,9.8c0,0.2,0,0.4,0,0.6l0,0
				v0.2v13.4h4.4V558c0-1,0.4-1.6,1-2l1.6,2l1.6-2c0.6,0.4,1,1.2,1,2v13.4h4.4V558c0-4-3.2-7.2-7.2-7.2c-1,0-1.8,0.2-2.6,0.4l0,0
				c1-1.2,2.4-1.6,3.8-1.6l0,0c0.4,0,1,0,1.4,0c4,0.6,7,4,7,7.8c0,0.2,0,0.2,0,0.4V571h4.4v-13.2c0-5.8-3.4-10.4-9.2-11.8
				c-0.2,0-0.4-0.2-1-0.2c-0.4,0-1,0-1.4,0C1052,545.8,1051.4,546,1050.6,546.4z"/>
		</g>
	</g>
	<text transform="matrix(1 0 0 1 2128.0742 1150.9814)" style="fill:#8A1538; font-family:'MarselisPro'; font-size:33.9974px;">DUBAI</text>
	<path id="Line-4-Copy-3" style="fill:none;stroke:#8A1538;stroke-width:4.419;" d="M2064,1141.2h-146"/>
	<g>
		<g>
			<path d="M1770.2,1106.4c0.2,0.6,0.8,1,1.8,1h7.8l-3,4.8h-9.8l-0.2-19.8c0,0,0.2-0.6,1.6-2.4c0.8-1,1.4-1.8,1.8-2.2
				C1770,1091,1769.8,1105.2,1770.2,1106.4 M1804.2,1095l0.2,17.6c1.4-0.6,3.2-0.8,3.6-4.2c0.2-3,0.2-11.4-0.2-18
				C1805.8,1093,1805.2,1093.2,1804.2,1095 M1875.4,1096.2l-3,5.2c1.6,1.8,2.6,3.4,3,5.2l0,0c0.4,1.4,0.6,2.6,0.6,4.8
				c-0.4-1.8-1-3.2-1.6-3.8h-8.4c-0.8,0-1-0.4-1-0.6c-0.4-1.8-0.8-4.2-1-7.2c-0.2-2.4-0.2-4.8-0.4-7.2c-0.2-1.8-0.4-3.4-0.6-4.4
				c-0.6,0.6-1.2,1.2-1.8,2c-0.6,1-0.8,1.8-0.8,2.8c0,2.6,0,4.4-0.2,5.6c-0.2,2-1,3.8-2,5.2c-0.2,0.2-0.4,0.8-0.6,1.2v0.2
				c0,0,0,0.2,0,0.4c0,0.8,0,2.2-0.8,3.2l-0.4,0.4v-0.4c0.4-3-1.8-10.2-4-13.2c-2-2.6-5.2-5.2-7.8-6.2c-0.8,2.6-1.2,4.4-1.2,6.6
				c0,0.6,5.4,4.2,5.8,4l1-0.4h0.2c3.6,3.2,4.6,6.6,4.6,7c0,1.2-2.2,2.8-6.6,5l-8.6,3.4c0,0-0.2,0-0.2,0.2s0.2,0,0.2,0h1.8
				c9,0,14.8-1.6,17-6.2c1-2.4,1.6-4.4,2-5.6l0.2-0.4l0.2,0.4c0.4,1.2,0.8,3,0.8,4.8c0,1.6,0.2,2.6,0.2,4.2h15.4
				c1.2-3.6,1.8-5.6,1.8-7.4C1879.4,1101.8,1878,1098.8,1875.4,1096.2 M1797.6,1089.8c-0.4-0.6-0.6-1.4-0.6-1.8c-1,1-2,2.8-3,5
				c-0.2,0.6-0.2,1.2,0.2,1.6c0.4,0.4,1,0.8,1,0.8l0,0c0.4,0.8,0.6,10.4,0.6,11.4l0,0c0,1.4,0,2.4-0.6,4.4c0-1.6-0.2-2.8-0.6-3.8
				h-8.2v-0.2c0-0.2,0.4-0.4,1-1.4c0.4-0.8,0.6-1.8,0.6-2.4c0-1.4-0.6-2.4-2-3.4s-2.4-1.4-3.8-1.2c-2,0-2.8,0.6-4,1.8
				c-0.6,0.6-1.4,2.2-2.6,4.6c1.4-0.2,1.6-0.2,1.6-0.2c1.8,0,3.2,0.8,4.4,2.4c0.2,0.2,3.2,4.2,3.6,5.2h11.6c0.4,0,0.8-0.4,0.8-0.4
				c0.2-0.2,0.4-0.4,1-2.6c0.4-1.8,0.4-2.6,0.4-3.2l0.2-9l1.8-3.8C1800.2,1092.6,1797.8,1090.2,1797.6,1089.8 M1839,1092.8
				c-1-0.6-3.4-3-3.6-3.6c-0.4-0.6-0.6-1.4-0.6-1.8c-1,1-2,2.8-3,5c-0.2,0.6-0.2,1.2,0.2,1.6c0.4,0.4,1,0.8,1,0.8l0,0
				c0.4,0.8,1.6,9.8,1.8,11c0,0.2,0.2,1.2,0.2,2c0.2,1.4,0.2,3-1.2,5.6c0.2-1,0.2-2.2,0.2-3c-0.6,0.4-1.4,0.6-2.2,0.8
				c-1.8,0.4-3.2,0.6-4.4,0.6c-1.4,0-2.8-0.4-4-1.2c-1.4-1-2-2.2-2-3.6c0-0.6,0.4-1.6,1-3.4c0.2-0.2,0.2-0.4,0-0.4l0,0l0,0
				c-0.4,0-1.6,1-2.4,2.6c-1,2.4-1.2,3.8-1.2,5.4c0,2,0.8,3,2.2,4c1.2,1,3,1.4,5,1.4c2.6,0,5.2-0.6,7.4-2.2c2.4-1.6,3.4-3.2,4.2-5.6
				c0.2-0.4,0.6-1.6,0.6-3.4l-1-9.2L1839,1092.8z M1757.6,1101.8c0,0-1.6-2-2.2-2.6s-1.2-0.8-1.6-0.8c-0.6,0-1.2,0.4-1.8,1.2
				c0,0,0,0,0,0.2c0,2.6,3.2,3.2,5,2.4L1757.6,1101.8z M1760.6,1098.6c1.2,3,1.6,4.4,1.4,7.6l-1,6.2h-23.6c-1.6,0-3,0-4.2-1.2
				s-1.8-2.8-1.8-4.4c0-1,0.2-2.6,0.8-4.4c0.6-2,1.2-3.2,1.8-3.6c0.4,0,0.4,0.2,0.4,0.4c0,0.4-0.2,1-0.4,1.8c-0.2,0.8-0.4,1.6-0.4,2
				c0,1.2,0.4,2.2,1.2,3.2c0.8,1,2,1.4,3.2,1.4h19.6c0.4,1,0.8,2.6,1,4.2c0.2-1.6,0.2-3.2,0-4.6l0,0c0-0.4-0.2-1-0.4-2
				c-0.2-1.4-0.8-2.8-0.8-2.8l-0.2,0.2c-1,1.6-3,3.4-5,3.4c-1.2,0-1.8-0.2-2.8-0.8c-1.2-0.6-1.6-1.4-1.6-2.4c0-1.6,1-3.4,2.8-5.6
				c1.8-2,3.6-3.2,5.2-3.2C1757.8,1094,1759.4,1095.6,1760.6,1098.6 M1747.2,1091.8l3,3l3-3l-3-3L1747.2,1091.8z M1779.8,1092.8l3,3
				l3-3l-3-3L1779.8,1092.8z M1865.4,1091l3,3l3-3l-3-3L1865.4,1091z M1870.8,1091l3,3l3-3l-3-3L1870.8,1091z M1860.8,1132.2
				c-2.6,0-4.6,1.4-5.6,3.4l0,0v-10.2l-4.8,0.6v24h4.8v-13.6l0,0c0.8-0.4,1.6-0.6,2.4-0.6c2.2,0,3.4,1.4,3.4,4l0,0v10.2h4.8v-12
				C1865.8,1134,1863.6,1132.2,1860.8,1132.2 M1801,1149.8h5.6l-9.2-24.6l-3.4,0.4l-9.8,24.2h3l2.4-5.8h5.4l-0.4-2.4h-4l4-10
				L1801,1149.8z M1743.4,1149.8h4.8v-24.6l-4.8,0.6V1149.8z M1771,1149.8h4.8v-24.6l-4.8,0.6V1149.8z M1711.4,1128.6h6.6l0,0v21
				h5.2v-21l0,0h6.6v-2.8h-18.6v2.8H1711.4z M1733,1127.4l3,3l3-3l-3-3L1733,1127.4z M1733.4,1149.8h4.8v-17.2l-4.8,0.6V1149.8z
				 M1810,1149.8h4.8v-24.6l-4.8,0.6V1149.8z M1840.2,1145.6c-1,0.6-2,1-3.6,1c-4.2,0-8-4-8-10.8c0-4.8,2.6-8,6.4-8
				c2.8,0,5.4,2,5.2,5l5.2-0.8c-0.4-4.4-4.8-6.8-9.8-6.8c-6.2,0-12.2,4.4-12.2,12.8c0,7.6,4.8,12,10.2,12c3.4,0,5.4-1.6,6.6-3.8v3.4
				h5.2v-11l-5.2,0.6L1840.2,1145.6L1840.2,1145.6z M1877.2,1132c-1.8,0-3.2,0.4-4.4,1.2c-1.4,1-2.2,2.4-2.6,4.4
				c1.2-1.2,3.4-2.2,5-2.2c2.2,0,4,1,4,3.8v2.8v3.8c-0.8,0.6-1.8,0.8-2.6,0.8c-1.8,0-2.6-1.2-2.6-2.6s0.6-2.8,0.6-2.8
				c-3.4,1.2-5,3-5,5.2c0,2,1.4,3.6,4,3.6c2.4,0,4.6-1.4,5.6-3.6v3.2h4.6v-10.8C1883.8,1135,1881.6,1132,1877.2,1132 M1759.8,1132
				c-1.8,0-3.2,0.4-4.4,1.2c-1.4,1-2.2,2.4-2.6,4.4c1.2-1.2,3.4-2.2,5-2.2c2.2,0,4,1,4,3.8v2.8v3.8c-0.8,0.6-1.8,0.8-2.6,0.8
				c-1.8,0-2.6-1.2-2.6-2.6s0.6-2.8,0.6-2.8c-3.4,1.2-5,3-5,5.2c0,2,1.4,3.6,4,3.6c2.4,0,4.6-1.4,5.6-3.6v3.2h4.6v-10.8
				C1766.6,1135,1764.2,1132,1759.8,1132 M1894.4,1132.4v-0.6c0-2.6,1-3.6,3-3.6c0.6,0,1.2,0,1.8,0.2c-0.2-1.8-1.8-3-4.2-3
				c-3.6,0-5.4,2.6-5.4,5.8v1.2h-2.6v2.6h2.6v14.6h4.8V1135h5.2v-2.6H1894.4z M1738.4,1171.2c2.8,0,4.4-2.4,4.4-4.6
				s-1.4-4.4-4.2-4.4h-2v8.8L1738.4,1171.2 M1738.8,1161c3.8,0,5.6,2.8,5.6,5.6c0,3-2,6-5.8,6h-3.2V1161H1738.8 M1758.6,1161h-1.4
				v7.2c0,1.6-0.6,3.2-2.8,3.2c-2.2,0-2.8-1.6-2.8-3.2v-7.2h-1.6v7.4c0,2.6,1.6,4.6,4.4,4.6c2.6,0,4.4-1.8,4.4-4.6v-7.4H1758.6z
				 M1770,1171.2c1.4,0,2-1,2-2s-0.6-2-2.2-2h-3.2v4H1770 M1766.8,1165.8h2.8c1.2,0,1.8-0.8,1.8-1.8c0-0.8-0.6-1.8-2-1.8h-2.8
				L1766.8,1165.8L1766.8,1165.8z M1771.4,1166.4c1.6,0.4,2.2,1.6,2.2,2.8c0,1.6-1.2,3.4-4,3.4h-4.4V1161h4.2c2.4,0,3.4,1.4,3.4,2.8
				C1773,1164.8,1772.6,1166,1771.4,1166.4 M1795.4,1172.6h1.4V1161h-1.4V1172.6z M1786.8,1168.4l-2.4-5.6l-2.4,5.6H1786.8z
				 M1790.2,1172.6h-1.6l-1.2-3h-6l-1.2,3h-1.6l5.2-11.6h1.4L1790.2,1172.6z M1869,1163.8c4.4,0,6.6,2.4,6.6,8.8h-10.2l0.6-1.6h8
				c-0.2-4.2-1.8-5.8-5.2-5.8h-1.2l0.6-1.4H1869z M1859.2,1171v-7l1.4-0.2v8.8H1842l-0.2-1.6L1859.2,1171z M1832.6,1172.6v-7.4h-5.6
				c-2.6,0-3.8,0.8-3.8,1.8c0,0.6,0.4,1,1.2,1.6l1.4,0.6c1.2,0.6,1.8,1.4,1.8,2.6c0,2-2.2,3.6-6.6,3.6c-5,0-7-2-7-7v-1.6h1.4v1.2
				c0,4.6,1.6,5.8,5.8,5.8c3.6,0,5.2-0.8,5.2-2c0-0.6-0.4-1-1.4-1.6l-1.2-0.6c-1.2-0.6-1.8-1.4-1.8-2.6c0-1.8,1.6-3.4,4.8-3.4h7.2
				v7.4h8.2v1.6H1832.6z M1860,1173.2l1,1l-1,1l-1-1L1860,1173.2z M1820,1176l1,1l-1,1l-1-1L1820,1176z M1821.8,1176l1,1l-1,1l-1-1
				L1821.8,1176z"/>
		</g>
		<g>
			<path d="M1813.8,1060v13h13.6v-14c-2.6,0.6-5.4,1-8,1H1813.8z"/>
			<path d="M1819.2,1014.4c-3.8-3-8.6-4.8-13.8-4.8c-2.8,0-5.6,0.6-8.2,1.6l0,0c2.8-3.2,7-5,11.6-5l0,0c1.4,0,3,0,4.4,0.4
				c5.8,1,11,3.8,14.8,7.8c6.2,0,11.8,0,16.2,0c-4.6-9.2-13.2-16-24.8-18.8c-0.6-0.2-1.8-0.4-2.6-0.4c-1.4-0.2-2.8-0.4-4.2-0.4
				c-3,0-5,0.6-7.6,1.4c-1.8,0.6-3.6,1.4-6,2.8c-6,3.8-10.2,9.4-12.6,15.6c1.6-0.2,3.2-0.4,4.8-0.4
				C1798.2,1014.4,1808.8,1014.4,1819.2,1014.4z"/>
			<path d="M1843,1049.8c-2.6,2.6-5.4,4.6-8.2,6.2v16.8h13.6c0,0,0-17.6,0-29.8C1846.8,1045.6,1845,1047.8,1843,1049.8z"/>
			<path d="M1824.4,1020.6c-12,0-25.2,0-33.2,0c-2.4,0-4.6,0.4-6.8,1c-0.6,2.6-0.8,5.2-1,7.8c0,0.6,0,1.4,0,2l0,0c0,0,0,0.4,0,0.6
				v22.2h13.6V1032c0-2.6,1.2-5,3-6.4l5.4,6.4l5.4-6.4c1.8,1.6,3,3.8,3,6.4v22.2h5.6c2.8,0,5.4-0.4,8-1.4V1032
				C1827.4,1027.6,1826.4,1023.8,1824.4,1020.6z"/>
			<path d="M1832.2,1020.6c1.6,3.2,2.4,6.6,2.4,10.4c0,0.4,0,1,0,1.4v16.6c1.4-1,2.8-2,4-3.4c4.6-4.6,7.8-10.6,9.6-17.4
				c-0.2-2.6-0.8-5.2-1.4-7.6C1843,1020.6,1838,1020.6,1832.2,1020.6z"/>
			<path d="M1762.6,1073h13.6c0,0,0-5.4,0-13h-13.6V1073z"/>
			<path d="M1776.6,1025c-6.8,4.4-11.8,11.8-14.2,21v8h13.6c0-7,0-15.2,0-22.6C1776.2,1029,1776.4,1027,1776.6,1025z"/>
			<rect x="1783.4" y="1060" width="13.6" height="13"/>
			<path d="M1779,1016.8c5-11.8,16-19.8,26.8-22c0.6-0.2,1.4-0.4,0.6-0.4h-4c-23.4,0-39.6,15.6-40,36.4
				C1766.8,1024.4,1772.4,1019.4,1779,1016.8z"/>
			<path style="fill:#5E6738;" d="M1819.4,1053.8h-5.6v6.2h5.6c2.8,0,5.4-0.4,8-1v-6.4C1824.8,1053.4,1822.2,1053.8,1819.4,1053.8z"
				/>
			<path style="fill:#5E6738;" d="M1848.4,1043.2c0-6.4,0-11.2,0-11.2c0-1.2,0-2.6-0.2-3.8c-1.6,6.8-5,12.8-9.6,17.4
				c-1.2,1.2-2.6,2.4-4,3.4v7.2c3-1.6,5.8-3.6,8.2-6.2C1845,1047.8,1846.8,1045.6,1848.4,1043.2z"/>
			<path style="fill:#5E6738;" d="M1762.6,1053.8v6.2h13.6c0-2,0-4,0-6.2H1762.6z"/>
			<rect x="1783.4" y="1053.8" style="fill:#5E6738;" width="13.6" height="6.2"/>
			<path style="fill:#5E6738;" d="M1762.6,1045.8c2.4-9,7.4-16.6,14.2-21c0.4-2.8,1.4-5.6,2.4-8.2c-6.6,2.6-12.4,7.6-16.6,14
				c0,0.2,0,0.4,0,0.6V1045.8z"/>
			<path style="fill:#5E6738;" d="M1791.2,1020.6c8.2,0,21.2,0,33.2,0c-1.4-2.4-3.2-4.4-5.4-6.2c-10.4,0-21,0-28,0
				c-1.6,0-3.2,0.2-4.8,0.4c-0.8,2.2-1.6,4.4-2,6.6C1786.6,1020.8,1788.8,1020.6,1791.2,1020.6z"/>
			<path style="fill:#5E6738;" d="M1832.2,1020.6c5.8,0,10.8,0,14.4,0c-0.6-2.2-1.4-4.2-2.4-6.2c-4.4,0-10,0-16.2,0
				C1829.8,1016.2,1831.2,1018.2,1832.2,1020.6z"/>
		</g>
	</g>
	<polygon style="fill:#FFFFFF;fill-opacity:0;" points="2111.6,1116.8 2111.2,1174.4 1711.4,1174.4 1711.4,994.4 1887,994.4
		2064,1116.8 	"/>
</g>
<g id="app_x5F_Sharjah--button">
	<g transform="translate(1066.000000, 527.000000)">
		<polygon id="Fill-124_3_" style="fill:#8A1538;" points="1061.8,495.2 1061.8,542.6 1077.8,542.6 1085.6,551.2 1093.4,542.6
			1109.4,542.6 1109.4,495.2 		"/>
		<g id="Group_3_" transform="translate(5.000000, 5.000000)">
			<path id="Path_6_" style="fill:#FFFFFF;" d="M1079.6,501.2c-7.6,0-13,5-13,12v13.4h4.4c0,0,0-7.4,0-13.4c0-6.2,4.8-10.8,9.4-11.8
				c0.2,0,0.4,0,0.2,0L1079.6,501.2L1079.6,501.2z"/>
			<path id="Path_7_" style="fill:#FFFFFF;" d="M1080.4,502c-0.4,0.2-1.2,0.4-1.8,1c-3.4,2-4.8,6-5,9.8c0,0.2,0,0.4,0,0.6l0,0v0.2
				V527h4.4v-13.4c0-1,0.4-1.6,1-2l1.6,2l1.6-2c0.6,0.4,1,1.2,1,2V527h4.4v-13.4c0-4-3.2-7.2-7.2-7.2c-1,0-1.8,0.2-2.6,0.4l0,0
				c1-1.2,2.4-1.6,3.6-1.6l0,0c0.4,0,1,0,1.4,0c4,0.6,7,4,7,7.8c0,0.2,0,0.2,0,0.4v13.2h4.4v-13.2c0-5.8-3.4-10.4-9.2-11.8
				c-0.2,0-0.4-0.2-1-0.2c-0.4,0-1,0-1.4,0C1082,501.6,1081.2,501.8,1080.4,502z"/>
		</g>
	</g>
	<text transform="matrix(1 0 0 1 2192.2949 1056.5439)" style="fill:#8A1538; font-family:'MarselisPro'; font-size:33.9974px;">SHARJAH</text>
	<path id="Line-4-Copy-5" style="fill:none;stroke:#8A1538;stroke-width:4.419;" d="M2150.6,1023.4V899"/>
	<g>
		<g id="XMLID_211_">
			<path id="XMLID_224_" style="fill:#001C71;" d="M2104,852.2c-1.8,2-4,3-6.6,3c-2.4,0-4.6-1-6.4-2.8c-1.8-1.8-2.6-4-2.6-6.4
				c0-2.6,1-4.8,2.8-6.6s4-2.8,6.6-2.8s4.8,1,6.6,2.8s2.8,4,2.8,6.6v9h-3v-2.8H2104z M2104,846c0-1.8-0.6-3.2-1.8-4.4
				s-2.8-1.8-4.4-1.8c-1.8,0-3.2,0.6-4.4,1.8s-1.8,2.6-1.8,4.4c0,1.8,0.6,3.2,1.8,4.4s2.8,1.8,4.4,1.8c1.8,0,3.2-0.6,4.4-1.8
				S2104,847.8,2104,846"/>
			<rect id="XMLID_223_" x="2111.2" y="829.4" style="fill:#001C71;" width="3" height="25.6"/>
			<polygon id="XMLID_222_" style="fill:#001C71;" points="2137,840 2127.4,840 2127.4,837 2142.6,837 2132.8,852 2142.6,852
				2142.6,855 2127.4,855 			"/>
			<path id="XMLID_219_" style="fill:#001C71;" d="M2160.2,852.2c-1.8,2-4,3-6.6,3c-2.4,0-4.6-1-6.4-2.8c-1.8-1.8-2.6-4-2.6-6.4
				c0-2.6,1-4.8,2.8-6.6s4-2.8,6.6-2.8s4.8,1,6.6,2.8s2.8,4,2.8,6.6v9h-3v-2.8H2160.2z M2160.2,846c0-1.8-0.6-3.2-1.8-4.4
				s-2.8-1.8-4.4-1.8c-1.8,0-3.2,0.6-4.4,1.8s-1.8,2.6-1.8,4.4c0,1.8,0.6,3.2,1.8,4.4s2.8,1.8,4.4,1.8c1.6,0,3.2-0.6,4.4-1.8
				C2159.6,849.2,2160.2,847.8,2160.2,846"/>
			<path id="XMLID_218_" style="fill:#001C71;" d="M2180,844.6c0-1.4-0.4-2.4-1.4-3.4s-2-1.4-3.4-1.4c-1.2,0-2.4,0.4-3.4,1.4
				s-1.4,2-1.4,3.4V855h-3v-25.6h3v9.8c1.4-1.6,3.2-2.4,5.4-2.4c2,0,3.8,0.8,5.2,2.4c1.4,1.6,2,3.4,2,5.4V855h-3L2180,844.6
				L2180,844.6z"/>
			<path id="XMLID_215_" style="fill:#001C71;" d="M2188.2,831h3v3h-3V831z M2188.2,837h3v18h-3V837z"/>
			<path id="XMLID_212_" style="fill:#001C71;" d="M2210.2,852.2c-1.8,2-4,3-6.6,3c-2.4,0-4.6-1-6.4-2.8c-1.8-1.8-2.6-4-2.6-6.4
				c0-2.6,1-4.8,2.8-6.6s4-2.8,6.6-2.8s4.8,1,6.6,2.8s2.8,4,2.8,6.6v9h-3v-2.8H2210.2z M2210.2,846c0-1.8-0.6-3.2-1.8-4.4
				s-2.8-1.8-4.4-1.8c-1.8,0-3.2,0.6-4.4,1.8s-1.8,2.6-1.8,4.4c0,1.8,0.6,3.2,1.8,4.4s2.8,1.8,4.4,1.8c1.8,0,3.2-0.6,4.4-1.8
				C2209.6,849.2,2210.2,847.8,2210.2,846"/>
		</g>
		<path id="XMLID_198_" style="fill:#001C71;" d="M2096.8,796.4h-3v3h3V796.4z M2202.4,813.2c0,1.2-0.4,2.4-1.4,3.4s-2,1.4-3.4,1.4
			H2186v-10.2h-3v14c0,1.4-0.4,2.4-1.4,3.2c-1,1-2,1.4-3.4,1.4v3c2,0,4-0.8,5.6-2.4c1.6-1.6,2.4-3.2,2.4-5.4v-0.8h12.2l0,0
			c1.8,0,3.4-1,4.8-2.4c1.6-1.6,2.4-3.4,2.4-5.4v-17.8h-3v18H2202.4z M2121.4,826.6h3v-3h-3V826.6z M2101.2,796.4h-3v3h3V796.4z
			 M2186,801.8h-3v3h3V801.8z M2125.8,826.6h3v-3h-3V826.6z M2155.2,802.6c-0.2,0-0.8-0.4-1.6-0.4c-0.4-0.2-0.8-0.2-1.4-0.2
			c-0.6,0-1.2-0.2-2-0.2c-0.2,0-0.4,0-0.6,0c-1.2,0-2.4,0.2-3.4,0.4c-1,0.4-2,0.8-3,1.4v3.4c0.8-0.8,2-1.4,3-1.8
			c1-0.4,2.2-0.6,3.4-0.6h0.2l0,0c3-0.2,5.2,1.4,5.2,1.4c2.8,1.6,5,5,5,9.6c0,0.8,0,1.6-0.2,2.2h-5.6c0.8-1.2,1.4-2.4,1.4-3.8
			c0-1.8-0.6-3.2-1.8-4.4s-2.8-1.8-4.4-1.8c-1.6,0-3.2,0.6-4.4,1.8s-1.8,2.6-1.8,4.4c0,1.6,0.6,2.8,1.6,4h-14.2
			c-1.2,0-1.6-0.4-2.6-1.2c-0.8-0.8-1.4-1.8-1.4-2.8c0,0,0,0.2,0,0v-10.4h-3c0,0,0,10.2,0,10.4c0,1-0.6,2-1.4,2.8
			c-1,1-2,1.2-3.4,1.2h-8l0,0c-1.2,0-2-0.4-2.8-1.2s-1.2-1.4-1.2-2.6V814c0,0,0-1,0-1.4v-0.8c0-2.6-1-4.8-2.8-6.6s-4-2.8-6.6-2.8
			s-4.8,1-6.6,2.8s-2.8,4-2.8,6.6c0,2.4,0.8,4.6,2.6,6.4c1.8,1.8,3.8,2.8,6.4,2.8c2.6,0,4.8-1,6.6-3c0,0,0.6-0.8,0.8-1l0.4,0.6
			c0.2,0.4,0.6,0.8,1,1.2c1.4,1.4,3.2,2.2,5,2.2l0,0h8.2l0,0c1.8-0.2,3.4-0.8,4.8-2.2c0.4-0.4,0.6-0.6,0.8-1c0.2,0.4,0.6,0.6,0.8,1
			c1.4,1.4,2.6,2.2,4.2,2.2h32.6c0.4-1.6,0.6-3.4,0.6-4.8c0-3.4-0.8-6.2-2.4-8.6C2159.8,805.4,2157.6,803.4,2155.2,802.6z M2102,816
			c-1.2,1.2-2.8,1.8-4.4,1.8c-1.8,0-3.2-0.6-4.4-1.8s-1.8-2.8-1.8-4.4c0-1.8,0.6-3.2,1.8-4.4s2.8-1.8,4.4-1.8c1.8,0,3.2,0.6,4.4,1.8
			s1.8,2.6,1.8,4.4S2103.2,814.8,2102,816z M2151.8,816.2c-0.6,0.6-1.4,1-2.4,1s-1.6-0.4-2.4-1c-0.6-0.6-1-1.4-1-2.4
			c0-0.8,0.4-1.6,1-2.4c0.6-0.6,1.4-1,2.4-1s1.6,0.4,2.4,1c0.6,0.6,1,1.4,1,2.4S2152.6,815.6,2151.8,816.2z M2171.4,820.8h3v-25.6
			h-3V820.8z M2210.2,795.2v25.6h3v-25.6H2210.2z"/>
		<g id="XMLID_74_">
			<g id="XMLID_91_">
				<path id="XMLID_197_" style="fill:#0075C9;" d="M2089,877.8c0-0.8-0.2-1.4-0.8-2s-1.2-0.8-2-0.8s-1.4,0.2-2,0.8s-0.8,1.2-0.8,2
					v6.2h-1.8v-14h1.8v4.8c0.8-1,2-1.4,3.2-1.4s2.2,0.4,3,1.4c0.8,0.8,1.2,2,1.2,3.2v6.2h-1.8L2089,877.8L2089,877.8z"/>
				<path id="XMLID_194_" style="fill:#0075C9;" d="M2102.6,882.4c-1,1.2-2.4,1.8-3.8,1.8c-1.4,0-2.8-0.6-3.8-1.6s-1.6-2.4-1.6-3.8
					c0-1.4,0.6-2.8,1.6-3.8s2.4-1.6,3.8-1.6c1.6,0,2.8,0.6,3.8,1.6s1.6,2.4,1.6,3.8v5.2h-1.8L2102.6,882.4L2102.6,882.4z
					 M2102.6,878.8c0-1-0.4-1.8-1-2.6c-0.8-0.8-1.6-1-2.6-1s-1.8,0.4-2.6,1c-0.8,0.8-1,1.6-1,2.6s0.4,1.8,1,2.6c0.8,0.8,1.6,1,2.6,1
					s1.8-0.4,2.6-1C2102.2,880.6,2102.6,879.8,2102.6,878.8"/>
				<path id="XMLID_193_" style="fill:#0075C9;" d="M2111.6,875c-0.8,0-1.4,0.2-2,0.8s-0.8,1.2-0.8,2v6.2h-1.8v-6.2
					c0-1.2,0.4-2.2,1.4-3.2s2-1.4,3.2-1.4L2111.6,875L2111.6,875z"/>
				<path id="XMLID_97_" style="fill:#0075C9;" d="M2116.6,883c0,1.2-0.4,2.2-1.4,3.2s-2,1.4-3.2,1.4v-1.8c0.8,0,1.4-0.2,2-0.8
					s0.8-1.2,0.8-2v-9.4h1.8L2116.6,883L2116.6,883z M2114.8,870h1.8v1.8h-1.8V870z"/>
				<path id="XMLID_94_" style="fill:#0075C9;" d="M2128.4,882.4c-1,1.2-2.4,1.8-3.8,1.8c-1.4,0-2.8-0.6-3.8-1.6s-1.6-2.4-1.6-3.8
					c0-1.4,0.6-2.8,1.6-3.8s2.4-1.6,3.8-1.6c1.6,0,2.8,0.6,3.8,1.6s1.6,2.4,1.6,3.8v5.2h-1.8L2128.4,882.4L2128.4,882.4z
					 M2128.4,878.8c0-1-0.4-1.8-1-2.6c-0.8-0.8-1.6-1-2.6-1s-1.8,0.4-2.6,1c-0.8,0.8-1,1.6-1,2.6s0.4,1.8,1,2.6c0.8,0.8,1.6,1,2.6,1
					s1.8-0.4,2.6-1C2128,880.6,2128.4,879.8,2128.4,878.8"/>
				<path id="XMLID_93_" style="fill:#0075C9;" d="M2140.6,877.8c0-0.8-0.2-1.4-0.8-2s-1.2-0.8-2-0.8s-1.4,0.2-2,0.8s-0.8,1.2-0.8,2
					v6.2h-1.8v-14h1.8v4.8c0.8-1,2-1.4,3.2-1.4s2.2,0.4,3,1.4c0.8,0.8,1.2,2,1.2,3.2v6.2h-1.8L2140.6,877.8L2140.6,877.8z"/>
				<path id="XMLID_92_" style="fill:#0075C9;" d="M2075,884c-1.2,0-2.8-0.6-3.8-1.4l1.2-1.4c1,0.8,1.8,1,2.8,1s1.8-0.6,1.8-1.4
					c0-0.8-1.2-1.2-2.2-1.6h-0.2c-1.4-0.6-2.8-1.2-2.8-3s1.4-3,3.8-3c1.2,0,2.2,0.4,3.4,1.2l-1.2,1.2c-0.8-0.4-1.4-0.8-2-0.8
					c-1,0-1.8,0.6-1.8,1.2c0,0.8,1.2,1.2,2.2,1.6h0.2c1.6,0.6,3,1.2,3,3C2078.8,882.8,2077.2,884,2075,884"/>
			</g>
			<g id="XMLID_75_">
				<path id="XMLID_90_" style="fill:#0075C9;" d="M2163.2,872.6c0.6,0,1-0.4,1-1s-0.4-1-1-1s-1,0.4-1,1
					C2162.2,872.2,2162.8,872.6,2163.2,872.6z"/>
				<path id="XMLID_89_" style="fill:#0075C9;" d="M2166,872.6c0.6,0,1-0.4,1-1s-0.4-1-1-1s-1,0.4-1,1
					C2164.8,872.2,2165.4,872.6,2166,872.6z"/>
				<path id="XMLID_85_" style="fill:#0075C9;" d="M2176.8,877.8c0,1.4,1,2.8,3,2.8c1,0,2-0.4,2.8-1.2v0.2c0,1.2-0.4,2.8-2,2.8h-11
					c-1.2,0-1.8-1-1.8-2.8v-5.2l0,0c-0.6,0-1.6-0.2-2.6-0.2c-3.6,0-5.8,1.6-5.8,4.4c0,3.2,2.8,4.2,5,4.2c0.6,0,1.4,0,2.2-0.2
					c0.8,1.2,2.2,1.4,2.6,1.4h12c1.6,0,3.2-1.2,3.2-4.2V874h-2C2178.8,874,2176.8,875.4,2176.8,877.8z M2180.2,879
					c-0.8,0-1.4-0.4-1.4-1.6c0-1.4,1.2-2,3.8-2v1.6c0,0.2,0,0.4,0,0.6C2182.2,878.2,2181.4,879,2180.2,879z M2164.6,875.6
					c0.4,0,0.8,0,1.2,0v5.4c-0.4,0-0.8,0-1.2,0c-1.6,0-3.2-0.8-3.2-2.8C2161.4,876.8,2162.6,875.6,2164.6,875.6z"/>
				<path id="XMLID_84_" style="fill:#0075C9;" d="M2183,872.2L2183,872.2c0.6,0,1-0.4,1-1.2c0-0.6-0.4-1-1-1s-1,0.4-1,1
					C2181.8,871.8,2182.4,872.2,2183,872.2z"/>
				<path id="XMLID_83_" style="fill:#0075C9;" d="M2180.2,872.2L2180.2,872.2c0.6,0,1-0.4,1-1.2c0-0.6-0.4-1-1-1s-1,0.4-1,1
					C2179.2,871.8,2179.6,872.2,2180.2,872.2z"/>
				<path id="XMLID_82_" style="fill:#0075C9;" d="M2188.6,876.6v5.8c0.2,3.4-1,3.8-2.4,4h-0.2l0.2,1.6l0,0c2.8,0,4.2-1.6,4.2-5v-7
					L2188.6,876.6L2188.6,876.6z"/>
				<path id="XMLID_81_" style="fill:#0075C9;" d="M2210.4,871.2c0,0.6,0.4,1.2,1,1.2l0,0c0.6,0,1-0.4,1-1.2c0-0.6-0.4-1-1-1
					C2210.8,870,2210.4,870.6,2210.4,871.2z"/>
				<path id="XMLID_80_" style="fill:#0075C9;" d="M2208.8,872.2L2208.8,872.2c0.6,0,1-0.4,1-1.2c0-0.6-0.4-1-1-1s-1,0.4-1,1
					C2207.8,871.8,2208.2,872.2,2208.8,872.2z"/>
				<path id="XMLID_79_" style="fill:#0075C9;" d="M2210,870L2210,870c0.6,0,1-0.4,1-1.2c0-0.6-0.4-1-1-1s-1,0.4-1,1
					C2209,869.4,2209.4,870,2210,870z"/>
				<path id="XMLID_78_" style="fill:#0075C9;" d="M2223.6,879.6c0,1.2-0.4,2.8-2,2.8h-2.4c-0.6,0-1-0.2-1.4-0.6
					c-0.4-0.4-0.6-1-0.6-1.6v-6l-2,0.6v4.8c0,1.2-0.4,2.8-2,2.8c-1.2,0-2-1.2-2-2.4v-5l-2,0.6v4.2c0,1.6-0.6,2.4-1.8,2.4
					s-2-1.2-2-2.4v-4.2l-2,0.6v3.4c0,1.6-0.6,2.4-1.8,2.4h-4.4c-1.2,0-1.8-0.8-1.8-2.8V870l-2,0.6v9c0,3.2,1.8,4.2,3.4,4.2h5.4l0,0
					c1.2,0,2.2-0.6,2.6-1.8c0.8,1.2,1.8,1.8,3.2,1.8c1.2,0,2.2-0.6,2.6-1.8c0.8,1.2,1.8,1.8,3.2,1.8c0.4,0,2-0.2,2.8-1.8
					c0.6,1.2,1.8,1.8,3,1.8h2.6l0,0l0,0l0,0c1.6,0,3.2-1.2,3.2-4.2V870l-2,0.6L2223.6,879.6L2223.6,879.6z"/>
				<polygon id="XMLID_77_" style="fill:#0075C9;" points="2228.6,870.6 2228.6,884 2230.6,884 2230.6,870 				"/>
			</g>
		</g>
		<g id="XMLID_16_">
			<g id="XMLID_70_">
				<g>
					<linearGradient id="SVGID_1700_" gradientUnits="userSpaceOnUse" x1="2145.6506" y1="744.998" x2="2104.9573" y2="791.207">
						<stop  offset="0" style="stop-color:#E34126"/>
						<stop  offset="1" style="stop-color:#FFC333"/>
					</linearGradient>
					<path id="SVGID_1600_" style="fill:url(#SVGID_1700_);" d="M2108.2,759.6V783h13.6v-25c-1,0.2-2,0.2-3,0.2c-2.4,0-4.8-0.4-7.2-1.4
						C2110.4,757.6,2109.2,758.6,2108.2,759.6 M2136.4,745.4c-1.8,1.8-3.8,4-5.4,7c-0.6,0.8-1.4,1.6-2.2,2.4v28.4h7.8
						c0-1.4-0.2-2.8-0.2-4c-0.2-1.6-1.4-2.8-1.2-4.2c1-6.2,4.6-4.4,5.6-10.6c0.4-2,0.8-4,1.6-5.6v-14.4
						C2140.8,744.4,2138.6,744.8,2136.4,745.4"/>
				</g>
			</g>
			<g id="XMLID_66_">
				<g>
					<linearGradient id="SVGID_1800_" gradientUnits="userSpaceOnUse" x1="2144.7859" y1="742.8279" x2="2206.9592" y2="744.5469">
						<stop  offset="0" style="stop-color:#007496"/>
						<stop  offset="0.417" style="stop-color:#007496"/>
						<stop  offset="1" style="stop-color:#5BCAF4"/>
					</linearGradient>
					<path id="SVGID_1500_" style="fill:url(#SVGID_1800_);" d="M2168.8,732c-1.2,1-2.6,0.8-4,0.6c-2.4-0.2-5.2-0.4-8.2,3.4
						c1.6,1.6,2.6,3.8,2.6,6.2v4.6c0.6,0,1.4,0,2,0c1.8,0,3.8-0.2,5.2,0c1.8,0.4,4,0.6,6.4,1.6V743c0-4.6-0.8-8.4-2.2-11.4
						C2169.8,731.6,2169.4,731.8,2168.8,732 M2176.6,729.2c2,3.8,3.2,8.4,3.2,13.8v10.2c1,1,2,2,3.2,3.2c3.8,2.4,7.4,5.4,10.4,8.8
						c0-10.8,0-22.4,0-22.6c0-7.2-1.8-14-5.2-19.6C2185,725.4,2180.8,727.4,2176.6,729.2"/>
				</g>
			</g>
			<g id="XMLID_62_">
				<g>
					<linearGradient id="SVGID_1900_" gradientUnits="userSpaceOnUse" x1="2148.3442" y1="736.5884" x2="2064.1094" y2="746.903">
						<stop  offset="0" style="stop-color:#D83C73"/>
						<stop  offset="0.1992" style="stop-color:#CE3869"/>
						<stop  offset="0.5406" style="stop-color:#B32E4D"/>
						<stop  offset="0.9803" style="stop-color:#871D21"/>
						<stop  offset="1" style="stop-color:#851C1F"/>
					</linearGradient>
					<path id="SVGID_1400_" style="fill:url(#SVGID_1900_);" d="M2128.8,741.8v6.4c3-1.2,5.8-2,8.2-2.6c2-0.4,3.8-0.8,5.4-1v-2.2
						c0-2.6,1.2-5,3-6.6l4.6,5.4c-1-1.8-2.6-4.2-4.4-6.2c-3.4-0.8-9.6-2.4-15.2-4.4C2129.4,734.2,2128.8,738,2128.8,741.8
						 M2108.2,741.8v19c0.8-0.6,1.4-0.8,1.6-0.8c2.8-2.2,8-6.8,12-8.8v-9.4c0-5,1-9.6,2.8-13.8c-2.2-1-4.2-2.2-5.6-3.4
						c-0.6-0.4-1-0.8-1.4-1.2c-0.2,0-1.6-1.2-2.8-2C2110.4,727,2108.2,734.2,2108.2,741.8"/>
				</g>
			</g>
			<g id="XMLID_59_">
				<g>
					<linearGradient id="SVGID_2000_" gradientUnits="userSpaceOnUse" x1="2108.2" y1="752.5001" x2="2142.3999" y2="752.5001">
						<stop  offset="0" style="stop-color:#EF5136"/>
						<stop  offset="0.4045" style="stop-color:#CB3740"/>
						<stop  offset="0.7805" style="stop-color:#AF2447"/>
						<stop  offset="1" style="stop-color:#A51D4A"/>
					</linearGradient>
					<path id="SVGID_1300_" style="fill:url(#SVGID_2000_);" d="M2108.2,760v1c3,0,8.4-2.8,10.6-2.8c1,0,2,0,3-0.2v-7.4
						C2118,752.4,2111.6,757.2,2108.2,760 M2128.8,748v6.8c0.8-0.8,1.6-1.6,2.2-2.4c3.4-5.2,8.6-6.6,11.4-7.8V744
						C2139.2,744.8,2133.8,746.4,2128.8,748"/>
				</g>
			</g>
			<g id="XMLID_53_">
				<g>
					<linearGradient id="SVGID_2100_" gradientUnits="userSpaceOnUse" x1="2157.9011" y1="742.764" x2="2200.6826" y2="788.621">
						<stop  offset="0" style="stop-color:#698735"/>
						<stop  offset="1" style="stop-color:#D1D747"/>
					</linearGradient>
					<path id="SVGID_1200_" style="fill:url(#SVGID_2100_);" d="M2179.8,774.8c0.2,0.6,0.4,1.4,0.2,2.2c3.2,2,6.4,4,9.2,6.2h4.2
						c0,0,0-5.2,0-12c-1.4-2-3-4.2-4.6-7c-2-3.2-4-5.8-5.8-7.8c-1.6-1.8-2.4-3-3.2-3.8L2179.8,774.8L2179.8,774.8z M2159.2,746.6
						v11.2c0.4,0.2,0.6,0.4,1,0.4c4.2,2.4,7.6,5.4,10.6,8.4c0.6,0.6,1.2,1.2,2,1.8v-19.8c-4-1.6-8.6-2-11.4-2
						C2160.4,746.4,2159.6,746.4,2159.2,746.6"/>
				</g>
			</g>
			<g id="XMLID_52_">
				<g>
					<linearGradient id="SVGID_2200_" gradientUnits="userSpaceOnUse" x1="2183.6326" y1="763.8" x2="2202.7534" y2="763.8">
						<stop  offset="0" style="stop-color:#698735"/>
						<stop  offset="1" style="stop-color:#095B83"/>
					</linearGradient>
					<path id="SVGID_1100_" style="fill:url(#SVGID_2200_);" d="M2188.8,764.2c1.8,2.6,3.2,5,4.6,7c0-2,0-4,0-6c-3-3.4-6.6-6.2-10.4-8.8
						C2184.8,758.4,2186.8,761,2188.8,764.2"/>
				</g>
			</g>
			<g id="XMLID_46_">
				<g>
					<linearGradient id="SVGID_2300_" gradientUnits="userSpaceOnUse" x1="2161.5225" y1="745.3315" x2="2165.5337" y2="809.2241">
						<stop  offset="0" style="stop-color:#698735"/>
						<stop  offset="1" style="stop-color:#D1D747"/>
					</linearGradient>
					<path id="SVGID_1000_" style="fill:url(#SVGID_2300_);" d="M2179.8,783.2h11.4c-3.6-2.2-7.6-4.2-11.2-6V777c0,0-0.2,0-0.2-0.2
						V783.2z M2136.4,779.2c0.2,0.4,0.2,1.8,0.2,4h5.8v-14.6C2140.8,772.4,2138.8,776.2,2136.4,779.2 M2159.2,783.2h13.6v-13.4
						c-5.2-3.8-10.8-8.2-13.6-11.4V783.2z"/>
				</g>
			</g>
			<linearGradient id="SVGID_2400_" gradientUnits="userSpaceOnUse" x1="2135.0947" y1="770.8" x2="2147.9646" y2="770.8">
				<stop  offset="0" style="stop-color:#AD5F28"/>
				<stop  offset="1" style="stop-color:#215A4A"/>
			</linearGradient>
			<path id="SVGID_900_" style="fill:url(#SVGID_2400_);" d="M2140.8,764.2c-1,6.2-4.6,4.4-5.6,10.6c-0.2,0.8,0.4,5,0.8,8.2h1.4
				c1.4-4.6,3.2-9.4,5-14.2v-10.2C2141.6,760.4,2141.2,762.2,2140.8,764.2"/>
			<g id="XMLID_42_">
				<g>
					<linearGradient id="SVGID_2500_" gradientUnits="userSpaceOnUse" x1="2159.2" y1="770.5" x2="2192.6001" y2="770.5">
						<stop  offset="0" style="stop-color:#698735"/>
						<stop  offset="1" style="stop-color:#215A4A"/>
					</linearGradient>
					<path id="SVGID_800_" style="fill:url(#SVGID_2500_);" d="M2179.8,777.6c3.2,2,7,4.2,9.8,5.6h3c-2-2.6-7.6-6.4-12.8-10V777.6z
						 M2159.2,758.2c3.2,3.8,9,8,13.6,13.4v-3.4c-0.8-0.6-1.4-1.2-2-1.6c-3.2-3-6.4-6-10.6-8.4c-0.4-0.2-0.6-0.4-1-0.4V758.2z"/>
				</g>
			</g>
			<g id="XMLID_40_">
				<g>
					<linearGradient id="SVGID_2600_" gradientUnits="userSpaceOnUse" x1="2148.4373" y1="747.8963" x2="2147.9829" y2="698.9893">
						<stop  offset="0" style="stop-color:#B12850"/>
						<stop  offset="1" style="stop-color:#007497"/>
					</linearGradient>
					<path id="SVGID_700_" style="fill:url(#SVGID_2600_);" d="M2156.4,716.2c0.6-3.4,1.8-7.2,3.6-10.4c-0.6,0-1.4,0-2,0
						c-3,0-5,0.6-7.6,1.4c-1.8,0.6-3.4,1.4-6,2.8c-3.2,2-6,4.6-8.2,7.4c5.4,6,11.2,18.2,13.8,24.2l0.6,0.6l2.6-3.2
						c0.6-4,0.8-9.2,2.4-11.2c-0.2-0.8-0.4-1.4-0.4-1.8c0-0.6,0-2.6,0.2-5.4c-5.2-1-10.2-0.2-13,0.8
						C2146,717.8,2151,716,2156.4,716.2z"/>
				</g>
			</g>
			<linearGradient id="SVGID_2700_" gradientUnits="userSpaceOnUse" x1="2154.2527" y1="737.3914" x2="2132.7219" y2="695.4489">
				<stop  offset="0" style="stop-color:#B12850"/>
				<stop  offset="1" style="stop-color:#007497"/>
			</linearGradient>
			<path id="SVGID_600_" style="fill:url(#SVGID_2700_);" d="M2150.4,705.8c0.2,0,0.4-0.2,0.8-0.2c0.6-0.2,1.2-0.4,0.6-0.4h-1.2l0,0
				c-0.2,0-0.2,0-0.2,0h-2.6c-1.6,0-3.2,0-4.8,0.2l0,0c-6.2,0.6-12,2.4-16.8,5.2c0.4,0.4,0.8,0.6,1.2,1c1.8,0.8,3.8,1.8,5.6,2.8
				c0.2,0,0.2,0.2,0.4,0.2C2138.6,710.4,2144.4,707.2,2150.4,705.8L2150.4,705.8z M2150.4,705.8L2150.4,705.8L2150.4,705.8
				L2150.4,705.8z"/>
			<linearGradient id="SVGID_2800_" gradientUnits="userSpaceOnUse" x1="2147.907" y1="749.1094" x2="2188.8784" y2="696.1044">
				<stop  offset="0" style="stop-color:#007496"/>
				<stop  offset="1" style="stop-color:#5BCAF4"/>
			</linearGradient>
			<path id="SVGID_500_" style="fill:url(#SVGID_2800_);" d="M2156.4,727.2c-0.2,0.2-2.4,1.4-3.6,12.8l3.4-4.2c0.4,0.4,0.8,0.8,1,1.2
				c1.2-2.2,2.4-3.8,3.2-3.6c0.2,0,0.6,0.2,1.2,0.2c1.6,0,2.2,0.6,5.2-0.2c0.4-0.4,2-1.4,3.2-2.4c-2.6-5-7-7.8-11.4-9.4
				C2157.6,724.2,2156.6,727,2156.4,727.2 M2162.8,709.6c-0.6,2-1.2,4-2,5.8c0,0-0.2,0.6-0.4,1.4c5.6,1.2,11.2,4.6,14.8,10
				c3.8-2.6,7.8-4.2,12-5.4c-4.8-7.2-12.6-12.6-22.4-14.8c-0.4,0-1-0.2-1.6-0.4C2163.2,707.4,2163,708.6,2162.8,709.6"/>
			<linearGradient id="SVGID_2900_" gradientUnits="userSpaceOnUse" x1="2166.8679" y1="727.4" x2="2188.1934" y2="727.4">
				<stop  offset="0" style="stop-color:#00678C"/>
				<stop  offset="1" style="stop-color:#1461AD"/>
			</linearGradient>
			<path id="SVGID_400_" style="fill:url(#SVGID_2900_);" d="M2166.8,733.2c1.2-0.4,2.4-0.8,3.8-1.2c-0.2-0.4-0.4-0.8-0.6-1.2
				C2168.8,731.6,2167.4,732.8,2166.8,733.2 M2175.2,726.8c0.6,0.8,1,1.6,1.6,2.6c4.2-2,8.4-4.2,11.4-6.4c-0.4-0.6-0.6-1-1-1.4
				C2183,722.6,2179,724.4,2175.2,726.8"/>
			<linearGradient id="XMLID_200_" gradientUnits="userSpaceOnUse" x1="2153.6343" y1="727.6001" x2="2158.6616" y2="727.6001">
				<stop  offset="0" style="stop-color:#00678C"/>
				<stop  offset="1" style="stop-color:#19469C"/>
			</linearGradient>
			<path id="XMLID_3100_" style="fill:url(#XMLID_200_);" d="M2155.6,726.2c0,0.4-2,7.6-1.8,8.4c0.2-0.2,2.6-7,2.8-7.4
				c0.2-0.2,1.2-3,2.2-5.8c-1-0.4-2-0.6-3-0.8C2155.4,723.4,2155.4,725.6,2155.6,726.2"/>
			<linearGradient id="XMLID_300_" gradientUnits="userSpaceOnUse" x1="2156.3999" y1="711.1" x2="2163.2207" y2="711.1">
				<stop  offset="0" style="stop-color:#00678C"/>
				<stop  offset="1" style="stop-color:#19469C"/>
			</linearGradient>
			<path id="XMLID_3000_" style="fill:url(#XMLID_300_);" d="M2156.4,716.2c1.4,0,2.6,0.2,4,0.4c0.2-0.8,0.4-1.4,0.4-1.4
				c0.6-1.8,1.4-3.8,2-5.8c0.4-1.2,0.4-2.4,0.4-3.4c-0.4,0-0.8-0.2-1-0.2c-0.6,0-1.4-0.2-2-0.2C2158.2,709,2157,712.8,2156.4,716.2"
				/>
			<linearGradient id="SVGID_3000_" gradientUnits="userSpaceOnUse" x1="2155.8486" y1="750.126" x2="2111.4839" y2="706.5186">
				<stop  offset="0" style="stop-color:#B12850"/>
				<stop  offset="1" style="stop-color:#604B9E"/>
			</linearGradient>
			<path id="SVGID_300_" style="fill:url(#SVGID_3000_);" d="M2130.4,730c3.4,1,5.8,2,8,3.4c1.4,1,6.2,3.2,6.2,3.2s0.4-0.6,1-1l5.4,6.6
				c-1-2-2.6-5.4-4.8-9.8c-0.6-1.2-2.2-3.4-2.6-3.8c-1.2-0.8-3.6-5.4-7.6-10C2133.2,722,2131.4,726,2130.4,730 M2114.4,721.4
				c0.6,0.6,1.4,1.2,2.2,1.8c3.2,0.2,5.6,2.8,8,4.6c2-4.6,4.8-8.6,8.2-12c-1.4-1.2-3-2.4-4.8-3.6c0,0-0.8-0.6-1.8-1.4
				C2121.4,713.4,2117.4,717,2114.4,721.4"/>
			<linearGradient id="SVGID_3100_" gradientUnits="userSpaceOnUse" x1="2114.3999" y1="728.9" x2="2144.4536" y2="728.9">
				<stop  offset="0" style="stop-color:#521A57"/>
				<stop  offset="0.4741" style="stop-color:#5C2250"/>
				<stop  offset="1" style="stop-color:#6D3044"/>
			</linearGradient>
			<path id="SVGID_200_" style="fill:url(#SVGID_3100_);" d="M2130.2,730.8c4.8,2,10,3.8,14.2,6l0,0c-2.2-1-8.4-4.8-13.8-8
				C2130.6,729.4,2130.4,730.2,2130.2,730.8 M2114.4,721.4c1.8,1.4,3.6,2.8,3.8,3c1.8,1.4,3.8,2.6,6.2,3.8c0.4-0.8,0.6-1.6,1-2.2
				c-0.4-0.2-0.8-0.4-1-0.4c-2.6-1.2-6-4-9.4-4.6C2114.6,721,2114.6,721.2,2114.4,721.4"/>
			<linearGradient id="SVGID_3200_" gradientUnits="userSpaceOnUse" x1="2126.0396" y1="726.5" x2="2150.8394" y2="726.5">
				<stop  offset="0" style="stop-color:#842447"/>
				<stop  offset="1" style="stop-color:#392663"/>
			</linearGradient>
			<path id="SVGID_100_" style="fill:url(#SVGID_3200_);" d="M2135,719.6c3,3.6,5.6,7.8,7.4,12.2c0.6,1.6,1.6,3.2,2.4,4.6
				c0.2-0.2,0.4-0.4,0.6-0.6l5.4,6.6c-1.6-3.8-8.2-18-14.4-24.8C2136,718,2135.4,718.8,2135,719.6 M2132.2,716.4
				c0.4-0.6,1-1,1.6-1.4c-0.2,0-0.2-0.2-0.4-0.2c-1.6-1-4.6-2.6-6.4-3.6C2128.6,712.8,2130.4,714.4,2132.2,716.4 M2126,710.8
				L2126,710.8c0.2,0,0.4,0.2,0.6,0.2c-0.2-0.2-0.4-0.2-0.4-0.4C2126.2,710.6,2126.2,710.8,2126,710.8"/>
		</g>
	</g>
	<polygon id="tap_x5F_area" style="fill:#FFFFFF;fill-opacity:0;" points="2073.6,698.6 2230.6,698.6 2230.6,899 2175.4,1069.6
		2127.8,1069.6 2071,899 	"/>
</g>
<rect id="app_x5F_Sharjah--zoom" x="2083" y="1006.6" transform="rotate(-56deg 0 0)" style="fill:none;" width="136.8" height="76.8"/>
<rect id="app_x5F_Dubai--zoom" x="2072.4" y="1052" transform="rotate(-9deg 0 0)" style="fill:none;" width="151.2" height="85.05"/>


</svg>
