<?xml version="1.0" encoding="utf-8"?>
<!-- Generator: Adobe Illustrator 22.0.1, SVG Export Plug-In . SVG Version: 6.00 Build 0)  -->
<svg version="1.1" id="app_x5F_UAE--parent" xmlns="http://www.w3.org/2000/svg" xmlns:xlink="http://www.w3.org/1999/xlink"
	 x="0px" y="0px" width="1920px" height="1080px" viewBox="0 0 1920 1080" style="enable-background:new 0 0 1920 1080;"
	 xml:space="preserve">
<g id="app_x5F_AbuDhabi--marker">
	<g id="Map-ID-Grey" transform="translate(908.000000, 742.000000)">
		<polygon id="Fill-124" style="fill:#989898;" points="6.9,-27.9 6.9,-4.1 14.8,-4.1 18.7,0.1 22.8,-4.1 30.7,-4.1 30.7,-27.9
			"/>
		<g id="Group" transform="translate(5.000000, 5.000000)">
			<path id="Path" style="fill:#FFFFFF;" d="M13.2-27.3c-3.8,0-6.5,2.5-6.5,6v6.7h2.2c0,0,0-3.7,0-6.7c0-3.1,2.4-5.4,4.8-5.9
				c0.1,0,0.2,0,0.1,0L13.2-27.3L13.2-27.3z"/>
			<path id="Path_1_" style="fill:#FFFFFF;" d="M13.7-27c-0.2,0.1-0.6,0.2-0.9,0.5c-1.7,1-2.4,3-2.6,4.9c0,0.1,0,0.2,0,0.3l0,0v0.1
				v6.7h2.2v-6.7c0-0.5,0.2-0.8,0.5-1l0.8,1l0.8-1c0.3,0.2,0.5,0.6,0.5,1v6.7h2.2v-6.7c0-2-1.6-3.6-3.6-3.6c-0.5,0-0.9,0.1-1.3,0.2
				l0,0c0.5-0.6,1.2-0.8,1.9-0.8l0,0c0.2,0,0.5,0,0.7,0c2,0.3,3.5,2,3.5,3.9c0,0.1,0,0.1,0,0.2v6.6h2.2v-6.6c0-2.9-1.7-5.2-4.6-5.9
				c-0.1,0-0.2-0.1-0.5-0.1c-0.2,0-0.5,0-0.7,0C14.4-27.2,14-27.2,13.7-27z"/>
		</g>
	</g>
	<text transform="matrix(1 0 0 1 945.8321 731.3132)" style="fill:#989898; font-family:'MarselisPro'; font-size:16.9987px;">ABU DHABI</text>
</g>
<g id="app_x5F_AlAin--marker">
	<g id="Map-ID-Grey_1_" transform="translate(1173.000000, 812.000000)">
		<polygon id="Fill-124_2_" style="fill:#989898;" points="-7.9,-31.7 -7.9,-8 0,-8 4,-3.7 8,-8 15.9,-8 15.9,-31.7 		"/>
		<g id="Group_2_" transform="translate(5.000000, 5.000000)">
			<path id="Path_4_" style="fill:#FFFFFF;" d="M-1.5-31.2c-3.8,0-6.5,2.5-6.5,6v6.7h2.2c0,0,0-3.7,0-6.7c0-3.1,2.4-5.4,4.8-5.9
				c0.1,0,0.2,0,0.1,0L-1.5-31.2L-1.5-31.2z"/>
			<path id="Path_5_" style="fill:#FFFFFF;" d="M-1.1-30.9c-0.2,0.1-0.6,0.2-0.9,0.5c-1.7,1-2.4,3-2.6,4.9c0,0.1,0,0.2,0,0.3l0,0
				v0.1v6.7h2.2v-6.7c0-0.5,0.2-0.8,0.5-1l0.8,1l0.8-1c0.3,0.2,0.5,0.6,0.5,1v6.7h2.2v-6.7c0-2-1.6-3.6-3.6-3.6
				c-0.5,0-0.9,0.1-1.3,0.2l0,0c0.5-0.6,1.2-0.8,1.9-0.8l0,0c0.2,0,0.5,0,0.7,0c2,0.3,3.5,2,3.5,3.9c0,0.1,0,0.1,0,0.2v6.6h2.2v-6.6
				C5.8-28,4-30.3,1.1-31c-0.1,0-0.2-0.1-0.5-0.1c-0.2,0-0.5,0-0.7,0C-0.4-31.1-0.7-31-1.1-30.9z"/>
		</g>
	</g>
	<text transform="matrix(1 0 0 1 1197.1963 797.4197)" style="fill:#989898; font-family:'MarselisPro'; font-size:16.9987px;">AL AIN</text>
</g>
<g id="app_x5F_Ras--marker">
	<g id="Map-ID-Grey_2_" transform="translate(1232.000000, 373.000000)">
		<polygon id="Fill-124_4_" style="fill:#989898;" points="-11.2,-7.3 -11.2,16.4 -3.3,16.4 0.7,20.7 4.6,16.4 12.6,16.4 12.6,-7.3
					"/>
		<g id="Group_4_" transform="translate(5.000000, 5.000000)">
			<path id="Path_8_" style="fill:#FFFFFF;" d="M-4.8-6.7c-3.8,0-6.5,2.5-6.5,6V6h2.2c0,0,0-3.7,0-6.7c0-3.1,2.4-5.4,4.7-5.9
				c0.1,0,0.2,0,0.1,0h-0.6v-0.1H-4.8z"/>
			<path id="Path_9_" style="fill:#FFFFFF;" d="M-4.5-6.5C-4.7-6.4-5-6.3-5.4-6.1c-1.7,1-2.4,3-2.5,4.9c0,0.1,0,0.2,0,0.3l0,0v0.1V6
				h2.2v-6.7c0-0.5,0.2-0.8,0.5-1l0.8,1l0.8-1c0.3,0.2,0.5,0.6,0.5,1V6H-1v-6.7c0-2-1.6-3.6-3.6-3.6c-0.5,0-0.9,0.1-1.3,0.2l0,0
				C-5.4-4.7-4.7-4.9-4-4.9l0,0c0.2,0,0.5,0,0.7,0c2,0.3,3.5,2,3.5,3.9c0,0.1,0,0.1,0,0.2v6.6h2.2v-6.6c0-2.9-1.7-5.2-4.6-5.9
				c-0.1,0-0.2-0.1-0.5-0.1c-0.2,0-0.5,0-0.7,0C-3.6-6.7-4-6.6-4.5-6.5z"/>
		</g>
	</g>
	<text transform="matrix(1 0 0 1 1250.7041 382.8381)" style="fill:#989898; font-family:'MarselisPro'; font-size:16.9987px;">RAS AL-KHAIMAH</text>
</g>
<g id="app_x5F_Dubai--button">
	<g id="app_x5F_Dubai--marker" transform="translate(1032.000000, 577.000000)">
		<polygon id="Fill-124_1_" style="fill:#8A1538;" points="0,-18.6 0,5.1 7.9,5.1 11.8,9.4 15.9,5.1 23.8,5.1 23.8,-18.6 		"/>
		<g id="Group_1_" transform="translate(5.000000, 5.000000)">
			<path id="Path_2_" style="fill:#FFFFFF;" d="M6.3-18.1c-3.8,0-6.5,2.5-6.5,6v6.7H2c0,0,0-3.7,0-6.7c0-3.1,2.4-5.4,4.8-5.9
				c0.1,0,0.2,0,0.1,0L6.3-18.1L6.3-18.1z"/>
			<path id="Path_3_" style="fill:#FFFFFF;" d="M6.8-17.8c-0.2,0.1-0.6,0.2-0.9,0.5c-1.7,1-2.4,3-2.6,4.9c0,0.1,0,0.2,0,0.3l0,0v0.1
				v6.7h2.2V-12c0-0.5,0.2-0.8,0.5-1l0.8,1l0.8-1c0.3,0.2,0.5,0.6,0.5,1v6.7h2.2V-12c0-2-1.6-3.6-3.6-3.6c-0.5,0-0.9,0.1-1.3,0.2
				l0,0c0.5-0.6,1.2-0.8,1.9-0.8l0,0c0.2,0,0.5,0,0.7,0c2,0.3,3.5,2,3.5,3.9c0,0.1,0,0.1,0,0.2v6.6h2.2v-6.6c0-2.9-1.7-5.2-4.6-5.9
				c-0.1,0-0.2-0.1-0.5-0.1c-0.2,0-0.5,0-0.7,0C7.5-18.1,7.2-18,6.8-17.8z"/>
		</g>
	</g>
	<text transform="matrix(1 0 0 1 1064.0371 575.491)" style="fill:#8A1538; font-family:'MarselisPro'; font-size:16.9987px;">DUBAI</text>
	<path id="Line-4-Copy-3" style="fill:none;stroke:#8A1538;stroke-width:2.2095;" d="M1032,570.6h-73"/>
	<g id="Logo_TAG">
		<g>
			<path d="M885.6,554.9c0,0.3,0.3,0.4,0.9,0.4h3.9l-1.5,2.4H884l-0.1-9.9c0,0,0.1-0.2,0.8-1.2c0.4-0.6,0.7-0.9,0.9-1.1
				C885.6,547.2,885.5,554.3,885.6,554.9 M902.8,549.1v8.8c0.8-0.2,1.7-0.4,1.8-2.1c0.1-1.5,0.1-5.7-0.1-9.1
				C903.6,548.1,903.3,548.3,902.8,549.1 M938.6,549.8l-1.4,2.5c0.8,0.9,1.3,1.8,1.5,2.7l0,0c0.2,0.8,0.3,1.3,0.3,2.4
				c-0.2-1-0.6-1.5-0.8-1.9H934c-0.3,0-0.6-0.2-0.6-0.3c-0.2-0.9-0.4-2.1-0.6-3.6c-0.1-1.2-0.1-2.4-0.2-3.6
				c-0.1-0.9-0.2-1.7-0.2-2.2c-0.3,0.2-0.7,0.7-0.9,1.1c-0.2,0.4-0.4,0.9-0.4,1.3c0,1.3,0,2.2-0.1,2.8c-0.1,1.1-0.4,2-1,2.7
				c-0.1,0.1-0.2,0.4-0.3,0.6v0.1c0,0,0,0.1,0,0.2c0,0.3,0,1.1-0.4,1.5l-0.1,0.2v-0.2c0.2-1.5-0.9-5.1-2-6.6c-1-1.3-2.7-2.7-3.9-3.1
				c-0.4,1.3-0.6,2.2-0.6,3.3c0,0.3,2.7,2.1,2.9,2l0.4-0.2l0,0c1.8,1.5,2.3,3.3,2.3,3.5c0,0.6-1.1,1.4-3.3,2.5l-4.3,1.8
				c0,0-0.1,0-0.1,0.1h0.1h0.9c4.5,0,7.5-0.8,8.6-3.1c0.6-1.2,0.9-2.2,1-2.8l0.1-0.2l0.1,0.2c0.2,0.7,0.3,1.4,0.4,2.4
				c0,0.8,0.1,1.3,0.1,2.1h7.8c0.6-1.8,0.9-2.9,0.9-3.8C940.6,552.5,939.9,551.1,938.6,549.8 M899.5,546.5c-0.2-0.3-0.2-0.7-0.3-0.9
				c-0.4,0.6-1,1.3-1.5,2.5c-0.1,0.2-0.1,0.6,0.1,0.8c0.1,0.1,0.4,0.4,0.4,0.4l0,0c0.1,0.4,0.3,5.3,0.3,5.7l0,0c0,0.7,0,1.2-0.3,2.2
				c0-0.9-0.1-1.4-0.2-1.9h-4.1v-0.1c0-0.1,0.2-0.2,0.4-0.8c0.2-0.3,0.3-0.9,0.3-1.2c0-0.7-0.2-1.2-1-1.8c-0.7-0.4-1.2-0.7-1.9-0.7
				c-1.1,0-1.4,0.3-2,0.9c-0.3,0.3-0.8,1.1-1.3,2.3c0.8-0.1,0.8-0.1,0.9-0.1c0.9,0,1.7,0.4,2.2,1.2c0.1,0.1,1.5,2.1,1.9,2.5h5.9
				c0.1,0,0.3-0.2,0.3-0.2c0.1-0.1,0.2-0.1,0.4-1.2c0.2-0.9,0.2-1.3,0.2-1.7l0.1-4.5l0.9-1.9C900.7,548,899.6,546.8,899.5,546.5
				 M920.3,548c-0.6-0.3-1.7-1.5-1.8-1.8c-0.2-0.3-0.2-0.7-0.3-0.9c-0.4,0.6-1,1.3-1.5,2.5c-0.1,0.2-0.1,0.6,0.1,0.8
				c0.1,0.1,0.4,0.4,0.4,0.4l0,0c0.1,0.4,0.9,4.9,0.9,5.5c0,0.1,0.1,0.7,0.1,1c0.1,0.7,0.1,1.5-0.7,2.8c0.1-0.6,0.1-1.1,0.1-1.5
				c-0.3,0.1-0.7,0.3-1.1,0.4c-0.9,0.2-1.7,0.3-2.2,0.3c-0.8,0-1.4-0.2-2.1-0.7c-0.7-0.4-1-1.1-1-1.9c0-0.3,0.2-0.9,0.6-1.7
				c0.1-0.1,0-0.2,0-0.2l0,0l0,0c-0.2,0-0.9,0.4-1.2,1.3c-0.6,1.2-0.7,1.9-0.7,2.8c0,1,0.3,1.5,1.1,2.1c0.7,0.4,1.5,0.7,2.5,0.7
				c1.3,0,2.7-0.3,3.8-1.1c1.2-0.9,1.7-1.7,2.1-2.9c0.1-0.2,0.3-0.9,0.3-1.7l-0.4-4.6L920.3,548z M879.3,552.6c0,0-0.8-1-1.1-1.3
				s-0.6-0.4-0.8-0.4c-0.3,0-0.7,0.2-0.9,0.7c0,0,0,0,0,0.1c0,1.3,1.5,1.7,2.5,1.2L879.3,552.6z M880.7,551c0.6,1.5,0.9,2.2,0.8,3.8
				l-0.6,3.1h-11.8c-0.9,0-1.5,0-2.1-0.7s-0.9-1.3-0.9-2.2c0-0.6,0.1-1.2,0.3-2.2c0.3-1,0.6-1.7,0.9-1.9c0.2,0,0.2,0.1,0.2,0.2
				c0,0.2,0,0.6-0.1,1s-0.1,0.8-0.1,1c0,0.6,0.2,1.1,0.7,1.7c0.4,0.4,1,0.7,1.5,0.7h9.8c0.2,0.6,0.4,1.3,0.6,2.1
				c0.1-0.8,0.1-1.5,0-2.3l0,0c0-0.2-0.1-0.6-0.1-1c-0.1-0.8-0.4-1.4-0.4-1.4l-0.1,0.1c-0.6,0.8-1.5,1.7-2.5,1.7
				c-0.6,0-0.9-0.1-1.3-0.3c-0.6-0.3-0.9-0.8-0.9-1.2c0-0.8,0.4-1.8,1.4-2.8s1.9-1.5,2.7-1.5C879.4,548.6,880.2,549.4,880.7,551
				 M874,547.5l1.5,1.5l1.4-1.5l-1.4-1.4L874,547.5z M890.6,548.1l1.5,1.5l1.4-1.5l-1.4-1.4L890.6,548.1z M933.6,547.1l1.5,1.5
				l1.4-1.5l-1.4-1.4L933.6,547.1z M936.4,547.1l1.5,1.5l1.4-1.5l-1.4-1.4L936.4,547.1z M931.2,567.9c-1.3,0-2.3,0.8-2.9,1.7l0,0
				v-5.2l-2.4,0.3v12h2.4v-6.8l0,0c0.4-0.2,0.9-0.3,1.2-0.3c1.1,0,1.8,0.7,1.8,2l0,0v5.1h2.4v-6
				C933.7,568.8,932.6,567.9,931.2,567.9 M901.2,576.7h2.9l-4.6-12.4l-1.7,0.2l-5,12.2h1.5l1.2-3h2.7l-0.1-1.2h-2l2.1-5.1
				L901.2,576.7z M872.1,576.7h2.4v-12.4l-2.4,0.3V576.7z M886,576.7h2.4v-12.4l-2.4,0.3V576.7z M856,566.1h3.3l0,0v10.6h2.7v-10.6
				l0,0h3.3v-1.4h-9.4v1.4H856z M866.9,565.6l1.5,1.5l1.4-1.5l-1.4-1.4L866.9,565.6z M867.1,576.7h2.4V568l-2.4,0.3V576.7z
				 M905.7,576.7h2.4v-12.4l-2.4,0.3V576.7z M920.9,574.7c-0.6,0.3-1,0.6-1.8,0.6c-2.1,0-4.1-2-4.1-5.4c0-2.4,1.3-4.1,3.2-4.1
				c1.4,0,2.7,1,2.7,2.5l2.7-0.3c-0.2-2.2-2.4-3.4-5-3.4c-3.1,0-6.2,2.2-6.2,6.4c0,3.8,2.4,6.1,5.2,6.1c1.8,0,2.8-0.8,3.3-1.9v1.7
				h2.5v-5.5l-2.7,0.3v3.1L920.9,574.7L920.9,574.7z M939.5,567.8c-0.9,0-1.5,0.2-2.2,0.7s-1.1,1.2-1.3,2.2c0.7-0.7,1.7-1.1,2.5-1.1
				c1.1,0,2,0.4,2,2v1.4v2c-0.3,0.3-0.9,0.4-1.3,0.4c-0.9,0-1.3-0.6-1.3-1.3s0.3-1.4,0.3-1.4c-1.7,0.6-2.5,1.5-2.5,2.7
				c0,1,0.8,1.9,2,1.9s2.3-0.8,2.8-1.8v1.7h2.3v-5.4C942.9,569.3,941.7,567.8,939.5,567.8 M880.4,567.8c-0.9,0-1.5,0.2-2.2,0.7
				c-0.7,0.4-1.1,1.2-1.3,2.2c0.7-0.7,1.7-1.1,2.5-1.1c1.1,0,2,0.4,2,2v1.4v2c-0.3,0.3-0.9,0.4-1.3,0.4c-0.9,0-1.3-0.6-1.3-1.3
				s0.3-1.4,0.3-1.4c-1.7,0.6-2.5,1.5-2.5,2.7c0,1,0.8,1.9,2,1.9s2.3-0.8,2.8-1.8v1.7h2.3v-5.4C883.8,569.3,882.6,567.8,880.4,567.8
				 M948.2,568v-0.3c0-1.3,0.4-1.8,1.5-1.8c0.3,0,0.7,0,0.9,0.1c-0.1-0.9-1-1.5-2.1-1.5c-1.8,0-2.8,1.2-2.8,2.9v0.6h-1.3v1.3h1.3
				v7.4h2.3v-7.4h2.7V568H948.2L948.2,568L948.2,568z M869.7,587.5c1.4,0,2.2-1.1,2.2-2.3c0-1.1-0.7-2.2-2.1-2.2h-1v4.4L869.7,587.5
				 M869.8,582.3c1.9,0,2.9,1.4,2.9,2.9s-1,3-3,3H868v-5.9H869.8 M879.8,582.3H879v3.6c0,0.8-0.3,1.7-1.4,1.7
				c-1.1,0-1.4-0.8-1.4-1.7v-3.6h-0.8v3.8c0,1.3,0.8,2.3,2.2,2.3c1.3,0,2.2-1,2.2-2.3V582.3z M885.6,587.5c0.7,0,1.1-0.4,1.1-1
				s-0.3-1-1.1-1h-1.7v2H885.6 M883.9,584.9h1.4c0.7,0,1-0.4,1-0.9c0-0.4-0.3-0.9-1-0.9h-1.4V584.9z M886.2,585.1
				c0.8,0.2,1.1,0.8,1.1,1.4c0,0.8-0.7,1.7-2,1.7h-2.2v-5.9h2.1c1.2,0,1.8,0.8,1.8,1.4C887.1,584.3,886.8,584.9,886.2,585.1
				 M898.3,588.2h0.8v-5.9h-0.8V588.2z M894,586.1l-1.2-2.8l-1.2,2.8H894z M895.7,588.2h-0.9l-0.7-1.4h-3l-0.7,1.4h-0.9l2.7-5.9h0.8
				L895.7,588.2z M935.4,583.8c2.2,0,3.3,1.2,3.3,4.4h-5.1l0.3-0.8h4c-0.1-2.1-0.9-3-2.5-3h-0.7l0.3-0.7L935.4,583.8L935.4,583.8z
				 M930.4,587.4v-3.5l0.7-0.1v4.4h-9.4l-0.1-0.8L930.4,587.4L930.4,587.4z M917.1,588.2v-3.8h-2.8c-1.3,0-1.9,0.3-1.9,1
				c0,0.3,0.1,0.6,0.7,0.8l0.7,0.3c0.7,0.3,1,0.8,1,1.3c0,1-1.1,1.8-3.3,1.8c-2.5,0-3.5-1-3.5-3.5v-0.8h0.7v0.7
				c0,2.3,0.9,2.9,2.9,2.9c1.9,0,2.5-0.4,2.5-1c0-0.3-0.2-0.6-0.7-0.8l-0.7-0.3c-0.7-0.3-0.9-0.8-0.9-1.3c0-0.9,0.8-1.7,2.4-1.7h3.6
				v3.6h4.2v0.8H917.1L917.1,588.2z M930.9,588.5l0.6,0.6l-0.6,0.6l-0.6-0.6L930.9,588.5z M910.7,590l0.6,0.6l-0.6,0.6l-0.6-0.6
				L910.7,590z M911.7,590l0.6,0.6l-0.6,0.6l-0.6-0.6L911.7,590z"/>
		</g>
		<g>
			<path d="M907.7,531.5v6.5h6.8v-7c-1.3,0.3-2.7,0.6-4.1,0.6L907.7,531.5L907.7,531.5z"/>
			<path d="M910.3,508.5c-1.9-1.5-4.3-2.4-6.8-2.4c-1.4,0-2.9,0.3-4.1,0.8l0,0c1.4-1.7,3.5-2.4,5.9-2.5l0,0c0.8,0,1.4,0,2.2,0.2
				c3,0.4,5.5,1.9,7.4,4c3.1,0,6,0,8.2,0c-2.3-4.6-6.6-8.1-12.5-9.4c-0.3-0.1-0.9-0.2-1.3-0.2c-0.7-0.1-1.3-0.1-2.1-0.1
				c-1.4,0-2.5,0.2-3.9,0.7c-0.9,0.3-1.8,0.7-3,1.4c-3.1,1.9-5.2,4.8-6.4,8c0.8-0.1,1.5-0.2,2.4-0.2
				C899.7,508.5,905,508.5,910.3,508.5z"/>
			<path d="M922.3,526.4c-1.2,1.2-2.7,2.3-4.2,3.1v8.5h6.8c0,0,0-8.8,0-15C924.2,524.3,923.3,525.4,922.3,526.4z"/>
			<path d="M913,511.6c-6.1,0-12.6,0-16.8,0c-1.2,0-2.3,0.1-3.4,0.4c-0.2,1.3-0.4,2.7-0.4,3.9c0,0.3,0,0.7,0,1l0,0v0.2v11.2h6.8
				v-11.2c0-1.3,0.6-2.4,1.5-3.2l2.8,3.2l2.8-3.2c0.9,0.8,1.5,2,1.5,3.2v11.2h2.8c1.4,0,2.8-0.2,4.1-0.7v-10.5
				C914.5,515.3,914,513.3,913,511.6z"/>
			<path d="M917,511.6c0.8,1.5,1.2,3.3,1.2,5.2c0,0.2,0,0.4,0,0.7v8.4c0.7-0.4,1.3-1.1,2-1.7c2.3-2.3,4-5.4,4.8-8.8
				c-0.1-1.3-0.3-2.7-0.7-3.9C922.4,511.6,919.8,511.6,917,511.6z"/>
			<path d="M881.8,538h6.8c0,0,0-2.7,0-6.5h-6.8V538z"/>
			<path d="M888.9,513.8c-3.4,2.2-6,6-7.2,10.6v4h6.8c0-3.5,0-7.6,0-11.4C888.7,515.9,888.8,515,888.9,513.8z"/>
			<rect x="892.3" y="531.5" width="6.8" height="6.5"/>
			<path d="M890.1,509.8c2.5-6,8.1-10.1,13.5-11.2c0.3-0.1,0.7-0.1,0.3-0.1h-2c-11.7,0-20,7.8-20.1,18.3
				C883.9,513.6,886.8,511.1,890.1,509.8z"/>
			<path style="fill:#5E6738;" d="M910.4,528.4h-2.8v3.1h2.8c1.3,0,2.8-0.2,4.1-0.6v-3.2C913.2,528.2,911.9,528.4,910.4,528.4z"/>
			<path style="fill:#5E6738;" d="M925,523c0-3.2,0-5.6,0-5.6c0-0.7,0-1.3-0.1-1.9c-0.9,3.4-2.5,6.5-4.8,8.8c-0.7,0.7-1.3,1.2-2,1.7
				v3.6c1.5-0.8,2.9-1.9,4.2-3.1C923.3,525.4,924.2,524.3,925,523z"/>
			<path style="fill:#5E6738;" d="M881.8,528.4v3.1h6.8c0-1,0-2,0-3.1H881.8z"/>
			<rect x="892.3" y="528.4" style="fill:#5E6738;" width="6.8" height="3.1"/>
			<path style="fill:#5E6738;" d="M881.8,524.5c1.2-4.5,3.8-8.3,7.2-10.6c0.2-1.4,0.7-2.8,1.2-4.1c-3.3,1.3-6.2,3.9-8.4,7.1
				c0,0.1,0,0.2,0,0.3V524.5z"/>
			<path style="fill:#5E6738;" d="M896.2,511.6c4.1,0,10.7,0,16.8,0c-0.7-1.2-1.7-2.2-2.7-3.1c-5.2,0-10.6,0-14,0
				c-0.8,0-1.7,0.1-2.4,0.2c-0.4,1.1-0.8,2.2-1,3.3C893.9,511.9,895.1,511.6,896.2,511.6z"/>
			<path style="fill:#5E6738;" d="M917,511.6c2.9,0,5.4,0,7.3,0c-0.3-1.1-0.8-2.1-1.2-3.1c-2.2,0-5.1,0-8.2,0
				C915.6,509.5,916.4,510.5,917,511.6z"/>
		</g>
	</g>
</g>
<g id="app_x5F_Sharjah--button">
	<g id="app_x5F_Sharjah--marker" transform="translate(1066.000000, 527.000000)">
		<polygon id="Fill-124_3_" style="fill:#8A1538;" points="-2.1,-15.9 -2.1,7.8 5.9,7.8 9.8,12.1 13.7,7.8 21.7,7.8 21.7,-15.9
			"/>
		<g id="Group_3_" transform="translate(5.000000, 5.000000)">
			<path id="Path_6_" style="fill:#FFFFFF;" d="M4.3-15.4c-3.8,0-6.5,2.5-6.5,6v6.7H0c0,0,0-3.7,0-6.7c0-3.1,2.4-5.4,4.7-5.9
				c0.1,0,0.2,0,0.1,0L4.3-15.4L4.3-15.4z"/>
			<path id="Path_7_" style="fill:#FFFFFF;" d="M4.7-15c-0.2,0.1-0.6,0.2-0.9,0.5c-1.7,1-2.4,3-2.5,4.9c0,0.1,0,0.2,0,0.3l0,0v0.1
				v6.7h2.2v-6.7c0-0.5,0.2-0.8,0.5-1l0.8,1l0.8-1c0.3,0.2,0.5,0.6,0.5,1v6.7h2.2v-6.7c0-2-1.6-3.6-3.6-3.6c-0.5,0-0.9,0.1-1.3,0.2
				l0,0c0.5-0.6,1.2-0.8,1.8-0.8l0,0c0.2,0,0.5,0,0.7,0c2,0.3,3.5,2,3.5,3.9c0,0.1,0,0.1,0,0.2v6.6h2.2v-6.6c0-2.9-1.7-5.2-4.6-5.9
				c-0.1,0-0.2-0.1-0.5-0.1c-0.2,0-0.5,0-0.7,0C5.5-15.2,5.1-15.1,4.7-15z"/>
		</g>
	</g>
	<text transform="matrix(1 0 0 1 1096.1475 528.2722)" style="fill:#8A1538; font-family:'MarselisPro'; font-size:16.9987px;">SHARJAH</text>
	<path id="Line-4-Copy-5" style="fill:none;stroke:#8A1538;stroke-width:2.2095;" d="M1075.3,511.7v-62.2"/>
	<g id="Logo_AlZahia">
		<g id="XMLID_308_">
			<path id="XMLID_321_" style="fill:#001C71;" d="M1051.5,427.1c-0.9,1-2,1.5-3.3,1.5c-1.2,0-2.3-0.4-3.2-1.4
				c-0.9-0.9-1.3-2-1.3-3.3s0.4-2.4,1.3-3.3s2-1.4,3.3-1.4s2.4,0.4,3.3,1.4c0.9,0.9,1.3,2,1.3,3.3v4.5h-1.5L1051.5,427.1
				L1051.5,427.1L1051.5,427.1z M1051.5,423.9c0-0.9-0.3-1.7-0.9-2.2c-0.7-0.7-1.3-0.9-2.2-0.9s-1.7,0.3-2.2,0.9
				c-0.7,0.7-0.9,1.3-0.9,2.2s0.3,1.7,0.9,2.2c0.7,0.7,1.3,0.9,2.2,0.9s1.7-0.3,2.2-0.9C1051.2,425.6,1051.5,424.8,1051.5,423.9"/>
			<rect id="XMLID_320_" x="1055.3" y="415.5" style="fill:#001C71;" width="1.5" height="12.9"/>
			<polygon id="XMLID_319_" style="fill:#001C71;" points="1068.3,420.9 1063.3,420.9 1063.3,419.4 1071.1,419.4 1066.2,427
				1071.1,427 1071.1,428.5 1063.3,428.5 			"/>
			<path id="XMLID_316_" style="fill:#001C71;" d="M1080,427.1c-0.9,1-2,1.5-3.3,1.5c-1.2,0-2.3-0.4-3.2-1.4c-0.9-0.9-1.3-2-1.3-3.3
				s0.4-2.4,1.3-3.3s2-1.4,3.3-1.4s2.4,0.4,3.3,1.4c0.9,0.9,1.3,2,1.3,3.3v4.5h-1.5L1080,427.1L1080,427.1L1080,427.1z M1080,423.9
				c0-0.9-0.3-1.7-0.9-2.2c-0.7-0.7-1.3-0.9-2.2-0.9s-1.7,0.3-2.2,0.9c-0.7,0.7-0.9,1.3-0.9,2.2s0.3,1.7,0.9,2.2
				c0.7,0.7,1.3,0.9,2.2,0.9s1.7-0.3,2.2-0.9C1079.7,425.6,1080,424.8,1080,423.9"/>
			<path id="XMLID_315_" style="fill:#001C71;" d="M1090.1,423.3c0-0.7-0.2-1.2-0.7-1.7s-1-0.7-1.7-0.7s-1.2,0.2-1.7,0.7
				s-0.7,1-0.7,1.7v5.3h-1.5v-12.9h1.5v5c0.8-0.9,1.7-1.2,2.8-1.2c1,0,1.9,0.4,2.7,1.2c0.7,0.8,1,1.7,1,2.8v5.3h-1.5v-5.4
				L1090.1,423.3L1090.1,423.3z"/>
			<path id="XMLID_312_" style="fill:#001C71;" d="M1094.2,416.4h1.5v1.5h-1.5V416.4z M1094.2,419.4h1.5v9.1h-1.5V419.4z"/>
			<path id="XMLID_309_" style="fill:#001C71;" d="M1105.3,427.1c-0.9,1-2,1.5-3.3,1.5c-1.2,0-2.3-0.4-3.2-1.4
				c-0.9-0.9-1.3-2-1.3-3.3s0.4-2.4,1.3-3.3s2-1.4,3.3-1.4s2.4,0.4,3.3,1.4c0.9,0.9,1.3,2,1.3,3.3v4.5h-1.5L1105.3,427.1
				L1105.3,427.1L1105.3,427.1z M1105.3,423.9c0-0.9-0.3-1.7-0.9-2.2c-0.7-0.7-1.3-0.9-2.2-0.9s-1.7,0.3-2.2,0.9
				c-0.7,0.7-0.9,1.3-0.9,2.2s0.3,1.7,0.9,2.2c0.7,0.7,1.3,0.9,2.2,0.9s1.7-0.3,2.2-0.9C1105,425.6,1105.3,424.8,1105.3,423.9"/>
		</g>
		<g id="XMLID_21_">
			<g id="XMLID_108_">
				<path id="XMLID_126_" style="fill:#0075C9;" d="M1063.7,443.7v-0.9c-0.6,0.6-1.2,0.9-2,0.9s-1.3-0.2-1.9-0.8
					c-0.6-0.6-0.8-1.2-0.8-1.9c0-0.8,0.2-1.4,0.8-2c0.6-0.6,1.2-0.8,2-0.8s1.4,0.2,2,0.8c0.6,0.6,0.8,1.2,0.8,2v2.7L1063.7,443.7
					L1063.7,443.7z M1063.7,441c0-0.6-0.2-1-0.6-1.3c-0.3-0.3-0.8-0.6-1.3-0.6s-1,0.2-1.3,0.6s-0.6,0.8-0.6,1.3s0.2,1,0.6,1.3
					c0.3,0.3,0.8,0.6,1.3,0.6s1-0.2,1.3-0.6S1063.7,441.5,1063.7,441z"/>
				<path id="XMLID_121_" style="fill:#0075C9;" d="M1067,439.5c-0.3,0.3-0.4,0.7-0.4,1v3.1h-0.9v-3.1c0-0.7,0.2-1.1,0.7-1.7
					s1-0.7,1.7-0.7v0.9C1067.5,439.2,1067.2,439.3,1067,439.5z"/>
				<path id="XMLID_116_" style="fill:#0075C9;" d="M1073.2,443.7v-0.9c-0.6,0.6-1.2,0.9-2,0.9s-1.3-0.2-1.9-0.8
					c-0.6-0.6-0.8-1.2-0.8-1.9c0-0.8,0.2-1.4,0.8-2c0.6-0.6,1.2-0.8,2-0.8s1.4,0.2,2,0.8c0.6,0.6,0.8,1.2,0.8,2v2.7L1073.2,443.7
					L1073.2,443.7z M1073.2,441c0-0.6-0.2-1-0.6-1.3c-0.3-0.3-0.8-0.6-1.3-0.6s-1,0.2-1.3,0.6s-0.6,0.8-0.6,1.3s0.2,1,0.6,1.3
					c0.3,0.3,0.8,0.6,1.3,0.6s1-0.2,1.3-0.6C1073.1,441.9,1073.2,441.5,1073.2,441z"/>
				<path id="XMLID_109_" style="fill:#0075C9;" d="M1080.6,441c0,0.8-0.2,1.4-0.8,2s-1.2,0.8-2,0.8s-1.4-0.2-2-0.8s-0.8-1.2-0.8-2
					v-4.4h0.9v2.5c0.6-0.6,1.2-0.9,2-0.9s1.3,0.2,1.9,0.8C1080.3,439.6,1080.6,440.3,1080.6,441z M1079.7,441c0-0.6-0.2-1-0.6-1.3
					c-0.3-0.3-0.8-0.6-1.3-0.6s-1,0.2-1.3,0.6s-0.6,0.8-0.6,1.3s0.2,1,0.6,1.3c0.3,0.3,0.8,0.6,1.3,0.6s1-0.2,1.3-0.6
					C1079.5,441.9,1079.7,441.5,1079.7,441z"/>
			</g>
			<g id="XMLID_55_">
				<path id="XMLID_76_" style="fill:#0075C9;" d="M1031.4,443c-0.4,0.4-1,0.7-1.7,0.7s-1.1-0.2-1.7-0.7c-0.4-0.4-0.7-1-0.7-1.7
					v-3.1h0.9v3.1c0,0.4,0.1,0.8,0.4,1c0.3,0.3,0.7,0.4,1,0.4c0.4,0,0.8-0.1,1-0.4c0.3-0.2,0.4-0.7,0.4-1v-3.1h0.9v3.1
					C1032.1,442,1031.8,442.6,1031.4,443z"/>
				<path id="XMLID_73_" style="fill:#0075C9;" d="M1036.7,443.7v-3.1c0-0.4-0.1-0.8-0.4-1c-0.3-0.3-0.7-0.4-1-0.4
					c-0.4,0-0.8,0.1-1,0.4s-0.4,0.7-0.4,1v3.1h-0.8v-3.1c0-0.7,0.2-1.1,0.7-1.7c0.4-0.4,1-0.7,1.7-0.7c0.6,0,1.1,0.2,1.7,0.7
					c0.4,0.4,0.7,1,0.7,1.7v3.1H1036.7z"/>
				<path id="XMLID_69_" style="fill:#0075C9;" d="M1038.7,437.4v-0.9h0.9v0.9H1038.7z M1038.7,443.7v-5.3h0.9v5.3H1038.7z"/>
				<path id="XMLID_64_" style="fill:#0075C9;" d="M1054.8,442.9c-0.6,0.6-1.2,0.8-2,0.8s-1.4-0.2-2-0.8s-0.8-1.2-0.8-2
					s0.2-1.4,0.8-2c0.6-0.6,1.1-0.8,1.9-0.8s1.4,0.3,2,0.9v-2.5h0.9v4.4C1055.6,441.7,1055.4,442.4,1054.8,442.9z M1054.7,441
					c0-0.6-0.2-1-0.6-1.3c-0.3-0.3-0.8-0.6-1.3-0.6s-1,0.2-1.3,0.6s-0.6,0.8-0.6,1.3s0.2,1,0.6,1.3c0.3,0.3,0.8,0.6,1.3,0.6
					s1-0.2,1.3-0.6C1054.6,441.9,1054.7,441.5,1054.7,441z"/>
				<path id="XMLID_58_" style="fill:#0075C9;" d="M1046.5,443.7c-0.6,0-1-0.1-1.4-0.4c-0.7-0.4-1-1-1.2-1.8c-0.1-0.8,0-1.4,0.3-2.1
					c0.4-0.7,1-1,1.8-1.2c0.2,0,0.4-0.1,0.7-0.1c0.6,0,1,0.1,1.4,0.4s0.8,0.7,1,1.2c0.2,0.4,0.3,1,0.2,1.4v0.1h-4.5l0,0
					c0.1,0.4,0.4,0.9,0.8,1.1c0.3,0.2,0.7,0.3,1,0.3c0.1,0,0.2,0,0.4,0c0.4-0.1,0.8-0.3,1.1-0.7l0.1-0.1l0.8,0.4l-0.1,0.1
					c-0.4,0.6-1,0.9-1.7,1.1C1047,443.7,1046.8,443.7,1046.5,443.7 M1046.7,439.1c-0.1,0-0.3,0-0.4,0c-0.6,0.1-0.9,0.4-1.2,0.8
					c-0.1,0.1-0.2,0.3-0.2,0.6l0,0h3.6l0,0c-0.1-0.4-0.4-0.9-0.8-1.1C1047.3,439.2,1047,439.1,1046.7,439.1"/>
				<path id="XMLID_56_" style="fill:#0075C9;" d="M1043.6,439.2v-0.9h-1.9v-1.8h-0.9v4.4c0,0.8,0.2,1.4,0.8,2s1.2,0.8,2,0.8v-0.9
					c-0.6,0-1-0.2-1.3-0.6c-0.3-0.3-0.6-0.8-0.6-1.3v-1.8L1043.6,439.2L1043.6,439.2z"/>
			</g>
			<g id="XMLID_25_">
				<path id="XMLID_51_" style="fill:#0075C9;" d="M1096.9,443.7v-3.3c0-0.3-0.1-0.7-0.3-0.9c-0.2-0.2-0.6-0.3-0.8-0.3
					c-0.3,0-0.7,0.1-0.9,0.3c-0.2,0.2-0.3,0.6-0.3,0.9v3.3h-0.9v-3.3c0-0.3-0.1-0.7-0.3-0.9c-0.2-0.2-0.4-0.3-0.9-0.3
					c-0.3,0-0.6,0.1-0.8,0.3c-0.2,0.2-0.3,0.6-0.3,0.9v3.3h-0.9v-3.3c0-0.6,0.2-1.1,0.6-1.5s0.9-0.7,1.4-0.7c0.7,0,1.2,0.2,1.5,0.8
					c0.4-0.6,0.9-0.8,1.5-0.8s1.1,0.2,1.4,0.7s0.6,0.9,0.6,1.5v3.3H1096.9z"/>
				<path id="XMLID_48_" style="fill:#0075C9;" d="M1098.9,437.5v-0.9h0.9v0.9H1098.9z M1098.9,443.7v-5.3h0.9v5.3H1098.9z"/>
				<path id="XMLID_44_" style="fill:#0075C9;" d="M1102.3,439.5c-0.3,0.3-0.4,0.7-0.4,1v3.1h-0.9v-3.1c0-0.7,0.2-1.1,0.7-1.7
					c0.4-0.6,1-0.7,1.7-0.7v0.9C1103,439.2,1102.7,439.3,1102.3,439.5z"/>
				<path id="XMLID_41_" style="fill:#0075C9;" d="M1108.6,443.7v-0.9c-0.6,0.6-1.2,0.9-2,0.9s-1.3-0.2-1.9-0.8
					c-0.6-0.6-0.8-1.2-0.8-1.9c0-0.8,0.2-1.4,0.8-2c0.6-0.6,1.2-0.8,2-0.8s1.4,0.2,2,0.8c0.6,0.6,0.8,1.2,0.8,2v2.7L1108.6,443.7
					L1108.6,443.7z M1108.6,441c0-0.6-0.2-1-0.6-1.3c-0.3-0.3-0.8-0.6-1.3-0.6s-1,0.2-1.3,0.6s-0.6,0.8-0.6,1.3s0.2,1,0.6,1.3
					c0.3,0.3,0.8,0.6,1.3,0.6s1-0.2,1.3-0.6C1108.4,441.9,1108.6,441.5,1108.6,441z"/>
				<path id="XMLID_39_" style="fill:#0075C9;" d="M1123,442.2c0,0.4-0.1,0.8-0.4,1.1c-0.3,0.3-0.7,0.4-1.1,0.4
					c-0.3,0-0.7-0.1-1-0.3c-0.3-0.2-0.4-0.6-0.6-0.9l0.9-0.2c0,0.1,0,0.1,0.1,0.2c0,0.1,0.1,0.1,0.1,0.2c0.1,0,0.1,0.1,0.2,0.1
					s0.1,0,0.2,0c0.2,0,0.3-0.1,0.4-0.2s0.2-0.3,0.2-0.4c0-0.3-0.2-0.6-0.6-0.7s-0.6-0.2-0.8-0.3c-0.2-0.1-0.3-0.1-0.3-0.1
					c-0.3-0.2-0.6-0.7-0.6-1.2c0-0.4,0.1-0.8,0.4-1.1s0.7-0.4,1.1-0.4c0.3,0,0.7,0.1,1,0.3c0.3,0.2,0.4,0.6,0.6,0.9l-0.9,0.2
					c-0.1-0.3-0.3-0.6-0.7-0.6c-0.2,0-0.3,0.1-0.4,0.2s-0.2,0.3-0.2,0.4c0,0.3,0.2,0.6,0.6,0.7c0.3,0.1,0.6,0.3,0.8,0.3
					c0.2,0.1,0.3,0.1,0.3,0.1C1122.8,441.3,1123,441.7,1123,442.2z"/>
				<path id="XMLID_33_" style="fill:#0075C9;" d="M1086.8,443.7c-0.6,0-1-0.1-1.4-0.4c-0.7-0.4-1-1-1.2-1.8c-0.1-0.8,0-1.4,0.3-2.1
					c0.4-0.7,1-1,1.8-1.2c0.2,0,0.4-0.1,0.7-0.1c0.6,0,1,0.1,1.4,0.4s0.8,0.7,1,1.2c0.2,0.4,0.3,1,0.2,1.4v0.1h-4.5l0,0
					c0.1,0.4,0.4,0.9,0.8,1.1c0.3,0.2,0.7,0.3,1,0.3c0.1,0,0.2,0,0.4,0c0.4-0.1,0.8-0.3,1.1-0.7l0.1-0.1l0.8,0.4l-0.1,0.1
					c-0.4,0.6-1,0.9-1.7,1.1C1087.1,443.7,1087,443.7,1086.8,443.7 M1086.8,439.1c-0.1,0-0.3,0-0.4,0c-0.6,0.1-0.9,0.4-1.2,0.8
					c-0.1,0.1-0.2,0.3-0.2,0.6l0,0h3.6l0,0c-0.1-0.4-0.4-0.9-0.8-1.1C1087.4,439.2,1087.1,439.1,1086.8,439.1"/>
				<path id="XMLID_28_" style="fill:#0075C9;" d="M1116.1,443.7c-0.6,0-1-0.1-1.4-0.4c-0.7-0.4-1-1-1.2-1.8c-0.1-0.8,0-1.4,0.3-2.1
					c0.4-0.7,1-1,1.8-1.2c0.2,0,0.4-0.1,0.7-0.1c0.6,0,1,0.1,1.4,0.4s0.8,0.7,1,1.2c0.2,0.4,0.3,1,0.2,1.4v0.1h-4.5l0,0
					c0.1,0.4,0.4,0.9,0.8,1.1c0.3,0.2,0.7,0.3,1,0.3c0.1,0,0.2,0,0.4,0c0.4-0.1,0.8-0.3,1.1-0.7l0.1-0.1l0.8,0.4l-0.1,0.1
					c-0.4,0.6-1,0.9-1.7,1.1C1116.6,443.7,1116.4,443.7,1116.1,443.7 M1116.3,439.1c-0.1,0-0.3,0-0.4,0c-0.6,0.1-0.9,0.4-1.2,0.8
					c-0.1,0.1-0.2,0.3-0.2,0.6l0,0h3.6l0,0c-0.1-0.4-0.4-0.9-0.8-1.1C1116.9,439.2,1116.6,439.1,1116.3,439.1"/>
				<path id="XMLID_26_" style="fill:#0075C9;" d="M1113.2,439.2v-0.9h-1.9v-1.8h-0.9v4.4c0,0.8,0.2,1.4,0.8,2s1.2,0.8,2,0.8v-0.9
					c-0.6,0-1-0.2-1.3-0.6c-0.3-0.3-0.6-0.8-0.6-1.3v-1.8L1113.2,439.2L1113.2,439.2z"/>
			</g>
		</g>
		<g id="XMLID_2_">
			<g id="XMLID_20_">
				<g>

						<linearGradient id="SVGID_1_" gradientUnits="userSpaceOnUse" x1="1072.6633" y1="212.2877" x2="1052.074" y2="235.6678" gradientTransform="matrix(1 0 0 1 0 177.7113)">
						<stop  offset="0" style="stop-color:#E34126"/>
						<stop  offset="1" style="stop-color:#FFC333"/>
					</linearGradient>
					<path id="SVGID_64_" style="fill:url(#SVGID_1_);" d="M1053.7,397.4v11.8h6.8v-12.8c-0.4,0.1-1,0.1-1.5,0.1
						c-1.2,0-2.4-0.2-3.6-0.8C1054.8,396.4,1054.3,396.9,1053.7,397.4 M1068,390.1c-1,0.9-1.9,2-2.7,3.5c-0.3,0.4-0.7,0.9-1.1,1.2
						v14.4h4c0-0.7-0.1-1.4-0.1-2c-0.1-0.8-0.8-1.4-0.7-2.1c0.6-3.2,2.3-2.2,2.9-5.4c0.2-1,0.4-2,0.8-2.9v-7.3
						C1070.1,389.7,1069.1,389.9,1068,390.1"/>
				</g>
			</g>
			<g id="XMLID_102_">
				<g>

						<linearGradient id="SVGID_2_" gradientUnits="userSpaceOnUse" x1="1072.1899" y1="211.0956" x2="1103.6477" y2="211.9654" gradientTransform="matrix(1 0 0 1 0 177.7113)">
						<stop  offset="0" style="stop-color:#007496"/>
						<stop  offset="0.417" style="stop-color:#007496"/>
						<stop  offset="1" style="stop-color:#5BCAF4"/>
					</linearGradient>
					<path id="SVGID_63_" style="fill:url(#SVGID_2_);" d="M1084.3,383.4c-0.6,0.6-1.2,0.4-2.1,0.3c-1.2-0.1-2.5-0.2-4.1,1.8
						c0.8,0.9,1.3,1.9,1.3,3.1v2.3c0.3,0,0.7,0,1.1,0c0.9,0,2-0.1,2.7,0c1,0.2,2,0.3,3.2,0.8v-2.8c0-2.3-0.4-4.3-1.1-5.7
						C1084.9,383.3,1084.7,383.3,1084.3,383.4 M1088.3,381.9c1,1.9,1.7,4.2,1.7,7v5.1c0.6,0.4,1,1,1.5,1.7c1.9,1.2,3.8,2.8,5.3,4.4
						c0-5.4,0-11.4,0-11.4c0-3.6-0.9-7.1-2.7-9.9C1092.5,380,1090.4,381.1,1088.3,381.9"/>
				</g>
			</g>
			<g id="XMLID_17_">
				<g>

						<linearGradient id="SVGID_3_" gradientUnits="userSpaceOnUse" x1="1073.958" y1="207.7479" x2="1031.338" y2="212.9667" gradientTransform="matrix(1 0 0 1 0 177.7113)">
						<stop  offset="0" style="stop-color:#D83C73"/>
						<stop  offset="0.1992" style="stop-color:#CE3869"/>
						<stop  offset="0.5406" style="stop-color:#B32E4D"/>
						<stop  offset="0.9803" style="stop-color:#871D21"/>
						<stop  offset="1" style="stop-color:#851C1F"/>
					</linearGradient>
					<path id="SVGID_62_" style="fill:url(#SVGID_3_);" d="M1064.1,388.3v3.2c1.5-0.6,2.9-1,4.2-1.3c1-0.2,2-0.4,2.8-0.6v-1.1
						c0-1.3,0.6-2.4,1.5-3.3l2.3,2.8c-0.6-1-1.3-2.2-2.2-3.2c-1.8-0.4-4.9-1.2-7.7-2.2C1064.3,384.5,1064.1,386.5,1064.1,388.3
						 M1053.7,388.3v9.6c0.3-0.3,0.7-0.4,0.8-0.4c1.4-1.1,4.1-3.4,6.1-4.5v-4.8c0-2.5,0.6-4.9,1.3-7.1c-1.1-0.6-2.1-1.1-2.9-1.8
						c-0.2-0.2-0.6-0.4-0.8-0.6c-0.1,0-0.8-0.6-1.4-1.1C1054.8,380.9,1053.7,384.5,1053.7,388.3"/>
				</g>
			</g>
			<g id="XMLID_15_">
				<g>

						<linearGradient id="SVGID_4_" gradientUnits="userSpaceOnUse" x1="1053.6827" y1="215.9387" x2="1070.9912" y2="215.9387" gradientTransform="matrix(1 0 0 1 0 177.7113)">
						<stop  offset="0" style="stop-color:#EF5136"/>
						<stop  offset="0.4045" style="stop-color:#CB3740"/>
						<stop  offset="0.7805" style="stop-color:#AF2447"/>
						<stop  offset="1" style="stop-color:#A51D4A"/>
					</linearGradient>
					<path id="SVGID_61_" style="fill:url(#SVGID_4_);" d="M1053.7,397.5v0.4c1.4,0,4.3-1.4,5.3-1.4c0.6,0,1,0,1.5-0.1v-3.6
						C1058.6,393.8,1055.4,396.2,1053.7,397.5 M1064.1,391.4v3.4c0.4-0.3,0.8-0.8,1.1-1.2c1.7-2.7,4.3-3.3,5.7-4v-0.2
						C1069.4,389.9,1066.5,390.7,1064.1,391.4"/>
				</g>
			</g>
			<g id="XMLID_12_">
				<g>

						<linearGradient id="SVGID_5_" gradientUnits="userSpaceOnUse" x1="1078.9194" y1="211.0354" x2="1100.5653" y2="234.2376" gradientTransform="matrix(1 0 0 1 0 177.7113)">
						<stop  offset="0" style="stop-color:#698735"/>
						<stop  offset="1" style="stop-color:#D1D747"/>
					</linearGradient>
					<path id="SVGID_60_" style="fill:url(#SVGID_5_);" d="M1090,405c0.1,0.3,0.2,0.7,0.1,1.1c1.7,1.1,3.2,2.1,4.6,3.1h2.1
						c0,0,0-2.7,0-6.1c-0.7-1-1.4-2.2-2.3-3.5c-1-1.7-2-2.9-2.9-4c-0.8-0.9-1.2-1.4-1.5-1.9L1090,405L1090,405z M1079.5,390.8v5.6
						c0.2,0.1,0.3,0.1,0.4,0.2c2.2,1.2,3.8,2.8,5.4,4.2c0.3,0.3,0.7,0.6,1,0.9v-10.1c-2-0.9-4.3-1-5.7-1
						C1080.1,390.7,1079.7,390.7,1079.5,390.8"/>
				</g>
			</g>
			<g id="XMLID_157_">
				<g>

						<linearGradient id="SVGID_6_" gradientUnits="userSpaceOnUse" x1="1091.8435" y1="221.6387" x2="1101.5181" y2="221.6387" gradientTransform="matrix(1 0 0 1 0 177.7113)">
						<stop  offset="0" style="stop-color:#698735"/>
						<stop  offset="1" style="stop-color:#095B83"/>
					</linearGradient>
					<path id="SVGID_59_" style="fill:url(#SVGID_6_);" d="M1094.4,399.6c0.9,1.3,1.7,2.5,2.3,3.5c0-1,0-2,0-3.1
						c-1.5-1.7-3.3-3.2-5.3-4.4C1092.4,396.7,1093.4,398.1,1094.4,399.6"/>
				</g>
			</g>
			<g id="XMLID_11_">
				<g>

						<linearGradient id="SVGID_7_" gradientUnits="userSpaceOnUse" x1="1080.7029" y1="212.4207" x2="1082.7324" y2="244.7479" gradientTransform="matrix(1 0 0 1 0 177.7113)">
						<stop  offset="0" style="stop-color:#698735"/>
						<stop  offset="1" style="stop-color:#D1D747"/>
					</linearGradient>
					<path id="SVGID_58_" style="fill:url(#SVGID_7_);" d="M1090,409.2h5.7c-1.8-1.1-3.9-2.1-5.6-3v-0.1c0,0-0.1,0-0.1-0.1V409.2
						L1090,409.2z M1068,407.2c0.1,0.1,0.1,1,0.1,2h3v-7.3C1070.2,403.8,1069.2,405.7,1068,407.2 M1079.5,409.2h6.8v-6.8
						c-2.7-2-5.4-4.2-6.8-5.7V409.2z"/>
				</g>
			</g>

				<linearGradient id="SVGID_8_" gradientUnits="userSpaceOnUse" x1="1067.285" y1="225.2887" x2="1073.7966" y2="225.2887" gradientTransform="matrix(1 0 0 1 0 177.7113)">
				<stop  offset="0" style="stop-color:#AD5F28"/>
				<stop  offset="1" style="stop-color:#215A4A"/>
			</linearGradient>
			<path id="SVGID_57_" style="fill:url(#SVGID_8_);" d="M1070.2,399.7c-0.6,3.2-2.3,2.2-2.9,5.4c-0.1,0.4,0.2,2.5,0.4,4.1h0.7
				c0.7-2.3,1.7-4.8,2.5-7.2v-5.2C1070.6,397.7,1070.3,398.7,1070.2,399.7"/>
			<g id="XMLID_10_">
				<g>

						<linearGradient id="SVGID_9_" gradientUnits="userSpaceOnUse" x1="1079.4641" y1="225.1387" x2="1096.3641" y2="225.1387" gradientTransform="matrix(1 0 0 1 0 177.7113)">
						<stop  offset="0" style="stop-color:#698735"/>
						<stop  offset="1" style="stop-color:#215A4A"/>
					</linearGradient>
					<path id="SVGID_56_" style="fill:url(#SVGID_9_);" d="M1090,406.5c1.7,1,3.5,2.1,5,2.9h1.4c-1-1.3-3.9-3.3-6.4-5.1V406.5z
						 M1079.5,396.6c1.7,1.9,4.5,4.1,6.8,6.7v-1.8c-0.4-0.3-0.8-0.6-1-0.8c-1.5-1.5-3.2-3.1-5.4-4.2c-0.1-0.1-0.3-0.1-0.4-0.2V396.6
						L1079.5,396.6z"/>
				</g>
			</g>
			<g id="XMLID_7_">
				<g>

						<linearGradient id="SVGID_10_" gradientUnits="userSpaceOnUse" x1="1074.1207" y1="213.7204" x2="1073.8909" y2="188.9752" gradientTransform="matrix(1 0 0 1 0 177.7113)">
						<stop  offset="0" style="stop-color:#B12850"/>
						<stop  offset="1" style="stop-color:#007497"/>
					</linearGradient>
					<path id="SVGID_55_" style="fill:url(#SVGID_10_);" d="M1078,375.4c0.3-1.8,0.9-3.6,1.9-5.3c-0.3,0-0.7,0-1,0
						c-1.4,0-2.5,0.2-3.8,0.7c-0.9,0.3-1.8,0.7-3,1.4c-1.7,1-3,2.3-4.1,3.8c2.8,3.1,5.6,9.2,7,12.3l0.3,0.3l1.3-1.7
						c0.3-2.1,0.4-4.8,1.2-5.6c-0.1-0.3-0.1-0.7-0.2-0.9c0-0.3,0-1.3,0.1-2.8c-2.7-0.4-5.2-0.1-6.5,0.4
						C1072.8,376.2,1075.4,375.3,1078,375.4z"/>
				</g>
			</g>

				<linearGradient id="SVGID_11_" gradientUnits="userSpaceOnUse" x1="1076.8292" y1="208.4828" x2="1065.9354" y2="187.2613" gradientTransform="matrix(1 0 0 1 0 177.7113)">
				<stop  offset="0" style="stop-color:#B12850"/>
				<stop  offset="1" style="stop-color:#007497"/>
			</linearGradient>
			<path id="SVGID_54_" style="fill:url(#SVGID_11_);" d="M1075,370.1c0.1,0,0.2,0,0.3-0.1c0.3-0.1,0.7-0.1,0.3-0.1h-0.7l0,0
				c-0.1,0-0.1,0-0.1,0h-1.3c-0.8,0-1.7,0-2.4,0.1l0,0c-3.2,0.3-6.1,1.2-8.5,2.7c0.2,0.2,0.4,0.3,0.7,0.6c1,0.4,1.9,0.9,2.9,1.4
				c0.1,0,0.1,0.1,0.2,0.1C1069,372.4,1072.1,370.8,1075,370.1L1075,370.1z M1075,370.1L1075,370.1L1075,370.1L1075,370.1z"/>

				<linearGradient id="SVGID_12_" gradientUnits="userSpaceOnUse" x1="1073.7285" y1="214.3049" x2="1094.4586" y2="187.4863" gradientTransform="matrix(1 0 0 1 0 177.7113)">
				<stop  offset="0" style="stop-color:#007496"/>
				<stop  offset="1" style="stop-color:#5BCAF4"/>
			</linearGradient>
			<path id="SVGID_53_" style="fill:url(#SVGID_12_);" d="M1078.1,380.9c-0.1,0.1-1.2,0.8-1.9,6.4l1.8-2.1c0.2,0.2,0.3,0.3,0.6,0.6
				c0.7-1.1,1.2-2,1.7-1.9c0.1,0,0.3,0,0.6,0c0.8,0,1.1,0.3,2.7-0.1c0.2-0.2,1-0.8,1.7-1.2c-1.3-2.5-3.5-4-5.7-4.8
				C1078.7,379.5,1078.1,380.8,1078.1,380.9 M1081.2,372.1c-0.3,1-0.7,2-1,2.9c0,0-0.1,0.2-0.2,0.7c2.9,0.7,5.6,2.3,7.5,5.1
				c1.9-1.2,4-2.2,6.1-2.8c-2.4-3.6-6.3-6.3-11.4-7.5c-0.2,0-0.4-0.1-0.8-0.1C1081.6,370.9,1081.5,371.6,1081.2,372.1"/>

				<linearGradient id="SVGID_13_" gradientUnits="userSpaceOnUse" x1="1083.3612" y1="203.1887" x2="1094.1611" y2="203.1887" gradientTransform="matrix(1 0 0 1 0 177.7113)">
				<stop  offset="0" style="stop-color:#00678C"/>
				<stop  offset="1" style="stop-color:#1461AD"/>
			</linearGradient>
			<path id="SVGID_52_" style="fill:url(#SVGID_13_);" d="M1083.3,383.9c0.6-0.2,1.2-0.3,1.9-0.7c-0.1-0.2-0.2-0.4-0.3-0.6
				C1084.3,383.3,1083.6,383.7,1083.3,383.9 M1087.6,380.7c0.3,0.4,0.6,0.9,0.8,1.3c2.1-1,4.3-2.1,5.7-3.3c-0.1-0.2-0.3-0.6-0.4-0.8
				C1091.5,378.6,1089.5,379.5,1087.6,380.7"/>

				<linearGradient id="XMLID_3_" gradientUnits="userSpaceOnUse" x1="1076.6654" y1="203.3887" x2="1079.209" y2="203.3887" gradientTransform="matrix(1 0 0 1 0 177.7113)">
				<stop  offset="0" style="stop-color:#00678C"/>
				<stop  offset="1" style="stop-color:#19469C"/>
			</linearGradient>
			<path id="XMLID_6_" style="fill:url(#XMLID_3_);" d="M1077.6,380.4c0,0.2-1.1,3.9-1,4.2c0.1-0.1,1.3-3.5,1.4-3.8
				c0.1-0.1,0.7-1.4,1.1-2.9c-0.4-0.1-1-0.2-1.4-0.3C1077.6,379.1,1077.6,380.2,1077.6,380.4"/>

				<linearGradient id="XMLID_4_" gradientUnits="userSpaceOnUse" x1="1078.0619" y1="195.0887" x2="1081.5131" y2="195.0887" gradientTransform="matrix(1 0 0 1 0 177.7113)">
				<stop  offset="0" style="stop-color:#00678C"/>
				<stop  offset="1" style="stop-color:#19469C"/>
			</linearGradient>
			<path id="XMLID_5_" style="fill:url(#XMLID_4_);" d="M1078,375.4c0.7,0,1.3,0.1,2,0.2c0.1-0.4,0.2-0.7,0.2-0.7
				c0.3-0.9,0.7-1.9,1-2.9c0.2-0.6,0.2-1.2,0.2-1.8c-0.2,0-0.3-0.1-0.6-0.1c-0.3,0-0.7-0.1-1-0.1
				C1079,371.8,1078.4,373.7,1078,375.4"/>

				<linearGradient id="SVGID_14_" gradientUnits="userSpaceOnUse" x1="1077.7812" y1="214.8541" x2="1055.3344" y2="192.7902" gradientTransform="matrix(1 0 0 1 0 177.7113)">
				<stop  offset="0" style="stop-color:#B12850"/>
				<stop  offset="1" style="stop-color:#604B9E"/>
			</linearGradient>
			<path id="SVGID_51_" style="fill:url(#SVGID_14_);" d="M1064.9,382.4c1.8,0.6,3,1,4,1.8c0.8,0.6,3.1,1.7,3.1,1.7s0.2-0.2,0.4-0.6
				l2.8,3.3c-0.6-1-1.3-2.8-2.4-5c-0.3-0.6-1.1-1.8-1.3-2c-0.7-0.3-1.8-2.7-3.9-5.1C1066.3,378.4,1065.4,380.4,1064.9,382.4
				 M1056.8,378c0.3,0.2,0.8,0.6,1.1,0.9c1.7,0.1,2.9,1.4,4,2.3c1-2.3,2.4-4.4,4.1-6.1c-0.7-0.7-1.5-1.2-2.4-1.8
				c0,0-0.4-0.3-0.9-0.8C1060.4,374,1058.4,375.8,1056.8,378"/>

				<linearGradient id="SVGID_15_" gradientUnits="userSpaceOnUse" x1="1056.8169" y1="204.1387" x2="1072.0168" y2="204.1387" gradientTransform="matrix(1 0 0 1 0 177.7113)">
				<stop  offset="0" style="stop-color:#521A57"/>
				<stop  offset="0.4741" style="stop-color:#5C2250"/>
				<stop  offset="1" style="stop-color:#6D3044"/>
			</linearGradient>
			<path id="SVGID_50_" style="fill:url(#SVGID_15_);" d="M1064.8,382.8c2.4,1,5.1,2,7.2,3l0,0c-1.1-0.6-4.2-2.4-7-4
				C1065,382.1,1064.9,382.4,1064.8,382.8 M1056.8,378.1c0.9,0.7,1.8,1.4,1.9,1.4c0.9,0.7,2,1.3,3.2,2c0.1-0.3,0.3-0.8,0.6-1.1
				c-0.2-0.1-0.3-0.2-0.6-0.2c-1.3-0.6-3-2-4.9-2.3C1056.9,377.9,1056.9,378,1056.8,378.1"/>

				<linearGradient id="SVGID_16_" gradientUnits="userSpaceOnUse" x1="1062.7" y1="202.9387" x2="1075.2511" y2="202.9387" gradientTransform="matrix(1 0 0 1 0 177.7113)">
				<stop  offset="0" style="stop-color:#842447"/>
				<stop  offset="1" style="stop-color:#392663"/>
			</linearGradient>
			<path id="SVGID_49_" style="fill:url(#SVGID_16_);" d="M1067.2,377.1c1.5,1.9,2.9,4,3.8,6.2c0.3,0.9,0.8,1.7,1.2,2.3
				c0.1-0.1,0.2-0.2,0.3-0.3l2.8,3.3c-0.8-1.9-4.1-9.2-7.3-12.6C1067.6,376.3,1067.4,376.7,1067.2,377.1 M1065.8,375.4
				c0.2-0.2,0.6-0.6,0.8-0.8c-0.1,0-0.1-0.1-0.2-0.1c-0.9-0.6-2.3-1.3-3.3-1.8C1064,373.7,1064.9,374.5,1065.8,375.4 M1062.7,372.7
				L1062.7,372.7c0.1,0,0.2,0.1,0.3,0.1C1063,372.8,1062.9,372.7,1062.7,372.7C1062.8,372.7,1062.8,372.7,1062.7,372.7"/>
		</g>
	</g>
</g>
<rect id="app_x5F_Sharjah--zoom" x="1042.5" y="501" transform="matrix(0.5765 -0.8171 0.8171 0.5765 30.9416 1100.0624)" style="fill:none;stroke:#1D1D1B;stroke-width:0.5524;stroke-miterlimit:10;" width="68.4" height="38.4"/>
<rect id="app_x5F_Dubai--zoom" x="1014.2" y="546.3" transform="matrix(0.5765 -0.8171 0.8171 0.5765 -18.0778 1096.1908)" style="fill:none;stroke:#1D1D1B;stroke-width:0.5524;stroke-miterlimit:10;" width="68.4" height="38.4"/>
</svg>
