<?xml version="1.0" encoding="utf-8"?>
<!-- Generator: Adobe Illustrator 19.1.0, SVG Export Plug-In . SVG Version: 6.00 Build 0)  -->
<svg version="1.1" id="app_x5F_UAE--parent" xmlns="http://www.w3.org/2000/svg" xmlns:xlink="http://www.w3.org/1999/xlink"
	 x="0px" y="0px" width="3840px" height="2160px" viewBox="0 0 3840 2160" style="enable-background:new 0 0 3840 2160;"
	 xml:space="preserve">
<g id="app_x5_Dummy--marker">
	<rect x="2880" y="-1620" width="2" height="2"/>
</g>
<g id="NorthPoint" transform="translate(1831.070256, 301.453972) rotate(56.000000) translate(-1831.070256, -181.453972) translate(1792.570256, 137.953972)">
	<path id="Fill-933_1_" style="fill:#8A1538;" d="M1186.4-1292.2l15.2,19.6l-22.6-7L1186.4-1292.2z M1175.6-1274.8l40.2,10.6l-26-32
		l-40.2-10.6L1175.6-1274.8z M1186.4-1292.2l15.2,19.6l-22.6-7L1186.4-1292.2z M1175.6-1274.8l40.2,10.6l-26-32l-40.2-10.6
		L1175.6-1274.8z M1186.4-1292.2l15.2,19.6l-22.6-7L1186.4-1292.2z M1215.8-1264.2l-26-32l-40.2-10.6l26,32L1215.8-1264.2z
		 M1161.6-1326c22-10.8,48.6-2,59.8,20.4c10.8,22,2,48.6-20.4,59.8c-22,10.8-48.6,2-59.8-20.4
		C1130.4-1288.2,1139.2-1314.6,1161.6-1326z M1205.6-1236.8c27.4-13.4,37.8-46.8,24.6-73c-13.4-27.2-46-37.4-73.4-24
		s-37.4,46.4-24.6,73.2C1146.4-1234.6,1178.8-1224,1205.6-1236.8z M1186.4-1292.2l15.2,19.6l-22.6-7L1186.4-1292.2z M1175.6-1274.8
		l40.2,10.6l-26-32l-40.2-10.6L1175.6-1274.8z M1186.4-1292.2l15.2,19.6l-22.6-7L1186.4-1292.2z M1175.6-1274.8l40.2,10.6l-26-32
		l-40.2-10.6L1175.6-1274.8z M1186.4-1292.2l15.2,19.6l-22.6-7L1186.4-1292.2z M1175.6-1274.8l40.2,10.6l-26-32l-40.2-10.6
		L1175.6-1274.8z M1186.4-1292.2l15.2,19.6l-22.6-7L1186.4-1292.2z M1175.6-1274.8l40.2,10.6l-26-32l-40.2-10.6L1175.6-1274.8z"/>
	<g id="Back-Copy-5_1_" transform="translate(34.000000, 0.000000)">

			<text transform="matrix(0.5505 -0.8348 0.8348 0.5505 1090.6328 -1312.6851)" style="fill:#8A1538; font-family:'ArialMT'; font-size:27.7598px;">N</text>
	</g>
</g>
<g>
	<g id="Map-ID-Grey" transform="translate(908.000000, 742.000000)">
		<polygon id="Fill-124" style="fill:#989898;" points="921.8,686.2 921.8,733.8 937.6,733.8 945.4,742.2 953.6,733.8 969.4,733.8
			969.4,686.2 		"/>
		<g id="Group" transform="translate(5.000000, 5.000000)">
			<path id="Path" style="fill:#FFFFFF;" d="M939.4,692.4c-7.6,0-13,5-13,12v13.4h4.4c0,0,0-7.4,0-13.4c0-6.2,4.8-10.8,9.6-11.8
				c0.2,0,0.4,0,0.2,0L939.4,692.4L939.4,692.4z"/>
			<path id="Path_1_" style="fill:#FFFFFF;" d="M940.4,693c-0.4,0.2-1.2,0.4-1.8,1c-3.4,2-4.8,6-5.2,9.8c0,0.2,0,0.4,0,0.6l0,0v0.2
				V718h4.4v-13.4c0-1,0.4-1.6,1-2l1.6,2l1.6-2c0.6,0.4,1,1.2,1,2V718h4.4v-13.4c0-4-3.2-7.2-7.2-7.2c-1,0-1.8,0.2-2.6,0.4l0,0
				c1-1.2,2.4-1.6,3.8-1.6l0,0c0.4,0,1,0,1.4,0c4,0.6,7,4,7,7.8c0,0.2,0,0.2,0,0.4v13.2h4.4v-13.2c0-5.8-3.4-10.4-9.2-11.8
				c-0.2,0-0.4-0.2-1-0.2c-0.4,0-1,0-1.4,0C941.8,692.6,941,692.6,940.4,693z"/>
		</g>
	</g>
	<text transform="matrix(1 0 0 1 1891.6641 1462.626)" style="fill:#989898; font-family:'MarselisPro'; font-size:33.9974px;">ABU DHABI</text>
</g>
<g>
	<g id="Map-ID-Grey_1_" transform="translate(1173.000000, 812.000000)">
		<polygon id="Fill-124_2_" style="fill:#989898;" points="1157.2,748.6 1157.2,796 1173,796 1181,804.6 1189,796 1204.8,796
			1204.8,748.6 		"/>
		<g id="Group_2_" transform="translate(5.000000, 5.000000)">
			<path id="Path_4_" style="fill:#FFFFFF;" d="M1175,754.6c-7.6,0-13,5-13,12V780h4.4c0,0,0-7.4,0-13.4c0-6.2,4.8-10.8,9.6-11.8
				c0.2,0,0.4,0,0.2,0L1175,754.6L1175,754.6z"/>
			<path id="Path_5_" style="fill:#FFFFFF;" d="M1175.8,755.2c-0.4,0.2-1.2,0.4-1.8,1c-3.4,2-4.8,6-5.2,9.8c0,0.2,0,0.4,0,0.6l0,0
				v0.2v13.4h4.4v-13.4c0-1,0.4-1.6,1-2l1.6,2l1.6-2c0.6,0.4,1,1.2,1,2v13.4h4.4v-13.4c0-4-3.2-7.2-7.2-7.2c-1,0-1.8,0.2-2.6,0.4
				l0,0c1-1.2,2.4-1.6,3.8-1.6l0,0c0.4,0,1,0,1.4,0c4,0.6,7,4,7,7.8c0,0.2,0,0.2,0,0.4v13.2h4.4v-13.2c0-5.6-3.6-10.2-9.4-11.6
				c-0.2,0-0.4-0.2-1-0.2c-0.4,0-1,0-1.4,0C1177.2,754.8,1176.6,755,1175.8,755.2z"/>
		</g>
	</g>
	<text transform="matrix(1 0 0 1 2394.3926 1594.8389)" style="fill:#989898; font-family:'MarselisPro'; font-size:33.9974px;">AL AIN</text>
</g>
<g>
	<g id="Map-ID-Grey_2_" transform="translate(1232.000000, 373.000000)">
		<polygon id="Fill-124_4_" style="fill:#989898;" points="1209.6,358.4 1209.6,405.8 1225.4,405.8 1233.4,414.4 1241.2,405.8
			1257.2,405.8 1257.2,358.4 		"/>
		<g id="Group_4_" transform="translate(5.000000, 5.000000)">
			<path id="Path_8_" style="fill:#FFFFFF;" d="M1227.4,364.6c-7.6,0-13,5-13,12V390h4.4c0,0,0-7.4,0-13.4c0-6.2,4.8-10.8,9.4-11.8
				c0.2,0,0.4,0,0.2,0h-1.2v-0.2H1227.4z"/>
			<path id="Path_9_" style="fill:#FFFFFF;" d="M1228,365c-0.4,0.2-1,0.4-1.8,0.8c-3.4,2-4.8,6-5,9.8c0,0.2,0,0.4,0,0.6l0,0v0.2V390
				h4.4v-13.4c0-1,0.4-1.6,1-2l1.6,2l1.6-2c0.6,0.4,1,1.2,1,2V390h4.2v-13.4c0-4-3.2-7.2-7.2-7.2c-1,0-1.8,0.2-2.6,0.4l0,0
				c1-1.2,2.4-1.6,3.8-1.6l0,0c0.4,0,1,0,1.4,0c4,0.6,7,4,7,7.8c0,0.2,0,0.2,0,0.4v13.2h4.4v-13.2c0-5.8-3.4-10.4-9.2-11.8
				c-0.2,0-0.4-0.2-1-0.2c-0.4,0-1,0-1.4,0C1229.8,364.6,1229,364.8,1228,365z"/>
		</g>
	</g>
	<text transform="matrix(1 0 0 1 2501.4082 765.6758)" style="fill:#989898; font-family:'MarselisPro'; font-size:33.9974px;">RAS AL-KHAIMAH</text>
</g>
<g id="app_x5F_Dubai--button">
	<g transform="translate(1032.000000, 577.000000)">
		<polygon id="Fill-124_1_" style="fill:#8A1538;" points="1032,539.8 1032,587.2 1047.8,587.2 1055.6,595.8 1063.8,587.2
			1079.6,587.2 1079.6,539.8 		"/>
		<g id="Group_1_" transform="translate(5.000000, 5.000000)">
			<path id="Path_2_" style="fill:#FFFFFF;" d="M1049.6,545.8c-7.6,0-13,5-13,12v13.4h4.4c0,0,0-7.4,0-13.4c0-6.2,4.8-10.8,9.6-11.8
				c0.2,0,0.4,0,0.2,0L1049.6,545.8L1049.6,545.8z"/>
			<path id="Path_3_" style="fill:#FFFFFF;" d="M1050.6,546.4c-0.4,0.2-1.2,0.4-1.8,1c-3.4,2-4.8,6-5.2,9.8c0,0.2,0,0.4,0,0.6l0,0
				v0.2v13.4h4.4V558c0-1,0.4-1.6,1-2l1.6,2l1.6-2c0.6,0.4,1,1.2,1,2v13.4h4.4V558c0-4-3.2-7.2-7.2-7.2c-1,0-1.8,0.2-2.6,0.4l0,0
				c1-1.2,2.4-1.6,3.8-1.6l0,0c0.4,0,1,0,1.4,0c4,0.6,7,4,7,7.8c0,0.2,0,0.2,0,0.4V571h4.4v-13.2c0-5.8-3.4-10.4-9.2-11.8
				c-0.2,0-0.4-0.2-1-0.2c-0.4,0-1,0-1.4,0C1052,545.8,1051.4,546,1050.6,546.4z"/>
		</g>
	</g>
	<rect id="app_x5F_Dubai--tap" x="2050.8" y="1106" style="fill:#FFFFFF;fill-opacity:0;" width="75" height="75"/>
	<text transform="matrix(1 0 0 1 2128.0742 1150.9814)" style="fill:#8A1538; font-family:'MarselisPro'; font-size:33.9974px;">DUBAI</text>
	<path id="Line-4-Copy-3" style="fill:none;stroke:#8A1538;stroke-width:4.419;" d="M2064,1141.2h-146"/>
	<g>
		<g>
			<path d="M1770.2,1106.4c0.2,0.6,0.8,1,1.8,1h7.8l-3,4.8h-9.8l-0.2-19.8c0,0,0.2-0.6,1.6-2.4c0.8-1,1.4-1.8,1.8-2.2
				C1770,1091,1769.8,1105.2,1770.2,1106.4 M1804.2,1095l0.2,17.6c1.4-0.6,3.2-0.8,3.6-4.2c0.2-3,0.2-11.4-0.2-18
				C1805.8,1093,1805.2,1093.2,1804.2,1095 M1875.4,1096.2l-3,5.2c1.6,1.8,2.6,3.4,3,5.2l0,0c0.4,1.4,0.6,2.6,0.6,4.8
				c-0.4-1.8-1-3.2-1.6-3.8h-8.4c-0.8,0-1-0.4-1-0.6c-0.4-1.8-0.8-4.2-1-7.2c-0.2-2.4-0.2-4.8-0.4-7.2c-0.2-1.8-0.4-3.4-0.6-4.4
				c-0.6,0.6-1.2,1.2-1.8,2c-0.6,1-0.8,1.8-0.8,2.8c0,2.6,0,4.4-0.2,5.6c-0.2,2-1,3.8-2,5.2c-0.2,0.2-0.4,0.8-0.6,1.2v0.2
				c0,0,0,0.2,0,0.4c0,0.8,0,2.2-0.8,3.2l-0.4,0.4v-0.4c0.4-3-1.8-10.2-4-13.2c-2-2.6-5.2-5.2-7.8-6.2c-0.8,2.6-1.2,4.4-1.2,6.6
				c0,0.6,5.4,4.2,5.8,4l1-0.4h0.2c3.6,3.2,4.6,6.6,4.6,7c0,1.2-2.2,2.8-6.6,5l-8.6,3.4c0,0-0.2,0-0.2,0.2c0,0.2,0.2,0,0.2,0h1.8
				c9,0,14.8-1.6,17-6.2c1-2.4,1.6-4.4,2-5.6l0.2-0.4l0.2,0.4c0.4,1.2,0.8,3,0.8,4.8c0,1.6,0.2,2.6,0.2,4.2h15.4
				c1.2-3.6,1.8-5.6,1.8-7.4C1879.4,1101.8,1878,1098.8,1875.4,1096.2 M1797.6,1089.8c-0.4-0.6-0.6-1.4-0.6-1.8c-1,1-2,2.8-3,5
				c-0.2,0.6-0.2,1.2,0.2,1.6s1,0.8,1,0.8l0,0c0.4,0.8,0.6,10.4,0.6,11.4l0,0c0,1.4,0,2.4-0.6,4.4c0-1.6-0.2-2.8-0.6-3.8h-8.2v-0.2
				c0-0.2,0.4-0.4,1-1.4c0.4-0.8,0.6-1.8,0.6-2.4c0-1.4-0.6-2.4-2-3.4s-2.4-1.4-3.8-1.2c-2,0-2.8,0.6-4,1.8
				c-0.6,0.6-1.4,2.2-2.6,4.6c1.4-0.2,1.6-0.2,1.6-0.2c1.8,0,3.2,0.8,4.4,2.4c0.2,0.2,3.2,4.2,3.6,5.2h11.6c0.4,0,0.8-0.4,0.8-0.4
				c0.2-0.2,0.4-0.4,1-2.6c0.4-1.8,0.4-2.6,0.4-3.2l0.2-9l1.8-3.8C1800.2,1092.6,1797.8,1090.2,1797.6,1089.8 M1839,1092.8
				c-1-0.6-3.4-3-3.6-3.6c-0.4-0.6-0.6-1.4-0.6-1.8c-1,1-2,2.8-3,5c-0.2,0.6-0.2,1.2,0.2,1.6s1,0.8,1,0.8l0,0
				c0.4,0.8,1.6,9.8,1.8,11c0,0.2,0.2,1.2,0.2,2c0.2,1.4,0.2,3-1.2,5.6c0.2-1,0.2-2.2,0.2-3c-0.6,0.4-1.4,0.6-2.2,0.8
				c-1.8,0.4-3.2,0.6-4.4,0.6c-1.4,0-2.8-0.4-4-1.2c-1.4-1-2-2.2-2-3.6c0-0.6,0.4-1.6,1-3.4c0.2-0.2,0.2-0.4,0-0.4l0,0l0,0
				c-0.4,0-1.6,1-2.4,2.6c-1,2.4-1.2,3.8-1.2,5.4c0,2,0.8,3,2.2,4c1.2,1,3,1.4,5,1.4c2.6,0,5.2-0.6,7.4-2.2c2.4-1.6,3.4-3.2,4.2-5.6
				c0.2-0.4,0.6-1.6,0.6-3.4l-1-9.2L1839,1092.8z M1757.6,1101.8c0,0-1.6-2-2.2-2.6c-0.6-0.6-1.2-0.8-1.6-0.8
				c-0.6,0-1.2,0.4-1.8,1.2c0,0,0,0,0,0.2c0,2.6,3.2,3.2,5,2.4L1757.6,1101.8z M1760.6,1098.6c1.2,3,1.6,4.4,1.4,7.6l-1,6.2h-23.6
				c-1.6,0-3,0-4.2-1.2c-1.2-1.2-1.8-2.8-1.8-4.4c0-1,0.2-2.6,0.8-4.4c0.6-2,1.2-3.2,1.8-3.6c0.4,0,0.4,0.2,0.4,0.4
				c0,0.4-0.2,1-0.4,1.8s-0.4,1.6-0.4,2c0,1.2,0.4,2.2,1.2,3.2s2,1.4,3.2,1.4h19.6c0.4,1,0.8,2.6,1,4.2c0.2-1.6,0.2-3.2,0-4.6l0,0
				c0-0.4-0.2-1-0.4-2c-0.2-1.4-0.8-2.8-0.8-2.8l-0.2,0.2c-1,1.6-3,3.4-5,3.4c-1.2,0-1.8-0.2-2.8-0.8c-1.2-0.6-1.6-1.4-1.6-2.4
				c0-1.6,1-3.4,2.8-5.6c1.8-2,3.6-3.2,5.2-3.2C1757.8,1094,1759.4,1095.6,1760.6,1098.6 M1747.2,1091.8l3,3l3-3l-3-3L1747.2,1091.8
				z M1779.8,1092.8l3,3l3-3l-3-3L1779.8,1092.8z M1865.4,1091l3,3l3-3l-3-3L1865.4,1091z M1870.8,1091l3,3l3-3l-3-3L1870.8,1091z
				 M1860.8,1132.2c-2.6,0-4.6,1.4-5.6,3.4l0,0v-10.2l-4.8,0.6v24h4.8v-13.6l0,0c0.8-0.4,1.6-0.6,2.4-0.6c2.2,0,3.4,1.4,3.4,4l0,0
				v10.2h4.8v-12C1865.8,1134,1863.6,1132.2,1860.8,1132.2 M1801,1149.8h5.6l-9.2-24.6l-3.4,0.4l-9.8,24.2h3l2.4-5.8h5.4l-0.4-2.4
				h-4l4-10L1801,1149.8z M1743.4,1149.8h4.8v-24.6l-4.8,0.6V1149.8z M1771,1149.8h4.8v-24.6l-4.8,0.6V1149.8z M1711.4,1128.6h6.6
				l0,0v21h5.2v-21l0,0h6.6v-2.8h-18.6v2.8H1711.4z M1733,1127.4l3,3l3-3l-3-3L1733,1127.4z M1733.4,1149.8h4.8v-17.2l-4.8,0.6
				V1149.8z M1810,1149.8h4.8v-24.6l-4.8,0.6V1149.8z M1840.2,1145.6c-1,0.6-2,1-3.6,1c-4.2,0-8-4-8-10.8c0-4.8,2.6-8,6.4-8
				c2.8,0,5.4,2,5.2,5l5.2-0.8c-0.4-4.4-4.8-6.8-9.8-6.8c-6.2,0-12.2,4.4-12.2,12.8c0,7.6,4.8,12,10.2,12c3.4,0,5.4-1.6,6.6-3.8v3.4
				h5.2v-11l-5.2,0.6L1840.2,1145.6L1840.2,1145.6z M1877.2,1132c-1.8,0-3.2,0.4-4.4,1.2c-1.4,1-2.2,2.4-2.6,4.4
				c1.2-1.2,3.4-2.2,5-2.2c2.2,0,4,1,4,3.8v2.8v3.8c-0.8,0.6-1.8,0.8-2.6,0.8c-1.8,0-2.6-1.2-2.6-2.6s0.6-2.8,0.6-2.8
				c-3.4,1.2-5,3-5,5.2c0,2,1.4,3.6,4,3.6c2.4,0,4.6-1.4,5.6-3.6v3.2h4.6v-10.8C1883.8,1135,1881.6,1132,1877.2,1132 M1759.8,1132
				c-1.8,0-3.2,0.4-4.4,1.2c-1.4,1-2.2,2.4-2.6,4.4c1.2-1.2,3.4-2.2,5-2.2c2.2,0,4,1,4,3.8v2.8v3.8c-0.8,0.6-1.8,0.8-2.6,0.8
				c-1.8,0-2.6-1.2-2.6-2.6s0.6-2.8,0.6-2.8c-3.4,1.2-5,3-5,5.2c0,2,1.4,3.6,4,3.6c2.4,0,4.6-1.4,5.6-3.6v3.2h4.6v-10.8
				C1766.6,1135,1764.2,1132,1759.8,1132 M1894.4,1132.4v-0.6c0-2.6,1-3.6,3-3.6c0.6,0,1.2,0,1.8,0.2c-0.2-1.8-1.8-3-4.2-3
				c-3.6,0-5.4,2.6-5.4,5.8v1.2h-2.6v2.6h2.6v14.6h4.8V1135h5.2v-2.6H1894.4z M1738.4,1171.2c2.8,0,4.4-2.4,4.4-4.6
				c0-2.2-1.4-4.4-4.2-4.4h-2v8.8L1738.4,1171.2 M1738.8,1161c3.8,0,5.6,2.8,5.6,5.6c0,3-2,6-5.8,6h-3.2V1161H1738.8 M1758.6,1161
				h-1.4v7.2c0,1.6-0.6,3.2-2.8,3.2s-2.8-1.6-2.8-3.2v-7.2h-1.6v7.4c0,2.6,1.6,4.6,4.4,4.6c2.6,0,4.4-1.8,4.4-4.6v-7.4H1758.6z
				 M1770,1171.2c1.4,0,2-1,2-2s-0.6-2-2.2-2h-3.2v4H1770 M1766.8,1165.8h2.8c1.2,0,1.8-0.8,1.8-1.8c0-0.8-0.6-1.8-2-1.8h-2.8
				L1766.8,1165.8L1766.8,1165.8z M1771.4,1166.4c1.6,0.4,2.2,1.6,2.2,2.8c0,1.6-1.2,3.4-4,3.4h-4.4V1161h4.2c2.4,0,3.4,1.4,3.4,2.8
				C1773,1164.8,1772.6,1166,1771.4,1166.4 M1795.4,1172.6h1.4V1161h-1.4V1172.6z M1786.8,1168.4l-2.4-5.6l-2.4,5.6H1786.8z
				 M1790.2,1172.6h-1.6l-1.2-3h-6l-1.2,3h-1.6l5.2-11.6h1.4L1790.2,1172.6z M1869,1163.8c4.4,0,6.6,2.4,6.6,8.8h-10.2l0.6-1.6h8
				c-0.2-4.2-1.8-5.8-5.2-5.8h-1.2l0.6-1.4H1869z M1859.2,1171v-7l1.4-0.2v8.8H1842l-0.2-1.6C1841.8,1171,1859.2,1171,1859.2,1171z
				 M1832.6,1172.6v-7.4h-5.6c-2.6,0-3.8,0.8-3.8,1.8c0,0.6,0.4,1,1.2,1.6l1.4,0.6c1.2,0.6,1.8,1.4,1.8,2.6c0,2-2.2,3.6-6.6,3.6
				c-5,0-7-2-7-7v-1.6h1.4v1.2c0,4.6,1.6,5.8,5.8,5.8c3.6,0,5.2-0.8,5.2-2c0-0.6-0.4-1-1.4-1.6l-1.2-0.6c-1.2-0.6-1.8-1.4-1.8-2.6
				c0-1.8,1.6-3.4,4.8-3.4h7.2v7.4h8.2v1.6H1832.6L1832.6,1172.6z M1860,1173.2l1,1l-1,1l-1-1L1860,1173.2z M1820,1176l1,1l-1,1
				l-1-1L1820,1176z M1821.8,1176l1,1l-1,1l-1-1L1821.8,1176z"/>
		</g>
		<g>
			<path d="M1813.8,1060v13h13.6v-14c-2.6,0.6-5.4,1-8,1H1813.8z"/>
			<path d="M1819.2,1014.4c-3.8-3-8.6-4.8-13.8-4.8c-2.8,0-5.6,0.6-8.2,1.6l0,0c2.8-3.2,7-5,11.6-5l0,0c1.4,0,3,0,4.4,0.4
				c5.8,1,11,3.8,14.8,7.8c6.2,0,11.8,0,16.2,0c-4.6-9.2-13.2-16-24.8-18.8c-0.6-0.2-1.8-0.4-2.6-0.4c-1.4-0.2-2.8-0.4-4.2-0.4
				c-3,0-5,0.6-7.6,1.4c-1.8,0.6-3.6,1.4-6,2.8c-6,3.8-10.2,9.4-12.6,15.6c1.6-0.2,3.2-0.4,4.8-0.4
				C1798.2,1014.4,1808.8,1014.4,1819.2,1014.4z"/>
			<path d="M1843,1049.8c-2.6,2.6-5.4,4.6-8.2,6.2v16.8h13.6c0,0,0-17.6,0-29.8C1846.8,1045.6,1845,1047.8,1843,1049.8z"/>
			<path d="M1824.4,1020.6c-12,0-25.2,0-33.2,0c-2.4,0-4.6,0.4-6.8,1c-0.6,2.6-0.8,5.2-1,7.8c0,0.6,0,1.4,0,2l0,0c0,0,0,0.4,0,0.6
				v22.2h13.6V1032c0-2.6,1.2-5,3-6.4l5.4,6.4l5.4-6.4c1.8,1.6,3,3.8,3,6.4v22.2h5.6c2.8,0,5.4-0.4,8-1.4V1032
				C1827.4,1027.6,1826.4,1023.8,1824.4,1020.6z"/>
			<path d="M1832.2,1020.6c1.6,3.2,2.4,6.6,2.4,10.4c0,0.4,0,1,0,1.4v16.6c1.4-1,2.8-2,4-3.4c4.6-4.6,7.8-10.6,9.6-17.4
				c-0.2-2.6-0.8-5.2-1.4-7.6C1843,1020.6,1838,1020.6,1832.2,1020.6z"/>
			<path d="M1762.6,1073h13.6c0,0,0-5.4,0-13h-13.6V1073z"/>
			<path d="M1776.6,1025c-6.8,4.4-11.8,11.8-14.2,21v8h13.6c0-7,0-15.2,0-22.6C1776.2,1029,1776.4,1027,1776.6,1025z"/>
			<rect x="1783.4" y="1060" width="13.6" height="13"/>
			<path d="M1779,1016.8c5-11.8,16-19.8,26.8-22c0.6-0.2,1.4-0.4,0.6-0.4h-4c-23.4,0-39.6,15.6-40,36.4
				C1766.8,1024.4,1772.4,1019.4,1779,1016.8z"/>
			<path style="fill:#5E6738;" d="M1819.4,1053.8h-5.6v6.2h5.6c2.8,0,5.4-0.4,8-1v-6.4C1824.8,1053.4,1822.2,1053.8,1819.4,1053.8z"
				/>
			<path style="fill:#5E6738;" d="M1848.4,1043.2c0-6.4,0-11.2,0-11.2c0-1.2,0-2.6-0.2-3.8c-1.6,6.8-5,12.8-9.6,17.4
				c-1.2,1.2-2.6,2.4-4,3.4v7.2c3-1.6,5.8-3.6,8.2-6.2C1845,1047.8,1846.8,1045.6,1848.4,1043.2z"/>
			<path style="fill:#5E6738;" d="M1762.6,1053.8v6.2h13.6c0-2,0-4,0-6.2H1762.6z"/>
			<rect x="1783.4" y="1053.8" style="fill:#5E6738;" width="13.6" height="6.2"/>
			<path style="fill:#5E6738;" d="M1762.6,1045.8c2.4-9,7.4-16.6,14.2-21c0.4-2.8,1.4-5.6,2.4-8.2c-6.6,2.6-12.4,7.6-16.6,14
				c0,0.2,0,0.4,0,0.6L1762.6,1045.8L1762.6,1045.8z"/>
			<path style="fill:#5E6738;" d="M1791.2,1020.6c8.2,0,21.2,0,33.2,0c-1.4-2.4-3.2-4.4-5.4-6.2c-10.4,0-21,0-28,0
				c-1.6,0-3.2,0.2-4.8,0.4c-0.8,2.2-1.6,4.4-2,6.6C1786.6,1020.8,1788.8,1020.6,1791.2,1020.6z"/>
			<path style="fill:#5E6738;" d="M1832.2,1020.6c5.8,0,10.8,0,14.4,0c-0.6-2.2-1.4-4.2-2.4-6.2c-4.4,0-10,0-16.2,0
				C1829.8,1016.2,1831.2,1018.2,1832.2,1020.6z"/>
		</g>
	</g>
	<polygon style="fill:#FFFFFF;fill-opacity:0;" points="2111.6,1116.8 2111.2,1174.4 1711.4,1174.4 1711.4,994.4 1887,994.4
		2064,1116.8 	"/>
</g>
<g id="app_x5F_Sharjah--button">
	<g transform="translate(1066.000000, 527.000000)">
		<polygon id="Fill-124_3_" style="fill:#8A1538;" points="1068.8,485.2 1068.8,532.6 1084.8,532.6 1092.6,541.2 1100.4,532.6
			1116.4,532.6 1116.4,485.2 		"/>
		<g id="Group_3_" transform="translate(5.000000, 5.000000)">
			<path id="Path_6_" style="fill:#FFFFFF;" d="M1086.6,491.2c-7.6,0-13,5-13,12v13.4h4.4c0,0,0-7.4,0-13.4c0-6.2,4.8-10.8,9.4-11.8
				c0.2,0,0.4,0,0.2,0L1086.6,491.2L1086.6,491.2z"/>
			<path id="Path_7_" style="fill:#FFFFFF;" d="M1087.4,492c-0.4,0.2-1.2,0.4-1.8,1c-3.4,2-4.8,6-5,9.8c0,0.2,0,0.4,0,0.6l0,0v0.2
				V517h4.4v-13.4c0-1,0.4-1.6,1-2l1.6,2l1.6-2c0.6,0.4,1,1.2,1,2V517h4.4v-13.4c0-4-3.2-7.2-7.2-7.2c-1,0-1.8,0.2-2.6,0.4l0,0
				c1-1.2,2.4-1.6,3.6-1.6l0,0c0.4,0,1,0,1.4,0c4,0.6,7,4,7,7.8c0,0.2,0,0.2,0,0.4v13.2h4.4v-13.2c0-5.8-3.4-10.4-9.2-11.8
				c-0.2,0-0.4-0.2-1-0.2c-0.4,0-1,0-1.4,0C1089,491.6,1088.2,491.8,1087.4,492z"/>
		</g>
	</g>
	<rect id="app_x5F_Sharjah--tap" x="2121.7" y="1000.2" style="fill:#FFFFFF;fill-opacity:0;" width="75" height="75"/>
	<text transform="matrix(1 0 0 1 2199.2949 1046.5439)" style="fill:#8A1538; font-family:'MarselisPro'; font-size:33.9974px;">SHARJAH</text>
	<path id="Line-4-Copy-5" style="fill:none;stroke:#8A1538;stroke-width:4.419;" d="M2157.6,1013.4V889"/>
	<g>
		<g id="XMLID_211_">
			<path id="XMLID_224_" style="fill:#001C71;" d="M2111,842.2c-1.8,2-4,3-6.6,3c-2.4,0-4.6-1-6.4-2.8c-1.8-1.8-2.6-4-2.6-6.4
				c0-2.6,1-4.8,2.8-6.6c1.8-1.8,4-2.8,6.6-2.8s4.8,1,6.6,2.8c1.8,1.8,2.8,4,2.8,6.6v9h-3v-2.8H2111L2111,842.2z M2111,836
				c0-1.8-0.6-3.2-1.8-4.4c-1.2-1.2-2.8-1.8-4.4-1.8c-1.8,0-3.2,0.6-4.4,1.8c-1.2,1.2-1.8,2.6-1.8,4.4s0.6,3.2,1.8,4.4
				c1.2,1.2,2.8,1.8,4.4,1.8c1.8,0,3.2-0.6,4.4-1.8C2110.4,839.2,2111,837.8,2111,836"/>
			<rect id="XMLID_223_" x="2118.2" y="819.4" style="fill:#001C71;" width="3" height="25.6"/>
			<polygon id="XMLID_222_" style="fill:#001C71;" points="2144,830 2134.4,830 2134.4,827 2149.6,827 2139.8,842 2149.6,842
				2149.6,845 2134.4,845 			"/>
			<path id="XMLID_219_" style="fill:#001C71;" d="M2167.2,842.2c-1.8,2-4,3-6.6,3c-2.4,0-4.6-1-6.4-2.8c-1.8-1.8-2.6-4-2.6-6.4
				c0-2.6,1-4.8,2.8-6.6c1.8-1.8,4-2.8,6.6-2.8s4.8,1,6.6,2.8c1.8,1.8,2.8,4,2.8,6.6v9h-3v-2.8H2167.2L2167.2,842.2z M2167.2,836
				c0-1.8-0.6-3.2-1.8-4.4c-1.2-1.2-2.8-1.8-4.4-1.8c-1.8,0-3.2,0.6-4.4,1.8c-1.2,1.2-1.8,2.6-1.8,4.4s0.6,3.2,1.8,4.4
				c1.2,1.2,2.8,1.8,4.4,1.8c1.6,0,3.2-0.6,4.4-1.8C2166.6,839.2,2167.2,837.8,2167.2,836"/>
			<path id="XMLID_218_" style="fill:#001C71;" d="M2187,834.6c0-1.4-0.4-2.4-1.4-3.4s-2-1.4-3.4-1.4c-1.2,0-2.4,0.4-3.4,1.4
				s-1.4,2-1.4,3.4V845h-3v-25.6h3v9.8c1.4-1.6,3.2-2.4,5.4-2.4c2,0,3.8,0.8,5.2,2.4c1.4,1.6,2,3.4,2,5.4V845h-3L2187,834.6
				L2187,834.6z"/>
			<path id="XMLID_215_" style="fill:#001C71;" d="M2195.2,821h3v3h-3V821z M2195.2,827h3v18h-3V827z"/>
			<path id="XMLID_212_" style="fill:#001C71;" d="M2217.2,842.2c-1.8,2-4,3-6.6,3c-2.4,0-4.6-1-6.4-2.8c-1.8-1.8-2.6-4-2.6-6.4
				c0-2.6,1-4.8,2.8-6.6c1.8-1.8,4-2.8,6.6-2.8s4.8,1,6.6,2.8c1.8,1.8,2.8,4,2.8,6.6v9h-3v-2.8H2217.2L2217.2,842.2z M2217.2,836
				c0-1.8-0.6-3.2-1.8-4.4c-1.2-1.2-2.8-1.8-4.4-1.8c-1.8,0-3.2,0.6-4.4,1.8c-1.2,1.2-1.8,2.6-1.8,4.4s0.6,3.2,1.8,4.4
				c1.2,1.2,2.8,1.8,4.4,1.8c1.8,0,3.2-0.6,4.4-1.8C2216.6,839.2,2217.2,837.8,2217.2,836"/>
		</g>
		<path id="XMLID_198_" style="fill:#001C71;" d="M2103.8,786.4h-3v3h3V786.4z M2209.4,803.2c0,1.2-0.4,2.4-1.4,3.4s-2,1.4-3.4,1.4
			H2193v-10.2h-3v14c0,1.4-0.4,2.4-1.4,3.2c-1,1-2,1.4-3.4,1.4v3c2,0,4-0.8,5.6-2.4c1.6-1.6,2.4-3.2,2.4-5.4v-0.8h12.2l0,0
			c1.8,0,3.4-1,4.8-2.4c1.6-1.6,2.4-3.4,2.4-5.4v-17.8h-3v18H2209.4L2209.4,803.2z M2128.4,816.6h3v-3h-3V816.6z M2108.2,786.4h-3v3
			h3V786.4z M2193,791.8h-3v3h3V791.8z M2132.8,816.6h3v-3h-3V816.6z M2162.2,792.6c-0.2,0-0.8-0.4-1.6-0.4
			c-0.4-0.2-0.8-0.2-1.4-0.2c-0.6,0-1.2-0.2-2-0.2c-0.2,0-0.4,0-0.6,0c-1.2,0-2.4,0.2-3.4,0.4c-1,0.4-2,0.8-3,1.4v3.4
			c0.8-0.8,2-1.4,3-1.8c1-0.4,2.2-0.6,3.4-0.6h0.2l0,0c3-0.2,5.2,1.4,5.2,1.4c2.8,1.6,5,5,5,9.6c0,0.8,0,1.6-0.2,2.2h-5.6
			c0.8-1.2,1.4-2.4,1.4-3.8c0-1.8-0.6-3.2-1.8-4.4c-1.2-1.2-2.8-1.8-4.4-1.8c-1.6,0-3.2,0.6-4.4,1.8c-1.2,1.2-1.8,2.6-1.8,4.4
			c0,1.6,0.6,2.8,1.6,4h-14.2c-1.2,0-1.6-0.4-2.6-1.2c-0.8-0.8-1.4-1.8-1.4-2.8c0,0,0,0.2,0,0v-10.4h-3c0,0,0,10.2,0,10.4
			c0,1-0.6,2-1.4,2.8c-1,1-2,1.2-3.4,1.2h-8l0,0c-1.2,0-2-0.4-2.8-1.2c-0.8-0.8-1.2-1.4-1.2-2.6V804c0,0,0-1,0-1.4v-0.8
			c0-2.6-1-4.8-2.8-6.6c-1.8-1.8-4-2.8-6.6-2.8s-4.8,1-6.6,2.8s-2.8,4-2.8,6.6c0,2.4,0.8,4.6,2.6,6.4s3.8,2.8,6.4,2.8
			c2.6,0,4.8-1,6.6-3c0,0,0.6-0.8,0.8-1l0.4,0.6c0.2,0.4,0.6,0.8,1,1.2c1.4,1.4,3.2,2.2,5,2.2l0,0h8.2l0,0c1.8-0.2,3.4-0.8,4.8-2.2
			c0.4-0.4,0.6-0.6,0.8-1c0.2,0.4,0.6,0.6,0.8,1c1.4,1.4,2.6,2.2,4.2,2.2h32.6c0.4-1.6,0.6-3.4,0.6-4.8c0-3.4-0.8-6.2-2.4-8.6
			C2166.8,795.4,2164.6,793.4,2162.2,792.6z M2109,806c-1.2,1.2-2.8,1.8-4.4,1.8c-1.8,0-3.2-0.6-4.4-1.8c-1.2-1.2-1.8-2.8-1.8-4.4
			c0-1.8,0.6-3.2,1.8-4.4c1.2-1.2,2.8-1.8,4.4-1.8c1.8,0,3.2,0.6,4.4,1.8c1.2,1.2,1.8,2.6,1.8,4.4S2110.2,804.8,2109,806z
			 M2158.8,806.2c-0.6,0.6-1.4,1-2.4,1s-1.6-0.4-2.4-1c-0.6-0.6-1-1.4-1-2.4c0-0.8,0.4-1.6,1-2.4c0.6-0.6,1.4-1,2.4-1s1.6,0.4,2.4,1
			c0.6,0.6,1,1.4,1,2.4S2159.6,805.6,2158.8,806.2z M2178.4,810.8h3v-25.6h-3V810.8z M2217.2,785.2v25.6h3v-25.6H2217.2
			L2217.2,785.2z"/>
		<g id="XMLID_74_">
			<g id="XMLID_91_">
				<path id="XMLID_197_" style="fill:#0075C9;" d="M2096,867.8c0-0.8-0.2-1.4-0.8-2c-0.6-0.6-1.2-0.8-2-0.8s-1.4,0.2-2,0.8
					c-0.6,0.6-0.8,1.2-0.8,2v6.2h-1.8v-14h1.8v4.8c0.8-1,2-1.4,3.2-1.4s2.2,0.4,3,1.4c0.8,0.8,1.2,2,1.2,3.2v6.2h-1.8L2096,867.8
					L2096,867.8z"/>
				<path id="XMLID_194_" style="fill:#0075C9;" d="M2109.6,872.4c-1,1.2-2.4,1.8-3.8,1.8c-1.4,0-2.8-0.6-3.8-1.6s-1.6-2.4-1.6-3.8
					s0.6-2.8,1.6-3.8s2.4-1.6,3.8-1.6c1.6,0,2.8,0.6,3.8,1.6s1.6,2.4,1.6,3.8v5.2h-1.8L2109.6,872.4L2109.6,872.4z M2109.6,868.8
					c0-1-0.4-1.8-1-2.6c-0.8-0.8-1.6-1-2.6-1s-1.8,0.4-2.6,1c-0.8,0.8-1,1.6-1,2.6s0.4,1.8,1,2.6c0.8,0.8,1.6,1,2.6,1s1.8-0.4,2.6-1
					C2109.2,870.6,2109.6,869.8,2109.6,868.8"/>
				<path id="XMLID_193_" style="fill:#0075C9;" d="M2118.6,865c-0.8,0-1.4,0.2-2,0.8c-0.6,0.6-0.8,1.2-0.8,2v6.2h-1.8v-6.2
					c0-1.2,0.4-2.2,1.4-3.2s2-1.4,3.2-1.4L2118.6,865L2118.6,865z"/>
				<path id="XMLID_97_" style="fill:#0075C9;" d="M2123.6,873c0,1.2-0.4,2.2-1.4,3.2s-2,1.4-3.2,1.4v-1.8c0.8,0,1.4-0.2,2-0.8
					c0.6-0.6,0.8-1.2,0.8-2v-9.4h1.8L2123.6,873L2123.6,873z M2121.8,860h1.8v1.8h-1.8V860z"/>
				<path id="XMLID_94_" style="fill:#0075C9;" d="M2135.4,872.4c-1,1.2-2.4,1.8-3.8,1.8c-1.4,0-2.8-0.6-3.8-1.6s-1.6-2.4-1.6-3.8
					s0.6-2.8,1.6-3.8s2.4-1.6,3.8-1.6c1.6,0,2.8,0.6,3.8,1.6s1.6,2.4,1.6,3.8v5.2h-1.8L2135.4,872.4L2135.4,872.4z M2135.4,868.8
					c0-1-0.4-1.8-1-2.6c-0.8-0.8-1.6-1-2.6-1s-1.8,0.4-2.6,1c-0.8,0.8-1,1.6-1,2.6s0.4,1.8,1,2.6c0.8,0.8,1.6,1,2.6,1s1.8-0.4,2.6-1
					C2135,870.6,2135.4,869.8,2135.4,868.8"/>
				<path id="XMLID_93_" style="fill:#0075C9;" d="M2147.6,867.8c0-0.8-0.2-1.4-0.8-2c-0.6-0.6-1.2-0.8-2-0.8s-1.4,0.2-2,0.8
					c-0.6,0.6-0.8,1.2-0.8,2v6.2h-1.8v-14h1.8v4.8c0.8-1,2-1.4,3.2-1.4s2.2,0.4,3,1.4c0.8,0.8,1.2,2,1.2,3.2v6.2h-1.8L2147.6,867.8
					L2147.6,867.8z"/>
				<path id="XMLID_92_" style="fill:#0075C9;" d="M2082,874c-1.2,0-2.8-0.6-3.8-1.4l1.2-1.4c1,0.8,1.8,1,2.8,1s1.8-0.6,1.8-1.4
					s-1.2-1.2-2.2-1.6h-0.2c-1.4-0.6-2.8-1.2-2.8-3s1.4-3,3.8-3c1.2,0,2.2,0.4,3.4,1.2l-1.2,1.2c-0.8-0.4-1.4-0.8-2-0.8
					c-1,0-1.8,0.6-1.8,1.2c0,0.8,1.2,1.2,2.2,1.6h0.2c1.6,0.6,3,1.2,3,3C2085.8,872.8,2084.2,874,2082,874"/>
			</g>
			<g id="XMLID_75_">
				<path id="XMLID_90_" style="fill:#0075C9;" d="M2170.2,862.6c0.6,0,1-0.4,1-1c0-0.6-0.4-1-1-1s-1,0.4-1,1
					C2169.2,862.2,2169.8,862.6,2170.2,862.6z"/>
				<path id="XMLID_89_" style="fill:#0075C9;" d="M2173,862.6c0.6,0,1-0.4,1-1c0-0.6-0.4-1-1-1s-1,0.4-1,1
					C2171.8,862.2,2172.4,862.6,2173,862.6z"/>
				<path id="XMLID_85_" style="fill:#0075C9;" d="M2183.8,867.8c0,1.4,1,2.8,3,2.8c1,0,2-0.4,2.8-1.2v0.2c0,1.2-0.4,2.8-2,2.8h-11
					c-1.2,0-1.8-1-1.8-2.8v-5.2l0,0c-0.6,0-1.6-0.2-2.6-0.2c-3.6,0-5.8,1.6-5.8,4.4c0,3.2,2.8,4.2,5,4.2c0.6,0,1.4,0,2.2-0.2
					c0.8,1.2,2.2,1.4,2.6,1.4h12c1.6,0,3.2-1.2,3.2-4.2V864h-2C2185.8,864,2183.8,865.4,2183.8,867.8z M2187.2,869
					c-0.8,0-1.4-0.4-1.4-1.6c0-1.4,1.2-2,3.8-2v1.6c0,0.2,0,0.4,0,0.6C2189.2,868.2,2188.4,869,2187.2,869z M2171.6,865.6
					c0.4,0,0.8,0,1.2,0v5.4c-0.4,0-0.8,0-1.2,0c-1.6,0-3.2-0.8-3.2-2.8C2168.4,866.8,2169.6,865.6,2171.6,865.6z"/>
				<path id="XMLID_84_" style="fill:#0075C9;" d="M2190,862.2L2190,862.2c0.6,0,1-0.4,1-1.2c0-0.6-0.4-1-1-1s-1,0.4-1,1
					C2188.8,861.8,2189.4,862.2,2190,862.2z"/>
				<path id="XMLID_83_" style="fill:#0075C9;" d="M2187.2,862.2L2187.2,862.2c0.6,0,1-0.4,1-1.2c0-0.6-0.4-1-1-1s-1,0.4-1,1
					C2186.2,861.8,2186.6,862.2,2187.2,862.2z"/>
				<path id="XMLID_82_" style="fill:#0075C9;" d="M2195.6,866.6v5.8c0.2,3.4-1,3.8-2.4,4h-0.2l0.2,1.6l0,0c2.8,0,4.2-1.6,4.2-5v-7
					L2195.6,866.6L2195.6,866.6z"/>
				<path id="XMLID_81_" style="fill:#0075C9;" d="M2217.4,861.2c0,0.6,0.4,1.2,1,1.2l0,0c0.6,0,1-0.4,1-1.2c0-0.6-0.4-1-1-1
					C2217.8,860,2217.4,860.6,2217.4,861.2z"/>
				<path id="XMLID_80_" style="fill:#0075C9;" d="M2215.8,862.2L2215.8,862.2c0.6,0,1-0.4,1-1.2c0-0.6-0.4-1-1-1s-1,0.4-1,1
					C2214.8,861.8,2215.2,862.2,2215.8,862.2z"/>
				<path id="XMLID_79_" style="fill:#0075C9;" d="M2217,860L2217,860c0.6,0,1-0.4,1-1.2c0-0.6-0.4-1-1-1s-1,0.4-1,1
					C2216,859.4,2216.4,860,2217,860z"/>
				<path id="XMLID_78_" style="fill:#0075C9;" d="M2230.6,869.6c0,1.2-0.4,2.8-2,2.8h-2.4c-0.6,0-1-0.2-1.4-0.6s-0.6-1-0.6-1.6v-6
					l-2,0.6v4.8c0,1.2-0.4,2.8-2,2.8c-1.2,0-2-1.2-2-2.4v-5l-2,0.6v4.2c0,1.6-0.6,2.4-1.8,2.4c-1.2,0-2-1.2-2-2.4v-4.2l-2,0.6v3.4
					c0,1.6-0.6,2.4-1.8,2.4h-4.4c-1.2,0-1.8-0.8-1.8-2.8V860l-2,0.6v9c0,3.2,1.8,4.2,3.4,4.2h5.4l0,0c1.2,0,2.2-0.6,2.6-1.8
					c0.8,1.2,1.8,1.8,3.2,1.8c1.2,0,2.2-0.6,2.6-1.8c0.8,1.2,1.8,1.8,3.2,1.8c0.4,0,2-0.2,2.8-1.8c0.6,1.2,1.8,1.8,3,1.8h2.6l0,0
					l0,0l0,0c1.6,0,3.2-1.2,3.2-4.2V860l-2,0.6L2230.6,869.6L2230.6,869.6z"/>
				<polygon id="XMLID_77_" style="fill:#0075C9;" points="2235.6,860.6 2235.6,874 2237.6,874 2237.6,860 				"/>
			</g>
		</g>
		<g id="XMLID_16_">
			<g id="XMLID_70_">
				<g>

						<linearGradient id="SVGID_199_" gradientUnits="userSpaceOnUse" x1="2152.6506" y1="345.002" x2="2111.9573" y2="298.793" gradientTransform="matrix(1 0 0 -1 0 1080)">
						<stop  offset="0" style="stop-color:#E34126"/>
						<stop  offset="1" style="stop-color:#FFC333"/>
					</linearGradient>
					<path id="SVGID_160099_" style="fill:url(#SVGID_199_);" d="M2115.2,749.6V773h13.6v-25c-1,0.2-2,0.2-3,0.2c-2.4,0-4.8-0.4-7.2-1.4
						C2117.4,747.6,2116.2,748.6,2115.2,749.6 M2143.4,735.4c-1.8,1.8-3.8,4-5.4,7c-0.6,0.8-1.4,1.6-2.2,2.4v28.4h7.8
						c0-1.4-0.2-2.8-0.2-4c-0.2-1.6-1.4-2.8-1.2-4.2c1-6.2,4.6-4.4,5.6-10.6c0.4-2,0.8-4,1.6-5.6v-14.4
						C2147.8,734.4,2145.6,734.8,2143.4,735.4"/>
				</g>
			</g>
			<g id="XMLID_66_">
				<g>

						<linearGradient id="SVGID_299_" gradientUnits="userSpaceOnUse" x1="2151.7859" y1="347.1722" x2="2213.959" y2="345.4532" gradientTransform="matrix(1 0 0 -1 0 1080)">
						<stop  offset="0" style="stop-color:#007496"/>
						<stop  offset="0.417" style="stop-color:#007496"/>
						<stop  offset="1" style="stop-color:#5BCAF4"/>
					</linearGradient>
					<path id="SVGID_150099_" style="fill:url(#SVGID_299_);" d="M2175.8,722c-1.2,1-2.6,0.8-4,0.6c-2.4-0.2-5.2-0.4-8.2,3.4
						c1.6,1.6,2.6,3.8,2.6,6.2v4.6c0.6,0,1.4,0,2,0c1.8,0,3.8-0.2,5.2,0c1.8,0.4,4,0.6,6.4,1.6V733c0-4.6-0.8-8.4-2.2-11.4
						C2176.8,721.6,2176.4,721.8,2175.8,722 M2183.6,719.2c2,3.8,3.2,8.4,3.2,13.8v10.2c1,1,2,2,3.2,3.2c3.8,2.4,7.4,5.4,10.4,8.8
						c0-10.8,0-22.4,0-22.6c0-7.2-1.8-14-5.2-19.6C2192,715.4,2187.8,717.4,2183.6,719.2"/>
				</g>
			</g>
			<g id="XMLID_62_">
				<g>

						<linearGradient id="SVGID_399_" gradientUnits="userSpaceOnUse" x1="2155.3442" y1="353.4116" x2="2071.1094" y2="343.097" gradientTransform="matrix(1 0 0 -1 0 1080)">
						<stop  offset="0" style="stop-color:#D83C73"/>
						<stop  offset="0.1992" style="stop-color:#CE3869"/>
						<stop  offset="0.5406" style="stop-color:#B32E4D"/>
						<stop  offset="0.9803" style="stop-color:#871D21"/>
						<stop  offset="1" style="stop-color:#851C1F"/>
					</linearGradient>
					<path id="SVGID_140099_" style="fill:url(#SVGID_399_);" d="M2135.8,731.8v6.4c3-1.2,5.8-2,8.2-2.6c2-0.4,3.8-0.8,5.4-1v-2.2
						c0-2.6,1.2-5,3-6.6l4.6,5.4c-1-1.8-2.6-4.2-4.4-6.2c-3.4-0.8-9.6-2.4-15.2-4.4C2136.4,724.2,2135.8,728,2135.8,731.8
						 M2115.2,731.8v19c0.8-0.6,1.4-0.8,1.6-0.8c2.8-2.2,8-6.8,12-8.8v-9.4c0-5,1-9.6,2.8-13.8c-2.2-1-4.2-2.2-5.6-3.4
						c-0.6-0.4-1-0.8-1.4-1.2c-0.2,0-1.6-1.2-2.8-2C2117.4,717,2115.2,724.2,2115.2,731.8"/>
				</g>
			</g>
			<g id="XMLID_59_">
				<g>

						<linearGradient id="SVGID_499_" gradientUnits="userSpaceOnUse" x1="2115.2" y1="337.5" x2="2149.3999" y2="337.5" gradientTransform="matrix(1 0 0 -1 0 1080)">
						<stop  offset="0" style="stop-color:#EF5136"/>
						<stop  offset="0.4045" style="stop-color:#CB3740"/>
						<stop  offset="0.7805" style="stop-color:#AF2447"/>
						<stop  offset="1" style="stop-color:#A51D4A"/>
					</linearGradient>
					<path id="SVGID_130099_" style="fill:url(#SVGID_499_);" d="M2115.2,750v1c3,0,8.4-2.8,10.6-2.8c1,0,2,0,3-0.2v-7.4
						C2125,742.4,2118.6,747.2,2115.2,750 M2135.8,738v6.8c0.8-0.8,1.6-1.6,2.2-2.4c3.4-5.2,8.6-6.6,11.4-7.8V734
						C2146.2,734.8,2140.8,736.4,2135.8,738"/>
				</g>
			</g>
			<g id="XMLID_53_">
				<g>

						<linearGradient id="SVGID_599_" gradientUnits="userSpaceOnUse" x1="2164.9014" y1="347.236" x2="2207.6829" y2="301.379" gradientTransform="matrix(1 0 0 -1 0 1080)">
						<stop  offset="0" style="stop-color:#698735"/>
						<stop  offset="1" style="stop-color:#D1D747"/>
					</linearGradient>
					<path id="SVGID_120099_" style="fill:url(#SVGID_599_);" d="M2186.8,764.8c0.2,0.6,0.4,1.4,0.2,2.2c3.2,2,6.4,4,9.2,6.2h4.2
						c0,0,0-5.2,0-12c-1.4-2-3-4.2-4.6-7c-2-3.2-4-5.8-5.8-7.8c-1.6-1.8-2.4-3-3.2-3.8L2186.8,764.8L2186.8,764.8z M2166.2,736.6
						v11.2c0.4,0.2,0.6,0.4,1,0.4c4.2,2.4,7.6,5.4,10.6,8.4c0.6,0.6,1.2,1.2,2,1.8v-19.8c-4-1.6-8.6-2-11.4-2
						C2167.4,736.4,2166.6,736.4,2166.2,736.6"/>
				</g>
			</g>
			<g id="XMLID_52_">
				<g>

						<linearGradient id="SVGID_699_" gradientUnits="userSpaceOnUse" x1="2190.6328" y1="326.2" x2="2209.7534" y2="326.2" gradientTransform="matrix(1 0 0 -1 0 1080)">
						<stop  offset="0" style="stop-color:#698735"/>
						<stop  offset="1" style="stop-color:#095B83"/>
					</linearGradient>
					<path id="SVGID_110099_" style="fill:url(#SVGID_699_);" d="M2195.8,754.2c1.8,2.6,3.2,5,4.6,7c0-2,0-4,0-6
						c-3-3.4-6.6-6.2-10.4-8.8C2191.8,748.4,2193.8,751,2195.8,754.2"/>
				</g>
			</g>
			<g id="XMLID_46_">
				<g>

						<linearGradient id="SVGID_799_" gradientUnits="userSpaceOnUse" x1="2168.5225" y1="344.6685" x2="2172.5337" y2="280.7759" gradientTransform="matrix(1 0 0 -1 0 1080)">
						<stop  offset="0" style="stop-color:#698735"/>
						<stop  offset="1" style="stop-color:#D1D747"/>
					</linearGradient>
					<path id="SVGID_100099_" style="fill:url(#SVGID_799_);" d="M2186.8,773.2h11.4c-3.6-2.2-7.6-4.2-11.2-6V767c0,0-0.2,0-0.2-0.2
						L2186.8,773.2L2186.8,773.2z M2143.4,769.2c0.2,0.4,0.2,1.8,0.2,4h5.8v-14.6C2147.8,762.4,2145.8,766.2,2143.4,769.2
						 M2166.2,773.2h13.6v-13.4c-5.2-3.8-10.8-8.2-13.6-11.4L2166.2,773.2L2166.2,773.2z"/>
				</g>
			</g>

				<linearGradient id="SVGID_899_" gradientUnits="userSpaceOnUse" x1="2142.0947" y1="319.2" x2="2154.9646" y2="319.2" gradientTransform="matrix(1 0 0 -1 0 1080)">
				<stop  offset="0" style="stop-color:#AD5F28"/>
				<stop  offset="1" style="stop-color:#215A4A"/>
			</linearGradient>
			<path id="SVGID_90099_" style="fill:url(#SVGID_899_);" d="M2147.8,754.2c-1,6.2-4.6,4.4-5.6,10.6c-0.2,0.8,0.4,5,0.8,8.2h1.4
				c1.4-4.6,3.2-9.4,5-14.2v-10.2C2148.6,750.4,2148.2,752.2,2147.8,754.2"/>
			<g id="XMLID_42_">
				<g>

						<linearGradient id="SVGID_999_" gradientUnits="userSpaceOnUse" x1="2166.1997" y1="319.5" x2="2199.5996" y2="319.5" gradientTransform="matrix(1 0 0 -1 0 1080)">
						<stop  offset="0" style="stop-color:#698735"/>
						<stop  offset="1" style="stop-color:#215A4A"/>
					</linearGradient>
					<path id="SVGID_80099_" style="fill:url(#SVGID_999_);" d="M2186.8,767.6c3.2,2,7,4.2,9.8,5.6h3c-2-2.6-7.6-6.4-12.8-10V767.6z
						 M2166.2,748.2c3.2,3.8,9,8,13.6,13.4v-3.4c-0.8-0.6-1.4-1.2-2-1.6c-3.2-3-6.4-6-10.6-8.4c-0.4-0.2-0.6-0.4-1-0.4L2166.2,748.2
						L2166.2,748.2z"/>
				</g>
			</g>
			<g id="XMLID_40_">
				<g>

						<linearGradient id="SVGID_1099_" gradientUnits="userSpaceOnUse" x1="2155.4373" y1="342.1037" x2="2154.9829" y2="391.0107" gradientTransform="matrix(1 0 0 -1 0 1080)">
						<stop  offset="0" style="stop-color:#B12850"/>
						<stop  offset="1" style="stop-color:#007497"/>
					</linearGradient>
					<path id="SVGID_70099_" style="fill:url(#SVGID_1099_);" d="M2163.4,706.2c0.6-3.4,1.8-7.2,3.6-10.4c-0.6,0-1.4,0-2,0
						c-3,0-5,0.6-7.6,1.4c-1.8,0.6-3.4,1.4-6,2.8c-3.2,2-6,4.6-8.2,7.4c5.4,6,11.2,18.2,13.8,24.2l0.6,0.6l2.6-3.2
						c0.6-4,0.8-9.2,2.4-11.2c-0.2-0.8-0.4-1.4-0.4-1.8c0-0.6,0-2.6,0.2-5.4c-5.2-1-10.2-0.2-13,0.8
						C2153,707.8,2158,706,2163.4,706.2z"/>
				</g>
			</g>

				<linearGradient id="SVGID_1199_" gradientUnits="userSpaceOnUse" x1="2161.2524" y1="352.6086" x2="2139.7217" y2="394.5511" gradientTransform="matrix(1 0 0 -1 0 1080)">
				<stop  offset="0" style="stop-color:#B12850"/>
				<stop  offset="1" style="stop-color:#007497"/>
			</linearGradient>
			<path id="SVGID_60099_" style="fill:url(#SVGID_1199_);" d="M2157.4,695.8c0.2,0,0.4-0.2,0.8-0.2c0.6-0.2,1.2-0.4,0.6-0.4h-1.2l0,0
				c-0.2,0-0.2,0-0.2,0h-2.6c-1.6,0-3.2,0-4.8,0.2l0,0c-6.2,0.6-12,2.4-16.8,5.2c0.4,0.4,0.8,0.6,1.2,1c1.8,0.8,3.8,1.8,5.6,2.8
				c0.2,0,0.2,0.2,0.4,0.2C2145.6,700.4,2151.4,697.2,2157.4,695.8L2157.4,695.8z M2157.4,695.8L2157.4,695.8L2157.4,695.8
				L2157.4,695.8z"/>

				<linearGradient id="SVGID_1299_" gradientUnits="userSpaceOnUse" x1="2154.907" y1="340.8906" x2="2195.8784" y2="393.8956" gradientTransform="matrix(1 0 0 -1 0 1080)">
				<stop  offset="0" style="stop-color:#007496"/>
				<stop  offset="1" style="stop-color:#5BCAF4"/>
			</linearGradient>
			<path id="SVGID_50099_" style="fill:url(#SVGID_1299_);" d="M2163.4,717.2c-0.2,0.2-2.4,1.4-3.6,12.8l3.4-4.2c0.4,0.4,0.8,0.8,1,1.2
				c1.2-2.2,2.4-3.8,3.2-3.6c0.2,0,0.6,0.2,1.2,0.2c1.6,0,2.2,0.6,5.2-0.2c0.4-0.4,2-1.4,3.2-2.4c-2.6-5-7-7.8-11.4-9.4
				C2164.6,714.2,2163.6,717,2163.4,717.2 M2169.8,699.6c-0.6,2-1.2,4-2,5.8c0,0-0.2,0.6-0.4,1.4c5.6,1.2,11.2,4.6,14.8,10
				c3.8-2.6,7.8-4.2,12-5.4c-4.8-7.2-12.6-12.6-22.4-14.8c-0.4,0-1-0.2-1.6-0.4C2170.2,697.4,2170,698.6,2169.8,699.6"/>

				<linearGradient id="SVGID_1399_" gradientUnits="userSpaceOnUse" x1="2173.8679" y1="362.6" x2="2195.1934" y2="362.6" gradientTransform="matrix(1 0 0 -1 0 1080)">
				<stop  offset="0" style="stop-color:#00678C"/>
				<stop  offset="1" style="stop-color:#1461AD"/>
			</linearGradient>
			<path id="SVGID_40099_" style="fill:url(#SVGID_1399_);" d="M2173.8,723.2c1.2-0.4,2.4-0.8,3.8-1.2c-0.2-0.4-0.4-0.8-0.6-1.2
				C2175.8,721.6,2174.4,722.8,2173.8,723.2 M2182.2,716.8c0.6,0.8,1,1.6,1.6,2.6c4.2-2,8.4-4.2,11.4-6.4c-0.4-0.6-0.6-1-1-1.4
				C2190,712.6,2186,714.4,2182.2,716.8"/>

				<linearGradient id="XMLID_299_" gradientUnits="userSpaceOnUse" x1="2160.6343" y1="362.4" x2="2165.6616" y2="362.4" gradientTransform="matrix(1 0 0 -1 0 1080)">
				<stop  offset="0" style="stop-color:#00678C"/>
				<stop  offset="1" style="stop-color:#19469C"/>
			</linearGradient>
			<path id="XMLID_310099_" style="fill:url(#XMLID_299_);" d="M2162.6,716.2c0,0.4-2,7.6-1.8,8.4c0.2-0.2,2.6-7,2.8-7.4
				c0.2-0.2,1.2-3,2.2-5.8c-1-0.4-2-0.6-3-0.8C2162.4,713.4,2162.4,715.6,2162.6,716.2"/>

				<linearGradient id="XMLID_399_" gradientUnits="userSpaceOnUse" x1="2163.3999" y1="378.9" x2="2170.2207" y2="378.9" gradientTransform="matrix(1 0 0 -1 0 1080)">
				<stop  offset="0" style="stop-color:#00678C"/>
				<stop  offset="1" style="stop-color:#19469C"/>
			</linearGradient>
			<path id="XMLID_300099_" style="fill:url(#XMLID_399_);" d="M2163.4,706.2c1.4,0,2.6,0.2,4,0.4c0.2-0.8,0.4-1.4,0.4-1.4
				c0.6-1.8,1.4-3.8,2-5.8c0.4-1.2,0.4-2.4,0.4-3.4c-0.4,0-0.8-0.2-1-0.2c-0.6,0-1.4-0.2-2-0.2C2165.2,699,2164,702.8,2163.4,706.2"
				/>

				<linearGradient id="SVGID_1499_" gradientUnits="userSpaceOnUse" x1="2162.8486" y1="339.8741" x2="2118.4839" y2="383.4814" gradientTransform="matrix(1 0 0 -1 0 1080)">
				<stop  offset="0" style="stop-color:#B12850"/>
				<stop  offset="1" style="stop-color:#604B9E"/>
			</linearGradient>
			<path id="SVGID_30099_" style="fill:url(#SVGID_1499_);" d="M2137.4,720c3.4,1,5.8,2,8,3.4c1.4,1,6.2,3.2,6.2,3.2s0.4-0.6,1-1
				l5.4,6.6c-1-2-2.6-5.4-4.8-9.8c-0.6-1.2-2.2-3.4-2.6-3.8c-1.2-0.8-3.6-5.4-7.6-10C2140.2,712,2138.4,716,2137.4,720
				 M2121.4,711.4c0.6,0.6,1.4,1.2,2.2,1.8c3.2,0.2,5.6,2.8,8,4.6c2-4.6,4.8-8.6,8.2-12c-1.4-1.2-3-2.4-4.8-3.6c0,0-0.8-0.6-1.8-1.4
				C2128.4,703.4,2124.4,707,2121.4,711.4"/>

				<linearGradient id="SVGID_1599_" gradientUnits="userSpaceOnUse" x1="2121.3999" y1="361.1" x2="2151.4536" y2="361.1" gradientTransform="matrix(1 0 0 -1 0 1080)">
				<stop  offset="0" style="stop-color:#521A57"/>
				<stop  offset="0.4741" style="stop-color:#5C2250"/>
				<stop  offset="1" style="stop-color:#6D3044"/>
			</linearGradient>
			<path id="SVGID_20099_" style="fill:url(#SVGID_1599_);" d="M2137.2,720.8c4.8,2,10,3.8,14.2,6l0,0c-2.2-1-8.4-4.8-13.8-8
				C2137.6,719.4,2137.4,720.2,2137.2,720.8 M2121.4,711.4c1.8,1.4,3.6,2.8,3.8,3c1.8,1.4,3.8,2.6,6.2,3.8c0.4-0.8,0.6-1.6,1-2.2
				c-0.4-0.2-0.8-0.4-1-0.4c-2.6-1.2-6-4-9.4-4.6C2121.6,711,2121.6,711.2,2121.4,711.4"/>

				<linearGradient id="SVGID_1699_" gradientUnits="userSpaceOnUse" x1="2133.0396" y1="363.5" x2="2157.8394" y2="363.5" gradientTransform="matrix(1 0 0 -1 0 1080)">
				<stop  offset="0" style="stop-color:#842447"/>
				<stop  offset="1" style="stop-color:#392663"/>
			</linearGradient>
			<path id="SVGID_10099_" style="fill:url(#SVGID_1699_);" d="M2142,709.6c3,3.6,5.6,7.8,7.4,12.2c0.6,1.6,1.6,3.2,2.4,4.6
				c0.2-0.2,0.4-0.4,0.6-0.6l5.4,6.6c-1.6-3.8-8.2-18-14.4-24.8C2143,708,2142.4,708.8,2142,709.6 M2139.2,706.4
				c0.4-0.6,1-1,1.6-1.4c-0.2,0-0.2-0.2-0.4-0.2c-1.6-1-4.6-2.6-6.4-3.6C2135.6,702.8,2137.4,704.4,2139.2,706.4 M2133,700.8
				L2133,700.8c0.2,0,0.4,0.2,0.6,0.2c-0.2-0.2-0.4-0.2-0.4-0.4C2133.2,700.6,2133.2,700.8,2133,700.8"/>
		</g>
	</g>
	<polygon id="tap_x5F_area" style="fill:#FFFFFF;fill-opacity:0;" points="2080.6,688.6 2237.6,688.6 2237.6,889 2182.4,1059.6
		2134.8,1059.6 2078,889 	"/>
</g>
<rect id="app_x5F_Sharjah--zoom" x="2083" y="1006.6" transform="rotate(-56deg 0 0)" style="fill:none;" width="136.8" height="76.8"/>
<rect id="app_x5F_Dubai--zoom" x="2072.4" y="1052" transform="rotate(-9deg 0 0)" style="fill:none;" width="151.2" height="85.05"/>
</svg>
