<?xml version="1.0" encoding="utf-8"?>
<!-- Generator: Adobe Illustrator 22.0.1, SVG Export Plug-In . SVG Version: 6.00 Build 0)  -->
<svg version="1.1" id="app_x5F_UAE--parent" xmlns="http://www.w3.org/2000/svg" xmlns:xlink="http://www.w3.org/1999/xlink"
	 x="0px" y="0px" width="1920px" height="1080px" viewBox="0 0 1920 1080" style="enable-background:new 0 0 1920 1080;"
	 xml:space="preserve">
<g id="app_x5_Dummy--marker">
	<rect width="1" height="1" x="0" y="0" fill="rgba(0,0,0,0)"></rect>
</g>
<g id="NorthPoint" transform="translate(1831.070256, 181.453972) rotate(56.000000) translate(-1831.070256, -181.453972) translate(1792.570256, 137.953972)">
	<path id="Fill-933_1_" style="fill:#8A1538;" d="M25.1,83.8l7.6,9.8l-11.3-3.5L25.1,83.8z M19.7,92.5l20.1,5.3l-13-16L6.7,76.5
		L19.7,92.5z M25.1,83.8l7.6,9.8l-11.3-3.5L25.1,83.8z M19.7,92.5l20.1,5.3l-13-16L6.7,76.5L19.7,92.5z M25.1,83.8l7.6,9.8
		l-11.3-3.5L25.1,83.8z M39.8,97.8l-13-16L6.7,76.5l13,16L39.8,97.8z M12.7,66.9c11-5.4,24.3-1,29.9,10.2c5.4,11,1,24.3-10.2,29.9
		c-11,5.4-24.3,1-29.9-10.2C-2.9,85.8,1.5,72.6,12.7,66.9z M34.7,111.5C48.4,104.8,53.6,88.1,47,75c-6.7-13.6-23-18.7-36.7-12
		S-8.4,86.2-2,99.6C5.1,112.6,21.3,117.9,34.7,111.5z M25.1,83.8l7.6,9.8l-11.3-3.5L25.1,83.8z M19.7,92.5l20.1,5.3l-13-16L6.7,76.5
		L19.7,92.5z M25.1,83.8l7.6,9.8l-11.3-3.5L25.1,83.8z M19.7,92.5l20.1,5.3l-13-16L6.7,76.5L19.7,92.5z M25.1,83.8l7.6,9.8
		l-11.3-3.5L25.1,83.8z M19.7,92.5l20.1,5.3l-13-16L6.7,76.5L19.7,92.5z M25.1,83.8l7.6,9.8l-11.3-3.5L25.1,83.8z M19.7,92.5
		l20.1,5.3l-13-16L6.7,76.5L19.7,92.5z"/>
	<g id="Back-Copy-5_1_" transform="translate(34.000000, 0.000000)">

			<text transform="matrix(0.5505 -0.8348 0.8348 0.5505 -39.7716 73.5724)" style="fill:#8A1538; font-family:'ArialMT'; font-size:13.8803px;">N</text>
	</g>
</g>
<g>
	<g id="Map-ID-Grey" transform="translate(908.000000, 742.000000)">
		<polygon id="Fill-124" style="fill:#989898;" points="6.9,-27.9 6.9,-4.1 14.8,-4.1 18.7,0.1 22.8,-4.1 30.7,-4.1 30.7,-27.9
			"/>
		<g id="Group" transform="translate(5.000000, 5.000000)">
			<path id="Path" style="fill:#FFFFFF;" d="M13.2-27.3c-3.8,0-6.5,2.5-6.5,6v6.7h2.2c0,0,0-3.7,0-6.7c0-3.1,2.4-5.4,4.8-5.9
				c0.1,0,0.2,0,0.1,0L13.2-27.3L13.2-27.3z"/>
			<path id="Path_1_" style="fill:#FFFFFF;" d="M13.7-27c-0.2,0.1-0.6,0.2-0.9,0.5c-1.7,1-2.4,3-2.6,4.9c0,0.1,0,0.2,0,0.3l0,0v0.1
				v6.7h2.2v-6.7c0-0.5,0.2-0.8,0.5-1l0.8,1l0.8-1c0.3,0.2,0.5,0.6,0.5,1v6.7h2.2v-6.7c0-2-1.6-3.6-3.6-3.6c-0.5,0-0.9,0.1-1.3,0.2
				l0,0c0.5-0.6,1.2-0.8,1.9-0.8l0,0c0.2,0,0.5,0,0.7,0c2,0.3,3.5,2,3.5,3.9c0,0.1,0,0.1,0,0.2v6.6h2.2v-6.6c0-2.9-1.7-5.2-4.6-5.9
				c-0.1,0-0.2-0.1-0.5-0.1c-0.2,0-0.5,0-0.7,0C14.4-27.2,14-27.2,13.7-27z"/>
		</g>
	</g>
	<text transform="matrix(1 0 0 1 945.8321 731.3132)" style="fill:#989898; font-family:'MarselisPro'; font-size:16.9987px;">ABU DHABI</text>
</g>
<g>
	<g id="Map-ID-Grey_1_" transform="translate(1173.000000, 812.000000)">
		<polygon id="Fill-124_2_" style="fill:#989898;" points="-7.9,-31.7 -7.9,-8 0,-8 4,-3.7 8,-8 15.9,-8 15.9,-31.7 		"/>
		<g id="Group_2_" transform="translate(5.000000, 5.000000)">
			<path id="Path_4_" style="fill:#FFFFFF;" d="M-1.5-31.2c-3.8,0-6.5,2.5-6.5,6v6.7h2.2c0,0,0-3.7,0-6.7c0-3.1,2.4-5.4,4.8-5.9
				c0.1,0,0.2,0,0.1,0L-1.5-31.2L-1.5-31.2z"/>
			<path id="Path_5_" style="fill:#FFFFFF;" d="M-1.1-30.9c-0.2,0.1-0.6,0.2-0.9,0.5c-1.7,1-2.4,3-2.6,4.9c0,0.1,0,0.2,0,0.3l0,0
				v0.1v6.7h2.2v-6.7c0-0.5,0.2-0.8,0.5-1l0.8,1l0.8-1c0.3,0.2,0.5,0.6,0.5,1v6.7h2.2v-6.7c0-2-1.6-3.6-3.6-3.6
				c-0.5,0-0.9,0.1-1.3,0.2l0,0c0.5-0.6,1.2-0.8,1.9-0.8l0,0c0.2,0,0.5,0,0.7,0c2,0.3,3.5,2,3.5,3.9c0,0.1,0,0.1,0,0.2v6.6h2.2v-6.6
				C5.8-28,4-30.3,1.1-31c-0.1,0-0.2-0.1-0.5-0.1c-0.2,0-0.5,0-0.7,0C-0.4-31.1-0.7-31-1.1-30.9z"/>
		</g>
	</g>
	<text transform="matrix(1 0 0 1 1197.1963 797.4197)" style="fill:#989898; font-family:'MarselisPro'; font-size:16.9987px;">AL AIN</text>
</g>
<g>
	<g id="Map-ID-Grey_2_" transform="translate(1232.000000, 373.000000)">
		<polygon id="Fill-124_4_" style="fill:#989898;" points="-11.2,-7.3 -11.2,16.4 -3.3,16.4 0.7,20.7 4.6,16.4 12.6,16.4 12.6,-7.3
					"/>
		<g id="Group_4_" transform="translate(5.000000, 5.000000)">
			<path id="Path_8_" style="fill:#FFFFFF;" d="M-4.8-6.7c-3.8,0-6.5,2.5-6.5,6V6h2.2c0,0,0-3.7,0-6.7c0-3.1,2.4-5.4,4.7-5.9
				c0.1,0,0.2,0,0.1,0h-0.6v-0.1H-4.8z"/>
			<path id="Path_9_" style="fill:#FFFFFF;" d="M-4.5-6.5C-4.7-6.4-5-6.3-5.4-6.1c-1.7,1-2.4,3-2.5,4.9c0,0.1,0,0.2,0,0.3l0,0v0.1V6
				h2.2v-6.7c0-0.5,0.2-0.8,0.5-1l0.8,1l0.8-1c0.3,0.2,0.5,0.6,0.5,1V6H-1v-6.7c0-2-1.6-3.6-3.6-3.6c-0.5,0-0.9,0.1-1.3,0.2l0,0
				C-5.4-4.7-4.7-4.9-4-4.9l0,0c0.2,0,0.5,0,0.7,0c2,0.3,3.5,2,3.5,3.9c0,0.1,0,0.1,0,0.2v6.6h2.2v-6.6c0-2.9-1.7-5.2-4.6-5.9
				c-0.1,0-0.2-0.1-0.5-0.1c-0.2,0-0.5,0-0.7,0C-3.6-6.7-4-6.6-4.5-6.5z"/>
		</g>
	</g>
	<text transform="matrix(1 0 0 1 1250.7041 382.8381)" style="fill:#989898; font-family:'MarselisPro'; font-size:16.9987px;">RAS AL-KHAIMAH</text>
</g>
<g id="app_x5F_Dubai--button">
	<polygon style="opacity:0;fill:#FFFFFF;" points="1055.8,558.4 1055.6,587.2 855.7,587.2 855.7,497.2 943.5,497.2 1032,558.4 	"/>
	<g transform="translate(1032.000000, 577.000000)">
		<polygon id="Fill-124_1_" style="fill:#8A1538;" points="0,-18.6 0,5.1 7.9,5.1 11.8,9.4 15.9,5.1 23.8,5.1 23.8,-18.6 		"/>
		<g id="Group_1_" transform="translate(5.000000, 5.000000)">
			<path id="Path_2_" style="fill:#FFFFFF;" d="M6.3-18.1c-3.8,0-6.5,2.5-6.5,6v6.7H2c0,0,0-3.7,0-6.7c0-3.1,2.4-5.4,4.8-5.9
				c0.1,0,0.2,0,0.1,0L6.3-18.1L6.3-18.1z"/>
			<path id="Path_3_" style="fill:#FFFFFF;" d="M6.8-17.8c-0.2,0.1-0.6,0.2-0.9,0.5c-1.7,1-2.4,3-2.6,4.9c0,0.1,0,0.2,0,0.3l0,0v0.1
				v6.7h2.2V-12c0-0.5,0.2-0.8,0.5-1l0.8,1l0.8-1c0.3,0.2,0.5,0.6,0.5,1v6.7h2.2V-12c0-2-1.6-3.6-3.6-3.6c-0.5,0-0.9,0.1-1.3,0.2
				l0,0c0.5-0.6,1.2-0.8,1.9-0.8l0,0c0.2,0,0.5,0,0.7,0c2,0.3,3.5,2,3.5,3.9c0,0.1,0,0.1,0,0.2v6.6h2.2v-6.6c0-2.9-1.7-5.2-4.6-5.9
				c-0.1,0-0.2-0.1-0.5-0.1c-0.2,0-0.5,0-0.7,0C7.5-18.1,7.2-18,6.8-17.8z"/>
		</g>
	</g>
	<text transform="matrix(1 0 0 1 1064.0371 575.491)" style="fill:#8A1538; font-family:'MarselisPro'; font-size:16.9987px;">DUBAI</text>
	<path id="Line-4-Copy-3" style="fill:none;stroke:#8A1538;stroke-width:2.2095;" d="M1032,570.6h-73"/>
	<g>
		<g>
			<path d="M885.1,553.2c0.1,0.3,0.4,0.5,0.9,0.5h3.9l-1.5,2.4h-4.9l-0.1-9.9c0,0,0.1-0.3,0.8-1.2c0.4-0.5,0.7-0.9,0.9-1.1
				C885,545.5,884.9,552.6,885.1,553.2 M902.1,547.5l0.1,8.8c0.7-0.3,1.6-0.4,1.8-2.1c0.1-1.5,0.1-5.7-0.1-9
				C902.9,546.5,902.6,546.6,902.1,547.5 M937.7,548.1l-1.5,2.6c0.8,0.9,1.3,1.7,1.5,2.6l0,0c0.2,0.7,0.3,1.3,0.3,2.4
				c-0.2-0.9-0.5-1.6-0.8-1.9H933c-0.4,0-0.5-0.2-0.5-0.3c-0.2-0.9-0.4-2.1-0.5-3.6c-0.1-1.2-0.1-2.4-0.2-3.6
				c-0.1-0.9-0.2-1.7-0.3-2.2c-0.3,0.3-0.6,0.6-0.9,1c-0.3,0.5-0.4,0.9-0.4,1.4c0,1.3,0,2.2-0.1,2.8c-0.1,1-0.5,1.9-1,2.6
				c-0.1,0.1-0.2,0.4-0.3,0.6v0.1c0,0,0,0.1,0,0.2c0,0.4,0,1.1-0.4,1.6l-0.2,0.2v-0.2c0.2-1.5-0.9-5.1-2-6.6c-1-1.3-2.6-2.6-3.9-3.1
				c-0.4,1.3-0.6,2.2-0.6,3.3c0,0.3,2.7,2.1,2.9,2l0.5-0.2h0.1c1.8,1.6,2.3,3.3,2.3,3.5c0,0.6-1.1,1.4-3.3,2.5l-4.3,1.7
				c0,0-0.1,0-0.1,0.1s0.1,0,0.1,0h0.9c4.5,0,7.4-0.8,8.5-3.1c0.5-1.2,0.8-2.2,1-2.8l0.1-0.2l0.1,0.2c0.2,0.6,0.4,1.5,0.4,2.4
				c0,0.8,0.1,1.3,0.1,2.1h7.7c0.6-1.8,0.9-2.8,0.9-3.7C939.7,550.9,939,549.4,937.7,548.1 M898.8,544.9c-0.2-0.3-0.3-0.7-0.3-0.9
				c-0.5,0.5-1,1.4-1.5,2.5c-0.1,0.3-0.1,0.6,0.1,0.8c0.2,0.2,0.5,0.4,0.5,0.4l0,0c0.2,0.4,0.3,5.2,0.3,5.7l0,0c0,0.7,0,1.2-0.3,2.2
				c0-0.8-0.1-1.4-0.3-1.9h-4.1v-0.1c0-0.1,0.2-0.2,0.5-0.7c0.2-0.4,0.3-0.9,0.3-1.2c0-0.7-0.3-1.2-1-1.7s-1.2-0.7-1.9-0.6
				c-1,0-1.4,0.3-2,0.9c-0.3,0.3-0.7,1.1-1.3,2.3c0.7-0.1,0.8-0.1,0.8-0.1c0.9,0,1.6,0.4,2.2,1.2c0.1,0.1,1.6,2.1,1.8,2.6h5.8
				c0.2,0,0.4-0.2,0.4-0.2c0.1-0.1,0.2-0.2,0.5-1.3c0.2-0.9,0.2-1.3,0.2-1.6l0.1-4.5l0.9-1.9C900.1,546.3,898.9,545.1,898.8,544.9
				 M919.5,546.4c-0.5-0.3-1.7-1.5-1.8-1.8c-0.2-0.3-0.3-0.7-0.3-0.9c-0.5,0.5-1,1.4-1.5,2.5c-0.1,0.3-0.1,0.6,0.1,0.8
				c0.2,0.2,0.5,0.4,0.5,0.4l0,0c0.2,0.4,0.8,4.9,0.9,5.5c0,0.1,0.1,0.6,0.1,1c0.1,0.7,0.1,1.5-0.6,2.8c0.1-0.5,0.1-1.1,0.1-1.5
				c-0.3,0.2-0.7,0.3-1.1,0.4c-0.9,0.2-1.6,0.3-2.2,0.3c-0.7,0-1.4-0.2-2-0.6c-0.7-0.5-1-1.1-1-1.8c0-0.3,0.2-0.8,0.5-1.7
				c0.1-0.1,0.1-0.2,0-0.2l0,0l0,0c-0.2,0-0.8,0.5-1.2,1.3c-0.5,1.2-0.6,1.9-0.6,2.7c0,1,0.4,1.5,1.1,2c0.6,0.5,1.5,0.7,2.5,0.7
				c1.3,0,2.6-0.3,3.7-1.1c1.2-0.8,1.7-1.6,2.1-2.8c0.1-0.2,0.3-0.8,0.3-1.7l-0.5-4.6L919.5,546.4z M878.8,550.9c0,0-0.8-1-1.1-1.3
				s-0.6-0.4-0.8-0.4c-0.3,0-0.6,0.2-0.9,0.6c0,0,0,0,0,0.1c0,1.3,1.6,1.6,2.5,1.2L878.8,550.9z M880.3,549.3
				c0.6,1.5,0.8,2.2,0.7,3.8l-0.5,3.1h-11.8c-0.8,0-1.5,0-2.1-0.6s-0.9-1.4-0.9-2.2c0-0.5,0.1-1.3,0.4-2.2c0.3-1,0.6-1.6,0.9-1.8
				c0.2,0,0.2,0.1,0.2,0.2c0,0.2-0.1,0.5-0.2,0.9c-0.1,0.4-0.2,0.8-0.2,1c0,0.6,0.2,1.1,0.6,1.6c0.4,0.5,1,0.7,1.6,0.7h9.8
				c0.2,0.5,0.4,1.3,0.5,2.1c0.1-0.8,0.1-1.6,0-2.3l0,0c0-0.2-0.1-0.5-0.2-1c-0.1-0.7-0.4-1.4-0.4-1.4l-0.1,0.1
				c-0.5,0.8-1.5,1.7-2.5,1.7c-0.6,0-0.9-0.1-1.4-0.4c-0.6-0.3-0.8-0.7-0.8-1.2c0-0.8,0.5-1.7,1.4-2.8c0.9-1,1.8-1.6,2.6-1.6
				C878.9,547,879.7,547.8,880.3,549.3 M873.6,545.9l1.5,1.5l1.5-1.5l-1.5-1.5L873.6,545.9z M889.9,546.4l1.5,1.5l1.5-1.5l-1.5-1.5
				L889.9,546.4z M932.7,545.5l1.5,1.5l1.5-1.5l-1.5-1.5L932.7,545.5z M935.4,545.5l1.5,1.5l1.5-1.5l-1.5-1.5L935.4,545.5z
				 M930.4,566.1c-1.3,0-2.3,0.7-2.8,1.7l0,0v-5.1l-2.4,0.3v12h2.4v-6.8l0,0c0.4-0.2,0.8-0.3,1.2-0.3c1.1,0,1.7,0.7,1.7,2l0,0v5.1
				h2.4v-6C932.9,567,931.8,566.1,930.4,566.1 M900.5,574.9h2.8l-4.6-12.3l-1.7,0.2l-4.9,12.1h1.5l1.2-2.9h2.7l-0.2-1.2h-2l2-5
				L900.5,574.9z M871.7,574.9h2.4v-12.3l-2.4,0.3V574.9z M885.5,574.9h2.4v-12.3l-2.4,0.3V574.9z M855.7,564.3h3.3l0,0v10.5h2.6
				v-10.5l0,0h3.3v-1.4h-9.3v1.4H855.7z M866.5,563.7l1.5,1.5l1.5-1.5l-1.5-1.5L866.5,563.7z M866.7,574.9h2.4v-8.6l-2.4,0.3V574.9z
				 M905,574.9h2.4v-12.3l-2.4,0.3V574.9z M920.1,572.8c-0.5,0.3-1,0.5-1.8,0.5c-2.1,0-4-2-4-5.4c0-2.4,1.3-4,3.2-4
				c1.4,0,2.7,1,2.6,2.5l2.6-0.4c-0.2-2.2-2.4-3.4-4.9-3.4c-3.1,0-6.1,2.2-6.1,6.4c0,3.8,2.4,6,5.1,6c1.7,0,2.7-0.8,3.3-1.9v1.7h2.6
				v-5.5l-2.6,0.3L920.1,572.8L920.1,572.8z M938.6,566c-0.9,0-1.6,0.2-2.2,0.6c-0.7,0.5-1.1,1.2-1.3,2.2c0.6-0.6,1.7-1.1,2.5-1.1
				c1.1,0,2,0.5,2,1.9v1.4v1.9c-0.4,0.3-0.9,0.4-1.3,0.4c-0.9,0-1.3-0.6-1.3-1.3s0.3-1.4,0.3-1.4c-1.7,0.6-2.5,1.5-2.5,2.6
				c0,1,0.7,1.8,2,1.8c1.2,0,2.3-0.7,2.8-1.8v1.6h2.3v-5.4C941.9,567.5,940.8,566,938.6,566 M879.9,566c-0.9,0-1.6,0.2-2.2,0.6
				c-0.7,0.5-1.1,1.2-1.3,2.2c0.6-0.6,1.7-1.1,2.5-1.1c1.1,0,2,0.5,2,1.9v1.4v1.9c-0.4,0.3-0.9,0.4-1.3,0.4c-0.9,0-1.3-0.6-1.3-1.3
				s0.3-1.4,0.3-1.4c-1.7,0.6-2.5,1.5-2.5,2.6c0,1,0.7,1.8,2,1.8c1.2,0,2.3-0.7,2.8-1.8v1.6h2.3v-5.4
				C883.3,567.5,882.1,566,879.9,566 M947.2,566.2v-0.3c0-1.3,0.5-1.8,1.5-1.8c0.3,0,0.6,0,0.9,0.1c-0.1-0.9-0.9-1.5-2.1-1.5
				c-1.8,0-2.7,1.3-2.7,2.9v0.6h-1.3v1.3h1.3v7.3h2.4v-7.3h2.6v-1.3H947.2z M869.2,585.6c1.4,0,2.2-1.2,2.2-2.3s-0.7-2.2-2.1-2.2h-1
				v4.4L869.2,585.6 M869.4,580.5c1.9,0,2.8,1.4,2.8,2.8c0,1.5-1,3-2.9,3h-1.6v-5.8H869.4 M879.3,580.5h-0.7v3.6
				c0,0.8-0.3,1.6-1.4,1.6c-1.1,0-1.4-0.8-1.4-1.6v-3.6H875v3.7c0,1.3,0.8,2.3,2.2,2.3c1.3,0,2.2-0.9,2.2-2.3v-3.7H879.3z
				 M885,585.6c0.7,0,1-0.5,1-1s-0.3-1-1.1-1h-1.6v2H885 M883.4,582.9h1.4c0.6,0,0.9-0.4,0.9-0.9c0-0.4-0.3-0.9-1-0.9h-1.4
				L883.4,582.9L883.4,582.9z M885.7,583.2c0.8,0.2,1.1,0.8,1.1,1.4c0,0.8-0.6,1.7-2,1.7h-2.2v-5.8h2.1c1.2,0,1.7,0.7,1.7,1.4
				C886.5,582.4,886.3,583,885.7,583.2 M897.7,586.3h0.7v-5.8h-0.7V586.3z M893.4,584.2l-1.2-2.8l-1.2,2.8H893.4z M895.1,586.3h-0.8
				l-0.6-1.5h-3l-0.6,1.5h-0.8l2.6-5.8h0.7L895.1,586.3z M934.5,581.9c2.2,0,3.3,1.2,3.3,4.4h-5.1l0.3-0.8h4
				c-0.1-2.1-0.9-2.9-2.6-2.9h-0.6l0.3-0.7H934.5z M929.6,585.5V582l0.7-0.1v4.4H921l-0.1-0.8L929.6,585.5z M916.3,586.3v-3.7h-2.8
				c-1.3,0-1.9,0.4-1.9,0.9c0,0.3,0.2,0.5,0.6,0.8l0.7,0.3c0.6,0.3,0.9,0.7,0.9,1.3c0,1-1.1,1.8-3.3,1.8c-2.5,0-3.5-1-3.5-3.5v-0.8
				h0.7v0.6c0,2.3,0.8,2.9,2.9,2.9c1.8,0,2.6-0.4,2.6-1c0-0.3-0.2-0.5-0.7-0.8l-0.6-0.3c-0.6-0.3-0.9-0.7-0.9-1.3
				c0-0.9,0.8-1.7,2.4-1.7h3.6v3.7h4.1v0.8H916.3z M930,586.6l0.5,0.5l-0.5,0.5l-0.5-0.5L930,586.6z M910,588l0.5,0.5L910,589
				l-0.5-0.5L910,588z M910.9,588l0.5,0.5l-0.5,0.5l-0.5-0.5L910.9,588z"/>
		</g>
		<g>
			<path d="M906.9,530v6.5h6.8v-7c-1.3,0.3-2.7,0.5-4,0.5H906.9z"/>
			<path d="M909.6,507.2c-1.9-1.5-4.3-2.4-6.9-2.4c-1.4,0-2.8,0.3-4.1,0.8l0,0c1.4-1.6,3.5-2.5,5.8-2.5l0,0c0.7,0,1.5,0,2.2,0.2
				c2.9,0.5,5.5,1.9,7.4,3.9c3.1,0,5.9,0,8.1,0c-2.3-4.6-6.6-8-12.4-9.4c-0.3-0.1-0.9-0.2-1.3-0.2c-0.7-0.1-1.4-0.2-2.1-0.2
				c-1.5,0-2.5,0.3-3.8,0.7c-0.9,0.3-1.8,0.7-3,1.4c-3,1.9-5.1,4.7-6.3,7.8c0.8-0.1,1.6-0.2,2.4-0.2
				C899.1,507.2,904.4,507.2,909.6,507.2z"/>
			<path d="M921.5,524.9c-1.3,1.3-2.7,2.3-4.1,3.1v8.4h6.8c0,0,0-8.8,0-14.9C923.4,522.8,922.5,523.9,921.5,524.9z"/>
			<path d="M912.2,510.3c-6,0-12.6,0-16.6,0c-1.2,0-2.3,0.2-3.4,0.5c-0.3,1.3-0.4,2.6-0.5,3.9c0,0.3,0,0.7,0,1l0,0c0,0,0,0.2,0,0.3
				v11.1h6.8V516c0-1.3,0.6-2.5,1.5-3.2l2.7,3.2l2.7-3.2c0.9,0.8,1.5,1.9,1.5,3.2v11.1h2.8c1.4,0,2.7-0.2,4-0.7V516
				C913.7,513.8,913.2,511.9,912.2,510.3z"/>
			<path d="M916.1,510.3c0.8,1.6,1.2,3.3,1.2,5.2c0,0.2,0,0.5,0,0.7v8.3c0.7-0.5,1.4-1,2-1.7c2.3-2.3,3.9-5.3,4.8-8.7
				c-0.1-1.3-0.4-2.6-0.7-3.8C921.5,510.3,919,510.3,916.1,510.3z"/>
			<path d="M881.3,536.5h6.8c0,0,0-2.7,0-6.5h-6.8V536.5z"/>
			<path d="M888.3,512.5c-3.4,2.2-5.9,5.9-7.1,10.5v4h6.8c0-3.5,0-7.6,0-11.3C888.1,514.5,888.2,513.5,888.3,512.5z"/>
			<rect x="891.7" y="530" width="6.8" height="6.5"/>
			<path d="M889.5,508.4c2.5-5.9,8-9.9,13.4-11c0.3-0.1,0.7-0.2,0.3-0.2h-2c-11.7,0-19.8,7.8-20,18.2
				C883.4,512.2,886.2,509.7,889.5,508.4z"/>
			<path style="fill:#5E6738;" d="M909.7,526.9h-2.8v3.1h2.8c1.4,0,2.7-0.2,4-0.5v-3.2C912.4,526.7,911.1,526.9,909.7,526.9z"/>
			<path style="fill:#5E6738;" d="M924.2,521.6c0-3.2,0-5.6,0-5.6c0-0.6,0-1.3-0.1-1.9c-0.8,3.4-2.5,6.4-4.8,8.7
				c-0.6,0.6-1.3,1.2-2,1.7v3.6c1.5-0.8,2.9-1.8,4.1-3.1C922.5,523.9,923.4,522.8,924.2,521.6z"/>
			<path style="fill:#5E6738;" d="M881.3,526.9v3.1h6.8c0-1,0-2,0-3.1H881.3z"/>
			<rect x="891.7" y="526.9" style="fill:#5E6738;" width="6.8" height="3.1"/>
			<path style="fill:#5E6738;" d="M881.3,522.9c1.2-4.5,3.7-8.3,7.1-10.5c0.2-1.4,0.7-2.8,1.2-4.1c-3.3,1.3-6.2,3.8-8.3,7
				c0,0.1,0,0.2,0,0.3V522.9z"/>
			<path style="fill:#5E6738;" d="M895.6,510.3c4.1,0,10.6,0,16.6,0c-0.7-1.2-1.6-2.2-2.7-3.1c-5.2,0-10.5,0-14,0
				c-0.8,0-1.6,0.1-2.4,0.2c-0.4,1.1-0.8,2.2-1,3.3C893.3,510.4,894.4,510.3,895.6,510.3z"/>
			<path style="fill:#5E6738;" d="M916.1,510.3c2.9,0,5.4,0,7.2,0c-0.3-1.1-0.7-2.1-1.2-3.1c-2.2,0-5,0-8.1,0
				C914.9,508.1,915.6,509.1,916.1,510.3z"/>
		</g>
	</g>
</g>
<g id="app_x5F_Sharjah--button">
	<polygon id="tap_x5F_area" style="opacity:0;fill:#FFFFFF;" points="1036.8,349.3 1115.3,349.3 1115.3,449.5 1087.7,534.8
		1063.9,534.8 1035.5,449.5 	"/>
	<g transform="translate(1066.000000, 527.000000)">
		<polygon id="Fill-124_3_" style="fill:#8A1538;" points="-2.1,-15.9 -2.1,7.8 5.9,7.8 9.8,12.1 13.7,7.8 21.7,7.8 21.7,-15.9
			"/>
		<g id="Group_3_" transform="translate(5.000000, 5.000000)">
			<path id="Path_6_" style="fill:#FFFFFF;" d="M4.3-15.4c-3.8,0-6.5,2.5-6.5,6v6.7H0c0,0,0-3.7,0-6.7c0-3.1,2.4-5.4,4.7-5.9
				c0.1,0,0.2,0,0.1,0L4.3-15.4L4.3-15.4z"/>
			<path id="Path_7_" style="fill:#FFFFFF;" d="M4.7-15c-0.2,0.1-0.6,0.2-0.9,0.5c-1.7,1-2.4,3-2.5,4.9c0,0.1,0,0.2,0,0.3l0,0v0.1
				v6.7h2.2v-6.7c0-0.5,0.2-0.8,0.5-1l0.8,1l0.8-1c0.3,0.2,0.5,0.6,0.5,1v6.7h2.2v-6.7c0-2-1.6-3.6-3.6-3.6c-0.5,0-0.9,0.1-1.3,0.2
				l0,0c0.5-0.6,1.2-0.8,1.8-0.8l0,0c0.2,0,0.5,0,0.7,0c2,0.3,3.5,2,3.5,3.9c0,0.1,0,0.1,0,0.2v6.6h2.2v-6.6c0-2.9-1.7-5.2-4.6-5.9
				c-0.1,0-0.2-0.1-0.5-0.1c-0.2,0-0.5,0-0.7,0C5.5-15.2,5.1-15.1,4.7-15z"/>
		</g>
	</g>
	<text transform="matrix(1 0 0 1 1096.1475 528.2722)" style="fill:#8A1538; font-family:'MarselisPro'; font-size:16.9987px;">SHARJAH</text>
	<path id="Line-4-Copy-5" style="fill:none;stroke:#8A1538;stroke-width:2.2095;" d="M1075.3,511.7v-62.2"/>
	<g>
		<g id="XMLID_211_">
			<path id="XMLID_224_" style="fill:#001C71;" d="M1052,426.1c-0.9,1-2,1.5-3.3,1.5c-1.2,0-2.3-0.5-3.2-1.4c-0.9-0.9-1.3-2-1.3-3.2
				c0-1.3,0.5-2.4,1.4-3.3s2-1.4,3.3-1.4s2.4,0.5,3.3,1.4s1.4,2,1.4,3.3v4.5h-1.5v-1.4H1052z M1052,423c0-0.9-0.3-1.6-0.9-2.2
				s-1.4-0.9-2.2-0.9c-0.9,0-1.6,0.3-2.2,0.9s-0.9,1.3-0.9,2.2c0,0.9,0.3,1.6,0.9,2.2s1.4,0.9,2.2,0.9c0.9,0,1.6-0.3,2.2-0.9
				S1052,423.9,1052,423"/>
			<rect id="XMLID_223_" x="1055.6" y="414.7" style="fill:#001C71;" width="1.5" height="12.8"/>
			<polygon id="XMLID_222_" style="fill:#001C71;" points="1068.5,420 1063.7,420 1063.7,418.5 1071.3,418.5 1066.4,426 1071.3,426
				1071.3,427.5 1063.7,427.5 			"/>
			<path id="XMLID_219_" style="fill:#001C71;" d="M1080.1,426.1c-0.9,1-2,1.5-3.3,1.5c-1.2,0-2.3-0.5-3.2-1.4
				c-0.9-0.9-1.3-2-1.3-3.2c0-1.3,0.5-2.4,1.4-3.3s2-1.4,3.3-1.4s2.4,0.5,3.3,1.4s1.4,2,1.4,3.3v4.5h-1.5v-1.4H1080.1z M1080.1,423
				c0-0.9-0.3-1.6-0.9-2.2s-1.4-0.9-2.2-0.9c-0.9,0-1.6,0.3-2.2,0.9s-0.9,1.3-0.9,2.2c0,0.9,0.3,1.6,0.9,2.2s1.4,0.9,2.2,0.9
				c0.8,0,1.6-0.3,2.2-0.9C1079.8,424.6,1080.1,423.9,1080.1,423"/>
			<path id="XMLID_218_" style="fill:#001C71;" d="M1090,422.3c0-0.7-0.2-1.2-0.7-1.7s-1-0.7-1.7-0.7c-0.6,0-1.2,0.2-1.7,0.7
				s-0.7,1-0.7,1.7v5.2h-1.5v-12.8h1.5v4.9c0.7-0.8,1.6-1.2,2.7-1.2c1,0,1.9,0.4,2.6,1.2c0.7,0.8,1,1.7,1,2.7v5.2h-1.5L1090,422.3
				L1090,422.3z"/>
			<path id="XMLID_215_" style="fill:#001C71;" d="M1094.1,415.5h1.5v1.5h-1.5V415.5z M1094.1,418.5h1.5v9h-1.5V418.5z"/>
			<path id="XMLID_212_" style="fill:#001C71;" d="M1105.1,426.1c-0.9,1-2,1.5-3.3,1.5c-1.2,0-2.3-0.5-3.2-1.4
				c-0.9-0.9-1.3-2-1.3-3.2c0-1.3,0.5-2.4,1.4-3.3s2-1.4,3.3-1.4s2.4,0.5,3.3,1.4s1.4,2,1.4,3.3v4.5h-1.5v-1.4H1105.1z M1105.1,423
				c0-0.9-0.3-1.6-0.9-2.2s-1.4-0.9-2.2-0.9c-0.9,0-1.6,0.3-2.2,0.9s-0.9,1.3-0.9,2.2c0,0.9,0.3,1.6,0.9,2.2s1.4,0.9,2.2,0.9
				c0.9,0,1.6-0.3,2.2-0.9C1104.8,424.6,1105.1,423.9,1105.1,423"/>
		</g>
		<path id="XMLID_198_" style="fill:#001C71;" d="M1048.4,398.2h-1.5v1.5h1.5V398.2z M1101.2,406.6c0,0.6-0.2,1.2-0.7,1.7
			s-1,0.7-1.7,0.7h-5.8v-5.1h-1.5v7c0,0.7-0.2,1.2-0.7,1.6c-0.5,0.5-1,0.7-1.7,0.7v1.5c1,0,2-0.4,2.8-1.2c0.8-0.8,1.2-1.6,1.2-2.7
			v-0.4h6.1l0,0c0.9,0,1.7-0.5,2.4-1.2c0.8-0.8,1.2-1.7,1.2-2.7v-8.9h-1.5v9H1101.2z M1060.7,413.3h1.5v-1.5h-1.5V413.3z
			 M1050.6,398.2h-1.5v1.5h1.5V398.2z M1093,400.9h-1.5v1.5h1.5V400.9z M1062.9,413.3h1.5v-1.5h-1.5V413.3z M1077.6,401.3
			c-0.1,0-0.4-0.2-0.8-0.2c-0.2-0.1-0.4-0.1-0.7-0.1c-0.3,0-0.6-0.1-1-0.1c-0.1,0-0.2,0-0.3,0c-0.6,0-1.2,0.1-1.7,0.2
			c-0.5,0.2-1,0.4-1.5,0.7v1.7c0.4-0.4,1-0.7,1.5-0.9c0.5-0.2,1.1-0.3,1.7-0.3h0.1l0,0c1.5-0.1,2.6,0.7,2.6,0.7
			c1.4,0.8,2.5,2.5,2.5,4.8c0,0.4,0,0.8-0.1,1.1h-2.8c0.4-0.6,0.7-1.2,0.7-1.9c0-0.9-0.3-1.6-0.9-2.2s-1.4-0.9-2.2-0.9
			c-0.8,0-1.6,0.3-2.2,0.9s-0.9,1.3-0.9,2.2c0,0.8,0.3,1.4,0.8,2h-7.1c-0.6,0-0.8-0.2-1.3-0.6c-0.4-0.4-0.7-0.9-0.7-1.4
			c0,0,0,0.1,0,0v-5.2h-1.5c0,0,0,5.1,0,5.2c0,0.5-0.3,1-0.7,1.4c-0.5,0.5-1,0.6-1.7,0.6h-4l0,0c-0.6,0-1-0.2-1.4-0.6
			s-0.6-0.7-0.6-1.3V407c0,0,0-0.5,0-0.7v-0.4c0-1.3-0.5-2.4-1.4-3.3s-2-1.4-3.3-1.4s-2.4,0.5-3.3,1.4s-1.4,2-1.4,3.3
			c0,1.2,0.4,2.3,1.3,3.2c0.9,0.9,1.9,1.4,3.2,1.4c1.3,0,2.4-0.5,3.3-1.5c0,0,0.3-0.4,0.4-0.5l0.2,0.3c0.1,0.2,0.3,0.4,0.5,0.6
			c0.7,0.7,1.6,1.1,2.5,1.1l0,0h4.1l0,0c0.9-0.1,1.7-0.4,2.4-1.1c0.2-0.2,0.3-0.3,0.4-0.5c0.1,0.2,0.3,0.3,0.4,0.5
			c0.7,0.7,1.3,1.1,2.1,1.1h16.3c0.2-0.8,0.3-1.7,0.3-2.4c0-1.7-0.4-3.1-1.2-4.3C1079.9,402.7,1078.8,401.7,1077.6,401.3z M1051,408
			c-0.6,0.6-1.4,0.9-2.2,0.9c-0.9,0-1.6-0.3-2.2-0.9s-0.9-1.4-0.9-2.2c0-0.9,0.3-1.6,0.9-2.2s1.4-0.9,2.2-0.9c0.9,0,1.6,0.3,2.2,0.9
			s0.9,1.3,0.9,2.2S1051.6,407.4,1051,408z M1075.9,408.1c-0.3,0.3-0.7,0.5-1.2,0.5s-0.8-0.2-1.2-0.5c-0.3-0.3-0.5-0.7-0.5-1.2
			c0-0.4,0.2-0.8,0.5-1.2c0.3-0.3,0.7-0.5,1.2-0.5s0.8,0.2,1.2,0.5c0.3,0.3,0.5,0.7,0.5,1.2S1076.3,407.8,1075.9,408.1z
			 M1085.7,410.4h1.5v-12.8h-1.5V410.4z M1105.1,397.6v12.8h1.5v-12.8H1105.1z"/>
		<g id="XMLID_74_">
			<g id="XMLID_91_">
				<path id="XMLID_197_" style="fill:#0075C9;" d="M1044.5,438.9c0-0.4-0.1-0.7-0.4-1s-0.6-0.4-1-0.4s-0.7,0.1-1,0.4
					s-0.4,0.6-0.4,1v3.1h-0.9v-7h0.9v2.4c0.4-0.5,1-0.7,1.6-0.7s1.1,0.2,1.5,0.7c0.4,0.4,0.6,1,0.6,1.6v3.1h-0.9L1044.5,438.9
					L1044.5,438.9z"/>
				<path id="XMLID_194_" style="fill:#0075C9;" d="M1051.3,441.2c-0.5,0.6-1.2,0.9-1.9,0.9c-0.7,0-1.4-0.3-1.9-0.8
					s-0.8-1.2-0.8-1.9c0-0.7,0.3-1.4,0.8-1.9s1.2-0.8,1.9-0.8c0.8,0,1.4,0.3,1.9,0.8s0.8,1.2,0.8,1.9v2.6h-0.9L1051.3,441.2
					L1051.3,441.2z M1051.3,439.4c0-0.5-0.2-0.9-0.5-1.3c-0.4-0.4-0.8-0.5-1.3-0.5s-0.9,0.2-1.3,0.5c-0.4,0.4-0.5,0.8-0.5,1.3
					s0.2,0.9,0.5,1.3c0.4,0.4,0.8,0.5,1.3,0.5s0.9-0.2,1.3-0.5C1051.1,440.3,1051.3,439.9,1051.3,439.4"/>
				<path id="XMLID_193_" style="fill:#0075C9;" d="M1055.8,437.5c-0.4,0-0.7,0.1-1,0.4s-0.4,0.6-0.4,1v3.1h-0.9v-3.1
					c0-0.6,0.2-1.1,0.7-1.6s1-0.7,1.6-0.7L1055.8,437.5L1055.8,437.5z"/>
				<path id="XMLID_97_" style="fill:#0075C9;" d="M1058.3,441.5c0,0.6-0.2,1.1-0.7,1.6s-1,0.7-1.6,0.7v-0.9c0.4,0,0.7-0.1,1-0.4
					s0.4-0.6,0.4-1v-4.7h0.9L1058.3,441.5L1058.3,441.5z M1057.4,435h0.9v0.9h-0.9V435z"/>
				<path id="XMLID_94_" style="fill:#0075C9;" d="M1064.2,441.2c-0.5,0.6-1.2,0.9-1.9,0.9c-0.7,0-1.4-0.3-1.9-0.8s-0.8-1.2-0.8-1.9
					c0-0.7,0.3-1.4,0.8-1.9s1.2-0.8,1.9-0.8c0.8,0,1.4,0.3,1.9,0.8s0.8,1.2,0.8,1.9v2.6h-0.9L1064.2,441.2L1064.2,441.2z
					 M1064.2,439.4c0-0.5-0.2-0.9-0.5-1.3c-0.4-0.4-0.8-0.5-1.3-0.5s-0.9,0.2-1.3,0.5c-0.4,0.4-0.5,0.8-0.5,1.3s0.2,0.9,0.5,1.3
					c0.4,0.4,0.8,0.5,1.3,0.5s0.9-0.2,1.3-0.5C1064,440.3,1064.2,439.9,1064.2,439.4"/>
				<path id="XMLID_93_" style="fill:#0075C9;" d="M1070.3,438.9c0-0.4-0.1-0.7-0.4-1s-0.6-0.4-1-0.4s-0.7,0.1-1,0.4s-0.4,0.6-0.4,1
					v3.1h-0.9v-7h0.9v2.4c0.4-0.5,1-0.7,1.6-0.7s1.1,0.2,1.5,0.7c0.4,0.4,0.6,1,0.6,1.6v3.1h-0.9L1070.3,438.9L1070.3,438.9z"/>
				<path id="XMLID_92_" style="fill:#0075C9;" d="M1037.5,442c-0.6,0-1.4-0.3-1.9-0.7l0.6-0.7c0.5,0.4,0.9,0.5,1.4,0.5
					s0.9-0.3,0.9-0.7c0-0.4-0.6-0.6-1.1-0.8h-0.1c-0.7-0.3-1.4-0.6-1.4-1.5s0.7-1.5,1.9-1.5c0.6,0,1.1,0.2,1.7,0.6l-0.6,0.6
					c-0.4-0.2-0.7-0.4-1-0.4c-0.5,0-0.9,0.3-0.9,0.6c0,0.4,0.6,0.6,1.1,0.8h0.1c0.8,0.3,1.5,0.6,1.5,1.5
					C1039.4,441.4,1038.6,442,1037.5,442"/>
			</g>
			<g id="XMLID_75_">
				<path id="XMLID_90_" style="fill:#0075C9;" d="M1081.6,436.3c0.3,0,0.5-0.2,0.5-0.5s-0.2-0.5-0.5-0.5s-0.5,0.2-0.5,0.5
					C1081.1,436.1,1081.4,436.3,1081.6,436.3z"/>
				<path id="XMLID_89_" style="fill:#0075C9;" d="M1083,436.3c0.3,0,0.5-0.2,0.5-0.5s-0.2-0.5-0.5-0.5s-0.5,0.2-0.5,0.5
					C1082.4,436.1,1082.7,436.3,1083,436.3z"/>
				<path id="XMLID_85_" style="fill:#0075C9;" d="M1088.4,438.9c0,0.7,0.5,1.4,1.5,1.4c0.5,0,1-0.2,1.4-0.6v0.1
					c0,0.6-0.2,1.4-1,1.4h-5.5c-0.6,0-0.9-0.5-0.9-1.4v-2.6l0,0c-0.3,0-0.8-0.1-1.3-0.1c-1.8,0-2.9,0.8-2.9,2.2
					c0,1.6,1.4,2.1,2.5,2.1c0.3,0,0.7,0,1.1-0.1c0.4,0.6,1.1,0.7,1.3,0.7h6c0.8,0,1.6-0.6,1.6-2.1V437h-1
					C1089.4,437,1088.4,437.7,1088.4,438.9z M1090.1,439.5c-0.4,0-0.7-0.2-0.7-0.8c0-0.7,0.6-1,1.9-1v0.8c0,0.1,0,0.2,0,0.3
					C1091.1,439.1,1090.7,439.5,1090.1,439.5z M1082.3,437.8c0.2,0,0.4,0,0.6,0v2.7c-0.2,0-0.4,0-0.6,0c-0.8,0-1.6-0.4-1.6-1.4
					C1080.7,438.4,1081.3,437.8,1082.3,437.8z"/>
				<path id="XMLID_84_" style="fill:#0075C9;" d="M1091.5,436.1L1091.5,436.1c0.3,0,0.5-0.2,0.5-0.6c0-0.3-0.2-0.5-0.5-0.5
					s-0.5,0.2-0.5,0.5C1090.9,435.9,1091.2,436.1,1091.5,436.1z"/>
				<path id="XMLID_83_" style="fill:#0075C9;" d="M1090.1,436.1L1090.1,436.1c0.3,0,0.5-0.2,0.5-0.6c0-0.3-0.2-0.5-0.5-0.5
					s-0.5,0.2-0.5,0.5C1089.6,435.9,1089.8,436.1,1090.1,436.1z"/>
				<path id="XMLID_82_" style="fill:#0075C9;" d="M1094.3,438.3v2.9c0.1,1.7-0.5,1.9-1.2,2h-0.1l0.1,0.8l0,0c1.4,0,2.1-0.8,2.1-2.5
					V438L1094.3,438.3L1094.3,438.3z"/>
				<path id="XMLID_81_" style="fill:#0075C9;" d="M1105.2,435.6c0,0.3,0.2,0.6,0.5,0.6l0,0c0.3,0,0.5-0.2,0.5-0.6
					c0-0.3-0.2-0.5-0.5-0.5C1105.4,435,1105.2,435.3,1105.2,435.6z"/>
				<path id="XMLID_80_" style="fill:#0075C9;" d="M1104.4,436.1L1104.4,436.1c0.3,0,0.5-0.2,0.5-0.6c0-0.3-0.2-0.5-0.5-0.5
					s-0.5,0.2-0.5,0.5C1103.9,435.9,1104.1,436.1,1104.4,436.1z"/>
				<path id="XMLID_79_" style="fill:#0075C9;" d="M1105,435L1105,435c0.3,0,0.5-0.2,0.5-0.6c0-0.3-0.2-0.5-0.5-0.5
					s-0.5,0.2-0.5,0.5C1104.5,434.7,1104.7,435,1105,435z"/>
				<path id="XMLID_78_" style="fill:#0075C9;" d="M1111.8,439.8c0,0.6-0.2,1.4-1,1.4h-1.2c-0.3,0-0.5-0.1-0.7-0.3
					c-0.2-0.2-0.3-0.5-0.3-0.8v-3l-1,0.3v2.4c0,0.6-0.2,1.4-1,1.4c-0.6,0-1-0.6-1-1.2v-2.5l-1,0.3v2.1c0,0.8-0.3,1.2-0.9,1.2
					s-1-0.6-1-1.2v-2.1l-1,0.3v1.7c0,0.8-0.3,1.2-0.9,1.2h-2.2c-0.6,0-0.9-0.4-0.9-1.4V435l-1,0.3v4.5c0,1.6,0.9,2.1,1.7,2.1h2.7
					l0,0c0.6,0,1.1-0.3,1.3-0.9c0.4,0.6,0.9,0.9,1.6,0.9c0.6,0,1.1-0.3,1.3-0.9c0.4,0.6,0.9,0.9,1.6,0.9c0.2,0,1-0.1,1.4-0.9
					c0.3,0.6,0.9,0.9,1.5,0.9h1.3l0,0l0,0l0,0c0.8,0,1.6-0.6,1.6-2.1V435l-1,0.3L1111.8,439.8L1111.8,439.8z"/>
				<polygon id="XMLID_77_" style="fill:#0075C9;" points="1114.3,435.3 1114.3,442 1115.3,442 1115.3,435 				"/>
			</g>
		</g>
		<g id="XMLID_16_">
			<g id="XMLID_70_">
				<g>

					<linearGradient id="SVGID_1700_" gradientUnits="userSpaceOnUse" x1="1072.8253" y1="707.501" x2="1052.4786" y2="684.3965" gradientTransform="matrix(1 0 0 -1 0 1080)">
						<stop  offset="0" style="stop-color:#E34126"/>
						<stop  offset="1" style="stop-color:#FFC333"/>
					</linearGradient>
					<path id="SVGID_16_" style="fill:url(#SVGID_1700_);" d="M1054.1,379.8v11.7h6.8V379c-0.5,0.1-1,0.1-1.5,0.1
						c-1.2,0-2.4-0.2-3.6-0.7C1055.2,378.8,1054.6,379.3,1054.1,379.8 M1068.2,372.7c-0.9,0.9-1.9,2-2.7,3.5
						c-0.3,0.4-0.7,0.8-1.1,1.2v14.2h3.9c0-0.7-0.1-1.4-0.1-2c-0.1-0.8-0.7-1.4-0.6-2.1c0.5-3.1,2.3-2.2,2.8-5.3
						c0.2-1,0.4-2,0.8-2.8v-7.2C1070.4,372.2,1069.3,372.4,1068.2,372.7"/>
				</g>
			</g>
			<g id="XMLID_66_">
				<g>

						<linearGradient id="SVGID_1800_" gradientUnits="userSpaceOnUse" x1="1072.3929" y1="708.5861" x2="1103.4796" y2="707.7266" gradientTransform="matrix(1 0 0 -1 0 1080)">
						<stop  offset="0" style="stop-color:#007496"/>
						<stop  offset="0.417" style="stop-color:#007496"/>
						<stop  offset="1" style="stop-color:#5BCAF4"/>
					</linearGradient>
					<path id="SVGID_15_" style="fill:url(#SVGID_1800_);" d="M1084.4,366c-0.6,0.5-1.3,0.4-2,0.3c-1.2-0.1-2.6-0.2-4.1,1.7
						c0.8,0.8,1.3,1.9,1.3,3.1v2.3c0.3,0,0.7,0,1,0c0.9,0,1.9-0.1,2.6,0c0.9,0.2,2,0.3,3.2,0.8v-2.7c0-2.3-0.4-4.2-1.1-5.7
						C1084.9,365.8,1084.7,365.9,1084.4,366 M1088.3,364.6c1,1.9,1.6,4.2,1.6,6.9v5.1c0.5,0.5,1,1,1.6,1.6c1.9,1.2,3.7,2.7,5.2,4.4
						c0-5.4,0-11.2,0-11.3c0-3.6-0.9-7-2.6-9.8C1092.5,362.7,1090.4,363.7,1088.3,364.6"/>
				</g>
			</g>
			<g id="XMLID_62_">
				<g>

						<linearGradient id="SVGID_1900_" gradientUnits="userSpaceOnUse" x1="1074.1721" y1="711.7058" x2="1032.0547" y2="706.5485" gradientTransform="matrix(1 0 0 -1 0 1080)">
						<stop  offset="0" style="stop-color:#D83C73"/>
						<stop  offset="0.1992" style="stop-color:#CE3869"/>
						<stop  offset="0.5406" style="stop-color:#B32E4D"/>
						<stop  offset="0.9803" style="stop-color:#871D21"/>
						<stop  offset="1" style="stop-color:#851C1F"/>
					</linearGradient>
					<path id="SVGID_14_" style="fill:url(#SVGID_1900_);" d="M1064.4,370.9v3.2c1.5-0.6,2.9-1,4.1-1.3c1-0.2,1.9-0.4,2.7-0.5v-1.1
						c0-1.3,0.6-2.5,1.5-3.3l2.3,2.7c-0.5-0.9-1.3-2.1-2.2-3.1c-1.7-0.4-4.8-1.2-7.6-2.2C1064.7,367.1,1064.4,369,1064.4,370.9
						 M1054.1,370.9v9.5c0.4-0.3,0.7-0.4,0.8-0.4c1.4-1.1,4-3.4,6-4.4v-4.7c0-2.5,0.5-4.8,1.4-6.9c-1.1-0.5-2.1-1.1-2.8-1.7
						c-0.3-0.2-0.5-0.4-0.7-0.6c-0.1,0-0.8-0.6-1.4-1C1055.2,363.5,1054.1,367.1,1054.1,370.9"/>
				</g>
			</g>
			<g id="XMLID_59_">
				<g>

						<linearGradient id="SVGID_2000_" gradientUnits="userSpaceOnUse" x1="1054.1" y1="703.75" x2="1071.2" y2="703.75" gradientTransform="matrix(1 0 0 -1 0 1080)">
						<stop  offset="0" style="stop-color:#EF5136"/>
						<stop  offset="0.4045" style="stop-color:#CB3740"/>
						<stop  offset="0.7805" style="stop-color:#AF2447"/>
						<stop  offset="1" style="stop-color:#A51D4A"/>
					</linearGradient>
					<path id="SVGID_13_" style="fill:url(#SVGID_2000_);" d="M1054.1,380v0.5c1.5,0,4.2-1.4,5.3-1.4c0.5,0,1,0,1.5-0.1v-3.7
						C1059,376.2,1055.8,378.6,1054.1,380 M1064.4,374v3.4c0.4-0.4,0.8-0.8,1.1-1.2c1.7-2.6,4.3-3.3,5.7-3.9V372
						C1069.6,372.4,1066.9,373.2,1064.4,374"/>
				</g>
			</g>
			<g id="XMLID_53_">
				<g>

						<linearGradient id="SVGID_2100_" gradientUnits="userSpaceOnUse" x1="1078.9504" y1="708.618" x2="1100.3412" y2="685.6895" gradientTransform="matrix(1 0 0 -1 0 1080)">
						<stop  offset="0" style="stop-color:#698735"/>
						<stop  offset="1" style="stop-color:#D1D747"/>
					</linearGradient>
					<path id="SVGID_12_" style="fill:url(#SVGID_2100_);" d="M1089.9,387.4c0.1,0.3,0.2,0.7,0.1,1.1c1.6,1,3.2,2,4.6,3.1h2.1
						c0,0,0-2.6,0-6c-0.7-1-1.5-2.1-2.3-3.5c-1-1.6-2-2.9-2.9-3.9c-0.8-0.9-1.2-1.5-1.6-1.9L1089.9,387.4L1089.9,387.4z
						 M1079.6,373.3v5.6c0.2,0.1,0.3,0.2,0.5,0.2c2.1,1.2,3.8,2.7,5.3,4.2c0.3,0.3,0.6,0.6,1,0.9v-9.9c-2-0.8-4.3-1-5.7-1
						C1080.2,373.2,1079.8,373.2,1079.6,373.3"/>
				</g>
			</g>
			<g id="XMLID_52_">
				<g>

						<linearGradient id="SVGID_2200_" gradientUnits="userSpaceOnUse" x1="1091.8163" y1="698.1" x2="1101.3767" y2="698.1" gradientTransform="matrix(1 0 0 -1 0 1080)">
						<stop  offset="0" style="stop-color:#698735"/>
						<stop  offset="1" style="stop-color:#095B83"/>
					</linearGradient>
					<path id="SVGID_11_" style="fill:url(#SVGID_2200_);" d="M1094.4,382.1c0.9,1.3,1.6,2.5,2.3,3.5c0-1,0-2,0-3
						c-1.5-1.7-3.3-3.1-5.2-4.4C1092.4,379.2,1093.4,380.5,1094.4,382.1"/>
				</g>
			</g>
			<g id="XMLID_46_">
				<g>

						<linearGradient id="SVGID_2300_" gradientUnits="userSpaceOnUse" x1="1080.7612" y1="707.3343" x2="1082.7668" y2="675.388" gradientTransform="matrix(1 0 0 -1 0 1080)">
						<stop  offset="0" style="stop-color:#698735"/>
						<stop  offset="1" style="stop-color:#D1D747"/>
					</linearGradient>
					<path id="SVGID_10_" style="fill:url(#SVGID_2300_);" d="M1089.9,391.6h5.7c-1.8-1.1-3.8-2.1-5.6-3v-0.1c0,0-0.1,0-0.1-0.1V391.6
						z M1068.2,389.6c0.1,0.2,0.1,0.9,0.1,2h2.9v-7.3C1070.4,386.2,1069.4,388.1,1068.2,389.6 M1079.6,391.6h6.8v-6.7
						c-2.6-1.9-5.4-4.1-6.8-5.7V391.6z"/>
				</g>
			</g>

				<linearGradient id="SVGID_2400_" gradientUnits="userSpaceOnUse" x1="1067.5474" y1="694.6" x2="1073.9823" y2="694.6" gradientTransform="matrix(1 0 0 -1 0 1080)">
				<stop  offset="0" style="stop-color:#AD5F28"/>
				<stop  offset="1" style="stop-color:#215A4A"/>
			</linearGradient>
			<path id="SVGID_9_" style="fill:url(#SVGID_2400_);" d="M1070.4,382.1c-0.5,3.1-2.3,2.2-2.8,5.3c-0.1,0.4,0.2,2.5,0.4,4.1h0.7
				c0.7-2.3,1.6-4.7,2.5-7.1v-5.1C1070.8,380.2,1070.6,381.1,1070.4,382.1"/>
			<g id="XMLID_42_">
				<g>

						<linearGradient id="SVGID_2500_" gradientUnits="userSpaceOnUse" x1="1079.6" y1="694.75" x2="1096.3" y2="694.75" gradientTransform="matrix(1 0 0 -1 0 1080)">
						<stop  offset="0" style="stop-color:#698735"/>
						<stop  offset="1" style="stop-color:#215A4A"/>
					</linearGradient>
					<path id="SVGID_8_" style="fill:url(#SVGID_2500_);" d="M1089.9,388.8c1.6,1,3.5,2.1,4.9,2.8h1.5c-1-1.3-3.8-3.2-6.4-5V388.8z
						 M1079.6,379.1c1.6,1.9,4.5,4,6.8,6.7v-1.7c-0.4-0.3-0.7-0.6-1-0.8c-1.6-1.5-3.2-3-5.3-4.2c-0.2-0.1-0.3-0.2-0.5-0.2V379.1z"/>
				</g>
			</g>
			<g id="XMLID_40_">
				<g>

						<linearGradient id="SVGID_2600_" gradientUnits="userSpaceOnUse" x1="1074.2186" y1="706.0519" x2="1073.9915" y2="730.5054" gradientTransform="matrix(1 0 0 -1 0 1080)">
						<stop  offset="0" style="stop-color:#B12850"/>
						<stop  offset="1" style="stop-color:#007497"/>
					</linearGradient>
					<path id="SVGID_7_" style="fill:url(#SVGID_2600_);" d="M1078.2,358.1c0.3-1.7,0.9-3.6,1.8-5.2c-0.3,0-0.7,0-1,0
						c-1.5,0-2.5,0.3-3.8,0.7c-0.9,0.3-1.7,0.7-3,1.4c-1.6,1-3,2.3-4.1,3.7c2.7,3,5.6,9.1,6.9,12.1l0.3,0.3l1.3-1.6
						c0.3-2,0.4-4.6,1.2-5.6c-0.1-0.4-0.2-0.7-0.2-0.9c0-0.3,0-1.3,0.1-2.7c-2.6-0.5-5.1-0.1-6.5,0.4
						C1073,358.9,1075.5,358,1078.2,358.1z"/>
				</g>
			</g>

				<linearGradient id="SVGID_2700_" gradientUnits="userSpaceOnUse" x1="1077.1262" y1="711.3043" x2="1066.3608" y2="732.2756" gradientTransform="matrix(1 0 0 -1 0 1080)">
				<stop  offset="0" style="stop-color:#B12850"/>
				<stop  offset="1" style="stop-color:#007497"/>
			</linearGradient>
			<path id="SVGID_6_" style="fill:url(#SVGID_2700_);" d="M1075.2,352.9c0.1,0,0.2-0.1,0.4-0.1c0.3-0.1,0.6-0.2,0.3-0.2h-0.6l0,0
				c-0.1,0-0.1,0-0.1,0h-1.3c-0.8,0-1.6,0-2.4,0.1l0,0c-3.1,0.3-6,1.2-8.4,2.6c0.2,0.2,0.4,0.3,0.6,0.5c0.9,0.4,1.9,0.9,2.8,1.4
				c0.1,0,0.1,0.1,0.2,0.1C1069.3,355.2,1072.2,353.6,1075.2,352.9L1075.2,352.9z M1075.2,352.9L1075.2,352.9L1075.2,352.9
				L1075.2,352.9z"/>

				<linearGradient id="SVGID_2800_" gradientUnits="userSpaceOnUse" x1="1073.9535" y1="705.4453" x2="1094.4392" y2="731.9478" gradientTransform="matrix(1 0 0 -1 0 1080)">
				<stop  offset="0" style="stop-color:#007496"/>
				<stop  offset="1" style="stop-color:#5BCAF4"/>
			</linearGradient>
			<path id="SVGID_5_" style="fill:url(#SVGID_2800_);" d="M1078.2,363.6c-0.1,0.1-1.2,0.7-1.8,6.4l1.7-2.1c0.2,0.2,0.4,0.4,0.5,0.6
				c0.6-1.1,1.2-1.9,1.6-1.8c0.1,0,0.3,0.1,0.6,0.1c0.8,0,1.1,0.3,2.6-0.1c0.2-0.2,1-0.7,1.6-1.2c-1.3-2.5-3.5-3.9-5.7-4.7
				C1078.8,362.1,1078.3,363.5,1078.2,363.6 M1081.4,354.8c-0.3,1-0.6,2-1,2.9c0,0-0.1,0.3-0.2,0.7c2.8,0.6,5.6,2.3,7.4,5
				c1.9-1.3,3.9-2.1,6-2.7c-2.4-3.6-6.3-6.3-11.2-7.4c-0.2,0-0.5-0.1-0.8-0.2C1081.6,353.7,1081.5,354.3,1081.4,354.8"/>

				<linearGradient id="SVGID_2900_" gradientUnits="userSpaceOnUse" x1="1083.434" y1="716.3" x2="1094.0967" y2="716.3" gradientTransform="matrix(1 0 0 -1 0 1080)">
				<stop  offset="0" style="stop-color:#00678C"/>
				<stop  offset="1" style="stop-color:#1461AD"/>
			</linearGradient>
			<path id="SVGID_4_" style="fill:url(#SVGID_2900_);" d="M1083.4,366.6c0.6-0.2,1.2-0.4,1.9-0.6c-0.1-0.2-0.2-0.4-0.3-0.6
				C1084.4,365.8,1083.7,366.4,1083.4,366.6 M1087.6,363.4c0.3,0.4,0.5,0.8,0.8,1.3c2.1-1,4.2-2.1,5.7-3.2c-0.2-0.3-0.3-0.5-0.5-0.7
				C1091.5,361.3,1089.5,362.2,1087.6,363.4"/>

				<linearGradient id="XMLID_200_" gradientUnits="userSpaceOnUse" x1="1076.8171" y1="716.2" x2="1079.3308" y2="716.2" gradientTransform="matrix(1 0 0 -1 0 1080)">
				<stop  offset="0" style="stop-color:#00678C"/>
				<stop  offset="1" style="stop-color:#19469C"/>
			</linearGradient>
			<path id="XMLID_31_" style="fill:url(#XMLID_200_);" d="M1077.8,363.1c0,0.2-1,3.8-0.9,4.2c0.1-0.1,1.3-3.5,1.4-3.7
				c0.1-0.1,0.6-1.5,1.1-2.9c-0.5-0.2-1-0.3-1.5-0.4C1077.7,361.7,1077.7,362.8,1077.8,363.1"/>

				<linearGradient id="XMLID_300_" gradientUnits="userSpaceOnUse" x1="1078.2" y1="724.45" x2="1081.6104" y2="724.45" gradientTransform="matrix(1 0 0 -1 0 1080)">
				<stop  offset="0" style="stop-color:#00678C"/>
				<stop  offset="1" style="stop-color:#19469C"/>
			</linearGradient>
			<path id="XMLID_30_" style="fill:url(#XMLID_300_);" d="M1078.2,358.1c0.7,0,1.3,0.1,2,0.2c0.1-0.4,0.2-0.7,0.2-0.7
				c0.3-0.9,0.7-1.9,1-2.9c0.2-0.6,0.2-1.2,0.2-1.7c-0.2,0-0.4-0.1-0.5-0.1c-0.3,0-0.7-0.1-1-0.1
				C1079.1,354.5,1078.5,356.4,1078.2,358.1"/>

				<linearGradient id="SVGID_3000_" gradientUnits="userSpaceOnUse" x1="1077.9243" y1="704.937" x2="1055.7419" y2="726.7407" gradientTransform="matrix(1 0 0 -1 0 1080)">
				<stop  offset="0" style="stop-color:#B12850"/>
				<stop  offset="1" style="stop-color:#604B9E"/>
			</linearGradient>
			<path id="SVGID_3_" style="fill:url(#SVGID_3000_);" d="M1065.2,365c1.7,0.5,2.9,1,4,1.7c0.7,0.5,3.1,1.6,3.1,1.6s0.2-0.3,0.5-0.5
				l2.7,3.3c-0.5-1-1.3-2.7-2.4-4.9c-0.3-0.6-1.1-1.7-1.3-1.9c-0.6-0.4-1.8-2.7-3.8-5C1066.6,361,1065.7,363,1065.2,365
				 M1057.2,360.7c0.3,0.3,0.7,0.6,1.1,0.9c1.6,0.1,2.8,1.4,4,2.3c1-2.3,2.4-4.3,4.1-6c-0.7-0.6-1.5-1.2-2.4-1.8
				c0,0-0.4-0.3-0.9-0.7C1060.7,356.7,1058.7,358.5,1057.2,360.7"/>

				<linearGradient id="SVGID_3100_" gradientUnits="userSpaceOnUse" x1="1057.2" y1="715.55" x2="1072.2268" y2="715.55" gradientTransform="matrix(1 0 0 -1 0 1080)">
				<stop  offset="0" style="stop-color:#521A57"/>
				<stop  offset="0.4741" style="stop-color:#5C2250"/>
				<stop  offset="1" style="stop-color:#6D3044"/>
			</linearGradient>
			<path id="SVGID_2_" style="fill:url(#SVGID_3100_);" d="M1065.1,365.4c2.4,1,5,1.9,7.1,3l0,0c-1.1-0.5-4.2-2.4-6.9-4
				C1065.3,364.7,1065.2,365.1,1065.1,365.4 M1057.2,360.7c0.9,0.7,1.8,1.4,1.9,1.5c0.9,0.7,1.9,1.3,3.1,1.9
				c0.2-0.4,0.3-0.8,0.5-1.1c-0.2-0.1-0.4-0.2-0.5-0.2c-1.3-0.6-3-2-4.7-2.3C1057.3,360.5,1057.3,360.6,1057.2,360.7"/>

				<linearGradient id="SVGID_3200_" gradientUnits="userSpaceOnUse" x1="1063.0198" y1="716.75" x2="1075.4197" y2="716.75" gradientTransform="matrix(1 0 0 -1 0 1080)">
				<stop  offset="0" style="stop-color:#842447"/>
				<stop  offset="1" style="stop-color:#392663"/>
			</linearGradient>
			<path id="SVGID_1_" style="fill:url(#SVGID_3200_);" d="M1067.5,359.8c1.5,1.8,2.8,3.9,3.7,6.1c0.3,0.8,0.8,1.6,1.2,2.3
				c0.1-0.1,0.2-0.2,0.3-0.3l2.7,3.3c-0.8-1.9-4.1-9-7.2-12.4C1068,359,1067.7,359.4,1067.5,359.8 M1066.1,358.2
				c0.2-0.3,0.5-0.5,0.8-0.7c-0.1,0-0.1-0.1-0.2-0.1c-0.8-0.5-2.3-1.3-3.2-1.8C1064.3,356.4,1065.2,357.2,1066.1,358.2 M1063,355.4
				L1063,355.4c0.1,0,0.2,0.1,0.3,0.1c-0.1-0.1-0.2-0.1-0.2-0.2C1063.1,355.3,1063.1,355.4,1063,355.4"/>
		</g>
	</g>
</g>
<rect id="app_x5F_Sharjah--zoom" x="1041.5" y="503.3" transform="rotate(-56deg 0 0)" style="fill:none;" width="68.4" height="38.4"/>
<rect id="app_x5F_Dubai--zoom" x="1036.2" y="526.0" transform="rotate(-9deg 0 0)" style="fill:none;" width="75.6" height="42.525"/>
</svg>
