<?xml version="1.0" encoding="utf-8"?>
<!-- Generator: Adobe Illustrator 19.1.0, SVG Export Plug-In . SVG Version: 6.00 Build 0)  -->
<svg version="1.1" id="app_x5F_world--parent" xmlns="http://www.w3.org/2000/svg" xmlns:xlink="http://www.w3.org/1999/xlink"
	 x="0px" y="0px" width="1920px" height="1080px" viewBox="0 0 1920 1080" style="enable-background:new 0 0 1920 1080;"
	 xml:space="preserve">
<rect id="app_x5F_UAE--zoom" x="1152.9" y="472.7" style="fill:none;" width="173.4" height="97.5"/>
<rect id="app_x5F_Lebanon--zoom" x="887.1" y="331.5" transform="rotate(-18.0 1305.07 631.807)" style="fill:none;" width="16.0" height="9"/>
<rect id="app_x5F_Muscat--zoom" x="1298.4" y="602.5" transform="rotate(109.0 1305.07 631.807)" style="fill:none;" width="41" height="23.0625"/>
<g id="app_x5F_Iraq--marker" transform="translate(978.000000, 334.000000)">
	<polygon id="Fill-124" style="fill:#8A1538;" points="26.9,5 26.9,28.7 34.9,28.7 38.8,33 42.8,28.7 50.7,28.7 50.7,5 	"/>
	<g id="Group" transform="translate(5.000000, 5.000000)">
		<path id="Path" style="fill:#FFFFFF;" d="M33.3,5.5c-3.8,0-6.4,2.6-6.4,6v6.7h2.2c0,0,0-3.7,0-6.7c0-3.2,2.4-5.4,4.8-5.9
			c0.1,0,0.2-0.1,0.1-0.1C34,5.5,33.3,5.5,33.3,5.5z"/>
		<path id="Path_1_" style="fill:#FFFFFF;" d="M33.7,5.8c-0.3,0.1-0.6,0.2-1,0.5c-1.7,1.1-2.4,3-2.5,4.9c0,0.1,0,0.2,0,0.3l0,0v0.1
			v6.7h2.2v-6.7c0-0.4,0.2-0.8,0.5-1l0.9,1l0.9-1c0.3,0.2,0.5,0.6,0.5,1v6.7h2.2v-6.7c0-2-1.6-3.6-3.5-3.6c-0.5,0-0.9,0.1-1.3,0.3
			l0,0c0.4-0.5,1.1-0.8,1.9-0.8l0,0c0.2,0,0.5,0,0.7,0.1c1.9,0.3,3.4,2,3.4,3.9c0,0.1,0,0.2,0,0.2v6.6h2.2v-6.6
			c0-2.9-1.7-5.2-4.6-5.9c-0.1,0-0.3-0.1-0.4-0.1c-0.2,0-0.4-0.1-0.7-0.1C34.5,5.6,34.1,5.7,33.7,5.8z"/>
	</g>
</g>
<g id="app_x5F_Kuwait--marker" transform="translate(1072.000000, 412.000000)">
	<polygon id="Fill-124_1_" style="fill:#8A1538;" points="25.9,4.1 25.9,27.8 33.8,27.8 37.7,32.1 41.7,27.8 49.6,27.8 49.6,4.1
		"/>
	<g id="Group_1_" transform="translate(5.000000, 5.000000)">
		<path id="Path_2_" style="fill:#FFFFFF;" d="M32.3,4.7c-3.8,0-6.4,2.6-6.4,6v6.7H28c0,0,0-3.7,0-6.7c0-3.2,2.4-5.4,4.8-5.9
			c0.1,0,0.2-0.1,0.1-0.1H32.3z"/>
		<path id="Path_3_" style="fill:#FFFFFF;" d="M32.7,5c-0.3,0.1-0.6,0.2-1,0.5c-1.7,1.1-2.4,3-2.5,4.9c0,0.1,0,0.2,0,0.3l0,0v0.1
			v6.7h2.2v-6.7c0-0.4,0.2-0.8,0.5-1l0.9,1l0.9-1c0.3,0.2,0.5,0.6,0.5,1v6.7h2.2v-6.7c0-2-1.6-3.6-3.5-3.6c-0.5,0-0.9,0.1-1.3,0.3
			l0,0C32,7,32.7,6.7,33.5,6.7l0,0c0.2,0,0.5,0,0.7,0.1c1.9,0.3,3.4,2,3.4,3.9c0,0.1,0,0.2,0,0.2v6.6h2.2v-6.6
			c0-2.9-1.7-5.2-4.6-5.9c-0.1,0-0.3-0.1-0.4-0.1c-0.2,0-0.4-0.1-0.7-0.1C33.4,4.7,33.1,4.8,32.7,5z"/>
	</g>
</g>
<g id="app_x5F_Georgia--marker" transform="translate(959.000000, 149.000000)">
	<polygon id="Fill-124_2_" style="fill:#8A1538;" points="27.2,7.1 27.2,30.8 35.1,30.8 39,35.1 43,30.8 50.9,30.8 50.9,7.1 	"/>
	<g id="Group_2_" transform="translate(5.000000, 5.000000)">
		<path id="Path_4_" style="fill:#FFFFFF;" d="M33.5,7.6c-3.8,0-6.4,2.6-6.4,6v6.7h2.2c0,0,0-3.7,0-6.7c0-3.2,2.4-5.4,4.8-5.9
			c0.1,0,0.2-0.1,0.1-0.1C34.2,7.6,33.5,7.6,33.5,7.6z"/>
		<path id="Path_5_" style="fill:#FFFFFF;" d="M33.9,7.9c-0.3,0.1-0.6,0.2-1,0.5c-1.7,1.1-2.4,3-2.5,4.9c0,0.1,0,0.2,0,0.3l0,0v0.1
			v6.7h2.2v-6.7c0-0.4,0.2-0.8,0.5-1l0.9,1l0.9-1c0.3,0.2,0.5,0.6,0.5,1v6.7h2.2v-6.7c0-2-1.6-3.6-3.5-3.6c-0.5,0-0.9,0.1-1.3,0.3
			l0,0c0.4-0.5,1.1-0.8,1.9-0.8l0,0c0.2,0,0.5,0,0.7,0.1c1.9,0.3,3.4,2,3.4,3.9c0,0.1,0,0.2,0,0.2v6.6H41v-6.6
			c0-2.9-1.7-5.2-4.6-5.9c-0.1,0-0.3-0.1-0.4-0.1c-0.2,0-0.4-0.1-0.7-0.1C34.7,7.7,34.3,7.8,33.9,7.9z"/>
	</g>
</g>
<g id="app_x5F_Armenia--marker" transform="translate(990.000000, 184.000000)">
	<polygon id="Fill-124_3_" style="fill:#8A1538;" points="26.8,6.7 26.8,30.4 34.7,30.4 38.7,34.7 42.6,30.4 50.5,30.4 50.5,6.7
		"/>
	<g id="Group_3_" transform="translate(5.000000, 5.000000)">
		<path id="Path_6_" style="fill:#FFFFFF;" d="M33.2,7.2c-3.8,0-6.4,2.6-6.4,6v6.7H29c0,0,0-3.7,0-6.7c0-3.2,2.4-5.4,4.8-5.9
			c0.1,0,0.2-0.1,0.1-0.1H33.2z"/>
		<path id="Path_7_" style="fill:#FFFFFF;" d="M33.6,7.5c-0.3,0.1-0.6,0.2-1,0.5c-1.7,1.1-2.4,3-2.5,4.9c0,0.1,0,0.2,0,0.3l0,0v0.1
			V20h2.2v-6.7c0-0.4,0.2-0.8,0.5-1l0.9,1l0.9-1c0.3,0.2,0.5,0.6,0.5,1V20h2.2v-6.7c0-2-1.6-3.6-3.5-3.6c-0.5,0-0.9,0.1-1.3,0.3l0,0
			c0.4-0.5,1.1-0.8,1.9-0.8l0,0c0.2,0,0.5,0,0.7,0.1c1.9,0.3,3.4,2,3.4,3.9c0,0.1,0,0.2,0,0.2V20h2.2v-6.6c0-2.9-1.7-5.2-4.6-5.9
			c-0.1,0-0.3-0.1-0.4-0.1c-0.2,0-0.4-0.1-0.7-0.1C34.3,7.3,34,7.4,33.6,7.5z"/>
	</g>
</g>
<g id="app_x5F_Jordan--marker" transform="translate(868.000000, 381.000000)">
	<polygon id="Fill-124_4_" style="fill:#8A1538;" points="28.2,4.5 28.2,28.2 36.1,28.2 40,32.5 44,28.2 51.9,28.2 51.9,4.5 	"/>
	<g id="Group_4_" transform="translate(5.000000, 5.000000)">
		<path id="Path_8_" style="fill:#FFFFFF;" d="M34.5,5c-3.8,0-6.4,2.6-6.4,6v6.7h2.2c0,0,0-3.7,0-6.7c0-3.2,2.4-5.4,4.8-5.9
			C35.2,5,35.3,5,35.2,5H34.5z"/>
		<path id="Path_9_" style="fill:#FFFFFF;" d="M35,5.3c-0.3,0.1-0.6,0.2-1,0.5c-1.7,1.1-2.4,3-2.5,4.9c0,0.1,0,0.2,0,0.3l0,0v0.1
			v6.7h2.2V11c0-0.4,0.2-0.8,0.5-1l0.9,1l0.9-1c0.3,0.2,0.5,0.6,0.5,1v6.7h2.2V11c0-2-1.6-3.6-3.5-3.6c-0.5,0-0.9,0.1-1.3,0.3l0,0
			c0.4-0.5,1.1-0.8,1.9-0.8l0,0c0.2,0,0.5,0,0.7,0.1c1.9,0.3,3.4,2,3.4,3.9c0,0.1,0,0.2,0,0.2v6.6h2.2v-6.6c0-2.9-1.7-5.2-4.6-5.9
			c-0.1,0-0.3-0.1-0.4-0.1c-0.2,0-0.4-0.1-0.7-0.1C35.7,5.1,35.4,5.2,35,5.3z"/>
	</g>
</g>
<g id="app_x5F_Bahrain--marker" transform="translate(1131.000000, 475.000000)">
	<polygon id="Fill-124_5_" style="fill:#8A1538;" points="25.2,3.4 25.2,27.1 33.1,27.1 37.1,31.4 41.1,27.1 49,27.1 49,3.4 	"/>
	<g id="Group_5_" transform="translate(5.000000, 5.000000)">
		<path id="Path_10_" style="fill:#FFFFFF;" d="M31.6,3.9c-3.8,0-6.4,2.6-6.4,6v6.7h2.2c0,0,0-3.7,0-6.7c0-3.2,2.4-5.4,4.8-5.9
			c0.1,0,0.2-0.1,0.1-0.1C32.3,3.9,31.6,3.9,31.6,3.9z"/>
		<path id="Path_11_" style="fill:#FFFFFF;" d="M32,4.2c-0.3,0.1-0.6,0.2-1,0.5c-1.7,1.1-2.4,3-2.5,4.9c0,0.1,0,0.2,0,0.3l0,0V10
			v6.7h2.2V10c0-0.4,0.2-0.8,0.5-1l0.9,1L33,9c0.3,0.2,0.5,0.6,0.5,1v6.7h2.2V10c0-2-1.6-3.6-3.5-3.6c-0.5,0-0.9,0.1-1.3,0.3l0,0
			c0.4-0.5,1.1-0.8,1.9-0.8l0,0c0.2,0,0.5,0,0.7,0.1c1.9,0.3,3.4,2,3.4,3.9c0,0.1,0,0.2,0,0.2v6.6H39v-6.6c0-2.9-1.7-5.2-4.6-5.9
			c-0.1,0-0.3-0.1-0.4-0.1C33.7,4,33.5,4,33.2,4C32.8,4,32.4,4.1,32,4.2z"/>
	</g>
</g>
<g id="app_x5F_Qatar--marker" transform="translate(1143.000000, 506.000000)">
	<polygon id="Fill-124_6_" style="fill:#8A1538;" points="25.1,3.1 25.1,26.8 33,26.8 37,31.1 40.9,26.8 48.8,26.8 48.8,3.1 	"/>
	<g id="Group_6_" transform="translate(5.000000, 5.000000)">
		<path id="Path_12_" style="fill:#FFFFFF;" d="M31.5,3.6c-3.8,0-6.4,2.6-6.4,6v6.7h2.2c0,0,0-3.7,0-6.7c0-3.2,2.4-5.4,4.8-5.9
			c0.1,0,0.2-0.1,0.1-0.1C32.2,3.6,31.5,3.6,31.5,3.6z"/>
		<path id="Path_13_" style="fill:#FFFFFF;" d="M31.9,3.9c-0.3,0.1-0.6,0.2-1,0.5c-1.7,1.1-2.4,3-2.5,4.9c0,0.1,0,0.2,0,0.3l0,0v0.1
			v6.7h2.2V9.6c0-0.4,0.2-0.8,0.5-1l0.9,1l0.9-1c0.3,0.2,0.5,0.6,0.5,1v6.7h2.2V9.6c0-2-1.6-3.6-3.5-3.6c-0.5,0-0.9,0.1-1.3,0.3l0,0
			c0.4-0.5,1.1-0.8,1.9-0.8l0,0c0.2,0,0.5,0,0.7,0.1c1.9,0.3,3.4,2,3.4,3.9c0,0.1,0,0.2,0,0.2v6.6H39V9.7c0-2.9-1.7-5.2-4.6-5.9
			c-0.1,0-0.3-0.1-0.4-0.1c-0.2,0-0.4-0.1-0.7-0.1C32.6,3.7,32.3,3.8,31.9,3.9z"/>
	</g>
</g>
<g id="app_x5F_Saudi--marker" transform="translate(1042.000000, 556.000000)">
	<polygon id="Fill-124_7_" style="fill:#8A1538;" points="26.2,2.5 26.2,26.2 34.1,26.2 38.1,30.5 42.1,26.2 50,26.2 50,2.5 	"/>
	<g id="Group_7_" transform="translate(5.000000, 5.000000)">
		<path id="Path_14_" style="fill:#FFFFFF;" d="M32.6,3c-3.8,0-6.4,2.6-6.4,6v6.7h2.2c0,0,0-3.7,0-6.7c0-3.2,2.4-5.4,4.8-5.9
			c0.1,0,0.2-0.1,0.1-0.1H32.6z"/>
		<path id="Path_15_" style="fill:#FFFFFF;" d="M33,3.3c-0.3,0.1-0.6,0.2-1,0.5c-1.7,1.1-2.4,3-2.5,4.9c0,0.1,0,0.2,0,0.3l0,0v0.1
			v6.7h2.2V9.1c0-0.4,0.2-0.8,0.5-1l0.9,1l0.9-1c0.3,0.2,0.5,0.6,0.5,1v6.7h2.2V9.1c0-2-1.6-3.6-3.5-3.6c-0.5,0-0.9,0.1-1.3,0.3l0,0
			C32.3,5.3,33,5,33.8,5l0,0c0.2,0,0.5,0,0.7,0.1c1.9,0.3,3.4,2,3.4,3.9c0,0.1,0,0.2,0,0.2v6.6H40V9.2c0-2.9-1.7-5.2-4.6-5.9
			c-0.1,0-0.3-0.1-0.4-0.1c-0.2,0-0.4-0.1-0.7-0.1C33.8,3.1,33.4,3.2,33,3.3z"/>
	</g>
</g>
<g id="app_x5F_Pakistan--marker" transform="translate(1425.000000, 465.000000)">
	<polygon id="Fill-124_8_" style="fill:#8A1538;" points="21.9,3.5 21.9,27.2 29.8,27.2 33.8,31.5 37.8,27.2 45.7,27.2 45.7,3.5
		"/>
	<g id="Group_8_" transform="translate(5.000000, 5.000000)">
		<path id="Path_16_" style="fill:#FFFFFF;" d="M28.3,4.1c-3.8,0-6.4,2.6-6.4,6v6.7h2.2c0,0,0-3.7,0-6.7c0-3.2,2.4-5.4,4.8-5.9
			c0.1,0,0.2-0.1,0.1-0.1C29,4.1,28.3,4.1,28.3,4.1z"/>
		<path id="Path_17_" style="fill:#FFFFFF;" d="M28.7,4.4c-0.3,0.1-0.6,0.2-1,0.5c-1.7,1.1-2.4,3-2.5,4.9c0,0.1,0,0.2,0,0.3l0,0v0.1
			v6.7h2.2v-6.7c0-0.4,0.2-0.8,0.5-1l0.9,1l0.9-1c0.3,0.2,0.5,0.6,0.5,1v6.7h2.2v-6.7c0-2-1.6-3.6-3.5-3.6c-0.5,0-0.9,0.1-1.3,0.3
			l0,0c0.3-0.6,1-0.9,1.7-0.9l0,0c0.3,0,0.5,0,0.7,0c1.9,0.3,3.4,2,3.4,3.9c0,0.1,0,0.2,0,0.2v6.6h2.2v-6.6C35.7,7.3,34,5,31,4.3
			c-0.1,0-0.3-0.1-0.4-0.1c-0.2,0-0.4-0.1-0.7-0.1C29.5,4.1,29.1,4.2,28.7,4.4z"/>
	</g>
</g>
<g id="app_x5F_Kazakhstan--marker" transform="translate(1390.000000, 135.000000)">
	<polygon id="Fill-124_9_" style="fill:#8A1538;" points="22.3,7.2 22.3,30.9 30.2,30.9 34.2,35.2 38.1,30.9 46,30.9 46,7.2 	"/>
	<g id="Group_9_" transform="translate(5.000000, 5.000000)">
		<path id="Path_18_" style="fill:#FFFFFF;" d="M28.7,7.8c-3.8,0-6.4,2.6-6.4,6v6.7h2.2c0,0,0-3.7,0-6.7c0-3.2,2.4-5.4,4.8-5.9
			c0.1,0,0.2-0.1,0.1-0.1H28.7z"/>
		<path id="Path_19_" style="fill:#FFFFFF;" d="M29.1,8.1c-0.3,0.1-0.6,0.2-1,0.5c-1.7,1.1-2.4,3-2.5,4.9c0,0.1,0,0.2,0,0.3l0,0v0.1
			v6.7h2.2v-6.7c0-0.4,0.2-0.8,0.5-1l0.9,1l0.9-1c0.3,0.2,0.5,0.6,0.5,1v6.7h2.2v-6.7c0-2-1.6-3.6-3.5-3.6c-0.5,0-0.9,0.1-1.3,0.3
			l0,0c0.4-0.5,1.1-0.8,1.9-0.8l0,0c0.2,0,0.5,0,0.7,0.1c1.9,0.3,3.4,2,3.4,3.9c0,0.1,0,0.2,0,0.2v6.6h2.2V14c0-2.9-1.7-5.2-4.6-5.9
			c-0.1,0-0.3-0.1-0.4-0.1c-0.2,0-0.4-0.1-0.7-0.1C29.9,7.8,29.5,7.9,29.1,8.1z"/>
	</g>
</g>
<g id="app_x5F_Egypt--marker" transform="translate(757.000000, 479.000000)">
	<polygon id="Fill-124_10_" style="fill:#8A1538;" points="29.4,3.4 29.4,27.1 37.3,27.1 41.3,31.4 45.3,27.1 53.2,27.1 53.2,3.4
		"/>
	<g id="Group_10_" transform="translate(5.000000, 5.000000)">
		<path id="Path_20_" style="fill:#FFFFFF;" d="M35.8,3.9c-3.8,0-6.4,2.6-6.4,6v6.7h2.2c0,0,0-3.7,0-6.7c0-3.2,2.4-5.4,4.8-5.9
			c0.1,0,0.2-0.1,0.1-0.1C36.5,3.9,35.8,3.9,35.8,3.9z"/>
		<path id="Path_21_" style="fill:#FFFFFF;" d="M36.2,4.2c-0.3,0.1-0.6,0.2-1,0.5c-1.7,1.1-2.4,3-2.5,4.9c0,0.1,0,0.2,0,0.3l0,0V10
			v6.7h2.2V9.9c0-0.4,0.2-0.8,0.5-1l0.9,1l0.9-1c0.3,0.2,0.5,0.6,0.5,1v6.7h2.2V9.9c0-2-1.6-3.6-3.5-3.6c-0.5,0-0.9,0.1-1.3,0.3l0,0
			c0.4-0.5,1.1-0.8,1.9-0.8l0,0c0.2,0,0.5,0,0.7,0.1c1.9,0.3,3.4,2,3.4,3.9c0,0.1,0,0.2,0,0.2v6.6h2.2V10c0-2.9-1.7-5.2-4.6-5.9
			c-0.1,0-0.3-0.1-0.4-0.1c-0.4,0-0.6,0-0.9,0C37,4,36.6,4.1,36.2,4.2z"/>
	</g>
</g>
<g id="app_x5F_Kenya--marker" transform="translate(920.000000, 1003.000000)">
	<polygon id="Fill-124_11_" style="fill:#8A1538;" points="27.6,-2.5 27.6,21.2 35.5,21.2 39.5,25.5 43.4,21.2 51.3,21.2 51.3,-2.5
			"/>
	<g id="Group_11_" transform="translate(5.000000, 5.000000)">
		<path id="Path_22_" style="fill:#FFFFFF;" d="M34-2c-3.8,0-6.4,2.6-6.4,6v6.7h2.2c0,0,0-3.7,0-6.7c0-3.2,2.4-5.4,4.8-5.9
			c0.1,0,0.2-0.1,0.1-0.1H34z"/>
		<path id="Path_23_" style="fill:#FFFFFF;" d="M34.4-1.7c-0.3,0.1-0.6,0.2-1,0.5c-1.7,1.1-2.4,3-2.5,4.9c0,0.1,0,0.2,0,0.3l0,0v0.1
			v6.7h2.2V4.1c0-0.4,0.2-0.8,0.5-1l0.9,1l0.9-1c0.3,0.2,0.5,0.6,0.5,1v6.7H38V4.1c0-2-1.6-3.6-3.5-3.6c-0.5,0-0.9,0.1-1.3,0.3l0,0
			C33.6,0.3,34.3,0,35.1,0l0,0c0.2,0,0.5,0,0.7,0.1c1.9,0.3,3.4,2,3.4,3.9c0,0.1,0,0.2,0,0.2v6.6h2.2V4.2c0-2.9-1.7-5.2-4.6-5.9
			c-0.1,0-0.3-0.1-0.4-0.1c-0.2,0-0.4-0.1-0.7-0.1C35.1-1.9,34.8-1.8,34.4-1.7z"/>
	</g>
</g>
<g id="app_x5F_Lebanon--button">
	<polygon id="tap_x5F_area_2_" style="fill:#FFFFFF;fill-opacity:0;" points="821.1,305.7 825.2,353.7 697.7,354.4 697.7,310.3 	"/>
	<path id="Line-4-Copy-5" style="fill:none;stroke:#8A1538;stroke-width:2;" d="M886.3,337h-52.4"/>
	<g id="app_x5F_Lebanon--marker" transform="translate(856.000000, 319.000000)">
		<polygon id="Fill-124_12_" style="fill:#8A1538;" points="28.3,5.2 28.3,28.9 36.2,28.9 40.2,33.2 44.1,28.9 52,28.9 52,5.2 		"/>
		<g id="Group_12_" transform="translate(5.000000, 5.000000)">
			<path id="Path_24_" style="fill:#FFFFFF;" d="M34.7,5.7c-3.8,0-6.4,2.6-6.4,6v6.7h2.2c0,0,0-3.7,0-6.7c0-3.2,2.4-5.4,4.8-5.9
				c0.1,0,0.2-0.1,0.1-0.1H34.7z"/>
			<path id="Path_25_" style="fill:#FFFFFF;" d="M35.1,6c-0.3,0.1-0.6,0.2-1,0.5c-1.7,1.1-2.4,3-2.5,4.9c0,0.1,0,0.2,0,0.3l0,0v0.1
				v6.7h2.2v-6.7c0-0.4,0.2-0.8,0.5-1l0.9,1l0.9-1c0.3,0.2,0.5,0.6,0.5,1v6.7h2.2v-6.7c0-2-1.6-3.6-3.5-3.6c-0.5,0-0.9,0.1-1.3,0.3
				l0,0c0.4-0.5,1.1-0.8,1.9-0.8l0,0c0.2,0,0.5,0,0.7,0.1c1.9,0.3,3.4,2,3.4,3.9c0,0.1,0,0.2,0,0.2v6.6h2v-6.6C42,9,40.3,6.7,37.4,6
				c-0.1,0-0.3-0.1-0.4-0.1c-0.2,0-0.4-0.1-0.7-0.1C35.8,5.8,35.5,5.9,35.1,6z"/>
		</g>
	</g>
	<g>
		<g>
			<path style="fill:#575756;" d="M789.4,353.1h-1.8v-5.6h1.7c1.6,0,2.8,1.2,2.8,2.8C792.1,352,791.1,353.1,789.4,353.1
				 M789.3,346.9H787v6.8h2.4c2,0,3.3-1.4,3.3-3.4S791.3,346.9,789.3,346.9"/>
			<path style="fill:none;stroke:#575756;stroke-width:0.3199;stroke-miterlimit:10;" d="M789.4,353.1h-1.8v-5.6h1.7
				c1.6,0,2.8,1.2,2.8,2.8C792.1,352,791.1,353.1,789.4,353.1 M789.3,346.9H787v6.8h2.4c2,0,3.3-1.4,3.3-3.4
				S791.3,346.9,789.3,346.9"/>
			<path style="fill:#575756;" d="M796.9,353.2h-1.8v-2.8h1.6c1.4,0,2,0.5,2,1.4C798.8,352.7,798.2,353.2,796.9,353.2 M795.1,347.5
				h1.7c0.7,0,1.6,0.2,1.6,1.1c0,1-1,1.2-1.8,1.2h-1.5V347.5z M798.1,350c0.5-0.2,0.9-0.8,0.9-1.4c0-1.1-0.8-1.7-2.2-1.7h-2.3v6.8
				h2.4c1.5,0,2.4-0.7,2.4-2C799.4,350.9,798.9,350.2,798.1,350"/>
			<path style="fill:none;stroke:#575756;stroke-width:0.3199;stroke-miterlimit:10;" d="M796.9,353.2h-1.8v-2.8h1.6
				c1.4,0,2,0.5,2,1.4C798.8,352.7,798.2,353.2,796.9,353.2 M795.1,347.5h1.7c0.7,0,1.6,0.2,1.6,1.1c0,1-1,1.2-1.8,1.2h-1.5V347.5z
				 M798.1,350c0.5-0.2,0.9-0.8,0.9-1.4c0-1.1-0.8-1.7-2.2-1.7h-2.3v6.8h2.4c1.5,0,2.4-0.7,2.4-2C799.4,350.9,798.9,350.2,798.1,350
				"/>
			<polygon style="fill:#575756;" points="811.4,346.9 809.3,350.2 807.3,346.9 806.6,346.9 809.1,350.8 809.1,353.7 809.7,353.7
				809.6,350.8 812,346.9 			"/>
			<polygon style="fill:none;stroke:#575756;stroke-width:0.3199;stroke-miterlimit:10;" points="811.4,346.9 809.3,350.2
				807.3,346.9 806.6,346.9 809.1,350.8 809.1,353.7 809.7,353.7 809.6,350.8 812,346.9 			"/>
			<polygon style="fill:#575756;" points="813.7,346.9 813.7,353.7 818.1,353.7 818.1,353.1 814.3,353.1 814.3,350.3 817.8,350.3
				817.8,349.7 814.3,349.7 814.3,347.5 818.1,347.5 818.1,346.9 			"/>
			<polygon style="fill:none;stroke:#575756;stroke-width:0.3199;stroke-miterlimit:10;" points="813.7,346.9 813.7,353.7
				818.1,353.7 818.1,353.1 814.3,353.1 814.3,350.3 817.8,350.3 817.8,349.7 814.3,349.7 814.3,347.5 818.1,347.5 818.1,346.9
				"/>
			<polygon style="fill:#575756;" points="824.8,346.9 824.8,349.7 820.7,349.7 820.7,346.9 820.1,346.9 820.1,353.7 820.7,353.7
				820.7,350.3 824.8,350.3 824.8,353.7 825.4,353.7 825.4,346.9 			"/>
			<polygon style="fill:none;stroke:#575756;stroke-width:0.3167;stroke-miterlimit:10;" points="824.7,346.9 824.7,349.8
				820.6,349.8 820.6,346.9 820.1,346.9 820.1,353.7 820.6,353.7 820.6,350.3 824.7,350.3 824.7,353.7 825.2,353.7 825.2,346.9
				"/>
			<path style="fill:#575756;" d="M803.6,346.9l-3,6.8h0.6l0.9-2.1h3.2l0.9,2.1h0.6l-3-6.8H803.6z M803.8,347.9l1.4,3.2h-2.7
				L803.8,347.9z"/>
			<path style="fill:none;stroke:#575756;stroke-width:0.3199;stroke-miterlimit:10;" d="M803.6,346.9l-3,6.8h0.6l0.9-2.1h3.2
				l0.9,2.1h0.6l-3-6.8H803.6z M803.8,347.9l1.4,3.2h-2.7L803.8,347.9z"/>
		</g>
		<g>
			<g>
				<g>
					<defs>
						<polygon id="SVGID_1_" points="766.2,322.4 755.6,325.1 769.8,325.1 784.6,314.3 784.6,305.8 742.3,305.7 						"/>
					</defs>
					<clipPath id="SVGID_2_">
						<use xlink:href="#SVGID_1_"  style="overflow:visible;"/>
					</clipPath>
					<path style="clip-path:url(#SVGID_2_);fill:none;stroke:#72B63A;stroke-width:0.4243;stroke-linecap:round;" d="M767.7,324
						c1.1,0.6,2.7-0.1,2.6,0.5c-0.1,0.5-1.8,0.8-1.8,0.8"/>
				</g>
			</g>
			<g>
				<g>
					<defs>
						<polygon id="SVGID_3_" points="766.2,322.4 755.6,325.1 769.8,325.1 784.6,314.3 784.6,305.8 742.3,305.7 						"/>
					</defs>
					<clipPath id="SVGID_4_">
						<use xlink:href="#SVGID_3_"  style="overflow:visible;"/>
					</clipPath>
					<path style="clip-path:url(#SVGID_4_);fill:none;stroke:#67B448;stroke-width:0.4243;stroke-linecap:round;" d="M765.9,322.8
						c2.2,1.2,5.5-0.3,5.3,0.9c-0.2,1-3.5,1.5-3.5,1.5"/>
				</g>
			</g>
			<g>
				<g>
					<defs>
						<polygon id="SVGID_5_" points="766.2,322.4 755.6,325.1 769.8,325.1 784.6,314.3 784.6,305.8 742.3,305.7 						"/>
					</defs>
					<clipPath id="SVGID_6_">
						<use xlink:href="#SVGID_5_"  style="overflow:visible;"/>
					</clipPath>
					<path style="clip-path:url(#SVGID_6_);fill:none;stroke:#5FB356;stroke-width:0.4243;stroke-linecap:round;" d="M764.1,321.6
						c3.3,1.8,8.2-0.4,7.9,1.4c-0.2,1.5-5.3,2.3-5.3,2.3"/>
				</g>
			</g>
			<g>
				<g>
					<defs>
						<polygon id="SVGID_7_" points="766.2,322.4 755.6,325.1 769.8,325.1 784.6,314.3 784.6,305.8 742.3,305.7 						"/>
					</defs>
					<clipPath id="SVGID_8_">
						<use xlink:href="#SVGID_7_"  style="overflow:visible;"/>
					</clipPath>
					<path style="clip-path:url(#SVGID_8_);fill:none;stroke:#50B061;stroke-width:0.4243;stroke-linecap:round;" d="M762.4,320.3
						c4.4,2.4,11-0.6,10.6,1.8c-0.3,2-7,3-7,3"/>
				</g>
			</g>
			<g>
				<g>
					<defs>
						<polygon id="SVGID_9_" points="766.2,322.4 755.6,325.1 769.8,325.1 784.6,314.3 784.6,305.8 742.3,305.7 						"/>
					</defs>
					<clipPath id="SVGID_10_">
						<use xlink:href="#SVGID_9_"  style="overflow:visible;"/>
					</clipPath>
					<path style="clip-path:url(#SVGID_10_);fill:none;stroke:#44AF6E;stroke-width:0.4243;stroke-linecap:round;" d="M760.6,319.1
						c5.4,3.1,13.7-0.7,13.2,2.3c-0.4,2.5-8.8,3.8-8.8,3.8"/>
				</g>
			</g>
			<g>
				<g>
					<defs>
						<polygon id="SVGID_11_" points="766.2,322.4 755.6,325.1 769.8,325.1 784.6,314.3 784.6,305.8 742.3,305.7 						"/>
					</defs>
					<clipPath id="SVGID_12_">
						<use xlink:href="#SVGID_11_"  style="overflow:visible;"/>
					</clipPath>
					<path style="clip-path:url(#SVGID_12_);fill:none;stroke:#2EAD7A;stroke-width:0.4243;stroke-linecap:round;" d="M758.8,317.9
						c6.5,3.7,16.4-0.9,15.9,2.7c-0.5,3-10.5,4.5-10.5,4.5"/>
				</g>
			</g>
			<g>
				<g>
					<defs>
						<polygon id="SVGID_13_" points="766.2,322.4 755.6,325.1 769.8,325.1 784.6,314.3 784.6,305.8 742.3,305.7 						"/>
					</defs>
					<clipPath id="SVGID_14_">
						<use xlink:href="#SVGID_13_"  style="overflow:visible;"/>
					</clipPath>
					<path style="clip-path:url(#SVGID_14_);fill:none;stroke:#15AC85;stroke-width:0.4243;stroke-linecap:round;" d="M757,316.7
						c7.6,4.3,19.2-1,18.5,3.2c-0.5,3.6-12.3,5.3-12.3,5.3"/>
				</g>
			</g>
			<g>
				<g>
					<defs>
						<polygon id="SVGID_15_" points="766.2,322.4 755.6,325.1 769.8,325.1 784.6,314.3 784.6,305.8 742.3,305.7 						"/>
					</defs>
					<clipPath id="SVGID_16_">
						<use xlink:href="#SVGID_15_"  style="overflow:visible;"/>
					</clipPath>
					<path style="clip-path:url(#SVGID_16_);fill:none;stroke:#00AB90;stroke-width:0.4243;stroke-linecap:round;" d="M755.3,315.5
						c8.7,4.9,21.9-1.2,21.2,3.6c-0.6,4.1-14,6.1-14,6.1"/>
				</g>
			</g>
			<g>
				<g>
					<defs>
						<polygon id="SVGID_30_" points="766.2,322.4 755.6,325.1 769.8,325.1 784.6,314.3 784.6,305.8 742.3,305.7 						"/>
					</defs>
					<clipPath id="SVGID_31_">
						<use xlink:href="#SVGID_30_"  style="overflow:visible;"/>
					</clipPath>
					<path style="clip-path:url(#SVGID_31_);fill:none;stroke:#00A99B;stroke-width:0.4243;stroke-linecap:round;" d="M753.5,314.2
						c9.8,5.5,24.6-1.3,23.8,4.1c-0.7,4.6-15.8,6.8-15.8,6.8"/>
				</g>
			</g>
			<g>
				<g>
					<defs>
						<polygon id="SVGID_32_" points="766.2,322.4 755.6,325.1 769.8,325.1 784.6,314.3 784.6,305.8 742.3,305.7 						"/>
					</defs>
					<clipPath id="SVGID_34_">
						<use xlink:href="#SVGID_32_"  style="overflow:visible;"/>
					</clipPath>
					<path style="clip-path:url(#SVGID_34_);fill:none;stroke:#00A8A5;stroke-width:0.4243;stroke-linecap:round;" d="M751.7,313
						c10.9,6.1,27.4-1.5,26.5,4.5c-0.8,5.1-17.5,7.6-17.5,7.6"/>
				</g>
			</g>
			<g>
				<g>
					<defs>
						<polygon id="SVGID_35_" points="766.2,322.4 755.6,325.1 769.8,325.1 784.6,314.3 784.6,305.8 742.3,305.7 						"/>
					</defs>
					<clipPath id="SVGID_36_">
						<use xlink:href="#SVGID_35_"  style="overflow:visible;"/>
					</clipPath>
					<path style="clip-path:url(#SVGID_36_);fill:none;stroke:#00A6AF;stroke-width:0.4243;stroke-linecap:round;" d="M750,311.8
						c12,6.7,30.1-1.6,29.1,5c-0.9,5.6-19.3,8.3-19.3,8.3"/>
				</g>
			</g>
			<g>
				<g>
					<defs>
						<polygon id="SVGID_37_" points="766.2,322.4 755.6,325.1 769.8,325.1 784.6,314.3 784.6,305.8 742.3,305.7 						"/>
					</defs>
					<clipPath id="SVGID_38_">
						<use xlink:href="#SVGID_37_"  style="overflow:visible;"/>
					</clipPath>
					<path style="clip-path:url(#SVGID_38_);fill:none;stroke:#00A5B8;stroke-width:0.4243;stroke-linecap:round;" d="M748.2,310.6
						c13.1,7.3,32.9-1.8,31.8,5.4c-0.9,6.1-21.1,9.1-21.1,9.1"/>
				</g>
			</g>
			<g>
				<g>
					<defs>
						<polygon id="SVGID_39_" points="766.2,322.4 755.6,325.1 769.8,325.1 784.6,314.3 784.6,305.8 742.3,305.7 						"/>
					</defs>
					<clipPath id="SVGID_40_">
						<use xlink:href="#SVGID_39_"  style="overflow:visible;"/>
					</clipPath>
					<path style="clip-path:url(#SVGID_40_);fill:none;stroke:#00A4C1;stroke-width:0.4243;stroke-linecap:round;" d="M746.4,309.4
						c14.1,8,35.6-1.9,34.4,5.9c-1,6.6-22.8,9.8-22.8,9.8"/>
				</g>
			</g>
			<g>
				<g>
					<defs>
						<polygon id="SVGID_41_" points="766.2,322.4 755.6,325.1 769.8,325.1 784.6,314.3 784.6,305.8 742.3,305.7 						"/>
					</defs>
					<clipPath id="SVGID_42_">
						<use xlink:href="#SVGID_41_"  style="overflow:visible;"/>
					</clipPath>
					<path style="clip-path:url(#SVGID_42_);fill:none;stroke:#00A2C9;stroke-width:0.4243;stroke-linecap:round;" d="M744.6,308.2
						c15.2,8.6,38.3-2.1,37,6.3c-1.1,7.1-24.6,10.6-24.6,10.6"/>
				</g>
			</g>
			<g>
				<g>
					<defs>
						<polygon id="SVGID_43_" points="766.2,322.4 755.6,325.1 769.8,325.1 784.6,314.3 784.6,305.8 742.3,305.7 						"/>
					</defs>
					<clipPath id="SVGID_44_">
						<use xlink:href="#SVGID_43_"  style="overflow:visible;"/>
					</clipPath>
					<path style="clip-path:url(#SVGID_44_);fill:none;stroke:#00A1D2;stroke-width:0.4243;stroke-linecap:round;" d="M742.9,306.9
						c16.3,9.2,41.1-2.2,39.7,6.8c-1.2,7.6-26.3,11.4-26.3,11.4"/>
				</g>
			</g>
			<g>
				<g>
					<defs>
						<polygon id="SVGID_45_" points="766.2,322.4 755.6,325.1 769.8,325.1 784.6,314.3 784.6,305.8 742.3,305.7 						"/>
					</defs>
					<clipPath id="SVGID_46_">
						<use xlink:href="#SVGID_45_"  style="overflow:visible;"/>
					</clipPath>
					<path style="clip-path:url(#SVGID_46_);fill:none;stroke:#009FDA;stroke-width:0.4243;stroke-linecap:round;" d="M741.1,305.7
						c17.4,9.8,43.8-2.4,42.3,7.3c-1.2,8.1-28.1,12.1-28.1,12.1"/>
				</g>
			</g>
			<g>
				<g>
					<defs>
						<polygon id="SVGID_49_" points="766.2,322.4 755.6,325.1 769.8,325.1 784.6,314.3 784.6,305.8 742.3,305.7 						"/>
					</defs>
					<clipPath id="SVGID_50_">
						<use xlink:href="#SVGID_49_"  style="overflow:visible;"/>
					</clipPath>
					<path style="clip-path:url(#SVGID_50_);fill:none;stroke:#009EE2;stroke-width:0.4243;stroke-linecap:round;" d="M739.3,304.5
						c18.5,10.4,46.6-2.5,45,7.7c-1.3,8.6-29.8,12.9-29.8,12.9"/>
				</g>
			</g>
		</g>
		<polygon style="fill:#0E2243;" points="709,331.2 706.2,339.7 703.5,331.3 701.5,331.3 705.4,342.4 707,342.4 709.8,334.2
			712.6,342.4 714.2,342.4 718,331.3 716.1,331.3 713.4,339.7 710.6,331.2 		"/>
		<g>
			<path style="fill:#0E2243;" d="M721.2,342.5c-1.5,0-2.9-0.8-2.9-2.5l0,0c0-1.7,1.3-2.6,3.4-2.6c1,0,1.7,0.1,2.3,0.4h0.1v-0.3
				c0-1.2-0.8-1.9-2.2-1.9c-0.9,0-1.6,0.2-2.4,0.5l-0.5-1.4c0.9-0.4,1.8-0.7,3.1-0.7c2.4,0,3.6,1.2,3.6,3.5v4.9H724v-1.2l-0.1,0.2
				C723.3,342.1,722.4,342.5,721.2,342.5 M722.1,338.4c-1.3,0-2,0.5-2,1.4l0,0c0,0.8,0.7,1.3,1.7,1.3c1.3,0,2.3-0.8,2.3-1.8v-0.6
				l0,0C723.5,338.5,722.8,338.4,722.1,338.4"/>
			<path style="fill:#0E2243;" d="M730.9,342.5c-1.6,0-2.4-0.8-2.4-2.4v-4.5h-1.1V334h1.1v-2.3h1.8v2.3h2.3v1.5h-2.3v4.2
				c0,0.7,0.4,1.1,1.1,1.1c0.4,0,0.8-0.1,1.1-0.2v1.4C732.1,342.3,731.5,342.5,730.9,342.5"/>
			<path style="fill:#0E2243;" d="M738.2,342.5c-2.5,0-4.3-1.8-4.3-4.3s1.7-4.3,4.1-4.3c2.9,0,4,2.4,4,4.5c0,0.1,0,0.3,0,0.4l0,0
				h-6.2v0.1c0.2,1.4,1.2,2.2,2.5,2.2c0.9,0,1.6-0.3,2.3-1l1,0.9C740.7,342,739.6,342.5,738.2,342.5 M738,335.3
				c-1.2,0-2.1,0.9-2.3,2.3v0.1h4.5v-0.1C740.1,336.2,739.2,335.3,738,335.3"/>
			<path style="fill:#0E2243;" d="M743.8,342.3V334h1.8v1.8c0.4-0.9,1.3-2,2.9-2h0.1v1.9l0,0c-1.8,0-3,1.3-3,3.4v3.1h-1.8V342.3z"/>
			<path style="fill:#0E2243;" d="M751.5,342.3v-6.8h-1.1V334h1.1v-0.7c0-1.8,0.8-2.7,2.5-2.7c0.7,0,1.1,0.1,1.5,0.2v1.5
				c-0.3-0.1-0.7-0.2-1.1-0.2c-0.8,0-1.2,0.5-1.2,1.4v0.5h2.2v1.5h-2.2v6.8L751.5,342.3L751.5,342.3z"/>
			<path style="fill:#0E2243;" d="M757.3,342.3V334h1.8v1.8c0.4-0.9,1.3-2,2.9-2h0.1v1.9l0,0c-1.8,0-3,1.3-3,3.4v3.1h-1.8V342.3z"/>
			<path style="fill:#0E2243;" d="M767.5,342.5c-2.5,0-4.4-1.9-4.4-4.3s1.9-4.4,4.4-4.4s4.4,1.9,4.4,4.3
				C772,340.6,770,342.5,767.5,342.5 M767.5,335.4c-1.5,0-2.6,1.2-2.6,2.8c0,1.6,1.1,2.8,2.6,2.8s2.6-1.2,2.6-2.8
				C770.2,336.6,769.1,335.4,767.5,335.4"/>
			<path style="fill:#0E2243;" d="M779.4,342.3v-4.7c0-1.4-0.7-2.1-1.9-2.1s-2,0.9-2,2.2v4.7h-1.8V334h1.8v1.5l0.1-0.2
				c0.7-1,1.5-1.5,2.6-1.5c1.8,0,2.9,1.2,2.9,3.2v5.3H779.4z"/>
			<path style="fill:#0E2243;" d="M786.4,342.5c-1.6,0-2.4-0.8-2.4-2.4v-4.5h-1V334h1.1v-2.3h1.8v2.3h2.3v1.5h-2.3v4.2
				c0,0.7,0.4,1.1,1.1,1.1c0.4,0,0.8-0.1,1.1-0.2v1.4C787.6,342.3,787.1,342.5,786.4,342.5"/>
			<path style="fill:#0E2243;" d="M800.4,342.5c-3.2,0-5.6-2.5-5.6-5.7c0-3.3,2.5-5.7,5.7-5.7c2.2,0,3.4,0.8,4.3,1.7l-1.2,1.3
				c-1-0.9-2-1.4-3.1-1.4c-2.1,0-3.8,1.7-3.8,4s1.6,4.1,3.8,4.1c1.4,0,2.3-0.5,3.2-1.4l1.2,1.2C803.5,341.9,802.2,342.5,800.4,342.5
				"/>
		</g>
		<path style="fill:#0E2243;" d="M806.7,334h1.8v8.3h-1.8V334z M806.6,330.9h1.9v1.7h-1.9V330.9z"/>
		<path style="fill:#0E2243;" d="M813.9,342.5c-1.6,0-2.4-0.8-2.4-2.4v-4.5h-1.1V334h1.1v-2.3h1.8v2.3h2.3v1.5h-2.3v4.2
			c0,0.7,0.4,1.1,1.1,1.1c0.4,0,0.8-0.1,1.1-0.2v1.4C815.1,342.3,814.5,342.5,813.9,342.5"/>
		<path style="fill:#0E2243;" d="M819.3,344.9c-0.7,0-1.3-0.1-1.9-0.5l0.6-1.3c0.4,0.2,0.7,0.3,1.1,0.3c0.6,0,0.9-0.3,1.3-1l0,0
			l-3.5-8.4h1.9l2.5,6.4l2.2-6.4h1.9l-3.3,8.6C821.4,344.3,820.7,344.9,819.3,344.9"/>
	</g>
</g>
<g id="app_x5F_Muscat--button">
	<rect id="tap_x5F_area" x="1359.9" y="593.8" style="fill:#FFFFFF;fill-opacity:0;" width="105.7" height="54.3"/>
	<path id="Line-4-Copy-4" style="fill:none;stroke:#8A1538;stroke-width:2;" d="M1359.9,622.8h-52.4"/>
	<g id="app_x5F_Oman--marker" transform="translate(1260.000000, 608.000000)">
		<polygon id="Fill-124_14_" style="fill:#8A1538;" points="23.8,1.9 23.8,25.6 31.7,25.6 35.6,29.9 39.6,25.6 47.5,25.6 47.5,1.9
					"/>
		<g id="Group_14_" transform="translate(5.000000, 5.000000)">
			<path id="Path_28_" style="fill:#FFFFFF;" d="M30.1,2.5c-3.8,0-6.4,2.6-6.4,6v6.7h2.2c0,0,0-3.7,0-6.7c0-3.2,2.4-5.4,4.8-5.9
				c0.1,0,0.2-0.1,0.1-0.1H30.1z"/>
			<path id="Path_29_" style="fill:#FFFFFF;" d="M30.6,2.8c-0.3,0.1-0.6,0.2-1,0.5c-1.7,1.1-2.4,3-2.5,4.9c0,0.1,0,0.2,0,0.3l0,0
				v0.1v6.7h2.2V8.5c0-0.4,0.2-0.8,0.5-1l0.9,1l0.9-1c0.3,0.2,0.5,0.6,0.5,1v6.7h2.2V8.5c0-2-1.6-3.6-3.5-3.6
				c-0.5,0-0.9,0.1-1.3,0.3l0,0c0.4-0.5,1.1-0.8,1.9-0.8l0,0c0.2,0,0.5,0,0.7,0.1c1.9,0.3,3.4,2,3.4,3.9c0,0.1,0,0.2,0,0.2v6.6h2.2
				V8.6c0-2.9-1.7-5.2-4.6-5.9c-0.1,0-0.3-0.1-0.4-0.1c-0.2,0-0.4-0.1-0.7-0.1C31.3,2.5,31,2.6,30.6,2.8z"/>
		</g>
	</g>
	<g>
		<path style="fill:#002D74;" d="M1380.8,611.7c0-0.8-0.6-1.4-1.4-1.4s-1.4,0.6-1.4,1.4c0,0.8,0.6,1.4,1.4,1.4
			S1380.8,612.5,1380.8,611.7 M1456.4,620.5c0-0.8-0.6-1.4-1.4-1.4s-1.4,0.6-1.4,1.4c0,0.8,0.6,1.4,1.4,1.4
			S1456.4,621.2,1456.4,620.5 M1378.8,599.7h-5.3v2.8h5.7c0.9,0,1.6,0.3,2.3,1c0.5,0.5,0.7,1.2,0.9,1.8h-3.7l0,0h-1.8
			c-1.8,0-3.3,0.6-4.5,1.7c-1.2,1.2-1.8,2.7-1.8,4.4c0,1.8,0.6,3.2,1.8,4.4c1.2,1.2,2.7,1.8,4.5,1.8h8.2v-2.8h-8.5
			c-0.9,0-1.6-0.3-2.3-1c-0.6-0.6-0.9-1.6-0.9-2.4c0-0.9,0.3-1.8,0.9-2.4c0.6-0.6,1.4-1,2.3-1h2.1l0,0h6.4v-2.8
			c-0.1-1.5-0.7-2.7-1.8-3.7C1382.1,600.3,1380.6,599.7,1378.8,599.7 M1453.6,617.5h2.8v-17.8h-2.8V617.5z M1420.6,613.1
			c0.3,0.8,0.8,1.5,1.5,2.2c1.4,1.4,3,2.2,5,2.2c0.1,0,0.2,0,0.3,0c1.9,0,3.6-0.7,5-2.1c0.7-0.7,1.3-1.5,1.6-2.3h10.1l0,0
			c1.8,0,3.2-0.6,4.4-1.8c1.2-1.2,1.8-2.8,1.8-4.6v-7h-2.8v7.2c0,0.9-0.3,1.8-1,2.5c-0.7,0.6-1.4,1-2.3,1h-9.7v-0.1
			c0-2-0.7-3.7-2-5.1c-1.3-1.4-3-2.2-5-2.3s-3.8,0.6-5.3,2.1s-2.2,3.2-2.2,5.3v0.1h-18.6v-3.9l0,0c0-1.8-0.6-3.3-1.9-4.6
			c-1.2-1.3-2.7-2-4.5-2.1s-3.5,0.6-4.8,1.9c-1.3,1.3-2,2.9-2,4.8c0,1.8,0.6,3.4,1.8,4.6c1.2,1.3,2.8,2,4.5,2c0.1,0,0.2,0,0.3,0
			c0.2,0,0.4,0,0.5,0h3c-0.1,0.2-0.3,0.5-0.6,0.7c-0.5,0.5-1.1,1-1.9,1h-7.7v2.8h7.6c1.5,0,2.8-0.6,3.9-1.7c0.8-0.8,1.3-1.7,1.6-2.8
			L1420.6,613.1L1420.6,613.1z M1424.1,606.8c0.9-0.9,1.9-1.3,3.1-1.3h0.1l0,0c1.2,0,2.2,0.4,3,1.3c0.9,0.9,1.3,2,1.4,3.2
			c0,1.3-0.4,2.4-1.4,3.4c-0.9,1-2,1.4-3.3,1.3l0,0c-1.2,0-2.2-0.5-3.1-1.4c-0.8-0.9-1.2-2-1.2-3.3
			C1422.8,608.8,1423.2,607.7,1424.1,606.8 M1394.8,610.3L1394.8,610.3c-0.1,0-0.1,0-0.2,0l0,0c-1,0-1.9-0.4-2.6-1.2s-1.1-1.7-1-2.8
			c0-1.1,0.4-2,1.1-2.7c0.8-0.8,1.6-1.1,2.6-1.1c0,0,0,0,0.1,0l0,0c1,0,1.9,0.4,2.6,1.1c0.7,0.8,1.1,1.7,1.2,2.7v0.1v3.4v0.6l0,0
			h-3.2L1394.8,610.3L1394.8,610.3z M1453.6,635.8c0,0.9-0.3,1.6-1,2.3c-0.7,0.6-1.6,0.9-2.5,0.9v2.8c1.8,0,3.3-0.6,4.5-1.8
			s1.8-2.7,1.8-4.6v-11.8h-2.8V635.8z M1450.2,623.6h-2.8v8.5c0,0.9-0.3,1.6-1,2.3c-0.7,0.6-1.6,1.1-2.5,1.1s-1.9-0.5-2.5-1.1
			c-0.7-0.7-1-1.4-1-2.3v-8.5h-2.8v8.3c0,1.8,0.6,3.3,1.8,4.6c1.2,1.2,2.7,1.8,4.5,1.8s3.3-0.6,4.5-1.8s1.8-2.7,1.8-4.6V623.6z
			 M1427.4,623.6c-2-0.1-3.8,0.6-5.3,2.1s-2.2,3.2-2.2,5.3c0,2,0.7,3.7,2,5.1c1.4,1.4,3,2.2,5,2.2c0.1,0,0.2,0,0.3,0
			c1.9,0,3.6-0.7,5-2.1c1.5-1.5,2.2-3.2,2.2-5.3c0-2-0.7-3.7-2-5.1S1429.4,623.6,1427.4,623.6 M1430.4,634.3c-0.9,1-2,1.4-3.3,1.3
			l0,0c-1.2,0-2.2-0.5-3.1-1.5c-0.9-0.9-1.3-2-1.2-3.3c0-1.3,0.5-2.4,1.4-3.3c0.9-0.9,1.9-1.3,3.1-1.3h0.1l0,0
			c1.2,0,2.2,0.4,3.1,1.3c0.9,0.9,1.3,2,1.4,3.2C1431.8,632.1,1431.3,633.3,1430.4,634.3 M1388.2,638.3h2.8v-17.8h-2.8V638.3z
			 M1378.1,623.6c-2.1-0.1-3.8,0.6-5.3,2.1s-2.2,3.2-2.2,5.3c0,2,0.7,3.7,2,5.1c1.3,1.4,3,2.2,5,2.3c0.1,0,0.2,0,0.3,0
			c1.5,0,3.2-0.7,4.4-1.6v1.6h2.8V631c0.1-1.9-0.6-3.7-2-5.1C1381.7,624.4,1380.1,623.6,1378.1,623.6 M1381,634.3
			c-0.9,0.9-1.9,1.4-3.1,1.4c-0.1,0-0.2,0-0.2,0c-1.2-0.1-2.3-0.5-3.1-1.5c-0.9-0.9-1.3-2-1.2-3.3c0-1.3,0.5-2.3,1.4-3.2
			s2-1.3,3.2-1.3s2.2,0.4,3.1,1.3c0.9,0.9,1.3,2,1.3,3.2C1382.4,632.1,1381.9,633.3,1381,634.3 M1410.4,620.8
			c-0.2,0-0.4-0.1-0.6-0.1c-0.3,0-0.6-0.1-1-0.1c-0.7,0-1.2,0.1-1.7,0.3c-0.4,0.1-0.8,0.3-1.4,0.7c-2.6,1.6-3.6,4.6-3.6,7.4v9.3h3.2
			v-9.2c0-0.6,0.3-1.1,0.7-1.5l1.3,1.5l1.3-1.5c0.4,0.4,0.7,0.9,0.7,1.5v9.2h3.1v-9.1c0-5.6-5.3-5.7-6.9-5c2.3-2.7,8.6-1,8.6,5v9.1
			h3.1c0,0,0-9.1,0-9.2C1417.1,625,1414.6,621.7,1410.4,620.8 M1427.5,642.6c0.2,0,0.4-0.2,0.4-0.4s-0.2-0.4-0.4-0.4
			c-0.2,0-0.4,0.2-0.4,0.4C1427.1,642.4,1427.3,642.6,1427.5,642.6 M1428.6,642.6c0.2,0,0.4-0.2,0.4-0.4s-0.2-0.4-0.4-0.4
			c-0.2,0-0.4,0.2-0.4,0.4C1428.2,642.4,1428.4,642.6,1428.6,642.6 M1442.2,643.4c-1.3,0.1-2.3,1.2-2.3,2.5c0,0.2,0,0.4,0.1,0.6
			h-2.6c0.1-0.2,0.1-0.4,0.1-0.7v-2.3h-0.8v2.1c0,0.8-0.2,1-0.7,1h-0.8c0.1-0.2,0.1-0.4,0.1-0.7v-2.3h-0.8v2.1c0,0.8-0.2,1-0.6,1
			h-0.9c0.1-0.2,0.1-0.4,0.1-0.7v-2.3h-0.8v2.1c0,0.6-0.3,0.9-0.7,0.9h-1.6h-0.7c-0.2,0-0.4,0-0.5-0.1c0.3-0.2,0.5-0.4,0.7-0.7
			s0.3-0.7,0.3-1.1c0-0.5-0.2-0.9-0.5-1.2c-0.3-0.4-0.8-0.5-1.4-0.5s-1,0.2-1.4,0.5c-0.3,0.3-0.5,0.7-0.5,1.2c0,0.4,0.1,0.7,0.3,1.1
			c0.2,0.3,0.4,0.5,0.7,0.7c-0.2,0.1-0.3,0.1-0.5,0.1h-2.1h-3.4c0-0.1,0-0.2,0-0.2c0-1.9-0.7-2.8-2-2.8c-0.9,0-1.8,0.6-2.4,1.6v-3.1
			h-0.8v2.4l0,0v2.1h-0.6v0.8h9.2h1.7c0.5,0,0.8,0,0.9,0c0.3-0.1,0.6-0.2,0.9-0.4c0.3,0.2,0.6,0.3,0.9,0.4c0.2,0,0.5,0,0.9,0h0.2
			h2.5h7.8c0.5,0.6,1.2,1,2,0.9c1.3-0.1,2.3-1.2,2.3-2.5C1444.6,644.3,1443.5,643.3,1442.2,643.4 M1420.3,646.4h-3.6
			c0.4-1.2,1.5-2.3,2.4-2.3c0.8,0,1.3,0.7,1.3,1.9C1420.3,646.1,1420.3,646.3,1420.3,646.4 M1428,645.9c-0.3-0.1-0.6-0.3-0.7-0.6
			c-0.2-0.2-0.2-0.5-0.2-0.8c0-0.6,0.4-1,1-1c0.3,0,0.6,0.1,0.7,0.3c0.2,0.2,0.3,0.4,0.3,0.7s-0.1,0.5-0.3,0.8
			C1428.6,645.5,1428.3,645.7,1428,645.9 M1442.4,647.3c-0.9,0-1.6-0.7-1.7-1.5c0-0.9,0.7-1.6,1.5-1.7c0.9,0,1.6,0.7,1.7,1.5
			C1443.9,646.6,1443.2,647.3,1442.4,647.3"/>
		<path style="fill:#00A6D6;" d="M1407.4,620.5C1407.6,620.5,1407.4,620.5,1407.4,620.5c-3.5,0.8-7,4-7,8.5v9.3h-3.1V629
			c0-4.8,3.8-8.5,9.2-8.5H1407.4z M1410.1,643.4v1.5c0,0.4,0.2,0.8,0.5,1.1s0.7,0.5,1.1,0.5v0.8c-0.7,0-1.2-0.2-1.7-0.7
			s-0.7-1-0.7-1.7v-3.1h0.8v0.8h1.6v0.8L1410.1,643.4L1410.1,643.4z M1396.2,647.2c-0.6,0-1.2-0.2-1.7-0.6l0.5-0.6
			c0.4,0.3,0.8,0.5,1.2,0.5c0.5,0,0.8-0.2,0.8-0.6c0-0.4-0.5-0.6-1-0.7h-0.1c-0.6-0.2-1.3-0.6-1.3-1.3c0-0.8,0.7-1.3,1.6-1.3
			c0.5,0,1,0.2,1.5,0.5l-0.5,0.5c-0.3-0.2-0.6-0.3-0.9-0.3c-0.4,0-0.7,0.2-0.7,0.6c0,0.4,0.5,0.5,1,0.7h0.1c0.7,0.3,1.3,0.5,1.3,1.3
			C1397.9,646.7,1397.2,647.2,1396.2,647.2 M1398.7,644.9c0-0.7,0.2-1.2,0.7-1.7s1-0.7,1.7-0.7c0.6,0,1.2,0.2,1.7,0.7l-0.5,0.5
			c-0.3-0.3-0.7-0.5-1.1-0.5s-0.8,0.2-1.1,0.5c-0.3,0.3-0.5,0.7-0.5,1.1c0,0.4,0.2,0.8,0.5,1.1s0.7,0.5,1.1,0.5s0.8-0.2,1.1-0.5
			l0.5,0.5c-0.5,0.5-1,0.7-1.7,0.7s-1.2-0.2-1.7-0.7C1398.9,646.1,1398.7,645.5,1398.7,644.9L1398.7,644.9z M1393.6,645.3
			c0,0.5-0.2,1-0.6,1.4s-0.9,0.6-1.4,0.6s-1-0.2-1.4-0.6c-0.4-0.4-0.6-0.9-0.6-1.4v-2.7h0.8v2.7c0,0.3,0.1,0.6,0.4,0.9
			c0.2,0.2,0.5,0.4,0.9,0.4c0.3,0,0.6-0.1,0.9-0.4c0.2-0.2,0.4-0.5,0.4-0.9v-2.7h0.8v2.7H1393.6z M1387.9,644.3
			c0-0.3-0.1-0.5-0.3-0.8c-0.2-0.2-0.4-0.3-0.7-0.3c-0.3,0-0.6,0.1-0.7,0.3c-0.2,0.2-0.3,0.5-0.3,0.8v2.8h-0.8v-2.8
			c0-0.3-0.1-0.6-0.3-0.8c-0.2-0.2-0.4-0.3-0.7-0.3c-0.3,0-0.5,0.1-0.7,0.3s-0.3,0.5-0.3,0.8v2.8h-0.8v-2.8c0-0.5,0.2-0.9,0.5-1.3
			c0.4-0.4,0.8-0.6,1.3-0.6c0.6,0,1,0.2,1.4,0.7c0.3-0.4,0.8-0.7,1.4-0.7c0.5,0,0.9,0.2,1.3,0.6c0.3,0.4,0.5,0.8,0.5,1.3v2.8h-0.8
			V644.3z M1407.6,646.5c-0.5,0.5-1,0.8-1.7,0.8c-0.6,0-1.2-0.2-1.6-0.7s-0.7-1-0.7-1.7s0.2-1.2,0.7-1.7s1-0.7,1.7-0.7
			s1.2,0.2,1.7,0.7s0.7,1,0.7,1.7v2.3h-0.8L1407.6,646.5L1407.6,646.5z M1407.6,644.9c0-0.4-0.2-0.8-0.5-1.1s-0.7-0.5-1.1-0.5
			s-0.8,0.2-1.1,0.5c-0.3,0.3-0.5,0.7-0.5,1.1c0,0.4,0.2,0.8,0.5,1.1s0.7,0.5,1.1,0.5s0.8-0.2,1.1-0.5
			C1407.4,645.7,1407.6,645.3,1407.6,644.9"/>
	</g>
</g>
<g id="app_x5F_UAE--button">
	<polygon id="tap_x5F_area_1_" style="fill:none;" points="1272.8,715.6 1268.6,897.6 1359.9,897.6 1351.2,715.6 	"/>
	<g>
		<path id="Line-4-Copy" style="fill:none;stroke:#8A1538;stroke-width:2;" d="M1245.2,528.8v316.4"/>
		<path id="Line-4-Copy-2" style="fill:none;stroke:#8A1538;stroke-width:2;" d="M1271.9,845.2h-27.7"/>
		<path id="Line-4-Copy-3" style="fill:none;stroke:#8A1538;stroke-width:2;" d="M1271.9,758.2h-27.7"/>
	</g>
	<g id="app_x5F_UAE--marker" transform="translate(1209.000000, 521.000000)">
		<polygon id="Fill-124_13_" style="fill:#8A1538;" points="24.3,2.9 24.3,26.6 32.3,26.6 36.2,30.9 40.2,26.6 48.1,26.6 48.1,2.9
					"/>
		<g id="Group_13_" transform="translate(5.000000, 5.000000)">
			<path id="Path_26_" style="fill:#FFFFFF;" d="M30.7,3.4c-3.8,0-6.4,2.6-6.4,6v6.7h2.2c0,0,0-3.7,0-6.7c0-3.2,2.4-5.4,4.8-5.9
				c0.1,0,0.2-0.1,0.1-0.1C31.4,3.4,30.7,3.4,30.7,3.4z"/>
			<path id="Path_27_" style="fill:#FFFFFF;" d="M31.1,3.7c-0.3,0.1-0.6,0.2-1,0.5c-1.7,1.1-2.4,3-2.5,4.9c0,0.1,0,0.2,0,0.3l0,0
				v0.1v6.7h2.2V9.5c0-0.4,0.2-0.8,0.5-1l0.9,1l0.9-1c0.3,0.2,0.5,0.6,0.5,1v6.7h2.2V9.5c0-2-1.6-3.6-3.5-3.6
				c-0.5,0-0.9,0.1-1.3,0.3l0,0c0.4-0.5,1.1-0.8,1.9-0.8l0,0c0.2,0,0.5,0,0.7,0.1c1.9,0.3,3.4,2,3.4,3.9c0,0.1,0,0.2,0,0.2v6.6h2.2
				V9.6c0-2.9-1.7-5.2-4.6-5.9c-0.1,0-0.3-0.1-0.4-0.1c-0.2,0-0.4-0.1-0.7-0.1C31.9,3.5,31.5,3.6,31.1,3.7z"/>
		</g>
	</g>
	<g>
		<g id="XMLID_211_">
			<path id="XMLID_224_" style="fill:#001C71;" d="M1290,782.3c-0.8,0.9-1.8,1.3-3,1.3c-1.1,0-2.1-0.4-2.9-1.2s-1.2-1.8-1.2-2.9
				c0-1.2,0.4-2.1,1.2-3c0.8-0.8,1.8-1.2,3-1.2s2.2,0.4,3,1.2s1.2,1.8,1.2,3v4.1h-1.4v-1.3L1290,782.3L1290,782.3z M1290,779.5
				c0-0.8-0.3-1.4-0.8-2c-0.6-0.6-1.2-0.8-2-0.8s-1.4,0.3-2,0.8c-0.6,0.6-0.8,1.2-0.8,2s0.3,1.4,0.8,2c0.6,0.6,1.2,0.8,2,0.8
				s1.4-0.3,2-0.8C1289.7,780.9,1290,780.3,1290,779.5"/>
			<rect id="XMLID_223_" x="1293.4" y="771.9" style="fill:#001C71;" width="1.4" height="11.6"/>
			<polygon id="XMLID_222_" style="fill:#001C71;" points="1305.1,776.8 1300.7,776.8 1300.7,775.4 1307.6,775.4 1303.2,782.2
				1307.6,782.2 1307.6,783.6 1300.7,783.6 			"/>
			<path id="XMLID_219_" style="fill:#001C71;" d="M1315.6,782.3c-0.8,0.9-1.8,1.3-3,1.3c-1.1,0-2.1-0.4-2.9-1.2s-1.2-1.8-1.2-2.9
				c0-1.2,0.4-2.1,1.2-3c0.8-0.8,1.8-1.2,3-1.2s2.2,0.4,3,1.2s1.2,1.8,1.2,3v4.1h-1.4v-1.3L1315.6,782.3L1315.6,782.3z
				 M1315.6,779.5c0-0.8-0.3-1.4-0.8-2c-0.6-0.6-1.2-0.8-2-0.8s-1.4,0.3-2,0.8c-0.6,0.6-0.8,1.2-0.8,2s0.3,1.4,0.8,2
				c0.6,0.6,1.2,0.8,2,0.8s1.4-0.3,2-0.8C1315.3,780.9,1315.6,780.3,1315.6,779.5"/>
			<path id="XMLID_218_" style="fill:#001C71;" d="M1324.6,778.8c0-0.6-0.2-1.1-0.6-1.5s-0.9-0.6-1.5-0.6s-1.1,0.2-1.5,0.6
				c-0.4,0.4-0.6,0.9-0.6,1.5v4.7h-1.4v-11.6h1.4v4.5c0.7-0.8,1.5-1.1,2.4-1.1s1.7,0.4,2.3,1.1c0.6,0.7,0.9,1.5,0.9,2.4v4.7h-1.4
				L1324.6,778.8L1324.6,778.8z"/>
			<path id="XMLID_215_" style="fill:#001C71;" d="M1328.3,772.7h1.4v1.4h-1.4V772.7z M1328.3,775.4h1.4v8.1h-1.4V775.4z"/>
			<path id="XMLID_212_" style="fill:#001C71;" d="M1338.3,782.3c-0.8,0.9-1.8,1.3-3,1.3c-1.1,0-2.1-0.4-2.9-1.2s-1.2-1.8-1.2-2.9
				c0-1.2,0.4-2.1,1.2-3c0.8-0.8,1.8-1.2,3-1.2s2.2,0.4,3,1.2s1.2,1.8,1.2,3v4.1h-1.4v-1.3L1338.3,782.3L1338.3,782.3z
				 M1338.3,779.5c0-0.8-0.3-1.4-0.8-2c-0.6-0.6-1.2-0.8-2-0.8s-1.4,0.3-2,0.8c-0.6,0.6-0.8,1.2-0.8,2s0.3,1.4,0.8,2
				c0.6,0.6,1.2,0.8,2,0.8s1.4-0.3,2-0.8C1338,780.9,1338.3,780.3,1338.3,779.5"/>
		</g>
		<path id="XMLID_198_" style="fill:#001C71;" d="M1286.8,756.9h-1.3v1.3h1.3V756.9z M1334.7,764.5c0,0.6-0.2,1.1-0.6,1.5
			s-0.9,0.6-1.5,0.6h-5.3V762h-1.4v6.4c0,0.6-0.2,1.1-0.6,1.5s-0.9,0.6-1.6,0.6v1.4c0.9,0,1.8-0.4,2.5-1.1c0.7-0.7,1.1-1.5,1.1-2.4
			V768h5.5l0,0c0.8,0,1.6-0.4,2.2-1.1c0.7-0.7,1.1-1.5,1.1-2.4v-8.1h-1.4L1334.7,764.5L1334.7,764.5z M1298,770.7h1.3v-1.3h-1.3
			V770.7z M1288.8,756.9h-1.3v1.3h1.3V756.9z M1327.3,759.4h-1.3v1.3h1.3V759.4z M1300,770.7h1.3v-1.3h-1.3V770.7z M1313.3,759.8
			c-0.1,0-0.4-0.1-0.8-0.2c-0.2,0-0.4-0.1-0.6-0.1c-0.3,0-0.6-0.1-0.9-0.1c-0.1,0-0.2,0-0.3,0c-0.5,0-1.1,0.1-1.6,0.2
			c-0.5,0.1-0.9,0.3-1.4,0.6v1.5c0.4-0.3,0.9-0.6,1.4-0.8s1-0.3,1.6-0.3h0.1l0,0c1.4-0.1,2.4,0.7,2.4,0.7c1.3,0.7,2.3,2.2,2.3,4.3
			c0,0.4,0,0.7-0.1,1h-2.5c0.4-0.5,0.6-1.1,0.6-1.7c0-0.8-0.3-1.5-0.8-2c-0.6-0.6-1.2-0.8-2-0.8s-1.4,0.3-2,0.8s-0.8,1.2-0.8,2
			c0,0.7,0.2,1.3,0.7,1.8h-6.4c-0.6,0-0.8-0.2-1.2-0.6c-0.4-0.4-0.6-0.8-0.6-1.3c0,0,0,0.1,0,0v-4.7h-1.4c0,0,0,4.6,0,4.7
			c0,0.5-0.2,0.9-0.6,1.3c-0.4,0.4-0.9,0.6-1.5,0.6h-3.6l0,0c-0.5,0-0.9-0.2-1.3-0.5c-0.4-0.4-0.5-0.7-0.5-1.2l0,0c0,0,0-0.5,0-0.7
			v-0.4c0-1.2-0.4-2.1-1.2-3c-0.8-0.8-1.8-1.2-3-1.2s-2.1,0.4-3,1.2c-0.8,0.8-1.2,1.8-1.2,3c0,1.1,0.4,2.1,1.2,2.9
			c0.8,0.8,1.8,1.2,2.9,1.2c1.2,0,2.2-0.4,3-1.3c0,0,0.3-0.3,0.4-0.5l0.2,0.3c0.1,0.2,0.3,0.4,0.4,0.5c0.7,0.7,1.4,1,2.3,1l0,0h3.7
			l0,0c0.8-0.1,1.6-0.4,2.2-1c0.1-0.1,0.3-0.3,0.4-0.4c0.1,0.1,0.2,0.3,0.4,0.4c0.6,0.6,1.2,1,1.9,1h14.8c0.1-0.7,0.3-1.5,0.3-2.2
			c0-1.5-0.4-2.8-1.1-3.9C1315.4,761,1314.4,760.2,1313.3,759.8z M1289.2,765.9c-0.6,0.6-1.2,0.8-2,0.8s-1.4-0.3-2-0.8
			c-0.6-0.6-0.8-1.2-0.8-2s0.3-1.4,0.8-2c0.6-0.6,1.2-0.8,2-0.8s1.4,0.3,2,0.8c0.6,0.6,0.8,1.2,0.8,2S1289.7,765.3,1289.2,765.9z
			 M1311.8,766c-0.3,0.3-0.6,0.4-1,0.4s-0.8-0.1-1-0.4c-0.3-0.3-0.4-0.6-0.4-1.1c0-0.4,0.1-0.8,0.4-1c0.3-0.3,0.6-0.4,1.1-0.4
			c0.4,0,0.8,0.1,1,0.4c0.3,0.3,0.4,0.6,0.4,1C1312.2,765.3,1312.1,765.7,1311.8,766z M1320.7,768.1h1.4v-11.6h-1.4V768.1z
			 M1338.3,756.4V768h1.4v-11.6H1338.3z"/>
		<g id="XMLID_71_">
			<g id="XMLID_87_">
				<path id="XMLID_197_" style="fill:#0075C9;" d="M1283.3,794c0-0.4-0.1-0.7-0.4-0.9c-0.2-0.2-0.5-0.4-0.9-0.4
					c-0.3,0-0.6,0.1-0.9,0.4c-0.2,0.2-0.4,0.5-0.4,0.9v2.8h-0.8v-6.4h0.8v2.2c0.4-0.4,0.9-0.7,1.4-0.7s1,0.2,1.4,0.6
					c0.4,0.4,0.5,0.9,0.5,1.4v2.8h-0.8V794H1283.3z"/>
				<path id="XMLID_194_" style="fill:#0075C9;" d="M1289.4,796c-0.5,0.5-1.1,0.8-1.8,0.8c-0.7,0-1.2-0.2-1.7-0.7s-0.7-1.1-0.7-1.7
					c0-0.7,0.2-1.3,0.7-1.7c0.5-0.5,1.1-0.7,1.7-0.7c0.7,0,1.3,0.2,1.7,0.7c0.5,0.5,0.7,1.1,0.7,1.7v2.4h-0.8V796H1289.4z
					 M1289.4,794.4c0-0.5-0.2-0.9-0.5-1.2s-0.7-0.5-1.2-0.5s-0.8,0.2-1.2,0.5c-0.3,0.3-0.5,0.7-0.5,1.2s0.2,0.9,0.5,1.2
					s0.7,0.5,1.2,0.5s0.8-0.2,1.2-0.5C1289.3,795.2,1289.4,794.8,1289.4,794.4"/>
				<path id="XMLID_193_" style="fill:#0075C9;" d="M1293.5,792.7c-0.4,0-0.7,0.1-0.9,0.4c-0.2,0.2-0.4,0.6-0.4,0.9v2.8h-0.8V794
					c0-0.5,0.2-1,0.6-1.4s0.9-0.6,1.4-0.6v0.7H1293.5z"/>
				<path id="XMLID_96_" style="fill:#0075C9;" d="M1295.8,796.3c0,0.5-0.2,1-0.6,1.4s-0.9,0.6-1.4,0.6v-0.8c0.4,0,0.7-0.1,0.9-0.4
					c0.2-0.2,0.4-0.5,0.4-0.9V792h0.8v4.3H1295.8z M1295,790.4h0.8v0.8h-0.8V790.4z"/>
				<path id="XMLID_91_" style="fill:#0075C9;" d="M1301.1,796c-0.5,0.5-1.1,0.8-1.8,0.8c-0.7,0-1.2-0.2-1.7-0.7s-0.7-1.1-0.7-1.7
					c0-0.7,0.2-1.3,0.7-1.7c0.5-0.5,1.1-0.7,1.7-0.7c0.7,0,1.3,0.2,1.7,0.7c0.5,0.5,0.7,1.1,0.7,1.7v2.4h-0.8V796H1301.1z
					 M1301.1,794.4c0-0.5-0.2-0.9-0.5-1.2s-0.7-0.5-1.2-0.5s-0.8,0.2-1.2,0.5c-0.3,0.3-0.5,0.7-0.5,1.2s0.2,0.9,0.5,1.2
					s0.7,0.5,1.2,0.5s0.8-0.2,1.2-0.5C1300.9,795.2,1301.1,794.8,1301.1,794.4"/>
				<path id="XMLID_90_" style="fill:#0075C9;" d="M1306.6,794c0-0.4-0.1-0.7-0.4-0.9s-0.5-0.4-0.9-0.4c-0.3,0-0.6,0.1-0.9,0.4
					c-0.2,0.2-0.4,0.5-0.4,0.9v2.8h-0.8v-6.4h0.8v2.2c0.4-0.4,0.9-0.7,1.4-0.7s1,0.2,1.4,0.6c0.4,0.4,0.5,0.9,0.5,1.4v2.8h-0.8V794
					H1306.6z"/>
				<path id="XMLID_88_" style="fill:#0075C9;" d="M1276.8,796.8c-0.6,0-1.2-0.2-1.7-0.6l0.5-0.6c0.4,0.3,0.8,0.5,1.2,0.5
					c0.5,0,0.8-0.2,0.8-0.6c0-0.4-0.5-0.6-1-0.8h-0.1c-0.6-0.2-1.3-0.6-1.3-1.3c0-0.8,0.7-1.4,1.7-1.4c0.5,0,1,0.2,1.5,0.5l-0.6,0.5
					c-0.3-0.2-0.6-0.4-0.9-0.4c-0.5,0-0.8,0.2-0.8,0.6c0,0.4,0.5,0.5,1,0.7h0.1c0.7,0.3,1.3,0.6,1.3,1.4
					C1278.6,796.2,1277.9,796.8,1276.8,796.8"/>
			</g>
			<g id="XMLID_72_">
				<path id="XMLID_86_" style="fill:#0075C9;" d="M1317,791.6c0.3,0,0.5-0.2,0.5-0.5s-0.2-0.5-0.5-0.5s-0.5,0.2-0.5,0.5
					C1316.5,791.4,1316.7,791.6,1317,791.6z"/>
				<path id="XMLID_85_" style="fill:#0075C9;" d="M1318.2,791.6c0.3,0,0.5-0.2,0.5-0.5s-0.2-0.5-0.5-0.5s-0.5,0.2-0.5,0.5
					C1317.7,791.4,1317.9,791.6,1318.2,791.6z"/>
				<path id="XMLID_81_" style="fill:#0075C9;" d="M1323.1,793.9c0,0.6,0.4,1.3,1.4,1.3c0.5,0,0.9-0.2,1.2-0.5v0.1
					c0,0.6-0.2,1.3-0.9,1.3h-5c-0.6,0-0.8-0.4-0.8-1.3v-2.4l0,0c-0.3,0-0.7-0.1-1.2-0.1c-1.6,0-2.6,0.8-2.6,2c0,1.4,1.2,1.9,2.3,1.9
					c0.3,0,0.6,0,1-0.1c0.4,0.6,1,0.6,1.2,0.6h5.5c0.7,0,1.5-0.5,1.5-1.9v-2.6h-0.9C1324,792.2,1323.1,792.8,1323.1,793.9z
					 M1324.7,794.5c-0.3,0-0.7-0.2-0.7-0.7c0-0.6,0.5-0.9,1.7-0.9v0.7c0,0.1,0,0.1,0,0.2C1325.6,794.1,1325.3,794.5,1324.7,794.5z
					 M1317.6,793c0.2,0,0.4,0,0.6,0v2.5c-0.2,0-0.4,0-0.6,0c-0.7,0-1.5-0.3-1.5-1.2C1316.1,793.4,1316.7,793,1317.6,793z"/>
				<path id="XMLID_80_" style="fill:#0075C9;" d="M1325.9,791.4L1325.9,791.4c0.3,0,0.5-0.2,0.5-0.5s-0.2-0.5-0.5-0.5
					s-0.5,0.2-0.5,0.5S1325.6,791.4,1325.9,791.4z"/>
				<path id="XMLID_79_" style="fill:#0075C9;" d="M1324.7,791.4L1324.7,791.4c0.3,0,0.5-0.2,0.5-0.5s-0.2-0.5-0.5-0.5
					s-0.5,0.2-0.5,0.5S1324.4,791.4,1324.7,791.4z"/>
				<path id="XMLID_78_" style="fill:#0075C9;" d="M1328.5,793.4v2.7c0,1.6-0.4,1.7-1.1,1.8h-0.1l0.1,0.7l0,0c1.3,0,1.9-0.8,1.9-2.2
					v-3.3L1328.5,793.4L1328.5,793.4z"/>
				<path id="XMLID_77_" style="fill:#0075C9;" d="M1338.4,790.9c0,0.3,0.2,0.5,0.5,0.5l0,0c0.3,0,0.5-0.2,0.5-0.5s-0.2-0.5-0.5-0.5
					S1338.4,790.6,1338.4,790.9z"/>
				<path id="XMLID_76_" style="fill:#0075C9;" d="M1337.6,791.4L1337.6,791.4c0.3,0,0.5-0.2,0.5-0.5s-0.2-0.5-0.5-0.5
					s-0.5,0.2-0.5,0.5C1337.2,791.2,1337.4,791.4,1337.6,791.4z"/>
				<path id="XMLID_75_" style="fill:#0075C9;" d="M1338.2,790.4L1338.2,790.4c0.3,0,0.5-0.2,0.5-0.5s-0.2-0.5-0.5-0.5
					s-0.5,0.2-0.5,0.5C1337.7,790.1,1337.9,790.4,1338.2,790.4z"/>
				<path id="XMLID_74_" style="fill:#0075C9;" d="M1344.4,794.7c0,0.6-0.2,1.3-0.9,1.3h-1.1c-0.3,0-0.5-0.1-0.7-0.3
					s-0.3-0.5-0.3-0.8v-2.7l-0.9,0.3v2.2c0,0.6-0.2,1.3-0.9,1.3c-0.6,0-0.9-0.5-0.9-1v-2.3l-0.9,0.3v1.9c0,0.7-0.3,1.1-0.8,1.1
					c-0.6,0-1-0.5-1-1v-2l-0.9,0.3v1.5c0,0.7-0.3,1.1-0.8,1.1h-2c-0.6,0-0.8-0.4-0.8-1.3v-4.3l-0.9,0.3v4.1c0,1.4,0.8,1.9,1.5,1.9
					h2.5l0,0c0.5,0,1-0.3,1.2-0.8c0.3,0.5,0.8,0.8,1.4,0.8c0.5,0,1-0.3,1.2-0.8c0.3,0.5,0.8,0.8,1.4,0.8c0.2,0,0.9-0.1,1.3-0.8
					c0.3,0.5,0.8,0.8,1.4,0.8h1.2l0,0l0,0l0,0c0.7,0,1.4-0.5,1.4-1.9v-4.4l-0.9,0.3v4.1L1344.4,794.7L1344.4,794.7z"/>
				<polygon id="XMLID_73_" style="fill:#0075C9;" points="1346.6,790.7 1346.6,796.7 1347.5,796.7 1347.5,790.4 				"/>
			</g>
		</g>
		<g id="XMLID_15_">
			<g id="XMLID_68_">
				<g>
					<linearGradient id="SVGID_51_" gradientUnits="userSpaceOnUse" x1="1309.049" y1="733.6712" x2="1290.5651" y2="754.6604">
						<stop  offset="0" style="stop-color:#E34126"/>
						<stop  offset="1" style="stop-color:#FFC333"/>
					</linearGradient>
					<path id="SVGID_48_" style="fill:url(#SVGID_51_);" d="M1292,740.3V751h6.1v-11.5c-0.4,0.1-0.9,0.1-1.4,0.1
						c-1.1,0-2.2-0.2-3.2-0.7C1293,739.4,1292.5,739.8,1292,740.3 M1304.8,733.8c-0.8,0.8-1.7,1.8-2.4,3.2c-0.3,0.4-0.6,0.8-1,1.1
						V751h3.6c0-0.6-0.1-1.2-0.1-1.8c-0.1-0.7-0.7-1.3-0.6-1.9c0.5-2.8,2.1-2,2.6-4.8c0.2-0.9,0.4-1.8,0.7-2.6v-6.6
						C1306.7,733.3,1305.8,733.5,1304.8,733.8"/>
				</g>
			</g>
			<g id="XMLID_65_">
				<g>
					<linearGradient id="SVGID_52_" gradientUnits="userSpaceOnUse" x1="1308.5865" y1="732.5246" x2="1336.8271" y2="733.3053">
						<stop  offset="0" style="stop-color:#007496"/>
						<stop  offset="0.417" style="stop-color:#007496"/>
						<stop  offset="1" style="stop-color:#5BCAF4"/>
					</linearGradient>
					<path id="SVGID_47_" style="fill:url(#SVGID_52_);" d="M1319.5,727.7c-0.5,0.4-1.1,0.4-1.8,0.3c-1.1-0.1-2.3-0.2-3.7,1.6
						c0.7,0.7,1.2,1.7,1.2,2.8v2c0.3,0,0.6,0,0.9,0c0.8,0,1.8-0.1,2.3,0c0.9,0.2,1.8,0.3,2.9,0.7v-2.5c0-2.1-0.4-3.8-1-5.2
						C1320,727.6,1319.7,727.6,1319.5,727.7 M1323.1,726.4c0.9,1.7,1.4,3.8,1.4,6.2v4.6c0.5,0.4,0.9,0.9,1.4,1.5
						c1.7,1.1,3.3,2.5,4.7,4c0-4.9,0-10.2,0-10.3c0-3.3-0.8-6.3-2.4-8.9C1326.9,724.7,1325,725.7,1323.1,726.4"/>
				</g>
			</g>
			<g id="XMLID_62_">
				<g>
					<linearGradient id="SVGID_53_" gradientUnits="userSpaceOnUse" x1="1310.2067" y1="729.842" x2="1271.9452" y2="734.5271">
						<stop  offset="0" style="stop-color:#D83C73"/>
						<stop  offset="0.1992" style="stop-color:#CE3869"/>
						<stop  offset="0.5406" style="stop-color:#B32E4D"/>
						<stop  offset="0.9803" style="stop-color:#871D21"/>
						<stop  offset="1" style="stop-color:#851C1F"/>
					</linearGradient>
					<path id="SVGID_33_" style="fill:url(#SVGID_53_);" d="M1301.4,732.1v2.9c1.4-0.5,2.6-0.9,3.7-1.2c0.9-0.2,1.7-0.4,2.4-0.5v-1
						c0-1.2,0.5-2.2,1.4-3l2.1,2.5c-0.5-0.9-1.2-2-2-2.9c-1.6-0.4-4.3-1.1-6.9-2C1301.6,728.7,1301.4,730.4,1301.4,732.1
						 M1292,732.2v8.6c0.3-0.3,0.6-0.4,0.7-0.4c1.3-1,3.7-3.1,5.5-4v-4.2c0-2.3,0.4-4.4,1.2-6.3c-1-0.5-1.9-1-2.6-1.5
						c-0.2-0.2-0.5-0.4-0.7-0.5c-0.1,0-0.7-0.5-1.3-0.9C1293,725.5,1292,728.7,1292,732.2"/>
				</g>
			</g>
			<g id="XMLID_58_">
				<g>
					<linearGradient id="SVGID_54_" gradientUnits="userSpaceOnUse" x1="1291.9707" y1="737" x2="1307.5092" y2="737">
						<stop  offset="0" style="stop-color:#EF5136"/>
						<stop  offset="0.4045" style="stop-color:#CB3740"/>
						<stop  offset="0.7805" style="stop-color:#AF2447"/>
						<stop  offset="1" style="stop-color:#A51D4A"/>
					</linearGradient>
					<path id="SVGID_29_" style="fill:url(#SVGID_54_);" d="M1292,740.4v0.4c1.3,0,3.9-1.2,4.8-1.2c0.5,0,0.9,0,1.4-0.1v-3.3
						C1296.4,737,1293.5,739.2,1292,740.4 M1301.4,735v3.1c0.4-0.3,0.7-0.7,1-1.1c1.5-2.4,3.9-3,5.2-3.6v-0.2
						C1306.1,733.6,1303.6,734.3,1301.4,735"/>
				</g>
			</g>
			<g id="XMLID_55_">
				<g>
					<linearGradient id="SVGID_55_" gradientUnits="userSpaceOnUse" x1="1314.5577" y1="732.5773" x2="1333.9901" y2="753.4067">
						<stop  offset="0" style="stop-color:#698735"/>
						<stop  offset="1" style="stop-color:#D1D747"/>
					</linearGradient>
					<path id="SVGID_28_" style="fill:url(#SVGID_55_);" d="M1324.5,747.2c0.1,0.3,0.2,0.6,0.1,1c1.5,0.9,2.9,1.9,4.2,2.8h1.9
						c0,0,0-2.4,0-5.5c-0.6-0.9-1.3-1.9-2.1-3.1c-0.9-1.4-1.8-2.6-2.6-3.6c-0.7-0.8-1.1-1.3-1.4-1.7L1324.5,747.2L1324.5,747.2z
						 M1315.1,734.3v5.1c0.2,0.1,0.3,0.1,0.4,0.2c1.9,1,3.4,2.4,4.8,3.8c0.3,0.3,0.6,0.5,0.9,0.8v-9c-1.8-0.8-3.9-0.9-5.2-0.9
						C1315.7,734.3,1315.4,734.3,1315.1,734.3"/>
				</g>
			</g>
			<g id="XMLID_54_">
				<g>
					<linearGradient id="SVGID_56_" gradientUnits="userSpaceOnUse" x1="1326.2289" y1="742.0499" x2="1334.9142" y2="742.0499">
						<stop  offset="0" style="stop-color:#698735"/>
						<stop  offset="1" style="stop-color:#095B83"/>
					</linearGradient>
					<path id="SVGID_27_" style="fill:url(#SVGID_56_);" d="M1328.6,742.3c0.8,1.2,1.5,2.2,2.1,3.1c0-0.9,0-1.8,0-2.7
						c-1.4-1.5-3-2.9-4.7-4C1326.8,739.7,1327.6,740.9,1328.6,742.3"/>
				</g>
			</g>
			<g id="XMLID_50_">
				<g>
					<linearGradient id="SVGID_57_" gradientUnits="userSpaceOnUse" x1="1316.2238" y1="733.7567" x2="1318.0457" y2="762.7782">
						<stop  offset="0" style="stop-color:#698735"/>
						<stop  offset="1" style="stop-color:#D1D747"/>
					</linearGradient>
					<path id="SVGID_26_" style="fill:url(#SVGID_57_);" d="M1324.5,750.9h5.2c-1.6-1-3.5-1.9-5.1-2.7v-0.1c0,0-0.1,0-0.1-0.1V750.9
						z M1304.8,749.1c0.1,0.1,0.1,0.9,0.1,1.8h2.6v-6.6C1306.8,746.1,1305.9,747.7,1304.8,749.1 M1315.1,750.9h6.2v-6.1
						c-2.4-1.7-4.9-3.7-6.2-5.2V750.9z"/>
				</g>
			</g>
			<linearGradient id="SVGID_58_" gradientUnits="userSpaceOnUse" x1="1304.1802" y1="745.3" x2="1310.026" y2="745.3">
				<stop  offset="0" style="stop-color:#AD5F28"/>
				<stop  offset="1" style="stop-color:#215A4A"/>
			</linearGradient>
			<path id="SVGID_25_" style="fill:url(#SVGID_58_);" d="M1306.8,742.4c-0.5,2.8-2.1,2-2.6,4.8c-0.1,0.4,0.2,2.2,0.4,3.7h0.6
				c0.6-2.1,1.5-4.3,2.3-6.5v-4.7C1307.2,740.6,1306.9,741.5,1306.8,742.4"/>
			<g id="XMLID_45_">
				<g>
					<linearGradient id="SVGID_59_" gradientUnits="userSpaceOnUse" x1="1315.1261" y1="745.1" x2="1330.2986" y2="745.1">
						<stop  offset="0" style="stop-color:#698735"/>
						<stop  offset="1" style="stop-color:#215A4A"/>
					</linearGradient>
					<path id="SVGID_24_" style="fill:url(#SVGID_59_);" d="M1324.5,748.4c1.5,0.9,3.2,1.9,4.5,2.5h1.3c-0.9-1.2-3.5-2.9-5.8-4.5
						V748.4z M1315.1,739.6c1.4,1.7,4.1,3.6,6.2,6V744c-0.4-0.3-0.7-0.5-0.9-0.7c-1.4-1.4-2.9-2.7-4.8-3.8c-0.1-0.1-0.3-0.1-0.4-0.2
						L1315.1,739.6L1315.1,739.6z"/>
				</g>
			</g>
			<g id="XMLID_44_">
				<g>
					<linearGradient id="SVGID_60_" gradientUnits="userSpaceOnUse" x1="1310.4021" y1="734.9224" x2="1310.1958" y2="712.7078">
						<stop  offset="0" style="stop-color:#B12850"/>
						<stop  offset="1" style="stop-color:#007497"/>
					</linearGradient>
					<path id="SVGID_23_" style="fill:url(#SVGID_60_);" d="M1313.9,720.6c0.3-1.6,0.8-3.3,1.7-4.7c-0.3,0-0.6,0-0.9,0
						c-1.3,0-2.3,0.2-3.4,0.6c-0.8,0.3-1.6,0.6-2.7,1.3c-1.5,0.9-2.7,2.1-3.7,3.4c2.4,2.8,5.1,8.3,6.3,11l0.3,0.3l1.2-1.5
						c0.3-1.8,0.4-4.2,1.1-5.1c-0.1-0.3-0.1-0.6-0.2-0.8c0-0.3,0-1.2,0.1-2.5c-2.4-0.4-4.6-0.1-5.9,0.4
						C1309.1,721.3,1311.4,720.5,1313.9,720.6z"/>
				</g>
			</g>
			<linearGradient id="SVGID_61_" gradientUnits="userSpaceOnUse" x1="1312.9092" y1="730.1394" x2="1303.1295" y2="711.0882">
				<stop  offset="0" style="stop-color:#B12850"/>
				<stop  offset="1" style="stop-color:#007497"/>
			</linearGradient>
			<path id="SVGID_22_" style="fill:url(#SVGID_61_);" d="M1311.2,715.8c0.1,0,0.2,0,0.3-0.1c0.3-0.1,0.6-0.1,0.3-0.1h-0.6l0,0
				c-0.1,0-0.1,0-0.1,0h-1.1c-0.7,0-1.4,0-2.1,0.1l0,0c-2.8,0.3-5.5,1.1-7.7,2.3c0.2,0.2,0.4,0.3,0.6,0.5c0.9,0.3,1.7,0.8,2.6,1.3
				c0.1,0,0.1,0.1,0.2,0.1C1305.7,717.8,1308.4,716.4,1311.2,715.8L1311.2,715.8z M1311.2,715.8L1311.2,715.8L1311.2,715.8
				L1311.2,715.8z"/>
			<linearGradient id="SVGID_62_" gradientUnits="userSpaceOnUse" x1="1310.1125" y1="735.5609" x2="1328.7228" y2="711.4848">
				<stop  offset="0" style="stop-color:#007496"/>
				<stop  offset="1" style="stop-color:#5BCAF4"/>
			</linearGradient>
			<path id="SVGID_21_" style="fill:url(#SVGID_62_);" d="M1313.9,725.5c-0.1,0.1-1,0.7-1.6,5.8l1.6-1.9c0.2,0.2,0.3,0.3,0.5,0.5
				c0.5-1,1.1-1.8,1.5-1.7c0.1,0,0.3,0,0.5,0c0.7,0,1,0.3,2.4-0.1c0.2-0.2,0.9-0.7,1.5-1.1c-1.2-2.3-3.1-3.6-5.2-4.2
				C1314.4,724.2,1314,725.4,1313.9,725.5 M1316.7,717.6c-0.3,0.9-0.6,1.8-0.9,2.6c0,0-0.1,0.2-0.2,0.6c2.6,0.5,5.1,2.1,6.8,4.6
				c1.7-1.1,3.6-1.9,5.5-2.4c-2.2-3.3-5.7-5.7-10.2-6.7c-0.2,0-0.4-0.1-0.7-0.1C1317,716.5,1316.9,717,1316.7,717.6"/>
			<linearGradient id="SVGID_63_" gradientUnits="userSpaceOnUse" x1="1318.614" y1="725.55" x2="1328.3005" y2="725.55">
				<stop  offset="0" style="stop-color:#00678C"/>
				<stop  offset="1" style="stop-color:#1461AD"/>
			</linearGradient>
			<path id="SVGID_20_" style="fill:url(#SVGID_63_);" d="M1318.6,728.2c0.5-0.1,1.1-0.3,1.7-0.6c-0.1-0.2-0.2-0.3-0.2-0.5
				C1319.5,727.6,1318.8,728,1318.6,728.2 M1322.4,725.3c0.3,0.4,0.5,0.8,0.7,1.2c1.9-0.9,3.8-1.9,5.2-2.9c-0.1-0.2-0.3-0.5-0.4-0.7
				C1326,723.4,1324.1,724.2,1322.4,725.3"/>
			<linearGradient id="XMLID_2_" gradientUnits="userSpaceOnUse" x1="1312.603" y1="725.7" x2="1314.8865" y2="725.7">
				<stop  offset="0" style="stop-color:#00678C"/>
				<stop  offset="1" style="stop-color:#19469C"/>
			</linearGradient>
			<path id="XMLID_31_" style="fill:url(#XMLID_2_);" d="M1313.5,725c0,0.2-0.9,3.5-0.8,3.8c0.1-0.1,1.2-3.2,1.3-3.3
				c0.1-0.1,0.5-1.3,1-2.6c-0.4-0.1-0.9-0.2-1.3-0.3C1313.4,723.8,1313.4,724.8,1313.5,725"/>
			<linearGradient id="XMLID_3_" gradientUnits="userSpaceOnUse" x1="1313.8567" y1="718.3" x2="1316.9567" y2="718.3">
				<stop  offset="0" style="stop-color:#00678C"/>
				<stop  offset="1" style="stop-color:#19469C"/>
			</linearGradient>
			<path id="XMLID_30_" style="fill:url(#XMLID_3_);" d="M1313.9,720.6c0.6,0,1.2,0.1,1.8,0.2c0.1-0.4,0.2-0.6,0.2-0.6
				c0.3-0.8,0.6-1.7,0.9-2.6c0.2-0.5,0.2-1.1,0.2-1.6c-0.2,0-0.3-0.1-0.5-0.1c-0.3,0-0.6-0.1-0.9-0.1
				C1314.7,717.3,1314.2,719,1313.9,720.6"/>
			<linearGradient id="SVGID_64_" gradientUnits="userSpaceOnUse" x1="1313.548" y1="735.9987" x2="1293.3966" y2="716.1911">
				<stop  offset="0" style="stop-color:#B12850"/>
				<stop  offset="1" style="stop-color:#604B9E"/>
			</linearGradient>
			<path id="SVGID_19_" style="fill:url(#SVGID_64_);" d="M1302,726.8c1.6,0.5,2.7,0.9,3.6,1.6c0.7,0.5,2.8,1.5,2.8,1.5
				s0.2-0.2,0.4-0.5l2.5,3c-0.5-0.9-1.2-2.4-2.2-4.5c-0.3-0.5-1-1.6-1.2-1.7c-0.6-0.3-1.6-2.4-3.5-4.5
				C1303.3,723.2,1302.5,725,1302,726.8 M1294.8,722.9c0.3,0.2,0.6,0.5,1,0.8c1.5,0.1,2.5,1.3,3.6,2.1c0.9-2.1,2.2-3.9,3.7-5.4
				c-0.6-0.6-1.3-1.1-2.1-1.6c0,0-0.4-0.3-0.8-0.7C1298,719.2,1296.2,720.9,1294.8,722.9"/>
			<linearGradient id="SVGID_65_" gradientUnits="userSpaceOnUse" x1="1294.7787" y1="726.2" x2="1308.4299" y2="726.2">
				<stop  offset="0" style="stop-color:#521A57"/>
				<stop  offset="0.4741" style="stop-color:#5C2250"/>
				<stop  offset="1" style="stop-color:#6D3044"/>
			</linearGradient>
			<path id="SVGID_18_" style="fill:url(#SVGID_65_);" d="M1302,727.1c2.2,0.9,4.5,1.8,6.5,2.7l0,0c-1-0.5-3.8-2.2-6.2-3.6
				C1302.1,726.5,1302,726.8,1302,727.1 M1294.8,722.9c0.8,0.6,1.6,1.2,1.7,1.3c0.8,0.6,1.8,1.2,2.8,1.7c0.1-0.3,0.3-0.7,0.4-1
				c-0.2-0.1-0.3-0.2-0.5-0.2c-1.2-0.5-2.7-1.8-4.3-2.1C1294.9,722.7,1294.8,722.8,1294.8,722.9"/>
			<linearGradient id="SVGID_66_" gradientUnits="userSpaceOnUse" x1="1300.0688" y1="725.2125" x2="1311.3364" y2="725.2125">
				<stop  offset="0" style="stop-color:#842447"/>
				<stop  offset="1" style="stop-color:#392663"/>
			</linearGradient>
			<path id="SVGID_17_" style="fill:url(#SVGID_66_);" d="M1304.1,722c1.4,1.7,2.6,3.5,3.4,5.6c0.3,0.8,0.7,1.5,1.1,2.1
				c0.1-0.1,0.2-0.2,0.3-0.3l2.5,3c-0.7-1.7-3.7-8.2-6.5-11.3C1304.6,721.4,1304.3,721.7,1304.1,722 M1302.8,720.6
				c0.2-0.2,0.5-0.5,0.7-0.7c-0.1,0-0.1-0.1-0.2-0.1c-0.8-0.5-2.1-1.2-2.9-1.6C1301.2,718.9,1302,719.7,1302.8,720.6 M1300.1,718.1
				L1300.1,718.1c0.1,0,0.2,0.1,0.3,0.1C1300.3,718.1,1300.2,718.1,1300.1,718.1C1300.1,718,1300.1,718,1300.1,718.1"/>
		</g>
	</g>
	<g>
		<g>
			<path d="M1295.3,865.1c0,0.3,0.3,0.4,0.8,0.4h3.5l-1.4,2.2h-4.4l-0.1-9c0,0,0.1-0.2,0.7-1.1c0.4-0.5,0.6-0.8,0.8-1
				C1295.2,858.1,1295.1,864.5,1295.3,865.1 M1310.7,859.9v8c0.7-0.2,1.5-0.4,1.6-1.9c0.1-1.4,0.1-5.2-0.1-8.2
				C1311.5,858.9,1311.2,859.1,1310.7,859.9 M1343.1,860.4l-1.3,2.3c0.7,0.8,1.2,1.6,1.4,2.4l0,0c0.2,0.7,0.3,1.2,0.3,2.1
				c-0.2-0.9-0.5-1.4-0.7-1.7h-3.8c-0.3,0-0.5-0.2-0.5-0.3c-0.2-0.8-0.4-1.9-0.5-3.2c-0.1-1.1-0.1-2.2-0.2-3.3
				c-0.1-0.8-0.2-1.5-0.2-2c-0.3,0.2-0.6,0.6-0.8,1c-0.2,0.4-0.4,0.8-0.4,1.2c0,1.2,0,2-0.1,2.5c-0.1,1-0.4,1.8-0.9,2.4
				c-0.1,0.1-0.2,0.4-0.3,0.5v0.1c0,0,0,0.1,0,0.2c0,0.3,0,1-0.4,1.4l-0.1,0.2V866c0.2-1.4-0.8-4.6-1.8-6c-0.9-1.2-2.4-2.4-3.5-2.8
				c-0.3,1.2-0.5,2-0.5,3c0,0.3,2.4,1.9,2.6,1.8l0.4-0.2l0,0c1.6,1.4,2.1,3,2.1,3.2c0,0.5-1,1.3-3,2.3l-3.9,1.6c0,0-0.1,0-0.1,0.1
				s0.1,0,0.1,0h0.8c4.1,0,6.7-0.7,7.7-2.8c0.4-1.1,0.8-2,0.9-2.5l0.1-0.2l0.1,0.2c0.2,0.6,0.3,1.3,0.4,2.2c0,0.7,0.1,1.2,0.1,1.9h7
				c0.5-1.6,0.8-2.5,0.8-3.4C1344.9,862.9,1344.3,861.6,1343.1,860.4 M1307.8,857.5c-0.1-0.3-0.2-0.6-0.3-0.8
				c-0.4,0.5-0.9,1.2-1.4,2.3c-0.1,0.2-0.1,0.5,0.1,0.7c0.1,0.1,0.4,0.4,0.4,0.4l0,0c0.1,0.4,0.3,4.7,0.3,5.2l0,0c0,0.6,0,1.1-0.3,2
				c0-0.8-0.1-1.3-0.2-1.7h-3.7v-0.1c0-0.1,0.2-0.2,0.4-0.6c0.2-0.3,0.3-0.8,0.3-1.1c0-0.6-0.2-1.1-0.9-1.6
				c-0.6-0.4-1.1-0.6-1.7-0.6c-1,0-1.3,0.3-1.8,0.8c-0.3,0.3-0.7,1-1.2,2.1c0.6-0.1,0.7-0.1,0.8-0.1c0.8,0,1.5,0.4,2,1.1
				c0.1,0.1,1.4,1.9,1.6,2.3h5.3c0.1,0,0.3-0.2,0.3-0.2c0.1-0.1,0.2-0.1,0.4-1.1c0.2-0.8,0.2-1.2,0.2-1.5l0.1-4.1l0.8-1.7
				C1308.9,858.8,1307.9,857.7,1307.8,857.5 M1326.6,858.8c-0.5-0.3-1.5-1.4-1.6-1.6c-0.1-0.3-0.2-0.6-0.3-0.8
				c-0.4,0.5-0.9,1.2-1.4,2.3c-0.1,0.2-0.1,0.5,0.1,0.7c0.1,0.1,0.4,0.4,0.4,0.4l0,0c0.1,0.4,0.8,4.4,0.8,5c0,0.1,0.1,0.6,0.1,0.9
				c0.1,0.6,0.1,1.3-0.6,2.5c0.1-0.5,0.1-1,0.1-1.4c-0.3,0.1-0.6,0.3-1,0.4c-0.8,0.2-1.5,0.3-2,0.3c-0.7,0-1.3-0.2-1.8-0.6
				c-0.6-0.4-0.9-1-0.9-1.7c0-0.3,0.2-0.8,0.5-1.5c0.1-0.1,0-0.2,0-0.2l0,0l0,0c-0.2,0-0.8,0.4-1.1,1.2c-0.5,1.1-0.6,1.7-0.6,2.5
				c0,0.9,0.3,1.4,1,1.9c0.6,0.4,1.4,0.6,2.3,0.6c1.2,0,2.4-0.3,3.4-1c1.1-0.8,1.5-1.5,1.9-2.6c0.1-0.2,0.3-0.8,0.3-1.5l-0.4-4.2
				L1326.6,858.8z M1289.5,863c0,0-0.7-0.9-1-1.2c-0.3-0.2-0.5-0.4-0.7-0.4c-0.3,0-0.6,0.2-0.8,0.6c0,0,0,0,0,0.1
				c0,1.1,1.4,1.5,2.2,1.1L1289.5,863z M1290.9,861.5c0.5,1.3,0.8,2,0.7,3.4l-0.5,2.8h-10.7c-0.8,0-1.4,0-1.9-0.6s-0.8-1.2-0.8-2
				c0-0.5,0.1-1.1,0.3-2c0.3-0.9,0.5-1.5,0.8-1.7c0.2,0,0.2,0.1,0.2,0.2c0,0.2,0,0.5-0.1,0.9s-0.1,0.7-0.1,0.9c0,0.5,0.2,1,0.6,1.5
				c0.4,0.4,0.9,0.6,1.4,0.6h8.9c0.2,0.5,0.4,1.1,0.5,1.9c0.1-0.7,0.1-1.4,0-2.1l0,0c0-0.2-0.1-0.5-0.1-0.9
				c-0.1-0.7-0.4-1.3-0.4-1.3l-0.1,0.1c-0.5,0.7-1.4,1.5-2.3,1.5c-0.5,0-0.8-0.1-1.2-0.3c-0.5-0.3-0.8-0.6-0.8-1.1
				c0-0.7,0.4-1.6,1.3-2.5s1.7-1.4,2.4-1.4C1289.7,859.4,1290.4,860.1,1290.9,861.5 M1284.8,858.4l1.3,1.4l1.3-1.4l-1.3-1.3
				L1284.8,858.4z M1299.7,858.9l1.3,1.4l1.3-1.4l-1.3-1.3L1299.7,858.9z M1338.6,858.1l1.3,1.4l1.3-1.4l-1.3-1.3L1338.6,858.1z
				 M1341,858.1l1.3,1.4l1.3-1.4l-1.3-1.3L1341,858.1z M1336.4,876.7c-1.2,0-2,0.7-2.6,1.5l0,0v-4.6l-2.2,0.3v10.9h2.2v-6.2l0,0
				c0.4-0.2,0.8-0.3,1.1-0.3c1,0,1.6,0.6,1.6,1.8l0,0v4.6h2.2v-5.3C1338.7,877.6,1337.7,876.7,1336.4,876.7 M1309.3,884.8h2.5
				l-4.1-11.2l-1.5,0.2l-4.5,11h1.3l1.1-2.6h2.4l-0.1-1.1h-1.8l1.9-4.5L1309.3,884.8z M1283.1,884.8h2.2v-11.1l-2.2,0.3V884.8z
				 M1295.6,884.8h2.2v-11.1l-2.2,0.3V884.8z M1268.6,875.2h3l0,0v9.6h2.4v-9.6l0,0h3v-1.3h-8.4V875.2z M1278.4,874.6l1.3,1.4
				l1.3-1.4l-1.3-1.3L1278.4,874.6z M1278.6,884.8h2.2V877l-2.2,0.3V884.8z M1313.4,884.8h2.2v-11.1l-2.2,0.3V884.8z M1327.1,882.9
				c-0.5,0.3-0.9,0.5-1.6,0.5c-1.9,0-3.7-1.8-3.7-4.9c0-2.2,1.2-3.7,2.9-3.7c1.3,0,2.4,0.9,2.4,2.3l2.4-0.3c-0.2-2-2.1-3.1-4.5-3.1
				c-2.8,0-5.5,2-5.5,5.8c0,3.4,2.2,5.5,4.6,5.5c1.5,0,2.5-0.7,3-1.7v1.5h2.3v-5l-2.4,0.3L1327.1,882.9L1327.1,882.9z M1343.9,876.6
				c-0.8,0-1.4,0.2-2,0.6c-0.6,0.4-1,1.1-1.2,2c0.6-0.6,1.5-1,2.3-1c1,0,1.8,0.4,1.8,1.8v1.3v1.8c-0.3,0.2-0.8,0.4-1.2,0.4
				c-0.8,0-1.2-0.5-1.2-1.2c0-0.6,0.3-1.3,0.3-1.3c-1.5,0.5-2.3,1.4-2.3,2.3c0,0.9,0.7,1.7,1.8,1.7c1.1,0,2.1-0.7,2.5-1.6v1.5h2.1
				V880C1346.9,878.1,1345.9,876.6,1343.9,876.6 M1290.6,876.6c-0.8,0-1.4,0.2-2,0.6c-0.6,0.4-1,1.1-1.2,2c0.6-0.6,1.5-1,2.3-1
				c1,0,1.8,0.4,1.8,1.8v1.3v1.8c-0.3,0.2-0.8,0.4-1.2,0.4c-0.8,0-1.2-0.5-1.2-1.2c0-0.6,0.3-1.3,0.3-1.3c-1.5,0.5-2.3,1.4-2.3,2.3
				c0,0.9,0.7,1.7,1.8,1.7c1.1,0,2.1-0.7,2.5-1.6v1.5h2.1V880C1293.7,878.1,1292.6,876.6,1290.6,876.6 M1351.7,876.9v-0.3
				c0-1.2,0.4-1.6,1.4-1.6c0.3,0,0.6,0,0.8,0.1c-0.1-0.8-0.8-1.3-1.9-1.3c-1.6,0-2.4,1.1-2.4,2.6v0.5h-1.2v1.2h1.2v6.7h2.1v-6.7h2.4
				v-1.2H1351.7z M1280.9,894.5c1.3,0,2-1,2-2.1c0-1-0.6-2-1.9-2h-0.9v4L1280.9,894.5 M1281,889.8c1.7,0,2.6,1.3,2.6,2.6
				s-0.9,2.7-2.7,2.7h-1.5v-5.3H1281 M1290.1,889.8h-0.7v3.3c0,0.7-0.3,1.5-1.3,1.5s-1.3-0.7-1.3-1.5v-3.3h-0.7v3.3
				c0,1.2,0.7,2.1,2,2.1c1.2,0,2-0.9,2-2.1V889.8z M1295.2,894.5c0.6,0,0.9-0.4,0.9-0.9s-0.3-0.9-1-0.9h-1.4v1.8L1295.2,894.5
				 M1293.8,892.1h1.3c0.6,0,0.9-0.4,0.9-0.8c0-0.4-0.3-0.8-0.9-0.8h-1.3V892.1z M1295.9,892.3c0.7,0.2,1,0.7,1,1.3
				c0,0.7-0.6,1.5-1.8,1.5h-2v-5.3h1.9c1.1,0,1.6,0.7,1.6,1.3C1296.6,891.6,1296.4,892.1,1295.9,892.3 M1306.7,895.1h0.7v-5.3h-0.7
				V895.1z M1302.8,893.2l-1.1-2.5l-1.1,2.5H1302.8z M1304.4,895.1h-0.8l-0.6-1.3h-2.7l-0.6,1.3h-0.8l2.4-5.3h0.7L1304.4,895.1z
				 M1340.2,891.1c2,0,3,1.1,3,4h-4.7l0.3-0.7h3.6c-0.1-1.9-0.8-2.6-2.3-2.7h-0.6l0.3-0.6H1340.2z M1335.7,894.4v-3.2l0.6-0.1v4
				h-8.5l-0.1-0.7H1335.7z M1323.6,895.1v-3.4h-2.5c-1.2,0-1.7,0.3-1.7,0.9c0,0.3,0.1,0.5,0.6,0.7l0.6,0.3c0.6,0.3,0.9,0.7,0.9,1.2
				c0,0.9-1,1.6-3,1.6c-2.3,0-3.2-0.9-3.2-3.2v-0.7h0.6v0.6c0,2.1,0.8,2.6,2.6,2.6c1.7,0,2.3-0.4,2.3-0.9c0-0.3-0.2-0.5-0.6-0.7
				l-0.6-0.3c-0.6-0.3-0.8-0.7-0.8-1.2c0-0.8,0.7-1.5,2.2-1.5h3.3v3.3h3.8v0.7L1323.6,895.1L1323.6,895.1z M1336.1,895.4l0.5,0.5
				l-0.5,0.5l-0.5-0.5L1336.1,895.4z M1317.9,896.7l0.5,0.5l-0.5,0.5l-0.5-0.5L1317.9,896.7z M1318.8,896.7l0.5,0.5l-0.5,0.5
				l-0.5-0.5L1318.8,896.7z"/>
		</g>
		<g>
			<path d="M1315.1,844v5.9h6.2v-6.4c-1.2,0.3-2.4,0.5-3.7,0.5H1315.1z"/>
			<path d="M1317.5,823.3c-1.7-1.4-3.9-2.2-6.2-2.2c-1.3,0-2.6,0.3-3.7,0.7l0,0c1.3-1.5,3.2-2.2,5.3-2.3l0,0c0.7,0,1.3,0,2,0.2
				c2.6,0.4,5,1.7,6.7,3.6c2.8,0,5.4,0,7.4,0c-2.1-4.2-6-7.3-11.3-8.5c-0.3-0.1-0.8-0.2-1.2-0.2c-0.6-0.1-1.2-0.1-1.9-0.1
				c-1.3,0-2.3,0.2-3.4,0.6c-0.8,0.3-1.6,0.6-2.7,1.3c-2.8,1.7-4.6,4.3-5.8,7.1c0.7-0.1,1.4-0.2,2.2-0.2
				C1308,823.3,1312.8,823.3,1317.5,823.3z"/>
			<path d="M1328.4,839.4c-1.1,1.1-2.4,2.1-3.8,2.8v7.6h6.2c0,0,0-8,0-13.5C1330.1,837.4,1329.3,838.5,1328.4,839.4z"/>
			<path d="M1319.9,826.1c-5.5,0-11.4,0-15.1,0c-1.1,0-2.1,0.1-3.1,0.4c-0.2,1.2-0.4,2.4-0.4,3.5c0,0.3,0,0.6,0,0.9l0,0v0.2v10.1
				h6.2v-10.1c0-1.2,0.5-2.2,1.4-2.9l2.4,2.9l2.4-2.9c0.8,0.7,1.4,1.8,1.4,2.9v10.1h2.5c1.2,0,2.5-0.2,3.7-0.6v-9.5
				C1321.3,829.3,1320.8,827.5,1319.9,826.1z"/>
			<path d="M1323.5,826.1c0.7,1.4,1.1,3,1.1,4.7c0,0.2,0,0.4,0,0.6v7.6c0.6-0.4,1.2-0.9,1.8-1.5c2.1-2.1,3.6-4.8,4.3-7.9
				c-0.1-1.2-0.3-2.3-0.6-3.4C1328.4,826,1326.1,826,1323.5,826.1z"/>
			<path d="M1291.8,849.8h6.2c0,0,0-2.4,0-5.9h-6.2V849.8z"/>
			<path d="M1298.3,828c-3.1,2-5.4,5.4-6.4,9.5v3.6h6.2c0-3.2,0-6.9,0-10.3C1298,829.9,1298.1,829,1298.3,828z"/>
			<rect x="1301.3" y="844" width="6.2" height="5.9"/>
			<path d="M1299.3,824.4c2.3-5.4,7.2-9,12.2-10c0.3-0.1,0.6-0.1,0.3-0.1h-1.8c-10.6,0-18,7.1-18.2,16.5
				C1293.7,827.8,1296.3,825.6,1299.3,824.4z"/>
			<path style="fill:#5E6738;" d="M1317.7,841.2h-2.5v2.8h2.5c1.2,0,2.5-0.2,3.7-0.5v-2.9C1320.1,841,1318.9,841.2,1317.7,841.2z"/>
			<path style="fill:#5E6738;" d="M1330.8,836.3c0-2.9,0-5.1,0-5.1c0-0.6,0-1.2-0.1-1.7c-0.8,3.1-2.2,5.9-4.3,7.9
				c-0.6,0.6-1.2,1.1-1.8,1.5v3.3c1.4-0.7,2.6-1.7,3.8-2.8C1329.3,838.5,1330.1,837.4,1330.8,836.3z"/>
			<path style="fill:#5E6738;" d="M1291.8,841.2v2.8h6.2c0-0.9,0-1.8,0-2.8H1291.8z"/>
			<rect x="1301.3" y="841.2" style="fill:#5E6738;" width="6.2" height="2.8"/>
			<path style="fill:#5E6738;" d="M1291.8,837.6c1.1-4.1,3.4-7.5,6.4-9.5c0.2-1.3,0.6-2.5,1.1-3.7c-3,1.2-5.6,3.4-7.5,6.3
				c0,0.1,0,0.2,0,0.3V837.6z"/>
			<path style="fill:#5E6738;" d="M1304.8,826.1c3.7,0,9.7,0,15.1,0c-0.6-1.1-1.4-2-2.4-2.8c-4.7,0-9.5,0-12.7,0
				c-0.7,0-1.5,0.1-2.2,0.2c-0.4,1-0.7,2-0.9,3C1302.7,826.2,1303.8,826.1,1304.8,826.1z"/>
			<path style="fill:#5E6738;" d="M1323.5,826.1c2.6,0,4.9,0,6.6,0c-0.3-1-0.7-1.9-1.1-2.8c-2,0-4.6,0-7.4,0
				C1322.4,824.1,1323,825,1323.5,826.1z"/>
		</g>
	</g>
</g>
</svg>
