<?xml version="1.0" encoding="utf-8"?>
<!-- Generator: Adobe Illustrator 19.1.0, SVG Export Plug-In . SVG Version: 6.00 Build 0)  -->
<svg version="1.1" id="app_x5F_world--parent" xmlns="http://www.w3.org/2000/svg" xmlns:xlink="http://www.w3.org/1999/xlink"
	 x="0px" y="0px" width="3840px" height="2160px" viewBox="0 0 3840 2160" style="enable-background:new 0 0 3840 2160;"
	 xml:space="preserve">
<rect id="app_x5F_UAE--zoom" x="2306" y="946" style="fill:none;" width="346" height="194"/>
<rect id="app_x5F_Lebanon-region--zoom" x="1646" y="620" style="fill:none;" width="224" height="128"/>
<rect id="app_x5F_Oman--zoom" x="2466" y="1030" style="fill:none;" width="270" height="152"/>
<g id="NorthPoint" transform="translate(1831.070256, 181.453972) rotate(56.000000) translate(-1831.070256, -181.453972) translate(1792.570256, 137.953972)">
	<path id="Fill-933_1_" style="fill:#8A1538;" d="M1186.4-1292.2l15.2,19.6l-22.6-7L1186.4-1292.2z M1175.6-1274.8l40.2,10.6l-26-32
		l-40.2-10.6L1175.6-1274.8z M1186.4-1292.2l15.2,19.6l-22.6-7L1186.4-1292.2z M1175.6-1274.8l40.2,10.6l-26-32l-40.2-10.6
		L1175.6-1274.8z M1186.4-1292.2l15.2,19.6l-22.6-7L1186.4-1292.2z M1215.8-1264.2l-26-32l-40.2-10.6l26,32L1215.8-1264.2z
		 M1161.6-1326c22-10.8,48.6-2,59.8,20.4c10.8,22,2,48.6-20.4,59.8c-22,10.8-48.6,2-59.8-20.4
		C1130.4-1288.2,1139.2-1314.6,1161.6-1326z M1205.6-1236.8c27.4-13.4,37.8-46.8,24.6-73c-13.4-27.2-46-37.4-73.4-24
		s-37.4,46.4-24.6,73.2C1146.4-1234.6,1178.8-1224,1205.6-1236.8z M1186.4-1292.2l15.2,19.6l-22.6-7L1186.4-1292.2z M1175.6-1274.8
		l40.2,10.6l-26-32l-40.2-10.6L1175.6-1274.8z M1186.4-1292.2l15.2,19.6l-22.6-7L1186.4-1292.2z M1175.6-1274.8l40.2,10.6l-26-32
		l-40.2-10.6L1175.6-1274.8z M1186.4-1292.2l15.2,19.6l-22.6-7L1186.4-1292.2z M1175.6-1274.8l40.2,10.6l-26-32l-40.2-10.6
		L1175.6-1274.8z M1186.4-1292.2l15.2,19.6l-22.6-7L1186.4-1292.2z M1175.6-1274.8l40.2,10.6l-26-32l-40.2-10.6L1175.6-1274.8z"/>
	<g id="Back-Copy-5_1_" transform="translate(34.000000, 0.000000)">
		
			<text transform="matrix(0.5505 -0.8348 0.8348 0.5505 1090.6328 -1312.6851)" style="fill:#8A1538; font-family:'ArialMT'; font-size:27.7598px;">N</text>
	</g>
</g>
<g id="app_x5F_Iraq--marker">
	<rect id="app_x5F_Iraq--tap" x="1996" y="666.8" style="fill:#FFFFFF;fill-opacity:0;" width="75" height="75"/>
	<polygon id="Fill-124" style="fill:#8A1538;" points="2010,678 2010,726 2025.8,726 2033.6,734.6 2041.6,726 2058,726 2058,678 	
		"/>
	<g id="Group" transform="translate(5.000000, 5.000000)">
		<path id="Path" style="fill:#FFFFFF;" d="M2027.6,685c-7.6,0-12.6,4.6-12.6,11.4V709h4c0,0,0-6.6,0-12.6c0-6.4,4.9-10.5,9.7-11.5
			c0.2,0,0.5,0.1,0.3,0.1H2027.6z"/>
		<path id="Path_1_" style="fill:#FFFFFF;" d="M2028.4,685c-0.6,0.2-1.4,0.4-2.2,1c-3.4,2.2-5.2,6-5.2,9.8c0,0.2,0,0.4,0,0.6l0,0
			v0.2V709h4v-12.4c0-0.8,0.8-1.6,1.4-2l2,2l1.7-2c0.6,0.4,0.9,1.2,0.9,2V709h4v-12.4c0-4-2.8-7.2-6.6-7.2c-1,0-1.6,0.2-2.4,0.6l0,0
			c0.8-1,2.3-1.6,3.9-1.6l0,0c0.4,0,1.4,0,1.8,0.2c3.8,0.6,7.2,4,7.2,7.8c0,0.2,0,0.4,0,0.4V709h4v-12.2c0-5.8-3.6-10.4-9.4-11.8
			c-0.2,0-0.7-0.2-0.9-0.2c-0.4,0-0.8-0.2-1.5-0.2C2030.1,684.6,2029.2,684.8,2028.4,685z"/>
	</g>
</g>
<g id="app_x5F_Kuwait--marker">
	<rect id="app_x5F_Kuwait--tap" x="2181.9" y="821" style="fill:#FFFFFF;fill-opacity:0;" width="75" height="75"/>
	<polygon id="Fill-124_1_" style="fill:#8A1538;" points="2196,832 2196,880 2211.6,880 2219.4,888.6 2227.4,880 2244,880 2244,832 
			"/>
	<g id="Group_1_" transform="translate(5.000000, 5.000000)">
		<path id="Path_2_" style="fill:#FFFFFF;" d="M2213.6,839c-7.6,0-12.6,5-12.6,11.8V863h4c0,0,0-6.2,0-12.2c0-6.4,4.8-10.7,9.6-11.7
			c0.2,0,0.4-0.1,0.2-0.1H2213.6L2213.6,839z"/>
		<path id="Path_3_" style="fill:#FFFFFF;" d="M2214.4,839.4c-0.6,0.2-1.4,0.4-2.2,1c-3.4,2.2-5.2,6-5.2,9.8c0,0.2,0,0.4,0,0.6l0,0
			v0.2v14h4v-14c0-0.8,0.8-1.6,1.4-2l2,2l1.7-2c0.6,0.4,0.9,1.2,0.9,2v14h4v-14c0-4-2.8-7.2-6.6-7.2c-1,0-1.6,0.2-2.4,0.6l0,0
			c0.8-1,2.3-1.6,3.9-1.6l0,0c0.4,0,1.4,0,1.8,0.2c3.8,0.6,7.2,4,7.2,7.8c0,0.2,0,0.4,0,0.4V865h4v-13.8c0-5.8-3.6-10.4-9.4-11.8
			c-0.2,0-0.7-0.2-0.9-0.2c-0.4,0-0.8-0.2-1.5-0.2C2215.9,838.8,2215.2,839,2214.4,839.4z"/>
	</g>
</g>
<g id="app_x5F_Georgia--marker">
	<rect id="app_x5F_Georgia--tap" x="1960" y="299.9" style="fill:#FFFFFF;fill-opacity:0;" width="75" height="75"/>
	<polygon id="Fill-124_2_" style="fill:#8A1538;" points="1972,312 1972,360 1988.2,360 1996,368.6 2004,360 2020,360 2020,312 	"/>
	<g id="Group_2_" transform="translate(5.000000, 5.000000)">
		<path id="Path_4_" style="fill:#FFFFFF;" d="M1990,319c-7.6,0-13,4.8-13,11.6V343h4c0,0,0-6.4,0-12.4c0-6.4,5.1-10.6,9.9-11.6
			c0.2,0,0.7,0,0.5,0H1990z"/>
		<path id="Path_5_" style="fill:#FFFFFF;" d="M1990.8,319.2c-0.6,0.2-1.6,0.4-2.4,1c-3.4,2.2-5.4,6-5.4,9.8c0,0.2,0,0.4,0,0.6l0,0
			v0.2V343h6v-12.2c0-0.8,0-1.6,0.6-2l1.6,2l1.3-2c0.6,0.4,0.5,1.2,0.5,2V343h6v-12.2c0-4-3.6-7.2-7.4-7.2c-1,0-2,0.2-2.8,0.6l0,0
			c0.8-1,2.1-1.6,3.7-1.6l0,0c0.4,0,1.2,0,1.6,0.2c3.8,0.6,6.9,4,6.9,7.8c0,0.2,0,0.4,0,0.4v12h4v-12c0-5.8-3.4-10.4-9.2-11.8
			c-0.2,0-0.6-0.2-0.8-0.2c-0.4,0-0.8-0.2-1.4-0.2C1992.4,318.8,1991.6,319,1990.8,319.2z"/>
	</g>
</g>
<g id="app_x5F_Armenia--marker">
	<rect id="app_x5F_Armenia--tap" x="2025" y="377" style="fill:#FFFFFF;fill-opacity:0;" width="75" height="75"/>
	<polygon id="Fill-124_3_" style="fill:#8A1538;" points="2039,388 2039,434 2054.4,434 2062.4,442.6 2070.2,434 2085,434 2085,388 
			"/>
	<g id="Group_3_" transform="translate(5.000000, 5.000000)">
		<path id="Path_6_" style="fill:#FFFFFF;" d="M2056.4,393c-7.6,0-12.4,6-12.4,12.8V419h4c0,0,0-7.2,0-13.2c0-6.4,4.8-11.2,9.6-12.2
			c0.2,0,0.4-0.6,0.2-0.6H2056.4L2056.4,393z"/>
		<path id="Path_7_" style="fill:#FFFFFF;" d="M2057.2,394.4c-0.6,0.2-1.3,0.4-2.1,1c-3.4,2.2-5.1,6-5.1,9.8c0,0.2,0,0.4,0,0.6l0,0
			v0.2v13h4v-13c0-0.8,0.7-1.6,1.3-2l1.9,2l1.8-2c0.6,0.4,1,1.2,1,2v13h4v-13c0-4-2.9-7.2-6.7-7.2c-1,0-1.7,0.2-2.4,0.6l0,0
			c0.8-1,2.3-1.6,3.9-1.6l0,0c0.4,0,0.5,0,0.9,0.2c3.8,0.6,6.3,4,6.3,7.8c0,0.2,0,0.4,0,0.4V419h6v-12.8c0-5.8-3.7-10.4-9.5-11.8
			c-0.2,0-0.8-0.2-0.9-0.2c-0.4,0-0.9-0.2-1.5-0.2C2058.7,394,2058,394.2,2057.2,394.4z"/>
	</g>
</g>
<g id="app_x5F_Jordan--marker">
	<rect id="app_x5F_Jordan--tap" x="1779" y="758.3" style="fill:#FFFFFF;fill-opacity:0;" width="75" height="75"/>
	<polygon id="Fill-124_4_" style="fill:#8A1538;" points="1792,772 1792,818 1808.2,818 1816,826.6 1824,818 1840,818 1840,772 	"/>
	<g id="Group_4_" transform="translate(5.000000, 5.000000)">
		<path id="Path_8_" style="fill:#FFFFFF;" d="M1810,777c-7.6,0-13,5.6-13,12.4V803h4c0,0,0-7.6,0-13.6c0-6.4,5.1-11,9.9-12
			c0.2-0.2,0.7-0.4,0.5-0.4H1810z"/>
		<path id="Path_9_" style="fill:#FFFFFF;" d="M1811,778c-0.6,0.2-1.7,0.4-2.5,1c-3.4,2.2-3.5,6-5.5,9.8c0,0.2,0,0.4,0,0.6l0,0v0.2
			V803h6v-13.6c0-0.8,0.1-1.6,0.7-2l1.7,2l1.2-2c0.6,0.4,0.4,1.2,0.4,2V803h6v-13.6c0-4-3.5-7.2-7.3-7.2c-1,0-2,0.2-2.8,0.6l0,0
			c0.8-1,2.1-1.6,3.7-1.6l0,0c0.4,0,1.1,0,1.5,0.2c3.8,0.6,6.9,4,6.9,7.8c0,0.2,0,0.4,0,0.4V803h4v-13.4c0-5.8-3.3-10.4-9.1-11.8
			c-0.2,0-0.5-0.2-0.8-0.2c-0.4,0-0.8-0.2-1.4-0.2C1812.4,777.6,1811.8,777.8,1811,778z"/>
	</g>
</g>
<g id="app_x5F_Bahrain--marker">
	<rect id="app_x5F_Bahrain--tap" x="2283.9" y="942.4" style="fill:#FFFFFF;fill-opacity:0;" width="75" height="75"/>
	<polygon id="Fill-124_5_" style="fill:#8A1538;" points="2298,957 2298,1005 2314.2,1005 2322.2,1013.6 2330.2,1005 2346,1005 
		2346,957 	"/>
	<g id="Group_5_" transform="translate(5.000000, 5.000000)">
		<path id="Path_10_" style="fill:#FFFFFF;" d="M2316.2,964c-7.6,0-13.2,5.4-13.2,12.2V990h4c0,0,0-7.8,0-13.8
			c0-6.4,5.2-10.9,10-11.9c0.2,0,0.8-0.3,0.6-0.3H2316.2L2316.2,964z"/>
		<path id="Path_11_" style="fill:#FFFFFF;" d="M2317,964.8c-0.6,0.2-1.7,0.4-2.5,1c-3.4,2.2-3.5,6-5.5,9.8c0,0.2,0,0.4,0,0.6l0,0
			v0.2V990h6v-13.6c0-0.8,0.1-1.6,0.7-2l1.7,2l1.2-2c0.6,0.4,0.4,1.2,0.4,2V990h6v-13.6c0-4-3.5-7.2-7.3-7.2c-1,0-2,0.2-2.8,0.6l0,0
			c0.8-1,2.1-1.6,3.7-1.6l0,0c0.4,0,1.1,0,1.5,0.2c3.8,0.6,6.9,4,6.9,7.8c0,0.2,0,0.4,0,0.4V990h4v-13.4c0-5.8-3.4-10.4-9.2-11.8
			c-0.2,0-0.6-0.2-0.8-0.2c-0.6-0.2-1-0.2-1.6-0.2C2318.6,964.4,2317.8,964.6,2317,964.8z"/>
	</g>
</g>
<g id="app_x5F_Qatar--marker">
	<rect id="app_x5F_Qatar--tap" x="2318.5" y="1010.5" style="fill:#FFFFFF;fill-opacity:0;" width="75" height="75"/>
	<polygon id="Fill-124_6_" style="fill:#8A1538;" points="2332,1022 2332,1070 2348,1070 2356,1078.6 2363.8,1070 2380,1070 
		2380,1022 	"/>
	<g id="Group_6_" transform="translate(5.000000, 5.000000)">
		<path id="Path_12_" style="fill:#FFFFFF;" d="M2350,1029c-7.6,0-13,4.8-13,11.6v12.4h4c0,0,0-6.4,0-12.4c0-6.4,5.1-10.6,9.9-11.6
			c0.2,0,0.7,0,0.5,0H2350z"/>
		<path id="Path_13_" style="fill:#FFFFFF;" d="M2350.8,1029.2c-0.6,0.2-1.6,0.4-2.4,1c-3.4,2.2-5.4,6-5.4,9.8c0,0.2,0,0.4,0,0.6
			l0,0v0.2v12.2h6v-12.4c0-0.8,0-1.6,0.6-2l1.6,2l1.3-2c0.6,0.4,0.5,1.2,0.5,2v12.4h6v-12.4c0-4-3.6-7.2-7.4-7.2c-1,0-2,0.2-2.8,0.6
			l0,0c0.8-1,2.1-1.6,3.7-1.6l0,0c0.4,0,1.1,0,1.5,0.2c3.8,0.6,6.9,4,6.9,7.8c0,0.2,0,0.4,0,0.4v12.2h4v-12.2
			c0-5.8-3.4-10.4-9.2-11.8c-0.2,0-0.6-0.2-0.8-0.2c-0.4,0-0.8-0.2-1.4-0.2C2352.2,1028.8,2351.6,1029,2350.8,1029.2z"/>
	</g>
</g>
<g id="app_x5F_Saudi--marker">
	<rect id="app_x5F_Saudi--tap" x="2122.1" y="1105.8" style="fill:#FFFFFF;fill-opacity:0;" width="75" height="75"/>
	<polygon id="Fill-124_7_" style="fill:#8A1538;" points="2136,1118 2136,1164 2152.2,1164 2160.2,1172.6 2168.2,1164 2184,1164 
		2184,1118 	"/>
	<g id="Group_7_" transform="translate(5.000000, 5.000000)">
		<path id="Path_14_" style="fill:#FFFFFF;" d="M2154.2,1123c-7.6,0-13.2,5.6-13.2,12.4v13.6h4c0,0,0-7.6,0-13.6c0-6.4,5.2-11,10-12
			c0.2,0,0.8-0.4,0.6-0.4H2154.2z"/>
		<path id="Path_15_" style="fill:#FFFFFF;" d="M2155,1124c-0.6,0.2-1.7,0.4-2.5,1c-3.4,2.2-3.5,6-5.5,9.8c0,0.2,0,0.4,0,0.6l0,0
			v0.2v13.4h6v-13.4c0-0.8,0.1-1.6,0.7-2l1.7,2l1.2-2c0.6,0.4,0.4,1.2,0.4,2v13.4h6v-13.4c0-4-3.5-7.2-7.3-7.2c-1,0-2,0.2-2.8,0.6
			l0,0c0.8-1,2.1-1.6,3.7-1.6l0,0c0.4,0,1.1,0,1.5,0.2c3.8,0.6,6.9,4,6.9,7.8c0,0.2,0,0.4,0,0.4v13.2h4v-13.2
			c0-5.8-3.4-10.4-9.2-11.8c-0.2,0-0.6-0.2-0.8-0.2c-0.4,0-0.8-0.2-1.4-0.2C2156.6,1123.6,2155.8,1123.8,2155,1124z"/>
	</g>
</g>
<g id="app_x5F_Pakistan--marker">
	<rect id="app_x5F_Pakistan--tap" x="2879.5" y="926.8" style="fill:#FFFFFF;fill-opacity:0;" width="75" height="75"/>
	<polygon id="Fill-124_8_" style="fill:#8A1538;" points="2894,938 2894,984 2909.6,984 2917.6,992.6 2925.6,984 2942,984 2942,938 
			"/>
	<g id="Group_8_" transform="translate(5.000000, 5.000000)">
		<path id="Path_16_" style="fill:#FFFFFF;" d="M2911.6,943c-7.6,0-12.6,5.8-12.6,12.6V969h4c0,0,0-7.4,0-13.4
			c0-6.4,4.9-11.1,9.7-12.1c0.2,0,0.5-0.5,0.3-0.5H2911.6z"/>
		<path id="Path_17_" style="fill:#FFFFFF;" d="M2912.4,944.2c-0.6,0.2-1.4,0.4-2.2,1c-3.4,2.2-5.2,6-5.2,9.8c0,0.2,0,0.4,0,0.6l0,0
			v0.2V969h4v-13.2c0-0.8,0.8-1.6,1.4-2l2,2l1.7-2c0.6,0.4,0.9,1.2,0.9,2V969h4v-13.2c0-4-2.8-7.2-6.6-7.2c-1,0-1.6,0-2.4,0.4l0,0
			c0.6-1.2,2.1-2,3.5-2h0.1c0.6,0,1,0,1.4,0c3.8,2,6,4.4,6,8.2c0,0.2,0,0.4,0,0.4V969h6v-13.4c0-5.6-3.6-10.2-9.6-11.6
			c-0.2,0-0.8-0.2-1-0.2c-0.4,0-0.9-0.2-1.5-0.2C2914.1,943.6,2913.2,943.8,2912.4,944.2z"/>
	</g>
</g>
<g id="app_x5F_Kazakhstan--marker">
	<rect id="app_x5F_Kazakhstan--tap" x="2809.8" y="272" style="fill:#FFFFFF;fill-opacity:0;" width="75" height="75"/>
	<polygon id="Fill-124_9_" style="fill:#8A1538;" points="2824,284 2824,332 2840.4,332 2848.4,340.6 2856.2,332 2872,332 2872,284 
			"/>
	<g id="Group_9_" transform="translate(5.000000, 5.000000)">
		<path id="Path_18_" style="fill:#FFFFFF;" d="M2842.4,291c-7.6,0-13.4,5.2-13.4,12v14h4c0,0,0-8,0-14c0-6.4,5.3-10,10.1-12
			c0.2,0,0.9,0,0.7,0H2842.4z"/>
		<path id="Path_19_" style="fill:#FFFFFF;" d="M2843.2,291.6c-0.6,0.2-0.8,0.4-1.6,1c-3.4,2.2-4.6,6-4.6,9.8c0,0.2,0,0.4,0,0.6l0,0
			v0.2V317h4v-13.8c0-0.8,0.2-1.6,0.8-2l1.7,2l2.1-2c0.6,0.4,1.3,1.2,1.3,2V317h4v-13.8c0-4-3.4-7.2-7.2-7.2c-1,0-1.9,0.2-2.7,0.6
			l0,0c0.8-1,2.2-1.6,3.8-1.6l0,0c0.4,0,1,0,1.4,0.2c3.8,0.6,6.8,4,6.8,7.8c0,0.2,0,0.4,0,0.4V317h4v-13.6c0-5.8-3.2-10.4-9-11.8
			c-0.2,0-0.5-0.2-0.7-0.2c-0.4,0-0.8-0.2-1.3-0.2C2844.8,291,2844,291.2,2843.2,291.6z"/>
	</g>
</g>
<g id="app_x5F_Egypt--marker">
	<rect id="app_x5F_Egypt--tap" x="1559.8" y="953.5" style="fill:#FFFFFF;fill-opacity:0;" width="75" height="75"/>
	<polygon id="Fill-124_10_" style="fill:#8A1538;" points="1572,964 1572,1012 1588.6,1012 1596.6,1020.6 1604.6,1012 1620,1012 
		1620,964 	"/>
	<g id="Group_10_" transform="translate(5.000000, 5.000000)">
		<path id="Path_20_" style="fill:#FFFFFF;" d="M1590.6,971c-7.6,0-13.6,5.4-13.6,12.2V997h6c0,0,0-7.8,0-13.8
			c0-6.4,4.4-10.9,9.2-11.9c0.2,0,0-0.3-0.2-0.3H1590.6L1590.6,971z"/>
		<path id="Path_21_" style="fill:#FFFFFF;" d="M1591.4,971.6c-0.6,0.2-0.9,0.5-1.7,1.1c-3.4,2.2-4.7,6.1-4.7,9.9c0,0.2,0,0.4,0,0.6
			l0,0v0.2V997h4v-13.8c0-0.8,0.3-1.6,0.9-2l1.8,2l2.1-2c0.6,0.4,1.3,1.2,1.3,2V997h4v-13.8c0-4-3.3-7.2-7.1-7.2
			c-1,0-1.8,0.2-2.6,0.6l0,0c0.8-1,2.2-1.6,3.8-1.6l0,0c0.4,0,0.9,0,1.3,0.2c3.8,0.6,6.7,4,6.7,7.8c0,0.2,0,0.4,0,0.4V997h4v-13.6
			c0-5.8-3.1-10.6-8.9-12c-0.2,0-0.3-0.4-0.5-0.4c-0.8,0-1.2,0-1.8,0C1593,971,1592.2,971.4,1591.4,971.6z"/>
	</g>
</g>
<g id="app_x5F_Kenya--marker">
	<rect id="app_x5F_Kenya--tap" x="1881.3" y="1989.6" style="fill:#FFFFFF;fill-opacity:0;" width="75" height="75"/>
	<polygon id="Fill-124_11_" style="fill:#8A1538;" points="1896,2002 1896,2048 1911,2048 1919,2056.6 1926.8,2048 1942,2048 
		1942,2002 	"/>
	<g id="Group_11_" transform="translate(5.000000, 5.000000)">
		<path id="Path_22_" style="fill:#FFFFFF;" d="M1913,2007c-7.6,0-12,5.6-12,12.4v13.6h4c0,0,0-7.6,0-13.6c0-6.4,4-10.8,10-11.8
			v-0.6H1913L1913,2007z"/>
		<path id="Path_23_" style="fill:#FFFFFF;" d="M1913.8,2008c-0.6,0.2-1.1,0.4-1.9,1c-3.4,2.2-4.9,6-4.9,9.8c0,0.2,0,0.4,0,0.6l0,0
			v0.2v13.4h4v-13.4c0-0.8,0.5-1.6,1.1-2l1.9,2l1.9-2c0.6,0.4,1.1,1.2,1.1,2v13.4h4v-13.4c0-4-3.2-7.2-7-7.2c-1,0-1.8,0.2-2.6,0.6
			l0,0c0.8-1,2.2-1.6,3.8-1.6l0,0c0.4,0,0.8,0,1.2,0.2c3.8,0.6,6.6,4,6.6,7.8c0,0.2,0,0.4,0,0.4v13.2h4v-13.2c0-5.8-3-10.4-8.8-11.8
			c-0.2,0-0.4-0.2-0.6-0.2c-0.4,0-0.7-0.2-1.3-0.2C1915.1,2007.6,1914.6,2007.8,1913.8,2008z"/>
	</g>
</g>
<g id="app_x5F_Lebanon-region--button">
	<polygon id="tap_x5F_area_2_" style="fill:#FFFFFF;fill-opacity:0;" points="1842.6,530.4 1860,725 1320,727.8 1320,549 	"/>
	<rect id="app_x5F_Lebanon-region--tap" x="1755.3" y="625" style="fill:#FFFFFF;fill-opacity:0;" width="75" height="75"/>
	<path id="Line-4-Copy-5" style="fill:none;stroke:#8A1538;stroke-width:4;" d="M1772,660h-104"/>
	<g transform="translate(856.000000, 319.000000)">
		<polygon id="Fill-124_12_" style="fill:#8A1538;" points="912,315 912,363 928.4,363 936.4,371.6 944.2,363 960,363 960,315 		"/>
		<g id="Group_12_" transform="translate(5.000000, 5.000000)">
			<path id="Path_24_" style="fill:#FFFFFF;" d="M930.4,322c-7.6,0-13.4,5-13.4,11.8V346h4c0,0,0-6.2,0-12.2
				c0-6.4,5.3-10.7,10.1-11.7c0.2,0,0.9-0.1,0.7-0.1H930.4L930.4,322z"/>
			<path id="Path_25_" style="fill:#FFFFFF;" d="M931.2,322.4c-0.6,0.2-0.8,0.4-1.6,1c-3.4,2.2-4.6,6-4.6,9.8c0,0.2,0,0.4,0,0.6l0,0
				v0.2v14h4v-14c0-0.8,0.2-1.6,0.8-2l1.7,2l2.1-2c0.6,0.4,1.3,1.2,1.3,2v14h4v-14c0-4-3.4-7.2-7.2-7.2c-1,0-1.9,0.2-2.7,0.6l0,0
				c0.8-1,2.1-1.6,3.8-1.6l0,0c0.4,0,1,0,1.4,0.2c3.8,0.6,6.8,4,6.8,7.8c0,0.2,0,0.4,0,0.4V348h4v-13.8c0-5.8-3.4-10.4-9.2-11.8
				c-0.2,0-0.6-0.2-0.8-0.2c-0.4,0-0.8-0.2-1.4-0.2C932.6,322,932,322.2,931.2,322.4z"/>
		</g>
	</g>
	<g>
		<g>
			<path style="fill:#575756;" d="M1578,692h-2v-10h2.6c3.2,0,5.6,2,5.6,5.2c0,3.4-2,4.9-5.4,4.9 M1578,680h-4v14h4.8
				c4,0,6.6-2.8,6.6-6.8s-2.8-7.1-6.8-7.1"/>
			<path style="fill:none;stroke:#575756;stroke-width:2;stroke-miterlimit:10;" d="M1578,693h-3v-12h3.6c3.2,0,5.6,3,5.6,6.2
				c0,3.4-2,5.9-5.4,5.9 M1578,679h-5v14h5.8c4,0,6.6-2.8,6.6-6.8s-2.8-7.1-6.8-7.1"/>
			<path style="fill:#575756;" d="M1594,692h-4v-6h3.4c2.8,0,4,1.4,4,3.2c0.2,1.8-1,2.9-3.6,2.9 M1590,682h3.6
				c1.4,0,3.2,0.1,3.2,1.9c0,2-2,2.1-3.6,2.1h-3.2V682z M1596.2,686.4c1-0.4,1.8-1.7,1.8-2.9c0-2.2-1.6-3.5-4.4-3.5h-5.6v14h5.8
				c3,0,4.8-1.5,4.8-4.1C1598.8,688.3,1597.8,686.8,1596.2,686.4"/>
			<path style="fill:none;stroke:#575756;stroke-width:2;stroke-miterlimit:10;" d="M1594,693h-3v-6h2.4c2.8,0,4,1.4,4,3.2
				c0.2,1.8-1,2.9-3.6,2.9 M1591,681h2.6c1.4,0,3.2,0.1,3.2,1.9c0,2-2,2.1-3.6,2.1h-2.2V681z M1596.2,686.4c1-0.4,1.8-2.2,1.8-3.4
				c0-2.2-1.6-4-4.4-4h-4.6v14h4.8c3,0,4.8-1,4.8-3.6C1598.8,687.8,1597.8,686.8,1596.2,686.4"/>
			<polygon style="fill:#575756;" points="1622.8,680 1618.6,686.6 1614.6,680 1613.2,680 1618,688 1618,694 1619.4,694 1619.2,688 
				1624,680 			"/>
			<polygon style="fill:none;stroke:#575756;stroke-width:2;stroke-miterlimit:10;" points="1622.8,679 1618.6,685.6 1614.6,679 
				1613.2,679 1619,688 1619,693 1619.4,693 1619.2,687 1624,679 			"/>
			<polygon style="fill:#575756;" points="1628,680 1628,694 1636,694 1636,692 1628,692 1628,686 1636,686 1636,686 1628,686 
				1628,682 1636,682 1636,680 			"/>
			<polygon style="fill:none;stroke:#575756;stroke-width:2;stroke-miterlimit:10;" points="1627,679 1627,693 1637,693 1637,693 
				1629,693 1629,687 1635,687 1635,685 1629,685 1629,681 1637,681 1637,679 			"/>
			<polygon style="fill:#575756;" points="1650,680.4 1650,686 1642,686 1642,680 1640,680 1640,694 1642,694 1642,686 1650,686 
				1650,694.4 1650,694.4 			"/>
			<polygon style="fill:none;stroke:#575756;stroke-width:2;stroke-miterlimit:10;" points="1649,679 1649,685 1641,685 1641,679.4 
				1641,679.4 1641,693.4 1641,693.4 1641,687 1649,687 1649,693 1651,693 1651,679 			"/>
			<path style="fill:#575756;" d="M1607.2,680l-6,14h1.2l1.8-4h6.4l1.8,4h1.2l-6-14H1607.2z M1607.6,681.6l2.8,6.4h-5.4
				L1607.6,681.6z"/>
			<path style="fill:none;stroke:#575756;stroke-width:2;stroke-miterlimit:10;" d="M1607.2,679l-6,14h1.2l1.8-4h6.4l1.8,4h1.2
				l-6-14H1607.2z M1607.6,682.6l2.8,6.4h-5.4L1607.6,682.6z"/>
		</g>
		<g>
			<g>
				<g>
					<g>
						<g>
							<g>
								<g>
									<g>
										<g>
											<g>
												<g>
													<g>
														<defs>
															<polygon id="SVGID_1_" points="1532.4,630.9 1511.2,636 1539.6,636 1570,615 1570,598 1485,597.7 															"/>
														</defs>
														<clipPath id="SVGID_2_">
															<use xlink:href="#SVGID_1_"  style="overflow:visible;"/>
														</clipPath>
														<path style="clip-path:url(#SVGID_2_);fill:none;stroke:#72B63A;stroke-width:0.8486;stroke-linecap:round;" d="
															M1535.4,634.4c2.2,1.2,5.4-0.2,5.2,1c-0.2,1-3.6,1.6-3.6,1.6"/>
													</g>
												</g>
											</g>
										</g>
									</g>
								</g>
							</g>
						</g>
					</g>
				</g>
			</g>
			<g>
				<g>
					<g>
						<g>
							<g>
								<g>
									<g>
										<g>
											<g>
												<g>
													<g>
														<defs>
															<polygon id="SVGID_3_" points="1532.4,630.9 1511.2,636 1539.6,636 1570,615 1570,598 1485,597.7 															"/>
														</defs>
														<clipPath id="SVGID_4_">
															<use xlink:href="#SVGID_3_"  style="overflow:visible;"/>
														</clipPath>
														<path style="clip-path:url(#SVGID_4_);fill:none;stroke:#67B448;stroke-width:0.8486;stroke-linecap:round;" d="
															M1531.8,632c4.4,2.4,11-0.6,10.6,1.8c-0.4,2-7,3-7,3"/>
													</g>
												</g>
											</g>
										</g>
									</g>
								</g>
							</g>
						</g>
					</g>
				</g>
			</g>
			<g>
				<g>
					<g>
						<g>
							<g>
								<g>
									<g>
										<g>
											<g>
												<g>
													<g>
														<defs>
															<polygon id="SVGID_5_" points="1532.4,630.9 1511.2,636 1539.6,636 1570,615 1570,598 1485,597.7 															"/>
														</defs>
														<clipPath id="SVGID_6_">
															<use xlink:href="#SVGID_5_"  style="overflow:visible;"/>
														</clipPath>
														<path style="clip-path:url(#SVGID_6_);fill:none;stroke:#5FB356;stroke-width:0.8486;stroke-linecap:round;" d="
															M1528.2,629.6c6.6,3.6,16.4-0.8,15.8,2.8c-0.4,3-10.6,4.6-10.6,4.6"/>
													</g>
												</g>
											</g>
										</g>
									</g>
								</g>
							</g>
						</g>
					</g>
				</g>
			</g>
			<g>
				<g>
					<g>
						<g>
							<g>
								<g>
									<g>
										<g>
											<g>
												<g>
													<g>
														<defs>
															<polygon id="SVGID_7_" points="1532.4,630.9 1511.2,636 1539.6,636 1570,615 1570,598 1485,597.7 															"/>
														</defs>
														<clipPath id="SVGID_8_">
															<use xlink:href="#SVGID_7_"  style="overflow:visible;"/>
														</clipPath>
														<path style="clip-path:url(#SVGID_8_);fill:none;stroke:#50B061;stroke-width:0.8486;stroke-linecap:round;" d="
															M1524.8,627c8.8,4.8,22-1.2,21.2,3.6c-0.6,4-14,6-14,6"/>
													</g>
												</g>
											</g>
										</g>
									</g>
								</g>
							</g>
						</g>
					</g>
				</g>
			</g>
			<g>
				<g>
					<g>
						<g>
							<g>
								<g>
									<g>
										<g>
											<g>
												<g>
													<g>
														<defs>
															<polygon id="SVGID_9_" points="1532.4,630.9 1511.2,636 1539.6,636 1570,615 1570,598 1485,597.7 															"/>
														</defs>
														<clipPath id="SVGID_10_">
															<use xlink:href="#SVGID_9_"  style="overflow:visible;"/>
														</clipPath>
														<path style="clip-path:url(#SVGID_10_);fill:none;stroke:#44AF6E;stroke-width:0.8486;stroke-linecap:round;" d="
															M1521.2,624.6c10.8,6.2,27.4-1.4,26.4,4.6c-0.8,5-17.6,7.6-17.6,7.6"/>
													</g>
												</g>
											</g>
										</g>
									</g>
								</g>
							</g>
						</g>
					</g>
				</g>
			</g>
			<g>
				<g>
					<g>
						<g>
							<g>
								<g>
									<g>
										<g>
											<g>
												<g>
													<g>
														<defs>
															<polygon id="SVGID_11_" points="1532.4,630.9 1511.2,636 1539.6,636 1570,615 1570,598 1485,597.7 															
																"/>
														</defs>
														<clipPath id="SVGID_12_">
															<use xlink:href="#SVGID_11_"  style="overflow:visible;"/>
														</clipPath>
														<path style="clip-path:url(#SVGID_12_);fill:none;stroke:#2EAD7A;stroke-width:0.8486;stroke-linecap:round;" d="
															M1517.6,622.2c13,7.4,32.8-1.8,31.8,5.4c-1,6-21,9-21,9"/>
													</g>
												</g>
											</g>
										</g>
									</g>
								</g>
							</g>
						</g>
					</g>
				</g>
			</g>
			<g>
				<g>
					<g>
						<g>
							<g>
								<g>
									<g>
										<g>
											<g>
												<g>
													<g>
														<defs>
															<polygon id="SVGID_13_" points="1532.4,630.9 1511.2,636 1539.6,636 1570,615 1570,598 1485,597.7 															
																"/>
														</defs>
														<clipPath id="SVGID_14_">
															<use xlink:href="#SVGID_13_"  style="overflow:visible;"/>
														</clipPath>
														<path style="clip-path:url(#SVGID_14_);fill:none;stroke:#15AC85;stroke-width:0.8486;stroke-linecap:round;" d="
															M1514,619.8c15.2,8.6,38.4-2,37,6.4c-1,7.2-24.6,10.6-24.6,10.6"/>
													</g>
												</g>
											</g>
										</g>
									</g>
								</g>
							</g>
						</g>
					</g>
				</g>
			</g>
			<g>
				<g>
					<g>
						<g>
							<g>
								<g>
									<g>
										<g>
											<g>
												<g>
													<g>
														<defs>
															<polygon id="SVGID_15_" points="1532.4,630.9 1511.2,636 1539.6,636 1570,615 1570,598 1485,597.7 															
																"/>
														</defs>
														<clipPath id="SVGID_16_">
															<use xlink:href="#SVGID_15_"  style="overflow:visible;"/>
														</clipPath>
														<path style="clip-path:url(#SVGID_16_);fill:none;stroke:#00AB90;stroke-width:0.8486;stroke-linecap:round;" d="
															M1510.6,617.4c17.4,9.8,43.8-2.4,42.4,7.2c-1.2,8.2-28,12.2-28,12.2"/>
													</g>
												</g>
											</g>
										</g>
									</g>
								</g>
							</g>
						</g>
					</g>
				</g>
			</g>
			<g>
				<g>
					<g>
						<g>
							<g>
								<g>
									<g>
										<g>
											<g>
												<g>
													<g>
														<defs>
															<polygon id="SVGID_30_" points="1532.4,630.9 1511.2,636 1539.6,636 1570,615 1570,598 1485,597.7 															
																"/>
														</defs>
														<clipPath id="SVGID_31_">
															<use xlink:href="#SVGID_30_"  style="overflow:visible;"/>
														</clipPath>
														<path style="clip-path:url(#SVGID_31_);fill:none;stroke:#00A99B;stroke-width:0.8486;stroke-linecap:round;" d="
															M1507,614.8c19.6,11,49.2-2.6,47.6,8.2c-1.4,9.2-31.6,13.6-31.6,13.6"/>
													</g>
												</g>
											</g>
										</g>
									</g>
								</g>
							</g>
						</g>
					</g>
				</g>
			</g>
			<g>
				<g>
					<g>
						<g>
							<g>
								<g>
									<g>
										<g>
											<g>
												<g>
													<g>
														<defs>
															<polygon id="SVGID_32_" points="1532.4,630.9 1511.2,636 1539.6,636 1570,615 1570,598 1485,597.7 															
																"/>
														</defs>
														<clipPath id="SVGID_34_">
															<use xlink:href="#SVGID_32_"  style="overflow:visible;"/>
														</clipPath>
														<path style="clip-path:url(#SVGID_34_);fill:none;stroke:#00A8A5;stroke-width:0.8486;stroke-linecap:round;" d="
															M1503.4,612.4c21.8,12.2,54.8-3,53,9c-1.6,10.2-35,15.2-35,15.2"/>
													</g>
												</g>
											</g>
										</g>
									</g>
								</g>
							</g>
						</g>
					</g>
				</g>
			</g>
			<g>
				<g>
					<g>
						<g>
							<g>
								<g>
									<g>
										<g>
											<g>
												<g>
													<g>
														<defs>
															<polygon id="SVGID_35_" points="1532.4,630.9 1511.2,636 1539.6,636 1570,615 1570,598 1485,597.7 															
																"/>
														</defs>
														<clipPath id="SVGID_36_">
															<use xlink:href="#SVGID_35_"  style="overflow:visible;"/>
														</clipPath>
														<path style="clip-path:url(#SVGID_36_);fill:none;stroke:#00A6AF;stroke-width:0.8486;stroke-linecap:round;" d="
															M1500,610c24,13.4,60.2-3.2,58.2,10c-1.8,11.2-38.6,16.6-38.6,16.6"/>
													</g>
												</g>
											</g>
										</g>
									</g>
								</g>
							</g>
						</g>
					</g>
				</g>
			</g>
			<g>
				<g>
					<g>
						<g>
							<g>
								<g>
									<g>
										<g>
											<g>
												<g>
													<g>
														<defs>
															<polygon id="SVGID_37_" points="1532.4,630.9 1511.2,636 1539.6,636 1570,615 1570,598 1485,597.7 															
																"/>
														</defs>
														<clipPath id="SVGID_38_">
															<use xlink:href="#SVGID_37_"  style="overflow:visible;"/>
														</clipPath>
														<path style="clip-path:url(#SVGID_38_);fill:none;stroke:#00A5B8;stroke-width:0.8486;stroke-linecap:round;" d="
															M1496.4,607.6c26.2,14.6,65.8-3.6,63.6,10.8c-1.8,12.2-42.2,18.2-42.2,18.2"/>
													</g>
												</g>
											</g>
										</g>
									</g>
								</g>
							</g>
						</g>
					</g>
				</g>
			</g>
			<g>
				<g>
					<g>
						<g>
							<g>
								<g>
									<g>
										<g>
											<g>
												<g>
													<g>
														<defs>
															<polygon id="SVGID_39_" points="1532.4,630.9 1511.2,636 1539.6,636 1570,615 1570,598 1485,597.7 															
																"/>
														</defs>
														<clipPath id="SVGID_40_">
															<use xlink:href="#SVGID_39_"  style="overflow:visible;"/>
														</clipPath>
														<path style="clip-path:url(#SVGID_40_);fill:none;stroke:#00A4C1;stroke-width:0.8486;stroke-linecap:round;" d="
															M1492.8,605.2c28.2,16,71.2-3.8,68.8,11.8c-2,13.2-45.6,19.6-45.6,19.6"/>
													</g>
												</g>
											</g>
										</g>
									</g>
								</g>
							</g>
						</g>
					</g>
				</g>
			</g>
			<g>
				<g>
					<g>
						<g>
							<g>
								<g>
									<g>
										<g>
											<g>
												<g>
													<g>
														<defs>
															<polygon id="SVGID_41_" points="1532.4,630.9 1511.2,636 1539.6,636 1570,615 1570,598 1485,597.7 															
																"/>
														</defs>
														<clipPath id="SVGID_42_">
															<use xlink:href="#SVGID_41_"  style="overflow:visible;"/>
														</clipPath>
														<path style="clip-path:url(#SVGID_42_);fill:none;stroke:#00A2C9;stroke-width:0.8486;stroke-linecap:round;" d="
															M1489.2,602.8c30.4,17.2,76.6-4.2,74,12.6c-2.2,14.2-49.2,21.2-49.2,21.2"/>
													</g>
												</g>
											</g>
										</g>
									</g>
								</g>
							</g>
						</g>
					</g>
				</g>
			</g>
			<g>
				<g>
					<g>
						<g>
							<g>
								<g>
									<g>
										<g>
											<g>
												<g>
													<g>
														<defs>
															<polygon id="SVGID_43_" points="1532.4,630.9 1511.2,636 1539.6,636 1570,615 1570,598 1485,597.7 															
																"/>
														</defs>
														<clipPath id="SVGID_44_">
															<use xlink:href="#SVGID_43_"  style="overflow:visible;"/>
														</clipPath>
														<path style="clip-path:url(#SVGID_44_);fill:none;stroke:#00A1D2;stroke-width:0.8486;stroke-linecap:round;" d="
															M1485.8,600.2c32.6,18.4,82.2-4.4,79.4,13.6c-2.4,15.2-52.6,22.8-52.6,22.8"/>
													</g>
												</g>
											</g>
										</g>
									</g>
								</g>
							</g>
						</g>
					</g>
				</g>
			</g>
			<g>
				<g>
					<g>
						<g>
							<g>
								<g>
									<g>
										<g>
											<g>
												<g>
													<g>
														<defs>
															<polygon id="SVGID_45_" points="1532.4,630.9 1511.2,636 1539.6,636 1570,615 1570,598 1485,597.7 															
																"/>
														</defs>
														<clipPath id="SVGID_46_">
															<use xlink:href="#SVGID_45_"  style="overflow:visible;"/>
														</clipPath>
														<path style="clip-path:url(#SVGID_46_);fill:none;stroke:#009FDA;stroke-width:0.8486;stroke-linecap:round;" d="
															M1482.2,597.8c34.8,19.6,87.6-4.8,84.6,14.6c-2.4,16.2-56.2,24.2-56.2,24.2"/>
													</g>
												</g>
											</g>
										</g>
									</g>
								</g>
							</g>
						</g>
					</g>
				</g>
			</g>
			<g>
				<g>
					<g>
						<g>
							<g>
								<g>
									<g>
										<g>
											<g>
												<g>
													<g>
														<defs>
															<polygon id="SVGID_49_" points="1532.4,630.9 1511.2,636 1539.6,636 1570,615 1570,598 1485,597.7 															
																"/>
														</defs>
														<clipPath id="SVGID_50_">
															<use xlink:href="#SVGID_49_"  style="overflow:visible;"/>
														</clipPath>
														<path style="clip-path:url(#SVGID_50_);fill:none;stroke:#009EE2;stroke-width:0.8486;stroke-linecap:round;" d="
															M1478.6,595.4c37,20.8,93.2-5,90,15.4c-2.6,17.2-59.6,25.8-59.6,25.8"/>
													</g>
												</g>
											</g>
										</g>
									</g>
								</g>
							</g>
						</g>
					</g>
				</g>
			</g>
		</g>
		<polygon style="fill:#0E2243;" points="1418,648 1412.4,664.9 1407,648 1403,648 1410.8,670 1414,670 1419.6,653.6 1425.2,670 
			1428.4,670 1436,648 1432.2,648 1426.8,664.9 1421.2,648 		"/>
		<g>
			<path style="fill:#0E2243;" d="M1442.4,671.4c-3,0-5.8-1.6-5.8-5l0,0c0-3.4,2.6-5,6.8-5c2,0,2.6,1,4.6,1l0,0v-1
				c0-2.4-1.5-3.8-4.3-3.8c-1.8,0-3.2,0.4-4.8,1l-1-2.8c1.8-0.8,3.9-1.4,6.5-1.4c4.8,0,7.5,2.4,7.5,7v8.6h-4v-1.2l-0.2,0.4
				C1446.6,670.6,1444.8,671.4,1442.4,671.4 M1444.1,663.2c-2.6,0-4,1-4,2.8l0,0c0,1.6,1.3,2.6,3.3,2.6c2.6,0,4.5-1.6,4.5-3.6v-1.2
				l0,0C1448,663.4,1445.5,663.2,1444.1,663.2"/>
			<path style="fill:#0E2243;" d="M1460.8,671.4c-3.2,0-4.8-1.6-4.8-4.8V658h-2v-4h2v-4h4v4h6v4h-6v7.8c0,1.4,0.6,2.2,2,2.2
				c0.8,0,2-0.2,2-0.4v2.8C1464,671,1462,671.4,1460.8,671.4"/>
			<path style="fill:#0E2243;" d="M1476.4,671.4c-5,0-8.6-3.6-8.6-8.6s3.4-8.6,8.2-8.6c5.8,0,8,4.8,8,9c0,0.2,0,0.8,0,0.8l0,0h-12
				v0.2c0,2.8,2.2,4.4,4.8,4.4c1.8,0,3.1-0.6,4.5-2l2,1.8C1481.5,670.4,1479.2,671.4,1476.4,671.4 M1476.1,657
				c-2.4,0-4.1,1.8-4.1,4.6v0.4h8v-0.4C1480,658.8,1478.5,657,1476.1,657"/>
			<path style="fill:#0E2243;" d="M1488,671v-17h4v4c0-1.8,1.8-4,5-4h1v3.8l0,0c0,0-6,2.6-6,6.8v5.4h-4V671z"/>
			<path style="fill:#0E2243;" d="M1502,670v-12h-2v-4h2v-1c0-3.6,1.6-5.4,5-5.4c1.4,0,3,0.2,3,0.4v3c0-0.2-1.1-0.4-1.9-0.4
				c-1.6,0-2.1,1-2.1,2.8v0.6h4v4h-4v12H1502L1502,670z"/>
			<path style="fill:#0E2243;" d="M1514,671v-17h4v4c0-1.8,2-3.6,6-3.6l0,0v3.4l0,0c0,0-6,2.6-6,6.8v5.4h-4V671z"/>
			<path style="fill:#0E2243;" d="M1535,671.4c-5,0-8.8-3.8-8.8-8.6s3.8-8.8,8.8-8.8s8.8,3.8,8.8,8.6
				C1544,667.6,1540,671.4,1535,671.4 M1535,657.2c-3,0-5.2,2.4-5.2,5.6s2.2,5.6,5.2,5.6s5.2-2.4,5.2-5.6
				C1540.4,659.6,1538.2,657.2,1535,657.2"/>
			<path style="fill:#0E2243;" d="M1558,670v-8.4c0-2.8-1.5-4.2-3.9-4.2s-4.1,1.8-4.1,4.4v8.2h-2v-16h2v3.4l0.7-0.4
				c1.4-2,3.2-3,5.3-3c3.6,0,5.9,2.4,5.9,6.4v9.6H1558z"/>
			<path style="fill:#0E2243;" d="M1572.7,671.4c-3.2,0-4.7-1.6-4.7-4.8V658h-2v-4h2v-4h4v4h4v4h-4v7.8c0,1.4,0.6,2.2,2,2.2
				c0.8,0,2-0.2,2-0.4v2.8C1576,671,1574.1,671.4,1572.7,671.4"/>
			<path style="fill:#0E2243;" d="M1600.8,671.4c-6.4,0-11.2-5-11.2-11.4c0-6.6,5-11.4,11.4-11.4c4.4,0,6.8,1.6,8.6,3.4l-2.4,2.6
				c-2-1.8-4-2.8-6.2-2.8c-4.2,0-7.6,3.4-7.6,8s3.2,8.2,7.6,8.2c2.8,0,4.6-1,6.4-2.8l2.4,2.4C1607,670.2,1604.4,671.4,1600.8,671.4"
				/>
		</g>
		<path style="fill:#0E2243;" d="M1614,654h2v16h-2V654z M1613.2,648.2h3.8v3.4h-3.8V648.2z"/>
		<path style="fill:#0E2243;" d="M1626.8,671.4c-3.2,0-4.8-1.6-4.8-4.8V658h-2v-4h2v-4h4v4h6v4h-6v7.8c0,1.4,0.6,2.2,2,2.2
			c0.8,0,2-0.2,2-0.4v2.8C1630,671,1628,671.4,1626.8,671.4"/>
		<path style="fill:#0E2243;" d="M1638.6,676.2c-1.4,0-2.6-0.2-3.8-1l1.2-2.6c0.8,0.4,1.4,0.6,2.2,0.6c1.2,0,1.8-0.8,2.6-2.2l0,0
			l-7-17h3.8l5,12.8l4.4-12.8h3.8l-6.6,17.4C1642.8,674.8,1641.4,676.2,1638.6,676.2"/>
	</g>
</g>
<g id="app_x5F_Oman--button">
	<rect id="tap_x5F_area" x="2667.4" y="1117.4" style="fill:#FFFFFF;fill-opacity:0;" width="315.2" height="235"/>
	<path id="Line-4-Copy-4" style="fill:none;stroke:#8A1538;stroke-width:4;" d="M2720,1246h-106"/>
	<rect id="app_x5F_Oman--tap" x="2553.8" y="1210.1" style="fill:#FFFFFF;fill-opacity:0;" width="75" height="75"/>
	<g transform="translate(1260.000000, 608.000000)">
		<polygon id="Fill-124_14_" style="fill:#8A1538;" points="1308,612 1308,660 1323.4,660 1331.2,668.6 1339.2,660 1354,660 
			1354,612 		"/>
		<g id="Group_14_" transform="translate(5.000000, 5.000000)">
			<path id="Path_28_" style="fill:#FFFFFF;" d="M1325.2,619c-7.6,0-12.2,4.6-12.2,11.4V643h4c0,0,0-6.6,0-12.6
				c0-6.4,4.7-10.5,9.5-11.5c0.2,0,0.3,0.1,0.1,0.1H1325.2z"/>
			<path id="Path_29_" style="fill:#FFFFFF;" d="M1326.2,619c-0.6,0.2-1.3,0.4-2.1,1c-3.4,2.2-5.1,6-5.1,9.8c0,0.2,0,0.4,0,0.6l0,0
				v0.2V643h4v-12.6c0-0.8,0.7-1.6,1.3-2l2,2l1.8-2c0.6,0.4,1,1.2,1,2V643h4v-12.6c0-4-2.9-7.2-6.7-7.2c-1,0-1.7,0.2-2.4,0.6l0,0
				c0.8-1,2.3-1.6,3.9-1.6l0,0c0.4,0,0.5,0,0.9,0.2c3.8,0.6,6.3,4,6.3,7.8c0,0.2,0,0.4,0,0.4V643h6v-12.4c0-5.8-3.7-10.4-9.5-11.8
				c-0.2,0-0.7-0.2-0.9-0.2c-0.4,0-0.9-0.2-1.5-0.2C1327.7,618.4,1327,618.6,1326.2,619z"/>
		</g>
	</g>
	<g>
		<path style="fill:#002D74;" d="M2761.6,1223.8c0-1.6-1.2-2.8-2.8-2.8s-2.8,1.2-2.8,2.8c0,1.6,1.2,2.8,2.8,2.8
			S2761.6,1225.4,2761.6,1223.8 M2912.8,1241.4c0-1.6-1.2-2.8-2.8-2.8s-2.8,1.2-2.8,2.8s1.2,2.8,2.8,2.8
			S2912.8,1242.8,2912.8,1241.4 M2758,1200h-12v6h12.4c1.8,0,3.2-0.2,4.6,1.2c1,1,1.4,2.8,1.8,2.8h-7.4l0,0h-3.6
			c-3.6,0-6.6,1.7-9,3.9c-2.4,2.4-3.6,5.7-3.6,9.1c0,3.6,1.2,6.7,3.6,9.1c2.4,2.4,5.4,3.9,9,3.9h16.2v-6h-16.8c-1.8,0-3.2-0.6-4.6-2
			c-1.2-1.2-1.8-3.2-1.8-4.8c0-1.8,0.6-3.8,1.8-5c1.2-1.2,2.8-2.2,4.6-2.2h4.2l0,0h12.6v-5.2c0-3-1.3-5.1-3.5-7.1
			c-2.4-2.4-5.3-3.5-8.9-3.5 M2908,1236h4v-36h-4V1236z M2841.2,1226c0.6,0,1.6,3.6,3,5c2.8,2.8,6,5,10,5c0.2,0,0.4,0,0.6,0
			c3.8,0,7.2-2,10-4.8c1.4-1.4,2.6-3.2,3.2-5.2h20.2l0,0c3.6,0,6.1-0.9,8.5-3.3c2.4-2.4,3.3-5.3,3.3-8.9V1200h-6v14.2
			c0,1.8-0.1,3-1.5,4.4c-1.4,1.2-2.3,1.4-4.1,1.4H2868v1c0-4-0.9-7.4-3.5-10.2s-5.8-4.4-9.8-4.6s-7.5,1.2-10.5,4.2
			s-4.3,6.4-4.3,10.6v-1h-38v-6.6l0,0c0-3.6-0.8-6.6-3.4-9.2c-2.4-2.6-5.2-4-8.8-4.2c-3.6-0.2-6.9,1.2-9.5,3.8s-3.9,5.8-3.9,9.6
			c0,3.6,1.2,6.5,3.6,8.9c2.4,2.6,5.6,3.7,9,3.7c0.2,0,0.4,0,0.6,0c0.4,0,0.8,0,1,0h6c-0.2,0-0.6,1.3-1.2,1.7c-1,1-2.2,2.3-3.8,2.3
			H2776v6h15.4c3,0,5.6-1.7,7.8-3.9c1.6-1.6,2.6-4.1,3.2-6.1H2841.2L2841.2,1226z M2848.2,1214.3c1.8-1.8,3.8-2.3,6.2-2.3h0.2l0,0
			c2.4,0,4.4,0.5,6,2.3c1.8,1.8,2.6,3.9,2.8,6.3c0,2.6-0.8,4.7-2.8,6.7c-1.8,2-4,2.8-6.6,2.6l0,0c-2.4,0-4.4-1-6.2-2.8
			c-1.6-1.8-2.4-3.9-2.4-6.5C2845.6,1218.2,2846.4,1216.1,2848.2,1214.3 M2789.6,1220L2789.6,1220c-0.2,0-0.2,0-0.4,0l0,0
			c-2,0-3.8-0.3-5.2-1.9s-2.2-3.2-2-5.3c0-2.2,0.8-3.6,2.2-5c1.6-1.6,3.2-1.8,5.2-1.8c0,0,0,0,0.2,0l0,0c2,0,4.2,0.5,5.6,1.9
			c1.4,1.6,0.8,3.1,2.8,5.1v0.2v6.8l0,0l0,0h-7.2H2789.6L2789.6,1220z M2908,1272c0,1.8-1.1,3.2-2.5,4.6c-1.4,1.2-3.5,1.8-5.5,1.8
			v5.6c4,0,6.3-1.2,8.7-3.6c2.4-2.4,3.3-5.4,3.3-9.2V1248h-4V1272z M2900,1248h-6v16.6c0,1.8-0.2,3.2-1.6,4.6
			c-1.4,1.2-3,2.2-4.8,2.2s-4.1-1-5.3-2.2c-1.4-1.4-2.3-2.8-2.3-4.6V1248h-4v16.2c0,3.6,0.8,6.6,3.2,9.2c2.4,2.4,5.2,3.6,8.8,3.6
			s6.3-1.2,8.7-3.6s3.3-5.4,3.3-9.2L2900,1248L2900,1248z M2854.8,1247.6c-4-0.2-7.6,1.2-10.6,4.2s-4.4,6.4-4.4,10.6
			c0,4,1.4,6.9,4,9.7c2.8,2.8,6,3.9,10,3.9c0.2,0,0.4,0,0.6,0c3.8,0,7.2-0.9,10-3.7c3-3,4.4-6.2,4.4-10.3c0-4-1.4-7.3-4-10.1
			S2858.8,1247.6,2854.8,1247.6 M2860.8,1269c-1.8,2-4,2.8-6.6,2.6l0,0c-2.4,0-4.4-1-6.2-3c-1.8-1.8-2.6-4-2.4-6.6
			c0-2.6,1-5.2,2.8-7s3.8-3,6.2-3h0.2l0,0c2.4,0,4.4,1.2,6.2,3s2.6,4.2,2.8,6.6C2863.6,1264.4,2862.6,1267,2860.8,1269 M2776,1276h6
			v-34h-6V1276z M2756.2,1247.6c-4.2-0.2-7.6,1.2-10.6,4.2s-4.4,6.4-4.4,10.6c0,4,1.4,6.8,4,9.6c2.6,2.8,6,4,10,4c0.2,0,0.4,0,0.6,0
			c3,0,6.2-0.2,8.2-2v2h6v-13.6c0-3.8-1.1-7.4-3.9-10.2C2763.3,1249.2,2760.2,1247.6,2756.2,1247.6 M2762,1269.1
			c-1.8,1.8-3.8,2.9-6.2,2.9c-0.2,0-0.4,0-0.4,0c-2.4,0-4.6-1.1-6.2-3.1c-1.8-1.8-2.6-4.1-2.4-6.7c0-2.6,1-4.6,2.8-6.4
			s4-2.6,6.4-2.6s4.4,0.8,6.2,2.6c1.8,1.8,2.6,4,2.6,6.4C2764.8,1264.7,2763.8,1267.1,2762,1269.1 M2820.6,1242
			c-0.4,0-0.7-0.2-1.1-0.2c-0.6,0-1.1-0.2-1.9-0.2c-1.4,0-2.4,0.2-3.4,0.6c-0.8,0.2-1.7,0.6-2.9,1.4c-5.2,3.2-7.3,9.2-7.3,14.8v17.6
			h6v-17.4c0-1.2,0.9-2.2,1.7-3l2.8,3l2.4-3c0.8,0.8,1.2,1.8,1.2,3v17.4h6v-17.2c0-11.2-10.3-11.4-13.5-10c4.6-5.4,17.5-2,17.5,10
			v17.2h6c0,0,0-17.2,0-17.4C2834,1250.4,2829,1243.8,2820.6,1242 M2855,1285.6c0.4,0,0.8-0.4,0.8-0.8c0-0.4-0.4-0.8-0.8-0.8
			c-0.4,0-0.8,0.4-0.8,0.8C2854.2,1285.2,2854.6,1285.6,2855,1285.6 M2857.2,1285.6c0.4,0,0.8-0.4,0.8-0.8c0-0.4-0.4-0.8-0.8-0.8
			c-0.4,0-0.8,0.4-0.8,0.8C2856.4,1285.2,2856.8,1285.6,2857.2,1285.6 M2884.4,1287.2c-2.6,0.2-4.6,2.7-4.6,5.3c0,0.4,0-0.5,0.2,1.5
			h-5.2c0.2-2-0.8-1.4-0.8-2v-3.6l0,0v3.2c0,1.6-1,2.4-2,2.4h-1.6c0.2-2-0.4-1.2-0.4-1.8v-4.2h-2v3.8c0,1.6,0.6,2.2-0.2,2.2h-1.8
			c0,0,0-1,0-1.6v-4.4h-2v4c0,1.2,0,2-0.8,2h-3.2h-1.4c-0.4,0-0.8-0.1-1-0.3c0.6-0.4,1-0.8,1.4-1.4c0.4-0.6,0.6-1.4,0.6-2.2
			c0-1-0.4-1.8-1-2.4c-0.6-0.8-1.6-1-2.8-1s-2,0.4-2.8,1c-0.6,0.6-1,1.4-1,2.4c0,0.8,0.2,1.4,0.6,2.2c0.4,0.6,0.8,1.1,1.4,1.5
			c-0.4,0.2-0.6,0.3-1,0.3h-4.2h-6.8v-0.6c0-3.8-1-5.6-3.6-5.6c-1.8,0-4.4,1.2-4.4,3.2v-7h-2v5.6l0,0v4.4h-2v2h18.8h3.4
			c1,0,1.6,0,1.8,0c0.6-2,1.2-0.4,1.8-0.8c0.6,0.4,1.2-1.2,1.8,0.8c0.4,0,1,0,1.8,0h0.4h5h15.6c1,0,2.4,1.7,4,1.5
			c2.6-0.2,4.6-2.6,4.6-5.2C2889.2,1289.2,2887,1287,2884.4,1287.2 M2840,1292h-6.6c0.8-2,3-4,4.8-4c1.6,0,2.6,1.3,2.6,3.7
			c-0.2,0.2-0.2,0.4-0.2,0.4 M2856,1292.2c-0.6-0.2-1.2-0.6-1.4-1.2c-0.4-0.4-0.4-1-0.4-1.6c0-1.2,0.8-2,2-2c0.6,0,1.2,0.2,1.4,0.6
			c0.4,0.4,0.6,0.8,0.6,1.4s-0.2,1-0.6,1.6C2857.2,1291.4,2856.6,1291.8,2856,1292.2 M2884.8,1295c-1.8,0-3.2-1.4-3.4-3
			c0-1.8,1.4-3.2,3-3.4c1.8,0,3.2,1.4,3.4,3C2887.8,1293.6,2886.4,1295,2884.8,1295"/>
		<path style="fill:#00A6D6;" d="M2814.8,1242C2815.2,1242,2814.8,1242,2814.8,1242c-7,0-14.8,7.4-14.8,16.4v17.6h-6v-17.6
			c0-9.6,8.2-16.4,19-16.4H2814.8z M2820,1286v4.2c0,0.8,0.8,1.6,1.4,2.2c0.6,0.6,0.6,1,2.6,1v1.6c-2,0-3-0.4-4-1.4s-2-2-2-3.4v-6.2
			h2V1286h4l0,0H2820L2820,1286z M2792.4,1294.8c-1.2,0-2.4-0.4-3.4-1.2l1-1.2c0.8,0.6,1.6,1,2.4,1c1,0,1.6-0.8,1.6-1.6
			c0-0.8-1-1.8-2-1.8h-0.2c-1.2,0-2.6-0.8-2.6-2.2c0-1.6,1.4-2.4,3.2-2.4c1,0,2,0.5,3,1.1l-1,1.1c-0.6-0.4-1.2-0.6-1.8-0.6
			c-0.8,0-1.4,0.6-1.4,1.4s1-0.4,2,1.6h0.2c1.4,0,2.6,0.8,2.6,2.4C2795.8,1294,2794.4,1294.8,2792.4,1294.8 M2797.4,1290.2
			c0-1.4,0.4-2.4,1.4-3.4s2-1.4,3.4-1.4c1.2,0,2.4,0.4,3.4,1.4l-1,1c-0.6-0.6-1.4-1-2.2-1s-1.6,0.4-2.2,1c-0.6,0.6-1,1.4-1,2.2
			s0.4,1.6,1,2.2c0.6,0.6,1.4,1,2.2,1s1.6-0.4,2.2-1l1,1c-1,1-2,1.4-3.4,1.4s-2.4-0.4-3.4-1.4
			C2797.8,1292.6,2797.4,1291.4,2797.4,1290.2L2797.4,1290.2z M2787.2,1290c0,2-0.4,2.5-1.2,3.3c-0.8,0.8-1.8,1.4-2.8,1.4
			s-1.6-0.3-2.4-1.1c-0.8-0.8-0.8-1.7-0.8-2.7v-4.6l0,0v4.6c0,0.6,0.6,1.2,1.2,1.8c0.4,0.4,1.2,0.8,2,0.8c0.6,0,1.3-0.2,1.9-0.8
			c0.4-0.4,0.9-1,0.9-1.8v-5h2v4L2787.2,1290L2787.2,1290z M2776,1289c0-0.6-0.3-1-0.7-1.6c-0.4-0.4-0.9-0.6-1.4-0.6
			c-0.6,0-1.1,0.2-1.3,0.6c-0.4,0.4-0.5,1-0.5,1.6v5h-2v-5c0-0.6-0.1-1.2-0.5-1.6s-0.8-0.6-1.3-0.6c-0.6,0-1.1,0.2-1.5,0.6
			s-0.7,1-0.7,1.6v5h-2v-5c0-1,0.7-1.8,1.3-2.6c0.8-0.8,1.8-1.2,2.8-1.2c1.2,0,2.1,0.4,2.9,1.4c0.6-0.8,1.6-1.4,2.8-1.4
			c1,0,2.1,0.4,2.9,1.2c0.6,0.8,1.3,1.6,1.3,2.6v5h-2v-5H2776z M2816,1293.4c0,1-2.4,1.6-3.8,1.6c-1.2,0-2.6-0.4-3.4-1.4
			s-1.5-2-1.5-3.4s0.3-2.4,1.3-3.4s2-1.4,3.4-1.4s2,0.4,3,1.4s1,2,1,3.4v4.2l0,0V1293.4L2816,1293.4z M2815.2,1290.2
			c0-0.8-0.4-1.6-1-2.2s-1.4-1-2.2-1s-1.6,0.4-2.2,1c-0.6,0.6-1,1.4-1,2.2c0,0.8,0.4,1.6,1,2.2s1.4,1,2.2,1s1.6-0.4,2.2-1
			C2814.8,1291.8,2815.2,1291,2815.2,1290.2"/>
	</g>
</g>
<g id="app_x5F_UAE--button">
	<polygon id="tap_x5F_area_1_" style="fill:#FFFFFF;fill-opacity:0;" points="2443,1382 2425.4,1878 2808.8,1878 2772.2,1382 	"/>
	<g>
		<path id="Line-4-Copy" style="fill:none;stroke:#8A1538;stroke-width:4;" d="M2490,1058v632"/>
		<path id="Line-4-Copy-2" style="fill:none;stroke:#8A1538;stroke-width:4;" d="M2544,1690h-56"/>
		<path id="Line-4-Copy-3" style="fill:none;stroke:#8A1538;stroke-width:4;" d="M2544,1516h-56"/>
	</g>
	<g transform="translate(1209.000000, 521.000000)">
		<polygon id="Fill-124_13_" style="fill:#8A1538;" points="1257,527 1257,575 1273.6,575 1281.4,583.6 1289.4,575 1305,575 
			1305,527 		"/>
		<g id="Group_13_" transform="translate(5.000000, 5.000000)">
			<path id="Path_26_" style="fill:#FFFFFF;" d="M1275.4,532c-7.6,0-13.4,6.4-13.4,13.2V558h4c0,0,0-6.8,0-12.8
				c0-6.4,5.3-11.4,10.1-12.4c0.2,0,0.9-0.8,0.7-0.8H1275.4z"/>
			<path id="Path_27_" style="fill:#FFFFFF;" d="M1276.2,533.8c-0.6,0.2-0.8,0.4-1.6,1c-3.4,2.2-4.6,6-4.6,9.8c0,0.2,0,0.4,0,0.6
				l0,0v0.2V558h4v-12.6c0-0.8,0.2-1.6,0.8-2l1.7,2l2.1-2c0.6,0.4,1.3,1.2,1.3,2V558h4v-12.6c0-4-3.4-7.2-7.2-7.2
				c-1,0-1.9,0.2-2.7,0.6l0,0c0.8-1,2.2-1.6,3.8-1.6l0,0c0.4,0,1,0,1.4,0.2c3.8,0.6,6.8,4,6.8,7.8c0,0.2,0,0.4,0,0.4V558h4v-12.4
				c0-5.8-3.2-10.4-9-11.8c-0.2,0-0.5-0.2-0.7-0.2c-0.4,0-0.8-0.2-1.3-0.2C1277.8,533.4,1277,533.6,1276.2,533.8z"/>
		</g>
	</g>
	<rect id="app_x5F_UAE--tap" x="2452.3" y="1035.2" style="fill:#FFFFFF;fill-opacity:0;" width="75" height="75"/>
	<g>
		<g id="XMLID_211_">
			<path id="XMLID_224_" style="fill:#001C71;" d="M2580,1564.4c0,0-3.6,2.9-6,2.9c-2.2,0-4.2-0.7-5.8-2.2s-2.4-3.5-2.4-5.7
				c0-2.4,0.8-4.2,2.4-6c1.6-1.6,3.6-2.4,6-2.4s4.1,0.8,5.7,2.4c1.6,1.6,2.1,3.6,2.1,6v8.6h-2V1564.4L2580,1564.4L2580,1564.4z
				 M2580,1559.4c0-1.6-0.6-2.8-1.6-4c-1.2-1.2-2.4-1.6-4-1.6s-2.8,0.6-4,1.6c-1.2,1.2-1.6,2.4-1.6,4s0.6,2.8,1.6,4
				c1.2,1.2,2.4,1.6,4,1.6s2.8-0.6,4-1.6C2579.4,1562.2,2580,1561,2580,1559.4"/>
			<rect id="XMLID_223_" x="2586" y="1544" style="fill:#001C71;" width="4" height="24"/>
			<polygon id="XMLID_222_" style="fill:#001C71;" points="2610.2,1554 2602,1554 2602,1550 2615.2,1550 2606.4,1564 2616,1564 
				2616,1568 2601.4,1568 			"/>
			<path id="XMLID_219_" style="fill:#001C71;" d="M2631.2,1564c-1.6,0-3.6,3.1-6,3.1c-2.2,0-4.2-0.6-5.8-2.2s-2.4-3.5-2.4-5.7
				c0-2.4,0.8-4.1,2.4-5.9c1.6-1.6,3.6-2.4,6-2.4s4.5,0.8,6.1,2.4c1.6,1.6,2.5,3.6,2.5,6v8.6h-4v-4L2631.2,1564L2631.2,1564z
				 M2631.2,1559.4c0-1.6-0.6-2.8-1.6-4c-1.2-1.2-2.4-1.6-4-1.6s-2.8,0.6-4,1.6c-1.2,1.2-1.6,2.4-1.6,4s0.6,2.8,1.6,4
				c1.2,1.2,2.4,1.6,4,1.6s2.8-0.6,4-1.6C2630.6,1562.2,2631.2,1561,2631.2,1559.4"/>
			<path id="XMLID_218_" style="fill:#001C71;" d="M2650,1558c0-1.2-0.8-2.2-1.6-3s-2-1.2-3.2-1.2s-2.7,0.4-3.5,1.2s-1.7,1.8-1.7,3
				v10h-2v-24h2v9.2c2-1.6,3.4-2.2,5.2-2.2s3.6,0.8,4.8,2.2c1.2,1.4,2,3,2,4.8v10h-2V1558L2650,1558z"/>
			<path id="XMLID_215_" style="fill:#001C71;" d="M2656.6,1545.8h2.8v2.8h-2.8V1545.8z M2656,1550h4v18h-4V1550z"/>
			<path id="XMLID_212_" style="fill:#001C71;" d="M2676.6,1564c-1.6,0-3.6,3.1-6,3.1c-2.2,0-4.2-0.6-5.8-2.2s-2.4-3.5-2.4-5.7
				c0-2.4,0.8-4.1,2.4-5.9c1.6-1.6,3.6-2.4,6-2.4s4.8,0.8,6.4,2.4c1.6,1.6,2.8,3.6,2.8,6v8.6h-4v-4L2676.6,1564L2676.6,1564z
				 M2676.6,1559.4c0-1.6-0.6-2.8-1.6-4c-1.2-1.2-2.4-1.6-4-1.6s-2.8,0.6-4,1.6c-1.2,1.2-1.6,2.4-1.6,4s0.6,2.8,1.6,4
				c1.2,1.2,2.4,1.6,4,1.6s2.8-0.6,4-1.6C2676,1562.2,2676.6,1561,2676.6,1559.4"/>
		</g>
		<path id="XMLID_198_" style="fill:#001C71;" d="M2573.6,1514.2h-2.6v2.6h2.6V1514.2z M2670,1529.4c0,1.2-0.7,2.4-1.5,3.2
			c-0.8,0.8-2.1,1.4-3.3,1.4H2654v-10h-2v13.2c0,1.2-0.2,2.2-1,3s-3,1.2-3,1.2v2.8c2,0,3-0.8,4.4-2.2c1.4-1.4,1.6-3,1.6-4.8v-1.2
			h11.6h-0.3c1.6,0,3.2-0.6,4.4-2c1.4-1.4,2.2-2.8,2.2-4.6V1512h-2v17.4H2670z M2596,1541.8h2.6v-2.6h-2.6V1541.8z M2577.6,1514.2
			h-2.6v2.6h2.6V1514.2z M2654.6,1519.2h-2.6v2.6h2.6V1519.2z M2600,1541.8h2.6v-2.6h-2.6V1541.8z M2626.6,1520
			c-0.2,0-0.8-0.2-1.6-0.4c-0.4,0-0.8-0.8-1.2-0.8c-0.6,0-1.2-0.8-1.8-0.8c-0.2,0-0.4,0-0.6,0c-1,0-1.9,0.8-2.9,1s-2.5,1.2-2.5,1.8
			v3c0-0.6,1.5-1,2.5-1.4c1-0.4,1.7-0.4,2.9-0.4h0.2l0,0c2.8,0,4.8,1.2,4.8,1.2c2.6,1.4,4.6,4.5,4.6,8.7c0,0.8,0,0.1-0.2,2.1h-5
			c0.8-2,1.2-2.4,1.2-3.6c0-1.6-0.6-3.1-1.6-4.1c-1.2-1.2-2.4-1.7-4-1.7s-2.8,0.6-4,1.6s-1.6,2.5-1.6,4.1c0,1.4,0.4,1.7,1.4,3.7
			h-12.8c-1.2,0-2-0.5-2.8-1.3s-1.6-1.7-1.6-2.7c0,0,0,0.2,0,0v-10h-2c0,0,0,9.8,0,10c0,1-0.4,1.9-1.2,2.7s-1.8,1.3-3,1.3h-7.2l0,0
			c-1,0-2.3-0.5-3.1-1.1c-0.8-0.8-1.5-1.5-1.5-2.5l0,0c0,0,0-1,0-1.4v-0.8c0-2.4-0.3-4.2-1.9-6c-1.6-1.6-3.4-2.4-5.8-2.4
			s-4.1,0.8-5.9,2.4c-1.6,1.6-2.3,3.6-2.3,6c0,2.2,0.8,4.2,2.4,5.8c1.6,1.6,3.6,2.4,5.8,2.4c2.4,0,4.4-0.8,6-2.6c0,0,0.6-0.6,0.8-1
			l0.4,0.6c0.2,0.4,0.6,0.8,0.8,1c1.4,1.4,2.8,1.8,4.6,1.8v-0.2h7.4l0,0c1.6,0,3.2-0.6,4.4-1.8c0.2-0.2,0.6-0.5,0.8-0.7
			c0.2,0.2,0.4,0.4,0.8,0.7c1.2,1.2,2.4,1.8,3.8,1.8h29.6c0.2,0,0.6-2.8,0.6-4.2c0-3-0.8-5.5-2.2-7.7
			C2630.8,1522.3,2628.8,1520.8,2626.6,1520z M2578.4,1532.2c-1.2,1.2-2.4,1.6-4,1.6s-2.8-0.6-4-1.6c-1.2-1.2-1.6-2.4-1.6-4
			c0-1.6,0.6-2.8,1.6-4c1.2-1.2,2.4-1.6,4-1.6s2.8,0.6,4,1.6c1.2,1.2,1.6,2.4,1.6,4C2580,1529.8,2579.4,1531,2578.4,1532.2z
			 M2623.6,1532.4c-0.6,0.6-1.2,0.8-2,0.8s-1.6-0.2-2-0.8c-0.6-0.6-0.8-1.2-0.8-2.2c0-0.8,0.2-1.6,0.8-2c0.6-0.6,1.2-0.8,2.2-0.8
			c0.8,0,1.6,0.2,2,0.8c0.6,0.6,0.8,1.2,0.8,2C2624.4,1531,2624.2,1531.8,2623.6,1532.4z M2642,1536h2v-22h-2V1536z M2676,1512v24h4
			v-24H2676z"/>
		<g id="XMLID_71_">
			<g id="XMLID_87_">
				<path id="XMLID_197_" style="fill:#0075C9;" d="M2566.6,1588c0,0-0.2-1.2-0.8-1.6c-0.4-0.4-1-0.7-1.8-0.7
					c-0.6,0-0.9,0.2-1.5,0.8c-0.4,0.4-0.5,1.1-0.5,1.9v5.6h-2v-14h2v5.6c0-0.8,1.5-1.4,2.5-1.4s1.9,0.4,2.7,1.2
					c0.8,0.8,0.8,1.8,0.8,2.8v5.8h-2v-6L2566.6,1588L2566.6,1588z"/>
				<path id="XMLID_194_" style="fill:#0075C9;" d="M2578.8,1592c-1,2-2.2,1.8-3.6,1.8c-1.4,0-2.4-0.3-3.4-1.3s-1.4-2.2-1.4-3.4
					c0-1.4,0.4-2.6,1.4-3.4c1-1,2.2-1.4,3.4-1.4c1.4,0,2.6,0.4,3.4,1.4c1,1,1.4,2.2,1.4,3.4v4.8h-2v-2L2578.8,1592L2578.8,1592z
					 M2578.8,1589.2c0-1-0.4-1.8-1-2.4s-1.4-1-2.4-1s-1.6,0.4-2.4,1c-0.6,0.6-1,1.4-1,2.4s0.4,1.8,1,2.4s1.4,1,2.4,1s1.6-0.4,2.4-1
					C2578.6,1590.8,2578.8,1590,2578.8,1589.2"/>
				<path id="XMLID_193_" style="fill:#0075C9;" d="M2587,1586c-0.8,0-1.6,0.1-2,0.7c-0.4,0.4-1,1.1-1,1.7v5.6h-2v-5.6
					c0-1,0.4-2,1.2-2.8s2.8-1.2,2.8-1.2v1.6L2587,1586L2587,1586z"/>
				<path id="XMLID_96_" style="fill:#0075C9;" d="M2591.6,1592c0,2-0.2,2.5-1,3.3s-2.6,1.7-2.6,1.7v-1.6c0,0,1.1-0.2,1.5-0.8
					c0.4-0.4,0.5-1,0.5-1.8v-8.8h2v8L2591.6,1592L2591.6,1592z M2590,1581.2h1.6v1.6h-1.6V1581.2z"/>
				<path id="XMLID_91_" style="fill:#0075C9;" d="M2602.2,1592c-1,2-2.2,1.8-3.6,1.8c-1.4,0-2.4-0.3-3.4-1.3s-1.4-2.2-1.4-3.4
					c0-1.4,0.4-2.6,1.4-3.4c1-1,2.2-1.4,3.4-1.4c1.4,0,2.9,0.4,3.7,1.4c1,1,1.7,2.2,1.7,3.4v4.8h-2v-2L2602.2,1592L2602.2,1592z
					 M2602.2,1589.2c0-1-0.4-1.8-1-2.4s-1.4-1-2.4-1s-1.6,0.4-2.4,1c-0.6,0.6-1,1.4-1,2.4s0.4,1.8,1,2.4s1.4,1,2.4,1s1.6-0.4,2.4-1
					C2601.8,1590.8,2602.2,1590,2602.2,1589.2"/>
				<path id="XMLID_90_" style="fill:#0075C9;" d="M2613.2,1588c0,0-0.2-1.2-0.8-1.6s-1-0.7-1.8-0.7c-0.6,0-1.2,0.2-1.8,0.8
					c-0.4,0.4-0.8,1.1-0.8,1.9v5.6h-2v-14h2v5.6c0.8-0.8,1.8-1.4,2.8-1.4s1.7,0.4,2.5,1.2c0.8,0.8,0.7,1.8,0.7,2.8v5.8h-2v-6
					L2613.2,1588L2613.2,1588z"/>
				<path id="XMLID_88_" style="fill:#0075C9;" d="M2553.6,1594c-1.2,0-2.4-0.4-3.4-1.2l1-1.2c0.8,0.6,1.6,1,2.4,1
					c1,0,1.6-0.3,1.6-1.1c0-0.8-1-1.5-2-1.5h-0.2c-1.2,0-2.6-1.3-2.6-2.7c0-1.6,1.4-2.8,3.4-2.8c1,0,2,0.4,3,1l-1.2,1
					c-0.6-0.4-1.2-0.8-1.8-0.8c-1,0-1.6,0.3-1.6,1.1c0,0.8,1,1.3,2,1.3h0.2c1.4,0,2.6,1.3,2.6,2.9
					C2557.2,1592.7,2555.8,1594,2553.6,1594"/>
			</g>
			<g id="XMLID_72_">
				<path id="XMLID_86_" style="fill:#0075C9;" d="M2634,1583.6c0.6,0,1-0.4,1-1s-0.4-1-1-1s-1,0.4-1,1S2633.4,1583.6,2634,1583.6z"
					/>
				<path id="XMLID_85_" style="fill:#0075C9;" d="M2636.4,1583.6c0.6,0,1-0.4,1-1s-0.4-1-1-1s-1,0.4-1,1
					S2635.8,1583.6,2636.4,1583.6z"/>
				<path id="XMLID_81_" style="fill:#0075C9;" d="M2646.2,1587.8c0,1.2,1.1,2.8,3.1,2.8c1,0,0.7-0.2,2.7-0.8v0.2c0,1.2-1,2-2.4,2
					h-10c-1.2,0-1.6-0.2-1.6-2v-4.8l0,0c-0.6,0-1.4-0.2-2.4-0.2c-3.2,0-5.2,1.6-5.2,4c0,2.8,2.4,3.8,4.6,3.8c0.6,0,1.2,0.1,2-0.1
					c0.8,1.2,2,1.3,2.4,1.3h11c1.4,0,3.6-1.2,3.6-4v-6h-2.4C2648,1584,2646.2,1585.6,2646.2,1587.8z M2649.4,1589.4
					c-0.6,0-1.4-0.4-1.4-1.4c0-1.2,1-1.8,3.4-1.8v1.4c0,0.2,0,0.2,0,0.4C2651.2,1588.6,2650.6,1589.4,2649.4,1589.4z M2635.2,1586
					c0.4,0,0.8,0,0.8,0v6c0,0-0.4,0-0.8,0c-1.4,0-3-1.1-3-2.9C2632.2,1587.3,2633.4,1586,2635.2,1586z"/>
				<path id="XMLID_80_" style="fill:#0075C9;" d="M2651.8,1583.2L2651.8,1583.2c0.6,0,1-0.4,1-1s-0.4-1-1-1s-1,0.4-1,1
					S2651.2,1583.2,2651.8,1583.2z"/>
				<path id="XMLID_79_" style="fill:#0075C9;" d="M2649.4,1583.2L2649.4,1583.2c0.6,0,1-0.4,1-1s-0.4-1-1-1s-1,0.4-1,1
					S2648.8,1583.2,2649.4,1583.2z"/>
				<path id="XMLID_78_" style="fill:#0075C9;" d="M2656,1587.2v5.4c0,3.2,0.2,3.4-1.2,3.4h-0.2l-0.1,1.5l0,0c2.6,0,3.5-1.5,3.5-4.3
					v-6.6L2656,1587.2L2656,1587.2z"/>
				<path id="XMLID_77_" style="fill:#0075C9;" d="M2676.8,1582.2c0,0.6,0.4,1,1,1l0,0c0.6,0,1-0.4,1-1s-0.4-1-1-1
					S2676.8,1581.6,2676.8,1582.2z"/>
				<path id="XMLID_76_" style="fill:#0075C9;" d="M2675.2,1583.2L2675.2,1583.2c0.6,0,1-0.4,1-1s-0.4-1-1-1s-1,0.4-1,1
					C2674.4,1582.8,2674.8,1583.2,2675.2,1583.2z"/>
				<path id="XMLID_75_" style="fill:#0075C9;" d="M2676.4,1581.2L2676.4,1581.2c0.6,0,1-0.4,1-1s-0.4-1-1-1s-1,0.4-1,1
					C2675.4,1580.6,2675.8,1581.2,2676.4,1581.2z"/>
				<path id="XMLID_74_" style="fill:#0075C9;" d="M2688.8,1590c0,0-0.4,2-1.8,2h-2.2c-0.6,0-1.4,0-1.8-0.4s-1-0.8-1-1.4v-5.4
					l-2,0.6v4.4c0,1.2,0.4,2.6-1,2.6c-1.2,0-1-1-1-2v-4.6l-2,0.6v3.8c0,1.4-0.8,2.2-1.8,2.2c-1.2,0-2.2-1-2.2-2v-4l-2,0.6v3
					c0,1.4-0.4,2-1.4,2h-4c-1.2,0-2.6-0.6-2.6-2.4v-8.6v0.6v8.2c0,2.8,0.8,4.2,2.2,4.2h5l0,0c1,0,2-0.8,2.4-1.8
					c0.6,1,1.6,1.5,2.8,1.5c1,0,2-0.7,2.4-1.7c0.6,1,1.6,1.6,2.8,1.6c0.4,0,1.8,0,2.6-1.4c0.6,1,1.6,1.8,2.8,1.8h2.4l0,0l0,0l0,0
					c1.4,0,2.6-1.4,2.6-4.2v-8.8l-2,0.6v8.4L2688.8,1590L2688.8,1590z"/>
			</g>
		</g>
		<g id="XMLID_15_">
			<g id="XMLID_68_">
				<g>
					
						<linearGradient id="SVGID_51_" gradientUnits="userSpaceOnUse" x1="2618.1045" y1="-387.0349" x2="2580.9578" y2="-429.2167" gradientTransform="matrix(1 0 0 -1 0 1080)">
						<stop  offset="0" style="stop-color:#E34126"/>
						<stop  offset="1" style="stop-color:#FFC333"/>
					</linearGradient>
					<path id="SVGID_48_" style="fill:url(#SVGID_51_);" d="M2584,1480v22h12v-22.6c0,0.2-1.7,0.2-2.7,0.2c-2.2,0-4.3-0.4-6.3-1.4
						c-1,1-2,1.3-3,2.3 M2610,1468c-1.6,1.6-4,3.6-5.4,6.4c-0.6,0.8-0.6,1.6-2.6,2.2v25.4h8c0,0-0.2-2.2-0.2-3.4
						c-0.2-1.4-1.4-2.5-1.2-3.7c1-5.6,4.6-4,5.6-9.6c0.4-1.8-0.2-3.5,1.8-5.1V1467C2614,1467,2612,1467.4,2610,1468"/>
				</g>
			</g>
			<g id="XMLID_65_">
				<g>
					
						<linearGradient id="SVGID_52_" gradientUnits="userSpaceOnUse" x1="2616.6597" y1="-385.4212" x2="2674.8057" y2="-387.0287" gradientTransform="matrix(1 0 0 -1 0 1080)">
						<stop  offset="0" style="stop-color:#007496"/>
						<stop  offset="0.417" style="stop-color:#007496"/>
						<stop  offset="1" style="stop-color:#5BCAF4"/>
					</linearGradient>
					<path id="SVGID_47_" style="fill:url(#SVGID_52_);" d="M2639,1455.8c-1,0.8-2.2,0.8-3.6,0.6c-2.2-0.2-4.8-0.4-7.6,3.2
						c1.4,1.4,2.2,3.4,2.2,5.6v2.8c0,0,1.6,0,2.2,0c1.6,0,3.3,0.4,4.3,0.6c1.8,0.4,3.5,1.2,5.5,2v-5c0-4.2-0.5-7.6-1.7-10.4
						C2639.7,1455.6,2639.4,1455.6,2639,1455.8 M2645.7,1453.2c1.8,3.4,2.3,7.6,2.3,12.4v9.2c2,0.8,2.7,1.8,3.7,3
						c3.4,2.2,6.3,5,10.3,8c0-9.8,0-20.4,0-20.6c0-6.6-2.2-12.6-5.4-17.8C2654,1449.8,2649.5,1451.8,2645.7,1453.2"/>
				</g>
			</g>
			<g id="XMLID_62_">
				<g>
					
						<linearGradient id="SVGID_53_" gradientUnits="userSpaceOnUse" x1="2620.1738" y1="-380.1135" x2="2544.1267" y2="-389.4252" gradientTransform="matrix(1 0 0 -1 0 1080)">
						<stop  offset="0" style="stop-color:#D83C73"/>
						<stop  offset="0.1992" style="stop-color:#CE3869"/>
						<stop  offset="0.5406" style="stop-color:#B32E4D"/>
						<stop  offset="0.9803" style="stop-color:#871D21"/>
						<stop  offset="1" style="stop-color:#851C1F"/>
					</linearGradient>
					<path id="SVGID_33_" style="fill:url(#SVGID_53_);" d="M2602,1464v6.4c4-1,5.1-1.8,7.3-2.4c1.8-0.4,4.7-0.8,4.7-1v-2
						c0-2.4,1.5-4.4,3.3-6l4.4,5c-1-1.8-2.3-4-3.9-5.8c-3.2-0.8-8.9-2.2-14.1-4c-1,3.6-1.7,6.8-1.7,10.2 M2584,1464v18
						c0-0.6,1-0.8,1.2-0.8c2.6-2,6.8-6.2,10.8-8v-8.4c0-4.6,1-8.8,2.6-12.6c-2-1-3.7-2-5.1-3c-0.4-0.4-0.9-0.8-1.3-1
						c-0.2,0-1.4-1-2.6-1.8c-3.6,5-5.6,11-5.6,18"/>
				</g>
			</g>
			<g id="XMLID_58_">
				<g>
					
						<linearGradient id="SVGID_54_" gradientUnits="userSpaceOnUse" x1="2583.7395" y1="-394.4" x2="2615.8125" y2="-394.4" gradientTransform="matrix(1 0 0 -1 0 1080)">
						<stop  offset="0" style="stop-color:#EF5136"/>
						<stop  offset="0.4045" style="stop-color:#CB3740"/>
						<stop  offset="0.7805" style="stop-color:#AF2447"/>
						<stop  offset="1" style="stop-color:#A51D4A"/>
					</linearGradient>
					<path id="SVGID_29_" style="fill:url(#SVGID_54_);" d="M2584,1480v2c2,0,7.6-2.4,9.4-2.4c1,0,2.6,0,2.6-0.2v-6.6
						c-4,1.6-9.2,5.4-12.2,7.8 M2602,1470v6.6c2-0.6,2.2-1.4,2.8-2.2c3-4.8,7.2-6,11.2-7.2v-0.4c-4,0.8-8,2.2-14,3.6"/>
				</g>
			</g>
			<g id="XMLID_55_">
				<g>
					
						<linearGradient id="SVGID_55_" gradientUnits="userSpaceOnUse" x1="2628.4404" y1="-384.9017" x2="2668.1423" y2="-427.4576" gradientTransform="matrix(1 0 0 -1 0 1080)">
						<stop  offset="0" style="stop-color:#698735"/>
						<stop  offset="1" style="stop-color:#D1D747"/>
					</linearGradient>
					<path id="SVGID_28_" style="fill:url(#SVGID_55_);" d="M2649,1494.8c0.2,0.6,0.4,1,0.2,1.8c3,1.8,5.8,3.4,8.4,5.4h4.4
						c0,0,0-4.4,0-10.6c-2-1.8-2.9-3.8-4.5-6.2c-1.8-2.8-3.8-5.2-5.3-7.2c-1.4-1.6-2.3-2.6-2.9-3.4L2649,1494.8L2649,1494.8z
						 M2630,1468v11.2c0,0.2,0.7,0.2,0.9,0.4c3.8,2,6.6,4.8,9.4,7.6c0.6,0.6,1.6,1,1.6,1.6v-18c-4-1.6-7.4-2.8-10-2.8
						C2631.4,1468,2630,1468,2630,1468"/>
				</g>
			</g>
			<g id="XMLID_54_">
				<g>
					
						<linearGradient id="SVGID_56_" gradientUnits="userSpaceOnUse" x1="2652.9153" y1="-404.5" x2="2670.563" y2="-404.5" gradientTransform="matrix(1 0 0 -1 0 1080)">
						<stop  offset="0" style="stop-color:#698735"/>
						<stop  offset="1" style="stop-color:#095B83"/>
					</linearGradient>
					<path id="SVGID_27_" style="fill:url(#SVGID_56_);" d="M2657.5,1485c1.6,2.4,2.5,4.4,4.5,6.2c0-1.8,0-3.6,0-5.4
						c-4-3-6.1-5.8-9.5-8C2654.1,1479.8,2655.5,1482.2,2657.5,1485"/>
				</g>
			</g>
			<g id="XMLID_50_">
				<g>
					
						<linearGradient id="SVGID_57_" gradientUnits="userSpaceOnUse" x1="2632.2256" y1="-388.0034" x2="2635.8413" y2="-445.6009" gradientTransform="matrix(1 0 0 -1 0 1080)">
						<stop  offset="0" style="stop-color:#698735"/>
						<stop  offset="1" style="stop-color:#D1D747"/>
					</linearGradient>
					<path id="SVGID_26_" style="fill:url(#SVGID_57_);" d="M2648,1502h11.4c-3.2-2-7.4-3.6-9.4-5.2v-0.2c0,0-2,0-2-0.2V1502z
						 M2609.1,1498.5c0.2,0.2,0.7,1.5,0.7,3.5h4.2v-13C2614,1492.6,2611.3,1495.7,2609.1,1498.5 M2630,1502h12v-12
						c-4-3.4-10-7.4-12-10.4V1502z"/>
				</g>
			</g>
			
				<linearGradient id="SVGID_58_" gradientUnits="userSpaceOnUse" x1="2608.1201" y1="-410.9" x2="2618.4736" y2="-410.9" gradientTransform="matrix(1 0 0 -1 0 1080)">
				<stop  offset="0" style="stop-color:#AD5F28"/>
				<stop  offset="1" style="stop-color:#215A4A"/>
			</linearGradient>
			<path id="SVGID_25_" style="fill:url(#SVGID_58_);" d="M2613.1,1485.2c-1,5.6-3.9,3.9-4.9,9.5c-0.2,0.8,0.6,3.3,1.1,7.3h1.2
				c1.2-4,3.6-8.4,3.6-12.8v-9.4C2614,1481.6,2613.3,1483.4,2613.1,1485.2"/>
			<g id="XMLID_45_">
				<g>
					
						<linearGradient id="SVGID_59_" gradientUnits="userSpaceOnUse" x1="2629.9529" y1="-410.5" x2="2660.5972" y2="-410.5" gradientTransform="matrix(1 0 0 -1 0 1080)">
						<stop  offset="0" style="stop-color:#698735"/>
						<stop  offset="1" style="stop-color:#215A4A"/>
					</linearGradient>
					<path id="SVGID_24_" style="fill:url(#SVGID_59_);" d="M2648,1497.2c4,1.8,7.4,2.8,10,4.8h2.6c-1.8-2-6.6-5.6-12.6-8.8V1497.2z
						 M2629.9,1479.6c2.8,3.4,8.1,7.2,12.1,12v-3.2c0-0.6-1.1-1-1.5-1.4c-2.8-2.8-5.7-5.4-9.5-7.6c-0.2-0.2-0.7-0.2-0.9-0.4
						L2629.9,1479.6L2629.9,1479.6z"/>
				</g>
			</g>
			<g id="XMLID_44_">
				<g>
					
						<linearGradient id="SVGID_60_" gradientUnits="userSpaceOnUse" x1="2620.8057" y1="-390.2667" x2="2620.3906" y2="-345.5781" gradientTransform="matrix(1 0 0 -1 0 1080)">
						<stop  offset="0" style="stop-color:#B12850"/>
						<stop  offset="1" style="stop-color:#007497"/>
					</linearGradient>
					<path id="SVGID_23_" style="fill:url(#SVGID_60_);" d="M2627.8,1441.5c0.6-3.2,1.6-7.5,3.4-9.5c-0.6,0-1.2,0-1.8,0
						c-2.6,0-4.6,0.5-6.8,1.3c-1.6,0.6-3.2,1.2-5.4,2.6c-3,1.8-5.4,4.2-7.4,6.8c4.8,5.6,10.2,16.6,12.6,22l0.6,0.6l2.4-3
						c0.6-3.6,0.8-8.4,2.2-10.2c-0.2-0.6-0.2-1.2-0.4-1.6c0-0.6,0-2.4,0.2-5c-4.8-0.8-9.2-0.2-11.8,0.8
						C2618.2,1442.9,2622.8,1441.3,2627.8,1441.5z"/>
				</g>
			</g>
			
				<linearGradient id="SVGID_61_" gradientUnits="userSpaceOnUse" x1="2626.2146" y1="-381.6794" x2="2606.0774" y2="-342.451" gradientTransform="matrix(1 0 0 -1 0 1080)">
				<stop  offset="0" style="stop-color:#B12850"/>
				<stop  offset="1" style="stop-color:#007497"/>
			</linearGradient>
			<path id="SVGID_22_" style="fill:url(#SVGID_61_);" d="M2622.4,1432c0.2,0,0.4,0.2,0.6,0c0.6-0.2,1.2,0,0.6,0H2622.4L2622.4,1432
				c-0.2,0-0.2,0-0.2,0h-2.2c-1.4,0-2.8-0.2-4.2,0l0,0c-5.6,0.6-11,2.1-15.4,4.5c0.4,0.4,0.8,0.5,1.2,0.9c1.8,0.6,3.4,1.6,5.2,2.6
				c0.2,0,0.2,0.2,0.4,0.2C2611.4,1436,2616.8,1433.2,2622.4,1432L2622.4,1432z M2622.4,1432L2622.4,1432L2622.4,1432L2622.4,1432z"
				/>
			
				<linearGradient id="SVGID_62_" gradientUnits="userSpaceOnUse" x1="2620.2253" y1="-391.5219" x2="2657.4458" y2="-343.3695" gradientTransform="matrix(1 0 0 -1 0 1080)">
				<stop  offset="0" style="stop-color:#007496"/>
				<stop  offset="1" style="stop-color:#5BCAF4"/>
			</linearGradient>
			<path id="SVGID_21_" style="fill:url(#SVGID_62_);" d="M2627.8,1451.4c-0.2,0.2-2,1.4-3.2,11.6l3.2-3.8c0.4,0.4,0.6,0.2,1,0.6
				c1-2,2.2-3.8,3-3.8c0.2,0,0.6,0,1,0c1.4,0,2,1,4.8,0.2c0.4-0.4,1.8-1.2,3-2c-2.4-4.6-6.2-7.1-10.4-8.3
				C2628.8,1448.7,2628,1451.2,2627.8,1451.4 M2633.4,1435.6c-0.6,1.8-1.2,3.6-1.8,5.2c0,0-0.2,0.4-0.4,1.2c5.2,1,10.2,4.2,13.6,9.2
				c3.4-2.2,7.2-3.8,11-4.8c-4.4-6.6-11.4-11.4-20.4-13.4c-0.4,0-0.8-0.2-1.4-0.2C2634,1433.4,2633.8,1434.4,2633.4,1435.6"/>
			
				<linearGradient id="SVGID_63_" gradientUnits="userSpaceOnUse" x1="2637.228" y1="-371.5" x2="2656.6011" y2="-371.5" gradientTransform="matrix(1 0 0 -1 0 1080)">
				<stop  offset="0" style="stop-color:#00678C"/>
				<stop  offset="1" style="stop-color:#1461AD"/>
			</linearGradient>
			<path id="SVGID_20_" style="fill:url(#SVGID_63_);" d="M2637.2,1456.8c1-0.2,2.2-0.6,3.4-1.2c-0.2-0.4-0.4-0.6-0.4-1
				C2639,1455.6,2637.6,1456.4,2637.2,1456.8 M2644.8,1451c0.6,0.8,1,1.6,1.4,2.4c3.8-1.8,7.6-3.8,10.4-5.8c-0.2-0.4-0.6-1-0.8-1.4
				C2652,1447.2,2648.2,1448.8,2644.8,1451"/>
			
				<linearGradient id="XMLID_2_" gradientUnits="userSpaceOnUse" x1="2625.2061" y1="-371.8" x2="2629.7729" y2="-371.8" gradientTransform="matrix(1 0 0 -1 0 1080)">
				<stop  offset="0" style="stop-color:#00678C"/>
				<stop  offset="1" style="stop-color:#19469C"/>
			</linearGradient>
			<path id="XMLID_31_" style="fill:url(#XMLID_2_);" d="M2627,1450.4c0,0.4-1.8,7-1.6,7.6c0.2-0.2,2.4-6.4,2.6-6.6
				c0.2-0.2,1-2.6,2-5.2c-0.8-0.2-1.8-0.4-2.6-0.6C2626.8,1448,2626.8,1450,2627,1450.4"/>
			
				<linearGradient id="XMLID_3_" gradientUnits="userSpaceOnUse" x1="2627.7134" y1="-357" x2="2633.9133" y2="-357" gradientTransform="matrix(1 0 0 -1 0 1080)">
				<stop  offset="0" style="stop-color:#00678C"/>
				<stop  offset="1" style="stop-color:#19469C"/>
			</linearGradient>
			<path id="XMLID_30_" style="fill:url(#XMLID_3_);" d="M2627.8,1441.6c1.2,0,2.4,0.2,3.6,0.4c0.2-0.8,0.4-1.2,0.4-1.2
				c0.6-1.6,1.2-3.4,1.8-5.2c0.4-1,0.4-2.2,0.4-3.2c-0.4,0-0.6-0.2-1-0.2c-0.6,0-1.2-0.2-1.8-0.2
				C2629.4,1435,2628.4,1438.4,2627.8,1441.6"/>
			
				<linearGradient id="SVGID_64_" gradientUnits="userSpaceOnUse" x1="2627.0959" y1="-392.3975" x2="2586.7932" y2="-352.7822" gradientTransform="matrix(1 0 0 -1 0 1080)">
				<stop  offset="0" style="stop-color:#B12850"/>
				<stop  offset="1" style="stop-color:#604B9E"/>
			</linearGradient>
			<path id="SVGID_19_" style="fill:url(#SVGID_64_);" d="M2604,1454c3.2,1,5.4,1.8,7.2,3.2c1.4,1,5.6,3,5.6,3s0.4-0.4,0.8-1l5,6
				c-1-1.8-2.4-4.8-4.4-9c-0.6-1-2-3.2-2.4-3.4c-1.2-0.6-3.2-4.8-7-9C2606.6,1446.8,2605,1450.4,2604,1454 M2589.6,1446.2
				c0.6,0.4,1.2,1,2,1.6c3,0.2,5,2.6,7.2,4.2c1.8-4.2,4.4-7.8,7.4-10.8c-1.2-1.2-2.6-2.2-4.2-3.2c0,0-0.8-0.6-1.6-1.4
				C2596,1438.8,2592.4,1442.2,2589.6,1446.2"/>
			
				<linearGradient id="SVGID_65_" gradientUnits="userSpaceOnUse" x1="2589.5574" y1="-372.8" x2="2616.8599" y2="-372.8" gradientTransform="matrix(1 0 0 -1 0 1080)">
				<stop  offset="0" style="stop-color:#521A57"/>
				<stop  offset="0.4741" style="stop-color:#5C2250"/>
				<stop  offset="1" style="stop-color:#6D3044"/>
			</linearGradient>
			<path id="SVGID_18_" style="fill:url(#SVGID_65_);" d="M2604,1454.6c4.4,1.8,9,3.6,13,5.4l0,0c-2-1-7.6-4.4-12.4-7.2
				C2604.2,1453.4,2604,1454,2604,1454.6 M2589.6,1446.2c1.6,1.2,3.2,2.4,3.4,2.6c1.6,1.2,3.6,2.4,5.6,3.4c0.2-0.6,0.6-1.4,0.8-2
				c-0.4-0.2-0.6-0.4-1-0.4c-2.4-1-5.4-3.6-8.6-4.2C2589.8,1445.8,2589.6,1446,2589.6,1446.2"/>
			
				<linearGradient id="SVGID_66_" gradientUnits="userSpaceOnUse" x1="2600.1377" y1="-370.825" x2="2622.6729" y2="-370.825" gradientTransform="matrix(1 0 0 -1 0 1080)">
				<stop  offset="0" style="stop-color:#842447"/>
				<stop  offset="1" style="stop-color:#392663"/>
			</linearGradient>
			<path id="SVGID_17_" style="fill:url(#SVGID_66_);" d="M2608.2,1444.4c2.8,3.4,5.2,7,6.8,11.2c0.6,1.6,1.4,3,2.2,4.2
				c0.2-0.2,0.4-0.4,0.6-0.6l5,6c-1.4-3.4-7.4-16.4-13-22.6C2609.2,1443.2,2608.6,1443.8,2608.2,1444.4 M2605.6,1441.6
				c0.4-0.4,1-1,1.4-1.4c-0.2,0-0.2-0.2-0.4-0.2c-1.6-1-4.2-2.4-5.8-3.2C2602.4,1438.2,2604,1439.8,2605.6,1441.6 M2600.2,1436.6
				L2600.2,1436.6c0.2,0,0.4,0.2,0.6,0.2C2600.6,1436.6,2600.4,1436.6,2600.2,1436.6C2600.2,1436.4,2600.2,1436.4,2600.2,1436.6"/>
		</g>
	</g>
	<g>
		<g>
			<path d="M2590.6,1730.9c0,0.6,0.6,1.1,1.6,1.1h7l-2.8,4h-8.8l-0.2-18.1c0,0,0.2-0.5,1.4-2.2c0.8-1,1.2-1.5,1.6-1.9
				C2590.4,1716.8,2590.2,1729.7,2590.6,1730.9 M2622,1720v16.2c0-0.4,2.7-0.8,2.9-3.8c0.2-2.8,0.4-10.4,0-16.4
				C2623.5,1718.2,2622,1718.4,2622,1720 M2686.2,1721.2l-2.6,4.6c1.4,1.6,2.4,3.2,2.8,4.8l0,0c0.4,1.4,0.6,2.7,0.6,4.5
				c-0.4-1.8-1-3.1-1.4-3.1h-7.6c-0.6,0-1-0.7-1-0.9c-0.4-1.6-0.8-3.9-1-6.5c-0.2-2.2-0.2-4.5-0.4-6.7c-0.2-1.6-0.4-3-0.4-4
				c-0.6,0.4-1.2,1.2-1.6,2c-0.4,0.8-0.8,1.6-0.8,2.4c0,2.4,0,4-0.2,5c-0.2,2-0.9,3.6-1.9,4.8c-0.2,0.2-0.7,0.8-0.7,1v0.2
				c0,0,0,0.2,0,0.4c0,0.6,0.5,2-0.3,2.8l0.3,0.4v-0.4c0-2.8-2-9.2-4-12c-1.8-2.4-5-4.8-7.2-5.6c-0.6,2.4-1.1,4-1.1,6
				c0,0.6,4.8,3.8,5.1,3.6l0.8-0.4l0,0c3.2,2.8,4.2,6,4.2,6.4c0,1-2,2.6-6,4.6l-7.8,3h-0.2h0.2h1.6c8.2,0,13.4-1.2,15.4-5.4
				c0.8-2.2,1.6-3.9,1.8-4.9l0.2-0.4l0.2,0.4c0.4,1.2,0.6,2.6,0.8,4.4c0,1.4,0.2,1.8,0.2,3.8h14c1-4,1.6-5,1.6-6.8
				C2689.8,1726.2,2688.6,1723.6,2686.2,1721.2 M2615.6,1715.4c-0.2-0.6-0.4-1.2-0.6-1.6c-0.8,1-1.8,2.4-2.8,4.6
				c-0.2,0.4-0.2,1,0.2,1.4c0.2,0.2,0.8,0.8,0.8,0.8l0,0c0.2,0.8,0.6,9.4,0.6,10.4l0,0c0,1.2,0,2.4-0.6,4.2c0-1.6-0.2-3.2-0.4-3.2
				h-6.8v-0.6c0-0.2,0.1-0.4,0.5-1.2c0.4-0.6,0.5-1.6,0.5-2.2c0-1.2-0.5-2.2-1.9-3.2c-1.2-0.8-2.2-1.2-3.4-1.2c-2,0-2.6,0.6-3.6,1.6
				c-0.6,0.6-1.4,2-2.4,4.2c1.2-0.2,1.4-0.2,1.6-0.2c1.6,0,3,0.8,4,2.2c0.2,0.2,2.8,2.6,3.2,4.6h10.6c0.2,0,0.6-0.4,0.6-0.4
				c0.2-0.2,0.4-0.2,0.8-2.2c0.4-1.6,0.4-2.4,0.4-3l0.2-8.2l1.6-3.4C2617.8,1718,2615.8,1715.8,2615.6,1715.4 M2653.2,1718
				c-1-0.6-3-2.8-3.2-3.2c-0.2-0.6-0.4-1.2-0.6-1.6c-0.8,1-1.8,2.4-2.8,4.6c-0.2,0.4-0.2,1,0.2,1.4c0.2,0.2,0.8,0.8,0.8,0.8l0,0
				c0.2,0.8,1.6,8.8,1.6,10c0,0.2,0.2,1.2,0.2,1.8c0.2,1.2,0.2,2.6-1.2,5c0.2-1,0.2-2,0.2-2.8c-0.6,0.2-1.2,0.6-2,0.8
				c-1.6,0.4-3,0.6-4,0.6c-1.4,0-2.6-0.4-3.6-1.2c-1.2-0.8-1.8-2-1.8-3.4c0-0.6,0.4-1.6,1-3c0.2-0.2,0-0.4,0-0.4l0,0l0,0
				c-0.4,0-1.6,0.8-2.2,2.4c-1,2.2-1.2,3.4-1.2,5c0,1.8,0.6,2.8,2,3.8c1.2,0.8,2.8,1.2,4.6,1.2c2.4,0,4.8-0.6,6.8-2
				c2.2-1.6,3-3,3.8-5.2c0.2-0.4,0.6-1.6,0.6-3l-0.8-8.4L2653.2,1718z M2579,1726.4c0,0-1.4-1.8-2-2.4c-0.6-0.4-1-0.8-1.4-0.8
				c-0.6,0-1.6,0.4-1.6,1.2c0,0,0,0,0,0.2c0,2.2,2.8,3,4.4,2.2L2579,1726.4z M2581.8,1723.4c1,2.6,1.6,4.1,1.4,6.9l-1,5.7h-21.4
				c-1.6,0-2.8-0.1-3.8-1.3s-1.6-2.5-1.6-4.1c0-1,0.2-2.2,0.6-4c0.6-1.8,1-3,1.6-3.4c0.4,0,0.4,0.2,0.4,0.4c0,0.4,0,1-0.2,1.8
				s-0.2,1.4-0.2,1.8c0,1,0.4,2.3,1.2,3.3c0.8,0.8,1.8,1.5,2.8,1.5h17.8c0.4,0,0.8,1.9,1,3.5c0.2-1.4,0.2-3,0-4.3l0,0
				c0-0.4-0.2-1.1-0.2-1.9c-0.2-1.4-0.8-2.6-0.8-2.6l-0.2,0.2c-1,1.4-2.8,3-4.6,3c-1,0-1.6-0.2-2.4-0.6c-1-0.6-1.6-1.2-1.6-2.2
				c0-1.4,0.8-3.2,2.6-5s3.4-2.8,4.8-2.8C2579.4,1719.2,2580.8,1720.6,2581.8,1723.4 M2569.6,1717.2l2.6,2.8l2.6-2.8l-2.6-2.6
				L2569.6,1717.2z M2599.4,1718.2l2.6,2.8l2.6-2.8l-2.6-2.6L2599.4,1718.2z M2677.2,1716.6l2.6,2.8l2.6-2.8l-2.6-2.6L2677.2,1716.6
				z M2682,1716.6l2.6,2.8l2.6-2.8l-2.6-2.6L2682,1716.6z M2673.3,1753.8c-2.4,0-5.3,1.4-5.3,3l0,0v-9.2l-4,0.6v21.8h4v-12.4l0,0
				c0-0.4,0.9-0.6,1.5-0.6c2,0,2.5,1.2,2.5,3.6l0,0v9.4h6v-10.8C2678,1755.6,2675.9,1753.8,2673.3,1753.8 M2618.6,1770h5l-8.2-22.4
				l-3,0.4l-9,22h2.6l2.2-6h4.8l-0.2-2h-3.6l3.8-8.7L2618.6,1770z M2566,1770h4v-22.2l-4,0.6V1770z M2592,1770h4v-22.2l-4,0.6V1770z
				 M2538,1750h6l0,0v20h4v-20l0,0h6v-2h-16V1750z M2556.8,1749.6l2.6,2.8l2.6-2.8l-2.6-2.6L2556.8,1749.6z M2558,1770h4v-15.6
				l-4,0.6V1770z M2626,1770h6v-22.2l-6,0.6V1770z M2654.2,1766.2c-1,0.6-1.8,1-3.2,1c-3.8,0-7.4-3.6-7.4-9.8c0-4.4,2.4-7.4,5.8-7.4
				c2.6,0,4.8,1.8,4.8,4.6l4.8-0.6c-0.4-4-4.2-6.2-9-6.2c-5.6,0-11,4-11,11.6c0,6.8,4.3,11,9.1,11c3,0,5.9-1.4,5.9-3.4v3h4v-10
				l-4.4,0.6L2654.2,1766.2L2654.2,1766.2z M2688,1753.6c-1.6,0-2.9,0.4-4.1,1.2c-1.2,0.8-2,2.2-2.4,4c1.2-1.2,3.2-2,4.8-2
				c2,0,3.8,0.8,3.8,3.6v2.6v3.6c-2,0.4-1.8,0.8-2.6,0.8c-1.6,0-2.5-1-2.5-2.4c0-1.2,0.6-2.6,0.6-2.6c-3,1-4.6,2.8-4.6,4.6
				c0,1.8,1.7,3.4,3.9,3.4s3.3-1.4,5.3-3.2v2.8h4v-9.6C2694,1756.6,2692,1753.6,2688,1753.6 M2580.7,1753.6c-1.6,0-2.5,0.4-3.7,1.2
				c-1.2,0.8-1.9,2.2-2.3,4c1.2-1.2,2.6-2,4.2-2c2,0,3.2,0.8,3.2,3.6v2.6v3.6c0,0.4-1.1,0.8-1.9,0.8c-1.6,0-2.1-1-2.1-2.4
				c0-1.2,0.7-2.6,0.7-2.6c-3,1-4.5,2.8-4.5,4.6c0,1.8,1,3.4,3.2,3.4s4.6-1.4,4.6-3.2v2.8h4v-9.6
				C2588,1756.6,2584.7,1753.6,2580.7,1753.6 M2704,1754v-0.4c0-2.4,0.5-3.2,2.5-3.2c0.6,0,1.1,0,1.5,0.2c-0.2-1.6-1.3-2.6-3.5-2.6
				c-3.2,0-4.5,2.2-4.5,5.2v0.8h-4v2h4v14h4v-14h4v-2H2704z M2561.7,1789.4c2.6,0,4.1-2.6,4.1-4.8c0-2-1.2-4.6-3.8-4.6h-2v9.2
				L2561.7,1789.4 M2562,1780c3.4,0,5.2,2.3,5.2,4.9s-1.8,5.1-5.4,5.1h-3.8v-10H2562 M2580,1780h-2v6.6c0,1.4,0,3-2,3s-2-1.4-2-3
				v-6.6h-2v6.6c0,2.4,1.4,4.2,4,4.2c2.4,0,4-1.8,4-4.2V1780z M2590.4,1790.2c1.2,0,1.8-1.1,1.8-2.1s-0.6-2.1-2-2.1h-2.2v4h2
				 M2588,1784h2.2c1.2,0,1.8-0.2,1.8-1s-0.6-1-1.8-1h-2.2V1784z M2591.8,1785c1.4,0.4,2,1.1,2,2.3c0,1.4-1.2,2.7-3.6,2.7h-4.2v-10
				h4c2.2,0,3.2,1.4,3.2,2.6C2593.2,1783.6,2592.8,1784.6,2591.8,1785 M2614,1790.4L2614,1790.4v-10l0,0V1790.4z M2605.6,1786
				l-2.2-5l-2.2,5H2605.6z M2608.8,1790h-1.6l-1.2-2h-5.4l-1.2,2h-1.6l4.8-10h1.4L2608.8,1790z M2680.4,1782c4,0,6,2,6,8h-9.4l0.6-2
				h7.2c-0.2-2-1.6-4-4.6-4h-1.2l0.6-2H2680.4z M2672,1788v-5.2v-0.2v7.4h-16.4l-0.2-2L2672,1788L2672,1788z M2648,1790v-6h-5.8
				c-2.4,0-3.4,0.5-3.4,1.7c0,0.6,0.2,1,1.2,1.4l1.2,0.6c1.2,0.6,1.8,1.4,1.8,2.4c0,1.8-2.3,3.2-6.3,3.2c-4.6,0-6.7-1.8-6.7-6.4
				v-0.8h2v0.6c0,4.2,1.5,5.2,5.1,5.2c3.4,0,4.6-0.8,4.6-1.8c0-0.6-0.4-1-1.2-1.4l-1.2-0.6c-1.2-0.6-1.6-1.7-1.6-2.7
				c0-1.6,1.4-3.3,4.4-3.3h6v6h8v2L2648,1790L2648,1790z M2672.2,1791.2l1,1l-1,1l-1-1L2672.2,1791.2z M2635.8,1793.8l1,1l-1,1l-1-1
				L2635.8,1793.8z M2637.6,1793.8l1,1l-1,1l-1-1L2637.6,1793.8z"/>
		</g>
		<g>
			<path d="M2630,1688v12h12v-12.6c-2,0.6-4.2,0.6-6.8,0.6H2630z"/>
			<path d="M2635,1646c-3.4-2-7.8-3.9-12.4-3.9c-2.6,0-5.2,0.8-7.4,1.7l0,0c2.6-3,6.4-4.3,10.6-4.5l0,0c1.4,0,2.6-0.4,4,0
				c5.2,0.8,10,2.8,13.4,6.8c5.6,0,10.8,0,14.8,0c-4.2-8-12-14.1-22.6-16.5c-0.6-0.2-1.6-0.2-2.4-0.2c-1.2-0.2-2.4-0.1-3.8-0.1
				c-2.6,0-4.6,0.5-6.8,1.3c-1.6,0.6-3.2,1.2-5.4,2.6c-5.6,3.4-9.2,8.1-11.6,13.7c1.4-0.2,2.8-0.9,4.4-0.9
				C2616,1646,2625.6,1646,2635,1646z"/>
			<path d="M2657.4,1679.2c-2.2,2.2-5.4,4.2-7.4,5.6v15.2h12c0,0,0-16,0-27C2660,1675.2,2659.2,1677.4,2657.4,1679.2z"/>
			<path d="M2639.8,1652c-11,0-22.8,0-30.2,0c-2.2,0-4.5,0.5-6.5,1.1c-0.4,2.4-1.1,5.1-1.1,7.3c0,0.6,0,1.2,0,1.8l0,0v0.4v19.4h12
				v-19.4c0-2.4,1.5-4.4,3.3-5.8l5.1,5.8l4.8-5.8c1.6,1.4,2.8,3.6,2.8,5.8v19.4h5.2c2.4,0,4.8,0.4,6.8-0.4v-19
				C2642,1659,2641.6,1656,2639.8,1652z"/>
			<path d="M2647.4,1652.6c1.4,2.8,2.6,6,2.6,9.4c0,0.4,0,0.8,0,1.2v15.2c0-0.8,2-1.8,3.2-3c4.2-4.2,7-9.6,8.4-15.8
				c-0.2-2.4-0.5-4.6-1.1-6.8C2657.1,1652.4,2652.6,1652.4,2647.4,1652.6z"/>
			<path d="M2584,1700h12c0,0,0-6,0-12h-12V1700z"/>
			<path d="M2596.6,1656.4c-6.2,4-10.6,10.8-12.6,19v6.6h12c0-6,0-13.2,0-20C2596,1660.2,2596.2,1658.4,2596.6,1656.4z"/>
			<rect x="2602" y="1688" width="12" height="12"/>
			<path d="M2598.6,1649.2c4.6-10.8,14.4-18.5,24.4-20.5c0.6-0.2,1.2-0.7,0.6-0.7h-3.6c-21.2,0-36,14.7-36.4,33.5
				C2587.4,1655.5,2592.6,1651.6,2598.6,1649.2z"/>
			<path style="fill:#5E6738;" d="M2635.4,1682h-5.4v6h5.4c2.4,0,4.6,0,6.6-0.6v-5.8C2640,1682.4,2637.8,1682,2635.4,1682z"/>
			<path style="fill:#5E6738;" d="M2662,1673c0-5.8,0-10.2,0-10.2c0-1.2-0.2-2.4-0.4-3.4c-1.6,6.2-4.1,11.8-8.3,15.8
				c-1.2,1.2-3.3,2.2-3.3,3v6.6c2-1.4,5-3.4,7.4-5.6C2659.2,1677.4,2660,1675.2,2662,1673z"/>
			<path style="fill:#5E6738;" d="M2584,1682v6h12c0-2,0-4,0-6H2584z"/>
			<rect x="2602" y="1682" style="fill:#5E6738;" width="12" height="6"/>
			<path style="fill:#5E6738;" d="M2584,1675.6c2-8.2,6.6-15,12.6-19c0.4-2.6,1.3-5,2.3-7.4c-6,2.4-10.9,6.8-14.9,12.6
				c0,0.2,0,0.4,0,0.6L2584,1675.6L2584,1675.6z"/>
			<path style="fill:#5E6738;" d="M2609.6,1652c7.4,0,19.4,0,30.2,0c-1.2-2-2.8-4-4.8-6c-9.4,0-19,0-25.4,0c-1.4,0-3,0.7-4.4,0.9
				c-0.8,2-1.4,3.9-1.8,5.9C2605.4,1652.2,2607.6,1652,2609.6,1652z"/>
			<path style="fill:#5E6738;" d="M2647,1652c5.2,0,9.8,0,13.2,0c-0.6-2-1.4-4-2.2-6c-4,0-9.2,0-14.8,0
				C2644.8,1648,2646,1650,2647,1652z"/>
		</g>
	</g>
</g>
</svg>
