<?xml version="1.0" encoding="utf-8"?>
<!-- Generator: Adobe Illustrator 22.0.1, SVG Export Plug-In . SVG Version: 6.00 Build 0)  -->
<svg version="1.1" id="app_x5F_world--parent" xmlns="http://www.w3.org/2000/svg" xmlns:xlink="http://www.w3.org/1999/xlink"
	 x="0px" y="0px" width="1920px" height="1080px" viewBox="0 0 1920 1080" style="enable-background:new 0 0 1920 1080;"
	 xml:space="preserve">
<rect id="app_x5F_UAE--zoom" x="1150.9" y="477.2" style="fill:none;stroke:#1D1D1B;stroke-width:0;stroke-miterlimit:10;" width="173.4" height="97.5"/>
<rect id="app_x5F_Lebanon--zoom" x="874.4" y="325.8" transform="matrix(0.1496 -0.9887 0.9887 0.1496 426.5725 1167.2114)" style="fill:none;stroke:#1D1D1B;stroke-width:0;stroke-miterlimit:10;" width="34.9" height="19.6"/>
<rect id="app_x5F_Oman--zoom" x="1280.4" y="618" transform="matrix(0.5781 -0.816 0.816 0.5781 35.0206 1331.5051)" style="fill:none;stroke:#1D1D1B;stroke-width:0;stroke-miterlimit:10;" width="49.4" height="27.8"/>
<g id="app_x5F_Iraq--marker" transform="translate(978.000000, 334.000000)">
	<polygon id="Fill-124" style="fill:#8A1538;" points="26.9,5 26.9,28.7 34.9,28.7 38.8,33 42.8,28.7 50.7,28.7 50.7,5 	"/>
	<g id="Group" transform="translate(5.000000, 5.000000)">
		<path id="Path" style="fill:#FFFFFF;" d="M33.3,5.5c-3.8,0-6.4,2.6-6.4,6v6.7h2.2c0,0,0-3.7,0-6.7c0-3.2,2.4-5.4,4.8-5.9
			c0.1,0,0.2-0.1,0.1-0.1C34,5.5,33.3,5.5,33.3,5.5z"/>
		<path id="Path_1_" style="fill:#FFFFFF;" d="M33.7,5.8c-0.3,0.1-0.6,0.2-1,0.5c-1.7,1.1-2.4,3-2.5,4.9c0,0.1,0,0.2,0,0.3l0,0v0.1
			v6.7h2.2v-6.7c0-0.4,0.2-0.8,0.5-1l0.9,1l0.9-1c0.3,0.2,0.5,0.6,0.5,1v6.7h2.2v-6.7c0-2-1.6-3.6-3.5-3.6c-0.5,0-0.9,0.1-1.3,0.3
			l0,0c0.4-0.5,1.1-0.8,1.9-0.8l0,0c0.2,0,0.5,0,0.7,0.1c1.9,0.3,3.4,2,3.4,3.9c0,0.1,0,0.2,0,0.2v6.6h2.2v-6.6
			c0-2.9-1.7-5.2-4.6-5.9c-0.1,0-0.3-0.1-0.4-0.1c-0.2,0-0.4-0.1-0.7-0.1C34.5,5.6,34.1,5.7,33.7,5.8z"/>
	</g>
</g>
<g id="app_x5F_Kuwait--marker" transform="translate(1072.000000, 412.000000)">
	<polygon id="Fill-124_1_" style="fill:#8A1538;" points="25.9,4.1 25.9,27.8 33.8,27.8 37.7,32.1 41.7,27.8 49.6,27.8 49.6,4.1
		"/>
	<g id="Group_1_" transform="translate(5.000000, 5.000000)">
		<path id="Path_2_" style="fill:#FFFFFF;" d="M32.3,4.7c-3.8,0-6.4,2.6-6.4,6v6.7H28c0,0,0-3.7,0-6.7c0-3.2,2.4-5.4,4.8-5.9
			c0.1,0,0.2-0.1,0.1-0.1H32.3z"/>
		<path id="Path_3_" style="fill:#FFFFFF;" d="M32.7,5c-0.3,0.1-0.6,0.2-1,0.5c-1.7,1.1-2.4,3-2.5,4.9c0,0.1,0,0.2,0,0.3l0,0v0.1
			v6.7h2.2v-6.7c0-0.4,0.2-0.8,0.5-1l0.9,1l0.9-1c0.3,0.2,0.5,0.6,0.5,1v6.7h2.2v-6.7c0-2-1.6-3.6-3.5-3.6c-0.5,0-0.9,0.1-1.3,0.3
			l0,0C32,7,32.7,6.7,33.5,6.7l0,0c0.2,0,0.5,0,0.7,0.1c1.9,0.3,3.4,2,3.4,3.9c0,0.1,0,0.2,0,0.2v6.6h2.2v-6.6
			c0-2.9-1.7-5.2-4.6-5.9c-0.1,0-0.3-0.1-0.4-0.1c-0.2,0-0.4-0.1-0.7-0.1C33.4,4.7,33.1,4.8,32.7,5z"/>
	</g>
</g>
<g id="app_x5F_Georgia--marker" transform="translate(959.000000, 149.000000)">
	<polygon id="Fill-124_2_" style="fill:#8A1538;" points="27.2,7.1 27.2,30.8 35.1,30.8 39,35.1 43,30.8 50.9,30.8 50.9,7.1 	"/>
	<g id="Group_2_" transform="translate(5.000000, 5.000000)">
		<path id="Path_4_" style="fill:#FFFFFF;" d="M33.5,7.6c-3.8,0-6.4,2.6-6.4,6v6.7h2.2c0,0,0-3.7,0-6.7c0-3.2,2.4-5.4,4.8-5.9
			c0.1,0,0.2-0.1,0.1-0.1C34.2,7.6,33.5,7.6,33.5,7.6z"/>
		<path id="Path_5_" style="fill:#FFFFFF;" d="M33.9,7.9c-0.3,0.1-0.6,0.2-1,0.5c-1.7,1.1-2.4,3-2.5,4.9c0,0.1,0,0.2,0,0.3l0,0v0.1
			v6.7h2.2v-6.7c0-0.4,0.2-0.8,0.5-1l0.9,1l0.9-1c0.3,0.2,0.5,0.6,0.5,1v6.7h2.2v-6.7c0-2-1.6-3.6-3.5-3.6c-0.5,0-0.9,0.1-1.3,0.3
			l0,0c0.4-0.5,1.1-0.8,1.9-0.8l0,0c0.2,0,0.5,0,0.7,0.1c1.9,0.3,3.4,2,3.4,3.9c0,0.1,0,0.2,0,0.2v6.6H41v-6.6
			c0-2.9-1.7-5.2-4.6-5.9c-0.1,0-0.3-0.1-0.4-0.1c-0.2,0-0.4-0.1-0.7-0.1C34.7,7.7,34.3,7.8,33.9,7.9z"/>
	</g>
</g>
<g id="app_x5F_Armenia--marker" transform="translate(990.000000, 184.000000)">
	<polygon id="Fill-124_3_" style="fill:#8A1538;" points="26.8,6.7 26.8,30.4 34.7,30.4 38.7,34.7 42.6,30.4 50.5,30.4 50.5,6.7
		"/>
	<g id="Group_3_" transform="translate(5.000000, 5.000000)">
		<path id="Path_6_" style="fill:#FFFFFF;" d="M33.2,7.2c-3.8,0-6.4,2.6-6.4,6v6.7H29c0,0,0-3.7,0-6.7c0-3.2,2.4-5.4,4.8-5.9
			c0.1,0,0.2-0.1,0.1-0.1H33.2z"/>
		<path id="Path_7_" style="fill:#FFFFFF;" d="M33.6,7.5c-0.3,0.1-0.6,0.2-1,0.5c-1.7,1.1-2.4,3-2.5,4.9c0,0.1,0,0.2,0,0.3l0,0v0.1
			V20h2.2v-6.7c0-0.4,0.2-0.8,0.5-1l0.9,1l0.9-1c0.3,0.2,0.5,0.6,0.5,1V20h2.2v-6.7c0-2-1.6-3.6-3.5-3.6c-0.5,0-0.9,0.1-1.3,0.3l0,0
			c0.4-0.5,1.1-0.8,1.9-0.8l0,0c0.2,0,0.5,0,0.7,0.1c1.9,0.3,3.4,2,3.4,3.9c0,0.1,0,0.2,0,0.2V20h2.2v-6.6c0-2.9-1.7-5.2-4.6-5.9
			c-0.1,0-0.3-0.1-0.4-0.1c-0.2,0-0.4-0.1-0.7-0.1C34.3,7.3,34,7.4,33.6,7.5z"/>
	</g>
</g>
<g id="app_x5F_Jordan--marker" transform="translate(868.000000, 381.000000)">
	<polygon id="Fill-124_4_" style="fill:#8A1538;" points="28.2,4.5 28.2,28.2 36.1,28.2 40,32.5 44,28.2 51.9,28.2 51.9,4.5 	"/>
	<g id="Group_4_" transform="translate(5.000000, 5.000000)">
		<path id="Path_8_" style="fill:#FFFFFF;" d="M34.5,5c-3.8,0-6.4,2.6-6.4,6v6.7h2.2c0,0,0-3.7,0-6.7c0-3.2,2.4-5.4,4.8-5.9
			C35.2,5,35.3,5,35.2,5H34.5z"/>
		<path id="Path_9_" style="fill:#FFFFFF;" d="M35,5.3c-0.3,0.1-0.6,0.2-1,0.5c-1.7,1.1-2.4,3-2.5,4.9c0,0.1,0,0.2,0,0.3l0,0v0.1
			v6.7h2.2V11c0-0.4,0.2-0.8,0.5-1l0.9,1l0.9-1c0.3,0.2,0.5,0.6,0.5,1v6.7h2.2V11c0-2-1.6-3.6-3.5-3.6c-0.5,0-0.9,0.1-1.3,0.3l0,0
			c0.4-0.5,1.1-0.8,1.9-0.8l0,0c0.2,0,0.5,0,0.7,0.1c1.9,0.3,3.4,2,3.4,3.9c0,0.1,0,0.2,0,0.2v6.6h2.2v-6.6c0-2.9-1.7-5.2-4.6-5.9
			c-0.1,0-0.3-0.1-0.4-0.1c-0.2,0-0.4-0.1-0.7-0.1C35.7,5.1,35.4,5.2,35,5.3z"/>
	</g>
</g>
<g id="app_x5F_Bahrain--marker" transform="translate(1131.000000, 475.000000)">
	<polygon id="Fill-124_5_" style="fill:#8A1538;" points="25.2,3.4 25.2,27.1 33.1,27.1 37.1,31.4 41.1,27.1 49,27.1 49,3.4 	"/>
	<g id="Group_5_" transform="translate(5.000000, 5.000000)">
		<path id="Path_10_" style="fill:#FFFFFF;" d="M31.6,3.9c-3.8,0-6.4,2.6-6.4,6v6.7h2.2c0,0,0-3.7,0-6.7c0-3.2,2.4-5.4,4.8-5.9
			c0.1,0,0.2-0.1,0.1-0.1C32.3,3.9,31.6,3.9,31.6,3.9z"/>
		<path id="Path_11_" style="fill:#FFFFFF;" d="M32,4.2c-0.3,0.1-0.6,0.2-1,0.5c-1.7,1.1-2.4,3-2.5,4.9c0,0.1,0,0.2,0,0.3l0,0V10
			v6.7h2.2V10c0-0.4,0.2-0.8,0.5-1l0.9,1L33,9c0.3,0.2,0.5,0.6,0.5,1v6.7h2.2V10c0-2-1.6-3.6-3.5-3.6c-0.5,0-0.9,0.1-1.3,0.3l0,0
			c0.4-0.5,1.1-0.8,1.9-0.8l0,0c0.2,0,0.5,0,0.7,0.1c1.9,0.3,3.4,2,3.4,3.9c0,0.1,0,0.2,0,0.2v6.6H39v-6.6c0-2.9-1.7-5.2-4.6-5.9
			c-0.1,0-0.3-0.1-0.4-0.1C33.7,4,33.5,4,33.2,4C32.8,4,32.4,4.1,32,4.2z"/>
	</g>
</g>
<g id="app_x5F_Qatar--marker" transform="translate(1143.000000, 506.000000)">
	<polygon id="Fill-124_6_" style="fill:#8A1538;" points="25.1,3.1 25.1,26.8 33,26.8 37,31.1 40.9,26.8 48.8,26.8 48.8,3.1 	"/>
	<g id="Group_6_" transform="translate(5.000000, 5.000000)">
		<path id="Path_12_" style="fill:#FFFFFF;" d="M31.5,3.6c-3.8,0-6.4,2.6-6.4,6v6.7h2.2c0,0,0-3.7,0-6.7c0-3.2,2.4-5.4,4.8-5.9
			c0.1,0,0.2-0.1,0.1-0.1C32.2,3.6,31.5,3.6,31.5,3.6z"/>
		<path id="Path_13_" style="fill:#FFFFFF;" d="M31.9,3.9c-0.3,0.1-0.6,0.2-1,0.5c-1.7,1.1-2.4,3-2.5,4.9c0,0.1,0,0.2,0,0.3l0,0v0.1
			v6.7h2.2V9.6c0-0.4,0.2-0.8,0.5-1l0.9,1l0.9-1c0.3,0.2,0.5,0.6,0.5,1v6.7h2.2V9.6c0-2-1.6-3.6-3.5-3.6c-0.5,0-0.9,0.1-1.3,0.3l0,0
			c0.4-0.5,1.1-0.8,1.9-0.8l0,0c0.2,0,0.5,0,0.7,0.1c1.9,0.3,3.4,2,3.4,3.9c0,0.1,0,0.2,0,0.2v6.6H39V9.7c0-2.9-1.7-5.2-4.6-5.9
			c-0.1,0-0.3-0.1-0.4-0.1c-0.2,0-0.4-0.1-0.7-0.1C32.6,3.7,32.3,3.8,31.9,3.9z"/>
	</g>
</g>
<g id="app_x5F_Saudi--marker" transform="translate(1042.000000, 556.000000)">
	<polygon id="Fill-124_7_" style="fill:#8A1538;" points="26.2,2.5 26.2,26.2 34.1,26.2 38.1,30.5 42.1,26.2 50,26.2 50,2.5 	"/>
	<g id="Group_7_" transform="translate(5.000000, 5.000000)">
		<path id="Path_14_" style="fill:#FFFFFF;" d="M32.6,3c-3.8,0-6.4,2.6-6.4,6v6.7h2.2c0,0,0-3.7,0-6.7c0-3.2,2.4-5.4,4.8-5.9
			c0.1,0,0.2-0.1,0.1-0.1H32.6z"/>
		<path id="Path_15_" style="fill:#FFFFFF;" d="M33,3.3c-0.3,0.1-0.6,0.2-1,0.5c-1.7,1.1-2.4,3-2.5,4.9c0,0.1,0,0.2,0,0.3l0,0v0.1
			v6.7h2.2V9.1c0-0.4,0.2-0.8,0.5-1l0.9,1l0.9-1c0.3,0.2,0.5,0.6,0.5,1v6.7h2.2V9.1c0-2-1.6-3.6-3.5-3.6c-0.5,0-0.9,0.1-1.3,0.3l0,0
			C32.3,5.3,33,5,33.8,5l0,0c0.2,0,0.5,0,0.7,0.1c1.9,0.3,3.4,2,3.4,3.9c0,0.1,0,0.2,0,0.2v6.6H40V9.2c0-2.9-1.7-5.2-4.6-5.9
			c-0.1,0-0.3-0.1-0.4-0.1c-0.2,0-0.4-0.1-0.7-0.1C33.8,3.1,33.4,3.2,33,3.3z"/>
	</g>
</g>
<g id="app_x5F_Pakistan--marker" transform="translate(1425.000000, 465.000000)">
	<polygon id="Fill-124_8_" style="fill:#8A1538;" points="21.9,3.5 21.9,27.2 29.8,27.2 33.8,31.5 37.8,27.2 45.7,27.2 45.7,3.5
		"/>
	<g id="Group_8_" transform="translate(5.000000, 5.000000)">
		<path id="Path_16_" style="fill:#FFFFFF;" d="M28.3,4.1c-3.8,0-6.4,2.6-6.4,6v6.7h2.2c0,0,0-3.7,0-6.7c0-3.2,2.4-5.4,4.8-5.9
			c0.1,0,0.2-0.1,0.1-0.1C29,4.1,28.3,4.1,28.3,4.1z"/>
		<path id="Path_17_" style="fill:#FFFFFF;" d="M28.7,4.4c-0.3,0.1-0.6,0.2-1,0.5c-1.7,1.1-2.4,3-2.5,4.9c0,0.1,0,0.2,0,0.3l0,0v0.1
			v6.7h2.2v-6.7c0-0.4,0.2-0.8,0.5-1l0.9,1l0.9-1c0.3,0.2,0.5,0.6,0.5,1v6.7h2.2v-6.7c0-2-1.6-3.6-3.5-3.6c-0.5,0-0.9,0.1-1.3,0.3
			l0,0c0.3-0.6,1-0.9,1.7-0.9l0,0c0.3,0,0.5,0,0.7,0c1.9,0.3,3.4,2,3.4,3.9c0,0.1,0,0.2,0,0.2v6.6h2.2v-6.6C35.7,7.3,34,5,31,4.3
			c-0.1,0-0.3-0.1-0.4-0.1c-0.2,0-0.4-0.1-0.7-0.1C29.5,4.1,29.1,4.2,28.7,4.4z"/>
	</g>
</g>
<g id="app_x5F_Kazakhstan--marker" transform="translate(1390.000000, 135.000000)">
	<polygon id="Fill-124_9_" style="fill:#8A1538;" points="22.3,7.2 22.3,30.9 30.2,30.9 34.2,35.2 38.1,30.9 46,30.9 46,7.2 	"/>
	<g id="Group_9_" transform="translate(5.000000, 5.000000)">
		<path id="Path_18_" style="fill:#FFFFFF;" d="M28.7,7.8c-3.8,0-6.4,2.6-6.4,6v6.7h2.2c0,0,0-3.7,0-6.7c0-3.2,2.4-5.4,4.8-5.9
			c0.1,0,0.2-0.1,0.1-0.1H28.7z"/>
		<path id="Path_19_" style="fill:#FFFFFF;" d="M29.1,8.1c-0.3,0.1-0.6,0.2-1,0.5c-1.7,1.1-2.4,3-2.5,4.9c0,0.1,0,0.2,0,0.3l0,0v0.1
			v6.7h2.2v-6.7c0-0.4,0.2-0.8,0.5-1l0.9,1l0.9-1c0.3,0.2,0.5,0.6,0.5,1v6.7h2.2v-6.7c0-2-1.6-3.6-3.5-3.6c-0.5,0-0.9,0.1-1.3,0.3
			l0,0c0.4-0.5,1.1-0.8,1.9-0.8l0,0c0.2,0,0.5,0,0.7,0.1c1.9,0.3,3.4,2,3.4,3.9c0,0.1,0,0.2,0,0.2v6.6h2.2V14c0-2.9-1.7-5.2-4.6-5.9
			c-0.1,0-0.3-0.1-0.4-0.1c-0.2,0-0.4-0.1-0.7-0.1C29.9,7.8,29.5,7.9,29.1,8.1z"/>
	</g>
</g>
<g id="app_x5F_Egypt--marker" transform="translate(757.000000, 479.000000)">
	<polygon id="Fill-124_10_" style="fill:#8A1538;" points="29.4,3.4 29.4,27.1 37.3,27.1 41.3,31.4 45.3,27.1 53.2,27.1 53.2,3.4
		"/>
	<g id="Group_10_" transform="translate(5.000000, 5.000000)">
		<path id="Path_20_" style="fill:#FFFFFF;" d="M35.8,3.9c-3.8,0-6.4,2.6-6.4,6v6.7h2.2c0,0,0-3.7,0-6.7c0-3.2,2.4-5.4,4.8-5.9
			c0.1,0,0.2-0.1,0.1-0.1C36.5,3.9,35.8,3.9,35.8,3.9z"/>
		<path id="Path_21_" style="fill:#FFFFFF;" d="M36.2,4.2c-0.3,0.1-0.6,0.2-1,0.5c-1.7,1.1-2.4,3-2.5,4.9c0,0.1,0,0.2,0,0.3l0,0V10
			v6.7h2.2V9.9c0-0.4,0.2-0.8,0.5-1l0.9,1l0.9-1c0.3,0.2,0.5,0.6,0.5,1v6.7h2.2V9.9c0-2-1.6-3.6-3.5-3.6c-0.5,0-0.9,0.1-1.3,0.3l0,0
			c0.4-0.5,1.1-0.8,1.9-0.8l0,0c0.2,0,0.5,0,0.7,0.1c1.9,0.3,3.4,2,3.4,3.9c0,0.1,0,0.2,0,0.2v6.6h2.2V10c0-2.9-1.7-5.2-4.6-5.9
			c-0.1,0-0.3-0.1-0.4-0.1c-0.4,0-0.6,0-0.9,0C37,4,36.6,4.1,36.2,4.2z"/>
	</g>
</g>
<g id="app_x5F_Kenya--marker" transform="translate(920.000000, 1003.000000)">
	<polygon id="Fill-124_11_" style="fill:#8A1538;" points="27.6,-2.5 27.6,21.2 35.5,21.2 39.5,25.5 43.4,21.2 51.3,21.2 51.3,-2.5
			"/>
	<g id="Group_11_" transform="translate(5.000000, 5.000000)">
		<path id="Path_22_" style="fill:#FFFFFF;" d="M34-2c-3.8,0-6.4,2.6-6.4,6v6.7h2.2c0,0,0-3.7,0-6.7c0-3.2,2.4-5.4,4.8-5.9
			c0.1,0,0.2-0.1,0.1-0.1H34z"/>
		<path id="Path_23_" style="fill:#FFFFFF;" d="M34.4-1.7c-0.3,0.1-0.6,0.2-1,0.5c-1.7,1.1-2.4,3-2.5,4.9c0,0.1,0,0.2,0,0.3l0,0v0.1
			v6.7h2.2V4.1c0-0.4,0.2-0.8,0.5-1l0.9,1l0.9-1c0.3,0.2,0.5,0.6,0.5,1v6.7H38V4.1c0-2-1.6-3.6-3.5-3.6c-0.5,0-0.9,0.1-1.3,0.3l0,0
			C33.6,0.3,34.3,0,35.1,0l0,0c0.2,0,0.5,0,0.7,0.1c1.9,0.3,3.4,2,3.4,3.9c0,0.1,0,0.2,0,0.2v6.6h2.2V4.2c0-2.9-1.7-5.2-4.6-5.9
			c-0.1,0-0.3-0.1-0.4-0.1c-0.2,0-0.4-0.1-0.7-0.1C35.1-1.9,34.8-1.8,34.4-1.7z"/>
	</g>
</g>
<g id="app_x5F_Lebanon--button">
	<path id="Line-4-Copy-5" style="fill:none;stroke:#8A1538;stroke-width:2;" d="M886.3,337h-52.4"/>
	<g id="app_x5F_Lebanon--marker" transform="translate(856.000000, 319.000000)">
		<polygon id="Fill-124_12_" style="fill:#8A1538;" points="28.3,5.2 28.3,28.9 36.2,28.9 40.2,33.2 44.1,28.9 52,28.9 52,5.2 		"/>
		<g id="Group_12_" transform="translate(5.000000, 5.000000)">
			<path id="Path_24_" style="fill:#FFFFFF;" d="M34.7,5.7c-3.8,0-6.4,2.6-6.4,6v6.7h2.2c0,0,0-3.7,0-6.7c0-3.2,2.4-5.4,4.8-5.9
				c0.1,0,0.2-0.1,0.1-0.1H34.7z"/>
			<path id="Path_25_" style="fill:#FFFFFF;" d="M35.1,6c-0.3,0.1-0.6,0.2-1,0.5c-1.7,1.1-2.4,3-2.5,4.9c0,0.1,0,0.2,0,0.3l0,0v0.1
				v6.7h2.2v-6.7c0-0.4,0.2-0.8,0.5-1l0.9,1l0.9-1c0.3,0.2,0.5,0.6,0.5,1v6.7h2.2v-6.7c0-2-1.6-3.6-3.5-3.6c-0.5,0-0.9,0.1-1.3,0.3
				l0,0c0.4-0.5,1.1-0.8,1.9-0.8l0,0c0.2,0,0.5,0,0.7,0.1c1.9,0.3,3.4,2,3.4,3.9c0,0.1,0,0.2,0,0.2v6.6h2v-6.6C42,9,40.3,6.7,37.4,6
				c-0.1,0-0.3-0.1-0.4-0.1c-0.2,0-0.4-0.1-0.7-0.1C35.8,5.8,35.5,5.9,35.1,6z"/>
		</g>
	</g>
	<g id="Logo_Waterfront">
		<polygon style="fill:#0E2243;" points="713.7,329.5 710.8,338.4 707.9,329.5 705.8,329.5 709.9,341.2 711.5,341.2 714.5,332.6
			717.4,341.2 719.1,341.2 723.2,329.5 721.2,329.5 718.3,338.4 715.4,329.5 		"/>
		<path style="fill:#0E2243;" d="M726.8,337c-1.3,0-2.1,0.6-2.1,1.5l0,0c0,0.8,0.7,1.4,1.8,1.4c1.4,0,2.4-0.8,2.4-1.9v-0.6l0,0
			C728.3,337.2,727.6,337,726.8,337 M726,341.3c-1.5,0-3.1-0.8-3.1-2.7l0,0c0-1.7,1.3-2.8,3.5-2.8c1.1,0,1.7,0.1,2.4,0.4h0.1v-0.3
			c0-1.3-0.8-2-2.3-2c-1,0-1.7,0.2-2.5,0.5l-0.5-1.5c1-0.4,1.9-0.7,3.3-0.7c2.5,0,3.8,1.3,3.8,3.7v5.2h-1.9v-1.2l-0.1,0.2
			C728.1,340.9,727.1,341.3,726,341.3"/>
		<path style="fill:#0E2243;" d="M735.5,341.3c-1.7,0-2.5-0.8-2.5-2.5V334h-1.1v-1.6h1.1V330h1.9v2.4h2.4v1.6h-2.4v4.4
			c0,0.8,0.4,1.2,1.2,1.2c0.4,0,0.8-0.1,1.2-0.3v1.5C736.7,341.2,736.2,341.3,735.5,341.3"/>
		<path style="fill:#0E2243;" d="M742.4,333.7c-1.3,0-2.2,0.9-2.4,2.4v0.1h4.7v-0.1C744.6,334.7,743.7,333.7,742.4,333.7
			 M742.7,341.4c-2.6,0-4.5-1.9-4.5-4.6c0-2.6,1.8-4.6,4.3-4.6c3.1,0,4.2,2.5,4.2,4.7c0,0.2,0,0.3,0,0.5l0,0H740v0.1
			c0.2,1.4,1.2,2.3,2.6,2.3c0.9,0,1.7-0.3,2.4-1l1.1,1C745.3,340.8,744.1,341.4,742.7,341.4"/>
		<path style="fill:#0E2243;" d="M747.9,341.1v-8.7h1.9v1.9c0.4-1,1.4-2.1,3.1-2.1h0.1v2l0,0c-1.9,0-3.1,1.3-3.1,3.6v3.3
			L747.9,341.1L747.9,341.1z"/>
		<path style="fill:#0E2243;" d="M755.4,341.1V334h-1.1v-1.5h1.1v-0.7c0-1.9,0.9-2.8,2.7-2.8c0.7,0,1.2,0.1,1.6,0.2v1.6
			c-0.4-0.1-0.7-0.2-1.1-0.2c-0.8,0-1.3,0.5-1.3,1.4v0.6h2.4v1.5h-2.3v7.1h-2L755.4,341.1L755.4,341.1z"/>
		<path style="fill:#0E2243;" d="M760.9,341.1v-8.7h1.9v1.9c0.4-1,1.4-2.1,3.1-2.1h0.1v2l0,0c-1.9,0-3.1,1.3-3.1,3.6v3.3
			L760.9,341.1L760.9,341.1z"/>
		<path style="fill:#0E2243;" d="M771.1,333.9c-1.6,0-2.8,1.2-2.8,2.9c0,1.7,1.2,3,2.8,3s2.8-1.2,2.8-2.9
			C773.9,335.1,772.7,333.9,771.1,333.9 M771.1,341.4c-2.6,0-4.6-2-4.6-4.5c0-2.6,2.1-4.6,4.7-4.6c2.6,0,4.7,2,4.7,4.6
			C775.8,339.3,773.7,341.4,771.1,341.4"/>
		<path style="fill:#0E2243;" d="M783,341.1v-5c0-1.4-0.7-2.2-2-2.2s-2.1,0.9-2.1,2.3v4.9H777v-8.7h1.9v1.6l0.1-0.2
			c0.7-1,1.6-1.5,2.7-1.5c1.9,0,3.1,1.3,3.1,3.3v5.6L783,341.1L783,341.1z"/>
		<path style="fill:#0E2243;" d="M789.8,341.3c-1.7,0-2.5-0.8-2.5-2.5V334h-1.1v-1.6h1.1V330h1.9v2.4h2.4v1.6h-2.4v4.4
			c0,0.8,0.4,1.2,1.2,1.2c0.4,0,0.8-0.1,1.2-0.3v1.5C791,341.2,790.5,341.3,789.8,341.3"/>
		<path style="fill:#0E2243;" d="M802.5,341.4c-3.4,0-5.9-2.6-5.9-6s2.6-6,6-6c2.3,0,3.6,0.9,4.5,1.8l-1.2,1.4
			c-1.1-1-2.1-1.4-3.3-1.4c-2.3,0-4,1.8-4,4.3c0,2.4,1.7,4.3,4,4.3c1.4,0,2.4-0.6,3.4-1.5l1.2,1.2
			C805.8,340.8,804.4,341.4,802.5,341.4"/>
		<path style="fill:#0E2243;" d="M808.4,329.1h2v1.8h-2V329.1L808.4,329.1z M808.5,332.4h1.9v8.7h-1.9V332.4L808.5,332.4z"/>
		<path style="fill:#0E2243;" d="M815.5,341.3c-1.7,0-2.5-0.8-2.5-2.5V334h-1.1v-1.6h1.1V330h1.9v2.4h2.4v1.6h-2.4v4.4
			c0,0.8,0.4,1.2,1.2,1.2c0.4,0,0.8-0.1,1.2-0.3v1.5C816.7,341.2,816.2,341.3,815.5,341.3"/>
		<path style="fill:#0E2243;" d="M820.6,343.9c-0.7,0-1.3-0.1-2-0.5l0.6-1.4c0.4,0.2,0.8,0.3,1.2,0.3c0.6,0,1-0.3,1.3-1.1l0,0
			l-3.7-8.8h2l2.6,6.7l2.4-6.7h2l-3.5,9C822.8,343.2,822,343.9,820.6,343.9"/>
		<g>
			<g>
				<g>
					<defs>
						<polygon id="SVGID_1_" points="746.1,304.5 771.3,322.1 760.2,324.9 775,324.9 790.7,313.6 790.7,304.6 						"/>
					</defs>
					<clipPath id="SVGID_2_">
						<use xlink:href="#SVGID_1_"  style="overflow:visible;"/>
					</clipPath>
					<path style="clip-path:url(#SVGID_2_);fill:none;stroke:#72B63A;stroke-width:0.526;stroke-linecap:round;" d="M772.8,323.8
						c1.1,0.6,2.9-0.2,2.8,0.5c-0.1,0.5-1.8,0.8-1.8,0.8"/>
				</g>
			</g>
			<g>
				<g>
					<defs>
						<polygon id="SVGID_3_" points="746.1,304.5 771.3,322.1 760.2,324.9 775,324.9 790.7,313.6 790.7,304.6 						"/>
					</defs>
					<clipPath id="SVGID_4_">
						<use xlink:href="#SVGID_3_"  style="overflow:visible;"/>
					</clipPath>
					<path style="clip-path:url(#SVGID_4_);fill:none;stroke:#67B448;stroke-width:0.526;stroke-linecap:round;" d="M771,322.5
						c2.3,1.3,5.8-0.3,5.6,1c-0.2,1.1-3.7,1.6-3.7,1.6"/>
				</g>
			</g>
			<g>
				<g>
					<defs>
						<polygon id="SVGID_5_" points="746.1,304.5 771.3,322.1 760.2,324.9 775,324.9 790.7,313.6 790.7,304.6 						"/>
					</defs>
					<clipPath id="SVGID_6_">
						<use xlink:href="#SVGID_5_"  style="overflow:visible;"/>
					</clipPath>
					<path style="clip-path:url(#SVGID_6_);fill:none;stroke:#5FB356;stroke-width:0.526;stroke-linecap:round;" d="M769.1,321.2
						c3.4,1.9,8.6-0.5,8.4,1.4c-0.2,1.6-5.5,2.4-5.5,2.4"/>
				</g>
			</g>
			<g>
				<g>
					<defs>
						<polygon id="SVGID_7_" points="746.1,304.5 771.3,322.1 760.2,324.9 775,324.9 790.7,313.6 790.7,304.6 						"/>
					</defs>
					<clipPath id="SVGID_8_">
						<use xlink:href="#SVGID_7_"  style="overflow:visible;"/>
					</clipPath>
					<path style="clip-path:url(#SVGID_8_);fill:none;stroke:#50B061;stroke-width:0.526;stroke-linecap:round;" d="M767.2,319.9
						c4.6,2.6,11.5-0.6,11.1,1.9C778,324,771,325,771,325"/>
				</g>
			</g>
			<g>
				<g>
					<defs>
						<polygon id="SVGID_9_" points="746.1,304.5 771.3,322.1 760.2,324.9 775,324.9 790.7,313.6 790.7,304.6 						"/>
					</defs>
					<clipPath id="SVGID_10_">
						<use xlink:href="#SVGID_9_"  style="overflow:visible;"/>
					</clipPath>
					<path style="clip-path:url(#SVGID_10_);fill:none;stroke:#44AF6E;stroke-width:0.526;stroke-linecap:round;" d="M765.4,318.6
						c5.7,3.2,14.4-0.8,13.9,2.4c-0.4,2.7-9.2,4-9.2,4"/>
				</g>
			</g>
			<g>
				<g>
					<defs>
						<polygon id="SVGID_11_" points="746.1,304.5 771.3,322.1 760.2,324.9 775,324.9 790.7,313.6 790.7,304.6 						"/>
					</defs>
					<clipPath id="SVGID_12_">
						<use xlink:href="#SVGID_11_"  style="overflow:visible;"/>
					</clipPath>
					<path style="clip-path:url(#SVGID_12_);fill:none;stroke:#2EAD7A;stroke-width:0.526;stroke-linecap:round;" d="M763.5,317.4
						c6.9,3.9,17.3-0.9,16.7,2.9c-0.5,3.2-11.1,4.8-11.1,4.8"/>
				</g>
			</g>
			<g>
				<g>
					<defs>
						<polygon id="SVGID_13_" points="746.1,304.5 771.3,322.1 760.2,324.9 775,324.9 790.7,313.6 790.7,304.6 						"/>
					</defs>
					<clipPath id="SVGID_14_">
						<use xlink:href="#SVGID_13_"  style="overflow:visible;"/>
					</clipPath>
					<path style="clip-path:url(#SVGID_14_);fill:none;stroke:#15AC85;stroke-width:0.526;stroke-linecap:round;" d="M761.6,316.1
						c8,4.5,20.2-1.1,19.5,3.3c-0.6,3.7-12.9,5.6-12.9,5.6"/>
				</g>
			</g>
			<g>
				<g>
					<defs>
						<polygon id="SVGID_15_" points="746.1,304.5 771.3,322.1 760.2,324.9 775,324.9 790.7,313.6 790.7,304.6 						"/>
					</defs>
					<clipPath id="SVGID_16_">
						<use xlink:href="#SVGID_15_"  style="overflow:visible;"/>
					</clipPath>
					<path style="clip-path:url(#SVGID_16_);fill:none;stroke:#00AB90;stroke-width:0.526;stroke-linecap:round;" d="M759.8,314.8
						c9.2,5.2,23.1-1.2,22.3,3.8c-0.7,4.3-14.8,6.4-14.8,6.4"/>
				</g>
			</g>
			<g>
				<g>
					<defs>
						<polygon id="SVGID_17_" points="746.1,304.5 771.3,322.1 760.2,324.9 775,324.9 790.7,313.6 790.7,304.6 						"/>
					</defs>
					<clipPath id="SVGID_18_">
						<use xlink:href="#SVGID_17_"  style="overflow:visible;"/>
					</clipPath>
					<path style="clip-path:url(#SVGID_18_);fill:none;stroke:#00A99B;stroke-width:0.526;stroke-linecap:round;" d="M757.9,313.5
						c10.3,5.8,25.9-1.4,25.1,4.3c-0.7,4.8-16.6,7.2-16.6,7.2"/>
				</g>
			</g>
			<g>
				<g>
					<defs>
						<polygon id="SVGID_19_" points="746.1,304.5 771.3,322.1 760.2,324.9 775,324.9 790.7,313.6 790.7,304.6 						"/>
					</defs>
					<clipPath id="SVGID_20_">
						<use xlink:href="#SVGID_19_"  style="overflow:visible;"/>
					</clipPath>
					<path style="clip-path:url(#SVGID_20_);fill:none;stroke:#00A8A5;stroke-width:0.526;stroke-linecap:round;" d="M756,312.2
						c11.4,6.4,28.8-1.5,27.8,4.8c-0.8,5.3-18.5,8-18.5,8"/>
				</g>
			</g>
			<g>
				<g>
					<defs>
						<polygon id="SVGID_21_" points="746.1,304.5 771.3,322.1 760.2,324.9 775,324.9 790.7,313.6 790.7,304.6 						"/>
					</defs>
					<clipPath id="SVGID_22_">
						<use xlink:href="#SVGID_21_"  style="overflow:visible;"/>
					</clipPath>
					<path style="clip-path:url(#SVGID_22_);fill:none;stroke:#00A6AF;stroke-width:0.526;stroke-linecap:round;" d="M754.2,311
						c12.6,7.1,31.7-1.7,30.6,5.2c-0.9,5.9-20.3,8.8-20.3,8.8"/>
				</g>
			</g>
			<g>
				<g>
					<defs>
						<polygon id="SVGID_23_" points="746.1,304.5 771.3,322.1 760.2,324.9 775,324.9 790.7,313.6 790.7,304.6 						"/>
					</defs>
					<clipPath id="SVGID_24_">
						<use xlink:href="#SVGID_23_"  style="overflow:visible;"/>
					</clipPath>
					<path style="clip-path:url(#SVGID_24_);fill:none;stroke:#00A5B8;stroke-width:0.526;stroke-linecap:round;" d="M752.3,309.7
						c13.7,7.7,34.6-1.9,33.4,5.7c-1,6.4-22.1,9.6-22.1,9.6"/>
				</g>
			</g>
			<g>
				<g>
					<defs>
						<polygon id="SVGID_25_" points="746.1,304.5 771.3,322.1 760.2,324.9 775,324.9 790.7,313.6 790.7,304.6 						"/>
					</defs>
					<clipPath id="SVGID_26_">
						<use xlink:href="#SVGID_25_"  style="overflow:visible;"/>
					</clipPath>
					<path style="clip-path:url(#SVGID_26_);fill:none;stroke:#00A4C1;stroke-width:0.526;stroke-linecap:round;" d="M750.4,308.4
						c14.9,8.4,37.5-2,36.2,6.2c-1.1,6.9-24,10.4-24,10.4"/>
				</g>
			</g>
			<g>
				<g>
					<defs>
						<polygon id="SVGID_27_" points="746.1,304.5 771.3,322.1 760.2,324.9 775,324.9 790.7,313.6 790.7,304.6 						"/>
					</defs>
					<clipPath id="SVGID_28_">
						<use xlink:href="#SVGID_27_"  style="overflow:visible;"/>
					</clipPath>
					<path style="clip-path:url(#SVGID_28_);fill:none;stroke:#00A2C9;stroke-width:0.526;stroke-linecap:round;" d="M748.6,307.1
						c16,9,40.3-2.2,39,6.7c-1.1,7.5-25.8,11.1-25.8,11.1"/>
				</g>
			</g>
			<g>
				<g>
					<defs>
						<polygon id="SVGID_29_" points="746.1,304.5 771.3,322.1 760.2,324.9 775,324.9 790.7,313.6 790.7,304.6 						"/>
					</defs>
					<clipPath id="SVGID_33_">
						<use xlink:href="#SVGID_29_"  style="overflow:visible;"/>
					</clipPath>
					<path style="clip-path:url(#SVGID_33_);fill:none;stroke:#00A1D2;stroke-width:0.526;stroke-linecap:round;" d="M746.7,305.8
						c17.2,9.7,43.2-2.3,41.8,7.2c-1.2,8-27.7,11.9-27.7,11.9"/>
				</g>
			</g>
			<g>
				<g>
					<defs>
						<polygon id="SVGID_47_" points="746.1,304.5 771.3,322.1 760.2,324.9 775,324.9 790.7,313.6 790.7,304.6 						"/>
					</defs>
					<clipPath id="SVGID_48_">
						<use xlink:href="#SVGID_47_"  style="overflow:visible;"/>
					</clipPath>
					<path style="clip-path:url(#SVGID_48_);fill:none;stroke:#009FDA;stroke-width:0.526;stroke-linecap:round;" d="M744.9,304.5
						c18.3,10.3,46.1-2.5,44.5,7.6c-1.3,8.5-29.5,12.7-29.5,12.7"/>
				</g>
			</g>
			<g>
				<g>
					<defs>
						<polygon id="SVGID_49_" points="746.1,304.5 771.3,322.1 760.2,324.9 775,324.9 790.7,313.6 790.7,304.6 						"/>
					</defs>
					<clipPath id="SVGID_50_">
						<use xlink:href="#SVGID_49_"  style="overflow:visible;"/>
					</clipPath>
					<path style="clip-path:url(#SVGID_50_);fill:none;stroke:#009EE2;stroke-width:0.526;stroke-linecap:round;" d="M743,303.3
						c19.5,11,49-2.6,47.3,8.1c-1.4,9.1-31.4,13.5-31.4,13.5"/>
				</g>
			</g>
		</g>
		<path style="fill:#575756;" d="M799.9,345.4l-3.4,7.4h1l0.9-1.9h3.8l0.8,1.9h1l-3.4-7.4H799.9L799.9,345.4z M798.8,350l1.5-3.4
			l1.5,3.4H798.8L798.8,350z"/>
		<polygon style="fill:#575756;" points="810,351.1 805.6,345.4 804.7,345.4 804.7,352.8 805.7,352.8 805.7,347 810.2,352.8
			811,352.8 811,345.4 810,345.4 		"/>
		<polygon style="fill:#575756;" points="778.8,345.4 777.8,345.4 777.8,352.8 782.8,352.8 782.8,351.9 778.8,351.9 		"/>
		<polygon style="fill:#575756;" points="825.4,345.4 825.4,351.1 821,345.4 820.1,345.4 820.1,352.8 821.1,352.8 821.1,347
			825.6,352.8 826.4,352.8 826.4,345.4 		"/>
		<path style="fill:#575756;" d="M819.3,349.1c0-0.5-0.1-1-0.3-1.4c-0.2-0.5-0.4-0.9-0.8-1.2s-0.7-0.6-1.2-0.8
			c-0.5-0.2-1-0.3-1.5-0.3s-1.1,0.1-1.5,0.3c-0.5,0.2-0.9,0.5-1.2,0.8s-0.6,0.8-0.8,1.2c-0.2,0.5-0.3,0.9-0.3,1.5l0,0
			c0,0.5,0.1,1,0.3,1.4c0.2,0.5,0.4,0.9,0.8,1.2c0.3,0.3,0.7,0.6,1.2,0.8c0.5,0.2,1,0.3,1.5,0.3c0.6,0,1.1-0.1,1.5-0.3
			c0.5-0.2,0.9-0.5,1.2-0.8s0.6-0.8,0.8-1.2C819.2,350.1,819.3,349.6,819.3,349.1L819.3,349.1L819.3,349.1L819.3,349.1L819.3,349.1z
			 M815.5,352c-0.4,0-0.8-0.1-1.1-0.2c-0.3-0.2-0.6-0.4-0.9-0.6c-0.2-0.3-0.4-0.6-0.6-0.9c-0.1-0.4-0.2-0.7-0.2-1.1l0,0
			c0-0.4,0.1-0.8,0.2-1.1c0.1-0.3,0.3-0.7,0.6-0.9c0.2-0.3,0.5-0.5,0.9-0.6c0.3-0.1,0.7-0.2,1.1-0.2c0.4,0,0.8,0.1,1.1,0.2
			c0.3,0.2,0.6,0.4,0.9,0.6c0.2,0.3,0.4,0.6,0.6,0.9c0.1,0.4,0.2,0.7,0.2,1.1l0,0c0,0.4-0.1,0.8-0.2,1.1c-0.1,0.3-0.3,0.7-0.6,0.9
			c-0.2,0.3-0.5,0.5-0.9,0.6C816.3,351.9,815.9,352,815.5,352L815.5,352z"/>
		<polygon style="fill:#575756;" points="784.9,349.5 788.9,349.5 788.9,348.6 784.9,348.6 784.9,346.3 789.3,346.3 789.3,345.4
			784,345.4 784,352.8 789.4,352.8 789.4,351.9 784.9,351.9 		"/>
		<path style="fill:#575756;" d="M795.9,349.5c-0.1-0.1-0.3-0.3-0.5-0.4c-0.1-0.1-0.3-0.1-0.4-0.2c0.1,0,0.2-0.1,0.2-0.2
			c0.1-0.1,0.3-0.2,0.4-0.4c0.1-0.1,0.2-0.3,0.3-0.5s0.1-0.4,0.1-0.6l0,0c0-0.5-0.2-0.9-0.5-1.2c-0.2-0.2-0.5-0.4-0.8-0.5
			s-0.7-0.2-1.1-0.2h-3.1v7.4h3.3c0.4,0,0.8,0,1.1-0.1s0.6-0.2,0.9-0.4c0.2-0.2,0.4-0.4,0.6-0.6c0.1-0.3,0.2-0.5,0.2-0.9l0,0
			c0-0.3,0-0.5-0.1-0.7C796.2,349.8,796.1,349.7,795.9,349.5L795.9,349.5z M795,347.4L795,347.4c0,0.4-0.1,0.7-0.4,0.9
			c-0.3,0.2-0.7,0.3-1.2,0.3h-2v-2.3h2.1c0.5,0,0.9,0.1,1.1,0.3C794.9,346.8,795,347.1,795,347.4L795,347.4z M791.4,349.5h2.2
			c0.6,0,1.1,0.1,1.4,0.3c0.3,0.2,0.4,0.5,0.4,0.8l0,0c0,0.4-0.1,0.7-0.4,0.9c-0.3,0.2-0.7,0.3-1.2,0.3h-2.3v-2.3L791.4,349.5
			L791.4,349.5z"/>
	</g>
</g>
<g id="app_x5F_Oman--button">
	<path id="Line-4-Copy-4" style="fill:none;stroke:#8A1538;stroke-width:2;" d="M1359.9,622.8h-52.4"/>
	<g id="app_x5F_Oman--marker" transform="translate(1260.000000, 608.000000)">
		<polygon id="Fill-124_14_" style="fill:#8A1538;" points="23.8,1.9 23.8,25.6 31.7,25.6 35.6,29.9 39.6,25.6 47.5,25.6 47.5,1.9
					"/>
		<g id="Group_14_" transform="translate(5.000000, 5.000000)">
			<path id="Path_28_" style="fill:#FFFFFF;" d="M30.1,2.5c-3.8,0-6.4,2.6-6.4,6v6.7h2.2c0,0,0-3.7,0-6.7c0-3.2,2.4-5.4,4.8-5.9
				c0.1,0,0.2-0.1,0.1-0.1H30.1z"/>
			<path id="Path_29_" style="fill:#FFFFFF;" d="M30.6,2.8c-0.3,0.1-0.6,0.2-1,0.5c-1.7,1.1-2.4,3-2.5,4.9c0,0.1,0,0.2,0,0.3l0,0
				v0.1v6.7h2.2V8.5c0-0.4,0.2-0.8,0.5-1l0.9,1l0.9-1c0.3,0.2,0.5,0.6,0.5,1v6.7h2.2V8.5c0-2-1.6-3.6-3.5-3.6
				c-0.5,0-0.9,0.1-1.3,0.3l0,0c0.4-0.5,1.1-0.8,1.9-0.8l0,0c0.2,0,0.5,0,0.7,0.1c1.9,0.3,3.4,2,3.4,3.9c0,0.1,0,0.2,0,0.2v6.6h2.2
				V8.6c0-2.9-1.7-5.2-4.6-5.9c-0.1,0-0.3-0.1-0.4-0.1c-0.2,0-0.4-0.1-0.7-0.1C31.3,2.5,31,2.6,30.6,2.8z"/>
		</g>
	</g>
	<g id="Logo_AlMouj">
		<path style="fill:#002D74;" d="M1378.9,609.6c0-0.8-0.6-1.4-1.4-1.4s-1.4,0.6-1.4,1.4c0,0.8,0.6,1.4,1.4,1.4
			S1378.9,610.4,1378.9,609.6 M1454.8,618.4c0-0.8-0.6-1.4-1.4-1.4s-1.4,0.6-1.4,1.4c0,0.8,0.6,1.4,1.4,1.4
			C1454.2,619.8,1454.8,619.2,1454.8,618.4 M1376.9,597.6h-5.3v2.8h5.7c0.9,0,1.6,0.3,2.3,1c0.5,0.5,0.7,1.2,0.9,1.8h-3.7l0,0h-1.8
			c-1.8,0-3.3,0.6-4.5,1.7c-1.2,1.2-1.8,2.7-1.8,4.4c0,1.8,0.6,3.2,1.8,4.4c1.2,1.2,2.7,1.8,4.5,1.8h8.2v-2.8h-8.6
			c-0.9,0-1.6-0.3-2.3-1c-0.6-0.6-0.9-1.6-0.9-2.4c0-0.9,0.3-1.8,0.9-2.4c0.6-0.6,1.4-1,2.3-1h2.1l0,0h6.5v-2.8
			c-0.1-1.5-0.7-2.7-1.8-3.7C1380.2,598.2,1378.7,597.6,1376.9,597.6 M1452,615.4h2.8v-17.9h-2.8V615.4z M1418.8,611
			c0.3,0.8,0.8,1.6,1.5,2.2c1.4,1.4,3.1,2.2,5,2.2c0.1,0,0.2,0,0.3,0c1.9,0,3.6-0.7,5-2.1c0.7-0.7,1.3-1.5,1.6-2.4h10.1l0,0
			c1.8,0,3.3-0.6,4.4-1.8c1.2-1.2,1.8-2.8,1.8-4.6v-7h-2.8v7.2c0,0.9-0.3,1.8-1,2.5c-0.7,0.6-1.4,1-2.3,1h-9.7v-0.1
			c0-2-0.7-3.7-2.1-5.1c-1.3-1.4-3-2.2-5-2.3s-3.8,0.6-5.3,2.1s-2.2,3.2-2.2,5.3v0.1h-18.7v-3.9l0,0c0-1.8-0.6-3.3-1.9-4.6
			c-1.2-1.3-2.8-2-4.6-2.1c-1.9-0.1-3.5,0.6-4.8,1.9c-1.3,1.3-2,2.9-2,4.8c0,1.8,0.6,3.4,1.8,4.7c1.2,1.3,2.8,2,4.6,2
			c0.1,0,0.2,0,0.3,0c0.2,0,0.4,0,0.5,0h3c-0.1,0.2-0.3,0.5-0.6,0.7c-0.5,0.5-1.2,1-1.9,1h-7.8v2.8h7.6c1.5,0,2.8-0.6,3.9-1.7
			c0.8-0.8,1.3-1.7,1.6-2.8L1418.8,611L1418.8,611z M1422.4,604.7c0.9-0.9,1.9-1.3,3.1-1.3h0.1l0,0c1.2,0,2.2,0.4,3,1.3
			c0.9,0.9,1.3,2,1.4,3.2c0,1.3-0.4,2.5-1.4,3.4c-0.9,1-2,1.4-3.3,1.3l0,0c-1.2,0-2.2-0.5-3.1-1.5c-0.9-0.9-1.3-2-1.2-3.3
			C1421.1,606.7,1421.5,605.6,1422.4,604.7 M1393,608.2L1393,608.2c-0.1,0-0.1,0-0.2,0l0,0c-1,0-1.9-0.4-2.6-1.2s-1.1-1.7-1-2.8
			c0-1.1,0.4-2,1.1-2.7c0.8-0.8,1.6-1.1,2.7-1.1c0,0,0,0,0.1,0l0,0c1,0,1.9,0.4,2.6,1.1c0.7,0.8,1.1,1.7,1.2,2.7v0.1v3.4v0.6l0,0
			h-3.2L1393,608.2L1393,608.2z M1452,633.8c0,0.9-0.3,1.6-1,2.3c-0.7,0.6-1.6,1-2.5,1v2.8c1.8,0,3.3-0.6,4.5-1.8s1.8-2.8,1.8-4.6
			v-11.9h-2.8V633.8z M1448.5,621.5h-2.8v8.6c0,0.9-0.3,1.6-1,2.3c-0.7,0.6-1.6,1.1-2.5,1.1s-1.9-0.5-2.5-1.1c-0.7-0.7-1-1.4-1-2.3
			v-8.6h-2.8v8.4c0,1.8,0.6,3.4,1.8,4.6c1.2,1.2,2.7,1.8,4.5,1.8s3.3-0.6,4.5-1.8s1.8-2.8,1.8-4.6V621.5z M1425.7,621.5
			c-2-0.1-3.8,0.6-5.3,2.1s-2.2,3.2-2.2,5.3c0,2,0.7,3.7,2,5.1c1.4,1.4,3.1,2.2,5,2.2c0.1,0,0.2,0,0.3,0c1.9,0,3.6-0.7,5-2.1
			c1.5-1.5,2.2-3.3,2.2-5.3s-0.7-3.7-2.1-5.1C1429.4,622.3,1427.7,621.6,1425.7,621.5 M1428.7,632.3c-0.9,1-2,1.4-3.3,1.4l0,0
			c-1.2,0-2.2-0.5-3.1-1.5c-0.9-0.9-1.3-2-1.2-3.3c0-1.3,0.5-2.4,1.4-3.3c0.9-0.9,1.9-1.3,3.2-1.3h0.1l0,0c1.2,0,2.2,0.4,3.1,1.3
			c0.9,0.9,1.3,2,1.4,3.3C1430.1,630.1,1429.6,631.3,1428.7,632.3 M1386.3,636.3h2.8v-17.9h-2.8V636.3z M1376.2,621.5
			c-2.1-0.1-3.8,0.6-5.3,2.1s-2.2,3.2-2.2,5.3c0,2,0.7,3.7,2.1,5.1c1.4,1.4,3,2.2,5,2.3c0.1,0,0.2,0,0.3,0c1.5,0,3.3-0.8,4.5-1.6
			v1.6h2.8v-7.4c0.1-2-0.6-3.7-2-5.1C1379.9,622.4,1378.2,621.6,1376.2,621.5 M1379.1,632.2c-0.9,0.9-1.9,1.4-3.1,1.4
			c-0.1,0-0.2,0-0.2,0c-1.2-0.1-2.3-0.5-3.1-1.5c-0.9-0.9-1.3-2-1.2-3.3c0-1.3,0.5-2.4,1.4-3.3c0.9-0.9,2-1.3,3.2-1.3
			s2.2,0.4,3.1,1.3c0.9,0.9,1.3,2,1.3,3.2C1380.5,630.1,1380.1,631.3,1379.1,632.2 M1408.6,618.7c-0.2,0-0.4-0.1-0.6-0.1
			c-0.3,0-0.6-0.1-1-0.1c-0.7,0-1.2,0.1-1.8,0.3c-0.4,0.1-0.8,0.3-1.4,0.7c-2.6,1.6-3.7,4.6-3.7,7.4v9.4h3.2V627
			c0-0.6,0.3-1.1,0.7-1.5l1.3,1.5l1.3-1.5c0.4,0.4,0.7,0.9,0.7,1.5v9.3h3.2v-9.1c0-5.6-5.3-5.7-7-5c2.3-2.7,8.6-1,8.6,5v9.1h3.2
			c0,0,0-9.1,0-9.2C1415.3,623,1412.9,619.7,1408.6,618.7 M1425.8,640.6c0.2,0,0.4-0.2,0.4-0.4s-0.2-0.4-0.4-0.4s-0.4,0.2-0.4,0.4
			C1425.4,640.5,1425.6,640.6,1425.8,640.6 M1426.9,640.6c0.2,0,0.4-0.2,0.4-0.4s-0.2-0.4-0.4-0.4c-0.2,0-0.4,0.2-0.4,0.4
			C1426.5,640.5,1426.7,640.6,1426.9,640.6 M1440.5,641.4c-1.3,0.1-2.3,1.2-2.3,2.5c0,0.2,0,0.4,0.1,0.6h-2.6
			c0.1-0.2,0.1-0.4,0.1-0.7v-2.3h-0.8v2.1c0,0.8-0.2,1-0.7,1h-0.8c0.1-0.2,0.1-0.4,0.1-0.7v-2.3h-0.8v2.1c0,0.8-0.2,1-0.6,1h-0.9
			c0.1-0.2,0.1-0.4,0.1-0.7v-2.3h-0.8v2.1c0,0.6-0.3,0.9-0.7,0.9h-1.6h-0.7c-0.2,0-0.4,0-0.5-0.1c0.3-0.2,0.5-0.4,0.7-0.7
			s0.3-0.7,0.3-1.1c0-0.5-0.2-0.9-0.5-1.2c-0.3-0.4-0.8-0.5-1.4-0.5s-1,0.2-1.4,0.5c-0.3,0.3-0.5,0.7-0.5,1.2c0,0.4,0.1,0.7,0.3,1.1
			c0.2,0.3,0.4,0.5,0.7,0.7c-0.2,0.1-0.3,0.1-0.5,0.1h-2.1h-3.4c0-0.1,0-0.2,0-0.2c0-1.9-0.7-2.8-2-2.8c-0.9,0-1.8,0.6-2.4,1.6v-3.1
			h-0.8v2.5l0,0v2.1h-0.6v0.8h9.2h1.7c0.5,0,0.8,0,0.9,0c0.3-0.1,0.6-0.2,0.9-0.4c0.3,0.2,0.6,0.3,0.9,0.4c0.2,0,0.5,0,0.9,0h0.2
			h2.5h7.8c0.5,0.6,1.2,1,2,0.9c1.3-0.1,2.3-1.2,2.3-2.5C1443,642.4,1441.9,641.3,1440.5,641.4 M1418.6,644.4h-3.6
			c0.4-1.2,1.5-2.3,2.4-2.3c0.8,0,1.3,0.7,1.3,1.9C1418.6,644.2,1418.6,644.3,1418.6,644.4 M1426.3,643.9c-0.3-0.1-0.6-0.3-0.7-0.6
			c-0.2-0.2-0.2-0.5-0.2-0.8c0-0.6,0.4-1,1-1c0.3,0,0.6,0.1,0.7,0.3c0.2,0.2,0.3,0.4,0.3,0.7s-0.1,0.5-0.3,0.8
			C1426.9,643.6,1426.6,643.7,1426.3,643.9 M1440.7,645.4c-0.9,0-1.6-0.7-1.7-1.5c0-0.9,0.7-1.6,1.5-1.7c0.9,0,1.6,0.7,1.7,1.5
			C1442.3,644.6,1441.6,645.3,1440.7,645.4"/>
		<path style="fill:#00A6D6;" d="M1405.6,618.4C1405.8,618.4,1405.6,618.4,1405.6,618.4c-3.5,0.8-7,4-7,8.6v9.4h-3.2V627
			c0-4.9,3.8-8.5,9.2-8.5L1405.6,618.4L1405.6,618.4z M1408.4,641.4v1.5c0,0.4,0.2,0.8,0.5,1.1s0.7,0.5,1.1,0.5v0.8
			c-0.7,0-1.2-0.2-1.7-0.7s-0.7-1-0.7-1.7v-3.1h0.8v0.8h1.6v0.8L1408.4,641.4L1408.4,641.4z M1394.3,645.2c-0.6,0-1.2-0.2-1.7-0.6
			l0.5-0.6c0.4,0.3,0.8,0.5,1.2,0.5c0.5,0,0.8-0.2,0.8-0.6c0-0.4-0.5-0.6-1-0.7h-0.1c-0.6-0.2-1.3-0.6-1.3-1.3
			c0-0.8,0.7-1.3,1.6-1.3c0.5,0,1,0.2,1.5,0.5l-0.5,0.5c-0.3-0.2-0.6-0.3-0.9-0.3c-0.4,0-0.8,0.2-0.8,0.6c0,0.4,0.5,0.5,1,0.7h0.1
			c0.7,0.3,1.3,0.5,1.3,1.3C1396.1,644.7,1395.4,645.2,1394.3,645.2 M1396.9,642.9c0-0.7,0.2-1.2,0.7-1.7s1-0.7,1.7-0.7
			s1.2,0.2,1.7,0.7l-0.5,0.5c-0.3-0.3-0.7-0.5-1.1-0.5s-0.8,0.2-1.2,0.5c-0.3,0.3-0.5,0.7-0.5,1.1c0,0.4,0.2,0.8,0.5,1.1
			s0.7,0.5,1.2,0.5c0.4,0,0.8-0.2,1.1-0.5l0.5,0.5c-0.5,0.5-1,0.7-1.7,0.7s-1.2-0.2-1.7-0.7C1397.1,644.1,1396.9,643.6,1396.9,642.9
			L1396.9,642.9z M1391.7,643.3c0,0.5-0.2,1-0.6,1.4s-0.9,0.6-1.4,0.6s-1-0.2-1.4-0.6c-0.4-0.4-0.6-0.9-0.6-1.4v-2.7h0.8v2.7
			c0,0.3,0.1,0.6,0.4,0.9c0.2,0.2,0.5,0.4,0.9,0.4c0.3,0,0.6-0.1,0.9-0.4c0.2-0.2,0.4-0.5,0.4-0.9v-2.7h0.8v2.7H1391.7z M1386,642.4
			c0-0.3-0.1-0.5-0.3-0.8c-0.2-0.2-0.4-0.3-0.7-0.3c-0.3,0-0.6,0.1-0.7,0.3c-0.2,0.2-0.3,0.5-0.3,0.8v2.9h-0.8v-2.9
			c0-0.3-0.1-0.6-0.3-0.8c-0.2-0.2-0.4-0.3-0.7-0.3c-0.3,0-0.5,0.1-0.7,0.3s-0.3,0.5-0.3,0.8v2.9h-0.8v-2.9c0-0.5,0.2-0.9,0.5-1.3
			c0.4-0.4,0.8-0.6,1.3-0.6c0.6,0,1,0.2,1.4,0.7c0.3-0.4,0.8-0.7,1.4-0.7c0.5,0,0.9,0.2,1.3,0.6c0.3,0.4,0.5,0.8,0.5,1.3v2.9h-0.8
			V642.4z M1405.8,644.5c-0.5,0.5-1,0.8-1.7,0.8c-0.6,0-1.2-0.2-1.6-0.7s-0.7-1-0.7-1.7s0.2-1.2,0.7-1.7s1-0.7,1.7-0.7
			s1.2,0.2,1.7,0.7s0.7,1,0.7,1.7v2.3h-0.8L1405.8,644.5L1405.8,644.5z M1405.8,642.9c0-0.4-0.2-0.8-0.5-1.1s-0.7-0.5-1.1-0.5
			s-0.8,0.2-1.1,0.5c-0.3,0.3-0.5,0.7-0.5,1.1c0,0.4,0.2,0.8,0.5,1.1s0.7,0.5,1.1,0.5s0.8-0.2,1.1-0.5
			C1405.7,643.7,1405.8,643.3,1405.8,642.9"/>
	</g>
</g>
<g id="app_x5F_UAE--button">
	<g>
		<path id="Line-4-Copy" style="fill:none;stroke:#8A1538;stroke-width:2;" d="M1245.2,528.8v316.4"/>
		<path id="Line-4-Copy-2" style="fill:none;stroke:#8A1538;stroke-width:2;" d="M1271.9,845.2h-27.7"/>
		<path id="Line-4-Copy-3" style="fill:none;stroke:#8A1538;stroke-width:2;" d="M1271.9,758.2h-27.7"/>
	</g>
	<g id="app_x5F_UAE--marker" transform="translate(1209.000000, 521.000000)">
		<polygon id="Fill-124_13_" style="fill:#8A1538;" points="24.3,2.9 24.3,26.6 32.3,26.6 36.2,30.9 40.2,26.6 48.1,26.6 48.1,2.9
					"/>
		<g id="Group_13_" transform="translate(5.000000, 5.000000)">
			<path id="Path_26_" style="fill:#FFFFFF;" d="M30.7,3.4c-3.8,0-6.4,2.6-6.4,6v6.7h2.2c0,0,0-3.7,0-6.7c0-3.2,2.4-5.4,4.8-5.9
				c0.1,0,0.2-0.1,0.1-0.1C31.4,3.4,30.7,3.4,30.7,3.4z"/>
			<path id="Path_27_" style="fill:#FFFFFF;" d="M31.1,3.7c-0.3,0.1-0.6,0.2-1,0.5c-1.7,1.1-2.4,3-2.5,4.9c0,0.1,0,0.2,0,0.3l0,0
				v0.1v6.7h2.2V9.5c0-0.4,0.2-0.8,0.5-1l0.9,1l0.9-1c0.3,0.2,0.5,0.6,0.5,1v6.7h2.2V9.5c0-2-1.6-3.6-3.5-3.6
				c-0.5,0-0.9,0.1-1.3,0.3l0,0c0.4-0.5,1.1-0.8,1.9-0.8l0,0c0.2,0,0.5,0,0.7,0.1c1.9,0.3,3.4,2,3.4,3.9c0,0.1,0,0.2,0,0.2v6.6h2.2
				V9.6c0-2.9-1.7-5.2-4.6-5.9c-0.1,0-0.3-0.1-0.4-0.1c-0.2,0-0.4-0.1-0.7-0.1C31.9,3.5,31.5,3.6,31.1,3.7z"/>
		</g>
	</g>
	<g id="Logo_TAG">
		<g>
			<path d="M1299.3,862.4c0,0.3,0.3,0.4,0.8,0.4h3.5l-1.4,2.2h-4.5l-0.1-9c0,0,0.1-0.2,0.7-1.1c0.4-0.5,0.6-0.8,0.8-1
				C1299.2,855.3,1299.1,861.8,1299.3,862.4 M1314.8,857.1v8c0.7-0.2,1.5-0.4,1.6-1.9c0.1-1.4,0.1-5.2-0.1-8.2
				C1315.5,856.2,1315.3,856.4,1314.8,857.1 M1347.2,857.6l-1.3,2.3c0.7,0.8,1.2,1.6,1.4,2.4l0,0c0.2,0.7,0.3,1.2,0.3,2.2
				c-0.2-0.9-0.5-1.4-0.7-1.7h-3.8c-0.3,0-0.5-0.2-0.5-0.3c-0.2-0.8-0.4-1.9-0.5-3.3c-0.1-1.1-0.1-2.2-0.2-3.3
				c-0.1-0.8-0.2-1.5-0.2-2c-0.3,0.2-0.6,0.6-0.8,1c-0.2,0.4-0.4,0.8-0.4,1.2c0,1.2,0,2-0.1,2.5c-0.1,1-0.4,1.8-0.9,2.4
				c-0.1,0.1-0.2,0.4-0.3,0.5v0.1c0,0,0,0.1,0,0.2c0,0.3,0,1-0.4,1.4l-0.1,0.2v-0.2c0.2-1.4-0.8-4.6-1.8-6c-0.9-1.2-2.4-2.4-3.5-2.8
				c-0.4,1.2-0.5,2-0.5,3c0,0.3,2.4,1.9,2.6,1.8l0.4-0.2l0,0c1.6,1.4,2.1,3,2.1,3.2c0,0.5-1,1.3-3,2.3l-3.9,1.6c0,0-0.1,0-0.1,0.1
				h0.1h0.8c4.1,0,6.8-0.7,7.8-2.8c0.5-1.1,0.8-2,0.9-2.5l0.1-0.2l0.1,0.2c0.2,0.6,0.3,1.3,0.4,2.2c0,0.7,0.1,1.2,0.1,1.9h7.1
				c0.5-1.6,0.8-2.6,0.8-3.4C1349.1,860.2,1348.4,858.9,1347.2,857.6 M1311.8,854.7c-0.2-0.3-0.2-0.6-0.3-0.8
				c-0.4,0.5-0.9,1.2-1.4,2.3c-0.1,0.2-0.1,0.5,0.1,0.7c0.1,0.1,0.4,0.4,0.4,0.4l0,0c0.1,0.4,0.3,4.8,0.3,5.2l0,0c0,0.6,0,1.1-0.3,2
				c0-0.8-0.1-1.3-0.2-1.7h-3.8v-0.1c0-0.1,0.2-0.2,0.4-0.7c0.2-0.3,0.3-0.8,0.3-1.1c0-0.6-0.2-1.1-0.9-1.6
				c-0.6-0.4-1.1-0.6-1.7-0.6c-1,0-1.3,0.3-1.8,0.8c-0.3,0.3-0.7,1-1.2,2.1c0.7-0.1,0.7-0.1,0.8-0.1c0.8,0,1.5,0.4,2,1.1
				c0.1,0.1,1.4,1.9,1.7,2.3h5.3c0.1,0,0.3-0.2,0.3-0.2c0.1-0.1,0.2-0.1,0.4-1.1c0.2-0.8,0.2-1.2,0.2-1.5l0.1-4.1l0.8-1.7
				C1312.9,856.1,1311.9,854.9,1311.8,854.7 M1330.7,856.1c-0.5-0.3-1.5-1.4-1.6-1.6c-0.2-0.3-0.2-0.6-0.3-0.8
				c-0.4,0.5-0.9,1.2-1.4,2.3c-0.1,0.2-0.1,0.5,0.1,0.7c0.1,0.1,0.4,0.4,0.4,0.4l0,0c0.1,0.4,0.8,4.4,0.8,5c0,0.1,0.1,0.6,0.1,0.9
				c0.1,0.6,0.1,1.4-0.6,2.5c0.1-0.5,0.1-1,0.1-1.4c-0.3,0.1-0.6,0.3-1,0.4c-0.8,0.2-1.5,0.3-2,0.3c-0.7,0-1.3-0.2-1.9-0.6
				c-0.6-0.4-0.9-1-0.9-1.7c0-0.3,0.2-0.8,0.5-1.5c0.1-0.1,0-0.2,0-0.2l0,0l0,0c-0.2,0-0.8,0.4-1.1,1.2c-0.5,1.1-0.6,1.7-0.6,2.5
				c0,0.9,0.3,1.4,1,1.9c0.6,0.4,1.4,0.6,2.3,0.6c1.2,0,2.4-0.3,3.4-1c1.1-0.8,1.5-1.5,1.9-2.6c0.1-0.2,0.3-0.8,0.3-1.5l-0.4-4.2
				L1330.7,856.1z M1293.5,860.2c0,0-0.7-0.9-1-1.2s-0.5-0.4-0.7-0.4c-0.3,0-0.6,0.2-0.8,0.6c0,0,0,0,0,0.1c0,1.2,1.4,1.5,2.3,1.1
				L1293.5,860.2z M1294.9,858.8c0.5,1.4,0.8,2,0.7,3.4l-0.5,2.8h-10.7c-0.8,0-1.4,0-1.9-0.6s-0.8-1.2-0.8-2c0-0.5,0.1-1.1,0.3-2
				c0.3-0.9,0.5-1.5,0.8-1.7c0.2,0,0.2,0.1,0.2,0.2c0,0.2,0,0.5-0.1,0.9s-0.1,0.7-0.1,0.9c0,0.5,0.2,1,0.6,1.5
				c0.4,0.4,0.9,0.6,1.4,0.6h8.9c0.2,0.5,0.4,1.2,0.5,1.9c0.1-0.7,0.1-1.4,0-2.1l0,0c0-0.2-0.1-0.5-0.1-0.9
				c-0.1-0.7-0.4-1.3-0.4-1.3l-0.1,0.1c-0.5,0.7-1.4,1.5-2.3,1.5c-0.5,0-0.8-0.1-1.2-0.3c-0.5-0.3-0.8-0.7-0.8-1.1
				c0-0.7,0.4-1.6,1.3-2.5s1.7-1.4,2.4-1.4C1293.6,856.7,1294.3,857.4,1294.9,858.8 M1288.8,855.7l1.4,1.4l1.3-1.4l-1.3-1.3
				L1288.8,855.7z M1303.7,856.2l1.4,1.4l1.3-1.4l-1.3-1.3L1303.7,856.2z M1342.7,855.3l1.4,1.4l1.3-1.4l-1.3-1.3L1342.7,855.3z
				 M1345.2,855.3l1.4,1.4l1.3-1.4l-1.3-1.3L1345.2,855.3z M1340.6,874c-1.2,0-2.1,0.7-2.6,1.5l0,0v-4.7l-2.2,0.3V882h2.2v-6.2l0,0
				c0.4-0.2,0.8-0.3,1.1-0.3c1,0,1.6,0.6,1.6,1.8l0,0v4.6h2.2v-5.4C1342.8,874.9,1341.9,874,1340.6,874 M1313.3,882.1h2.6l-4.2-11.2
				l-1.5,0.2l-4.5,11h1.4l1.1-2.7h2.4l-0.1-1.1h-1.8l1.9-4.6L1313.3,882.1z M1287.1,882.1h2.2v-11.2l-2.2,0.3V882.1z M1299.6,882.1
				h2.2v-11.2l-2.2,0.3V882.1z M1272.5,872.5h3l0,0v9.6h2.4v-9.6l0,0h3v-1.3h-8.5L1272.5,872.5L1272.5,872.5z M1282.3,871.9l1.4,1.4
				l1.3-1.4l-1.3-1.3L1282.3,871.9z M1282.5,882.1h2.2v-7.9l-2.2,0.3V882.1z M1317.4,882.1h2.2v-11.2l-2.2,0.3V882.1z M1331.2,880.2
				c-0.5,0.3-0.9,0.5-1.6,0.5c-1.9,0-3.7-1.8-3.7-4.9c0-2.2,1.2-3.7,2.9-3.7c1.3,0,2.4,0.9,2.4,2.3l2.4-0.3c-0.2-2-2.2-3.1-4.5-3.1
				c-2.8,0-5.6,2-5.6,5.8c0,3.4,2.2,5.5,4.7,5.5c1.6,0,2.5-0.7,3-1.7v1.5h2.3v-5l-2.4,0.3L1331.2,880.2L1331.2,880.2z M1348,874
				c-0.8,0-1.4,0.2-2,0.6c-0.6,0.4-1,1.1-1.2,2c0.6-0.6,1.5-1,2.3-1c1,0,1.8,0.4,1.8,1.8v1.3v1.8c-0.3,0.3-0.8,0.4-1.2,0.4
				c-0.8,0-1.2-0.5-1.2-1.2c0-0.6,0.3-1.3,0.3-1.3c-1.5,0.5-2.3,1.4-2.3,2.4c0,0.9,0.7,1.7,1.8,1.7c1.1,0,2.1-0.7,2.5-1.6v1.5h2.1
				v-4.9C1351.1,875.4,1350,874,1348,874 M1294.6,874c-0.8,0-1.4,0.2-2,0.6c-0.6,0.4-1,1.1-1.2,2c0.6-0.6,1.5-1,2.3-1
				c1,0,1.8,0.4,1.8,1.8v1.3v1.8c-0.3,0.3-0.8,0.4-1.2,0.4c-0.8,0-1.2-0.5-1.2-1.2c0-0.6,0.3-1.3,0.3-1.3c-1.5,0.5-2.3,1.4-2.3,2.4
				c0,0.9,0.7,1.7,1.8,1.7c1.1,0,2.1-0.7,2.5-1.6v1.5h2.1v-4.9C1297.6,875.4,1296.6,874,1294.6,874 M1355.9,874.2v-0.3
				c0-1.2,0.4-1.6,1.4-1.6c0.3,0,0.6,0,0.8,0.1c-0.1-0.8-0.9-1.4-1.9-1.4c-1.6,0-2.5,1.1-2.5,2.6v0.5h-1.2v1.2h1.2v6.7h2.1v-6.7h2.4
				v-1.2h-2.3V874.2z M1284.8,891.9c1.3,0,2-1,2-2.1c0-1-0.6-2-1.9-2h-0.9v4L1284.8,891.9 M1284.9,887.2c1.7,0,2.6,1.3,2.6,2.6
				c0,1.4-0.9,2.7-2.7,2.7h-1.5v-5.3H1284.9 M1294,887.2h-0.7v3.3c0,0.7-0.3,1.5-1.3,1.5s-1.3-0.7-1.3-1.5v-3.3h-0.7v3.4
				c0,1.2,0.7,2.1,2,2.1c1.2,0,2-0.9,2-2.1V887.2z M1299.2,891.9c0.6,0,1-0.4,1-0.9s-0.3-0.9-1-0.9h-1.4v1.8L1299.2,891.9
				 M1297.8,889.4h1.3c0.6,0,0.9-0.4,0.9-0.8c0-0.4-0.3-0.8-0.9-0.8h-1.3V889.4z M1299.9,889.7c0.7,0.2,1,0.7,1,1.3
				c0,0.7-0.6,1.5-1.8,1.5h-2v-5.3h1.9c1.1,0,1.6,0.7,1.6,1.3C1300.6,889,1300.4,889.4,1299.9,889.7 M1310.8,892.5h0.7v-5.3h-0.7
				V892.5z M1306.8,890.5l-1.1-2.5l-1.1,2.5H1306.8z M1308.4,892.5h-0.8l-0.6-1.3h-2.7l-0.6,1.3h-0.8l2.4-5.3h0.7L1308.4,892.5z
				 M1344.3,888.5c2,0,3,1.1,3,4h-4.7l0.3-0.7h3.6c-0.1-1.9-0.8-2.7-2.3-2.7h-0.6l0.3-0.6H1344.3z M1339.9,891.8v-3.2l0.6-0.1v4
				h-8.5l-0.1-0.7H1339.9z M1327.7,892.5v-3.4h-2.5c-1.2,0-1.7,0.3-1.7,0.9c0,0.3,0.1,0.5,0.6,0.7l0.6,0.3c0.6,0.3,0.9,0.7,0.9,1.2
				c0,0.9-1,1.6-3,1.6c-2.3,0-3.2-0.9-3.2-3.2v-0.7h0.6v0.6c0,2.1,0.8,2.6,2.6,2.6c1.7,0,2.3-0.4,2.3-0.9c0-0.3-0.2-0.5-0.6-0.7
				l-0.6-0.3c-0.6-0.3-0.8-0.7-0.8-1.2c0-0.8,0.7-1.5,2.2-1.5h3.3v3.3h3.8v0.7L1327.7,892.5L1327.7,892.5z M1340.2,892.8l0.5,0.5
				l-0.5,0.5l-0.5-0.5L1340.2,892.8z M1322,894.1l0.5,0.5l-0.5,0.5l-0.5-0.5L1322,894.1z M1322.9,894.1l0.5,0.5l-0.5,0.5l-0.5-0.5
				L1322.9,894.1z"/>
		</g>
		<g>
			<path d="M1319.2,841.2v5.9h6.2v-6.4c-1.2,0.3-2.4,0.5-3.7,0.5H1319.2z"/>
			<path d="M1321.6,820.4c-1.7-1.4-3.9-2.2-6.2-2.2c-1.3,0-2.6,0.3-3.7,0.7l0,0c1.3-1.5,3.2-2.2,5.3-2.3l0,0c0.7,0,1.3,0,2,0.2
				c2.7,0.4,5,1.7,6.7,3.6c2.8,0,5.4,0,7.4,0c-2.1-4.2-6-7.3-11.3-8.5c-0.3-0.1-0.8-0.2-1.2-0.2c-0.6-0.1-1.2-0.1-1.9-0.1
				c-1.3,0-2.3,0.2-3.5,0.6c-0.8,0.3-1.6,0.6-2.7,1.3c-2.8,1.7-4.7,4.3-5.8,7.2c0.7-0.1,1.4-0.2,2.2-0.2
				C1312,820.4,1316.8,820.4,1321.6,820.4z"/>
			<path d="M1332.5,836.6c-1.1,1.1-2.4,2.1-3.8,2.8v7.7h6.2c0,0,0-8,0-13.6C1334.2,834.6,1333.4,835.6,1332.5,836.6z"/>
			<path d="M1324,823.2c-5.5,0-11.4,0-15.2,0c-1.1,0-2.1,0.1-3.1,0.4c-0.2,1.2-0.4,2.4-0.4,3.5c0,0.3,0,0.6,0,0.9l0,0v0.2v10.1h6.2
				v-10.1c0-1.2,0.5-2.2,1.4-2.9l2.5,2.9l2.5-2.9c0.8,0.7,1.4,1.8,1.4,2.9v10.1h2.5c1.3,0,2.5-0.2,3.7-0.6v-9.5
				C1325.4,826.4,1324.9,824.7,1324,823.2z"/>
			<path d="M1327.6,823.2c0.7,1.4,1.1,3,1.1,4.7c0,0.2,0,0.4,0,0.6v7.6c0.6-0.4,1.2-1,1.8-1.5c2.1-2.1,3.6-4.9,4.3-8
				c-0.1-1.2-0.3-2.4-0.6-3.5C1332.5,823.2,1330.2,823.2,1327.6,823.2z"/>
			<path d="M1295.8,847.1h6.2c0,0,0-2.4,0-5.9h-6.2V847.1z"/>
			<path d="M1302.3,825.2c-3.1,2-5.4,5.4-6.5,9.6v3.6h6.2c0-3.2,0-6.9,0-10.3C1302,827.1,1302.1,826.1,1302.3,825.2z"/>
			<rect x="1305.3" y="841.2" width="6.2" height="5.9"/>
			<path d="M1303.3,821.5c2.3-5.4,7.3-9.1,12.2-10.1c0.3-0.1,0.6-0.1,0.3-0.1h-1.8c-10.6,0-18.1,7.1-18.2,16.6
				C1297.7,824.9,1300.3,822.7,1303.3,821.5z"/>
			<path style="fill:#5E6738;" d="M1321.7,838.4h-2.5v2.8h2.5c1.2,0,2.5-0.2,3.7-0.5v-2.9C1324.2,838.2,1323,838.4,1321.7,838.4z"/>
			<path style="fill:#5E6738;" d="M1334.9,833.5c0-2.9,0-5.1,0-5.1c0-0.6,0-1.2-0.1-1.7c-0.8,3.1-2.3,5.9-4.3,8
				c-0.6,0.6-1.2,1.1-1.8,1.5v3.3c1.4-0.7,2.6-1.7,3.8-2.8C1333.4,835.6,1334.2,834.6,1334.9,833.5z"/>
			<path style="fill:#5E6738;" d="M1295.8,838.4v2.8h6.2c0-0.9,0-1.8,0-2.8H1295.8z"/>
			<rect x="1305.3" y="838.4" style="fill:#5E6738;" width="6.2" height="2.8"/>
			<path style="fill:#5E6738;" d="M1295.8,834.7c1.1-4.1,3.4-7.5,6.5-9.6c0.2-1.3,0.6-2.5,1.1-3.7c-3,1.2-5.6,3.5-7.6,6.4
				c0,0.1,0,0.2,0,0.3V834.7z"/>
			<path style="fill:#5E6738;" d="M1308.8,823.2c3.7,0,9.7,0,15.2,0c-0.6-1.1-1.5-2-2.4-2.8c-4.7,0-9.6,0-12.7,0
				c-0.7,0-1.5,0.1-2.2,0.2c-0.4,1-0.7,2-0.9,3C1306.8,823.3,1307.8,823.2,1308.8,823.2z"/>
			<path style="fill:#5E6738;" d="M1327.6,823.2c2.6,0,4.9,0,6.6,0c-0.3-1-0.7-1.9-1.1-2.8c-2,0-4.6,0-7.4,0
				C1326.4,821.2,1327.1,822.2,1327.6,823.2z"/>
		</g>
	</g>
	<g id="Logo_AlZahia">
		<g id="XMLID_308_">
			<path id="XMLID_321_" style="fill:#001C71;" d="M1293.9,775c-0.8,0.9-1.8,1.4-3,1.4c-1.1,0-2.1-0.4-2.9-1.3
				c-0.8-0.8-1.2-1.8-1.2-3s0.4-2.2,1.2-3c0.8-0.8,1.8-1.3,3-1.3s2.2,0.4,3,1.3c0.8,0.8,1.2,1.8,1.2,3v4.1h-1.4V775H1293.9z
				 M1293.9,772.2c0-0.8-0.3-1.5-0.8-2c-0.6-0.6-1.2-0.8-2-0.8s-1.5,0.3-2,0.8c-0.6,0.6-0.8,1.2-0.8,2s0.3,1.5,0.8,2
				c0.6,0.6,1.2,0.8,2,0.8s1.5-0.3,2-0.8C1293.6,773.6,1293.9,772.9,1293.9,772.2"/>
			<rect id="XMLID_320_" x="1297.2" y="764.5" style="fill:#001C71;" width="1.4" height="11.7"/>
			<polygon id="XMLID_319_" style="fill:#001C71;" points="1309.1,769.4 1304.6,769.4 1304.6,768.1 1311.6,768.1 1307.1,774.9
				1311.6,774.9 1311.6,776.3 1304.6,776.3 			"/>
			<path id="XMLID_316_" style="fill:#001C71;" d="M1319.7,775c-0.8,0.9-1.8,1.4-3,1.4c-1.1,0-2.1-0.4-2.9-1.3
				c-0.8-0.8-1.2-1.8-1.2-3s0.4-2.2,1.2-3c0.8-0.8,1.8-1.3,3-1.3s2.2,0.4,3,1.3c0.8,0.8,1.2,1.8,1.2,3v4.1h-1.4V775H1319.7z
				 M1319.7,772.2c0-0.8-0.3-1.5-0.8-2c-0.6-0.6-1.2-0.8-2-0.8s-1.5,0.3-2,0.8c-0.6,0.6-0.8,1.2-0.8,2s0.3,1.5,0.8,2
				c0.6,0.6,1.2,0.8,2,0.8s1.5-0.3,2-0.8C1319.4,773.6,1319.7,772.9,1319.7,772.2"/>
			<path id="XMLID_315_" style="fill:#001C71;" d="M1328.8,771.5c0-0.6-0.2-1.1-0.6-1.5s-0.9-0.6-1.5-0.6s-1.1,0.2-1.5,0.6
				c-0.4,0.4-0.6,0.9-0.6,1.5v4.8h-1.4v-11.7h1.4v4.5c0.7-0.8,1.5-1.1,2.5-1.1c0.9,0,1.7,0.4,2.4,1.1c0.6,0.7,0.9,1.5,0.9,2.5v4.8
				h-1.4v-4.9L1328.8,771.5L1328.8,771.5z"/>
			<path id="XMLID_312_" style="fill:#001C71;" d="M1332.5,765.3h1.4v1.4h-1.4V765.3z M1332.5,768.1h1.4v8.2h-1.4V768.1z"/>
			<path id="XMLID_309_" style="fill:#001C71;" d="M1342.6,775c-0.8,0.9-1.8,1.4-3,1.4c-1.1,0-2.1-0.4-2.9-1.3
				c-0.8-0.8-1.2-1.8-1.2-3s0.4-2.2,1.2-3c0.8-0.8,1.8-1.3,3-1.3s2.2,0.4,3,1.3c0.8,0.8,1.2,1.8,1.2,3v4.1h-1.4V775H1342.6z
				 M1342.6,772.2c0-0.8-0.3-1.5-0.8-2c-0.6-0.6-1.2-0.8-2-0.8s-1.5,0.3-2,0.8c-0.6,0.6-0.8,1.2-0.8,2s0.3,1.5,0.8,2
				c0.6,0.6,1.2,0.8,2,0.8s1.5-0.3,2-0.8C1342.3,773.6,1342.6,772.9,1342.6,772.2"/>
		</g>
		<g id="XMLID_1_">
			<g id="XMLID_39_">
				<path id="XMLID_48_" style="fill:#0075C9;" d="M1304.9,790v-0.7c-0.5,0.5-1.1,0.8-1.8,0.8c-0.7,0-1.2-0.2-1.7-0.7
					s-0.7-1.1-0.7-1.7c0-0.7,0.2-1.3,0.7-1.8s1.1-0.7,1.8-0.7c0.7,0,1.3,0.2,1.8,0.7s0.7,1.1,0.7,1.8v2.4L1304.9,790L1304.9,790z
					 M1304.9,787.6c0-0.5-0.2-0.9-0.5-1.2s-0.7-0.5-1.2-0.5s-0.9,0.2-1.2,0.5c-0.3,0.3-0.5,0.7-0.5,1.2s0.2,0.9,0.5,1.2
					s0.7,0.5,1.2,0.5s0.9-0.2,1.2-0.5C1304.7,788.4,1304.9,788,1304.9,787.6z"/>
				<path id="XMLID_46_" style="fill:#0075C9;" d="M1307.9,786.3c-0.3,0.3-0.4,0.6-0.4,0.9v2.8h-0.8v-2.8c0-0.6,0.2-1,0.6-1.5
					s0.9-0.6,1.5-0.6v0.8C1308.4,785.9,1308.1,786,1307.9,786.3z"/>
				<path id="XMLID_43_" style="fill:#0075C9;" d="M1313.5,790v-0.7c-0.5,0.5-1.1,0.8-1.8,0.8c-0.7,0-1.2-0.2-1.7-0.7
					s-0.7-1.1-0.7-1.7c0-0.7,0.2-1.3,0.7-1.8s1.1-0.7,1.8-0.7c0.7,0,1.3,0.2,1.8,0.7s0.7,1.1,0.7,1.8v2.4L1313.5,790L1313.5,790z
					 M1313.5,787.6c0-0.5-0.2-0.9-0.5-1.2s-0.7-0.5-1.2-0.5s-0.9,0.2-1.2,0.5c-0.3,0.3-0.5,0.7-0.5,1.2s0.2,0.9,0.5,1.2
					s0.7,0.5,1.2,0.5s0.9-0.2,1.2-0.5C1313.4,788.4,1313.5,788,1313.5,787.6z"/>
				<path id="XMLID_40_" style="fill:#0075C9;" d="M1320.2,787.6c0,0.7-0.2,1.3-0.7,1.8s-1.1,0.7-1.8,0.7c-0.7,0-1.3-0.2-1.8-0.7
					s-0.7-1.1-0.7-1.8v-4h0.8v2.3c0.5-0.5,1.1-0.8,1.8-0.8c0.7,0,1.2,0.2,1.7,0.7S1320.2,786.9,1320.2,787.6z M1319.4,787.6
					c0-0.5-0.2-0.9-0.5-1.2s-0.7-0.5-1.2-0.5s-0.9,0.2-1.2,0.5c-0.3,0.3-0.5,0.7-0.5,1.2s0.2,0.9,0.5,1.2s0.7,0.5,1.2,0.5
					s0.9-0.2,1.2-0.5C1319.2,788.4,1319.4,788,1319.4,787.6z"/>
			</g>
			<g id="XMLID_24_">
				<path id="XMLID_37_" style="fill:#0075C9;" d="M1275.7,789.4c-0.4,0.4-0.9,0.6-1.5,0.6s-1-0.2-1.5-0.6c-0.4-0.4-0.6-0.9-0.6-1.5
					v-2.8h0.8v2.8c0,0.4,0.1,0.7,0.4,0.9c0.3,0.3,0.6,0.4,0.9,0.4c0.4,0,0.7-0.1,0.9-0.4c0.3-0.2,0.4-0.6,0.4-0.9v-2.8h0.8v2.8
					C1276.3,788.5,1276.1,789,1275.7,789.4z"/>
				<path id="XMLID_35_" style="fill:#0075C9;" d="M1280.5,790v-2.8c0-0.4-0.1-0.7-0.4-0.9c-0.3-0.3-0.6-0.4-0.9-0.4
					c-0.4,0-0.7,0.1-0.9,0.4c-0.3,0.3-0.4,0.6-0.4,0.9v2.8h-0.8v-2.8c0-0.6,0.2-1,0.6-1.5s0.9-0.6,1.5-0.6c0.5,0,1,0.2,1.5,0.6
					s0.6,0.9,0.6,1.5v2.8H1280.5z"/>
				<path id="XMLID_32_" style="fill:#0075C9;" d="M1282.3,784.4v-0.8h0.8v0.8H1282.3z M1282.3,790v-4.8h0.8v4.8H1282.3z"/>
				<path id="XMLID_29_" style="fill:#0075C9;" d="M1296.9,789.3c-0.5,0.5-1.1,0.7-1.8,0.7c-0.7,0-1.3-0.2-1.8-0.7s-0.7-1.1-0.7-1.8
					s0.2-1.3,0.7-1.8s1-0.7,1.7-0.7s1.3,0.3,1.8,0.8v-2.3h0.8v4C1297.6,788.3,1297.4,788.9,1296.9,789.3z M1296.8,787.6
					c0-0.5-0.2-0.9-0.5-1.2s-0.7-0.5-1.2-0.5s-0.9,0.2-1.2,0.5c-0.3,0.3-0.5,0.7-0.5,1.2s0.2,0.9,0.5,1.2s0.7,0.5,1.2,0.5
					s0.9-0.2,1.2-0.5C1296.7,788.4,1296.8,788,1296.8,787.6z"/>
				<path id="XMLID_26_" style="fill:#0075C9;" d="M1289.4,790.1c-0.5,0-0.9-0.1-1.3-0.4c-0.6-0.4-0.9-0.9-1.1-1.6
					c-0.1-0.7,0-1.3,0.3-1.9c0.4-0.6,0.9-0.9,1.6-1.1c0.2,0,0.4-0.1,0.6-0.1c0.5,0,0.9,0.1,1.3,0.4c0.4,0.3,0.7,0.6,0.9,1.1
					c0.2,0.4,0.3,0.9,0.2,1.3v0.1h-4.1l0,0c0.1,0.4,0.4,0.8,0.7,1c0.3,0.2,0.6,0.3,0.9,0.3c0.1,0,0.2,0,0.4,0c0.4-0.1,0.7-0.3,1-0.6
					l0.1-0.1l0.7,0.4l-0.1,0.1c-0.4,0.5-0.9,0.8-1.5,1C1289.8,790,1289.6,790.1,1289.4,790.1 M1289.5,785.9c-0.1,0-0.3,0-0.4,0
					c-0.5,0.1-0.8,0.4-1.1,0.7c-0.1,0.1-0.2,0.3-0.2,0.5l0,0h3.3l0,0c-0.1-0.4-0.4-0.8-0.7-1C1290.1,786,1289.8,785.9,1289.5,785.9"
					/>
				<path id="XMLID_25_" style="fill:#0075C9;" d="M1286.7,786v-0.8h-1.7v-1.6h-0.8v4c0,0.7,0.2,1.3,0.7,1.8s1.1,0.7,1.8,0.7v-0.8
					c-0.5,0-0.9-0.2-1.2-0.5c-0.3-0.3-0.5-0.7-0.5-1.2V786H1286.7z"/>
			</g>
			<g id="XMLID_2_">
				<path id="XMLID_22_" style="fill:#0075C9;" d="M1335,790v-3c0-0.3-0.1-0.6-0.3-0.8c-0.2-0.2-0.5-0.3-0.7-0.3
					c-0.3,0-0.6,0.1-0.8,0.3c-0.2,0.2-0.3,0.5-0.3,0.8v3h-0.8v-3c0-0.3-0.1-0.6-0.3-0.8c-0.2-0.2-0.4-0.3-0.8-0.3
					c-0.3,0-0.5,0.1-0.7,0.3s-0.3,0.5-0.3,0.8v3h-0.8v-3c0-0.5,0.2-1,0.5-1.4c0.4-0.4,0.8-0.6,1.3-0.6c0.6,0,1.1,0.2,1.4,0.7
					c0.4-0.5,0.8-0.7,1.4-0.7c0.5,0,1,0.2,1.3,0.6c0.4,0.4,0.5,0.8,0.5,1.4v3H1335z"/>
				<path id="XMLID_19_" style="fill:#0075C9;" d="M1336.8,784.4v-0.8h0.8v0.8H1336.8z M1336.8,790.1v-4.8h0.8v4.8H1336.8z"/>
				<path id="XMLID_17_" style="fill:#0075C9;" d="M1339.9,786.3c-0.3,0.3-0.4,0.6-0.4,0.9v2.8h-0.8v-2.8c0-0.6,0.2-1,0.6-1.5
					s0.9-0.6,1.5-0.6v0.8C1340.5,785.9,1340.2,786,1339.9,786.3z"/>
				<path id="XMLID_14_" style="fill:#0075C9;" d="M1345.6,790v-0.7c-0.5,0.5-1.1,0.8-1.8,0.8c-0.7,0-1.2-0.2-1.7-0.7
					s-0.7-1.1-0.7-1.7c0-0.7,0.2-1.3,0.7-1.8s1.1-0.7,1.8-0.7c0.7,0,1.3,0.2,1.8,0.7s0.7,1.1,0.7,1.8v2.4L1345.6,790L1345.6,790z
					 M1345.6,787.6c0-0.5-0.2-0.9-0.5-1.2s-0.7-0.5-1.2-0.5s-0.9,0.2-1.2,0.5c-0.3,0.3-0.5,0.7-0.5,1.2s0.2,0.9,0.5,1.2
					s0.7,0.5,1.2,0.5s0.9-0.2,1.2-0.5C1345.4,788.4,1345.6,788,1345.6,787.6z"/>
				<path id="XMLID_12_" style="fill:#0075C9;" d="M1358.6,788.7c0,0.4-0.1,0.7-0.4,1s-0.6,0.4-1,0.4c-0.3,0-0.6-0.1-0.9-0.3
					s-0.4-0.5-0.5-0.8l0.8-0.2c0,0.1,0,0.1,0.1,0.2c0,0.1,0.1,0.1,0.1,0.2c0.1,0,0.1,0.1,0.2,0.1s0.1,0,0.2,0c0.2,0,0.3-0.1,0.4-0.2
					c0.1-0.1,0.2-0.3,0.2-0.4c0-0.3-0.2-0.5-0.5-0.6s-0.5-0.2-0.7-0.3s-0.3-0.1-0.3-0.1c-0.3-0.2-0.5-0.6-0.5-1.1
					c0-0.4,0.1-0.7,0.4-1s0.6-0.4,1-0.4c0.3,0,0.6,0.1,0.9,0.3s0.4,0.5,0.5,0.8l-0.8,0.2c-0.1-0.3-0.3-0.5-0.6-0.5
					c-0.2,0-0.3,0.1-0.4,0.2c-0.1,0.1-0.2,0.3-0.2,0.4c0,0.3,0.2,0.5,0.5,0.6s0.5,0.3,0.7,0.3c0.2,0.1,0.3,0.1,0.3,0.1
					C1358.4,787.8,1358.6,788.2,1358.6,788.7z"/>
				<path id="XMLID_7_" style="fill:#0075C9;" d="M1325.8,790.1c-0.5,0-0.9-0.1-1.3-0.4c-0.6-0.4-0.9-0.9-1.1-1.6
					c-0.1-0.7,0-1.3,0.3-1.9c0.4-0.6,0.9-0.9,1.6-1.1c0.2,0,0.4-0.1,0.6-0.1c0.5,0,0.9,0.1,1.3,0.4c0.4,0.3,0.7,0.6,0.9,1.1
					c0.2,0.4,0.3,0.9,0.2,1.3v0.1h-4.1l0,0c0.1,0.4,0.4,0.8,0.7,1c0.3,0.2,0.6,0.3,0.9,0.3c0.1,0,0.2,0,0.4,0c0.4-0.1,0.7-0.3,1-0.6
					l0.1-0.1l0.7,0.4l-0.1,0.1c-0.4,0.5-0.9,0.8-1.5,1C1326.1,790,1325.9,790.1,1325.8,790.1 M1325.8,785.9c-0.1,0-0.3,0-0.4,0
					c-0.5,0.1-0.8,0.4-1.1,0.7c-0.1,0.1-0.2,0.3-0.2,0.5l0,0h3.3l0,0c-0.1-0.4-0.4-0.8-0.7-1C1326.4,786,1326.1,785.9,1325.8,785.9"
					/>
				<path id="XMLID_4_" style="fill:#0075C9;" d="M1352.4,790.1c-0.5,0-0.9-0.1-1.3-0.4c-0.6-0.4-0.9-0.9-1.1-1.6
					c-0.1-0.7,0-1.3,0.3-1.9c0.4-0.6,0.9-0.9,1.6-1.1c0.2,0,0.4-0.1,0.6-0.1c0.5,0,0.9,0.1,1.3,0.4c0.4,0.3,0.7,0.6,0.9,1.1
					c0.2,0.4,0.3,0.9,0.2,1.3v0.1h-4.1l0,0c0.1,0.4,0.4,0.8,0.7,1c0.3,0.2,0.6,0.3,0.9,0.3c0.1,0,0.2,0,0.4,0c0.4-0.1,0.7-0.3,1-0.6
					l0.1-0.1l0.7,0.4l-0.1,0.1c-0.4,0.5-0.9,0.8-1.5,1C1352.8,790,1352.6,790.1,1352.4,790.1 M1352.5,785.9c-0.1,0-0.3,0-0.4,0
					c-0.5,0.1-0.8,0.4-1.1,0.7c-0.1,0.1-0.2,0.3-0.2,0.5l0,0h3.3l0,0c-0.1-0.4-0.4-0.8-0.7-1C1353.1,786,1352.8,785.9,1352.5,785.9"
					/>
				<path id="XMLID_3_" style="fill:#0075C9;" d="M1349.7,786v-0.8h-1.7v-1.6h-0.8v4c0,0.7,0.2,1.3,0.7,1.8s1.1,0.7,1.8,0.7v-0.8
					c-0.5,0-0.9-0.2-1.2-0.5c-0.3-0.3-0.5-0.7-0.5-1.2V786H1349.7z"/>
			</g>
		</g>
		<g id="XMLID_106_">
			<g id="XMLID_61_">
				<g>

						<linearGradient id="SVGID_51_" gradientUnits="userSpaceOnUse" x1="1313.0613" y1="503.3401" x2="1294.4241" y2="524.5036" gradientTransform="matrix(1 0 0 1 0 238.1102)">
						<stop  offset="0" style="stop-color:#E34126"/>
						<stop  offset="1" style="stop-color:#FFC333"/>
					</linearGradient>
					<path id="SVGID_46_" style="fill:url(#SVGID_51_);" d="M1295.9,748.1v10.7h6.2v-11.6c-0.4,0.1-0.9,0.1-1.4,0.1
						c-1.1,0-2.2-0.2-3.3-0.7C1296.9,747.2,1296.3,747.7,1295.9,748.1 M1308.8,741.6c-0.9,0.8-1.7,1.8-2.4,3.2
						c-0.3,0.4-0.6,0.8-1,1.1v13h3.6c0-0.6-0.1-1.3-0.1-1.8c-0.1-0.7-0.7-1.3-0.6-1.9c0.5-2.9,2.1-2,2.6-4.9
						c0.2-0.9,0.4-1.8,0.7-2.6V741C1310.7,741.1,1309.8,741.3,1308.8,741.6"/>
				</g>
			</g>
			<g id="XMLID_102_">
				<g>

						<linearGradient id="SVGID_52_" gradientUnits="userSpaceOnUse" x1="1312.6057" y1="502.2564" x2="1341.0806" y2="503.0439" gradientTransform="matrix(1 0 0 1 0 238.1102)">
						<stop  offset="0" style="stop-color:#007496"/>
						<stop  offset="0.417" style="stop-color:#007496"/>
						<stop  offset="1" style="stop-color:#5BCAF4"/>
					</linearGradient>
					<path id="SVGID_45_" style="fill:url(#SVGID_52_);" d="M1323.6,735.4c-0.5,0.5-1.1,0.4-1.9,0.3c-1.1-0.1-2.3-0.2-3.7,1.6
						c0.7,0.8,1.2,1.7,1.2,2.8v2.1c0.3,0,0.6,0,1,0c0.8,0,1.8-0.1,2.4,0c0.9,0.2,1.8,0.3,2.9,0.7v-2.5c0-2.1-0.4-3.9-1-5.2
						C1324.1,735.3,1323.9,735.4,1323.6,735.4 M1327.2,734.2c0.9,1.7,1.5,3.8,1.5,6.3v4.6c0.5,0.4,0.9,0.9,1.4,1.5
						c1.7,1.1,3.4,2.5,4.8,4c0-4.9,0-10.3,0-10.3c0-3.3-0.8-6.4-2.4-9C1331,732.4,1329.1,733.4,1327.2,734.2"/>
				</g>
			</g>
			<g id="XMLID_167_">
				<g>

						<linearGradient id="SVGID_53_" gradientUnits="userSpaceOnUse" x1="1314.2321" y1="499.4165" x2="1275.6531" y2="504.1404" gradientTransform="matrix(1 0 0 1 0 238.1102)">
						<stop  offset="0" style="stop-color:#D83C73"/>
						<stop  offset="0.1992" style="stop-color:#CE3869"/>
						<stop  offset="0.5406" style="stop-color:#B32E4D"/>
						<stop  offset="0.9803" style="stop-color:#871D21"/>
						<stop  offset="1" style="stop-color:#851C1F"/>
					</linearGradient>
					<path id="SVGID_44_" style="fill:url(#SVGID_53_);" d="M1305.3,739.9v2.9c1.4-0.5,2.6-0.9,3.8-1.2c0.9-0.2,1.8-0.4,2.5-0.5v-1
						c0-1.2,0.5-2.2,1.4-3l2.1,2.5c-0.5-0.9-1.2-2-2-2.9c-1.6-0.4-4.4-1.1-7-2C1305.5,736.4,1305.3,738.2,1305.3,739.9 M1295.9,740
						v8.7c0.3-0.3,0.6-0.4,0.7-0.4c1.3-1,3.7-3.1,5.5-4.1V740c0-2.3,0.5-4.4,1.2-6.4c-1-0.5-1.9-1-2.6-1.6c-0.2-0.2-0.5-0.4-0.7-0.5
						c-0.1,0-0.7-0.5-1.3-1C1296.9,733.2,1295.9,736.4,1295.9,740"/>
				</g>
			</g>
			<g id="XMLID_99_">
				<g>

						<linearGradient id="SVGID_54_" gradientUnits="userSpaceOnUse" x1="1295.8538" y1="506.6898" x2="1311.521" y2="506.6898" gradientTransform="matrix(1 0 0 1 0 238.1102)">
						<stop  offset="0" style="stop-color:#EF5136"/>
						<stop  offset="0.4045" style="stop-color:#CB3740"/>
						<stop  offset="0.7805" style="stop-color:#AF2447"/>
						<stop  offset="1" style="stop-color:#A51D4A"/>
					</linearGradient>
					<path id="SVGID_43_" style="fill:url(#SVGID_54_);" d="M1295.9,748.2v0.4c1.3,0,3.9-1.3,4.8-1.3c0.5,0,0.9,0,1.4-0.1V744
						C1300.3,744.8,1297.4,747,1295.9,748.2 M1305.3,742.8v3.1c0.4-0.3,0.7-0.7,1-1.1c1.5-2.4,3.9-3,5.2-3.6V741
						C1310.1,741.3,1307.5,742,1305.3,742.8"/>
				</g>
			</g>
			<g id="XMLID_159_">
				<g>

						<linearGradient id="SVGID_55_" gradientUnits="userSpaceOnUse" x1="1318.6613" y1="502.2172" x2="1338.2548" y2="523.2194" gradientTransform="matrix(1 0 0 1 0 238.1102)">
						<stop  offset="0" style="stop-color:#698735"/>
						<stop  offset="1" style="stop-color:#D1D747"/>
					</linearGradient>
					<path id="SVGID_42_" style="fill:url(#SVGID_55_);" d="M1328.7,755.1c0.1,0.3,0.2,0.6,0.1,1c1.5,1,2.9,1.9,4.2,2.8h1.9
						c0,0,0-2.4,0-5.5c-0.6-0.9-1.3-2-2.1-3.2c-0.9-1.5-1.8-2.6-2.6-3.6c-0.7-0.8-1.1-1.3-1.4-1.7L1328.7,755.1L1328.7,755.1z
						 M1319.2,742.1v5.1c0.2,0.1,0.3,0.1,0.4,0.2c2,1.1,3.4,2.5,4.9,3.8c0.3,0.3,0.6,0.5,0.9,0.8v-9c-1.8-0.8-3.9-0.9-5.2-0.9
						C1319.8,742.1,1319.4,742.1,1319.2,742.1"/>
				</g>
			</g>
			<g id="XMLID_157_">
				<g>

						<linearGradient id="SVGID_56_" gradientUnits="userSpaceOnUse" x1="1330.3961" y1="511.8898" x2="1339.1534" y2="511.8898" gradientTransform="matrix(1 0 0 1 0 238.1102)">
						<stop  offset="0" style="stop-color:#698735"/>
						<stop  offset="1" style="stop-color:#095B83"/>
					</linearGradient>
					<path id="SVGID_41_" style="fill:url(#SVGID_56_);" d="M1332.7,750.2c0.8,1.2,1.5,2.3,2.1,3.2c0-0.9,0-1.8,0-2.8
						c-1.4-1.5-3-2.9-4.8-4C1330.9,747.5,1331.8,748.7,1332.7,750.2"/>
				</g>
			</g>
			<g id="XMLID_152_">
				<g>

						<linearGradient id="SVGID_57_" gradientUnits="userSpaceOnUse" x1="1320.3136" y1="503.4369" x2="1322.1508" y2="532.6992" gradientTransform="matrix(1 0 0 1 0 238.1102)">
						<stop  offset="0" style="stop-color:#698735"/>
						<stop  offset="1" style="stop-color:#D1D747"/>
					</linearGradient>
					<path id="SVGID_40_" style="fill:url(#SVGID_57_);" d="M1328.7,758.9h5.2c-1.6-1-3.5-1.9-5.1-2.7v-0.1c0,0-0.1,0-0.1-0.1V758.9
						z M1308.8,757c0.1,0.1,0.1,0.9,0.1,1.8h2.7v-6.7C1310.8,754,1309.9,755.7,1308.8,757 M1319.2,758.9h6.2v-6.2
						c-2.4-1.8-4.9-3.8-6.2-5.2V758.9z"/>
				</g>
			</g>

				<linearGradient id="SVGID_58_" gradientUnits="userSpaceOnUse" x1="1308.1661" y1="515.0898" x2="1314.0605" y2="515.0898" gradientTransform="matrix(1 0 0 1 0 238.1102)">
				<stop  offset="0" style="stop-color:#AD5F28"/>
				<stop  offset="1" style="stop-color:#215A4A"/>
			</linearGradient>
			<path id="SVGID_39_" style="fill:url(#SVGID_58_);" d="M1310.8,750.2c-0.5,2.9-2.1,2-2.6,4.9c-0.1,0.4,0.2,2.3,0.4,3.7h0.6
				c0.6-2.1,1.5-4.3,2.3-6.5v-4.7C1311.2,748.4,1310.9,749.3,1310.8,750.2"/>
			<g id="XMLID_95_">
				<g>

						<linearGradient id="SVGID_59_" gradientUnits="userSpaceOnUse" x1="1319.1998" y1="514.9897" x2="1334.5" y2="514.9897" gradientTransform="matrix(1 0 0 1 0 238.1102)">
						<stop  offset="0" style="stop-color:#698735"/>
						<stop  offset="1" style="stop-color:#215A4A"/>
					</linearGradient>
					<path id="SVGID_38_" style="fill:url(#SVGID_59_);" d="M1328.7,756.3c1.5,0.9,3.2,1.9,4.5,2.6h1.3c-0.9-1.2-3.5-3-5.8-4.6
						V756.3z M1319.2,747.5c1.5,1.7,4.1,3.7,6.2,6.1V752c-0.4-0.3-0.7-0.5-0.9-0.7c-1.4-1.4-2.9-2.8-4.9-3.8
						c-0.1-0.1-0.3-0.1-0.4-0.2L1319.2,747.5L1319.2,747.5z"/>
				</g>
			</g>
			<g id="XMLID_94_">
				<g>

						<linearGradient id="SVGID_60_" gradientUnits="userSpaceOnUse" x1="1314.4039" y1="504.6131" x2="1314.1959" y2="482.2141" gradientTransform="matrix(1 0 0 1 0 238.1102)">
						<stop  offset="0" style="stop-color:#B12850"/>
						<stop  offset="1" style="stop-color:#007497"/>
					</linearGradient>
					<path id="SVGID_37_" style="fill:url(#SVGID_60_);" d="M1317.9,728.3c0.3-1.6,0.8-3.3,1.7-4.8c-0.3,0-0.6,0-0.9,0
						c-1.3,0-2.3,0.2-3.4,0.6c-0.8,0.3-1.6,0.6-2.7,1.3c-1.5,0.9-2.7,2.1-3.7,3.4c2.5,2.8,5.1,8.3,6.3,11.1l0.3,0.3l1.2-1.5
						c0.3-1.9,0.4-4.3,1.1-5.1c-0.1-0.3-0.1-0.6-0.2-0.8c0-0.3,0-1.2,0.1-2.5c-2.4-0.4-4.7-0.1-5.9,0.4
						C1313.2,729,1315.5,728.2,1317.9,728.3z"/>
				</g>
			</g>

				<linearGradient id="SVGID_61_" gradientUnits="userSpaceOnUse" x1="1316.8868" y1="499.8305" x2="1307.026" y2="480.6212" gradientTransform="matrix(1 0 0 1 0 238.1102)">
				<stop  offset="0" style="stop-color:#B12850"/>
				<stop  offset="1" style="stop-color:#007497"/>
			</linearGradient>
			<path id="SVGID_36_" style="fill:url(#SVGID_61_);" d="M1315.2,723.4c0.1,0,0.2,0,0.3-0.1c0.3-0.1,0.6-0.1,0.3-0.1h-0.6l0,0
				c-0.1,0-0.1,0-0.1,0h-1.2c-0.7,0-1.5,0-2.2,0.1l0,0c-2.9,0.3-5.5,1.1-7.7,2.4c0.2,0.2,0.4,0.3,0.6,0.5c0.9,0.4,1.7,0.8,2.6,1.3
				c0.1,0,0.1,0.1,0.2,0.1C1309.7,725.5,1312.4,724.1,1315.2,723.4L1315.2,723.4z M1315.2,723.4L1315.2,723.4L1315.2,723.4
				L1315.2,723.4z"/>

				<linearGradient id="SVGID_62_" gradientUnits="userSpaceOnUse" x1="1313.9843" y1="505.1315" x2="1332.7489" y2="480.8556" gradientTransform="matrix(1 0 0 1 0 238.1102)">
				<stop  offset="0" style="stop-color:#007496"/>
				<stop  offset="1" style="stop-color:#5BCAF4"/>
			</linearGradient>
			<path id="SVGID_35_" style="fill:url(#SVGID_62_);" d="M1317.9,733.2c-0.1,0.1-1.1,0.7-1.7,5.8l1.6-1.9c0.2,0.2,0.3,0.3,0.5,0.5
				c0.6-1,1.1-1.8,1.5-1.7c0.1,0,0.3,0,0.5,0c0.7,0,1,0.3,2.4-0.1c0.2-0.2,0.9-0.7,1.5-1.1c-1.2-2.3-3.2-3.6-5.2-4.3
				C1318.5,731.9,1318,733.1,1317.9,733.2 M1320.8,725.2c-0.3,0.9-0.6,1.8-0.9,2.6c0,0-0.1,0.2-0.2,0.6c2.6,0.6,5.1,2.1,6.8,4.6
				c1.7-1.1,3.6-2,5.5-2.5c-2.2-3.3-5.7-5.7-10.3-6.8c-0.2,0-0.4-0.1-0.7-0.1C1321,724.2,1321,724.7,1320.8,725.2"/>

				<linearGradient id="SVGID_63_" gradientUnits="userSpaceOnUse" x1="1322.7181" y1="495.1898" x2="1332.485" y2="495.1898" gradientTransform="matrix(1 0 0 1 0 238.1102)">
				<stop  offset="0" style="stop-color:#00678C"/>
				<stop  offset="1" style="stop-color:#1461AD"/>
			</linearGradient>
			<path id="SVGID_34_" style="fill:url(#SVGID_63_);" d="M1322.7,736c0.5-0.2,1.1-0.3,1.7-0.6c-0.1-0.2-0.2-0.4-0.3-0.5
				C1323.6,735.3,1322.9,735.8,1322.7,736 M1326.5,733.1c0.3,0.4,0.5,0.8,0.7,1.2c1.9-0.9,3.9-1.9,5.2-3c-0.1-0.2-0.3-0.5-0.4-0.7
				C1330.1,731.1,1328.3,731.9,1326.5,733.1"/>

				<linearGradient id="XMLID_6_" gradientUnits="userSpaceOnUse" x1="1316.6572" y1="495.2398" x2="1318.9596" y2="495.2398" gradientTransform="matrix(1 0 0 1 0 238.1102)">
				<stop  offset="0" style="stop-color:#00678C"/>
				<stop  offset="1" style="stop-color:#19469C"/>
			</linearGradient>
			<path id="XMLID_130_" style="fill:url(#XMLID_6_);" d="M1317.5,732.7c0,0.2-1,3.5-0.9,3.8c0.1-0.1,1.2-3.2,1.3-3.4
				c0.1-0.1,0.6-1.3,1-2.6c-0.4-0.1-0.9-0.2-1.3-0.3C1317.5,731.5,1317.5,732.5,1317.5,732.7"/>

				<linearGradient id="XMLID_8_" gradientUnits="userSpaceOnUse" x1="1317.9213" y1="487.8898" x2="1321.0452" y2="487.8898" gradientTransform="matrix(1 0 0 1 0 238.1102)">
				<stop  offset="0" style="stop-color:#00678C"/>
				<stop  offset="1" style="stop-color:#19469C"/>
			</linearGradient>
			<path id="XMLID_89_" style="fill:url(#XMLID_8_);" d="M1317.9,728.3c0.6,0,1.2,0.1,1.8,0.2c0.1-0.4,0.2-0.6,0.2-0.6
				c0.3-0.8,0.6-1.7,0.9-2.6c0.2-0.5,0.2-1.1,0.2-1.6c-0.2,0-0.3-0.1-0.5-0.1c-0.3,0-0.6-0.1-0.9-0.1
				C1318.7,724.9,1318.2,726.7,1317.9,728.3"/>

				<linearGradient id="SVGID_64_" gradientUnits="userSpaceOnUse" x1="1317.629" y1="505.6785" x2="1297.3104" y2="485.7066" gradientTransform="matrix(1 0 0 1 0 238.1102)">
				<stop  offset="0" style="stop-color:#B12850"/>
				<stop  offset="1" style="stop-color:#604B9E"/>
			</linearGradient>
			<path id="SVGID_32_" style="fill:url(#SVGID_64_);" d="M1306,734.6c1.6,0.5,2.7,0.9,3.6,1.6c0.7,0.5,2.8,1.5,2.8,1.5
				s0.2-0.2,0.4-0.5l2.5,3c-0.5-0.9-1.2-2.5-2.2-4.5c-0.3-0.5-1-1.6-1.2-1.8c-0.6-0.3-1.6-2.4-3.5-4.6
				C1307.3,730.9,1306.5,732.7,1306,734.6 M1298.7,730.6c0.3,0.2,0.7,0.5,1,0.8c1.5,0.1,2.6,1.3,3.6,2.1c0.9-2.1,2.2-4,3.7-5.5
				c-0.6-0.6-1.4-1.1-2.2-1.6c0,0-0.4-0.3-0.8-0.7C1301.9,726.9,1300.1,728.6,1298.7,730.6"/>

				<linearGradient id="SVGID_65_" gradientUnits="userSpaceOnUse" x1="1298.6851" y1="495.8898" x2="1312.4495" y2="495.8898" gradientTransform="matrix(1 0 0 1 0 238.1102)">
				<stop  offset="0" style="stop-color:#521A57"/>
				<stop  offset="0.4741" style="stop-color:#5C2250"/>
				<stop  offset="1" style="stop-color:#6D3044"/>
			</linearGradient>
			<path id="SVGID_31_" style="fill:url(#SVGID_65_);" d="M1305.9,734.9c2.2,0.9,4.6,1.8,6.5,2.7l0,0c-1-0.5-3.8-2.2-6.3-3.6
				C1306.1,734.3,1306,734.6,1305.9,734.9 M1298.7,730.6c0.8,0.6,1.6,1.3,1.7,1.3c0.8,0.6,1.8,1.2,2.9,1.8c0.1-0.3,0.3-0.7,0.5-1
				c-0.2-0.1-0.3-0.2-0.5-0.2c-1.2-0.5-2.7-1.8-4.4-2.1C1298.8,730.4,1298.7,730.5,1298.7,730.6"/>

				<linearGradient id="SVGID_66_" gradientUnits="userSpaceOnUse" x1="1304.019" y1="494.7898" x2="1315.38" y2="494.7898" gradientTransform="matrix(1 0 0 1 0 238.1102)">
				<stop  offset="0" style="stop-color:#842447"/>
				<stop  offset="1" style="stop-color:#392663"/>
			</linearGradient>
			<path id="SVGID_30_" style="fill:url(#SVGID_66_);" d="M1308.1,729.7c1.4,1.7,2.6,3.6,3.4,5.6c0.3,0.8,0.7,1.5,1.1,2.1
				c0.1-0.1,0.2-0.2,0.3-0.3l2.5,3c-0.7-1.7-3.7-8.3-6.6-11.4C1308.5,729.1,1308.3,729.4,1308.1,729.7 M1306.8,728.3
				c0.2-0.2,0.5-0.5,0.7-0.7c-0.1,0-0.1-0.1-0.2-0.1c-0.8-0.5-2.1-1.2-3-1.6C1305.2,726.6,1306,727.4,1306.8,728.3 M1304,725.7
				L1304,725.7c0.1,0,0.2,0.1,0.3,0.1C1304.3,725.8,1304.2,725.7,1304,725.7C1304.1,725.7,1304.1,725.7,1304,725.7"/>
		</g>
	</g>
</g>
<title>Group Footprint Copy 3</title>
<desc>Created with Sketch.</desc>
</svg>
