<?xml version="1.0" encoding="utf-8"?>
<!-- Generator: Adobe Illustrator 19.1.0, SVG Export Plug-In . SVG Version: 6.00 Build 0)  -->
<svg version="1.1" id="app_x5F_Dubai-road--parent" xmlns="http://www.w3.org/2000/svg" xmlns:xlink="http://www.w3.org/1999/xlink"
	 x="0px" y="0px" width="1024px" height="576px" viewBox="0 0 1024 576" style="enable-background:new 0 0 1024 576;"
	 xml:space="preserve">
<g id="map-data" style="display:none;">
	<g id="Map_data_1_" style="display:inline;">
		<g>
			<path style="fill:#E0DAD5;" d="M28.9-158.2l9.3-6.7l4.3-3.9l4.2-5.2l12-15.3l14-21.2l7.7-10.5l0.5-3l-2.4-0.6l-0.9-3.2l4.6,0.2
				l2.4-0.5l1-2.8l1.3-4.6l5.4-9.9l4.9-6.2l0.9-3.5l-0.7-11.5l0.6-0.2l1.1,12.6l6.9,8.3l-0.5,1.3l-3.7,3.7l-0.9,3.7l1.9,1.2l6.2-3.6
				l1.8-3.6l3.7-3.4l3-2l2.7-0.2l8.2,1.8l2.1,2l0.6,2.6l-0.3,3.7l-5.3,46.1l-0.3,2.5l1.6,7.4l1.6,2.7l2.6,2.7l5.7,1.3l20.6,2.6
				l1-7.1l-6.9-0.6l-17.4-3.2l-1.4-3.7l-0.2-3.1l0.5-2.9l2.1-2.6l2.2-2.9l4.6-3.1l2.2-1.4l-0.2-1.4l-0.6-2.2l-1.3-1.6l-2.5,1
				l-3.9,0.6l-3.2-4.3l0.2-4.7l1-1.1l1-7.7l0.9-2.1l2.1-1.6l3.9,0.3l2.1,1.6l2.2,4.7l0.5,4.1l-0.9,6.2l4.6,0.5l1-2.7l0.5-3.2l-1-4.7
				l-2.5-5.5l-2.2-2.2l-1-2.2l-3.4-3.7l-1.6-1.6l-1.9-1l0.2-2.5l0.9-2.2l1.3-2.1l2.5-2.2l11.2-5.8l6.3-2.2l4.1-0.3l5,2.5l27.8,16.5
				l2.7-4.1l-27-15.1l-1.1-2.5v-3.6l0.6-2.5l2.7-2.5l2.2,0.2l4,3.2l-1.2,5.2l4.6,2.7l13.1,4.7l6.3,4.6l1.3-5.8l1.6-1.8l2.1-1.3
				l5-0.5l5.2,1l4.2,2.2l2.2,2.2l13.6-8.1l2.7-4.7l-2.9-1.8c-7.4-1.2-14.7-3.4-22.4-3.6H208l-3.6-1.6l-1.8-2.1l-0.2-3.6l-1.3-2.7
				l-10.4-0.6l-0.6-1.6l-2.1-1.3l-2.9-1.3l-2.9-0.6l-7.7,1.1l-1.8,0.5l-2.5,3.2l-0.2,2.2l-13.6,14.9l-21.9,10.7l-16.1-2.7l-6.8,3.6
				l-2.7,0.2l-2.9-1.3l-3.2-3.4l-1-2.7l-0.4-7h1.1v5.3l0.3,2.2l1.3,2.6l8,0.6l3.7-1.8l3.4-2.5l28.3-31.3l18-26.3l8.7-12.5l5.3-7.1
				l1.8-3.4l1.3-6.2l-6.9-4.7l1.1-10l2.7-15.2l0.6,0.2l0.2,3.4l1.9,2.1l4.8,1.6l7.6,3.9l1.3-0.3l0.5-3.7l6.9-12.6l18.5-0.1l5.7,6.4
				l28.7,16l10.7-17.7l-4.1-2.2l-0.6,1.4l-1.4-0.5l-6.6,11.5l-8.7-4.7l5-8.4l-5.9-2.6l-4.3,7.4l-10.7-6.6l1123.9-2.6l1.7,2338.2
				l-3074.2,9.8l0.3-435.5l246.4-243.3l7.7,0.3l3.2-2.4l21-16.6l24-13.6l21.7-15.7l28.3-22.7l42.6-37.4l9.1-10.9l16.1-5.2l13.5-2.6
				l36.1-17.4l4.2-1l1-0.2c7.4-2,13.3-7.1,19.5-11.1l0.6-0.4l0.6-0.4c5.6-3.9,8.6-10.3,13.6-14.7l0.9-0.6l0.6-0.4l0.4-0.2h1.2
				l0.4-0.4v-0.6l0.2-0.2l0.4-0.2l0.2-0.4l0.2-0.4l0.4-0.4l0.2-0.4l0.2-0.2l0.4-0.6l0.4-0.2h0.4l0.4-0.4l1.2-1l1-1.2l0.9-0.9l0.9-1
				l1-1.2l0.4-0.6l0.4-0.6l0.6-0.6l0.6-0.2l0.4-0.4l0.9-0.2l0.4-0.4l0.6-0.6l0.6-0.4l0.6-0.6l0.4-0.2l0.4-0.2h0.9l0.2,0.2l0.2,0.4
				v0.2l-0.2,0.2l-0.2,0.4l-0.2,0.2l-0.4,0.6l-0.4,0.6l-0.2,0.6l0.2,0.2l0.2-0.2l0.4-0.4l0.6-0.9l0.2-0.4l0.2-0.2l0.4-0.2l0.4-0.4
				l0.6-0.4l0.4-0.2l0.4-0.4c1.6-1,2.2-2.9,3.5-4.2l0.2-0.4v-0.4h-0.2v-0.2h-0.2l-0.2-0.2l0.4-0.2c1.6-1.1,3.4-2.2,4.6-4l1-0.6v-0.2
				l-0.2-0.2h-1.4l-0.4-0.4l-0.6-0.2l-0.2-0.2l-0.2,0.2l-0.2-0.2l-0.2-0.2l0.2-0.2l0.2-0.2h0.2l0.4-0.2l0.2-0.4l0.2-0.2l0.2-0.2h0.2
				l0.4-0.2l0.9-0.4l0.6-0.2h0.9l0.2-0.2l0.2-0.4l0.2-0.2l0.2-0.4l0.6-0.2l0.2-0.2h0.2v-0.2l0.2-0.2l0.2-0.4l0.4-0.2l0.4-0.2
				l0.2-0.2l0.4-0.4l0.2-0.4h0.4l0.2-0.2h1.3l0.6,0.2h1l0.2-0.2l0.6-0.2l0.4-0.4l0.9-0.6l0.2-0.2l0.4-0.6c1-2.1,2.5-0.7,4.3-3.1
				l0.4-0.2l0.4-0.6l0.4-0.4l0.4-0.4l0.4-0.4l0.2-0.6l0.2-0.2l0.4-0.4l0.4-0.2l0.4-0.4l0.6-0.2l0.6-0.4l0.6-0.2l0.6-0.4h0.4l0.4-0.2
				h1l0.6-0.4l0.6-0.2l0.4-0.2l0.9-0.4l0.6-0.4l0.6-0.4l0.4-0.2h0.2l0.4-0.6l0.4-0.4l0.2-0.2h0.4l0.6-0.4l0.4-0.2l0.6-0.9l0.9-0.9
				l0.4-0.4l0.6-0.6l0.6-0.6v-0.5l1-1l0.4-0.4l0.2-0.6l0.2-0.2l0.2-0.2l0.4-0.4l0.4-0.4l1-1l0.9-0.9l0.6-0.6l0.9-1l0.4-0.4l0.2-0.4
				v-0.4l0.4-0.2l1.6-1.7l0.6-0.4c0.7-2,4.1-4.2,5.6-5.6l0.9-0.6l1-1l0.9-0.9l1.2-1.2l1-1l1.6-1.7l0.6-0.6l0.4-0.4l0.2-0.4l0.9-0.9
				l0.4-0.2l0.4-0.4l0.2-0.2l0.4-0.4l0.2-0.2l0.2-0.4l0.2-0.2l0.4-0.4l0.4-0.4l0.4-0.2l0.2-0.4l0.2-0.2l0.6-0.6l0.6-0.6l0.4-0.2
				l0.2-0.4l0.4-0.4c1.8-2.2,4-4.2,5.9-6.2l0.4-0.6l0.6-0.6l0.9-0.9l0.6-1l0.9-0.9l0.6-0.9c1.4-1.2,3.5-4.9,5.2-5.4l0.4-0.4l0.9-0.4
				c2.5-1.8,3.3-2.2,5.4-4.6l0.4-0.4l0.2-0.2l1.7-1.7c1.8-1.8,4.7-4.2,6.2-6.2l0.4-0.6l0.4-0.4c2-2,2.2-3.6,4.9-5.2l0.9-0.4l0.4-0.2
				l0.2-0.2l-0.4-0.4h0.2v-0.2h0.2v0.2l0.2,0.2v0.2l0.2,0.4v0.4h0.4l0.2,0.2l1-0.2l0.4-0.2l0.9-0.4l0.9-0.4l0.4-0.4l0.4-0.2l0.6-0.4
				l0.6-0.6l0.2-0.2v0.3l-0.2-0.4l-0.2-0.2v-0.4h0.2l0.2,0.2v0.4l0.2,0.2v0.2h0.2v0.6l0.4,0.2h0.2l0.6,0.4l1,0.2l0.9,0.6l1,0.2h1
				l0.6,0.2h2.9l0.9-0.2l0.6-0.2l0.9-0.4l1.2-0.2l1-0.2h1l0.6,0.2l0.6-0.2l0.9-0.2l1-0.2l1.2-0.4l1.6-0.4l0.9-0.4l1-0.4l1.2-0.4
				l0.6-0.2l1-0.4l1-0.4l0.9-0.2l1.6-0.6l1.4-0.6l0.6-0.2l1.2-0.4l1.2-0.4l1-0.2l1.2-0.2l0.9-0.2l0.6-0.4l0.9-0.4l1.6-1.2l1-1
				l1.2-0.6l1-0.4l1.2-0.4l1.2-0.4l1.2-0.4l1-0.4l1.4-0.6l1.4-0.9l1.4-0.6l2.2-1.4l1.4-0.9l1.2-0.9l0.4-0.4l1.2-0.6h0.2l1.4-1l1-0.6
				l1.9-1l1.4-0.6l1.2-0.6c15.1-4.2,24.6-9.5,37.9-17.4l1.9-0.9l1.6-0.9l2.2-1c4.8-2.9,8.9-5.1,13.2-8.9l0.9-0.6l1-1l0.4-0.2
				l0.2-0.2l0.4-0.4l0.9-0.6l0.9-0.9l0.6-0.4l0.9-0.4l1.6-1.4l0.2-0.2h0.2l0.2-0.2v-3.3l-0.2-0.2l0.2,0.2l0.2,0.2h0.6l0.2-0.2
				l0.4-0.2l0.6-0.4l1-0.9l0.6-0.6l0.6-0.4l0.6-0.4l0.9-0.6l0.6-0.4l0.9-0.6l1.2-1l0.6-0.4c2-1.8,2.6-3.4,5.4-4l0.4-0.4h0.4l0.2-0.4
				l0.2-0.2l0.2-0.2l0.2-0.4l0.2-0.4l0.2-0.6l0.2-0.2v-0.6h0.9v0.2l0.2,0.2v0.2h-0.2v0.4l-0.4,0.4l-0.2,0.6l-0.4,0.9l-0.2,0.4v0.2
				h-0.2v0.2h-0.4l-0.4,0.2l-1,0.2l-0.4,0.2h-0.2l-0.2,0.2h-0.2l-0.2,0.2h0.2l-0.4,0.2l0.2-0.2h-0.4v0.2h-0.2v0.4l0.2-0.2l-0.4,0.6
				l-0.2-0.2l0.4-0.2l-0.2-0.2l-0.4,0.9h-0.2v1h-0.2l0.2,0.2v0.9l0.2,1v0.2l0.2,0.2v0.2l0.2,0.2h0.2l0.4,0.2l0.2,0.2h0.6l0.2-0.2
				l0.2-0.2h0.2v0.6l-0.2,0.2v0.2l0.2,1l0.2,1.2l2.1-0.4l-0.2-0.9l-1.4,0.2l1.4-0.2v-1l-1.2,0.2l1.2-0.2l-0.2-0.6h-1l1-0.2V929
				l0.4,2.9l1.2-0.2l-0.4-2.5v-0.6l-0.2-0.2l0.2-0.2V928l-0.2-0.2v-0.2h-0.2v0.4h0.2h-0.2v-0.4l-0.2-0.4v-0.4l-0.4,0.2v-0.6h0.2
				v-0.6l-0.2-0.6V925h0.2v-0.2h0.4v0.2h-0.2v0.2l0.2,0.2v0.2l0.2,0.2c1.3-0.1,0.2,0.3,1.9,0.2l0.2-0.2h0.4c1.5-0.5,2.7-0.9,4.2-1.7
				l0.2-0.2l0.4-0.4l0.9-0.4l0.6-0.4l0.4-0.4l0.4-0.2l0.2-0.4l0.4-0.4v-0.2l0.2-0.2l0.4-0.4v-0.2l0.2-0.2h0.2l0.4-0.4v-1l-0.2-0.6
				l-0.2-0.6l-0.2-0.6l-0.2-0.6l-0.2-1l-0.2-0.2v-0.2l0.2-0.2v-0.6l0.2-0.6c0.6-1.1,0.5-2.5,1-3.5v-0.4l0.2-0.2V909l0.2-0.2l0.4-0.2
				l0.4-0.4l0.2-0.4l0.9-0.9l0.2-0.2v-0.2l0.2-0.2l0.2-0.4l0.2-0.2h0.6l0.2,0.2v0.4l-0.2,0.2l-0.2,0.2l-0.2,0.4h0.7l-0.2,0.4
				l-0.6,0.4l-0.4,0.6l-0.4,0.4l-0.4,0.2v0.2l-0.2,0.2v0.4l-0.2,0.2v0.4l-0.4,0.9l-0.2,0.9l-0.2,1.2l-0.4,0.6v1l0.2,0.4v0.4l0.2,0.2
				v0.2l0.2,0.9v0.4l0.2,0.2v0.4l0.2,0.2v0.2h0.4l0.4,0.2h0.4l0.2-0.2h0.2v-0.9h0.2l-0.2-0.4l-0.2-0.2v-0.2h0.2v-0.1h0.4v0.6h-0.2
				v0.2h0.4l0.6-0.6l-0.6,0.6h-0.4v0.2l0.2,0.2v0.6l0.2,0.2h1l0.4-0.2h0.6c1-0.1,0.2,0.3,1.4,0.2l0.2-0.2h1.4l0.2-0.2h1.6l0.2-0.2
				l0.4-0.2h0.4l0.2-0.2l0.2-0.2l0.2-0.2l-0.2-0.4h0.2l0.2,0.6h0.4v-0.2h0.2l1-0.2v-0.4h0.2l-0.2-0.4l-1.2,0.4l0.2-0.2l1-0.2l-1-4
				l-1-1.2V911l0.4-0.2v-0.4l-0.2-0.2l-1.2-0.4h-0.4l-0.4-0.2h-1.2l-2.2,0.4h-0.6v0.2h-0.2v0.2h-0.2v-0.2h-0.2v-0.6h0.2v-0.2h0.4
				l2.9-0.4l0.6-0.2h0.6l0.2,0.2l2.6,0.6l0.2,0.2l0.2,0.4l0.2,0.2l0.4,0.4c1.1,1.1,0.6,1.2,1.2,2.6v0.6l0.6,1.9l0.2,1.4l0.2,0.2
				c1.4,0.6,1.7-0.1,2.6,0l0.6-0.2l0.4-0.2l0.4-0.2h0.6l1-0.4l0.9-0.4l0.4-0.2l0.6-0.2l0.2-0.2h0.9l0.4-0.2v-0.6h0.4
				c1.2-1,2.6-2.2,3.7-3.1l0.2-0.2l0.9-0.6c1.6-1.5,3.3-3,4.9-4.6l0.6-0.6l0.4-0.2v-0.2h0.2V905l-0.2-0.2
				c-4.2-10.8-7.9-21.7-12.2-32.5l-2.5-6.4l-0.9-2.2l-0.4-1c-1-2.9-2.6-6.2-3.3-8.9l0.1-0.8l-0.2-0.4l-0.2-0.6l-0.3,0.4v-1l0.9-1.7
				l1-2.5l1.2-2.9l0.4-1h0.2v-0.6h0.2v-0.2h0.4v0.2h0.2v0.9h-0.2v0.2l0,0l-0.4,1l-1.2,2.7l-1.1,2.4c-1.1,2.2-1,1.4-0.4,3.1l0.2,0.4
				l0.2,0.6c1,2.2,1.2,3.3,2.1,5.6l0.6,1.9l0.6,1.2l0.4,1.2l0.9,2.1c2.1,5.5,4.2,10.9,6.2,16.3l0.4,1l1.6,4.3
				c0.6,2.1,0.6,3.1,2.6,3.5l3.3,1.7l2.6,1.2h0.4v0.4l0.9,0.4l1,2.5l3.1,8.5l0.6,1.2l2.5,6.6l1.4,4.3l-0.9,0.2l0.2,0.4l0.9-0.2
				l1.2,3.3v0.9l-0.2,0.6l-0.4,0.2v0.2h0.2l0.9,2.1l1.6,4.6l4,10.1l3.3,8.7l-0.2,0.6v0.2l-4.2,4l-7,6.8l0.2,0.2v0.2l-2.6,2.5
				l0.4,0.2l6.4,6.8l1.4-1.4l1.2-1l6.2,6.4l3.5-3.3c11.7-11.4,23.6-22.7,35.5-33.9l4-3.7h-0.2l-0.4,0.2l0.2-0.4h-0.2h-0.6v-0.2
				l0.2-0.2h-0.4l-0.2,0.2l0.2-0.4l0.2-0.2l1-1v-0.4l0.2,0.2v-0.2l0.2,0.2l-0.2,0.2l0.9,0.6l0.2-0.2v0.4l5.9-5.6l6.4-6.1l8.7-8.5
				l-0.4-0.6l-3.1-3.3l-3.5-3.5l-5.6,5.4c-10.5,9.7-20.7,19.8-31.1,29.5l-2.1,2.1l-9.5-4.2l-3.5-9.7l8.9-8.5
				c11.5-11.3,23.4-22.3,35-33.5h0.2l-4.3-4.6l-5.7-6.2l-5.6,5.4l-1,0.9l-1.6,1.7l-1.9,1.7l-1.6,1.7l-2.9,2.7l-4.2,4l-3.1,3.1
				l-3.7,3.5l-0.4,0.2l-0.6,0.6l-1.2,1.4c-3.7,3.2-7.3,6.8-10.9,10.4h-0.2l-1-0.4l-1,0.9l-5.4-5.7l-0.9-1.9l-1.6-4.6l0.9-0.2v-0.4
				l-0.9,0.2v0.2l-2.1-5.2l-1.4-3.7l0.6-1v-0.9l0.2-0.2l0.2-0.2l0.6-1.2l1-1.4l0.6-1.2l0.4-0.6l0.6-1v-0.2h-0.1v-0.4h-0.2l-0.2-0.6
				v-0.4l-0.2,0.2v-1.4l-0.2,0.2h-0.2v-0.2h0.5l-0.2-0.2v-0.2h-1v-0.2h-0.6v-0.2l-0.9-2.2l0.4-0.4v-0.2l0.2-0.2l0.2-0.2v-0.4
				l-0.2-0.2l-0.2,0.2h0.2h-0.2l-0.2-0.2h0.4v-0.2l-0.2-0.2v-0.2l-0.2-0.4v0.2h-0.1l-0.2-0.2h0.4v-1h-0.2v-0.2h0.2l-0.4-0.6
				l-0.2-0.6l-0.2,0.4v-0.2l0.2-0.2h-0.9v-0.2h-0.6l-0.4-0.9l-0.4-1.4v-0.2l0.4-0.4v-0.4h0.2l0.2-0.2v-0.2l-0.2,0.2l-0.2-0.2
				l0.4-0.2l-0.2-0.2v-0.2l-0.4-0.6h-0.2v-0.2h0.2v-0.2l-0.4-0.9l-0.4-1.2l-0.2-0.4l-0.2-0.9V864l-0.2-0.1l-0.2-0.2v-0.3l-0.2-0.4
				v-0.2l-0.2-0.4l-0.2-0.6l-0.4-0.6l-0.2-0.6l-0.4-1l-0.2-0.6c-1.6-4.6-3.5-8.9-5.2-13.4l-0.2-0.9l-0.2-0.4h-0.2v-0.2h-0.2l0.1,0.1
				l-2.1,0.2l-1,0.2l-1.4,0.4h-0.4l-0.4,0.2h-0.9v0.2h-0.6v-0.2h-0.2v-0.4h0.2v-0.2h0.3l0.6-0.2h0.6l0.2-0.2h1.1l1-0.2l1-0.2
				l2.5-0.4l0.6-0.2h0.4l1.2-0.2l1-0.2l2.9-0.6l1.6-0.2l3.1-0.6l2.1-0.4l2.6-0.6l1.4-0.2l1.6-0.4h1l2.2-0.6
				c3.6-0.4,8.1-1.7,11.7-2.1h2.1l0.4,0.2h0.4l1.7,0.2h0.6l0.9,0.2l0.9,0.2h0.2l0.4,0.2v0.2l0.4,0.2l0.4,0.2l0.2,0.2h-0.4l0.2,0.2
				l0.2,0.2l0.9,0.9l0.9,0.9l0.2,0.2l0.4,0.4l0.4,0.6l0.6,0.6l0.4,0.2l0.4,0.4l0.4,0.4l0.2,0.4l0.4,0.4l0.4,0.4
				c1.3,1.8,2.5,2.8,4,4.3l0.4,0.4l0.2,0.4h0.9l0.4-0.2h0.4l0.4-0.2l0.6-0.4l0.4-0.2l0.6-0.2l1.2-0.6l0.6-0.2l0.4-0.4l1-0.4l0.4-0.2
				l0.6-0.2l0.9-0.6l0.4-0.2l0.6-0.4l0.9-0.6l0.6-0.4l0.4-0.4c1.4-0.6,3.3-2.5,4.6-3.3l0.6-0.6l0.9-0.6c1-0.9,2.2-2,3.1-2.9l0.2-0.2
				v-0.2l-0.2-0.4h0.2l0.2,0.4l0,0c1-1.2,1-0.4,1.4-1.4l0.2-0.2h-0.2l-0.2-0.2v-0.2h0.4l0.2,0.2h0.2v-0.2h0.2l0.2-0.2h0.2v0.2h0.4
				v-0.1l0.2-0.4l0.6-0.4l0.4-0.4l0.2-0.4l0.4-0.2l0.2-0.2l0.6-0.4l0.2-0.4l0.4-0.4l0.2-0.2l0.4-0.4l0.9-0.9l0.4-0.6
				c1-0.9,3.7-3.7,4.6-4.7v-0.2l0.2-0.2l-0.2-0.2l-0.4-0.4l0.6,0.4h0.2c0.5,0.1,1-1,1.2-1.2l0.4-0.6l0.4-0.6l0.2-0.4l0.2-0.6
				l0.2-0.2l0.2-0.4v-0.2l0.2-0.4v-0.4h0.2V818l-0.4-0.2l-0.9-0.9l-1.6-1.2l-1.4-1.2l0,0v-0.2h-0.2v-0.4h-0.2V813v-1.7V811h0.2v-0.4
				h0.2v0.1h0.2v-0.2h0.4v-0.2h1.2l0.2,0.2h0.2v0.2h0.2l1.2,1h0.4v0.6l-0.2,0.2h-0.2v-0.2h-0.2v-0.2h-0.2V812h0.2l-1-0.9v-0.2h-0.4
				l-0.2-0.2h-0.4v0.2h-0.4v0.2h-0.5v0.2h-0.2v0.4h-0.2v0.6l0.2,0.2v0.2h0.2v0.2l1.2,1l0.4,0.2h0.2v0.2l0.2-0.2h0.2l-0.2,0.2
				l0.4,0.2l0.2,0.2l0.9,0.4h0.2l0.6,0.2l0.4,0.2h0.4l0.4,0.4l0.4,0.2h0.4l0.6-0.2h0.4l1-0.4l0.6-0.2h0.2l0.2-0.2l0.4-0.4l0.2-0.2
				l0.4-0.4l-0.6-0.6l1.2-1.7l0.4,0.4v0.4l0.2-0.2h0.4l0.2-0.2l0.2-0.4l0.4-0.2l0.4-0.4l0.4-0.2l0.2-0.4l0.6-0.4l0.2-0.2v-0.2h0.2
				l0.2-0.4c1-0.9,0.6-0.9,1.2-1.4l0.2-0.4h0.2v-0.4l0.2-0.2l0.2-0.2v0.2l0.2-0.2h0.2l0.4-0.2l0.4-0.4l0.9-0.9l0.4-0.4l0.4-0.4
				l0.2-0.4l0.2-0.2v-0.2l0.2-0.2l0.4-0.4l0.4-0.6l0.4-0.4l0.4-0.6l0.4-0.6l0.4-0.6l0.6-0.6l0.6-0.9l0.2-0.4l0.2-0.4l0.2-0.2
				l0.4-0.2l0.2-0.2l0.2-0.2c0.9-0.7,0.3-0.6,1.4-1.7l0.4-0.4l0.2-0.4l0.4-0.4l0.2-0.2l0.2-0.4l0.2-0.4c1-1.2,0.9-0.9,1.9-2.1
				l0.6-0.6c1-0.9,0.2-0.9,1.4-1.9l0.2-0.2l0.2-0.4l0.2-0.2l0.2-0.2c0.7-0.6,0.3-0.6,1.2-1.4l0.4-0.4c0.4-1,0.6-1,1-1.9l0.2-0.2
				v-0.2l-0.2-0.2h-0.2v-0.2h-0.2l-0.2-0.2v-0.2h-0.2l0.2-0.2h0.4v0.2l0.2,0.2c0.6,0.9,0.6,0.4,1.4-0.4l0.2-0.2l0.2-0.4
				c0.7-0.7,0.9-1.5,1.9-2.2v-0.4h-0.2l-0.2-0.2h-0.2V779h0.4l0.2,0.2h0.2v0.2l0.2,0.2h0.2c1.7-1.3,2.7-2.6,4.2-4.2l0.2-0.2v-1.1
				l0.2-0.2l0.4-0.4l0.2-0.2l0.2-0.2V773l0.4-0.4v-0.4l0.2-0.2l0.4-0.2l0.2-0.4l0.4-0.6l0.2-0.4l0.2-0.4l0.2-0.2l0.4-0.4h0.2
				l0.2-0.2l0.2-0.2c0.4-0.6,0.5-1,1-1.4l0.4-0.4l0.2-0.2h0.2l0.2-0.2l0.2-0.2l0.2-0.2l0.2-0.4l0.4-0.4l0.2-0.2l0.2-0.2l0.2-0.4
				l0.4-0.4l0.2-0.2l0.2-0.2l0.2-0.2l0.2-0.2l0.4-0.2l0.2-0.4l0.4-0.6l0.4-0.4l0.2-0.2l0.2-0.2l0.4-0.4l0.2-0.2l0.2-0.2l0.2-0.4
				l0.4-0.4l0.4-0.4l0.2-0.4l0.4-0.2v0.7l0.2-0.2v-0.3l0.2-0.2l0.2-0.2l0.2-0.2h0.4l0.2-0.2l0.4-0.2V758l0.4-0.4l0.2-0.2l0.2-0.4
				l0.2-0.2l0.2-0.2l0.4-0.4l0.4-0.4l0.4-0.4l0.2-0.4l0.6-0.4l0.2-0.4l0.2-0.4l0.4-0.4l0.2-0.4l0.2-0.2l0.2-0.2h0.2v0.1l0.4-0.2
				l0.2-0.2l0.4-0.4l0.6-0.6l0.2-0.4V749l0.2-0.2l0.4-0.4c0.4-0.4,0.6-0.6,1-1l0.2-0.4l0.2-0.2l-0.2-0.2l-0.2-0.2h0.2l0.2,0.2h0.2
				l0.2,0.2h0.2l0.2,0.2l0.6,0.4l0.2-0.4l-0.2-0.4v-0.2h0.2l-0.2-0.2l-0.2-0.2l-0.4-0.4l-0.4-0.2v-0.2l0.2,0.2h0.2l0.2,0.2l0.2,0.2
				l0.4-0.4l0.4-0.2l0.2-0.2l0.4-0.9l0.4-0.4l0.4-0.4l0.4-0.6l0.9-0.9l0.4-0.6l0.6-0.6l0.4-0.4l0.2-0.4v-0.2l0.2-0.2l0.2-0.2
				l0.4-0.2v-0.6l0.4-0.2l0.2-0.2c0.3-0.5,0.4-0.9,0.9-1.2l0.6-0.9l0.4-0.4c0.6-0.7,1.2-1.5,1.9-2.2l0.2-0.2l0.2-0.4h0.2l0.2-0.4
				l0.6-0.6h0.2l0.4-0.4v-0.2l0.2-0.4v-0.2l0.2-0.2l0.2-0.2v-0.2h0.2c0.9-0.7,2.7-3.6,3.5-4.2l0.2-0.2l-0.2-0.2v-0.2l0.2-0.2
				l0.2,0.2l0.2-0.2l0.2-0.2l0.4-0.6l0.2-0.2l0.9-0.9l0.2-0.2l0.2-0.4l0.4-0.2V722c0.4-0.6,2.9-3.7,3.5-4h0.2l-0.4-0.2l-0.2,0.2
				v-0.2l0.2-0.4l0.2-0.2h0.2v0.6l0.2-0.2v0.3c0.6-0.6,1.5-1.7,2.1-2.5l0.2-0.4l0.6-0.6c0.2-0.6,1-1,1.4-1.4v-0.4h-0.2l0.4-0.4
				l0.4,0.4l1-1.2l1-1.2l1.4-1.4l1.2-1.9l-0.2-2.5h3.5v-0.2h-2.6V704h-0.2l0,0h-0.2v-0.2h-0.2v-0.2h-0.4v-0.2h-0.2v-0.2h-0.2v-0.1
				h-0.4V702h-0.2v-0.2h-0.2v-0.2h-0.2v-0.1h-0.2l-0.2-0.2h-0.2v-0.2h-0.2v-0.2h0.1v-0.2h-0.2v-0.2h-0.2v-0.2l0,0V700h-0.2l-0.2-0.2
				h-0.4v-0.2h-0.2v-0.2h-0.2V699h-0.2v-0.2h-0.2v0.1h-0.2v-0.2h-0.2v-0.2h-0.2v-0.1h-0.2v-0.2h-0.1V698h-0.2v-0.2h-0.3v-0.4h-0.2
				V697h-0.2v-0.2h-0.2v-0.4h-0.2V696l-0.2-0.2v-0.4l-0.2-0.2v-0.9h-0.2v-2.1l0.2-0.2v-0.9h0.2v-0.6h0.2v-0.2h0.2v-0.4h0.2v-0.4h0.2
				v-0.2h0.2v-0.5l0.2-0.2v-0.2h0.2l3.1-3.5v-0.2h0.2v-0.2l0.2-0.2h1v0.2h0.2v0.4h0.2v0.4h-0.2v0.4h-0.1v0.2h-0.2l-3.1,3.5l-0.2,0.2
				v0.2h-0.2v0.2h-0.3v0.4h-0.2v0.4h-0.2v0.4h-0.2v0.9h-0.2v0.2v1.7v0.2h0.2v0.9h0.2v0.4h0.2v0.4h0.2v0.4h0.2v0.2h0.2v0.2h0.2v0.2
				h0.2v0.2h0.2v0.2l0.2,0.2h0.2v0.4h0.2l0.2,0.2l0.4,0.4v0.2h0.2l0.4,0.4h0.2v0.2h0.2v0.2h0.2v0.2h0.2v0.2h0.2v0.2h0.2v0.2h0.2v0.2
				h0.2v0.2h0.2v0.2h0.2v0.2h0.2l0.2,0.2l0.2,0.2h0.2v0.2h0.2v0.2h0.2v0.2h0.2v0.2h0.4v0.2h0.2v0.2h0.4v0.2h0.2l0.2,0.2h0.2l0.2,0.2
				h0.4v0.2h0.4v0.2h0.4v0.2l3.5,2.7h0.2v0.2h0.2v0.2h0.4v0.2h0.4v0.2h0.6v0.2h0.2l6.4,1.9h0.4v0.2h0.2v0.2h0.2v0.2h0.2v0.2h0.2v0.4
				h0.2v0.2h0.2v0.2h0.2l0.2,0.2h1v0.2h0.4v0.2h0.2v0.2h1v0.1h0.4v-0.2h0.2v-0.2h0.2v-0.2l0.2-0.2V711h0.2v-0.2v-2.2v-0.2h0.2V708
				l0.2-0.2l2.6-3.1l1-1v-0.2h0.2v-0.2h0.4v0.7h0.9v0.2h0.2h1h0.2V704h0.9v-0.2h0.6v-0.2h0.2v-0.2h0.4V703h0.2v-0.2h0.2v-0.4h0.2
				v-0.2h0.2V702h0.4v-0.4h0.2v-0.4h0.2v-0.6h0.2V700l0.2-1.9v-0.4h0.2v-0.6h0.2v-0.6h0.2v-0.2l0.2-0.2v-0.2h0.2v-0.2h0.2v-0.2h0.2
				v-0.2h0.2v-0.1h0.2V695h0.2l0.2-0.2h0.2v-0.2h0.4v-0.2h0.9V694h0.2h1.4h0.2v0.2h0.9V694l0.2-0.2v-0.6l-0.2-0.2v-0.5h-0.2v-0.2
				V691v-0.2h0.2v-0.4h0.2v-0.2h0.2V690h0.2v-0.2h0.2v-0.2h0.4v-0.2h0.4v-0.2h0.2v-0.5h0.2v-0.1h0.2v-0.2h0.4v0.2l0.6,0.2h0.4v-0.2
				h0.2V688h-0.2v-0.2l-1.2-0.9h-0.4v-0.2h-0.2v-0.9h0.2v-0.2h0.4v-0.2h0.9v-0.2h0.4V685h0.2v-0.4h0.2V684h0.2v-0.2l1.4-1v-0.2h0.4
				l0.2-0.2v0.2h0.6v0.2l0.4,0.4v0.2h0.6v-0.1l0.4-0.2v-0.9h0.2v-0.4h0.2v-0.2h0.2v-0.2h0.2v-0.2h0.4v-0.4h0.2v-0.2h0.2v-0.4h0.2
				V680h0.4v-0.2h0.2v-0.2h0.4v-0.2h0.4v0.2h0.4l0.2,0.2v0.2h0.6v-0.2l0.2-0.2v-0.2h0.2v-0.2h0.6V679l-0.2-0.2h-0.2v-0.6h0.2
				l1.9-2.2h0.2v-0.2h1l0.2,0.2l0.2,0.2h0.6V676h0.2v-0.5h-0.1v-0.2l-0.2-0.2v-0.4l0.6-1.2l0.2-0.2v-0.2h0.2v-0.2h0.4v-0.2h0.2
				c2-0.6,1,0.1,2.2,0h0.2v-1h-0.2v-0.9h0.2v-0.1h0.2v-0.2h0.2v-0.4h0.2v-0.2h2.2v-0.4h-0.2v-0.7h0.2v-0.4h-0.2V668h-0.2v-0.2h-2.5
				v-0.2h-0.2l-0.4-0.4v-0.6h0.2v-0.2h0.6v-0.2h0.4V666h0.2v-0.6h-0.3v-0.2h-0.6v0.2h-0.4v0.2h-0.6v-0.2h-0.6v-0.2h-0.2V665h-0.2
				h-1.1h-0.2v-2h-0.2v0.4h-0.6l-0.2,0.2v0.2h-0.2v0.4h-0.1v0.2h-0.2v0.2h-0.2v0.2h-1.2v-0.2h-0.4v-0.2l-0.4-0.4l-4.9-4.3h-0.2v-0.6
				l0.4-0.4l0.4-0.4l0.2-0.2v-0.2l0.2-0.2v-0.2l-0.2-0.2l0.2-0.2v0.2h0.2v-0.6l-1-0.6l0.2-0.2l0.4-0.6l-1.4-1l-0.4,0.6h-0.2l1.2-1.4
				l-0.6,0.6l1.4,1.2l0.6-0.6l0.6,0.2l0.2-0.2h0.2v-0.2h-0.2l-0.4-0.4h0.2h-0.1l-0.2-0.2v0.2l-0.6-0.4l0.6,0.4l0.2-0.4l-0.6-0.6
				l0.6,0.6l0.4-0.4l-0.6-0.6l0.6,0.6v-0.2h0.2l-0.6,0.9l0.2,0.2h0.2l0.2,0.2l0.6,0.4l0.2-0.2l0.2-0.2h0.2v-0.2l0.2-0.2v-0.1
				l-0.4-0.2l0.2-0.2v-0.2l0.4,0.2h0.2l0.2-0.2l0.4-0.4l0.2-0.4l0.2-0.4l0.2-0.2l0.2-0.2V651l0.2-0.2l-0.2-0.2l-0.2-0.2l-0.4-0.4
				l-0.4-0.2v0.2l0.2,0.2l-0.2-0.2l-0.4,0.4l0.2-0.4v-0.2h0.2v-0.2l-0.2-0.2h-0.2l-0.4-0.4h-0.2v0.1h-0.2l-0.2,0.2l0.6,0.6l-0.9,1
				l0.2,0.2h-0.2l-0.4-0.4l0.2,0.2l1-1l-0.9-0.6l-1.4,1.7l1,0.9l-0.2,0.4h-0.2l0.4-0.4l-0.4-0.2v0.2l-0.2,0.2l0.2-0.4l-0.4-0.4
				l-0.2,0.4l0.2-0.4l-0.2-0.2l-0.4,0.4l0.2-0.4l-0.2-0.4l-0.4,0.4l0.2-0.4l-0.2-0.2l-0.4,0.4v-0.3l0.4-0.4l0.9,0.9l0.2-0.2
				l-0.4-0.4l0.4,0.2l0.2-0.2l-0.4-0.4h0.2l0.4,0.4l0.2-0.4l-0.4-0.2l0.4,0.2l0.6-0.6l-0.2-0.4l0.4,0.4l0.2-0.2v-0.2l-0.4-0.2
				l-0.4-0.2l-0.2-0.2h-0.2l-0.2-0.2h-1v0.4h0.3v0.2h0.4l-0.4,0.4l0.2-0.2l-0.2-0.2l-0.2,0.2h-0.4v-0.2l0.2-0.2l0.2-0.2l0.2-0.2v-1
				l0.2-0.2h1.2l-0.2-0.4l-0.9-1.9l-0.4-0.4l29.9-25.9v-0.2h0.4l0.4,0.4l0.2-0.2h0.2l0.2-0.2v-0.4l0.4-0.9l0.2-0.2l0.2-0.2v-0.2
				l0.2-0.2l0.4-0.4v-0.2h0.2V615l-0.6-0.6l-1-1V613l-0.2-0.4V612l0.2-0.4v-0.2l0.4-0.9l0.4-0.6l0.2-0.6l0.4-0.6l0.2-0.6l0.2-0.6
				l0.2-0.2v-0.9h0.2v-0.2h0.6v0.4h0.2h-0.2v0.4l0,0v0.2h-0.2v0.2l-0.2,0.2l-0.2,0.4l-0.2,0.9l-0.4,0.6l-0.4,0.6l-0.6,1l-0.4,0.6
				v0.4l-0.2,0.2v0.4l0.2,0.2v0.4l0.2,0.2l0.2,0.4l0.4,0.4l0.4,0.4l0.6,0.4h0.2l0.2,0.2l0.2,0.2l0.2-0.2h0.2l0.2-0.2h0.2v-0.2
				l0.6-0.6v-0.4l0.2-0.2l0.6-0.6v-0.2l0.2-0.4V612h0.2v-0.2l-0.4-0.2v-0.2l0.2,0.2h0.2l-0.4-0.2l-0.2-0.2l-0.4-0.4l-0.2-0.2h-0.2
				l-0.2,0.2l0.2,0.2l-0.2,0.2l-1.2-1.2l1,0.9l0.2-0.2h0.2l-0.6-0.6v0.2l-0.2-0.2v-0.4h-0.2v-0.2h-0.4V609h0.2v-0.2h0.4v0.2h0.2v0.4
				l0.2,0.2l0.9-1h0.2l-1,1l0.4,0.4l0.6,0.6h1.4l0.6-0.2l0.4-0.2l0.2-0.2l0.4-0.2l0.4-0.2l0.2-0.4l0.6-0.6l0.2-0.2l0.4-1V607
				l0.2-0.4v-1l0.2-0.4v-0.4l-0.2-0.6v-0.9l0.2-0.2h0.2l0.2-0.2h0.9l0.6-0.2c1.5-0.5,3.3-1.1,4.2-2.7l0.2-0.2l0.2-0.4l0.2-0.4
				l0.2-0.2v-1.2l-0.9-0.9l-1-0.9h0.1l-0.4,0.2l-0.6,0.2l0,0l0.2-0.2l0.6-0.2l0.2-0.2h0.2v-2.5l0.2-0.9v-1l0.2-1.2v-0.5l0.2-0.2
				v-0.2l0.2-0.2v-0.2l0.4-0.2l0.2-0.6l0.2-0.2l0.2-0.2l0,0h0.4l0.2,0.2v0.2l-0.2,0.2l-0.2,0.4l-0.2,0.2l-0.6,0.6l-0.4,0.4v0.2
				l-0.2,0.6v0.9l-0.2,1.4v1.4l-0.2,0.6l0.2,0.2v0.4h2.9l0.4-0.2h0.2l0.4-0.2l0.2-0.4l0.4-0.2l0.2-0.4l0.2-0.2l0.9-1l0.4-0.6
				l0.4-0.4l0.4-0.6l0.4-0.4v-0.4l0.2-0.4v-0.4l0.2-0.4l-0.2-0.2l-0.2-0.2l-0.2-0.2h-0.2l-0.2-0.2h-0.4l-0.2,0.2h-1l-0.2,0.2h-0.2
				v0.2l-0.4,0.2l-0.2,0.2l0.2,0.4l0.2-0.2l0.2,0.2l-0.6,0.2l0.2-0.2l-1-0.2v-0.2l-0.2,0.2h-0.2v0.2h-0.2l-0.2,0.2l0,0v-0.2h-0.2
				v-0.4h0.2l0.2-0.2h0.2l0.2-0.2l0.4-0.2l0.2-0.2h0.2l0.4-0.2l0.2-0.2h0.4V588h1.6l0.2,0.2l0.4,0.4l0.4,0.2l0.2,0.4h0.6v-0.4
				l0.4-0.2h0.2l0.2-0.4l0.4-0.4l0.4-0.4l0.4-0.2l0.2-0.4l0.2-0.2l0.4-0.4l0.4-0.4l0.2-0.4l0.2-0.4l0.4-0.4l0.2-0.4l0.2-0.4l0.6-0.6
				l0.2-0.4l0.2-0.2l0.4-0.2l0.4-0.4l0.2-0.4l0.4-0.4l0.2-0.4l0.2-0.2l0.2-0.4l0.2-0.4l0.4-0.4l0.4-0.2l0.4-0.4c0.7-1.2,2-2.5,2.6-4
				l0.2-0.4l0.2-0.4c1.3-1,2.2-2.4,3.1-3.7l0.6-0.9l0.4-0.4l0.2-0.6l0.4-0.4l0.4-0.4l0.2-0.4c1.3-1.3,2.5-2.7,3.7-4.2l0.6-0.9
				l0.6-0.1l0.4-0.4l0.4-0.4l0.2-0.4l1.4-1.4l0.4-0.9l0.4-0.4l0.2-0.4l0.4-0.4l0.2-0.4l0.4-0.4l0.2-0.4l0.2-0.4l0.4-0.2l0.2-0.4
				l0.4-0.2l0.6-0.6l0.4-0.4l0.4-0.6l0.2-0.4l0.4-0.6v-0.2l0.4-0.4l0.4-0.2l0.4-0.6l0.9-0.9l0.4-0.4l0.6-0.6l0.4-0.6l0.4-0.6
				l0.4-0.6l0.4-0.4l0.4-0.4l0.2-0.4l0.4-0.4l0.4-0.2v-0.2c1.5-2.2,2.6-3,4.2-5.6l0.2-0.4l-3.1-2.7l-0.2,0.4v-0.2l0.4-0.4l-0.2,0.2
				l1.9,1.4l0.9,0.9l0.6,0.4l0.4-0.6l1-1.2l0.4-0.6c0.9-0.7,1-1.3,2.1-2.2l0.4-0.9l0.6-0.4c0.7-0.7,1.8-2.6,2.5-3.5l0.4-0.6l0.4-0.4
				l0.9-1l0.4-0.6c0.3-0.4,1.9-3.1,1.9-3.5v-1c-0.1-0.6-0.6-1-1-1.4V521l-1.4-1.4l-0.2,0.2l-0.2,0.2l-0.4,0.2v0.2h-0.4l-0.2,0.2
				h-1.1v-0.2h-1.1v-0.2h-0.2v-0.4l-0.2-0.2V518l-0.4-0.9l-0.2-0.4v-0.4l-0.2-0.2v-0.5l0.2-0.2v-0.2h0.2l0.2-0.2h0.9l1,0.2h1
				l0.2,0.2h0.4v0.2h0.2v0.2l0.2,0.2v0.6l-0.2,0.2v0.6h-0.2v0.6l0.4,0.4l0.4,0.4l0.6,0.6l0.4,0.4v0.2h1l0.4-0.2h0.9l0.2-0.2l0.4-0.2
				l0.4-0.2l0.4-0.2l0.6-0.4l0.2-0.2l0.4-0.2l0.2-0.2l0.2-0.2l0.2-0.2v-0.2l0.2-0.2V517l0.2-0.4l0.2-0.4v-0.3l0.2-0.6v-0.9h-0.2
				v-0.2h-0.4c-2.2-0.6-2.6-0.7-3.5-2.9l-0.2-0.6v-0.5c-0.1-2.2,0.5-3.3,1.6-5v-0.4h0.2v-0.2h0.6v0.2h0.2v0.6h-0.2v0.2h-0.4v0.2
				l-0.4,0.2l-0.2,0.4v0.2c-0.5,0.6-0.7,1.3-0.9,2.1v0.4c0.1,0.7-0.3,1.9,0.4,2.5l0.2,0.6l0.4,0.4l0.4,0.2l0.4,0.2l0.2,0.2l0.4,0.2
				h0.4l0.2,0.2h0.4l0.4,0.2h0.4l0.2-0.2c0.9-0.5,1.7-1,1.6-2.1V511h0.2v-0.2h-0.2v-0.2l-1,0.5l-0.2-0.2l1-0.6h2.2h0.2V510h-0.2
				v-0.2l-0.2-0.4h-0.1v-0.2l-1.3,0.8l0.2,0.4l-0.2-0.4l1-1v-0.2l-0.4-0.1l-0.2-0.2h-0.4l-0.2-0.2h-0.2l-0.6,1.2l0.2,0.2h-0.2
				l0.6-1.7h-1.4v-0.2h-0.5v-0.2h0.2l0.2-0.2l0.3-0.4h0.2l0.2-0.2l0.4-0.2h0.2v0.2h0.2v0.4h-0.4l-0.2,0.2l0.2,0.2h0.4v0.2h0.2
				l0.4,0.2h0.2l0.2,0.2l0.2,0.2h0.2v0.2l0.2,0.2h0.4l0.6-0.4l0.4-0.2l0.6-0.2l0.9-0.6l0.4-0.2l0.2-0.2l0.6-0.9c1.5-1.3,2.6-3.3,4-5
				l0.4-0.6v-0.2h0.2l0.2-0.2h0.2v-0.6l0.2-0.2l0.6-1l0.4-0.4l0.6-1l0.4-0.6h0.2l0.2-0.6l1-1.7l0.4-0.4l0.2-0.6l0.4-0.9l0.2-0.9
				l0.2-0.6l0.2-0.9V489l-0.2-0.4V488l-0.2-0.2l-0.2-0.4h-1.2l-1,0.2h-0.3v0.2h-1v-0.9h0.2h2.5h0.4v-0.4l0.2-0.2V486l0.6-0.6
				l1.2-1.7l0.4-0.6l0.2-0.4h0.2v-0.4c0-1,0.6-1.9,0.4-2.9l0,0h0.2v-0.2h0.4v0.2h0.2v0.4h-0.2v0.2h-0.2v0.6l-0.2,0.9l-0.2,1v0.4
				l-0.3,0.1l-0.2,0.6l-0.9,0.9l-0.2,0.4l-0.6,0.9l-0.6,0.6v0.2l0.2,0.4l0.9,0.4l0.4,0.4l0.2,0.2h1.4v-0.1l0.4-0.2v0.2h0.2v0.2h0.4
				l0.9-0.4l0.4-0.4l0.2-0.4l0.4-0.4l0.4-0.6l0.6-1.4v-0.9l-0.4-0.2l-0.2-0.2l-0.2-0.2l-0.6-0.4l-0.2-0.2h-0.9l-0.2,0.2l-0.2,0.2
				h0.6l-0.2-0.2v-0.2l0.2-0.2l0.4-0.2l0.4-0.2h0.6l0.6-0.2l0.2-0.2h0.4v0.2l-0.4,0.2l-0.6,0.2v0.2l0.4,0.2l0.4,0.2
				c0.9,1.1,3-0.1,3.5-0.9l0.4-0.4l0.9-1c0.6-1.1,2.2-3,3.1-4.2l0.4-0.6l0.2-0.4h0.4l0.2-0.4v-0.2l0.2-0.4c2-2.7,3-6.3,5.6-8.7
				l0.4-0.4l0.6-1l0.6-0.6l0.2-0.4l0.2-0.6l0.4-0.4v-0.2l0.4-0.4l0.6-0.9l0.4-0.6c0.7-1.4,1.9-3.6,3.1-4.6l0.4-0.4l0.4-0.9l0.2-0.6
				l0.2-0.4l0.4-0.2l0.4-0.4c0.9-0.6,1-1.3,1.2-2.2l0.4-0.4l0.2-0.4l0.4-0.4l0.2-0.4l0.4-0.4l0.2-0.6l0.2-0.4l0.4-0.4l0.2-0.4
				l0.2-0.4l0.4-0.6l0.4-0.4l0.6-0.6l0.2-0.6l0.4-0.4l0.2-0.4l0.4-0.9l0.2-0.6l0.6-0.9l0.6-0.9l0.4-0.6l1-1.4l0.2-0.4l0.2-0.4
				l0.2-0.2v-0.6l0.2-1.4v-1.4l-0.2-0.4h-2.5v0.2h-0.6v-0.2h-0.2v-0.6h0.2v-0.2h3.1l0.6,0.2h0.2l0.2,0.2v-0.2l-0.2-0.6V430l0.2-0.2
				l0.4-1l0.2-0.4l0.6-1.9l0.6-1l0.2-0.2l0.2-0.4h0.2l0.2-0.4l0.4-0.6l0.6-0.9l0.6-0.9v-0.2h0.2v-0.2h0.2v0.2h0.2v0.4h0.6l-0.2,0.2
				l-0.4,0.6l-0.6,1l-0.4,0.2l-0.2,0.4v0.2h-0.2v0.6h-0.7l-0.4,1l-0.4,1.2l-0.6,1l-0.2,0.6l0.2,0.2v0.4l-0.2,0.2v0.2l0.2,2.2
				l0.2,0.2l0.2,0.2l0.2,0.2l0.2,0.2l0.2-0.4l0.4,0.2l-0.2,0.2l0.4,0.4h0.9l0.4-0.2l0.4-0.4l0.6-0.6l0.9-0.9l0.6-0.9l0.6-1l0.9-1.2
				l0.4-0.6l0.4-0.6v-0.6h0.4l0.4-0.9v-0.4l-0.2-0.2h-0.2V425l-0.2,0.2h0.2l-0.2,0.2l-0.4-0.6l0.4,0.4l0.2-0.2l-0.4-0.2l-0.2-0.2
				l-0.2,0.2l-0.2,0.4h-0.4l0.4-0.4l0.2-0.2h-0.4l-0.2-0.2l-0.4-0.2v0.2l0.2,0.2l-0.6,1.4h0.2h-0.4v-0.2l0.2,0.2l0.4-1.4l-0.9-0.2
				l-0.2,0.9l-0.4,0.9h0.2h-0.4V426l0.2,0.2l0.6-1.9l-1-0.2l-0.9,2.2l1,0.2l-1-0.2l0.9-2.5l0.6,0.4l0.2-0.2l-0.4-0.2h-0.4v0.2
				l0.2-0.2h0.2v0.2h0.9v-0.2h0.2v-0.2h0.4V423l0.2-0.2h0.2v0.4h-0.2v0.2h0.2l-0.2,0.2v0.2l0.2,0.2v0.2h0.2l0.2,0.2h0.4l0.4,0.4
				l0.4,0.2l0.2,0.2l0.2-0.2h0.4l0,0h0.2l-0.6-0.6v-0.2l0.2,0.2l0.2,0.2l0.4,0.4h0.2l0.4-0.2l0.4-0.2l1.4-1.4c0.7-1,1.5-2.1,2.2-3.1
				l0.4-0.6l0.4-0.4l0.6-1l0.4-0.4l0.6-1l0.2-0.4l0.4-0.6l0.9-0.9l0.2-0.4l0.4-0.4l1-1.7l0.4-0.9V411l-0.2-0.2h-0.5v-0.2h0.2
				l0.2,0.2h0.2l0.2-0.4h0.2l0.2-0.2v-0.4l-0.2-0.2l-0.6-0.4l-0.4-0.4v-0.2l-0.2-0.2V408h0.4l0.2,0.2v0.4l0.2,0.2l0.4,0.2l0.4-0.2
				l0.2-0.2h0.2v-0.2l0.2-0.2l-0.4-0.4l-0.2-0.2v-0.2h0.2l0.4,0.4v-0.2h0.2l0.2,0.2h0.2l0.6-1.2l0.4-0.6l0.6-0.9l0.9-1l0.4-0.9
				l0.4-0.4l0.2-0.4l-0.2-0.2h-0.2l0.2-0.2v-0.2l-0.6-0.6V401l0.2,0.2h0.2l0.2,0.2h0.2v0.2l0.2-0.2l-0.2-0.2h-0.2l-0.2-0.2l-0.2-0.2
				h0.2l0.2,0.2l0.4,0.2l0.4,0.4l0.4-0.4l0.9-1.4l0.4-0.6l0.6-0.9l0.4-0.4v-0.3l-0.6-0.6h0.2l0.4,0.4h0.2l0.4-0.4l0.2-0.4l0.4-0.6
				l0.2-0.2v-0.2l-0.2-0.2h0.2v-0.2l0.2,0.2h0.2l-0.2-0.2h0.4l0.2-0.2l0.2-0.4v-0.4h0.2l-0.2-0.2v-0.2h0.2v0.2l0.4-0.6l0.6-0.9
				c0.9-1.1,1.4-1.6,2.1-2.9l0.4-0.4V389c0.2-0.2,1.1-1.4,1.2-1.7l0.2-0.6l0.2-0.2h-0.2l0.4-0.4l0.4-0.6l0.2-0.4h0.2l0.6-1l0.6-0.6
				l0.2-0.4h0.2l0.4-0.9l0.4-0.6h0.2l0.9-1.4l1-1.4v-0.2l0.2-0.2l0.2-0.2l0.6-0.6l0.6-0.6l0.4-0.9l0.4-0.9l0.6-0.9l0.2-0.4l0.2-0.2
				l0.4-0.2l0.2-0.2v-0.4l0.2-0.2l0.2-0.6l0.4-0.4l0.2-0.4l0.4-0.6l0.2-0.4l0.4-0.4l0.4-0.4v-0.2l0.2-0.4l0.4-0.4l0.2-0.6l0.4-0.2
				l0.2-0.4v-0.6l0.2-0.4l0.4-0.6l0.4-0.6c1.5-2,4.2-5.8,5.2-8l0.4-0.4l0.4-1c1.8-2.5,4.2-5.6,3.9-8.7v-0.2l-0.2-0.4V346h-2.6
				l-0.2,0.2h-0.2V346h-0.2v-0.6h0.2c1.6,0.2,3.7-0.5,4.9,0.9v0.2l0.4,0.2l0.4,0.4h0.4l0.2,0.2l0.2-0.2h0.2l0.2-0.6l0.6-0.6l0.2-0.2
				l0.2-0.4h0.2l0.4-0.6c0.6-2,3.5-4.8,4.6-6.8l0.4-0.9h0.2l0.2-0.6c0.6-1,1.8-5.3-0.2-5.4h-2.1v0.2h-0.6v-0.4h-0.2h0.2v-0.4h0.6
				v0.2l1.9-0.2h0.2V330h0.2l0.2-0.2c0.4-1,0.5-0.3,1-1.6l0.4-0.4l0.4-0.6c0.7-1.1,0.6-2.4,0.9-3.7v-0.4h0.4v0.2
				c0.1,1.2-0.4,2.2-0.4,3.3v0.4h-0.2l-0.2,0.6l-0.4,0.4l-0.4,0.6l-0.2,0.2l-0.4,0.6v0.4l-0.4,0.4v0.2h-0.2l0.9,0.6l1,0.9h1v-0.4
				h0.2v0.4l0.6-0.2l0.9-0.2l0.4-0.4l0.6-0.4l0.4-0.4l0.4-0.6l0.4-0.4l0.2-0.6v-0.4l0.2-0.6v-0.2l-0.4-0.2l-0.2-0.2l-0.6-0.4
				l-0.6-0.6l-0.2-0.2h1.9l-0.2,0.2h-0.2v0.2l-0.2,0.2h-0.2l-0.2-0.2v-0.2l0.2-0.2l0.6-0.6h0.4l0.2,0.2h0.4l0.4-0.2l0.2-0.2h0.4v0.4
				h-0.2l-0.4,0.2l0.2,0.2v0.2l0.4,0.2h1.2l0.4-0.2l0.6-0.2l0.4-0.4c0.4-0.6,1.1-1,1.4-1.9l0.2-0.2l0.4-0.2V323l0.6-0.6l0.4-0.9
				v-0.2l0.2-0.2l0.2-0.2l0.4-0.9l0.6-0.6v-0.6h-0.2v-0.2h-0.2v-0.2l0.2-0.2l0.2-0.2v-0.2l0.2-0.2l0.2-0.2v-0.2l0.2-0.2l0.2,0.2h0.2
				l0.4-0.4l0.6-0.6l-0.2-0.2v-0.4l0.2-0.2l0.2-0.4l0.2-0.2l0.4-0.9l0.4-0.4l0.4-0.6l0.2-0.4l0.4-0.6l0.4-0.4l0.2-0.4v-0.2l0.2-0.4
				l0.6-0.9v-0.2l0.2-0.2l0.2-0.6l0.2-0.2l0.2-0.2h0.2l0.2-0.4l0.4-0.6c0.7-0.6,1.2-1.6,1.9-2.5l0.2-0.2l0.2-0.2l0.2-0.2v-0.2
				l0.2-0.2l0.2-0.4l0.2-0.2l0.2-0.2v-0.2l0.2-0.2v-0.4h0.2l0.2-0.2v-0.2l0.2-0.2h0.2l0.2-0.2l0.2-0.4l0.2-0.4l0.6-0.9l0.2-0.2
				l0.2-0.6l0.6-0.6l0.2-0.4h0.2v-0.2l0.2-0.2V297l0.2-0.2l0.2-0.4l0.4-0.4l0.2-0.2v-0.6l-0.2-0.2v-0.4l-0.2-0.4v-1.9l0.2-0.2v-1.4
				h0.2l0.2-0.2h0.2l0.2-0.2h1.2v-0.2h0.4v0.2h0.4l0.2-0.2h0.2l0.4-0.4l0.4-0.4h0.2l0.6-0.4l0.2-0.4c1-1.2,0.6-1.3,1-2.2v-0.4
				l0.2-0.9v-0.2l-0.2-0.4v-2.2l-0.2-0.4v-0.4l-0.2-0.4l-0.2-0.6l-0.2-0.2l-0.2-0.4l-0.2-0.4l-0.2-0.2l-0.2-0.2h-1.2l-0.4,0.9
				l-0.6,0.6l-0.4,0.6v0.6h-0.4v-0.2l0.2-0.2c1.3-2.8,1.8-1.5,1.6-3.7l0.2-0.2l0.2-0.2h0.4l0.2-0.2h0.2l0.2-0.2v-0.2l0.6-0.6v-0.6
				l0.2-0.2l0.2-0.2l0.2-0.2l0.2,0.2v0.4l-0.2,0.2h-0.4l-0.4,0.6l-0.2,0.4h0.9l0.2,0.2v0.2l0.2,0.2l0.2,0.2v0.6h0.2v0.2h0.4l0.4,0.2
				l0.4-0.2h1.6l0.6-0.2l0.2-0.2l0.6-0.2l0.6-0.4c0.9-0.4,1.4-1,1.9-1.9l0.4-0.4l1-2.1h0.2v-0.2l0.2-0.2c-0.1-1,0.7-1.9,0.6-2.9
				v-0.4l-0.2-0.4c0.1-1-0.1-1.5-0.9-2.1l-0.2-0.2l-0.2-0.4h-0.2l-0.2-0.2l-0.2-0.2h-0.2l-0.2,0.2l-0.2,0.2l-0.2,0.2v0.9h-0.2v0.2
				h-0.3v-0.2h-0.4v-0.4h-0.2v-0.2h0.2v-0.4h0.2l0.2-0.2c0.6-0.7,1.2-1.1,2.2-1h1.9c0.6-0.1,1.2,0.1,1.6,0.6l0.2,0.2h0.2v0.2h0.4
				l0.6-1v-0.2l-0.2-0.2l-0.2-0.2l-0.2-0.2v-0.2h-0.2v-0.2h-0.2c-0.6,0.1-0.6-0.1-0.6-0.6v-0.2h0.2v-0.2l0.2-0.2h0.4l0.6-0.6
				l0.2-0.4v-0.2l0.2-0.2l-0.2-0.4l-0.2-0.2h-0.4l-0.2-0.2v-0.2h0.2l0.2-0.2h0.2v-0.6l0.4-0.6l0.2-0.4l0.4-0.4V256h0.6v0.4h-0.2v1.6
				l0,0l-0.4,0.9l-0.4,0.6v0.9l0.2,0.2v0.2h0.2v-0.6h0.2l0.6,0.4v0.2l0.6,0.4v0.2l0.2-0.2V261l0.2-0.2l0.2-0.4l0.2-0.2l0.2-0.2
				l-0.2-0.2v-0.9h-0.2l-0.2-0.2l-0.2-0.2v-0.3h-0.2l0.2-0.2h0.2v-0.4h0.2l0.2-0.2h0.4l0.4-0.2l0.2-0.4l0.9-1l0.6-1l0.4-0.9l0.2-0.4
				l-0.2-0.2h0.2l0.4-0.4V252l-0.4-0.4l-1.2-0.6l-0.2-0.4l0.2-0.2l0.2-0.2l0.2,0.2l0.2,0.2l1.2,0.9h0.2l0.2-0.4l0.4-0.2l0.4-0.6
				l0.6-1.2l0.2-0.9l0.2-0.6v-0.2l0.2-0.4v-0.2l0.2-0.4V246l0.2-0.4l0.2-0.2V245l0.2-0.4v-0.2l0.2-0.2v-1.3l-0.2-0.2v-1
				c-0.4-0.7-0.2-1.7-0.2-2.5l-0.2-0.2h-0.4l-0.2-0.2h-0.2l-0.2-0.2h-0.2l-0.4,0.4v1.4l-0.2,0.2v-0.2h-0.2V239l0.2-0.2l0.2-0.2
				l0.2-0.4v-0.4h0.1v-0.2l-0.4-0.2l-0.2-0.4l-0.4-0.2l-2.1-1.4l-2.6-1.7l-2.2-1.4l-1.4-1l-1.9-1.2l-1.9-1.2l-1.2-0.9l-0.4-0.2
				l-0.2-0.2l-0.2-0.2l-1.2-1.7l-1-1.4l-0.6-0.9l-0.9-1l-1.2-1.7l-1.4-2.1l-0.4-0.4V218l-0.2-0.4l-0.2-1.9c-0.4-3.4-1-6.8-1.4-10.1
				l-0.2-1.2v-0.9l-0.2-0.9l0.2-0.2l0.2-1.7l0.6-2.2l0.6-3.1l0.2-1.4l0.4-2.2l0.6-2.1l0.6-3.7l0.9-3.7l0.6-3.1v-0.6h0.9v0.6h-0.6
				v0.2l-0.6,3.1l-1,3.7l-0.6,3.5l-0.4,2.2l-0.4,2.2l-0.4,1.4l-0.6,2.9l-0.4,2.5c-0.7,1.7-0.3,2.6,0,4.3l0.2,1.7l0.2,2.7l0.4,2.9
				l0.2,1.2l0.2,1.7l0.2,0.6l0.2,1.2v0.6l0.2,0.4c1.8,1.9,3.7,4.8,5.4,7l1.2,1.4l0.2,0.2v0.2l0.4,0.2l1.4,0.9l1.6,1l2.6,1.9l0.4,0.2
				l0.6,0.4l0.2,0.2l0.2,0.2h0.4v-0.2l0.2-0.2h0.2v-0.2l-0.4-0.4l-0.2,0.2v0.2h-0.2l-0.2-0.2h0.2V231l-0.6-0.6l-0.2,0.2l-0.2,0.2
				v-0.4l0.2-0.4h0.2l0.2,0.2h-0.2v0.2l0.6,0.4h0.2v-0.2l0.2,0.2v0.2l0.6,0.4v-0.2l0.9,0.4l-0.2,0.4l0.4,0.2l0.2-0.2h0.2v0.4
				l0.6,0.4l0.2-0.2h0.2v0.2l-0.2,0.4l-0.2,0.2l-0.2-0.2V233l0.2-0.2l-0.6-0.4h-0.2v0.2h-0.4l0.2-0.2v-0.2l-0.4-0.2l-0.2,0.2
				l-0.4-0.2l-0.2,0.2v0.2l1.9,1.2v-0.2l0.2,0.2l1.2,0.9h0.2v0.2l1,0.6h0.2l0.2,0.2h-0.2l1.6,1h0.2l0.2,0.2l0.2-0.2
				c1-0.6,3.7-4.6,5.2-5.7v-0.2h0.1v-0.2h0.1v-0.2l-0.4-0.4v-0.5l-0.4-0.2l-0.2-0.2l-0.4-0.4v0.2l-0.2-0.2c-2-1.8-4.3-3.3-6.2-5.4
				l-2.6-2.2l0.2-0.2v-0.2l0.2-0.2l1.2-1.4l0.4-0.6l1.6-1.9l0.4-0.6h0.2l1-1.2l0.2-0.2h0.2V214h0.2c2.1,1.9,4.7,4.3,7,6.1v0.2
				l0.4,0.2l0.2,0.2l0.2,0.2h0.2v0.2h0.2l0.2,0.4h0.2v0.2l0.4,0.2l0.2,0.2l0.4,0.2v0.2l0.4,0.2h0.4l0.4,0.4l0.2,0.2l1.4-1.9l0.9-0.9
				l0.4-0.4l0.4-0.4l0.4-0.6l0.2-0.2l0.2-0.2l0.2-0.2l0.2-0.2v-0.2l-0.2-0.2h-0.2v-0.4l-2.5-2.6l-1.2-1v-0.2l-0.6-0.9l-0.4-0.2
				l-0.2-0.2l-0.2-0.4l-0.9-0.9v0.2l-0.4-0.4l-2.5-2.5v-0.2h0.2l0.2-0.2v-0.4l0.4,0.4l1,1v0.2h-0.2l1.2,1.2v-0.2h0.2l0.2,0.2h-0.2
				v0.2l1.2,1v-0.2l0.4,0.4h-0.2v0.2l1,1l0.2-0.2l3.7,3.7l0.4,0.2l0.6,0.2l0.6,0.4l0.6,0.4l0.9,0.4l0.4,0.4h0.2l1.6-1.4l0.2-0.2
				v-0.4l-0.2-0.2v-0.2l-0.4-0.4l-0.2-0.2l0.6-0.6l-1-0.9l0.2-0.2l1,0.9l0.6-0.6l0.2,0.2l0.4,0.9l0.2-0.2v0.2l0.2,0.2h0.2l0.4-0.2
				h0.2l0.2-0.2l0.2-0.2v-0.2l-0.4-0.6l-1.6-3l-0.6-1l-0.4-0.4l-0.2-0.2c-1.9-2.7-4.1-4.7-5.9-7.4l-1-1.4l-0.4-0.2v-0.1l-2.1-2.2
				l-1.2-1.7l-0.4-0.4l-0.2-0.4l-0.2-0.6v-1.2l0.2-0.6v-0.6h-2.9l-0.4-0.2l-0.4-0.2h-0.2l-0.1-0.2h-0.6l-1-0.2l-1-0.2l-9.3-2.1
				l-3.7-0.9h-0.2v0.2h-0.4l-0.2-0.2V188h0.9v0.2l4,0.9l5.6,1l3.7,0.9l0.9,0.2l1,0.2l0.6,0.2l0.9,0.2h0.4l0.6,0.2l1,0.2l1.4-0.2
				l0.2-0.2v-1.6c0.9-4.2,1.9-8.1,2.6-12.4l0.4-1.7v-1.7c-0.6-6.1-1-5.6-4.3-11.4l-2.1-2.9l-2.1-2.6l-2.6-3.7l-0.2-0.4l-0.4-3.7
				l-0.6-5l-0.2-2.6l-0.2-0.6l0.2-1.2l0.4-3.1l0.2-1.7l-0.2-0.2v-0.4h0.2v-0.3h0.4v0.2h0.2v0.6h-0.2l-0.2,1.7l-0.4,3.1v1.9l0.2,2.6
				l0.6,5l0.4,3.7l0.2,0.2l2.6,3.5l4.2,5.7l0.4,0.6l1.6,2.9l1.2,2.5l0.4,0.6v0.6l0.2,1.7l0.4,2.1v1l0.2,0.9l-0.2,0.6l-0.9,3.3
				l-0.4,2.2l-0.2,1v0.2l0.9,0.2l-0.2,0.4h-0.2v-0.3l-0.7-0.3v0.2l-0.2,1v0.2l-0.2,0.2v0.2l-0.2,0.6l-0.2,0.6l-0.2,1.2l-0.2,0.6
				l-0.2,1.2v0.4l0.9,1.2l0.4-0.2l10.9,13.2h4.3l12.4-18.6l1.4-0.4l2.2-0.4l0.2,0.2v0.2l-2.5,3.5l1.4,0.9l5.7-8.3l-0.6-0.4l-0.2-0.2
				l-4.6,0.6l-0.2-0.2l7-10.5l4.7-7.3l0.4-0.6h0.2v-0.2l-0.4-0.2l-1.4-1.9l-1.6-1.9l-27.9,23.1l-2.5-2.9l0.4-2.6l0.4-4.7l6.6-5.4
				l1.2-1c3.1-2.5,6.1-5.1,9.3-7.4l1.6-1.4l0.6-0.5h0.2l0.6-0.6l1.6-1.4l2.5-1.9l2.2-1.9l5.2-4.2l2.1-1.9l2.1-1.7l-0.4-0.6l0.2-0.2
				v-0.2l0.4-0.4l0.2-0.2l-1.9-2.2l1.9,2.2l1.2-1l-1.2-1.4h0.2l1.2,1.4l0.9-0.6l-1.2-1.4v-0.2l1.2,1.4l0.9-0.6v-0.2l-0.2,0.2
				l-0.6-0.9v-0.2l0.2,0.2h-0.2h0.2l0.2-0.2l-0.2-0.2h0.2l0.9,0.9l0.9-0.6l0.2-0.2l-3.1-6.8l-0.2-0.4l-0.4-0.4l-0.2-0.4l-4.7-5.7
				l-0.2-0.4h-0.2l-0.2-0.2l-0.4-0.4l-3.5-2.2l-1.6-1.2l-0.4-0.2h-0.6l-0.4-0.2h-1l-0.6,0.2l-0.4,0.2h-0.6v0.2l-3.1,1.4l-16.8,9
				l-0.2,0.4l-0.4,0.2l-0.4,0.2l-16.7,13.9v0.4h-0.4v0.2l-0.2-0.2h-0.2v-0.2h-0.2v-0.4h0.2v-0.2h0.4v-0.2v0.2l0.4-0.4l1.4-1.2
				c4.6-3.7,9.1-7.6,13.8-11.1l0.9-0.6l0.4-0.4l0.6-0.6c3-1,5.5-3.2,8.5-4.3l3.1-1.4l3.5-1.9l0.6-0.4l0.9-0.4l1-0.4l0.6-0.2l0.2-0.2
				l0.4-0.2h2.6l0.4,0.2h0.2l0.9,0.4l0.4,0.4l0.4,0.2c1.6,1,1.6,1.6,3.3,2.2l0.6,0.4l0.4,0.4l0.6,0.6l0.2,0.4l0.6,0.6l0.2,0.4
				l0.4,0.4l0.2,0.4l0.9,0.9l0.2,0.4l0.4,0.4l0.2,0.4l0.6,0.4l0.2,0.4l0.2,0.4l0.4,0.4l0.4,0.2v0.2l0.2,0.4v0.2c1,1.6,1.4,3.5,2.5,5
				l0.2,0.6l0.4,0.6v0.4l0.4,0.6l0.2,0.4v0.2l0.2,0.2v0.2l0.2,0.4v0.2l0.2,0.4v0.6l0.2,0.4l0.2,0.6v0.4l0.2,0.2v0.6l0.2,0.2v0.6
				l0.2,0.2v0.4l0.2,0.2v0.6l0.2,0.2v0.4l0.2,0.2v0.7l0.2,0.2v0.6l0.2,0.2v0.6h0.2v0.9l0.2,0.2v0.4l0.2,0.2v0.5l0.2,0.4v0.4l0.2,0.2
				v0.6l0.2,0.2v0.6l0.2,0.2v0.2l0.2,0.2v0.6l0.2,0.2v0.9h0.2v0.2h-0.2l0.2,0.2h0.2v1l0.2,0.2v0.6l0.2,0.4v0.9l0.2,0.4v0.4l0.2,0.2
				v0.9l-0.2,0.2h0.2v0.9l0.2,0.2v0.2l0.2,0.2v0.2l0.2,0.2v0.4l0.2,0.2v1.2h-0.2v0.4l-0.2,0.2v0.2l-0.4,0.4l-0.2,0.4v0.2l-0.2,0.2
				h-0.2v0.2l0,0v0.2h-0.4v0.2l-0.6,0.2h-0.2l-0.2,0.2h-0.2l-0.4,0.4h-0.2l-0.6,0.6h-0.2l-0.2,0.2v0.2l-0.2,0.2l-0.4,0.2l-0.2,0.2
				l-0.6,0.6l-0.4,0.2l-0.2,0.4l-0.4,0.2v0.2h-0.2l-0.2,0.2v0.2l-0.4,0.4v0.2l-0.2,0.2v0.2c-1,1,0.2,0.1-0.9,1v0.4h-0.2v0.4
				l-0.2,0.2l-0.2,0.4v0.2l-0.2,0.2v0.4l-0.2,0.4v1l-0.2,0.2v0.6l0.2,0.2h-0.2l0.2,0.2v0.6h0.2h-0.2l0.2,0.2v0.2l0.2,0.2v0.2
				l0.2,0.4V180v0.2l0.2,0.2v0.2l0.2,0.2l0.2,0.2l0.2,0.2l0.2,0.2v0.2h0.2v0.2h0.2l0.2,0.2h0.2v0.2h0.2l0.2,0.2h0.2l0.2,0.2h0.2
				l0.2,0.2h0.6v0.2h0.2h3.7h0.2v-0.2h0.2c1.9,0.1,0.9-0.3,2.1-0.2h0.6v-0.2h0.6v-0.2v0.2h0.2v-0.2l0.2,0.2v-0.2h0.4V182v0.2h0.2
				V182l0.2,0.2h0.4V182h0.4v-0.2h0.6v-0.4h0.9l0.2-0.2h1l0.4-0.2h1.2l0.6-0.2h5.2l0.2,0.2h1.4l0.2,0.2h0.6l0.4,0.2h0.6l0.9,0.2h0.6
				l0.4,0.2h0.4l0.4,0.2h0.4l0.2,0.2h0.6l0.4,0.2l0.4,0.2h0.2l0.4,0.2l0.4,0.2h0.2l0.2,0.2h0.4v0.2h0.4c0.9,0.5,1.5,1,2.5,1.2
				l0.4,0.4l0.4,0.2h0.2l0.2,0.2l0.4,0.2l0.4,0.2l0.2,0.2h0.2l0.2,0.2h0.2v0.2l0.2,0.2h0.2l0.2,0.2h0.2l0.2,0.2v0.2h0.2l0.4,0.2
				l0.2,0.2l0.2,0.4l0.2,0.2l0.4,0.2v0.2l0.2,0.2l0.4,0.2l0.2,0.2l0.2,0.4l0.2,0.2h0.2l0.2,0.2l0.2,0.4l0.4,0.4v0.2l0.2,0.2l0.2,0.2
				v0.2l0.4,0.2v0.2l0.2,0.4l0.2,0.2l0.2,0.2l0.2,0.2l0.2,0.2v0.2l0.2,0.4l0.2,0.2l0.4,1l0.2,0.2v0.2l0.2,0.2l0.2,0.6l0.4,0.4
				l0.2,0.2l1.2,1.7l0.4,0.4l0.9,0.9l0.4,0.9h0.2l0.4,0.6l0.2,0.2v0.2h0.2l0.2,0.2l0.2,0.2l0.6,0.9l0.6,0.6v0.2l0.4,0.4l0.2,0.2
				c1.2,1.4,1.7,1.1,2.9,2.5l1,0.9l0.4,0.4l-0.2,0.2l0.9,0.6l1.4,1.2l2.6,2.2l0.4,1.2l3.1,1l0.4,0.2h0.4l0.9,0.4l-0.2,0.2l1,1.7v0.2
				c0.6,0.9,1,0.5,1.4,1h0.9l0.2,0.2h0.6l0.4-0.2l0.2,0.2l0.4,0.4l0.6,0.4l0.2,0.2v0.4l-0.2,0.2l0.6,1l0.2,0.2l0.2,0.2l0.2,0.2
				l0.2,0.2l0.6,0.2v0.2l0.4,0.2l0.2,0.2l0.2,0.2l0.2,0.4l0.2,0.2l0.2-0.2h0.6v0.4h0.2l0.4,1.3v0.2l0.2,0.2h0.2h-0.2h0.2l0.2,0.2
				l0.2,0.2l0.2,0.4h0.2c1.2,0.9,0.4,0.1,1.2,1.2h0.2l0.2,0.4l0.4,0.4l0.4,0.4l0.2,0.2l0.2,0.2l0.2,0.2l0.2,0.2l0.2,0.2v0.2l0.2,0.2
				h0.2v0.2l0.2-0.2l0.2-0.2h0.2l0.2-0.2l0.9,1h-0.2l-0.4-0.6v0.2h-0.2l-0.2,0.2v0.4h0.2v0.2l0.2,0.2l0.2,0.4l0.4,0.4l0.2,0.4
				l0.2,0.2l0.2,0.2l0.2,0.2v0.4l0.2,0.2l0.2,0.2v0.2l0.2,0.2v0.2l0.2,0.4h0.2l0.2,0.2l0.2,0.2v0.6h-0.2v0.2l-0.2,0.2v0.2l0.2,0.2
				l0.2,0.6v0.9l0.2,0.9l0.2,0.4v0.2l0.2,0.4v0.2l0.2,0.4v0.2h0.2v0.2h0.2v0.2h0.2v0.6h-0.2v0.2h-0.2l0.2,0.2v0.2
				c-0.2,1.2,0.5,2.1,0.9,3.1l0.2,0.4v0.2c0.6,1,0.9,1.8,1.6,2.9h0.4v0.2l0.2,0.2v0.2l0.2,0.2v0.2h-0.2v0.9h-0.2v0.4l-0.2,0.2v2.1
				l0.2,0.2l0.2,0.2v0.2h0.2l0.2,0.2h0.2l0.2,0.2h1.2v-0.2h0.9v0.2h0.2l-0.2,0.2v0.4l0.4,0.2V255h0.2l-0.2,0.6v-0.2h-0.4v1h0.2v0.2
				l0.2,0.2l0.4,0.2l0.4,0.4l0.4,0.2l0.6,0.6l0.4,0.6l0.2,0.2l0.6,0.6l0.2,0.2l0.2,0.2l0.2,0.4h0.2l0.2,0.4l0.2,0.2
				c1.5,1.4,1.3,1.8,3.1,3.1l0.2,0.2l0.4,0.4l0.4,0.2l0.4,0.4l1,0.6l0.2,0.4l0.6,0.2l0.9,0.6l0.6,0.6h0.2l0.2,0.2l0.2-0.2v0.6
				l0.2,0.2l0.2,0.2h0.2l0.2,0.2h0.4l0.4-0.6v-0.6l-0.2-0.4l0.2,0.2v0.2l0.2,0.6h0.2l0.6-0.6v0.2l-0.4,0.4l0.2,0.2h-0.2v-0.2h-0.4
				l-0.6,0.9h0.2v0.4l0.2,0.2h0.2v0.2h0.2v-0.2h0.2v0.2h-0.2l0.2,0.2h0.6l0.2-0.2h0.2v-0.2l0.2-0.2l0.2-0.4l0.2-0.2l0.2-0.2v-0.4
				h0.6l0.4,0.2l0.4,0.2v0.6l-1,1v0.2l-0.2,0.2h-0.2v0.9h0.2v0.2h0.2l0.4,0.4l0.4,0.2l0.2,0.2l0.2,0.2l0.2,0.2h0.4l0.4,0.4l0.2,0.2
				h0.2v0.2l0.6,0.4l0.2,0.2l0.4,0.2l0.2,0.2v0.2h0.2l0.2,0.2h0.2l0.2,0.2l0.2,0.2l0.2,0.2l0.2,0.2h0.2l0.2,0.2l0.2,0.2l0.2,0.2
				l0.2,0.2l0.2,0.2h0.2v0.2h0.2l0.2,0.2h0.2l0.2,0.2l0.2,0.2l0.4,0.2l0.6,0.6l0.2,0.2l0.4,0.2l0.4,0.4c0.6,0.7,0.6,0.3,1.4,1.2
				l0.4,0.4h0.2v0.2h0.2l0.2,0.2h0.2l0.2,0.2l0.2,0.2h0.2l0.4,0.4l0.6,0.4v0.2h0.4l0.4,0.4l0.4,0.2v0.2l0.2,0.2l0.4,0.4h0.2l0.2,0.2
				l0.2,0.2l0.2,0.2l0.2,0.4l0.2,0.2h0.2v0.2l0.4,0.4v0.2l0.2,0.2l0.2,0.2l0.2,0.2v0.2l0.2,0.2v0.2h0.2v0.2l0.2,0.4
				c0.3,0.3,0.6,0.6,0.6,1l0.2,0.2l0.2,0.4v0.2l0.2,0.6l0.2,0.4v0.2l0.2,0.4v0.2l0.2,0.2v0.2h-0.2v0.9h0.2v0.2l0.2,0.2v0.2h0.4v0.2
				h1.1v0.2l0.4-0.2l0.2,0.2h-0.4v0.2h0.6h-0.6v0.2h0.6h-0.6v0.6c0.1,1.6-0.3,1-0.2,1.9v0.6v2.2l-0.2,0.6v0.4h-0.2l-0.2,1l-0.2,0.2
				v0.4l-0.2,0.4v0.6l-0.2,0.2v0.2l0.2,0.2l-0.2,0.6l-0.4,0.4l-0.2,0.6l-0.6,0.4l-0.2,0.4l-0.4,0.4l-0.4,0.6l-0.9,0.6l-0.2-0.2
				l-0.2,0.2l-0.2,0.2l-0.4,0.2v0.2l-0.4,0.2l-0.4,0.4l-0.4,0.4l-0.2,0.2l-0.6,0.4v0.2h-0.2c-0.4,0.4-0.6,0.6-1,1v0.2l-0.4,0.2
				c-1.1,1.1-2.2,2.4-3.5,3.3l-1,0.9l0.9,0.9h-0.2l-0.2,0.2v0.2h-0.2l-0.4-0.9h-0.2c-1.1,1.3-3.1,2.5-4.3,3.7l-0.2,0.2V320v0.2
				l-0.4,0.2v0.2l-0.4,0.2c-1.1,2.2-1.8,3.3-2.6,5.6v0.2h-0.4v0.4l-0.2,0.6v0.6l-0.2,0.2v0.4c-0.2,0.4-0.5,2.5-0.4,2.9l-0.2,1
				l-0.2,0.4h0.2v0.2h0.2v0.2l-0.6,1.2l-0.2,0.6l0.2,0.2l-0.4,0.6l-0.4-0.2l-0.4,0.9c-0.6,0.7-1,2.4-1.9,2.6l-0.4,0.6l-0.2,0.2
				l-0.2,0.2v0.2l-0.2,0.2l-0.2,0.2h-0.2l-0.2,0.2h-1V341h-0.2l-0.4-0.4v-0.2h-0.6v0.4l0.2,0.2l0.2,0.4v0.2l0.2,0.2l0.2,0.4l0.2,0.2
				l0.4,0.6l0.2-0.4l0.2,0.4l-0.9,0.6l-0.2-0.2h0.2l-0.2-0.2h-0.4v0.2l-0.6,0.2l-0.2,0.2l-0.4,0.2h-0.4l-0.6,0.4h-0.2l-0.4,0.2
				l-0.2,0.2h-0.4l-0.6,0.2l-0.6,0.4l-0.2,0.2h-0.2l-0.6,0.2c-6.9,1.7-12.2,4.7-18.1,8.5l-0.6,0.4l-0.4,0.2v0.2l-0.2,0.2h-0.2
				l-0.4,0.2l-0.2,0.2l-0.9,0.4l-0.2,0.2v0.2l-0.2,0.2h0.2v0.2l0.4-0.2l0.2,0.2v1h0.2c0.9,0.6,1.5,0.6,2.2-0.2l0.4-0.2l0.2,0.4v0.2
				l0.4,0.2v0.2l0.4,0.4l0.2,0.2l0.4,0.2l0.2-0.2h0.4l0.4-0.2l0.2-0.2l0.2-0.2l0.9-0.4l0.4-0.2l0.2-0.2h0.4v0.2l-1.9,1.9l-0.6,0.9
				l-0.4,0.4l-0.4,0.9l-0.2,0.2v0.2l-0.2,0.2v0.6l0.2,0.2v-0.2l0.4-0.2l0.6-0.6l0.2-0.4l0.4-0.4l0.9-1.2l0.9-1l0.6-0.9l0.6-0.4
				l0.2-0.2l0.4-0.2h0.2l0.4,0.2h0.2l0.6-0.2l0.6-0.4l0.4-0.2l0.2-0.2l0.6-0.4l0.4-0.2l0.4-0.2l0.4-0.2h0.6l0.6-0.4l0.9-0.2l1-0.4
				l0.9-0.2h0.9l0.6,0.2h0.2l0.2,0.4l0.6,0.4l0.4,0.6l1,0.4l0.6,0.2l0.6-0.4l0.4-0.2l0.6,0.4l0.4,0.4l0.6,0.2h0.6l0.6,0.4v0.2
				l0.2,0.2l0.2,0.4v0.9l-0.2,0.6l-0.2,0.9l0.2,1v0.4l-0.1,2.7l-0.4,0.6l-0.6,0.9h-0.2l-0.4,0.6l-0.4,0.4l-0.4,0.2l-0.9,0.6
				l-2.2,2.2l-0.2,0.6v0.6l0.2,0.2l-0.2,0.4l-0.4,0.6l-0.2,0.4l-0.4,0.6l-0.6,1l-0.9,0.9l-0.6,0.4v0.9l0.2,0.6l0.4,0.4l0.4,0.6
				l1.2,1.7l0.9,1.7l0.4,0.4l0.6,0.4l0.4,0.2l0.6-0.2l0.6-0.6l2.2-1l0.2-0.2l0.6-0.4l0.4-0.2l0.2-0.2l0.4-0.2h0.2l0.9-0.9h0.4
				l0.6-0.6l0.2-0.2l0.2-0.2l0.9-0.4l0.2-0.2l0.4-0.2l0.2-0.2h0.2l0.2-0.2l0.4-0.4l0.4-0.2l0.4-0.2l0.2-0.2l0.2-0.2l0.4-0.2l0.2-0.2
				h0.2v-0.2l0.4-0.2l0.2-0.2l0.4-0.2l0.2-0.2l0.2-0.2h0.4l0.2-0.2l0.2-0.2h0.2l0.2-0.2l0.2-0.2h0.2v5.6l0.2-0.2h0.4v-0.2h0.2
				l0.2-0.2c1.1-0.7,1.8-1,2.9-1.9l0.6-0.4l0.4-0.4l0.4-0.2l0.2-0.2l0.2-0.2l0.4-0.2h0.2l0.2-0.2l0.2-0.2l0.2-0.2h0.2v-0.2l0.4-0.2
				h0.2c1.2-1,4.2-2.6,5.2-3.7l1.2-0.6l0.6-0.4l0.4-0.4l0.6-0.4l0.4-0.2l0.2-0.2l0.4-0.2l0.2-0.2l0.2-0.2l0.6-0.4l0.6-0.2l0.9-0.9
				l0.4-0.2l0.4-0.2v-0.2l0.9-0.4l0.2-0.2c1.1-0.7,1.4-1.1,2.1-2.1l0.2-0.2l0.2-0.2l0.4-0.4h0.2l0.4-0.4l0.2-0.4l0.4-0.4v-1l0.4-0.2
				l0.2-0.4l0.4-0.2l0.2-0.4l0.4-0.4l0.2-0.4l0.4-0.4l0.2-0.4v-0.2l0.2-0.2l0.4-0.9l0.2-0.2l0.2-0.4c0.7-1.7,1.5-2.5,2.2-4.3
				l0.2-0.4l0.2-0.4l0.2-0.9l0.2-0.4c0.2-0.9,1.1-3.1,1-4l0.2-0.4v-0.2l0.2-0.9l0.2-0.4l0.2-0.9V340l0.2-0.4v-1l0.2-0.6v-2.2
				c0.1-1.8-0.2-1.8-0.2-3.1v-1l-0.2-0.4v-1.7l-0.2-0.2v-0.9l-0.2-1v-0.9l-0.2-0.4v-1.9l-0.2-0.2v-1.2l-0.2-0.4v-1.2l-0.2-0.6v-0.6
				l-0.2-0.4v-1.9l-0.2-0.2h0.2l0.2-0.4v-0.4l-0.2-0.2v-0.2l-0.2-0.2l-0.2-0.4v-1.9l-0.2-0.9c0.1-0.9-0.5-2.8-0.4-3.7v-0.6l-0.2-0.4
				v-1.4c-0.3-0.7-0.5-1.7-0.6-2.5v-0.9v-2.2v-0.4l-0.2-0.2v-0.2h0.1v-0.4l0.2-0.2v-0.2l-0.2-0.4v-0.6l-0.2-0.4l-0.2-0.6
				c0.1-1-0.3-0.9-0.2-1.9l-0.2-0.2v-0.9l-0.2-0.4v-0.6l-0.2-0.2l-0.2-0.4V292l-0.2-0.2v-0.2l-0.2-0.2l-0.2-0.2v-0.9h-0.2v-0.4
				l-0.2-0.2l-0.2-0.2v-0.2l-0.2-0.2v-0.4h-0.2l-0.2-0.6l-0.2-0.2c-0.2-0.5-0.7-1-1-1.7l-0.6-0.4l-0.2-0.4l-0.2-0.4l-0.2-0.2
				l-0.2-0.2l-0.2-0.2l-0.2-0.2l-0.2-0.2h-0.2v-0.2l-0.2-0.4l-0.2-0.2l-0.2-0.2v-0.2l-0.4-0.2l-0.2-0.4l-0.2-0.2h-0.2l-0.2-0.2
				l-0.2-0.2l-0.4-0.2h-0.2l-0.2-0.2l-0.2-0.2l-0.2-0.2l-0.2-0.2l-0.4-0.4h-0.2l-0.4-0.2l-0.2-0.2l-0.4-0.2l-0.4-0.4l-0.4-0.2
				l-0.2-0.2l-0.2-0.2l-0.6-0.2l-0.2-0.2l-0.4-0.2l-0.2-0.2l-0.4-0.2l-0.4-0.2l-0.4-0.2c-0.7-0.9-0.7,0.1-2.1-1.2h-0.6h0.2l-0.4-0.2
				l-0.2-0.4l-0.4-0.2l-0.9-0.4l-0.2-0.2l-0.9-0.4l-0.2-0.2l-0.6-0.4l-0.2-0.2h-0.4v-0.2l-0.2-0.2h-0.2l-0.2-0.2l-0.2-0.2v-0.2
				l-0.2-0.2l-0.2-0.2l-0.2-0.2v-0.4l-0.4-0.4l-0.2-0.2l-0.2-0.2h-0.2v-0.2h-0.2c-1-0.6-0.6-0.6-1.6-0.6l-0.2,0.2l-0.4-0.2l-0.4-0.4
				l-0.4-0.4l0.2-0.2l-0.2-0.2v-0.9l-0.2-0.2v-0.2h-0.2v-0.4h-0.2v-0.2h-0.2v-0.2h-0.2v-0.2l-0.2-0.2v-0.2l-0.2-0.2h-0.2l-0.2-0.2
				l-0.2-0.2h-0.9v-0.2h-0.2l-0.2-0.2h-0.2l-0.2-0.2v-0.2l-0.4-0.4l-0.2-0.2l-0.2-0.2h-0.2l-0.2-0.2v-0.2h-0.4v-0.2l-0.2-0.2
				l-0.2-0.2h-0.2l-0.2-0.2h-1v-0.2h-0.2l-0.2-0.6l-0.2-0.2l-0.2-0.4l-0.2-0.2l-0.2-0.4v-0.2l-0.6-0.4l-0.2-0.2l-0.2-0.4l-0.2-0.2
				l-0.2-0.2l-0.2-0.2v-0.2l-0.2-0.2l-0.2-0.2l-0.2-0.2v-0.2c-0.3-0.4-0.9-1.6-1.2-1.9l-0.2-0.2v-0.2h-0.2V255l-0.2-0.2l-0.2-0.4
				h-0.2v-2.6l-0.2-0.4c-0.5-0.6-0.6-1.2-1-1.9l-0.2-0.2v-0.2l-0.2-0.4l-0.2-0.2v-0.2l-0.2-0.2v-0.4l-0.2-0.2v-0.6h-0.2v-0.4
				l-0.2-0.2v-0.2h-0.2v-1l-0.2-0.2v-0.6l0.4-0.4h0.2v-0.2h-0.2v-0.2h-0.4v-0.2l-0.2-0.2v-0.4h0.2v-0.2h1.2v0.4h-0.6v0.2l-0.2,0.2
				v0.2h-0.2v0.4h0.2l0.2-0.2l0.2-0.4l0.2-0.2l0.2-0.6v-0.2h0.2v-0.6h-0.2v-0.2h0.2v-0.6h0.2l0.4-0.4l-1-0.9l0.2-0.2l0.4-0.4v-0.5
				l-0.2-0.4h-0.6l0.2,0.2v0.2h-0.2v-0.2h-0.6v0.2h-0.2l-0.2-0.4v0.6v-0.3l-0.2-0.2v0.4h-0.2l-1,0.4l0.2,0.2h-0.2v0.2l0.9-0.2V239
				l0.2,0.2V239h0.4v-0.2l0.2,0.6l-0.2-0.4l-0.2,0.2v0.6l-0.2-0.6h-0.2v0.6l-0.2-0.6l-0.2,0.2l0.2,0.4h-0.5v-0.4h-0.2v0.4l0.2,0.6
				l0.4-0.2v0.2h-0.4l0.2,0.2l0.4-0.2v0.2h-0.4v0.2h0.2v0.2h0.2v0.4h-0.2v0.2l-0.2,0.2h-0.2v-0.2h-0.2v-0.4l0.2-0.2v-0.2h-0.4
				l0.4-0.2l-0.2-0.2h-0.4l0.4-0.2V240l-0.4,0.2l-0.2-0.2h0.6l-0.2-0.4h-0.2l-0.6,0.2l0.4-0.2l0.4-0.2v-0.2l-0.2-0.2h-0.2l-0.9,0.4
				v-0.2l0.9-0.2h0.2l-0.2-0.4l-0.2-0.2v-0.2h-0.2v-0.4h0.2v-0.2l0.2-0.2v-0.2h-0.2v-0.4l-0.4-0.4l0.4-0.4l-0.2-0.2h-0.2l-0.6,0.2
				v-0.2h-0.2v0.2l-0.2-0.2h0.4l-0.2-0.2v-0.4l-0.2-0.4l-0.2-0.4l-0.2,0.2v0.2h-0.2v-0.2h0.2l0.2-0.2l-0.2-0.4v-0.7
				c-0.7-1-0.6-1.1-1.2-2.2l-0.6-0.9l-0.2-0.2l-0.2-0.4l-0.6-0.6l-0.2-0.2l-0.2-0.2l-0.2-0.2l-0.4-0.4l-0.4-0.2l-0.4-0.4v-0.2h-0.2
				V227l-0.2-0.2l-0.6-0.4l-0.4-0.4l-0.2,0.2l-0.6-0.4l-2.6-2.1l-1.4-1l-0.2-0.2l-1.6-0.2l-0.9-0.2h-0.2l-0.6-0.4l-1.4-1.2l-0.6-0.6
				l-0.6-0.4l-1.2-1l-0.9,0.4l-0.2-0.2h-0.2l-0.4-0.4l-0.6-0.4l-0.2-0.2l-0.4-0.4l0.2-0.4l-0.2-0.2l-0.4,0.4l-2.6-2.5l-0.2-0.2v-0.2
				l0.2-0.2h0.2v0.2l0.4-0.2h0.2l0.6,0.4l2.1-0.4l1.4-0.2l-0.2-1.4V211h-0.9v0.6V211l-1.2,0.2l-2.2,0.4l-0.4,0.4h-0.2l-0.4-0.4
				l-3.3,0.6l-0.9-0.6v-0.2h-0.2V211h0.2c2.6,0.3,2.6,0.1,5.6-0.2l0.9-0.2l-0.2-1.4l-1.6-1.2l-2.6,0.4h-0.9l-0.4,0.6h-0.2l-0.6-0.4
				l-0.9,0.2l-2.2,0.2l-0.9-0.6h-0.2V208h0.9v-0.2h0.2l0.4,0.4l1-0.2l2.1-0.2l2.1-0.2l-0.2-1.4l-0.6-0.6l-1-0.6l-2.1,0.2l-0.9,0.2
				h-0.9l-0.2,0.6h-0.2l-0.2-0.2l-0.4-0.2l-2.1,0.2l-1,0.2h-0.2l-0.6-0.6h-0.2v-0.2l-0.2-0.2l0.2-0.2h0.2v0.2l0.4-0.2h0.4l0.4,0.4
				l0.9-0.2l2.1-0.2l2.2-0.4l-0.2-1.4l-1.6-1.2l-0.9,0.2l-1.4,0.2l-1.6,0.2h-0.2l-0.4-0.2l-0.2-0.4l-0.2-0.4l-1-0.9h-0.2v-0.2
				l-0.9-1h-0.4v-0.4l-0.2-0.2l-0.4-0.4l-0.2-0.2l-0.2-0.2l-0.2-0.4l-0.6-0.4l-0.2-0.4l-0.2-0.2l-0.4-0.2l-0.2-0.2l-0.4-0.4
				l-0.2-0.4l-0.4-0.4l-0.2-0.2l-0.4-0.2v-0.2c-0.6-0.6-1.2-1.2-1.9-1.9v-0.2h-0.2l-0.2-0.2h0.2h-0.2l-0.2-0.4l-0.2-0.2
				c-1.7-1.6-3.1-3.3-4.9-4.7l-0.2-0.2l-0.2-0.2l-0.6-0.4l-0.4-0.2l-0.2-0.2l-0.2-0.2l-0.4-0.2l-0.2-0.2l-0.2-0.2l-0.4-0.2l-0.4-0.2
				l-0.6-0.4l-0.4-0.2h-0.2l-0.4-0.4h-0.4v-0.2h-0.4l-0.2-0.2l-0.4-0.2l-0.4-0.2l-0.2-0.2h-0.5l-0.4-0.2l-0.6-0.2h-0.2l-0.6-0.2
				l-0.2-0.2h-0.4l-0.4-0.2h-0.4l-0.2-0.2h-0.4l-0.4-0.2h-0.6l-0.2-0.2h-1l-0.2-0.2v-0.2h-0.2v0.2v-0.2h-0.2v0.2v-0.2h-0.4v0.2v-0.2
				l-0.2-0.2v0.2h-0.2v-0.2l-0.2,0.2v-0.2h-0.2v0.2v-0.2h-0.2v0.2v-0.2h-0.2v0.2l-0.4-0.2h-0.4c-1.9-0.1-2.7,0.1-4.6,0.2h-4.6
				l-0.4,0.2h-0.4l-0.4,0.2h-0.2v-0.2h-0.2v-1.8v-0.2h-0.2v0.2l-0.2-0.2v0.4h-0.4l-0.2,0.2l-0.6,0.2l-0.4,0.2h-0.2l-0.4,0.2
				l-0.6,0.6l-0.4,0.2l-0.2,0.2h-0.2l-0.2,0.2h-0.2l-0.2,0.2h-0.2l-0.2,0.2h-0.2l-0.4,0.4h-0.2l-0.2,0.2h-0.4l-0.2,0.2h-0.2
				l-0.2,0.2h-2.9l-0.2-0.2h-0.4l-0.2-0.2h-0.4v-0.2h-0.2c-1-0.7-0.6-0.1-1.6-1.2h-0.3v-0.2l-0.2-0.2h-0.2v-0.2l-0.2-0.2v-0.2
				l-0.2-0.2v-0.6l-0.2-0.2v-0.9l0.2-0.2h-0.2h0.2V177l0.2-0.4v-0.2l0.2-0.2V176l0.2-0.4h0.2v-0.4l0.2-0.2h0.2v-0.2
				c0.4-0.4,0.6-0.6,1-1h0.2v-0.2h0.2l0.2-0.2h0.2l0.2-0.2V173h0.2l0.6-0.4l0.2-0.2l0.2-0.2h0.2l0.2-0.2h0.2v-0.2l0.2-0.2h0.2
				l0.2-0.2l0.2-0.2l0.4-0.6l0.6-0.9l0.9-1.4l0.4-0.6v-0.4l0.4-1.2v-0.6l0.2-0.9l0.2-0.6v-0.9l-1-3.3l-0.2-0.4l-0.2-0.9l-0.6-2.1
				V156l0.9-0.4c17.2-8.4,35.8-20.4,51.1-31.8l0.6-0.4v-0.2l0.9-0.6l0.4-0.2c5.1-4.6,10.7-8.8,15.9-13.4l2.5-2.2l1.4-1.4
				c2.4-2.2,4.6-4.4,6.8-6.8l0.6-0.6v-0.7l0.6-0.4l0.4-0.6l0.6-0.6v-0.2l0.4-0.4l0.2-0.2l0.2-0.2v-1.3c0.5-0.7,0.6-3.6,0.6-4.6v-0.4
				h0.2v-0.3h0.6v0.2h0.2v0.4h-0.2v0.4h-0.2v0.4c0,1.1-0.3,3.3-0.6,4.3v0.7c-1.1,1.6-2.6,3-4,4.6l-0.2,0.2l-0.2,0.2l3.1,2.9l2.6-3.1
				l0.2-0.2l0.2-0.2l1.9-2.1l0.2,0.2l0.9-0.9l2.6-3.1l2.1-2.2l2.1-2.2l1.9-2.2l2.5-2.6l2.6-2.9l0.2-0.2l0.2-0.4l0.2-0.4l0.2-0.2
				v-0.4l0.2-0.2l0.2-0.4l0.2-0.6l0.9-1c2.8-5.7,3-3.1-0.6-6.1l-0.2-0.2v-0.2l-0.4-0.2h-0.4l-0.2,0.4c-3.5,5-8.2,11.8-12.2,16.3
				l-0.2,0.6h-0.2l-0.4,0.2l-0.2,0.2l-0.2,0.2l-1.9,2.2l-0.4,0.6h-0.2l-0.2,0.4h-0.1V91l0.2-0.2c2.4-3.1,5-6.2,7.4-9.3l0.9-1.2
				l0.2-0.2c1.7-2.5,3.7-4.9,5.4-7.4v-0.2l0.2-0.2l0.9-1.2c5.7-8.7,10.9-17.6,16.5-26.2l1.6-2.9l0.2-0.4l-0.6-0.2v-0.2h-0.2V41h0.2
				v-0.2h0.2V41h0.2v0.2l0.6,0.2l0.2-0.4l0.2-0.4l0.2-0.2v-1.9l-0.2-0.2l-0.2-0.2l-0.2-0.2v0.2h-0.2v0.2h-0.7l-0.4-0.4v-0.4l0.9-2.5
				l0.4-2.6l0.2-0.2V32h0.2c0.6-0.1,1.1,0.2,1,0.9v0.2h-0.2v0.2h-0.2v0.2l-0.2,1h1.4l0.4-0.2l1.9-1.2l0.4-0.4l0.6-1.2l0.4-0.6
				l0.2-0.9v-0.6l0.2-0.2v-0.6l-0.2-0.2V28l-0.6-0.6v0.9h-0.2v0.2h-0.6l-0.2-0.2h-0.4v-0.4l1-5v-0.6h0.4v-0.2h0.4v0.2h0.2l0.2,0.2
				v0.9h-0.2v0.2l-0.2,0.6h1.2c1.9-0.6,2.4-0.6,3.7-2.1l0.2-0.4l0.2-0.2v-0.6l0.2-0.4v-0.4l-0.2-0.2v-0.4l-0.4-0.4v-0.2v0.2h-0.2
				v0.2h-0.2v0.2h-0.6l-0.4-0.4v-0.6h0.2v-0.3l1.2-1.2h0.2v-0.2h0.4v-0.2h0.2v-0.3h0.2l2.2-1.7h0.2l0.2-0.2l0.2,0.2h0.2v0.2h0.2v0.4
				h-0.2v0.2l-0.2,0.2h-0.2V16h0.2v0.2l0.2,0.2l0.2,0.2l0.2,0.2h0.2l0.2,0.2h0.9l0.2-0.2h0.6l0.2-0.2l0.4-0.2h0.2l0.4-0.4l0.4-0.4
				l0.2-0.4l0.4-0.4h-1V15l-0.2-0.2h-0.2c-0.9,0.9-1.2-0.7-0.4-0.6h5.2l0.2,0.2h0.4l0.2,0.2h0.2l0.2,0.2h0.2V15h0.2v0.2h0.2l0.2,0.2
				v0.2l0.2,0.2V16l0.2,0.2v0.4l0.2,0.2v1v0.4h-0.2v0.4l-0.2,0.2V19h-0.2v0.2h-0.2v0.2h-0.2v0.2h-0.2v0.2L-117,20v0.2l0,0v0.2
				l-0.2,0.2V21h-0.2v0.6l-0.2,0.2v1.9l0.2,0.6l-0.2,0.4v0.6l-0.2,0.4l-0.2,0.6l-0.4,0.9l-1,1l-0.2,0.4l-0.4,0.2h-0.2V29l-0.2,0.2
				l-0.4,0.2l-0.2,0.2l-0.2,0.2h-0.2v0.4l-0.2,0.2v0.2l0.2,0.2V31l0.2,0.2v0.2h0.2l0.4,0.2l0.2,0.2l0.2,0.4l0.2,0.2l0.2,0.4v1
				L-120,34v0.4l-0.4,0.2v0.2h-0.2V35h-0.4l-0.2,0.2l-0.4,0.2h-0.2l-0.6,0.2l-0.2,0.2l-0.9,0.2l-0.6,0.4l-0.4,0.2l-0.4,0.4l-0.2,0.2
				l-0.2,0.4l-0.2,0.2l-0.2,0.2l0.2,0.2v0.2l-0.2,0.2h-0.4V39l-0.6,1.2v2.1l-0.2,0.4v0.4l-0.6,1.2l-0.4,0.4v0.2l-0.2,0.2l-0.2,0.2
				l-0.4,0.2l-0.4,0.2l-0.2,0.2l-0.2,0.2l-0.2,0.2v1.2l0.2,0.2l-0.2,0.4v0.2h0.2v0.4h-0.2v0.2h-0.2l-0.4,0.6l-0.4,1l-0.4,1.2
				l-0.4,2.1v0.6h-0.6v0.2l-0.2,1l0.2,1.7c-0.5,7.4-1.8,10.4,2.2,17.4l1.6,2.5l0.4,1.2c1.2,2.2,1.5,5.4,1.9,7.8l0.2,1.2l0.4,1
				c1,2.6,1.8,2.4,3.5,4.2l1,0.4l0.9,0.4l1,0.2l0.9,0.2h1.2c6.8,0.2,11.2-6.2,9.3-12.6l-0.2-0.6l-0.6-0.6c-5.7-4.6-12.2-8-15.3-15.1
				l-0.9-1.7l-0.9-2.2l-0.6-1.4c0,0-0.4-1-0.6-1.6l-1-3.6l0.6-3.1l2.2-5.8l1.9-2.1h2.2l1,1l0.3,1.6l0.3,3.1l0.9,3.1l1.8,1.6l3.7,2.6
				l1.8,2l1.3,3.1l0.6,2.7l2.4,3.1l3,2.2l2.2,0.5h2.7l2.6-1l1.4-3.1l1-3.2l-0.6-3.7l-2.4-3.5l-5.2-2.6l-1.8-1.1l-1.6-2.5l-3-2.2
				l-2.8-1.3l-1.9-1.8l-2.5-2.2l-0.4-3.1l0.3-9.1l0.7-5.8l0.3-4.2l0.1-4.8l-1.6-2.2l2.7-2.2l2.6,0.6l1.9-1l2.6-1l5.2-0.1l3.9,2.9
				l1,0.7l1,1l0.9,4.2l-0.2,2.6l-0.1,3.2l1.2,4.6l1.6,2.6l0.7,6.6l0.9,3.5l1.4,3l3.6,2.8c6.1,4.4,16.3,6.6,14.8-4.4l-0.1-6.2
				l-0.2-3.7l0.9-2.1l-0.3-3.1l-0.5-2.8l-1.5-3l-1.4-1.3l-1.4-1l-2.5-1.6l-3-1l-2.9,0.1l-1.5-0.9l-2.6-2l-1.8-0.9l-3.4-4.8l-1.2-1.3
				l-1.5-1.1l-3.9-0.6l-3.4,0.2l-2.5,0.9l-2.2,0.6l-2.2,1.6l-3-0.1l-1.3-1.4l-1.3-3.7l1.9-1.5l6.9-9.8l3.2-5.3l3.7-7.3l2.2-4.6
				l9.9-16.9l5.4-10.2l-2.2-4l-3.1-21l-0.5-6.6l5.2-18.3l1.1,1l-4.8,17.7l0.6,3.2l12.3,8.1l8.7-14.2l4.3-0.6l3,2.8l6.1-6.3l10-9.6
				L-47-107l-17,12.1l-4.7,0.3l-2.8-2.2l-5.6,3.1l-0.9-0.9l7-4.1l18.6-11.6l5.6-4l5.7-7l2.6,3.1l-0.9,0.7l-1.5-1.6l-2.6,3.1l6.9,3.3
				l3.4,0.3l0.2,7l0.2,6.6l-2.1,4.6l-2.6,3.5l-22,19.6l-3,9.3l-1.3,6.8l0.7,6.8l1,10.2l1,11.5L-62-15l-0.3,8.7l0.1,5.3
				c0.6,6.8,7.7,17.2,13.4,21l3.6,0.5l2.8-0.4l4.1-4.4l7.8-8.9l0.6-1.7L-30.4,3l-1-2.8L-33.5-2l-12.4-11.7l-1-2.2l-0.9-2l0.4-4.2
				c4-11.8,5.4-15-7-21.9l-4.3-2.5l-2.1-1.8l-0.6-6.2l1.4-8.7l1.3-5.2l7.3-4.1l12.3-11.2l7.7-9.7l1.9-3.9l0.2-4.6l-0.1-3.1l-0.4-5.4
				l2.2-0.5l1.8-0.7l1.3-2.2l-1.3-2.5l-5.4-7.8l1-0.3l3.7,5.5l4-1.6l3.9-4.2l1.9-0.6l0.6-1.8l3.9-3.5l3.3-2.5l2.2-0.3l0.6-1l2.9-0.1
				l2.8-4.3l1.9,0.2l8-7.1l9.3-8.9h1.9l0.2,2.2l2.2-0.5L28.9-158.2"/>
			<path style="fill:#E0DAD5;" d="M-11.9,653.1l4.6,1.7l33.9-24.6L69,597.1l45.7-35.7l30.5-25.5l30.8-26.7l22.8-19.5l30.8-26.3
				l-2.9-2.9l-28.4,24.2C135.5,539,72.1,592.9,4,640.8L-11.9,653.1"/>
			<polygon style="fill:#E0DAD5;" points="79,506.6 89.5,509.6 164.1,509.2 154.8,517.2 84.1,517.6 70.6,513.8 			"/>
			<polygon style="fill:#E0DAD5;" points="57.8,516.4 64.6,517.6 77.2,504.7 38.5,493.6 -21.3,470.1 -27.3,471.3 -28.5,475.2
				43,503.6 46.8,505.3 			"/>
		</g>
		<g>
			<path style="fill:#FFFFFF;" d="M-203,396.2c3.7,3.5,7,7,9.9,10.9l2.1-1.5l-2.1,1.5l58.7,81.5c46.6,63.4,96.3,124.3,143,187.6
				l25,30.7c4.7,5.8,9.8,11.4,15.6,16.6l0,0l12.5,10.9l7.6,7l8.9,9.2l7,8.3l10.2,13.2l0,0l21.3,27.3L150,843l6.8,10.4l0.1,0.1
				l4.6,6.2l8.2,11.5l5.3,7.7l0,0l3.9,5.7l39.8,60.8l0,0l23,35.3c8.1,12.3,16,24.8,24,37.1l6.4,10.2l0,0l6.3,10.4l6.2,10.3
				c19.8,34.6,37.5,70.4,56.8,105.3l0,0l1.2,2.2c3.7,6.9,7.8,13.7,12,20.4l0,0l2.2,3.7l0,0l7.8,12.7l5.9,10.1
				c0.5,0.7,1.3,1.2,2.2,1.2h0.2v-2.6l-2.2,1.3l12.2,19.9c8.9,15.6,19.8,30.4,25.8,47.4l4.6,12.5l0,0l6.2,17.5
				c10.9,31.8,28.1,61,42.2,91.4l8.5,17.6l0,0l4.3,9.2c2.2,4.2,4.6,9.8,6.3,14.2l1.2,3l0,0l3.7,9.3l0.9,2.4
				c19.3,50.2,39.5,100.6,58.3,151l0.2,0.4l0.1,0.2c3.5,12.1,4.3,24.5,6.9,36.8v0.2l0.6,2.6c4.7,19.9,12,39.4,27,54.5
				c12.5,12.5,27.3,21.9,41,32.1l1.6,1.2h0.1l1.4,1l1.4-2.1l-1.5,2.1c6.7,4.9,13.8,8.6,20.6,12.6c7.8,4.6,15.6,9.3,23.5,13.9
				c4.6,2.7,9.2,5.4,13.7,8.1l0,0l2.8,1.6l2.7,1.8l3.6,2.4l1.6,1.1l0,0c2.2,1.7,4.4,3.4,6.8,5.1c0.6,0.5,1.6,1.1,2.7,1.8
				c1.7,1,3.9,2.2,5.9,3.4c1,0.6,2,1,2.7,1.4c0.9,0.4,1.5,0.7,2.2,1c1.8,0.6,3.7,1.7,5.8,2.7c5.8,2.7,11.8,5.4,17.7,8l0.3,0.1
				c1.8,0.6,3.2,1.5,4.7,2.8c1.5,1.2,2.9,2.8,4.6,4.4c0.7,0.7,1.7,2.1,2.6,3.6s1.7,3,2.4,4.4c0.6,1.2,1.2,2.6,1.9,4.1l0.2,0.4
				l0.4,0.6l2.1-1.4l-2.2,1c1.2,2.7,3.1,4.8,4.3,6.7c1.3,2.1,2.8,3.6,4.4,5.1c1.5,1.4,3.1,2.6,4.6,4.1c3.1,2.8,6.1,6.2,9.3,9.3
				l0.1,0.1l5.8,5l17.9,31l8,31l6.5,31.7l0.1,0.3l13.3,38.9l4.8-1.7l-13.2-38.7l-6.5-31.6v-0.1l-8.1-31.3c-0.1-0.2-0.1-0.5-0.3-0.6
				l-18.5-31.8c-0.2-0.3-0.4-0.5-0.6-0.6l-6.2-5.3l-1.6,2l1.8-1.9c-3.1-2.9-6.1-6.2-9.4-9.3c-1.7-1.5-3.2-2.7-4.6-4.1
				c-1.4-1.2-2.6-2.6-3.7-4.2c-1.5-2.2-3.1-4.2-4-5.9l-0.2-0.4l-0.4-0.6l-2.1,1.4l2.2-1c-0.6-1.3-1.2-2.7-2-4.2
				c-0.6-1.3-1.5-3-2.6-4.6c-1-1.7-2.1-3.3-3.4-4.6c-1.5-1.5-3-3.1-4.8-4.7c-1.8-1.5-3.9-2.9-6.4-3.7l-0.7,2.5l1-2.4
				c-5.9-2.6-11.8-5.3-17.6-8c-1.9-0.9-4-2.1-6.4-2.9c-0.3-0.1-1.2-0.6-2.4-1.1c-1.7-0.9-3.7-2.1-5.7-3.1c-1-0.6-1.8-1-2.6-1.5
				c-0.7-0.5-1.3-0.9-1.6-1c-2.2-1.7-4.4-3.4-6.7-5.1l0,0c-2.6-2.1-5.6-3.7-8.4-5.7l-2.8-1.6l-1.2,2.2l1.3-2.2
				c-4.6-2.6-9.2-5.4-13.7-8.1c-7.8-4.6-15.6-9.3-23.5-13.9c-7-4.2-13.9-7.7-20.2-12.4h-0.1l-1.4-1l-1.6-1.2
				c-14-10.3-28.5-19.5-40.5-31.5c-14-14.1-21-32.7-25.7-52.1l-0.6-2.6c-3.2-16.8-3.9-31.5-10.7-47.3l-7.4-18.9l0,0l-35.2-90.9
				l-12.4-31.9c-2.4-6.8-5.6-14.2-8.3-21l-0.1-0.2l-0.6-1.1c-7.3-16-15.4-32.1-22.9-47.9v-0.1l-8.2-16.9l0,0l-8-16.6l-8.6-17.8
				c-8.4-17.9-14.1-37.2-21-55.7l0,0l-0.6-1.6c-2.2-6.4-5.4-12.5-8.6-18.5l-0.1-0.2l-4.7-7.7l-2.2,1.3l2.2-1.3l-3.5-5.8l0,0
				l-4.6-7.7l0,0l-4.2-6.7l0,0l-12.2-19.9c-0.5-0.7-1.3-1.2-2.2-1.2h-0.2v2.6l2.2-1.3l-5.9-10.2l0,0l-7.8-12.7l0,0l-2.2-3.7l0,0
				l-4.1-6.7c-27.4-46.5-49.5-96.2-78.4-141.9l-6.4-10.2l0,0l-3.9-6.3l-0.4-0.5l-0.4-0.4l-5.7-8.9l-7-11.1l0,0l-1.4-2.2l0,0
				l-5.1-7.7l-23-35.3l0,0l-39.8-60.8v-0.2l-3.9-5.7l0,0l-5.3-7.7l0,0l-8.3-11.5l-4.6-6.2l-6.8-10.4l-0.1-0.2l-33.3-43.6l0,0
				L99.9,769l0,0l-10.3-13.2c-7.2-9.3-15.5-17.4-24.3-25.1l-12.5-10.9l0,0c-5.6-4.9-10.5-10.3-15.1-16.1l-25-30.7
				c-66.8-89.9-138-176.3-201.6-268.9l0,0c-3.2-4.3-6.8-8-10.5-11.6L-203,396.2"/>
			<polygon style="fill:#FFFFFF;" points="-12.3,571.4 -5.3,580.9 -5.2,581 -2.7,582.2 -2.7,582.2 10.6,586 10.8,586 12.4,585.4
				12.5,585.3 32.8,570.1 32.9,570 34.2,566.3 34.2,566.2 33,552.9 33,552.9 32.4,549.8 32.4,549.7 24.4,540.1 23.9,540.6 31.8,550
				32.4,552.9 33.5,566.2 32.4,569.6 12.1,584.8 10.6,585.4 -2.4,581.6 -4.8,580.5 -11.8,571 			"/>
			<polygon style="fill:#FFFFFF;" points="70.1,546.8 62.8,546.6 62.6,546.6 59.8,547.1 59.8,547.2 45.7,557.7 44.5,557.7
				33.4,558.3 33.4,559 44.5,558.2 45.8,558.2 45.9,558.2 60,547.8 62.8,547.1 70,547.5 			"/>
			<polygon style="fill:#FFFFFF;" points="-38.5,523.4 -5.4,542.6 6.4,555.2 6.9,554.8 -4.9,542.1 -5,542.1 -38.1,522.8 			"/>
			<path style="fill:#FFFFFF;" d="M-328.5,492.3l0.6-40l0.6-4.1l-2.6-0.4l2.4,0.9c1.5-4.2,3.2-7.7,5.9-10.8
				c5.6-6.2,10.5-12.9,15.9-19.2l-2-1.6l1.8,1.8l7.6-7.7l7.9-7.3l5.5-3.3h0.1c1.9-1.2,3.6-1.8,6.2-2.8l5.3-2.2l0.2-0.1l5-2.5
				l5.1-1.2l4.4-0.5l0,0l4.2-0.5l5.2,0.4l30.2,4.1l6.3,1h0.3c2.6,0.1,5.1,0.3,7.8,0.3c3.4,0,6.9-0.4,10.5-1.8
				c3.2-1.2,6.2-2.9,9.3-4.3c3-1.5,5.9-2.7,8.7-3.4c0.3-0.1,3.7-0.9,3.7-0.9l-0.6-2.5l0.1,2.6l92.4-3.9l3.6,0.2l3.9,0.6L-6.3,397
				l76.9,15.7l0,0L177,434l0,0l4.9,1l0.4,0.1l16.9,1h0.1l51.9,1.8l0,0l5.6,0.2l4.2,0.7l4.6,1.1l4.1,1.7l4.3,2.7l22.1,18.8l3.7,3.9
				l0.1,0.1c5.6,5.3,9.9,11.2,11.7,18.6l1.2,5.4l3.9,37v0.1l1.1,8.3l0.1,0.3l2.2,8.9v0.1c2.7,10.3,6.9,19.6,11.2,29.1
				c5.3,11.2,10.1,22.8,15.1,34.2c2.9,6.7,5.9,13.4,8.9,20.1l0.1,0.1l3.9,7.8l0,0l2.2,4.4v0.1c3.3,6.4,7.9,11.5,12.9,16.1
				s10.3,8.6,15.2,12.9l48.8,41.7l0.1,0.1l3.4,2.6l1.5-2.1l-1.9,1.7c2.6,2.9,4.2,5.1,5.1,8.5c1,3.7,1.2,7.9,2.6,12.4
				c1.4,4.8,2.8,9.7,4.2,14.5l0.1,0.2c3,7.9,7,14.5,12.2,20.9l0.2,0.2l6.7,7.2c0.2,0.2,0.5,0.5,0.7,0.6l26.1,12.2l0,0l3.7,1.7
				l20.1,12.5l0,0l59,35.4l0,0l48.1,28.4l4.3,2.7l2.9,2.4l1.7,1.7l6.9,10.8v0.1l3.9,5.7l0.1,0.1l3,3.7l0.1,0.2l9.3,9.8l0.1,0.1
				l11.3,10.9l10.8,10.3l0.3,0.2l38.5,27.5l19.6,14.8l42.8,33.2l0.1,0.1l28.2,19.6l0.1,0.1l8.2,5l0.1,0.1l4.9,2.6l4.3,2.4l19.7,15.5
				l0,0l60.8,47.3l4,3.3l0.6,0.4l5.2,2.6l0.2,0.1l4.6,1.7l0.2,0.1l4.6,1.4l0.4,0.1l5.4,0.6h0.3l6.8,0.1h0.2l6.2-0.5l0.4-0.1l4.4-1.1
				l3.7-0.3h3.7l4.9,0.9l28.1,7.8l39.3,10.9h0.1l54.1,13.2l48.9,13.5l0,0l10.1,2.8l6.9,3.1l9.3,4.6l7,4.1l15.2,11.2l0.2,0.2
				l27.4,16.2l0.4,0.2l77,30.6l0,0l7.9,3.2c18.4,6.2,18.2-3.2,32.3-1.8l15.1,4.3l1.4-4.9l-15.4-4.4c-15.7-2.2-14.8,7.7-31.6,2
				l-7.7-3.1l0,0l-76.8-30.5l-27.1-16.1l-15.2-11.3l-0.2-0.2l-7.3-4.2l-0.2-0.1l-9.5-4.6h-0.1l-7.1-3.2l-0.4-0.1l-10.3-2.9l0,0
				l-48.9-13.5h-0.1l-54.1-13.2l-39.3-10.9l-28.3-7.8l-0.2-0.1l-5.2-1h-0.5h-4.1H959l-4.1,0.3l-0.4,0.1l-4.4,1.1l-5.8,0.5
				c-9.8,0.5-16.4-1.5-25.1-5.9l-3.7-3.1l-0.1-0.1l-60.8-47.3l0,0l-19.9-15.6c-5.9-3.6-12.3-6.2-17.9-10.3l-28.1-19.5L746,966.5l0,0
				l-19.7-14.8h-0.1l-38.4-27.5l-10.7-10.1l-11.3-10.8l-9.2-9.7l-2.8-3.7l-3.7-5.6l-7-10.9l-0.4-0.5l-2-2l-0.2-0.2l-3.1-2.6
				l-0.3-0.2l-4.6-2.8l0,0l-48.1-28.4l0,0l-59.1-35.5L505,788.7l-0.3-0.2l-4-1.8l0,0l-25.8-11.9l-6.3-6.8l-1.9,1.7l2-1.6
				c-4.9-6.3-8.7-12.3-11.4-19.6l-2.4,1l2.5-0.7c-1.4-4.8-2.8-9.7-4.2-14.5c-1-3.7-1.3-7.8-2.5-12.3s-3.4-7.6-6.2-10.5l-0.4-0.4
				l-3.3-2.5L392.1,667c-5.1-4.3-10.4-8.3-15.1-12.6c-4.7-4.3-8.9-8.9-11.8-14.6l-2.2,1.1l2.2-1.1l-2.2-4.4l0,0l-3.9-7.8l-2.2,1.1
				l2.4-1c-2.9-6.7-5.9-13.4-8.9-20.1c-5-11.4-9.8-22.9-15.1-34.3c-4.3-9.3-8.3-18.4-10.9-28.2l-2.5,0.6l2.5-0.6l-2.2-8.8l-1.1-8.1
				l-3.9-37.1L317,491l-1.3-5.5c-2.1-8.7-7.2-15.5-13.1-21.2l-1.7,1.9l1.8-1.8l-3.9-4c-18.6-13.9-21.7-24-42.6-26.6l-5.7-0.2l0,0
				l-51.8-1.8l-16.7-1l-4.7-1l0,0L70.9,408.6l0,0L-6,392.9l-66.7-13.8h-0.1l-4.1-0.6h-0.3l-3.7-0.2h-0.2l-92.5,3.9l-0.5,0.1
				c0,0-3.5,0.9-3.7,0.9c-3.4,0.7-6.7,2.2-9.8,3.7s-6.1,3.1-8.9,4.2c-2.7,1-5.6,1.4-8.7,1.4c-2.5,0-4.9-0.2-7.6-0.3l-0.1,2.6
				l0.4-2.6l-6.3-1h-0.1l-30.3-4.1h-0.2l-5.5-0.4h-0.5l-4.4,0.5l0,0l-4.6,0.5l-0.4,0.1l-5.5,1.3l-0.6,0.2l-5.2,2.6l-5.2,2.2
				c-2.2,1-4.4,1.6-7,3.2l1.4,2.2l-1.3-2.2l-5.7,3.4l-0.4,0.3l-7.8,6.8l-0.1,0.1l-7.6,7.7l-0.2,0.2c-5.3,6.4-10.3,12.9-15.6,19.1
				c-3.3,3.7-5.3,8-6.9,12.5l-0.1,0.5l-0.6,4.2v0.3l-0.6,40.1h5.1"/>
			<polygon style="fill:#FFFFFF;" points="81.7,568 71.5,555.4 70.3,551 70.7,548.2 71.5,544 74.4,537.7 79.9,527.3 79.8,521.2
				78.9,515.4 69.8,503.9 47.5,478 41.9,474.2 32.4,471.3 25.8,469.2 -6.4,454.7 -16.6,446.6 -29.9,439.9 -42.6,435.3 -63.5,429.4
				-78.1,426.7 -66.3,382.3 -52.8,330.3 -53.6,319.6 -54,313.7 -54.1,309.9 -52.9,296.7 -54.3,288.6 -54.4,283.6 -50.7,254.7
				-50.4,242.9 -48.8,238.5 -45.6,235.5 -36.2,226.1 -30.3,218.8 -28.6,213.5 -28.2,208.3 -28.7,195.5 -27.5,188.1 -21.7,179.7
				-7.8,156.1 -7.4,152.5 -7.1,139.3 -7.2,130.9 -5.1,124.2 -2.3,116.6 4,107 20.8,88.5 51.8,51.9 82.3,2.7 113.3,-48.8
				112.3,-49.5 81.2,2.1 81.7,2.3 81.2,2.1 50.8,51.1 19.8,87.8 2.9,106.2 -3.4,116.1 -6.3,123.8 -8.4,130.7 -8.4,139.3 -8.7,152.4
				-9.1,155.6 -22.8,178.9 -28.7,187.6 -30,195.5 -29.4,208.2 -29.8,213.2 -31.4,218.1 -37.2,225.3 -46.4,234.6 -49.9,237.7
				-51.6,242.7 -52,254.6 -55.5,283.6 -55.5,288.7 -54.3,296.8 -55.4,309.9 -55.4,313.8 -54.9,319.7 -53.9,330.2 -67.5,382
				-79.7,427.7 -63.8,430.8 -43,436.5 -30.4,441.1 -17.4,447.8 -7.1,455.7 25.3,470.4 32.1,472.5 41.3,475.4 46.7,479.1 68.9,504.7
				77.8,516 78.6,521.2 78.6,527 73.3,537.1 70.3,543.6 69.5,548 69.1,551.1 70.4,556 80.8,568.7 			"/>
			<path style="fill:#FFFFFF;" d="M159.3,264.5l-9.7,57.8c-2.9,18.3,15.3,23.1,10,42L149,424.7l0.6,0.1l-0.6-0.2
				c-1.7,7.1-3.3,13.5-7.3,19.3l0.6,0.4l-0.4-0.6l-3.7,2.6l0,0c0,0-42.8,35.5-85.8,71c-42.8,35.5-85.8,71.1-85.9,71.1
				c-3.1,2.6-7.3,4.2-11.3,4.2c-0.3,0-0.6,0-0.9,0v0.6l0.1-0.6l-3.7-0.7l-2.9-1.6l-0.6,1.1l3,1.7l4,0.9h0.1c0.3,0,0.6,0,1,0
				c4.4,0,8.8-1.7,12.2-4.6c0.1-0.3,171.5-142.2,171.5-142.2l-0.4-0.5l0.4,0.6l3.9-2.6l0.1-0.1c4.2-6.2,5.8-12.7,7.6-19.8l0,0
				l10.5-60.4l0.9-6.4v-4.8l-1.8-4.3l-8.1-15.6l-0.9-3.7l-0.5-3.7l0.4-3.3l9.7-57.7L159.3,264.5"/>
			<path style="fill:#FFFFFF;" d="M-932.5,1269l2.7-5.7c4.2-7.3,11.6-16.3,18.5-21l51-37l-1.5-2.1l1.4,2.1l56.4-39.7l0,0l60.8-43.3
				l0,0l25.9-18.3c9.9-6.6,17.6-13.7,26.4-21.7l5.8-5.8l0,0l6.6-6.4l0.2-0.2l4.4-5.4l0,0l7.7-9.2c25.5-30.7,43.2-70,52.5-108.7
				l1.2-7.3l0,0l3.7-21.8l3.1-16.8c2.9-16.3,8.2-28.5,16.2-42.8l10-16.7l0,0c18.6-34.6,27.6-34.9,62.4-63l4.8-2.5l10.9-4.9l20-4.9
				l6.5-1.1c8.2-1.5,16.2-4,24-6.8l0.2-0.1l6.6-2.8c11.6-7.1,22.8-14.1,36.3-17l5.5-1.5l34-4.4l0,0l19.6-2.4l0,0l51.4-6.9l0,0
				l20.8-2.9h0.1l5.7-1l0.3-0.1l3.7-1.1l0.3-0.1c8.1-3,13.8-6.9,20.1-12.9l0.1-0.1l19.9-20.2l0,0l68.3-69l0,0l26-26.7l4-3.1l3.5-2.2
				l4.3-2.6l30-14.7l0.4-0.2l8.9-6.4h0.1l5.8-4.6c8.4-6.2,16.2-13.2,22.5-21.5l0.2-0.2l3.2-4.7l0,0l4.4-6.4l0.2-0.3l3.6-6.7l0.1-0.1
				l4.1-8.7l0.1-0.2l19.3-52.4v-0.1L-5,417l0.1-0.3l1.4-6.2l0,0c1.5-6.9,2.9-16.3,2.7-23.4l-0.2-8.5l-1.3-27.1l0.1-3l0.5-3.6
				l0.6-2.7l1-2.8l14.8-36.3l0.1-0.2l1.7-5l0.1-0.4l0.9-4.4v-0.2c2.1-17.2-5.7-34.4-2.9-53l1.6-10.4v-0.2l1.4-17l0,0l0.5-5.7
				l2.2-8.9c4.4-28,18.3-37.9,35.5-60.8l0.1-0.1l2.4-3.4c4-5.6,5.9-12.4,9.7-18l24.4-30.3l0.1-0.2c0,0,16.3-24.8,32.9-49.8
				c16.5-25,33.2-50.3,34-51.4c12.5-19.1,22.9-41,36.9-58c2.6-3.1,5.5-5,8.8-6.2s7-1.7,10.9-1.8c7.1-0.1,14.7,1.4,21.7,2.5h0.4
				l9.5-0.1l0.5-0.1l83.7-16.5l22.8-4c0.3,0,0.5-0.1,0.7-0.3l7.6-3.9l0.1-0.1l10.9-6.3l0.5-0.3l13.6-12.3l0.4-0.5l9.2-13.5l0.3-0.5
				l13-33.2l5-10l10.5-16.8l9.7-11.4l0.1-0.1l11.3-15.2l0.3-0.6l8.8-21l0,0l10.5-25.5c4.3-10.5,11.4-20.1,19.4-29.3
				c8-9.3,16.9-17.9,24.6-26.7c9.6-10.9,19.2-21.7,28.9-32.6l-1.9-1.7l1.7,1.9l12.6-11.5l0,0l8.7-8.2l9.3-6.2l-2.7-4.2l-9.4,6.2
				l-0.4,0.3l-8.8,8.3l-12.6,11.5l-0.2,0.2c-9.6,10.9-19.2,21.7-28.9,32.6c-7.7,8.6-16.5,17.4-24.7,26.7
				c-8.2,9.4-15.6,19.4-20.3,30.7l-10.5,25.5l0,0l-8.6,20.8l-11,14.8l-9.8,11.5l-0.2,0.3L411.6-184l-0.1,0.2l-5.1,10.3l-0.1,0.2
				l-12.9,33.1l-8.9,13l-13.2,11.9l-10.7,6.2l-7.2,3.7l-22.4,4h-0.1l-83.4,16.5l-9.3,0.1v2.6l0.4-2.6c-6.8-1-14.6-2.6-22.4-2.5
				c-4.2,0-8.6,0.6-12.6,2.1s-7.8,4-10.9,7.8c-14.5,17.7-24.9,39.8-37.2,58.4c-1.4,2.1-66.8,101.3-66.8,101.3l2.1,1.4l-2-1.6
				l-24.4,30.5l-0.2,0.3l-1.5,2.6C54,137.6,34,152.3,23.3,173.2v0.1l-1.5,3.4l-0.1,0.3L16,196.7v0.1l-2.2,9.3l-0.1,0.4l-0.5,5.9l0,0
				l-1.4,16.9l-1.6,10.4v0.2l-0.4,5.7v0.1l-0.3,6.4v0.3l0.5,5.2v0.1l3.3,26.5c2.4,21.7-19.8,45.2-19.8,67.6v0.2l1.3,27.1l0.2,8.4
				c0.2,9.6-1.8,19.1-4,28.4l-12.1,36.6l-19.7,51.8c-4.3,10.9-8.7,16.8-15,25.9l-6.1,7.4l-4.6,4.4l-4.9,4.3l-6.2,4.8l0,0l-5.6,4.2
				l-8.8,6.3l-29.9,14.7c-4.4,2.7-9.2,5.2-13,8.8l-26.2,26.9l0,0l-68.3,69l0,0l-19.8,20.2l-4.9,4.2l-4.6,3.3l-4.6,2.5l-4.6,1.9
				l-3.5,1l-5.6,1l-20.8,3l0,0l-51.4,6.9l-19.6,2.4l0,0L-403,732l-0.4,0.1l-5.6,1.6l-6.5,1.8l-0.3,0.1l-6.1,2.2h-0.1l-5.7,2.5
				c-11.1,5.6-18.3,12.2-31.1,15.6l-7.7,2.2l-9.4,2.2l-6.6,1.1h-0.2l-20.1,4.9l-0.5,0.2l-11.1,5l-0.1,0.1l-5.1,2.6l-0.4,0.3
				l-38.6,30.3l-0.1,0.1c-4.6,4-8.9,8.1-12.2,13.2l-6.7,10.2l-0.1,0.1l-6.2,10.7l0,0l-10,16.7c-22,34.7-18.3,77.5-32,115.1l-3.7,10
				l0,0l-4.4,11.6c-14,32.8-34.7,62.2-60.6,86.6l-8.1,7.3l0,0l-5.4,4.8l-4,3.1l-8.4,6.2l-25.9,18.3l0,0l-60.4,43.2l0,0l-56.3,39.7
				l0,0l-51,37l-0.1,0.1l-5.2,4.2l-0.3,0.3l-3.7,3.9l-0.1,0.1c-4.2,4.2-7.6,9.1-10.5,14.1l-0.2,0.3l-2.7,5.7L-932.5,1269"/>
			<path style="fill:#FFFFFF;" d="M-780.8,1420.7l112.7-59l0.3-0.2l71.1-51.4l0.1-0.1l30.8-25.7l0.1-0.1c1.3-1.2,2.6-2.5,3.7-3.6
				c13.3-12.7,27.2-25.2,40.2-38.6c8.8-9.1,17.8-18.8,25.5-29.1c0.2-0.3,7.1-9.5,14-18.9c6.9-9.3,13.7-18.4,13.7-18.4l0.1-0.1
				l11.7-17.4c13.9-19.2,24.4-40.5,35.7-61.2l7.2-17.4l0,0c10.3-24.4,18.1-52.7,24.2-78.5l10.1-51.5l2.7-10.1l-2.5-0.6l2.4,1
				c3.5-8.4,6.5-17.2,11.1-24.6l5.3-8.2l4.9-7.2l8.5-8.9l-1.8-1.8l1.8,1.8l44-45l0.1-0.1l68.3-73.8l0,0l7-7.7l0,0l12.9-14
				c11.8-13.2,21.8-24.8,38-32.6l10.3-5.1l-1.1-2.2l0.9,2.5c17.4-5.9,35.1-9.8,53.2-13.6h0.1l13.8-3.2l0.3-0.1l9.8-3.5h0.1
				c8.4-3.2,16.9-6.4,25-10.8l0,0c0.3-0.2,12.4-6.6,12.4-6.6l0.3-0.2l17.9-13.1l0.1-0.1l24.4-19.4l57.8-44l-2.4,0.6l76.6-58.9
				l2.6-0.6l31.4-27.1l0,0l39.3-34.3h0.1l14.8-13.7l0.1-0.1l18.1-19.3l8.9-8.2l6.3-5.6l27.6-19.6l0.2-0.2l55.7-48.5l14.2-12l0.2-0.2
				c8.5-8.6,16.3-17.2,23.8-26.9c6.6-8.5,11.1-17.9,16.1-27.1l0.1-0.3l8.3-20.4l11.6-27.3l0,0l74.1-181.3l0,0l24.8-60.6l0.1-0.2
				l25.4-82.6l34.3-65.1v-0.1l26.9-55l0.2-0.6l14.1-65.5l4.9-20.2l4.9-12l-4.7-2l-5,12.2l-0.1,0.4l-4.9,20.4v0.1l-14.1,65.2
				l-26.8,54.7l-34.4,65.3l-0.2,0.5L496.1,4.9l-24.7,60.5l0,0l-74.1,181.3L385.7,274l0,0l-8.3,20.5l2.4,1l-2.2-1.2
				c-4.9,9.3-9.4,18.4-15.6,26.3c-7.3,9.3-15,17.9-23.4,26.4l1.8,1.8l-1.6-2l-14.4,12l0,0l-55.7,48.4l-27.6,19.6
				c-17.8,14.1-31.1,32.8-48.7,47.3l-39.3,34.3l0,0l-31.3,27.1l-76.7,58.9l0,0l-57.8,44l0,0l-24.4,19.3L-55,670.8l1.5,2.1l-1.2-2.2
				c0,0-3,1.6-6.1,3.2c-3,1.6-6.2,3.3-6.3,3.3l0,0c-7.7,4.2-16.1,7.3-24.4,10.5l1,2.4l-0.9-2.4l-9.7,3.4l-13.7,3.2l0.6,2.5l-0.5-2.5
				c-18.1,3.7-36,7.7-53.8,13.8l-0.3,0.1c-14.1,6.4-28,14.5-38.4,26.3l-11.4,12.5l0,0l-13,13.9l0,0l-7,7.7l0,0l-68.3,73.7l-44,45
				c-6.2,5.7-9.9,9.9-14.1,16.9l-5.3,8.2c-5.2,8-8.2,17.2-11.6,25.4l-0.1,0.2l-2.7,10.2v0.2l-10.1,51.5l-4.3,18l-4.9,17.5l-4.6,15.3
				l-5.2,15.2l-4.7,11.6l0,0l-7.2,17.2l-6.6,12.4l0,0l-7.7,14.5l-9.4,16.4l-11.4,17.2l-11.7,17.4l2.1,1.4l-2.1-1.5
				c0,0-27.3,36.8-27.6,37.3c-7.4,10-16.3,19.6-25.1,28.6c-12.9,13.2-26.7,25.5-40.1,38.4c-1.2,1.2-2.6,2.5-3.7,3.6l1.7,1.9l-1.6-2
				l-30.7,25.7l-70.7,51.3l-112.6,58.9L-780.8,1420.7"/>
			<path style="fill:#FFFFFF;" d="M-1706.5,1994.1l10.9-26.7l14-30c4.9-10.5,10.3-22.3,17-31.2l0,0c4.6-6.1,9.3-12.1,14.1-18.1l0,0
				c1.5-1.9,2.9-3.7,4.4-5.7l-2-1.6l1.8,1.8l29.8-29.5c6.7-6.6,12.7-14.9,18.8-21.7c7.6-8.5,15.4-16.7,23.4-24.7l0,0
				c8.2-8.1,13.4-18.5,19.1-27.6l-2.2-1.3l2,1.6l32.9-40.5l20.1-20.8l-1.8-1.8l1.8,1.8c4.9-4.8,9.6-9.6,14.5-14.4
				c4.2-4.2,9.4-7.9,13.4-13.3c4.3-5.8,6.6-12.5,9.6-18.3l-2.2-1.1l2.2,1.3l12.3-19.8l0.1-0.1c3.6-6.5,7.1-13.1,10.7-19.6
				c6.2-11.2,12.3-22.5,18.3-33.9c8.1-15.3,19.2-28.5,29.9-42.5c1.1-1.5,2.2-2.9,3.4-4.4l0.1-0.1c18.9-26.5,37.9-52.9,56.4-79.5
				l16.7-26.4l0,0l12.9-19.8l0,0l33.6-50.8l20.8-30.7l0,0l29.5-42.6l1.7-1.9l0.1-0.1l15.5-19.1c1.2-1.5,1.9-3.3,2.6-4.8
				c0.6-1.6,1.2-2.9,2-3.9c1.3-1.7,3-3.4,4.8-5.3l-1.9-1.7l1.8,1.8l7.6-7.8l0,0l16.2-17l0,0l8.3-9.1l0,0l2.9-3.2l1.3-1.1
				c10.4-12.5,23.3-22.8,32.8-35.9l9.6-13.4l0.1-0.1c9.3-14.5,17.8-30,30.8-41.5l2.5-2l6.3-4.6c2.2-1.6,4.7-3,7.3-4.6l-1.4-2.2
				l1.2,2.2l7.3-4.1l7.8-3.4l13.9-5.3l0,0l36.9-14.2l0,0l38.2-14.6l0,0l35.6-13.8l0,0l35.1-13.4l0,0l31.3-12l0,0l30.7-11.9l0,0
				c27.1-10.9,45.4-14.1,63.1-36.7l3.1-5l0.1-0.1l4.2-7.4l0.1-0.1l14.5-28l4.6-8.4l0.1-0.3l1.8-4.6l0.1-0.2l1.9-6.1
				c2.9-10.7,5.3-21.4,6.7-32.3v0.1l1.9-17.7l1.9-14.6l0,0l3-21.4l1-6.6l0,0l1.1-8.1c1-9.7,4.7-21.7,9.4-30.2l3.9-6.6l-2.2-1.3
				l2.2,1.3l3.1-5.1l11.6-14.5l9.8-11.9l0,0l30.4-38.6l0,0l26.7-33.7l0,0l14.5-18.6l10.8-10.3l0,0l19-18.4l27.8-25.7l0.1-0.1
				l22.3-21.9l9.5-7.4l10.8-8l0.1-0.1l26.4-20.9l0,0l26.7-21l0,0l6.8-5.7l0.3-0.3l3.3-3.7l0,0l4.1-4.6l0.3-0.4
				c13-22.2,25.2-45.1,37.8-67.7l2.6-4.2l2.2-3c3.7-6.3,9.6-10.8,13.6-16.7l0,0l5.7-7l0,0l6.1-7.4c20-25.2,41.9-48.8,61.2-74.5
				l2.6-4.3l0,0l6.4-10.5c12.4-19.3,23.4-39.6,35.9-59l2.2-2.6c0.9-1,2.2-1.9,4.1-2.5c1.8-0.6,3.7-1,5.7-1.3l0.3-0.1l14.6-4.4
				l11.9-2.4l5.1-0.6c0.5-0.1,1-0.1,1.5-0.1c2.5,0,5.1,0.5,7.7,1l0.5-2.6l-1,2.4l3.7,1.5l4.2,2l14.4,7.9l0,0c0,0,6.7,3.7,7,3.9
				c3.3,1.9,7.3,2.6,11.1,2.6c2.8,0,5.7-0.5,8.2-1.5l-1-2.4l0.9,2.5l3.6-1.2c7.2-4,13.3-10.5,18.3-16.9l4.3-6.3
				c3.1-4.6,4.6-9.4,4.6-14.6c0-1-0.1-1.9-0.2-2.8c0-0.3-0.1-0.5-0.2-0.6l-1.4-3.6l0,0l-2.6-6.4v-0.1l-4.3-10.1
				c-0.9-2-1.2-4.7-1.2-7.4c0-1.8,0.1-3.7,0.2-5.5l-2.6-0.1l2.5,0.5c0.4-2.2,0.7-4.4,1.2-6.6c0.6-3.1,0.6-6.2,0.6-9.3v-0.1
				c0-1.8-0.4-3.3-0.7-4.6c-0.4-1.3-0.6-2.5-0.6-3.5l0,0v-0.1c0-0.9,0.4-2,1-3.6l-2.4-0.9l2.1,1.5l1.6-2.2l8.4-8.6l0,0l16.3-16.3
				l0,0l17.7-17.7l0.2-0.2c2.4-2.7,4.2-5.1,5.7-7.8c1.5-2.6,2.6-5.5,3.5-9.1v-0.2l3.7-24.2l1-3.2c1.3-4.6,4.1-7.6,7.8-10.1
				c3.7-2.6,8.3-4.6,12.7-7l-1.2-2.2l1.1,2.2l5.7-2.9c5.2-2.6,9.3-7.1,13.1-11.8c3.7-4.7,7-9.7,10-13.4l-2-1.6l2,1.6L-9,4
				C-2.9-4.5,1.5-14.1,6.6-23.2l21.6-42.6l41.2-4.6l-0.6-5.1l-42.6,4.7c-0.9,0.1-1.6,0.6-2,1.4L2.1-26L-11.1-2.6l-2,2.9L-43.8,37
				l0,0c-3.2,4.1-6.5,8.9-10,13.5s-7.3,8.4-11.4,10.5l-5.8,3h-0.1c-4.2,2.2-8.9,4.3-13.2,7.3c-4.2,3-8.1,7-9.7,12.9l-1,3.4l-0.1,0.3
				l-3.7,24.3l2.6,0.4l-2.5-0.6c-0.9,3.2-1.7,5.6-3,7.7c-1.2,2.2-2.9,4.3-5.1,7l2,1.6l-1.8-1.8l-17.7,17.7l0,0l-16.3,16.3l0,0
				l-8.6,8.7l-0.3,0.3l-1.8,2.5l-0.4,0.6c-0.5,1.3-1.2,3-1.2,5.3v0.3l0,0c0.1,1.8,0.5,3.3,0.9,4.6c0.4,1.3,0.6,2.5,0.6,3.5v0.1l0,0
				c0,2.9-0.2,5.7-0.6,8.5c-0.4,2.2-0.7,4.4-1.1,6.6v0.4c-0.1,1.8-0.2,3.7-0.2,5.7c0,3.1,0.3,6.4,1.6,9.4l4.3,10l2.6,6.4l0,0
				l1.4,3.6l2.4-1l-2.6,0.3c0.1,0.9,0.1,1.6,0.1,2.4c0,4.2-1,8-3.6,11.7l-4.2,6.2l-6.7,7.4l-6.2,5.4l-3.4,2.2l-3.3,1.1h-0.1
				c-1.9,0.7-4.2,1.1-6.4,1.1c-3.1,0-6.2-0.6-8.7-2c-0.3-0.2-7-3.9-7-3.9l0,0c-7.3-4.2-14.8-8.5-22.7-11.7l-0.6-0.2
				c-2.6-0.5-5.6-1-8.7-1c-0.6,0-1.3,0-2,0.1l-5.2,0.6h-0.2l-12.1,2.5l-0.2,0.1l-14.7,4.4l0.7,2.5l-0.5-2.6
				c-1.9,0.4-4.2,0.7-6.4,1.5c-2.2,0.7-4.6,1.9-6.3,4l-2.4,2.8l-0.2,0.3l-3.4,5.4v0.1l-18.1,30.1l0,0l-14.5,23.6l0,0l-6.4,10.5l0,0
				l-2.6,4.2l-5.3,6.9l-28.1,34.2l0,0l-27,32.9l0,0l-6.1,7.4l0,0l-5.7,7l0,0l-4.8,5.9c-5.7,5.5-10,12.1-14.1,18.7l-11.8,21.5l0,0
				l-23.7,41.2l-2.8,4.9c-11,14.1-27.5,22.4-40.4,34.4l0,0l-26.3,20.9l-10.8,8h-0.1l-9.6,7.6l-0.2,0.2l-22.4,22.2l-27.8,25.7l0,0
				l-19.1,18.4l0,0l-10.9,10.3l-0.3,0.3c-30.8,39.4-62,78.7-93.2,117.9l-3.1,5.3l0,0c-6.8,10.5-10.7,20.7-13.2,32.9v0.2l-0.7,5.5
				l0,0l-1.1,8.1l0,0l-1,6.6l-3,21.4l0,0l-1.9,14.6v0.1L-736,904l-1.6,10.5l-2.8,13.4l-2,7.7l-1.8,5.8l-1.7,4.2l-4.6,8.2v0.1
				L-765,982l-4.2,7.3l-3,4.8l-2.6,3.1l-2.7,3l-4.9,4.3l0,0l-3.9,3.6l-4.4,3l-5.1,2.7l-3.5,1.8l-33.5,13.2l0,0l-30.7,11.9l0,0
				l-31.2,12.2l0,0l-35.1,13.4l0,0l-35.6,13.8l0,0l-38.2,14.6l0,0l-36.9,14.2l0,0l-14,5.3h-0.1l-8,3.5l-0.2,0.1l-7.4,4.1l-0.2,0.1
				c-2.4,1.5-4.9,3-7.4,4.8l-6.4,4.6l-0.1,0.1c-6.2,4.6-11.1,10.8-16.1,16.7l-3.2,4.2l-0.7,1c-2.2,2.7-3.7,5.9-5.7,8.8l-8.8,14
				l-9.8,13.5l2.1,1.5l-2.1-1.5l-2.9,4.1c-13.6,15-28.4,29.5-42,44.8l-16.2,17l0,0l-7.6,7.8l0,0c-1.6,1.7-3.5,3.5-5.1,5.7
				c-1.2,1.7-2,3.4-2.6,5c-0.6,1.5-1.2,2.8-1.9,3.6l-15.5,19.1l-1.8,2l-0.2,0.3l-29.5,42.8l0,0l-20.9,30.7l0,0l-33.6,50.8l0,0
				l-12.9,19.8l0,0l-16.6,26.1l-20.1,28.6l0,0l-17.6,25l-7.3,9.8l0,0l-11.2,16l2.1,1.5l-2-1.6c-1.1,1.5-2.2,3-3.4,4.4
				c-10.7,13.9-21.9,27.4-30.3,43.1c-6.1,11.3-12.2,22.5-18.3,33.9c-3.5,6.5-7.1,13.1-10.7,19.6l2.2,1.2l-2.2-1.3l-12.3,19.8
				l-0.1,0.2c-3.1,6.2-5.5,12.5-9.2,17.6c-3.3,4.6-8.2,8.3-12.9,12.6c-5,4.7-9.7,9.6-14.5,14.4l-0.1,0.1l-20.2,20.9l-0.2,0.2
				l-33,40.6l-0.2,0.3c-5.8,9.4-10.9,19.3-18.4,26.7c-8.1,8-16,16.4-23.6,24.9c-6.4,7.2-12.4,15.3-18.7,21.5l-29.8,29.5l-0.2,0.2
				c-1.5,1.9-2.9,3.7-4.4,5.7l0,0c-4.7,6.1-9.5,12-14.1,18.2c-7.2,9.6-12.6,21.6-17.6,32.2l-14,30.1v0.1l-10.9,26.8L-1706.5,1994.1"
				/>
		</g>
	</g>
</g>
<g id="map_labels">
	<g id="gold">
		<g id="Gold">
			<g>
				<polygon style="fill:#B4985A;fill-opacity:0.75;" points="507,332.3 519.3,322.5 519.3,319.3 518.3,318.2 517.7,317.6
					516.5,316.5 515.5,315.4 514.4,314.2 513.4,313 512.2,311.9 511.3,310.6 510.2,309.4 509.1,308.3 508.1,307 507,305.7
					506,304.5 505.1,303.3 503.9,302.1 503.1,301.1 502.3,300.8 501.8,301.4 501.2,301.9 500.5,302.3 494.1,307.6 492.7,308.7
					492.3,309 492,309.3 491.4,309.5 490,310.4 489.3,310.7 488.6,311.2 488.2,311.5 486.2,312.9 485.5,313.5 484.6,314.2
					484,314.7 483.4,315.1 480.1,317.7 479.3,318.4 478.8,318.9 478.2,319.4 477.7,319.8 476.1,320.8 474.9,321.6 473.8,322.5
					462.7,331.7 458.7,336 458.3,338.4 461.2,344.4 461.7,345.4 462.3,346.2 466.3,352.5 469.1,356.6 469.1,356.6 472.2,358
					475.1,358.3 482.3,352.2 489,347 498.2,339.5 				"/>
			</g>
		</g>
	</g>
	<g id="Map-Labels_1_">
		<g>
			<path style="fill:#868686;" d="M404.2,542.8l-1.6-0.3l-0.7,0.6l2,1.2l1,2l0.7-0.6l-0.2-1.6l2.6-2.3l2.2,4.8l1-0.8l-1-5.8l2.6-2.3
				c0.4-0.4,0.4-1,0.1-1.3c-0.4-0.4-1-0.4-1.3-0.1l-2.6,2.3l-5.7-1.7l-1,0.8l4.6,2.7L404.2,542.8z"/>
			<path style="fill:#868686;" d="M399.4,548.4c4.3,4.8,11.8,5.2,16.6,0.9c4.8-4.3,5.2-11.8,0.9-16.6c-4.3-4.8-11.8-5.2-16.6-0.9
				C395.5,536.2,395.1,543.6,399.4,548.4 M416,533.5c3.9,4.3,3.5,11-0.7,14.9c-4.3,3.9-11,3.5-14.9-0.7c-3.9-4.3-3.5-11,0.7-14.9
				C405.4,528.8,412.1,529.2,416,533.5"/>
		</g>
		<g>
			<g>
				<g>
					<g>
						<g>
							<g>
								<g>
									<g>
										<g>
											<g>
												<g>
													<g>
														<g>
															<g>
																<g>
																	<g>
																		<g>
																			<g>
																				<defs>
																					<path id="SVGID_1_" d="M386.8,222.1L386.8,222.1c0.1,0,0.1-0.1,0.1-0.1L386.8,222.1z"/>
																				</defs>
																				<clipPath id="SVGID_2_">
																					<use xlink:href="#SVGID_1_"  style="overflow:visible;"/>
																				</clipPath>

																					<radialGradient id="SVGID_3_" cx="6713.1235" cy="318.1284" r="1.276" gradientTransform="matrix(-5.9121 4.2812 -4.2812 -5.9121 41442.6055 -26645.4688)" gradientUnits="userSpaceOnUse">
																					<stop  offset="0" style="stop-color:#FFFFFF"/>
																					<stop  offset="0.8587" style="stop-color:#FFFFFF"/>
																					<stop  offset="1" style="stop-color:#FFFFFF"/>
																				</radialGradient>
																				<polygon style="clip-path:url(#SVGID_2_);fill:url(#SVGID_3_);" points="387,222 386.9,222.2 386.7,222
																					386.9,221.8 																				"/>
																			</g>
																		</g>
																	</g>
																</g>
															</g>
														</g>
													</g>
												</g>
											</g>
										</g>
									</g>
								</g>
							</g>
						</g>
					</g>
				</g>
			</g>
		</g>
		<g>
			<g>
				<g>
					<g>
						<g>
							<g>
								<g>
									<g>
										<g>
											<g>
												<g>
													<g>
														<g>
															<g>
																<g>
																	<g>
																		<g>
																			<g>
																				<defs>
																					<path id="SVGID_4_" d="M386.8,222.1L386.8,222.1c0.1,0,0.1-0.1,0.1-0.1L386.8,222.1z"/>
																				</defs>
																				<clipPath id="SVGID_5_">
																					<use xlink:href="#SVGID_4_"  style="overflow:visible;"/>
																				</clipPath>

																					<radialGradient id="SVGID_6_" cx="6713.1235" cy="318.1284" r="1.276" gradientTransform="matrix(-5.9121 4.2812 -4.2812 -5.9121 41442.6055 -26645.4688)" gradientUnits="userSpaceOnUse">
																					<stop  offset="0" style="stop-color:#FFFFFF"/>
																					<stop  offset="0.8587" style="stop-color:#FFFFFF"/>
																					<stop  offset="1" style="stop-color:#FFFFFF"/>
																				</radialGradient>
																				<polygon style="clip-path:url(#SVGID_5_);fill:url(#SVGID_6_);" points="387,222 386.9,222.2 386.7,222
																					386.9,221.8 																				"/>
																			</g>
																		</g>
																	</g>
																</g>
															</g>
														</g>
													</g>
												</g>
											</g>
										</g>
									</g>
								</g>
							</g>
						</g>
					</g>
				</g>
			</g>
		</g>
		<g>
			<g>
				<g>
					<g>
						<g>
							<g>
								<g>
									<g>
										<g>
											<g>
												<g>
													<g>
														<g>
															<g>
																<g>
																	<g>
																		<g>
																			<g>
																				<defs>
																					<path id="SVGID_7_" d="M418.2-1.5v-0.2c0-0.6,0-1,0-1c0-0.4,0-0.9-0.1-1.2l-4.2-7.5c-1.1-0.9-2.6-1.4-4.1-1.8
																						L418.2-1.5z"/>
																				</defs>
																				<clipPath id="SVGID_8_">
																					<use xlink:href="#SVGID_7_"  style="overflow:visible;"/>
																				</clipPath>

																					<linearGradient id="SVGID_9_" gradientUnits="userSpaceOnUse" x1="6448.6323" y1="-814.6082" x2="6449.9087" y2="-814.6082" gradientTransform="matrix(-3.759 -10.3278 10.3278 -3.759 33069.957 63537.1914)">
																					<stop  offset="0" style="stop-color:#FFFFFF"/>
																					<stop  offset="0.8587" style="stop-color:#FFFFFF"/>
																					<stop  offset="1" style="stop-color:#FFFFFF"/>
																				</linearGradient>
																				<polygon style="clip-path:url(#SVGID_8_);fill:url(#SVGID_9_);" points="410.9,1.1 406.1,-11.9 417.3,-15.9
																					422,-2.9 																				"/>
																			</g>
																		</g>
																	</g>
																</g>
															</g>
														</g>
													</g>
												</g>
											</g>
										</g>
									</g>
								</g>
							</g>
						</g>
					</g>
				</g>
			</g>
		</g>
		<g>
			<g>
				<path style="fill:none;stroke:#808080;stroke-width:2;stroke-miterlimit:10;" d="M366.9,143.7c0,5.3-4.3,9.6-9.6,9.6
					c-5.3,0-9.6-4.3-9.6-9.6c0-5.3,4.3-9.6,9.6-9.6C362.6,134.1,366.9,138.3,366.9,143.7z"/>
				<path style="fill:#868686;" d="M353.6,143.9v3.1c2.1,1.4,4.8,1.4,7,0v-3.1l-3.5,1.3L353.6,143.9z"/>
				<path style="fill:#868686;" d="M361.9,147.3v-4.5l1.5-0.6l-6.3-2.5l-6.3,2.5l6.3,2.5l4.2-1.7l-4-0.6c-0.1,0.1-0.1,0.1-0.2,0.1
					c-0.2,0-0.4-0.1-0.4-0.3c0-0.1,0.2-0.3,0.4-0.3c0.1,0,0.3,0.1,0.4,0.1l4,0.6v4.7c-0.2,0.1-0.4,0.3-0.4,0.6
					c0,0.7,0.6,1.1,0.6,1.1s0.6-0.3,0.6-1.1C362.4,147.6,362.2,147.3,361.9,147.3"/>
			</g>
			<g>
				<path style="fill:none;stroke:#808080;stroke-width:2;stroke-miterlimit:10;" d="M575.2,164.4c0,5.3-4.3,9.6-9.6,9.6
					s-9.6-4.3-9.6-9.6c0-5.3,4.3-9.6,9.6-9.6S575.2,159.1,575.2,164.4z"/>
				<path style="fill:#868686;" d="M561.9,164.5v3.1c2.1,1.4,4.8,1.4,7,0v-3.1l-3.5,1.3L561.9,164.5z"/>
				<path style="fill:#868686;" d="M570.2,168v-4.5l1.5-0.6l-6.3-2.5l-6.3,2.5l6.3,2.5l4.2-1.7l-4-0.6c-0.1,0.1-0.1,0.1-0.2,0.1
					c-0.2,0-0.4-0.1-0.4-0.3c0-0.1,0.2-0.3,0.4-0.3c0.1,0,0.3,0.1,0.4,0.1l4,0.6v4.7c-0.2,0.1-0.4,0.3-0.4,0.6
					c0,0.7,0.6,1.1,0.6,1.1s0.6-0.3,0.6-1.1C570.7,168.3,570.4,168.1,570.2,168"/>
			</g>
			<g>
				<path style="fill:none;stroke:#808080;stroke-width:2;stroke-miterlimit:10;" d="M448.8,158.5c0,5.3-4.3,9.6-9.6,9.6
					c-5.3,0-9.6-4.3-9.6-9.6c0-5.3,4.3-9.6,9.6-9.6C444.5,148.9,448.8,153.2,448.8,158.5z"/>
				<path style="fill:#868686;" d="M435.5,158.7v3.1c2.1,1.4,4.8,1.4,7,0v-3.1L439,160L435.5,158.7z"/>
				<path style="fill:#868686;" d="M443.8,162.2v-4.5l1.5-0.6l-6.3-2.5l-6.3,2.5l6.3,2.5l4.2-1.7l-4-0.6c-0.1,0.1-0.1,0.1-0.2,0.1
					c-0.2,0-0.4-0.1-0.4-0.3c0-0.1,0.2-0.3,0.4-0.3c0.1,0,0.3,0.1,0.4,0.1l4,0.6v4.7c-0.2,0.1-0.4,0.3-0.4,0.6
					c0,0.7,0.6,1.1,0.6,1.1s0.6-0.3,0.6-1.1C444.3,162.5,444.1,162.2,443.8,162.2"/>
			</g>
			<g>
				<path style="fill:none;stroke:#808080;stroke-width:2;stroke-miterlimit:10;" d="M386.9,76.5c0,5.3-4.3,9.6-9.6,9.6
					c-5.3,0-9.6-4.3-9.6-9.6s4.3-9.6,9.6-9.6C382.5,66.9,386.9,71.2,386.9,76.5z"/>
				<path style="fill:#868686;" d="M373.5,76.7v3.1c2.1,1.4,4.8,1.4,7,0v-3.1L377,78L373.5,76.7z"/>
				<path style="fill:#868686;" d="M381.8,80.1v-4.5l1.5-0.6l-6.3-2.5l-6.3,2.5l6.3,2.5l4.2-1.7l-4-0.6c-0.1,0.1-0.1,0.1-0.2,0.1
					c-0.2,0-0.4-0.1-0.4-0.3c0-0.1,0.2-0.3,0.4-0.3c0.1,0,0.3,0.1,0.4,0.1l4,0.6v4.7c-0.2,0.1-0.4,0.3-0.4,0.6
					c0,0.7,0.6,1.1,0.6,1.1s0.6-0.3,0.6-1.1C382.3,80.5,382.2,80.2,381.8,80.1"/>
			</g>
			<path style="fill:none;stroke:#808080;stroke-width:2;stroke-miterlimit:10;" d="M300.9,352.3c0,5.2-4.2,9.4-9.4,9.4
				c-5.2,0-9.4-4.2-9.4-9.4s4.2-9.4,9.4-9.4C296.6,342.9,300.9,347.1,300.9,352.3z"/>
			<polygon style="fill:#868686;" points="294.9,352.2 298.1,350.4 296.3,347.4 293.1,349.2 293.1,345.6 289.7,345.6 289.7,349.2
				286.5,347.4 284.7,350.5 288,352.3 284.7,354.2 286.5,357.2 289.7,355.3 289.7,359 293.1,359 293.1,355.2 296.4,357.1
				298.1,354.1 			"/>
			<path style="fill:#FFFFFF;" d="M291.7,351.5v-0.7c0,0,0.2,0.1,0.3-0.1c0,0,0.1-0.1,0.1-0.2c0,0,0.1-0.4,0.4-0.5
				c0,0,0.1-0.1,0.2,0c0,0,0.2,0.1,0.7,0.3c0,0,1.1,0.6,1.7,0.3c0,0,0.2-0.1,0.1,0.1c0,0-0.2,0.3-0.6,0.3c0,0,0.1,0.3-0.5,0.1
				c0,0,0.1,0.4-0.5,0.2c0,0-0.1,0.4-0.5,0.1c0,0-0.1,0.3-0.6,0c0,0-0.1,0.1-0.2,0.2C292.1,351.7,292,351.7,291.7,351.5"/>
			<path style="fill:#FFFFFF;" d="M291.2,351.5v-0.7c0,0-0.2,0.1-0.3-0.1c0,0-0.1-0.1-0.1-0.2c0,0-0.1-0.4-0.4-0.5
				c0,0-0.1-0.1-0.2,0c0,0-0.2,0.1-0.7,0.3c0,0-1.1,0.6-1.7,0.3c0,0-0.2-0.1-0.1,0.1c0,0,0.2,0.3,0.6,0.3c0,0-0.1,0.3,0.5,0.1
				c0,0-0.1,0.4,0.5,0.2c0,0,0.1,0.4,0.5,0.1c0,0,0.1,0.3,0.6,0c0,0,0.1,0.1,0.2,0.2C290.7,351.7,290.8,351.7,291.2,351.5"/>
			<path style="fill:#FFFFFF;" d="M291,352.4c0,0-0.1-0.2-0.3-0.3c-0.2-0.1-0.5,0.1-0.6,0.1c0,0-0.5,0-0.6,0.3c0,0-0.1,0.1,0.1,0.3
				c0,0,0.4,0.5,1.5,0.6c0,0,0.7-0.1,1,0.3c0,0,0.5,0.4-0.5,0.7v0.1c0,0,0.1,0.1,0.2,0.1c0,0,0.7-0.3,0.7-0.7c0,0-0.1-0.6-1.3-0.7
				c0,0-0.6,0-0.7-0.1c0,0-0.6-0.1-0.7-0.3c0,0-0.2-0.2,0.1-0.3c0,0,0.3,0,0.4,0.1l0.2,0.1C290.6,352.5,290.8,352.5,291,352.4
				C291,352.4,291.1,352.4,291,352.4"/>
			<path style="fill:#FFFFFF;" d="M293.4,352.4c-0.1-0.3-0.6-0.3-0.6-0.3c-0.2,0-0.5-0.1-0.6-0.1c-0.2,0.1-0.3,0.3-0.3,0.3
				c0,0.1,0,0.1,0,0.1c0.2,0.2,0.5,0.1,0.5,0.1c0.1-0.1,0.2-0.1,0.2-0.1c0.2-0.1,0.4-0.1,0.4-0.1c0.3,0.1,0.1,0.3,0.1,0.3
				c-0.1,0.2-0.7,0.3-0.7,0.3c-0.1,0-0.3,0.1-0.5,0.1c0.1,0,0.4,0.1,0.5,0.2c0.6-0.2,0.9-0.5,0.9-0.5
				C293.4,352.5,293.4,352.4,293.4,352.4"/>
			<path style="fill:#FFFFFF;" d="M290.5,353.3c0,0,0.3,0.1,0.5,0.1c0,0-0.6,0.2-0.2,0.6c0.1,0.1,0.1,0.1,0.2,0.1
				c0,0,0.5,0.2,0.6,0.2c0,0,0.5,0.1,0.6,0.5c0,0,0.2,0.5-0.4,0.9l-0.1-0.1v-0.1c0,0,0.7-0.5-0.1-0.9l-0.4-0.1c0,0-0.5-0.2-0.8-0.5
				C290.3,354,290,353.6,290.5,353.3"/>
			<path style="fill:#FFFFFF;" d="M291,354.6l0.2,0.1v0.1c0,0-0.7,0.4,0.1,0.9l0.3,0.2c0,0,0.7,0.4,0.1,1.1l-0.1-0.1v-0.2
				c0,0,0.4-0.3-0.1-0.6c0,0-0.3-0.2-0.4-0.3c0,0-0.3-0.2-0.4-0.5C290.7,355.3,290.6,354.9,291,354.6"/>
			<path style="fill:#FFFFFF;" d="M291.2,355.8l0.1,0.1v0.2c0,0-0.3,0.3,0,0.5l0.3,0.3c0,0,0.5,0.3,0.1,1v-0.4c0,0,0.1-0.4-0.3-0.5
				c0,0-0.4-0.2-0.4-0.5C290.9,356.5,290.8,356.1,291.2,355.8"/>
			<path style="fill:#FFFFFF;" d="M274.5,371.8L274.5,371.8l0.1,0.9c0,0-0.1,1,0.6,1.8c0,0-1.3-1-1-2.2
				C274.1,372.3,274.2,372,274.5,371.8"/>
			<path style="fill:#FFFFFF;" d="M291.8,349.8c0-0.2-0.1-0.4-0.4-0.4c-0.2,0-0.4,0.1-0.4,0.4c0,0.1,0.1,0.2,0.2,0.3l0,0l0.1,2.8
				c0,0,0.2,0,0.3,0.1l0.1-2.9l0,0C291.7,350,291.8,349.9,291.8,349.8"/>
			<path style="fill:#FFFFFF;" d="M291.3,353.4c0,0,0.2,0,0.3,0.1v0.9l-0.2-0.1L291.3,353.4z"/>
			<path style="fill:#FFFFFF;" d="M286.5,352.8l0.2,0.1v0.9l-0.2-0.1V352.8z"/>
			<path style="fill:#FFFFFF;" d="M291.3,356l0.2,0.1v0.6l-0.2-0.1V356z"/>
			<path style="fill:none;stroke:#808080;stroke-width:2;stroke-miterlimit:10;" d="M118.2,348.9c0,5.2-4.2,9.4-9.4,9.4
				c-5.2,0-9.4-4.2-9.4-9.4s4.2-9.4,9.4-9.4S118.2,343.7,118.2,348.9z"/>
			<polygon style="fill:#868686;" points="112.3,348.9 115.4,347 113.6,344 110.4,345.9 110.4,342.2 107,342.2 107,345.9 103.8,344
				102.1,347.1 105.3,348.9 102.1,350.8 103.8,353.8 107,352 107,355.6 110.4,355.6 110.4,351.9 113.8,353.7 115.5,350.7 			"/>
			<path style="fill:#FFFFFF;" d="M109,348.2v-0.7c0,0,0.2,0.1,0.3-0.1c0,0,0.1-0.1,0.1-0.2c0,0,0.1-0.4,0.4-0.5c0,0,0.1-0.1,0.2,0
				c0,0,0.2,0.1,0.7,0.3c0,0,1.1,0.6,1.7,0.3c0,0,0.2-0.1,0.1,0.1c0,0-0.2,0.3-0.6,0.3c0,0,0.1,0.3-0.5,0.1c0,0,0.1,0.4-0.5,0.2
				c0,0-0.1,0.4-0.5,0.1c0,0-0.1,0.3-0.6,0c0,0-0.1,0.1-0.2,0.2C109.4,348.4,109.4,348.3,109,348.2"/>
			<path style="fill:#FFFFFF;" d="M108.6,348.2v-0.7c0,0-0.2,0.1-0.3-0.1c0,0-0.1-0.1-0.1-0.2c0,0-0.1-0.4-0.4-0.5
				c0,0-0.1-0.1-0.2,0c0,0-0.2,0.1-0.7,0.3c0,0-1.1,0.6-1.7,0.3c0,0-0.2-0.1-0.1,0.1c0,0,0.2,0.3,0.6,0.3c0,0-0.1,0.3,0.5,0.1
				c0,0-0.1,0.4,0.5,0.2c0,0,0.1,0.4,0.5,0.1c0,0,0.1,0.3,0.6,0c0,0,0.1,0.1,0.2,0.2C108.1,348.4,108.2,348.3,108.6,348.2"/>
			<path style="fill:#FFFFFF;" d="M108.3,349c0,0-0.1-0.2-0.3-0.3c-0.2-0.1-0.5,0.1-0.6,0.1c0,0-0.5,0-0.6,0.3c0,0-0.1,0.1,0.1,0.3
				c0,0,0.4,0.5,1.5,0.6c0,0,0.7-0.1,1,0.3c0,0,0.5,0.4-0.5,0.7v0.1c0,0,0.1,0.1,0.2,0.1c0,0,0.7-0.3,0.7-0.7c0,0-0.1-0.6-1.3-0.7
				c0,0-0.6,0-0.7-0.1c0,0-0.6-0.1-0.7-0.3c0,0-0.2-0.2,0.1-0.3c0,0,0.3,0,0.4,0.1l0.2,0.1C107.9,349.1,108.1,349.2,108.3,349
				C108.3,349,108.4,349,108.3,349"/>
			<path style="fill:#FFFFFF;" d="M110.7,349c-0.1-0.3-0.6-0.3-0.6-0.3c-0.2,0-0.5-0.1-0.6-0.1c-0.2,0.1-0.3,0.3-0.3,0.3
				c0,0.1,0,0.1,0,0.1c0.2,0.2,0.5,0.1,0.5,0.1c0.1-0.1,0.2-0.1,0.2-0.1c0.2-0.1,0.4-0.1,0.4-0.1c0.3,0.1,0.1,0.3,0.1,0.3
				c-0.1,0.2-0.7,0.3-0.7,0.3c-0.1,0-0.3,0.1-0.5,0.1c0.1,0,0.4,0.1,0.5,0.2c0.6-0.2,0.9-0.5,0.9-0.5
				C110.8,349.1,110.7,349,110.7,349"/>
			<path style="fill:#FFFFFF;" d="M107.9,349.9c0,0,0.3,0.1,0.5,0.1c0,0-0.6,0.2-0.2,0.6c0.1,0.1,0.1,0.1,0.2,0.1
				c0,0,0.5,0.2,0.6,0.2c0,0,0.5,0.1,0.6,0.5c0,0,0.2,0.5-0.4,0.9l-0.1-0.1v-0.1c0,0,0.7-0.5-0.1-0.9l-0.4-0.1c0,0-0.5-0.2-0.8-0.5
				C107.6,350.6,107.4,350.2,107.9,349.9"/>
			<path style="fill:#FFFFFF;" d="M108.3,351.2l0.2,0.1v0.1c0,0-0.7,0.4,0.1,0.9l0.3,0.2c0,0,0.7,0.4,0.1,1.1l-0.1-0.1v-0.2
				c0,0,0.4-0.3-0.1-0.6c0,0-0.3-0.2-0.4-0.3c0,0-0.3-0.2-0.4-0.5C108.1,351.9,107.9,351.5,108.3,351.2"/>
			<path style="fill:#FFFFFF;" d="M108.5,352.4l0.1,0.1v0.2c0,0-0.3,0.3,0,0.5l0.3,0.3c0,0,0.5,0.3,0.1,1V354c0,0,0.1-0.4-0.3-0.5
				c0,0-0.4-0.2-0.4-0.5C108.2,353.1,108.1,352.8,108.5,352.4"/>
			<path style="fill:#FFFFFF;" d="M109.1,346.3c0-0.2-0.1-0.4-0.4-0.4c-0.2,0-0.4,0.1-0.4,0.4c0,0.1,0.1,0.2,0.2,0.3l0,0l0.1,2.8
				c0,0,0.2,0,0.3,0.1l0.1-2.9l0,0C109,346.6,109.1,346.5,109.1,346.3"/>
			<path style="fill:#FFFFFF;" d="M108.6,350c0,0,0.2,0,0.3,0.1v0.9l-0.2-0.1L108.6,350z"/>
			<path style="fill:#FFFFFF;" d="M108.7,351.3l0.2,0.1v0.9l-0.2-0.1V351.3z"/>
			<path style="fill:#FFFFFF;" d="M108.7,353.4l0.2,0.1v0.5l-0.2-0.1V353.4z"/>
			<path style="fill:#FFFFFF;" d="M274.6,372c0,0,0.4,0.3,0.4,0.6c0,0.4,0,1.2,0,1.2s-0.3-0.5-0.4-0.9V372z"/>
			<path style="fill:#FFFFFF;" d="M274.7,374.2l0.3,0.3c0,0,0,0.4-0.1,0.5c0,0-0.1,0.1-0.1,0C274.8,375,274.6,374.8,274.7,374.2"/>
			<path style="fill:#FFFFFF;" d="M95.1,354l0.3,0.3c0,0,0,0.4-0.1,0.5c0,0-0.1,0.1-0.1,0C95.2,354.7,95.1,354.5,95.1,354"/>
		</g>
		<g>
			<g>
				<g>
					<text transform="matrix(1 0 0 1 365.4985 499.4326)" style="fill:#8A1538; font-family:'MarselisPro'; font-size:7.465px;">Al Maktoum</text>
				</g>
			</g>
			<g>
				<g>
					<text transform="matrix(1 0 0 1 352.7622 507.0215)" style="fill:#8A1538; font-family:'MarselisPro'; font-size:7.465px;">International Airport</text>
				</g>
			</g>
		</g>
		<g>
			<g>
				<text transform="matrix(1 0 0 1 241.0767 79.5713)" style="fill:#8A1538; font-family:'MarselisPro'; font-size:7.465px;">GEMS Wellington School</text>
			</g>
		</g>
		<g>
			<g>
				<text transform="matrix(1 0 0 1 487.6577 81.064)" style="fill:#8A1538; font-family:'MarselisPro'; font-size:7.465px;">Dubai Hills Mall</text>
			</g>
		</g>
		<g>
			<g>
				<text transform="matrix(1 0 0 1 472.6743 146.3545)" style="fill:#8A1538; font-family:'MarselisPro'; font-size:7.465px;">GEMS Dubai American Academy</text>
			</g>
		</g>
		<g>
			<g>
				<text transform="matrix(1 0 0 1 98.709 385.9863)" style="fill:#8A1538; font-family:'MarselisPro'; font-size:7.465px;">Cedars Jebel Ali</text>
			</g>
		</g>
		<g>
			<g>
				<text transform="matrix(1 0 0 1 90.4391 393.2246)" style="fill:#8A1538; font-family:'MarselisPro'; font-size:7.465px;">International Hospital</text>
			</g>
		</g>
		<g>
			<g>

					<text transform="matrix(1 6.196062e-03 -6.196062e-03 1 506.1361 193.177)" style="fill:#8A1538; font-family:'MarselisPro'; font-size:7.4652px;">Kings School Al Barsha</text>
			</g>
		</g>
		<g>
			<g>
				<text transform="matrix(1 0 0 1 284.6143 327.6475)" style="fill:#8A1538; font-family:'MarselisPro'; font-size:7.465px;">NMC Hospital</text>
			</g>
		</g>
		<g>

				<line style="fill:none;stroke:#8A1538;stroke-width:1.2756;stroke-miterlimit:10;" x1="543.8" y1="182.3" x2="543.8" y2="159.9"/>
			<ellipse style="fill:#8A1538;" cx="543.8" cy="159.6" rx="3.6" ry="3.6"/>
		</g>
		<g>
			<line style="fill:none;stroke:#8A1538;stroke-width:1.2756;stroke-miterlimit:10;" x1="331.7" y1="77.5" x2="360.4" y2="77.3"/>
			<circle style="fill:#8A1538;" cx="360.4" cy="77.7" r="3.6"/>
		</g>
		<g>
			<line style="fill:none;stroke:#8A1538;stroke-width:1.2756;stroke-miterlimit:10;" x1="513.3" y1="83.5" x2="513.3" y2="106"/>
			<circle style="fill:#8A1538;" cx="513.3" cy="106.3" r="3.6"/>
		</g>
		<g>
			<line style="fill:none;stroke:#8A1538;stroke-width:1.2756;stroke-miterlimit:10;" x1="471" y1="146.7" x2="453.6" y2="168.9"/>
			<circle style="fill:#8A1538;" cx="453.7" cy="169.2" r="3.6"/>
		</g>
		<g>

				<line style="fill:none;stroke:#8A1538;stroke-width:1.2756;stroke-miterlimit:10;" x1="481.8" y1="287.4" x2="481.8" y2="336.6"/>
			<circle style="fill:#8A1538;" cx="481.8" cy="336.9" r="3.6"/>
		</g>
		<g>

				<line style="fill:none;stroke:#8A1538;stroke-width:1.2756;stroke-miterlimit:10;" x1="308.1" y1="330.4" x2="308.1" y2="352.9"/>
			<circle style="fill:#8A1538;" cx="308.1" cy="353.1" r="3.6"/>
		</g>
		<g>

				<line style="fill:none;stroke:#8A1538;stroke-width:1.2756;stroke-miterlimit:10;" x1="389.5" y1="512.5" x2="389.5" y2="534.9"/>
			<circle style="fill:#8A1538;" cx="389.5" cy="535.1" r="3.6"/>
		</g>
		<g>

				<line style="fill:none;stroke:#8A1538;stroke-width:1.2756;stroke-miterlimit:10;" x1="126.3" y1="376.5" x2="126.3" y2="354.1"/>
			<circle style="fill:#8A1538;" cx="126.3" cy="353.9" r="3.6"/>
		</g>
		<g>
			<path id="Rectangle-Copy-2_9_" style="fill:#FFFFFF;" d="M327.4,257.1h70.8c2,0,3.6,1.6,3.6,3.6v18.6c0,2-1.6,3.6-3.6,3.6h-70.8
				c-2,0-3.6-1.6-3.6-3.6v-18.6C323.9,258.7,325.4,257.1,327.4,257.1z"/>
			<text transform="matrix(1 0 0 1 345.3198 268.2148)" style="fill:#8A1538; font-family:'MarselisPro-Bold'; font-size:10.01px;">City Centre</text>

				<text transform="matrix(1 0 0 1 345.3198 278.2236)" style="fill:#8A1538; font-family:'MarselisPro-Light'; font-size:10.01px;">Meaisem</text>
			<g>
				<path id="Path_14_" style="fill:#8A1538;" d="M335.8,264.8c-3.4,0-5.8,2.1-5.8,4.8v5.3h2c0,0,0-3,0-5.3c0-2.6,2.2-4.4,4.3-4.7
					c0.1,0,0.2,0,0.1,0L335.8,264.8L335.8,264.8z"/>
				<path id="Path_13_" style="fill:#8A1538;" d="M335.1,265.2c-0.2,0.1-0.4,0.2-0.7,0.4c-1.2,0.8-1.9,2.5-1.9,3.9
					c0,0.1,0,0.2,0,0.3l0,0v0.1v5.2h1.6v-5.2c0-0.4,0.2-0.6,0.4-0.8l0.6,0.8l0.6-0.8c0.3,0.2,0.4,0.5,0.4,0.8v5.2h1.6v-5.2
					c0-1.5-1.2-2.9-2.7-2.9c-0.4,0-0.7,0.1-1,0.2l0,0c0.4-0.4,0.8-0.6,1.4-0.6l0,0c0.2,0,0.4,0,0.5,0.1c1.4,0.3,2.6,1.5,2.6,3.1
					c0,0.1,0,0.1,0,0.2v5.1h1.6c0,0,0-5.1,0-5.2c0-2.2-1.2-4.1-3.5-4.7c-0.1,0-0.2-0.1-0.4-0.1c-0.2,0-0.4,0-0.5,0
					C335.7,264.9,335.4,265,335.1,265.2z"/>
			</g>
		</g>
		<g>
			<line style="fill:none;stroke:#8A1538;stroke-width:1.2756;stroke-miterlimit:10;" x1="420.9" y1="103.3" x2="421.3" y2="68.2"/>
			<circle style="fill:#8A1538;" cx="421" cy="68.4" r="3.6"/>
		</g>
		<g>
			<path id="Rectangle-Copy-2_8_" style="fill:#FFFFFF;" d="M381.7,102.6h78c2.1,0,4,1.8,4,4V127c0,2.1-1.8,4-4,4h-78
				c-2.1,0-4-1.8-4-4v-20.4C377.8,104.4,379.5,102.6,381.7,102.6z"/>

				<text transform="matrix(1 0 0 1 401.4067 114.9106)" style="fill:#8A1538; font-family:'MarselisPro-Bold'; font-size:11.019px;">Mall of the</text>

				<text transform="matrix(1 0 0 1 401.4067 125.9292)" style="fill:#8A1538; font-family:'MarselisPro-Bold'; font-size:11.019px;">Emirates</text>
			<g>
				<path id="Path_12_" style="fill:#8A1538;" d="M390.8,111.1c-3.7,0-6.5,2.4-6.5,5.4v5.8h2.1c0,0,0-3.3,0-5.8
					c0-2.8,2.4-4.8,4.8-5.2c0.1,0,0.2,0,0.1,0L390.8,111.1L390.8,111.1z"/>
				<path id="Path_11_" style="fill:#8A1538;" d="M390.1,111.6c-0.2,0.1-0.5,0.2-0.8,0.4c-1.3,0.9-2,2.7-2,4.2c0,0.1,0,0.2,0,0.3
					l0,0v0.1v5.8h1.8v-5.8c0-0.4,0.2-0.7,0.4-0.9l0.7,0.9l0.7-0.9c0.3,0.2,0.4,0.5,0.4,0.9v5.8h1.8v-5.8c0-1.7-1.3-3.2-2.9-3.2
					c-0.4,0-0.8,0.1-1.1,0.2l0,0c0.4-0.5,0.9-0.7,1.6-0.7l0,0c0.2,0,0.4,0,0.5,0.1c1.6,0.3,2.9,1.7,2.9,3.4c0,0.1,0,0.1,0,0.2v5.7
					h1.8c0,0,0-5.7,0-5.8c0-2.5-1.3-4.5-3.8-5.1c-0.1,0-0.2-0.1-0.4-0.1c-0.2,0-0.4,0-0.5,0C390.8,111.3,390.5,111.4,390.1,111.6z"
					/>
			</g>
		</g>
		<g>
			<g>
				<text transform="matrix(1 0 0 1 308.9771 205.2646)" style="fill:#8A1538; font-family:'MarselisPro'; font-size:7.465px;">Dubai International Academy</text>
			</g>
		</g>
		<g>
			<line style="fill:none;stroke:#8A1538;stroke-width:1.2756;stroke-miterlimit:10;" x1="348.3" y1="198.9" x2="365" y2="159.8"/>
			<circle style="fill:#8A1538;" cx="364.9" cy="159.5" r="2.6"/>
		</g>
		<g>
			<g>

					<text transform="matrix(0.9666 -0.2563 0.2563 0.9666 572.0055 506.4063)" style="fill:#34373A; font-family:'MarselisPro-Bold'; font-size:6.6959px;">Jebel Ali - Lehbab Road</text>
			</g>
		</g>
		<g>
			<g>
				<g>

						<text transform="matrix(0.5501 -0.8351 0.8351 0.5501 227.4727 551.0459)" style="fill:#34373A; font-family:'MarselisPro-Bold'; font-size:6.6959px;">Sheikh Mohammed Bin Zayed Road</text>
				</g>
			</g>
		</g>
		<g>
			<g>
				<g>

						<text transform="matrix(0.5225 -0.8527 0.8527 0.5225 536.9361 53.0355)" style="fill:#34373A; font-family:'MarselisPro-Bold'; font-size:6.6978px;">Al Khail Road</text>
				</g>
			</g>
		</g>
		<g>
			<g>

					<text transform="matrix(0.6572 0.7537 -0.7537 0.6572 531.7014 332.5713)" style="fill:#34373A; font-family:'MarselisPro-Bold'; font-size:6.6958px;">Hessa Road</text>
			</g>
		</g>
		<g>
			<g>

					<text transform="matrix(0.7708 -0.6371 0.6371 0.7708 480.6102 366.2396)" style="fill:#34373A; font-family:'MarselisPro-Bold'; font-size:6.696px;">Academic City Road</text>
			</g>
		</g>
		<g>
			<g>
				<g>

						<text transform="matrix(0.9666 -0.2561 0.2561 0.9667 726.6813 206.8822)" style="fill:#34373A; font-family:'MarselisPro-Bold'; font-size:6.7007px;">Emirates Road </text>
				</g>
			</g>
		</g>
		<g>
			<g>
				<g>

						<text transform="matrix(0.6936 -0.7203 0.7203 0.6937 654.3281 191.6286)" style="fill:#34373A; font-family:'MarselisPro-Bold'; font-size:6.6989px;">Mohammad Bin Zayed Road </text>
				</g>
			</g>
		</g>
		<g>
			<g>

					<text transform="matrix(0.7318 -0.6815 0.6815 0.7318 294.524 158.3437)" style="fill:#34373A; font-family:'MarselisPro-Bold'; font-size:6.696px;">Sheikh Zayed Road</text>
			</g>
		</g>
		<g>
			<g>

					<text transform="matrix(0.6191 0.7853 -0.7853 0.6191 893.2114 157.5432)" style="fill:#34373A; font-family:'MarselisPro-Bold'; font-size:6.6958px;">Dubai Al Ain Road</text>
			</g>
		</g>
		<g>
			<g>

					<text transform="matrix(0.3055 0.9522 -0.9522 0.3055 433.4639 285.5717)" style="fill:#34373A; font-family:'MarselisPro-Bold'; font-size:6.6959px;">Al Fay Road</text>
			</g>
		</g>
		<g>
			<path id="Rectangle-Copy-2_4_" style="fill:#FFFFFF;" d="M457.4,264.8h72.2c2,0,3.7,1.6,3.7,3.7v19c0,2-1.6,3.7-3.7,3.7h-72.2
				c-2,0-3.7-1.6-3.7-3.7v-19C453.7,266.5,455.4,264.8,457.4,264.8z"/>

				<text transform="matrix(1 0 0 1 472.6851 281.3154)" style="fill:#8A1538; font-family:'MarselisPro-Bold'; font-size:10.2043px;">Tilal Al Ghaf</text>
			<g>
				<path style="fill:#8A1538;" d="M465.8,279.5v1.6h1.7v-1.7c-0.3,0.1-0.6,0.1-1,0.1L465.8,279.5L465.8,279.5z"/>
				<path style="fill:#8A1538;" d="M466.4,273.9c-0.5-0.4-1.1-0.6-1.7-0.6c-0.4,0-0.7,0.1-1,0.2l0,0c0.3-0.4,0.9-0.6,1.4-0.6l0,0
					c0.2,0,0.4,0,0.5,0.1c0.7,0.1,1.3,0.5,1.8,1c0.7,0,1.4,0,2,0c-0.6-1.1-1.6-2-3.1-2.4c-0.1,0-0.2-0.1-0.3-0.1
					c-0.2,0-0.3-0.1-0.5-0.1c-0.4,0-0.6,0.1-0.9,0.2c-0.2,0.1-0.4,0.2-0.7,0.4c-0.7,0.5-1.2,1.2-1.6,1.9c0.2-0.1,0.4-0.1,0.6-0.1
					C463.8,273.9,465.2,273.9,466.4,273.9"/>
				<path style="fill:#8A1538;" d="M469.4,278.3c-0.3,0.3-0.6,0.6-1,0.7v2.1h1.7c0,0,0-2.2,0-3.7
					C469.9,277.7,469.7,278.1,469.4,278.3"/>
				<path style="fill:#8A1538;" d="M467.1,274.6c-1.5,0-3.2,0-4.1,0c-0.3,0-0.6,0.1-0.9,0.1c-0.1,0.3-0.1,0.6-0.1,1
					c0,0.1,0,0.2,0,0.3l0,0v0.1v2.8h1.7V276c0-0.3,0.2-0.6,0.4-0.8l0.6,0.8l0.6-0.8c0.2,0.2,0.4,0.5,0.4,0.8v2.8h0.7
					c0.3,0,0.7-0.1,1-0.2V276C467.5,275.5,467.4,275,467.1,274.6"/>
				<path style="fill:#8A1538;" d="M468.1,274.6c0.2,0.4,0.3,0.8,0.3,1.3c0,0.1,0,0.1,0,0.2v2.1c0.2-0.1,0.3-0.3,0.5-0.4
					c0.6-0.6,1-1.3,1.2-2.2c-0.1-0.3-0.1-0.6-0.2-0.9C469.4,274.6,468.9,274.6,468.1,274.6"/>
				<path style="fill:#8A1538;" d="M459.4,281.1h1.7c0,0,0-0.6,0-1.6h-1.7V281.1z"/>
				<path style="fill:#8A1538;" d="M461.2,275.2c-0.9,0.5-1.4,1.4-1.8,2.6v1h1.7c0-0.9,0-1.9,0-2.8
					C461.1,275.7,461.1,275.4,461.2,275.2"/>
				<rect x="462" y="279.5" style="fill:#8A1538;" width="1.7" height="1.6"/>
				<path style="fill:#8A1538;" d="M461.5,274.1c0.6-1.4,1.9-2.5,3.3-2.8c0.1,0,0.2-0.1,0.1-0.1h-0.5c-2.9,0-4.9,1.9-5,4.5
					C459.9,275.1,460.7,274.5,461.5,274.1"/>
			</g>
		</g>
	</g>
	<path style="fill:none;stroke:#FFFFFF;stroke-miterlimit:10;" d="M691.3,188.5c56.5-39.7,106.9-62,148.9-99.4c1.1-1,3-1.4,2.7-2.8
		s-3,0.1-1.7,0.6"/>
	<g>
		<line style="fill:none;stroke:#8A1538;stroke-width:1.2756;stroke-miterlimit:10;" x1="394" y1="278.5" x2="416.4" y2="278.5"/>
		<circle style="fill:#8A1538;" cx="416.6" cy="278.5" r="3.6"/>
	</g>
	<g>
		<g>
			<g>

					<text transform="matrix(0.6134 -0.7898 0.7898 0.6134 456.9339 151.4083)" style="fill:#34373A; font-family:'MarselisPro-Bold'; font-size:5.625px;">Al Khail Road</text>
			</g>
		</g>
	</g>
	<g>
		<g>
			<text transform="matrix(1 0 0 1 144.4005 253.2637)" style="fill:#8A1538; font-family:'MarselisPro'; font-size:7.465px;">Ibn Battuta Mall</text>
		</g>
	</g>
	<g>
		<line style="fill:none;stroke:#8A1538;stroke-width:1.2756;stroke-miterlimit:10;" x1="201.6" y1="251.1" x2="224" y2="251.1"/>
		<circle style="fill:#8A1538;" cx="224.3" cy="251.1" r="3.6"/>
	</g>
	<g id="map-data_2_">

			<g id="NorthPoint_1_" transform="translate(1831.070256, 181.453972) rotate(50.000000) translate(-1831.070256, -181.453972) translate(1792.570256, 137.953972)">
			<path id="Fill-933_1_" style="fill:#8A1538;" d="M-586.2,664.9l4.7,8.2l-8.2-4L-586.2,664.9z M-591.3,670.9l14.6,6.3l-8-13.5
				l-14.6-6.3L-591.3,670.9z M-586.2,664.9l4.7,8.2l-8.2-4L-586.2,664.9z M-591.3,670.9l14.6,6.3l-8-13.5l-14.6-6.3L-591.3,670.9z
				 M-586.2,664.9l4.7,8.2l-8.2-4L-586.2,664.9z M-576.7,677.1l-8-13.5l-14.6-6.3l8,13.5L-576.7,677.1z M-593.8,650.9
				c8.9-3,18.6,1.8,21.6,10.7c3,8.9-1.8,18.6-10.7,21.6s-18.6-1.8-21.6-10.7C-607.6,663.6-602.7,653.9-593.8,650.9z M-581.8,686.8
				c11-3.7,16.8-15.5,13.1-26.5c-3.6-10.9-15.5-16.7-26.4-13s-16.7,15.4-13.1,26.2C-604.4,684.6-592.6,690.5-581.8,686.8z
				 M-586.2,664.9l4.7,8.2l-8.2-4L-586.2,664.9z M-591.3,670.9l14.6,6.3l-8-13.5l-14.6-6.3L-591.3,670.9z M-586.2,664.9l4.7,8.2
				l-8.2-4L-586.2,664.9z M-591.3,670.9l14.6,6.3l-8-13.5l-14.6-6.3L-591.3,670.9z M-586.2,664.9l4.7,8.2l-8.2-4L-586.2,664.9z
				 M-591.3,670.9l14.6,6.3l-8-13.5l-14.6-6.3L-591.3,670.9z M-586.2,664.9l4.7,8.2l-8.2-4L-586.2,664.9z M-591.3,670.9l14.6,6.3
				l-8-13.5l-14.6-6.3L-591.3,670.9z"/>
			<g id="Back-Copy-5_2_" transform="translate(34.000000, 0.000000)">

					<text transform="matrix(0.6614 -0.75 0.75 0.6614 -642.4953 653.8538)" style="fill:#8A1538; font-family:'ArialMT'; font-size:10.6005px;">N</text>
			</g>
		</g>
	</g>
</g>
</svg>
