<?xml version="1.0" encoding="utf-8"?>
<!-- Generator: Adobe Illustrator 19.1.0, SVG Export Plug-In . SVG Version: 6.00 Build 0)  -->
<svg version="1.1" id="app_x5F_Lebanon-region--parent"
	 xmlns="http://www.w3.org/2000/svg" xmlns:xlink="http://www.w3.org/1999/xlink" x="0px" y="0px" width="1024px" height="576px"
	 viewBox="0 0 1024 576" style="enable-background:new 0 0 1024 576;" xml:space="preserve" preserveAspectRatio="none">
	 
	 <image xlink:href="Lebanon-region-ipad.png" width="100%" height="100%" x="0" y="0" />



 <g id="app_x5_Dummy--marker">
 	<rect x="0" y="0" width="1" height="1"/>
 </g>
<rect id="app_x5F_Lebanon--zoom" x="574.9" y="235.6" style="fill:none;" width="61.3" height="34.5"/>
<g id="NorthPoint" transform="translate(1831.070256, 181.453972) rotate(56.000000) translate(-1831.070256, -181.453972) translate(1792.570256, 137.953972)">
	<path id="Fill-933_1_" style="fill:#8A1538;" d="M-516.7,726l4.1,5.2l-6-1.9L-516.7,726z M-519.6,730.6l10.7,2.8l-6.9-8.5
		l-10.7-2.8L-519.6,730.6z M-516.7,726l4.1,5.2l-6-1.9L-516.7,726z M-519.6,730.6l10.7,2.8l-6.9-8.5l-10.7-2.8L-519.6,730.6z
		 M-516.7,726l4.1,5.2l-6-1.9L-516.7,726z M-508.9,733.5l-6.9-8.5l-10.7-2.8l6.9,8.5L-508.9,733.5z M-523.3,717
		c5.9-2.9,13-0.5,15.9,5.4s0.5,13-5.4,15.9s-13,0.5-15.9-5.4C-531.7,727.1-529.3,720-523.3,717z M-511.6,740.8
		c7.3-3.6,10.1-12.5,6.6-19.5c-3.6-7.3-12.3-10-19.6-6.4s-10,12.4-6.6,19.5C-527.4,741.4-518.8,744.2-511.6,740.8z M-516.7,726
		l4.1,5.2l-6-1.9L-516.7,726z M-519.6,730.6l10.7,2.8l-6.9-8.5l-10.7-2.8L-519.6,730.6z M-516.7,726l4.1,5.2l-6-1.9L-516.7,726z
		 M-519.6,730.6l10.7,2.8l-6.9-8.5l-10.7-2.8L-519.6,730.6z M-516.7,726l4.1,5.2l-6-1.9L-516.7,726z M-519.6,730.6l10.7,2.8
		l-6.9-8.5l-10.7-2.8L-519.6,730.6z M-516.7,726l4.1,5.2l-6-1.9L-516.7,726z M-519.6,730.6l10.7,2.8l-6.9-8.5l-10.7-2.8
		L-519.6,730.6z"/>
	<g id="Back-Copy-5_1_" transform="translate(34.000000, 0.000000)">

			<text transform="matrix(0.5505 -0.8348 0.8348 0.5505 -567.1438 720.6009)" style="fill:#8A1538; font-family:'ArialMT'; font-size:7.4026px;">N</text>
	</g>
</g>
<g id="app_x5F_Lebanon--button">
	<polygon id="tap_x5F_area" style="fill:#FFFFFF;fill-opacity:0;" points="445.3,377.8 445.3,235.9 582.2,235.9 698.7,285.8
		698.7,328.9 582.2,380.2 	"/>
	<rect id="app_x5F_Beirut--tap" x="595.2" y="298.2" style="fill:#FFFFFF;fill-opacity:0;" width="20" height="20"/>
	<g id="Beirut-marker">
		<g transform="translate(1032.000000, 577.000000)">
			<polygon id="Fill-124_5_" style="fill:#8A1538;" points="-433,-275.4 -433,-262.8 -428.8,-262.8 -426.7,-260.5 -424.5,-262.8
				-420.3,-262.8 -420.3,-275.4 			"/>
			<g id="Group_5_" transform="translate(5.000000, 5.000000)">
				<path id="Path_11_" style="fill:#FFFFFF;" d="M-432-277.5c-2,0-3.5,1.3-3.5,3.2v3.6h1.2c0,0,0-2,0-3.6c0-1.7,1.3-2.9,2.6-3.1
					c0.1,0,0.1,0,0.1,0L-432-277.5L-432-277.5z"/>
				<path id="Path_10_" style="fill:#FFFFFF;" d="M-431.7-277.3c-0.1,0.1-0.3,0.1-0.5,0.3c-0.9,0.5-1.3,1.6-1.4,2.6
					c0,0.1,0,0.1,0,0.2l0,0v0.1v3.6h1.2v-3.6c0-0.3,0.1-0.4,0.3-0.5l0.4,0.5l0.4-0.5c0.2,0.1,0.3,0.3,0.3,0.5v3.6h1.2v-3.6
					c0-1.1-0.9-1.9-1.9-1.9c-0.3,0-0.5,0.1-0.7,0.1l0,0c0.3-0.3,0.6-0.4,1-0.4l0,0c0.1,0,0.3,0,0.4,0c1.1,0.2,1.9,1.1,1.9,2.1
					c0,0.1,0,0.1,0,0.1v3.5h1.2v-3.5c0-1.5-0.9-2.8-2.5-3.1c-0.1,0-0.1-0.1-0.3-0.1c-0.1,0-0.3,0-0.4,0
					C-431.3-277.5-431.5-277.4-431.7-277.3z"/>
			</g>
		</g>
		<path id="Line-4-Copy-3" style="fill:none;stroke:#8A1538;stroke-width:1.1784;" d="M598.8,309.1h-38.9"/>
		<text transform="matrix(1 0 0 1 619.5752 311.5729)" style="fill:#8A1538; font-family:'MarselisPro'; font-size:9.0662px;">BEIRUT</text>
	</g>
	<g id="waterfront-logo">
		<path style="fill:#575756;" d="M531.8,316.6h-1.1v-3.4h1c1,0,1.7,0.7,1.7,1.7S532.7,316.6,531.8,316.6 M531.7,312.8h-1.4v4.2h1.4
			c1.2,0,2-0.9,2-2.1S532.9,312.8,531.7,312.8"/>
		<path style="fill:none;stroke:#575756;stroke-width:0.1926;stroke-miterlimit:10;" d="M531.8,316.6h-1.1v-3.4h1
			c1,0,1.7,0.7,1.7,1.7S532.7,316.6,531.8,316.6 M531.7,312.8h-1.4v4.2h1.4c1.2,0,2-0.9,2-2.1S532.9,312.8,531.7,312.8"/>
		<path style="fill:#575756;" d="M536.2,316.6h-1.1v-1.7h1c0.8,0,1.2,0.3,1.2,0.9C537.3,316.3,537,316.6,536.2,316.6 M535.2,313.2h1
			c0.4,0,0.9,0.1,0.9,0.7c0,0.6-0.6,0.7-1,0.7h-0.9V313.2L535.2,313.2z M536.9,314.7c0.3-0.2,0.5-0.5,0.5-0.9c0-0.7-0.5-1-1.3-1
			h-1.4v4.2h1.4c0.9,0,1.4-0.5,1.4-1.2C537.7,315.3,537.4,314.8,536.9,314.7"/>
		<path style="fill:none;stroke:#575756;stroke-width:0.1926;stroke-miterlimit:10;" d="M536.2,316.6h-1.1v-1.7h1
			c0.8,0,1.2,0.3,1.2,0.9C537.3,316.3,537,316.6,536.2,316.6 M535.2,313.2h1c0.4,0,0.9,0.1,0.9,0.7c0,0.6-0.6,0.7-1,0.7h-0.9V313.2
			L535.2,313.2z M536.9,314.7c0.3-0.2,0.5-0.5,0.5-0.9c0-0.7-0.5-1-1.3-1h-1.4v4.2h1.4c0.9,0,1.4-0.5,1.4-1.2
			C537.7,315.3,537.4,314.8,536.9,314.7"/>
		<polygon style="fill:#575756;" points="544.9,312.8 543.6,314.9 542.4,312.8 542,312.8 543.5,315.2 543.5,317 543.8,317
			543.8,315.2 545.2,312.8 		"/>
		<polygon style="fill:none;stroke:#575756;stroke-width:0.1926;stroke-miterlimit:10;" points="544.9,312.8 543.6,314.9
			542.4,312.8 542,312.8 543.5,315.2 543.5,317 543.8,317 543.8,315.2 545.2,312.8 		"/>
		<polygon style="fill:#575756;" points="546.2,312.8 546.2,317 548.9,317 548.9,316.6 546.6,316.6 546.6,314.9 548.7,314.9
			548.7,314.6 546.6,314.6 546.6,313.2 548.9,313.2 548.9,312.8 		"/>
		<polygon style="fill:none;stroke:#575756;stroke-width:0.1926;stroke-miterlimit:10;" points="546.2,312.8 546.2,317 548.9,317
			548.9,316.6 546.6,316.6 546.6,314.9 548.7,314.9 548.7,314.6 546.6,314.6 546.6,313.2 548.9,313.2 548.9,312.8 		"/>
		<polygon style="fill:#575756;" points="552.8,312.8 552.8,314.6 550.4,314.6 550.4,312.8 550,312.8 550,317 550.4,317
			550.4,314.9 552.8,314.9 552.8,317 553.2,317 553.2,312.8 		"/>
		<polygon style="fill:none;stroke:#575756;stroke-width:0.1913;stroke-miterlimit:10;" points="552.7,312.8 552.7,314.6
			550.4,314.6 550.4,312.8 550,312.8 550,317 550.4,317 550.4,314.9 552.7,314.9 552.7,317 553.1,317 553.1,312.8 		"/>
		<path style="fill:#575756;" d="M540.2,312.8l-1.8,4.2h0.4l0.5-1.3h1.9l0.5,1.3h0.4L540.2,312.8L540.2,312.8z M540.3,313.4l0.8,1.9
			h-1.6L540.3,313.4z"/>
		<path style="fill:none;stroke:#575756;stroke-width:0.1926;stroke-miterlimit:10;" d="M540.2,312.8l-1.8,4.2h0.4l0.5-1.3h1.9
			l0.5,1.3h0.4L540.2,312.8L540.2,312.8z M540.3,313.4l0.8,1.9h-1.6L540.3,313.4z"/>
		<g>
			<g>
				<g>
					<g>
						<g>
							<g>
								<g>
									<g>
										<g>
											<defs>
												<polygon id="SVGID_177_" points="518,297.8 511.7,299.5 520.1,299.5 528.9,292.9 528.9,287.7 503.7,287.6 												"/>
											</defs>
											<clipPath id="SVGID_277_">
												<use xlink:href="#SVGID_177_"  style="overflow:visible;"/>
											</clipPath>
											<g style="clip-path:url(#SVGID_277_);">
												<path style="fill:none;stroke:#72B63A;stroke-width:0.256;stroke-linecap:round;" d="M518.8,298.8
													c0.6,0.4,1.6-0.1,1.6,0.3c-0.1,0.3-1,0.5-1,0.5"/>
												<path style="fill:none;stroke:#67B448;stroke-width:0.256;stroke-linecap:round;" d="M517.8,298.1
													c1.3,0.7,3.3-0.2,3.1,0.6c-0.1,0.6-2.1,0.9-2.1,0.9"/>
												<path style="fill:none;stroke:#5FB356;stroke-width:0.256;stroke-linecap:round;" d="M516.7,297.3
													c1.9,1.1,4.9-0.3,4.7,0.8c-0.1,0.9-3.1,1.4-3.1,1.4"/>
												<path style="fill:none;stroke:#50B061;stroke-width:0.256;stroke-linecap:round;" d="M515.7,296.6
													c2.6,1.5,6.5-0.4,6.3,1.1c-0.2,1.3-4.2,1.9-4.2,1.9"/>
												<path style="fill:none;stroke:#44AF6E;stroke-width:0.256;stroke-linecap:round;" d="M514.6,295.8
													c3.2,1.9,8.1-0.5,7.9,1.4c-0.2,1.5-5.2,2.3-5.2,2.3"/>
												<path style="fill:none;stroke:#2EAD7A;stroke-width:0.256;stroke-linecap:round;" d="M513.6,295.1
													c3.9,2.2,9.8-0.5,9.4,1.7c-0.3,1.9-6.3,2.8-6.3,2.8"/>
												<path style="fill:none;stroke:#15AC85;stroke-width:0.256;stroke-linecap:round;" d="M512.5,294.3
													c4.5,2.6,11.4-0.6,11,1.9c-0.3,2.2-7.3,3.2-7.3,3.2"/>
												<path style="fill:none;stroke:#00AB90;stroke-width:0.256;stroke-linecap:round;" d="M511.5,293.6
													c5.2,3,13-0.7,12.6,2.2c-0.4,2.5-8.3,3.7-8.3,3.7"/>
												<path style="fill:none;stroke:#00A99B;stroke-width:0.256;stroke-linecap:round;" d="M510.4,292.8
													c5.8,3.4,14.7-0.8,14.2,2.5c-0.4,2.8-9.4,4.2-9.4,4.2"/>
												<path style="fill:none;stroke:#00A8A5;stroke-width:0.256;stroke-linecap:round;" d="M509.4,292.1
													c6.5,3.8,16.3-0.9,15.8,2.8c-0.5,3.1-10.5,4.6-10.5,4.6"/>
												<path style="fill:none;stroke:#00A6AF;stroke-width:0.256;stroke-linecap:round;" d="M508.3,291.3
													c7.1,4.1,17.9-1,17.3,3c-0.5,3.4-11.5,5.1-11.5,5.1"/>
												<path style="fill:none;stroke:#00A5B8;stroke-width:0.256;stroke-linecap:round;" d="M507.2,290.6
													c7.8,4.5,19.5-1.1,18.9,3.3c-0.6,3.7-12.5,5.5-12.5,5.5"/>
												<path style="fill:none;stroke:#00A4C1;stroke-width:0.256;stroke-linecap:round;" d="M506.2,289.8
													c8.4,4.9,21.2-1.2,20.5,3.6c-0.6,4.1-13.6,6-13.6,6"/>
												<path style="fill:none;stroke:#00A2C9;stroke-width:0.256;stroke-linecap:round;" d="M505.1,289.1
													c9.1,5.3,22.8-1.3,22.1,3.9c-0.6,4.3-14.6,6.5-14.6,6.5"/>
												<path style="fill:none;stroke:#00A1D2;stroke-width:0.256;stroke-linecap:round;" d="M504.1,288.3
													c9.7,5.6,24.5-1.4,23.6,4.2c-0.7,4.7-15.7,6.9-15.7,6.9"/>
												<path style="fill:none;stroke:#009FDA;stroke-width:0.256;stroke-linecap:round;" d="M503,287.6
													c10.3,6,26.1-1.4,25.2,4.5c-0.7,5-16.7,7.4-16.7,7.4"/>
												<path style="fill:none;stroke:#009EE2;stroke-width:0.256;stroke-linecap:round;" d="M501.9,286.9
													c11,6.4,27.7-1.5,26.8,4.7c-0.8,5.3-17.7,7.9-17.7,7.9"/>
											</g>
										</g>
									</g>
								</g>
							</g>
						</g>
					</g>
				</g>
			</g>
		</g>
		<polygon style="fill:#0E2243;" points="483.9,303.2 482.3,308.4 480.6,303.3 479.5,303.3 481.8,310.1 482.7,310.1 484.4,305
			486.1,310.1 487,310.1 489.3,303.3 488.1,303.3 486.5,308.4 484.9,303.2 		"/>
		<path style="fill:#0E2243;" d="M491.2,310.1c-0.9,0-1.7-0.5-1.7-1.5v-0.1c0-1,0.7-1.6,2-1.6c0.5,0,0.9,0.1,1.4,0.2h0.1v-0.2
			c0-0.7-0.5-1.1-1.3-1.1c-0.5,0-1,0.1-1.4,0.3l-0.3-0.9c0.6-0.3,1.2-0.4,1.9-0.4c1.4,0,2.2,0.7,2.2,2.1v3H493v-0.7l-0.1,0.1
			C492.4,309.9,491.8,310.1,491.2,310.1 M491.7,307.6c-0.7,0-1.2,0.3-1.2,0.9l0,0c0,0.5,0.4,0.8,1,0.8c0.8,0,1.4-0.5,1.4-1.1v-0.4
			l0,0C492.5,307.7,492.1,307.6,491.7,307.6"/>
		<path style="fill:#0E2243;" d="M496.9,310.1c-0.9,0-1.4-0.5-1.4-1.5v-2.8h-0.6v-0.9h0.6v-1.4h1.1v1.4h1.4v0.9h-1.4v2.6
			c0,0.5,0.2,0.7,0.7,0.7c0.2,0,0.5-0.1,0.7-0.2v0.9C497.6,310,497.3,310.1,496.9,310.1"/>
		<path style="fill:#0E2243;" d="M501.3,310.1c-1.5,0-2.5-1.1-2.5-2.6s1-2.7,2.4-2.7c1.7,0,2.4,1.5,2.4,2.7c0,0.1,0,0.2,0,0.3l0,0
			h-3.7v0.1c0.1,0.8,0.7,1.4,1.5,1.4c0.5,0,0.9-0.2,1.4-0.6l0.6,0.6C502.8,309.8,502.1,310.2,501.3,310.1 M501.2,305.7
			c-0.7,0-1.2,0.6-1.3,1.4v0.1h2.7v-0.1C502.4,306.2,501.9,305.7,501.2,305.7"/>
		<path style="fill:#0E2243;" d="M504.6,310v-5.1h1.1v1.1c0.3-0.7,1-1.2,1.7-1.2h0.1v1.2l0,0c-1.1,0-1.8,0.8-1.8,2.1v1.9H504.6z"/>
		<path style="fill:#0E2243;" d="M509.2,310v-4.2h-0.6v-0.9h0.6v-0.4c0-1.1,0.5-1.7,1.5-1.7c0.3,0,0.6,0.1,0.9,0.1v0.9
			c-0.2-0.1-0.4-0.1-0.6-0.1c-0.5,0-0.7,0.3-0.7,0.8v0.3h1.3v0.9h-1.3v4.2L509.2,310L509.2,310z"/>
		<path style="fill:#0E2243;" d="M512.6,310v-5.1h1.1v1.1c0.3-0.7,1-1.2,1.7-1.2h0.1v1.2l0,0c-1.1,0-1.8,0.8-1.8,2.1v1.9H512.6z"/>
		<path style="fill:#0E2243;" d="M518.7,310.1c-1.5,0-2.6-1.2-2.6-2.6c0-1.4,1.1-2.7,2.6-2.7c0,0,0,0,0.1,0c1.5,0,2.6,1.2,2.6,2.6
			C521.4,309,520.2,310.1,518.7,310.1 M518.7,305.8c-0.9,0-1.6,0.7-1.6,1.7s0.7,1.7,1.6,1.7c0.9,0,1.6-0.7,1.6-1.7
			S519.7,305.8,518.7,305.8"/>
		<path style="fill:#0E2243;" d="M525.8,310v-2.9c0-0.8-0.4-1.3-1.1-1.3s-1.2,0.5-1.2,1.3v2.9h-1.1v-5.1h1.1v0.9l0.1-0.1
			c0.4-0.6,0.9-0.9,1.5-0.9c1.1,0,1.7,0.7,1.7,1.9v3.3L525.8,310L525.8,310z"/>
		<path style="fill:#0E2243;" d="M530,310.1c-1,0-1.4-0.5-1.4-1.5v-2.8H528v-0.9h0.6v-1.4h1.1v1.4h1.4v0.9h-1.4v2.6
			c0,0.5,0.2,0.7,0.7,0.7c0.2,0,0.5-0.1,0.7-0.2v0.9C530.7,310,530.3,310.1,530,310.1"/>
		<path style="fill:#0E2243;" d="M538.3,310.1c-1.9,0-3.3-1.5-3.3-3.5s1.5-3.5,3.4-3.5c1.3,0,2,0.5,2.6,1l-0.7,0.8
			c-0.6-0.6-1.2-0.8-1.9-0.8c-1.3,0-2.2,1.1-2.2,2.5s1,2.5,2.2,2.5c0.8,0,1.3-0.3,1.9-0.9l0.7,0.7
			C540.2,309.8,539.4,310.1,538.3,310.1"/>
		<path style="fill:#0E2243;" d="M542,304.9h1.1v5.1H542V304.9z M542,303h1.1v1H542V303z"/>
		<path style="fill:#0E2243;" d="M546.3,310.1c-1,0-1.4-0.5-1.4-1.5v-2.8h-0.6v-0.9h0.6v-1.4h1.1v1.4h1.4v0.9H546v2.6
			c0,0.5,0.2,0.7,0.7,0.7c0.2,0,0.5-0.1,0.7-0.2v0.9C547,310,546.7,310.1,546.3,310.1"/>
		<path style="fill:#0E2243;" d="M549.6,311.6c-0.4,0-0.8-0.1-1.1-0.3l0.3-0.8c0.2,0.1,0.4,0.2,0.6,0.2c0.3,0,0.6-0.2,0.7-0.6l0,0
			L548,305h1.1l1.5,3.9l1.3-3.9h1.1l-2,5.3C550.8,311.2,550.4,311.6,549.6,311.6"/>
	</g>
</g>
</svg>
