<?xml version="1.0" encoding="utf-8"?>
<!-- Generator: Adobe Illustrator 19.1.0, SVG Export Plug-In . SVG Version: 6.00 Build 0)  -->
<svg version="1.1" id="app_x5F_Muscat--parent" xmlns="http://www.w3.org/2000/svg" xmlns:xlink="http://www.w3.org/1999/xlink"
	 x="0px" y="0px" width="1024px" height="576px" viewBox="0 0 1024 576" style="enable-background:new 0 0 1024 576;"
	 xml:space="preserve">
<g id="map-data" style="display:none;">
	<rect x="-123.6" y="-144.3" style="display:inline;fill:#FFFFFF;" width="4135.8" height="2898.2"/>
	<g style="display:inline;">
		<g>
			<g>
				<path style="fill:#E0DAD5;" d="M4008.6,1877.3l-37-26l-7.6-3.4l-5.4-6.8c0,0-6.8-1.8-7.8-3.4c-1.2-1.4-6.6-8.4-6.6-8.4l-8-8.4
					l-5-7.6c0,0-3-7.2-3-8.8c0-1.4,0.8-7.8,0.8-7.8v-5.8l3.4-3.4l0.2-2.4l-4.4,0.6l-3-1.2l-0.8-5l0.8-1.8v-2.8l-1.2-3.4
					c0,0-1.8-2-2.4-3.2s-2-3.4-2-3.4h-5l-7-0.8l-7.6,1.8l-1.4,2.6l2.4,1.8l6.4,2.4l4.4,2l4,1.4l3.2,2v3.2v3.8c0,0-1.4,0.6-2.4,1.2
					s-2.6,1.8-2.6,1.8l-3.4,1.8l-3.4,0.6c0,0-2.6,0.6-3.4,1.2s-5.2,3.4-5.2,3.4l-2,2l-5.8,2l-2.4,1.2l-6.2,1.8l-2.6,1.4l-4.4,2
					l-1.8,1.4l-9,1.4l-3,0.8c0,0,2-0.2-3.4,1.4c-5.6,1.8-2.4-0.2-2.4-0.2l-3.2,2l-4,5.8l-3.4,5.2l-0.8,7c0,0,0.6,0.8-0.8,2.4
					c-1.4,1.4-4,5.8-4,5.8l-5,5.6l-2.6,3.4l-2.4,1.4l-3,5.8l-2.8,10.8c0,0,0,3.8,0,5s-0.8,1.2,0.6,3.4c1.4,2.4,5,9.8,6.6,11.2
					c1.4,1.4,4.4,4.6,4.4,4.6l4,10.8c0,0,1.6,7.2,1.8,8.2c0.2,0.8-10.8,4.8-10.8,4.8s-6.8-20.8-6.8-21.8c0-0.8-0.2-9.4-0.2-9.4
					l-3.4-11l-2-3.8l-1.8-5.2l-2.4-2.4l-3.4-0.6c0,0-1.2-0.6-2.6,2s-5.4,8.2-5.4,8.2s0.8,4.4,0.8,5.2s0.2,10.2,0.2,10.2l0.6,5.6
					l6.2,15.6c0,0-2,3.4-2.4,5.2c-0.2,1.8-0.6,3.8-0.6,3.8l-0.2,10.4l0.8,12.2c0,0-0.2,7.2-0.4,8.2c-0.2,0.8-2.2,10.8-2.2,10.8
					l-8.6-9.8c0,0-1.8-9-1.8-10.4s-2.2-10.8-2.2-10.8l-2.4-22.2l0.8-14.8c0,0,1-7.6,1.4-8.4c0.2-0.8,3.4-10,3.4-10l2.8-8.8l3-7
					l8.6-5.6l3-3.2l2.6-3l8.4-4l4-4l1.6-6.8l2.6-2.6l3.2-4.4c0,0,0-1.4,0.6-2.6s1.8-3.8,1.8-3.8l1.8-3.4l-0.2-2.6l2-3.2l6.8-4.2
					l5.6-2l7-3l4-5.2l2.6-5.6l2.2-6.4l0.6-3l2.4-3l3.2-3l3-4.4l11.2-8.6l-1.4-2.6l-11.8,9.4l-6.8-5.6l-3.4-2l-1.4-3.2l1.4-3l7.4-6.6
					l2.4-11l-2,1.2l-3,9l-7.4,7.2c0,0-3.2,1.8-4,1.8s-6.2-1.8-6.2-1.8s-1.2,0.2-2.4-2c-1.2-2.4-2.4-5-2.4-5l1.8-4.4l3.4-3.2l7,1
					l2,2.4l2.4,2.6l2.4-2.4l1.2-5.8l-2.4-3.4l-5-0.8c0,0-7,0.2-7.8,0.4s-7.2-1-7.2-1s-1.4,1.2-3-0.2c-1.4-1.4-2.4-1.8-2.6-3
					s-0.6-4.6-0.6-4.6l-1.4-4.4l-2.6-3.4l-2.6-2l-4-1.2l-4-0.8l-0.2-7.6l-4.6-2l-8.2,3.6c0,0-3.4,2.4-5.6,0.8
					c-2-1.4-4.4-3.4-4.4-3.4l-3.8-5.8l-2.4-5.6l-0.4-10.4l3.4-5.2l-5.2-2.6l-5.2-2.6c0,0-6.4,0.2-7-0.8s-0.2,2-0.6-0.8
					c-0.2-3,0.4-7.6,0.8-9c0.2-1.4,1.8-4.4,1.8-4.4l3-2.6l3.4-3l3.8-5v-4h2l0.2-5.6l-2.4-1.2l-2.4,1.4l-4.4,1.2l-3.4-0.8l-2.2,11.6
					l-2.8,12l-3.6,8.4l-3,6.4l-1.8,5.8l-1.4,2.4l2.2,8.4c0,0-0.2,7-0.4,7.8s-4.2,9.4-4.2,9.4h-4.4h-2.6h-3l-4.4,3
					c0,0-1.8,2.4-1.8,4.6s-1.4,7.8-1.6,9s-4,7-4.6,8.4s-4,4.4-4,4.4h-4.4l-3.2-4.6l-2.6-3.2c0,0-7.6,3.4-8.4,5.6
					c-0.8,2.4-3.2,4.6-3.2,4.6l-4.6,3.8l-6.2,0.2c0,0-2,1.8-3,0c-0.8-1.8-5.8-4.6-6.2-6.6c-0.2-2-1.6-11-1.6-11l4.6-4.4l3.2-2
					l10.2-1.4l0.6-3.8l4.6-1.2l6.4-1.4l3.2-3.4l-1.4-5.8l-3.4-3.2c0,0,0.6-2.6-3.4,1.2l-4,2.6l-12.8,2.4l-7.6-0.4v-5l-4.4-2.6
					l-6.4-1.8l-5.2,0.6l-6.4-4l-1.4,0.8l-5.8,1.8l-3.2-2.6l-3.8-4l-3.4-3.2l-4.2-8.4l-1.6-7.2l4.4-2.6l2.6-2h2.4l1.8-1.8l2.4-6.8
					l3-2.4l8.4-4l4.6-3.2l5-3.2c0,0,3-0.8,3-2.6s-1.8-5-1.8-5l-3-5.8h-4.4h-2.4c0,0-3.4,5.6-6,8.2s-2.4,3.8-5,5.2
					c-2.6,1.4-0.2-0.2-2.6,1.4c-2.4,1.8-3.8,1.4-3.8,1.4l-4.2-7l-2.6,1.4h-3.2l-3.2,2l-1.8-8.8l-0.2-10h-2.4h-4.6l-4.6,6.2l-3.4,1.6
					l-1.8-1.4c0,0,0.4-1.6,0-4s1.4-6.8,1.4-6.8s0.4-0.8,0.8-2.4c0.2-1.6,0.2-4.2,0.2-4.2l2.4-3l3.4-3.2l5-3.4l2.6-2.4l3.8-2l3.4-2.8
					l4.2-4l-1.2-2.8l-6.6-2.6h-2.8l-2.6,4.4l-8.2,3.2c0,0-0.4,1.6-3,2.4s-5.4,2-5.4,2l-9.4,1.4l-4.6,0.4l-1.8,1.2l-3.2-3.4
					c0,0,0-2.4,0-3.4s1.4-3.4,1.4-3.4l2.4-1.2l6.6-2.8l3-2c0,0,1.4-2.8,0.2-4.2c-1.2-1.6-1.2-1.6-1.2-1.6s-0.8,0-3.8,2.4
					s-3,2.4-3,2.4l-5.8,0.4l-6.6-2.2l-2.8-0.2l-5.8,2.4l-3,4.6c0,0-1.2,1.6-1.8,3c-0.8,1.6,0.4,2.4-3,4.6c-3.4,2.4-5.4,4.4-5.4,4.4
					l-5.4,1.2l-3.4-0.2l-6.2-0.2c0,0-2.8-1.2-4.2-1.8c-1.4-0.8-4-2.6-4-2.6s-1.8-0.8-3.2-2.6c-1.2-1.8-2.8-2.4-2.8-5
					c0-2.8-2.8,1.2,0-2.8c2.6-4,4.2-5.6,3.8-6.8c-0.4-1.2-2-2.6-3.2-2.6s-6.2,1.6-6.2,1.6l-1.8,1.2l-5.8,2.4l-68.6,40.8l-35,12
					c-3.4-13.6-0.2-27,6-39.8l1.4-9l-15.8-2l-7.4-8.8l-6.4-9.4l-15.8-3l-9.4-7.4l-10-4c-36.2,19.4-47.2-5.4-47.2-5.4l-6.2-7.4
					l0.2-0.2l-14.2-16.4l-6.4-16.4v-23.8l-28.8-19.8v-8.8l-8.8-3.4l-3.4-14.4l7.8-7l-12-10h-9.4l-4.6-11l4-14.4l10-6.4l4.6-13.4
					h-8.4l-6.4-7.4l-1-12l7.4-5.4l-3.4-7l-6-11c0,0-8.8-5.4-7.4,0c1.4,5.4-4,11-4,11c-14.4-1-13.4-9.4-13.4-9.4l0.4-6.4l4-4l6-6.4
					l2-12l-7.8-6.4l-4.6,12.4l-12-4.4c0,0-2,6-11,4s-4-15.8-4-15.8l5-8.4l5,8.4l14.8-3.4v-6.4l6.4-11c0,0,0-4.6,0-7s7.4-11,7.4-11
					l12.4-15.8l10-2.4l-12.4-21.8l-8.4,6.4l-7-3l-10,7l-7.8-4.6l6-8.8l-11.4-4.6l3-6l16.4,0.4v-5l-19.8-18v-28.2l-11-1h-36.8
					l-15.4-11l-0.4-15.4l8.8-2.4v-3h-18.8l-5-8.8l-6.4-16.4l-14.4-7.4l-10,6l3,8.8l-3.4,21.8l-9.4,2.4l-13.4-20.4l-10-5l-10.4-19.8
					l-8.4,4.6v13.4l-5.4,12.4l-19.4,9.4l-12-7.4l-12-2l-25.8,16.8l-10-2.4l-19.4,5.4l-8.4-9.4l-6.4-13.8l7.4-7.4l7,5l2,9.4l8.4-1.4
					l2-6.4l-11.4-19.4l7-8.8l16.4,16.2l13.4-6l-16.8-26.4l9.4-7l27.2,21.8l6-4.6l-32.2-29.2h-10.4l-14.4-16.4l-4.6-12.4l8.4-6.4
					l-5-7.8l-13-3.4l-8.4,6h-7l-7.4,4.6l-8.4,6.4l-13.4,1l-11.4,8.8l-11-8.8l-8.4-2.4l-6,3.4l-9.4,13.8l-23.8,4l-11.4-18.8
					l-26.8,23.8l-11.4-2l-13.4,4l-26.8-10l-9.4-7.4l-13,6l-14.4,2.4l-13.8-3l-18.8,11v8.4l-24.8,6l-49.6-4.6l-29.8-8.8l-28.6-17.4
					l-6-11.4l-12-7.4l-6-8.8l1.4-7l18.8-9.4l-11.4-1l-3-11l-9.4-6.4l-34.6-31.4l-9.4,6.4l-9.4-5.4v22.8l-13.4,7.8l-11,3.4l-7.4-14.8
					l-11-7.4l-11-2v14.8l-9.4,0.4l-3,11.4l7,8.8l-10.4,12.4l-4.6,11.4l-18.4,5l-7-6l-8.8,8.4l-1,7.4l10,10l-27.2,13l-13.8,11
					l5.4,2.4l-3.4,21.8l9.4,14.8l-101.2,60.6l-54,26.4l-162.2,65l-120,25.4l-113.6,12l-147.4,13.8l-174.6-18.4l-147.8,5h-38.8
					l-35.2-7.4h-30.8l-75.6-16.4l-72.4-21.8l-35.2-7.4l-10.4-8.4h-10l-9.4-5l-4-11l-20.8-5l-22.8,7.4l-56.6-19.4l-55-26.4
					l-26.4-12.4l-33.8-17.4l-3.2-1.8l-11.6-13.6l-4.2-4.8l-1-8.6l-6.8-8.2v-18.6l-8.2-14.6l-10-8.4l-1.4,8.4l3.8,14l-10.4,6.8
					l-4.2-3l-15.2,3l-1-3.4l-5.6-2.4v-3.2l7.2-2.4l5.6-3.8l-3.8-4.8l-7.2,1.4l-7.6-1.8l7.6-8.2l12.8,3.4l7.2,6.2l4.2-3.8v-8.2
					l-8.6-6.2l-12-4.2l-27.6,8.6l-6.8,8.2l-1.4,10l-25-13.2l-20.2-13.6c0,0-0.2,0.2-0.4,0.2l-110.6-71.6L311,819.1l-81-84.2
					l-36.2-23.8l-53.4-46.2l-59.8-23.2l-43.8-35.8v-15.8L27,575.3v-3.8h-6l3.4,9l6.8,10l-1.4,14.8l3.4,6.8l-1.8,7l-31-15.4
					c0-3.6,0.2-8.6,0-10c-0.2-2.4-11.2-10.4-11.2-10.4s4.2-4.2,4.2-8.6c0-4.2-4.2-3.4-4.2-3.4l25.6-8.6l24.8,2.4v-2.2l-24.8-3l-29,9
					l-21,17.4l-159.8-60l-151-55.6l-97-27.6l-31.4-27.6v2337.6h4181.2v-0.4h303L4008.6,1877.3z"/>
			</g>
		</g>
	</g>
</g>
<rect id="app_x5F_Muscat-road--zoom" x="90" y="200.6" style="fill:none;" width="454.4" height="255.6"/>
<g id="map_labels">
	<path style="fill:#B4985A;fill-opacity:0.75;stroke:#B4985A;stroke-width:0.166;" d="M153.3,293.5c-0.7,1.8-2.3,3.2-3.4,4.6
		c-0.4,0.5-1.5,2.5-0.9,2.9c2.2,1.7,4.3,3.4,6.5,5c0,0,9,5.3,9,5.4c0.9,0.6,2.1,0.9,3.1,1.4c1.4,0.7,2.9,1.4,4.4,2.1
		c7,3.1,14.3,5.6,21.5,8.2c2,0.7,4,1.4,6,2.2l20.6,6.7c0,0,16.1,6.2,16.1,6.3c2.8,1.1,5.8,1.9,8.6,2.9c0.7,0.2,1.4,0.5,2.1,0.6
		c1.1,0.2,2.3-0.2,3.4,0c2.7,0.4,5.3,2,7.1,2.6c0.6-2,1.2-4,1.8-6c0.1-0.4,0.4-1,0.4-1.3c-0.1-0.8-2.1-0.9-2.8-1.1
		c-2.2-0.5-4.5-0.9-6.7-1.4c-1.5-0.4-2.3-2.4-4.1-2.4c-1.4,0-3.6-0.1-4.5-1.4c-0.1-0.1-0.1-0.2-0.2-0.4c-0.2-0.4-0.3-0.9-0.4-1.2
		c-0.5-1.5-1.9-1.5-3.3-1.9c-1.2-0.4-2.5-0.8-3.8-0.3c-1.5,0.5-3,1.1-4.6,1.6c-0.2,0.1-0.4,0.1-0.5,0.1c-0.6,0.1-1.2-0.4-1.8-0.6
		c-0.8-0.3-1.6-0.6-2.4-0.8c-2.2-0.7-4.5-1.4-6.7-2.2c-4.4-1.7-8.8-3.5-13-5.6c-1.9-1-3.8-1.9-5.8-2.9c-3.2-1.5-6.6-3.1-9.8-4.7
		c-1.7-0.9-3.3-1.7-5-2.6c-0.7-0.4-1.6-0.8-2.2-1.3s-1.2-1.3-1.7-1.9c-0.6-0.8-1.3-1.6-2-2.3c-0.2-0.2-0.4-0.4-0.4-0.6
		s-0.1-0.5-0.1-0.8c-0.1-1.5-1.1-2.3-1.9-3.4v-1.5c0-1.7,0.1-3.4-0.7-5c-0.8-1.6-2-3.2-3.5-4.2c-0.9-0.6-0.9,1.1-1,1.7
		c-0.1,1.2,0.6,2.6,0.9,3.7c0.2,0.7-2.1,1.7-2.7,2c-0.1,0.1-1.2-0.7-1.5-0.7c-1.2,0-2.5,0.5-3.7,0.7c0.2-0.1-0.6-1.1-0.7-1.1
		c-0.4-0.2-0.7-0.2-1-0.4c0-0.9,0.3-1,1.1-1.2c0.6-0.2,1.2-0.5,1.7-0.9c0.6-0.6,0.3-0.8-0.2-1.4s-1.1,0-1.7,0.1
		c-0.9,0.1-1.6-0.2-2.5-0.5c0.2-1.2,1.4-1.4,1.9-1.9c0.4-0.5,1.7,0.1,2.3,0.3c0.7,0.2,1.4,0.4,1.9,0.8c0.5,0.4,0.9,1.3,1.6,1.1
		c0.4-0.2,0.9-1.1,0.9-1.5c0-0.5,0-1.2-0.3-1.6c-0.3-0.4-1.1-0.8-1.5-1.1c-1.1-0.6-2.1-1.1-3.3-1.5c-1-0.4-2.5,0.4-3.5,0.7
		c-1.3,0.4-2.7,0.8-3.9,1.3c-0.9,0.4-1.5,1.5-2.1,2.2l-0.4,2.7c-0.1,0.7-0.2,1.5-0.4,2.2C153.3,293.5,153.3,293.5,153.3,293.5z"/>
	<g>
		<path style="fill:#676767;" d="M191.8,363.5l-0.9-0.2l-0.4,0.4l1.1,0.6l0.5,1.1l0.4-0.4l-0.1-0.9l1.4-1.3l1.2,2.7l0.5-0.5
			l-0.6-3.3l1.4-1.3c0.2-0.2,0.2-0.5,0.1-0.7c-0.2-0.2-0.5-0.2-0.7-0.1l-1.4,1.3l-3.2-0.9l-0.5,0.5l2.5,1.5L191.8,363.5z"/>
		<path style="fill:#676767;" d="M189.1,366.7c2.4,2.7,6.5,2.9,9.2,0.5s2.9-6.5,0.5-9.2s-6.5-2.9-9.2-0.5
			C186.9,359.9,186.7,364,189.1,366.7z M198.3,358.4c2.2,2.4,2,6.1-0.4,8.3s-6.1,2-8.3-0.4c-2.2-2.4-2-6.1,0.4-8.3
			S196.1,356,198.3,358.4z"/>
	</g>
	
		<text transform="matrix(0.9935 0.1137 -0.1137 0.9935 282.9177 354.6479)" style="fill:#3C3C3D; font-family:'MarselisPro-Bold'; font-size:3.8495px;">18th November St.</text>
	
		<text transform="matrix(0.9796 -0.2011 0.2011 0.9796 280.6472 455.3185)" style="fill:#8A1739; font-family:'MarselisPro'; font-size:5.4157px;">Muscat Expressway</text>
	
		<text transform="matrix(0.8784 -0.5133 0.5328 0.8463 504.0807 414.7948)" style="fill:#3C3C3D; font-family:'MarselisPro-Bold'; font-size:3.7493px;">Muscat Expressway</text>
	<text transform="matrix(1 0 0 1 296.1742 380.8734)" style="fill:#3C3C3D; font-family:'MarselisPro-Bold'; font-size:3.8497px;">Sultan Qaboos St.</text>
	
		<text transform="matrix(0.9582 -0.286 0.286 0.9582 183.4991 406.2011)" style="fill:#3C3C3D; font-family:'MarselisPro-Bold'; font-size:3.8494px;">Sultan Qaboos St.</text>
	
		<text transform="matrix(0.9995 -3.029623e-02 3.029625e-02 0.9995 484.8644 371.4542)" style="fill:#3C3C3D; font-family:'MarselisPro-Bold'; font-size:3.8479px;">Sultan Qaboos St.</text>
	<text transform="matrix(1 0 0 1 115.5531 495.7938)" style="fill:#3C3C3D; font-family:'MarselisPro-Bold'; font-size:3.8497px;">Muscat Expressway</text>
	<line style="fill:none;stroke:#8A1739;stroke-width:0.5333;stroke-miterlimit:10;" x1="260.4" y1="395.4" x2="260.4" y2="408.5"/>
	<circle style="fill:#8A1739;" cx="260.4" cy="395.4" r="1.8"/>
	<g>
		<text transform="matrix(1 0 0 1 236.9545 414.0565)" style="fill:#8A1538; font-family:'MarselisPro'; font-size:5.4153px;">Oman International</text>
		<text transform="matrix(1 0 0 1 236.9545 420.5447)" style="fill:#8A1538; font-family:'MarselisPro'; font-size:5.4153px;">Exhibition Centre</text>
	</g>
	<g>
		<line style="fill:none;stroke:#8A1739;stroke-width:0.5333;stroke-miterlimit:10;" x1="204.3" y1="358.9" x2="213.5" y2="358.9"/>
		<circle style="fill:#8A1739;" cx="204.3" cy="358.9" r="1.8"/>
	</g>
	<g>
		<line style="fill:none;stroke:#8A1739;stroke-width:0.5333;stroke-miterlimit:10;" x1="119.3" y1="321.7" x2="111.5" y2="316.7"/>
		<ellipse style="fill:#8A1739;" cx="119.3" cy="321.7" rx="1.8" ry="1.8"/>
	</g>
	<line style="fill:none;stroke:#8A1739;stroke-width:0.5333;stroke-miterlimit:10;" x1="244.3" y1="433.1" x2="244.3" y2="446.1"/>
	<circle style="fill:#8A1739;" cx="244.3" cy="433.1" r="1.8"/>
	<g>
		<text transform="matrix(1 0 0 1 227.1117 451.738)" style="fill:#8A1538; font-family:'MarselisPro'; font-size:5.4153px;">Muscat Hills</text>
		<text transform="matrix(1 0 0 1 227.1117 458.226)" style="fill:#8A1538; font-family:'MarselisPro'; font-size:5.4153px;">Golf &amp; Country Club</text>
	</g>
	<g>
		<line style="fill:none;stroke:#8A1739;stroke-width:0.5333;stroke-miterlimit:10;" x1="161.6" y1="292.5" x2="161.6" y2="271.2"/>
		<circle style="fill:#8A1739;" cx="161.6" cy="292.5" r="1.8"/>
	</g>
	<g>
		<line style="fill:none;stroke:#8A1739;stroke-width:0.5333;stroke-miterlimit:10;" x1="164.4" y1="298.5" x2="171" y2="278.1"/>
		<circle style="fill:#8A1739;" cx="164.4" cy="298.5" r="1.8"/>
	</g>
	<g>
		<line style="fill:none;stroke:#8A1739;stroke-width:0.5333;stroke-miterlimit:10;" x1="174.7" y1="298.9" x2="185.9" y2="285.9"/>
		<circle style="fill:#8A1739;" cx="174.7" cy="298.9" r="1.8"/>
	</g>
	<g>
		<line style="fill:none;stroke:#8A1739;stroke-width:0.5333;stroke-miterlimit:10;" x1="169.5" y1="299.9" x2="159.9" y2="314.1"/>
		<circle style="fill:#8A1739;" cx="169.5" cy="299.9" r="1.8"/>
	</g>
	<line style="fill:none;stroke:#8A1739;stroke-width:0.5333;stroke-miterlimit:10;" x1="397.9" y1="431.9" x2="384.9" y2="431.9"/>
	<circle style="fill:#8A1739;" cx="397.9" cy="431.8" r="1.8"/>
	<line style="fill:none;stroke:#8A1739;stroke-width:0.5333;stroke-miterlimit:10;" x1="123.4" y1="396.5" x2="123.4" y2="409.5"/>
	<circle style="fill:#8A1739;" cx="123.4" cy="396.5" r="1.8"/>
	<g>
		<text transform="matrix(1 0 0 1 107.0023 415.3231)" style="fill:#8A1538; font-family:'MarselisPro'; font-size:5.4153px;">As Sahwah</text>
		<text transform="matrix(1 0 0 1 107.0023 421.8109)" style="fill:#8A1538; font-family:'MarselisPro'; font-size:5.4153px;">Public Garden</text>
	</g>
	<g>
		<text transform="matrix(1 0 0 1 48.3441 299.4998)" style="fill:#8A1538; font-family:'MarselisPro'; font-size:5.4153px;">The International</text>
		<text transform="matrix(1 0 0 1 48.3441 305.9871)" style="fill:#8A1538; font-family:'MarselisPro'; font-size:5.4153px;">School of</text>
		<text transform="matrix(1 0 0 1 48.3441 312.5135)" style="fill:#8A1538; font-family:'MarselisPro'; font-size:5.4153px;">Choueifat</text>
	</g>
	<g>
		<text transform="matrix(1 0 0 1 392.2611 471.911)" style="fill:#8A1538; font-family:'MarselisPro'; font-size:5.4153px;">Ghala Valley</text>
		<text transform="matrix(1.0574 0 0 1 392.2611 478.3984)" style="fill:#8A1538; font-family:'MarselisPro'; font-size:5.4153px;">Golf Club</text>
	</g>
	<line style="fill:none;stroke:#8A1739;stroke-width:0.5333;stroke-miterlimit:10;" x1="460.4" y1="420.6" x2="460.4" y2="433.6"/>
	<circle style="fill:#8A1739;" cx="460.4" cy="420.6" r="1.8"/>
	<g>
		<text transform="matrix(1 0 0 1 444.6654 438.8533)" style="fill:#8A1538; font-family:'MarselisPro'; font-size:5.4153px;">Mall of Oman</text>
	</g>
	<line style="fill:none;stroke:#8A1739;stroke-width:0.5333;stroke-miterlimit:10;" x1="896.8" y1="435.4" x2="896.8" y2="448.3"/>
	<circle style="fill:#8A1739;" cx="896.7" cy="435.3" r="1.8"/>
	<g>
		<text transform="matrix(1 0 0 1 879.847 454.1531)" style="fill:#8A1538; font-family:'MarselisPro'; font-size:5.4153px;">Qantab Beach</text>
	</g>
	<line style="fill:none;stroke:#8A1739;stroke-width:0.5333;stroke-miterlimit:10;" x1="992.8" y1="459.3" x2="992.8" y2="472.2"/>
	<circle style="fill:#8A1739;" cx="992.7" cy="459.2" r="1.8"/>
	<g>
		<text transform="matrix(1 0 0 1 973.9644 477.5145)" style="fill:#8A1538; font-family:'MarselisPro'; font-size:5.4153px;">Bandar Khiran</text>
	</g>
	<line style="fill:none;stroke:#8A1739;stroke-width:0.5333;stroke-miterlimit:10;" x1="948.1" y1="458.1" x2="948.1" y2="471"/>
	<circle style="fill:#8A1739;" cx="948" cy="458" r="1.8"/>
	<g>
		<text transform="matrix(1 0 0 1 944.3002 476.2625)" style="fill:#8A1538; font-family:'MarselisPro'; font-size:5.4153px;">Yiti</text>
	</g>
	<line style="fill:none;stroke:#8A1739;stroke-width:0.5333;stroke-miterlimit:10;" x1="856.2" y1="413.6" x2="856.2" y2="426.6"/>
	<circle style="fill:#8A1739;" cx="856.1" cy="413.6" r="1.8"/>
	<g>
		<text transform="matrix(1 0 0 1 845.0785 431.824)" style="fill:#8A1538; font-family:'MarselisPro'; font-size:5.4153px;">Al Bustan</text>
	</g>
	<line style="fill:none;stroke:#8A1739;stroke-width:0.5333;stroke-miterlimit:10;" x1="514.6" y1="398" x2="514.6" y2="421.3"/>
	<circle style="fill:#8A1739;" cx="514.5" cy="397.9" r="1.8"/>
	<g>
		<text transform="matrix(1 0 0 1 487.9408 426.3729)" style="fill:#8A1538; font-family:'MarselisPro'; font-size:5.4153px;">ABA International school</text>
	</g>
	<line style="fill:none;stroke:#8A1739;stroke-width:0.5333;stroke-miterlimit:10;" x1="584.9" y1="322.4" x2="584.9" y2="335.4"/>
	<circle style="fill:#8A1739;" cx="584.8" cy="322.4" r="1.8"/>
	<g>
		<line style="fill:none;stroke:#8A1739;stroke-width:0.5333;stroke-miterlimit:10;" x1="755.2" y1="310.7" x2="755.2" y2="323.7"/>
		<circle style="fill:#8A1739;" cx="755.1" cy="310.6" r="1.8"/>
	</g>
	<g>
		<text transform="matrix(1 0 0 1 562.4857 340.6678)" style="fill:#8A1538; font-family:'MarselisPro'; font-size:5.4153px;">Royal Opera House</text>
	</g>
	<g>
		<text transform="matrix(1 0 0 1 533.7396 366.3553)" style="fill:#8A1538; font-family:'MarselisPro'; font-size:5.4153px;">British International School</text>
	</g>
	<g>
		<text transform="matrix(1 0 0 1 645.0687 317.8387)" style="fill:#8A1538; font-family:'MarselisPro'; font-size:5.4153px;">Qurum Natural Park</text>
	</g>
	<line style="fill:none;stroke:#8A1739;stroke-width:0.5333;stroke-miterlimit:10;" x1="413.5" y1="401.1" x2="413.5" y2="414.1"/>
	<circle style="fill:#8A1739;" cx="413.4" cy="401.1" r="1.8"/>
	<g>
		<text transform="matrix(1 0 0 1 397.7972 419.3719)" style="fill:#8A1538; font-family:'MarselisPro'; font-size:5.4153px;">Sultan Qaboos </text>
		<text transform="matrix(1 0 0 1 397.7972 425.8582)" style="fill:#8A1538; font-family:'MarselisPro'; font-size:5.4153px;">Grand Mosque</text>
	</g>
	<g>
		<text transform="matrix(1 0 0 1 351.5424 427.033)" style="fill:#8A1538; font-family:'MarselisPro'; font-size:5.4153px;">Taisam</text>
		<text transform="matrix(1 0 0 1 351.5424 433.5203)" style="fill:#8A1538; font-family:'MarselisPro'; font-size:5.4153px;">International </text>
		<text transform="matrix(1 0 0 1 351.5424 440.0472)" style="fill:#8A1538; font-family:'MarselisPro'; font-size:5.4153px;">School</text>
	</g>
	<text transform="matrix(1 0 0 1 142.2762 268.6238)" style="fill:#8A1739; font-family:'MarselisPro'; font-size:5.4153px;"> Al Mouj Marina</text>
	<g>
		<line style="fill:none;stroke:#8A1739;stroke-width:0.5333;stroke-miterlimit:10;" x1="251.6" y1="338.6" x2="251.6" y2="317.3"/>
		<circle style="fill:#8A1739;" cx="251.6" cy="338.6" r="1.8"/>
	</g>
	<g>
		<line style="fill:none;stroke:#8A1739;stroke-width:0.5333;stroke-miterlimit:10;" x1="210.7" y1="325.8" x2="210.7" y2="304.5"/>
		<circle style="fill:#8A1739;" cx="210.7" cy="325.8" r="1.8"/>
	</g>
	<text transform="matrix(1 0 0 1 165.2777 276.7479)" style="fill:#8A1739; font-family:'MarselisPro'; font-size:5.4153px;">The Walk</text>
	<text transform="matrix(1 0 0 1 177.9701 283.9407)" style="fill:#8A1739; font-family:'MarselisPro'; font-size:5.4153px;">Kempinski Hotel </text>
	<text transform="matrix(1 0 0 1 142.2762 321.8748)" style="fill:#8A1739; font-family:'MarselisPro'; font-size:5.4153px;">Mysk by Shaza </text>
	<text transform="matrix(1 0 0 1 142.2762 328.3621)" style="fill:#8A1739; font-family:'MarselisPro'; font-size:5.4153px;">Al Mouj Hotel</text>
	<text transform="matrix(1 0 0 1 215.5258 360.119)" style="fill:#8A1739; font-family:'MarselisPro'; font-size:5.4153px;">Muscat International Airport</text>
	<text transform="matrix(1 0 0 1 91.2553 315.1351)" style="fill:#8A1739; font-family:'MarselisPro'; font-size:5.4153px;">Markaz Al Bahja</text>
	<text transform="matrix(1 0 0 1 237.4388 316.0282)" style="fill:#8A1739; font-family:'MarselisPro'; font-size:5.4153px;">Al Mouj Golf</text>
	<g>
		<line style="fill:none;stroke:#8A1739;stroke-width:0.5333;stroke-miterlimit:10;" x1="381.1" y1="354.7" x2="381.1" y2="333.4"/>
		<circle style="fill:#8A1739;" cx="381.1" cy="354.7" r="1.8"/>
	</g>
	<g>
		<line style="fill:none;stroke:#8A1739;stroke-width:0.5333;stroke-miterlimit:10;" x1="620.7" y1="316.3" x2="642" y2="316.3"/>
		<circle style="fill:#8A1739;" cx="620.7" cy="316.3" r="1.8"/>
	</g>
	<text transform="matrix(1 0 0 1 366.9594 332.119)" style="fill:#8A1739; font-family:'MarselisPro'; font-size:5.4153px;">Azaiba Beach</text>
	<g>
		<line style="fill:none;stroke:#8A1739;stroke-width:0.5333;stroke-miterlimit:10;" x1="568.5" y1="314.2" x2="568.5" y2="292.8"/>
		<circle style="fill:#8A1739;" cx="568.5" cy="314.2" r="1.8"/>
	</g>
	<text transform="matrix(1 0 0 1 554.3168 291.5844)" style="fill:#8A1739; font-family:'MarselisPro'; font-size:5.4153px;">Qurum Beach</text>
	<g>
		<line style="fill:none;stroke:#8A1739;stroke-width:0.5333;stroke-miterlimit:10;" x1="770" y1="309.9" x2="760.4" y2="299"/>
		<circle style="fill:#8A1739;" cx="770" cy="309.9" r="1.8"/>
	</g>
	<text transform="matrix(1 0 0 1 738.6498 329.4696)" style="fill:#8A1739; font-family:'MarselisPro'; font-size:5.4153px;">Bait Al Baranda</text>
	<text transform="matrix(1 0 0 1 777.9937 343.7069)" style="fill:#8A1739; font-family:'MarselisPro'; font-size:5.4153px;">Bait Al Zubair </text>
	<text transform="matrix(1 0 0 1 777.9937 350.1942)" style="fill:#8A1739; font-family:'MarselisPro'; font-size:5.4153px;">Museum</text>
	<text transform="matrix(1 0 0 1 815.7611 391.7502)" style="fill:#8A1739; font-family:'MarselisPro'; font-size:5.4153px;">Muscat Gate </text>
	<text transform="matrix(1 0 0 1 815.7611 398.238)" style="fill:#8A1739; font-family:'MarselisPro'; font-size:5.4153px;">Museum</text>
	<g>
		<line style="fill:none;stroke:#8A1739;stroke-width:0.5333;stroke-miterlimit:10;" x1="822" y1="320.8" x2="822" y2="299.4"/>
		<circle style="fill:#8A1739;" cx="822" cy="320.8" r="1.8"/>
	</g>
	<g>
		<line style="fill:none;stroke:#8A1739;stroke-width:0.5333;stroke-miterlimit:10;" x1="812.2" y1="303.7" x2="833.5" y2="303.7"/>
		<circle style="fill:#8A1739;" cx="812.2" cy="303.7" r="1.8"/>
	</g>
	<g>
		<line style="fill:none;stroke:#8A1739;stroke-width:0.5333;stroke-miterlimit:10;" x1="791.6" y1="328.6" x2="791.6" y2="337.6"/>
		<circle style="fill:#8A1739;" cx="791.6" cy="328.6" r="1.8"/>
	</g>
	<g>
		<line style="fill:none;stroke:#8A1739;stroke-width:0.5333;stroke-miterlimit:10;" x1="842.9" y1="379.7" x2="837.4" y2="385.5"/>
		<circle style="fill:#8A1739;" cx="842.9" cy="379.7" r="1.8"/>
	</g>
	<text transform="matrix(1 0 0 1 821.1029 342.0565)" style="fill:#8A1739; font-family:'MarselisPro'; font-size:5.4153px;">The National Museum</text>
	<text transform="matrix(1 0 0 1 821.1029 348.5438)" style="fill:#8A1739; font-family:'MarselisPro'; font-size:5.4153px;">Of Oman</text>
	<g>
		<line style="fill:none;stroke:#8A1739;stroke-width:0.5333;stroke-miterlimit:10;" x1="818.2" y1="331.2" x2="824" y2="336.7"/>
		<circle style="fill:#8A1739;" cx="818.2" cy="331.2" r="1.8"/>
	</g>
	<g>
		<line style="fill:none;stroke:#8A1739;stroke-width:0.5333;stroke-miterlimit:10;" x1="121" y1="363" x2="121" y2="341.6"/>
		<circle style="fill:#8A1739;" cx="121" cy="363" r="1.8"/>
	</g>
	<g>
		<line style="fill:none;stroke:#8A1739;stroke-width:0.5333;stroke-miterlimit:10;" x1="78.8" y1="319.1" x2="69.9" y2="314.9"/>
		<circle style="fill:#8A1739;" cx="78.8" cy="319.1" r="1.8"/>
	</g>
	<g>
		<path id="Rectangle-Copy-2_10_" style="fill:#FFFFFF;" d="M101.9,336.1h38.3c1.1,0,1.9,0.9,1.9,1.9v10.1c0,1.1-0.9,1.9-1.9,1.9
			h-38.3c-1.1,0-1.9-0.9-1.9-1.9V338C100,336.9,100.9,336.1,101.9,336.1z"/>
		<text transform="matrix(1 0 0 1 111.581 342.0565)" style="fill:#8A1538; font-family:'MarselisPro-Bold'; font-size:5.4134px;">City Cent</text>
		<text transform="matrix(1 0 0 1 133.4906 342.0565)" style="fill:#8A1538; font-family:'MarselisPro-Bold'; font-size:5.4134px;">r</text>
		<text transform="matrix(1 0 0 1 135.4716 342.0565)" style="fill:#8A1538; font-family:'MarselisPro-Bold'; font-size:5.4134px;">e</text>
		<text transform="matrix(1 0 0 1 111.581 347.4696)" style="fill:#8A1538; font-family:'MarselisPro-Light'; font-size:5.4134px;">Muscat</text>
		<g>
			<path id="Path_6_" style="fill:#8A1538;" d="M105.8,340.3c-1.8,0-3.1,1.1-3.1,2.6v2.8h1.1c0,0,0-1.6,0-2.8c0-1.3,1.2-2.3,2.3-2.5
				c0.1,0,0.1,0,0.1,0L105.8,340.3L105.8,340.3z"/>
			<path id="Path_3_" style="fill:#8A1538;" d="M106,340.4c-0.1,0.1-0.2,0.1-0.4,0.2c-0.6,0.4-1,1.3-1,2.1c0,0.1,0,0.1,0,0.2l0,0
				v0.1v2.8h0.9V343c0-0.2,0.1-0.4,0.2-0.4l0.4,0.4l0.4-0.4c0.2,0.1,0.2,0.3,0.2,0.4v2.8h0.9V343c0-0.8-0.6-1.5-1.4-1.5
				c-0.2,0-0.4,0.1-0.5,0.1l0,0c0.2-0.2,0.4-0.4,0.8-0.4l0,0c0.1,0,0.2,0,0.3,0.1c0.8,0.2,1.4,0.8,1.4,1.7c0,0.1,0,0.1,0,0.1v2.8
				h0.9v-2.8c0-1.2-0.6-2.2-1.9-2.5c-0.1,0-0.1-0.1-0.2-0.1s-0.2,0-0.3,0C106.3,340.3,106.2,340.3,106,340.4z"/>
		</g>
	</g>
	<g>
		<line style="fill:none;stroke:#8A1739;stroke-width:0.5333;stroke-miterlimit:10;" x1="616.4" y1="334.9" x2="616.4" y2="313.5"/>
		<circle style="fill:#8A1739;" cx="616.4" cy="334.9" r="1.8"/>
	</g>
	<g>
		<path id="Rectangle-Copy-2_1_" style="fill:#FFFFFF;" d="M597.4,299.5h38.3c1.1,0,1.9,0.9,1.9,1.9v10.1c0,1.1-0.9,1.9-1.9,1.9
			h-38.3c-1.1,0-1.9-0.9-1.9-1.9v-10.1C595.5,300.4,596.4,299.5,597.4,299.5z"/>
		<text transform="matrix(1 0 0 1 607.0717 305.4935)" style="fill:#8A1538; font-family:'MarselisPro-Bold'; font-size:5.4134px;">City Cent</text>
		<text transform="matrix(1 0 0 1 628.9818 305.4935)" style="fill:#8A1538; font-family:'MarselisPro-Bold'; font-size:5.4134px;">r</text>
		<text transform="matrix(1 0 0 1 630.9623 305.4935)" style="fill:#8A1538; font-family:'MarselisPro-Bold'; font-size:5.4134px;">e</text>
		
			<text transform="matrix(1 0 0 1 607.0717 310.9061)" style="fill:#8A1538; font-family:'MarselisPro-Light'; font-size:5.4134px;">Qurum</text>
		<g>
			<path id="Path_2_" style="fill:#8A1538;" d="M601.3,303.8c-1.8,0-3.1,1.1-3.1,2.6v2.8h1.1c0,0,0-1.6,0-2.8c0-1.3,1.2-2.3,2.3-2.5
				c0.1,0,0.1,0,0.1,0L601.3,303.8L601.3,303.8z"/>
			<path id="Path_1_" style="fill:#8A1538;" d="M601.5,303.9c-0.1,0.1-0.2,0.1-0.4,0.2c-0.6,0.4-1,1.3-1,2.1c0,0.1,0,0.1,0,0.2l0,0
				v0.1v2.8h0.9v-2.8c0-0.2,0.1-0.4,0.2-0.4l0.4,0.4l0.4-0.4c0.2,0.1,0.2,0.3,0.2,0.4v2.8h0.9v-2.8c0-0.8-0.6-1.5-1.4-1.5
				c-0.2,0-0.4,0.1-0.5,0.1l0,0c0.2-0.2,0.4-0.4,0.8-0.4l0,0c0.1,0,0.2,0,0.3,0.1c0.8,0.2,1.4,0.8,1.4,1.7c0,0.1,0,0.1,0,0.1v2.8
				h0.9v-2.8c0-1.2-0.6-2.2-1.9-2.5c-0.1,0-0.1-0.1-0.2-0.1s-0.2,0-0.3,0C601.8,303.8,601.7,303.8,601.5,303.9z"/>
		</g>
	</g>
	<g>
		<path id="Rectangle-Copy-2_29_" style="fill:#8A1739;" d="M191.6,290.6h38.3c1.1,0,1.9,0.9,1.9,1.9v10.1c0,1.1-0.9,1.9-1.9,1.9
			h-38.3c-1.1,0-1.9-0.9-1.9-1.9v-10.1C189.8,291.4,190.6,290.6,191.6,290.6z"/>
		<text transform="matrix(1 0 0 1 201.3207 296.5662)" style="fill:#FFFFFF; font-family:'MarselisPro-Bold'; font-size:5.4134px;">Al Mouj</text>
		
			<text transform="matrix(1 0 0 1 201.3207 301.9792)" style="fill:#FFFFFF; font-family:'MarselisPro-Light'; font-size:5.4134px;">Muscat</text>
		<g>
			<path id="Path_10_" style="fill:#FFFFFF;" d="M195.6,294.9c-1.8,0-3.1,1.1-3.1,2.6v2.8h1.1c0,0,0-1.6,0-2.8
				c0-1.3,1.2-2.3,2.3-2.5c0.1,0,0.1,0,0.1,0L195.6,294.9L195.6,294.9z"/>
			<path id="Path_11_" style="fill:#FFFFFF;" d="M195.8,295c-0.1,0.1-0.2,0.1-0.4,0.2c-0.6,0.4-1,1.3-1,2.1c0,0.1,0,0.1,0,0.2l0,0
				v0.1v2.8h0.9v-2.8c0-0.2,0.1-0.4,0.2-0.4l0.4,0.4l0.4-0.4c0.2,0.1,0.2,0.3,0.2,0.4v2.8h0.9v-2.8c0-0.8-0.6-1.5-1.4-1.5
				c-0.2,0-0.4,0.1-0.5,0.1l0,0c0.2-0.2,0.4-0.4,0.8-0.4l0,0c0.1,0,0.2,0,0.3,0.1c0.8,0.2,1.4,0.8,1.4,1.7c0,0.1,0,0.1,0,0.1v2.8
				h0.9v-2.8c0-1.2-0.6-2.2-1.9-2.5c-0.1,0-0.1-0.1-0.2-0.1s-0.2,0-0.3,0C196.1,294.9,195.9,294.9,195.8,295z"/>
		</g>
	</g>
	<text transform="matrix(1 0 0 1 807.7924 298.1882)" style="fill:#8A1739; font-family:'MarselisPro'; font-size:5.4153px;">Al Alam Palace</text>
	<text transform="matrix(1 0 0 1 834.726 305.6326)" style="fill:#8A1739; font-family:'MarselisPro'; font-size:5.4153px;">Jalali Fort</text>
	<text transform="matrix(1 0 0 1 765.2172 283.9407)" style="fill:#8A1739; font-family:'MarselisPro'; font-size:5.4153px;">Corniche Mutrah</text>
	<g>
		<line style="fill:none;stroke:#8A1739;stroke-width:0.5333;stroke-miterlimit:10;" x1="784.2" y1="306.7" x2="784.2" y2="285.5"/>
		<circle style="fill:#8A1739;" cx="784.2" cy="306.7" r="1.8"/>
	</g>
	<text transform="matrix(1 0 0 1 783.4027 270.5721)" style="fill:#8A1739; font-family:'MarselisPro'; font-size:5.4153px;">Riyam Park Monument</text>
	<g>
		<line style="fill:none;stroke:#8A1739;stroke-width:0.5333;stroke-miterlimit:10;" x1="795.5" y1="300.5" x2="813.5" y2="272.6"/>
		<circle style="fill:#8A1739;" cx="795.5" cy="300.5" r="1.8"/>
	</g>
	<text transform="matrix(1 0 0 1 742.1469 296.118)" style="fill:#8A1739; font-family:'MarselisPro'; font-size:5.4153px;">Mutrah Souq</text>
	
		<g id="NorthPoint" transform="translate(1831.070256, 181.453972) rotate(50.000000) translate(-1831.070256, -181.453972) translate(1792.570256, 137.953972)">
		<path id="Fill-933" style="fill:#8A1538;" d="M-627.3,941.7l2.5,4.1l-4.2-1.9L-627.3,941.7z M-629.8,944.7l7.5,3l-4.3-6.8l-7.5-3
			L-629.8,944.7z M-627.3,941.7l2.5,4.1l-4.2-1.9L-627.3,941.7z M-629.8,944.7l7.5,3l-4.3-6.8l-7.5-3L-629.8,944.7z M-627.3,941.7
			l2.5,4.1l-4.2-1.9L-627.3,941.7z M-622.4,947.8l-4.3-6.8l-7.5-3.1l4.3,6.8L-622.4,947.8z M-631.4,934.5c4.5-1.6,9.5,0.7,11.1,5.3
			c1.6,4.5-0.7,9.5-5.2,11.1c-4.5,1.7-9.5-0.7-11.1-5.2C-638.3,941.2-635.9,936.2-631.4,934.5z M-624.9,952.8
			c5.5-2,8.4-8.1,6.4-13.7c-2-5.5-8.1-8.4-13.6-6.3c-5.5,2-8.4,8-6.4,13.5C-636.4,951.9-630.4,954.7-624.9,952.8z M-627.3,941.7
			l2.5,4.1l-4.2-1.9L-627.3,941.7z M-629.8,944.7l7.5,3l-4.3-6.8l-7.5-3L-629.8,944.7z M-627.3,941.7l2.5,4.1l-4.2-1.9L-627.3,941.7
			z M-629.8,944.7l7.5,3l-4.3-6.8l-7.5-3L-629.8,944.7z M-627.3,941.7l2.5,4.1l-4.2-1.9L-627.3,941.7z M-629.8,944.7l7.5,3l-4.3-6.8
			l-7.5-3L-629.8,944.7z M-627.3,941.7l2.5,4.1l-4.2-1.9L-627.3,941.7z M-629.8,944.7l7.5,3l-4.3-6.8l-7.5-3L-629.8,944.7z"/>
		<g id="Back-Copy-5_1_" transform="translate(34.000000, 0.000000)">
			
				<text transform="matrix(0.6467 -0.7628 0.7628 0.6467 -672.843 936.1053)" style="fill:#8A1538; font-family:'ArialMT'; font-size:5.4152px;">N</text>
		</g>
	</g>
</g>
</svg>
