<?xml version="1.0" encoding="utf-8"?>
<!-- Generator: Adobe Illustrator 19.1.0, SVG Export Plug-In . SVG Version: 6.00 Build 0)  -->
<svg version="1.1" id="app_x5F_Muscat-road--parent"
	 xmlns="http://www.w3.org/2000/svg" xmlns:xlink="http://www.w3.org/1999/xlink" x="0px" y="0px" width="1024px" height="576px"
	 viewBox="0 0 1024 576" style="enable-background:new 0 0 1024 576;" xml:space="preserve">
<g id="Map_Data" style="display:none;">
	<rect x="-142.4" y="-2526.6" style="display:inline;fill:#FFFFFF;" width="9305.4" height="6521"/>
	<g style="display:inline;">
		<g>
			<path style="fill:#E0DAD5;" d="M763.8,1065l103.6,26.8l50.4,11.4l54,1.6l50.2-5.6l43-5.6l52.4-3.8l21.6-4.6l64.8-50.6l66-8.8
				l24.4-31.6l31.4-0.8l7.2-14.2l-17.2-112.4V866c4.4-42.8-47.6-204-50-211.4l-13-30.8l-17.4-49.6l-12.2-42.4l12.4-16.8l1.2-0.6
				c17.6-10.2,37.2-22,39.6-24c0,0-0.2,0.2-0.4,0.4c1.6-1.8,9.6-8.2,72.4-51.8l77.6-49.6l48.8-26.2l24-25.2l16.6-22.4l4.6-20.8
				l-4.8-10.2l-27.8-28.6l-8.6-21.8l-1.4-60.6l3-30.4l1.6,0.2L1218.2-27.2L823-346.2l-59.2-61V1065L763.8,1065z"/>
		</g>
		<g>
			<path style="fill:#E0DAD5;" d="M9133.2,2028.4l-83.2-58.6l-17.2-7.6l-12-15.6c0,0-15.2-4.4-17.8-7.6s-14.6-18.8-14.6-18.8
				l-17.8-18.8l-11.4-16.8c0,0-6.8-16.2-6.8-19.6c0-3.2,1.8-17.6,1.8-17.6l-0.2-13l7.8-8l0.6-5.2l-9.8,1.4l-6.6-2.6l-2-11.2l2-4
				v-7.2l-2.8-7.8c0,0-4-4.6-5.4-7.2s-4.6-7.8-4.6-7.8l-11.2,0.2l-15.8-1.8l-17,4.2l-3.2,6l5.2,3.8l14.4,5.8l9.8,4.4l9.2,3.2
				l7.2,4.4v7.2l0.2,8.6c0,0-3.2,1.4-5.2,2.6c-2,1.4-5.8,4-5.8,4l-7.8,4l-7.8,1.4c0,0-5.8,1.4-7.8,2.8s-11.6,8-11.6,8l-4.6,4.6
				l-13,4.8l-5.2,2.6l-13.6,4l-5.8,3.4l-9.8,4.6l-3.8,3.4l-20.2,2.8l-6.6,2c0,0,4.6-0.8-7.8,3.4c-12.4,4-5.2-0.6-5.2-0.6l-7.2,4.6
				l-9,13.2l-7.8,11.8l-1.8,15.8c0,0,1.4,2-2,5.2c-3.2,3.4-9,13.2-9,13.2L8742,1955l-5.8,7.4l-5.2,3.2l-7,13.2l-6.4,24.2
				c0,0,0.2,8.6,0.2,11.2s-2,2.6,1.4,7.8s11.4,22.2,14.8,25.4c3.4,3.2,10,10.4,10,10.4l8.8,24.2c0,0,3.4,16.4,4.2,18.2
				c0.6,2-24,10.8-24,10.8s-15-47-15-49s-0.2-21-0.2-21l-7.4-24.8l-4.6-8.4l-4-11.8l-5.2-5.2l-7.8-1.2c0,0-2.6-1.2-5.8,4.6
				c-3.2,6-12.2,18.4-12.2,18.4s2,9.8,2.2,11.8c0,2,0.2,23,0.2,23l1.4,12.4l14.2,35.2c0,0-4.4,8-5,11.8c-0.6,4-1.2,8.6-1.2,8.6
				l-0.4,23.6l1.6,27.4c0,0-0.4,16.4-1,18.4s-5,24.2-5,24.2l-19.2-22c0,0-4.2-20.2-4.2-23.6c0-3.2-4.8-24.2-4.8-24.2l-5.2-49.6
				l1.6-33.4c0,0,2.4-17,3-19s7.6-22.4,7.6-22.4l6.2-19.8l7-15.8l19.4-12.6l6.4-7.2l5.8-6.6l18.8-8.8l9-9.2l3.8-15.2l5.8-6l7-10
				c0,0,0-3.2,1.2-6c1.2-2.6,3.8-8.6,3.8-8.6l3.8-8l-0.8-5.8l4.4-7.2l15-9.4l12.4-4.8l15.6-6.8l9-11.8l5.8-12.6l5-14.4l1.2-6.6
				l5.2-6.6l7.2-6.6l6.4-9.8l25.2-19.2l-3.4-5.8l-26.6,21.2l-15.2-13l-8-4.4l-3.4-7.2l3.2-6.6l16.8-14.6l5.6-25l-4.6,2.6l-7,20.4
				l-16.8,16.6c0,0-7.2,4-9.2,4s-13.8-3.8-13.8-3.8s-2.6,0.8-5.2-4.6c-2.6-5.2-5.4-11-5.4-11l3.8-9.8l7.8-7.2l15.8,2.4l4.6,5.2
				l5.4,5.8l5.2-5.2l2.4-13.2l-5.4-7.8l-11.2-1.8c0,0-15.8,0.2-17.6,0.8c-2,0.6-16.4-2.4-16.4-2.4s-3.2,2.6-6.6-0.6s-5.2-3.8-6-6.4
				c-0.6-2.6-1.4-10.4-1.4-10.4l-3.4-9.8l-6-7.8l-6-4.6l-9.2-2.6l-9-1.8l-0.2-17l-10-4.4l-18.2,8c0,0-7.8,5.4-12.4,2.2
				c-4.6-3.2-10-7.8-10-7.8l-8.6-13l-5.4-12.4l-1-23.6l7.8-11.8l-11.8-5.8l-11.8-5.8c0,0-14.4,0.2-15.8-1.8c-1.4-2-0.6,4.6-1.4-2
				s1.2-17,1.8-20.4c0.6-3.2,3.8-9.8,3.8-9.8l6.4-6l7.8-6.6l8.4-11.2l-0.2-9.2h4.6l0.6-12.4l-5.2-2.6l-5.2,3.4l-9.8,2.8l-7.8-1.8
				l-5,26.2l-6.2,27l-8.2,19l-7,14.4l-4.4,13.2l-3.2,5.2l4.8,19c0,0-0.4,15.8-1,17.6c-0.6,2-9.6,21-9.6,21l-9.8,0.2h-5.8h-6.6
				l-9.8,6.6c0,0-3.8,5.2-3.8,10.6c0,5.2-3,17.8-3.6,20.4s-9,15.8-10.2,19.2c-1.2,3.2-9,10-9,10l-9.8,0.2l-7.4-10.4l-6-7.2
				c0,0-17,7.4-18.8,12.6s-7,10.6-7,10.6l-10.4,8.6l-13.8,0.2c0,0-4.6,4-6.6,0s-13.2-10.4-14-14.8c-0.8-4.6-3.6-24.8-3.6-24.8
				l10.4-10l7.2-4.6l23-2.8l1.4-8.6l10.2-2.8l14.4-2.8l7.2-8l-3.4-13l-8-7.2c0,0,1.2-6-7.8,2.8l-9,6l-28.8,5.6l-17-1.2l-0.2-11.2
				l-9.8-5.8l-14.4-4.4l-11.8,1.4l-14.6-9l-3.2,2l-13,4l-7.2-5.8l-8.6-9l-8-7.2l-9.4-18.8l-3.4-16.4l9.8-6l5.8-4.6h5.2l3.8-4
				l5.8-15.2l6.4-5.4l18.8-8.8l10.4-7.4l11-7.4c0,0,6.6-2,6.4-6c0-4-4-11-4-11l-6.8-13l-9.8,0.2h-5.2c0,0-7.8,12.6-13.6,18.4
				c-5.8,6-5.2,8.6-11,12s-0.6-0.6-5.8,3.4s-8.4,3.4-8.4,3.4l-9.4-15.6l-5.8,3.4h-7.2l-7.2,4.6l-4-20l-0.2-22.6h-5.2l-10.4,0.2
				l-10.4,14l-7.8,3.6l-4.4-3.4c0,0,0.8-3.6-0.2-8.8c-1-5.2,3.4-15.6,3.4-15.6s0.8-2,1.6-5.4s0.8-9.6,0.8-9.6l5.2-7l7.8-7l11.2-8
				l6-5.4l8.6-4.4l7.8-6.2l9.4-8.8l-2.6-6l-15-6h-6.2l-6,9.6l-18.2,7.2c0,0-0.8,3.6-7,5.4s-12.2,4.6-12.2,4.6l-21,2.8l-10.4,1
				l-4.4,2.6l-7-7.8c0,0,0-5.2,0-7.8c0-2.6,3.4-7.8,3.4-7.8l5.2-2.6l14.8-6.2l7-4.4c0,0,3.4-6.2,0.8-9.6c-2.6-3.4-2.6-3.4-2.6-3.4
				s-1.8,0-8.6,5.4c-7,5.4-7,5.4-7,5.4l-13,1l-14.8-5l-6.2-0.8l-13,5.4l-6.8,10.6c0,0-2.6,3.6-4.2,7c-1.8,3.6,1,5.2-6.8,10.6
				s-12.2,9.8-12.2,9.8l-12.2,2.8l-7.8-0.8l-14-0.8c0,0-6.2-2.6-9.6-4.2c-3.6-1.8-8.8-6-8.8-6s-4.4-1.6-7-6s-6.2-5.2-6.2-11.2
				c0-6.2-6,2.6,0-6.2c6-8.8,9.4-12.4,8.6-15c-1-2.6-4.4-6-7-6s-14,3.6-14,3.6l-4.4,2.6l-13,5.4l-154.2,91.8l-78.6,27.2
				c-7.4-30.6-0.4-61.2,13.4-89.4l3-20.2l-35.8-4.4l-16.8-20l-14.6-21.2l-35.8-6.6l-21.2-16.8l-22.4-9c-81.4,43.6-106-12.2-106-12.2
				l-14.2-16.8l0.6-0.8l-32.2-37l-14.6-36.8v-53.6l-64.8-44.6v-20l-20-7.6l-7.8-32.6l17.8-15.6l-26.8-22.4h-21.2l-10-24.6l9-32.4
				l22.4-14.6l10-30.2h-19l-14.6-16.8l-2.2-26.8l16.8-12.2l-7.8-15.6l-13.4-24.6c0,0-20-12.2-16.8,0c3.4,12.2-9,24.6-9,24.6
				c-32.4-2.2-30.2-21.2-30.2-21.2l1.2-14.6l9-9l13.4-14.6l4.4-26.8L7359,723l-10,27.8l-26.8-9.8c0,0-4.4,13.4-24.6,9
				c-20-4.4-9-35.8-9-35.8l11.2-19l11.2,19l33.4-7.8v-13.8L7359,668c0,0,0-10,0-15.6c0-5.6,16.8-24.6,16.8-24.6l28-35.8l22.4-5.6
				l-28-49.2l-19,14.6l-15.6-6.6l-22.4,15.6l-17.8-10l13.4-20l-25.6-10l6.6-13.4l36.8,1.2v-11.2l-44.6-40.2v-63.6l-24.6-2.2h-82.6
				l-34.6-24.6l-1.2-34.6l20-5.6v-12.2h-42.4l-11.2-20l-14.6-36.8l-32.4-16.8l-22.4,13.4l6.6,20l-7.8,49.2l-21.2,5.6l-30.2-45.8
				L6989,272l-23.4-44.6l-19,10v30.2l-12.2,28l-43.6,21.2L6864,300l-26.8-4.4l-58,38l-22.4-5.6l-43.6,12.2l-19-21.2l-14.6-31.2
				l16.8-16.8l15.6,11.2l4.4,21.2l19-3.4l4.4-14.6l-25.6-43.6l15.6-20l39,36.8l30.2-13.4l-38-59.2l21.2-15.6l61.4,49.2l13.4-10
				l-72.6-65.8H6761l-32.4-36.8l-10-28l19-14.6l-11.2-17.8l-29-7.8l-19,13.4h-15.6l-16.8,10l-19,14.6l-30.2,2.2l-25.6,20l-24.6-20
				l-19-5.6l-13.4,7.8l-21.2,31.2l-53.6,9L6413.8,79l-60.2,53.6l-25.6-4.4l-30.2,9l-60.2-22.4L6216.4,98l-29,13.4L6155,117
				l-31.2-6.6l-42.4,24.6v19l-55.8,13.4l-111.6-10l-67-20l-64.8-39l-13.4-25.6L5742,56l-13.4-20l3.4-15.6l42.4-21.2L5748.8-3
				l-6.6-24.6L5721-42.2l-78.2-70.4L5621.6-98l-21.2-12.2v51.4L5570.2-41l-24.6,7.8l-16.8-33.4l-24.6-16.8l-24.6-4.4v32.4l-21.2,1.2
				l-6.6,25.6l15.6,20l-23.4,28L5434,45l-41.4,11.2L5377,42.8l-20,19l-2.2,16.8l22.4,22.4l-61.4,29l-31.2,24.6l12.2,5.6l-7.8,49.2
				l21.2,33.4L5082.4,379l-121.6,59.2l-365,146.2l-270.2,57L4070,668.2l-331.6,31.2l-393-41.4l-332.6,11.2h-87l-79.2-16.8h-69.2
				l-170.8-36.8l-163-49.2l-79.2-16.8l-23.4-19h-22.4l-21.2-11.2l-9-24.6l-46.8-11.2l-51.4,16.8L2063,456.8l-124-59.2l-59.2-28
				l-76.2-39.6l-7.2-4.2l-26.4-30.2l-9.6-10.8l-2.2-19.2l-15-18.2v-41.8L1725,173l-22.4-18.8l-3.2,18.8l8.6,31.6l-23.6,15l-9.6-6.4
				l-34.2,6.4l-2.2-7.4l-12.8-5.4v-7.4l16-5.4l12.8-8.6l-8.6-10.8l-16,3.2l-17.2-4.2l17.2-18.2l29,7.4l16,14l9.6-8.6V150l-19.2-14
				l-26.8-9.6l-62.2,19.2l-15,18.2l-3.4,22.6l-56-29.4l-45.2-30.6c0,0-0.4,0.2-0.8,0.8L1207-33.8l-395.2-319L628.4-542L547-595.6
				l-120.2-104l-134.8-52l-98.6-80.6v-35.2l-22-33.2v-8.6H158l7.4,20.4l15.6,22.4l-3.8,33.2l7.4,15l-4.4,15.6l-69.8-34.8
				c0.2-8.2,0.2-19.4-0.2-22.6c-0.6-5.4-25.2-23.6-25.2-23.6s9.6-9.6,9.6-19.2s-9.6-7.4-9.6-7.4l57.8-19.2l55.6,5.4v-5.4l-55.6-6.4
				l-65.4,20.4l-47.2,39l-359.8-135l-339.8-124.8l-218.4-62.4l-70.4-62.4v5259.6h9407.8v-1h681.8L9133.2,2028.4z"/>
		</g>
	</g>
	<g style="display:inline;">
		<polyline style="fill:none;stroke:#FFFFFF;stroke-width:4;stroke-linecap:round;stroke-miterlimit:10;" points="1252.8,509.2 
			1167.4,550.6 1087.2,525.8 1000.6,499.2 546.6,459 616.8,682.2 619.4,895.6 570.4,969.6 566.6,1041.4 		"/>
		<path style="fill:none;stroke:#FFFFFF;stroke-width:4;stroke-linecap:round;stroke-miterlimit:10;" d="M1193.8,1073.6v-75.2
			l-54-173.2L1077.2,696c0,0-44-72.8-21.4-119.2l31.2-51.2"/>
	</g>
	<g style="display:inline;">
		<path style="fill:none;stroke:#FFFFFF;stroke-width:10;stroke-miterlimit:10;" d="M6270.6,992.2c-38.2-43-102.6-82.6-156.2-103.4
			c-39.4-15.2-83.4-28.2-107.8-62.6c-17.2-24.4-22.2-56.4-42.4-78.2c-32-34.4-97.4-39.8-105.8-85.8c-2.4-13.2,1-27.4-5-39.4
			c-12-24-47-18.6-73.4-13.8c-49.2,9.2-101,2.8-146.6-17.6c-55.6-25-100.4-70-155.8-95.4c-52.8-24.2-112.6-29.2-170.6-28.2
			c-174.4,3-370.2,42-480.4,177c-60.8,74.4-141.2,148.4-238.8,167.6c-39.8,7.8-82,5.8-122.6,8.6c-74.8,5-150,3.6-224.6-4.4
			c-71.4-7.6-122.6,11.2-155.4,78.6c-22.2,45.6-32.2,96.2-59,139.8c-12.4,20.2-28.6,41.6-52.2,49.2c-33.6,10.8-80.2-10.2-114.4-15.8
			c-42.2-6.8-82.6-20.8-121.8-37.8c-79.6-34.8-140-53.2-221-84.8c-26-10-66.8-20.2-94.2-15c-20.6,4-55.6,13.2-75,21.4
			c-25,10.6-84.4,15.8-111.4,19.2c-38.2,4.8-79.8,5.8-116.8-7.2c-22.4-8-38-27.2-59.2-37.2s-47.2-13.8-70-17.6
			c-52.2-8.8-105.8-10.4-158.8-7.8c-83.4,4-183.4,13.6-257,57c-34.6,20.4-129.4,22.8-168.8,30.4c-50.8,9.8-103.2,6.4-154.8,9.6
			c-96.4,6.2-189.2,35.4-281.2,62.4c-70.6,20.8-142.8,42.2-216,51c-40.6,5-82.6-6.6-123.6-5.8c-45.2,0.8-88.2-18.6-125.4-42.6
			c-33.4-21.6-64.4-47.6-89.4-78.6c-28.4-35.4-34.4-76.4-41.2-120.2c-41.6-274.6-201.2-516-373.4-734
			C888.8-11,762.8-152.4,594.8-221.4c-55.4-22.8-114-36.8-172.4-51C283.4-306,144.2-339.4,5.2-373"/>
		<path style="fill:none;stroke:#FFFFFF;stroke-width:10;stroke-miterlimit:10;" d="M-946.2,840.6
			c56.4,48.4,105.4,105.2,144.8,168.2c13.2,21,25.6,42.8,43.6,59.6c55,51,145.8,41.4,205.4,87c41.6,31.8,61,85.2,98.6,121.6
			c66.2,64,169.6,62,261.6,60.8c98.2-1.2,196.6,3.8,294.2,14.6c69.8,7.8,139.2,18.4,208,32c67.2,13.4,132.2,30.4,197.2,51.8
			c117.8,38.6,235.4,78.8,348.4,130.4c111.6,51,218.6,113.6,311,194.8c39.4,34.6,77.4,73.4,126.6,91.4c32.6,12,68,14.2,102.6,12.8
			c112.2-4.4,222.8-45,311.4-114c18.8-14.6,37-30.8,58.8-40.8c46-21.2,99.4-11.8,150-9c26.8,1.4,53.8,0.4,80.6-2.2
			c13.6-1.4,27.2-3.2,40.8-5.4c11.8-1.8,24-1.6,33.6-9.4c6.2-4.8,11.2-11,17.8-15.2c7-4.4,15.4-6.4,23.4-8.4
			c45-10.8,89.8-21.6,135-31.2c58.6-12.4,117.6-23.6,176.6-33.2c93.4-15.2,132.6-43,227-51.2c40.2-3.4,104.4-17.4,143.6-27.4
			c53.8-13.8,99-15.2,148-41c79.6-41.8,184.4-31,271.2-54.6c86.6-23.8,191.8-79.6,278-53.6c67.8,20.4,128.6,60,196.2,80.8
			c51.4,15.8,116.6,16,148.2-27.6c62.4-86,213-91.2,318.4-104.4c60.6-7.6,114.2-10,171.4-33.4c56.4-23,109.2-53.6,161.8-84.2
			c43.6-25.4,87.2-50.8,129.2-78.4c32.2-21.2,64-44,99.8-58.6c65.8-26.8,146.6,12.6,202.6-41.8c16-15.4,25.2-36.2,36.2-55.4
			c18.2-32,43.4-46.4,75.6-62.2c75-36.8,156.4-60,228.8-102.2c34.6-20.2,68.2-44.8,107.4-53c15.6-3.2,32-3.8,46-11.2
			c22.8-11.8,34.2-37.6,43.6-61.4c29.4-75.2,56.2-144.4,63.4-224.8"/>
	</g>
</g>
<g id="Map_Labels">
	
		<g id="NorthPoint" transform="translate(1831.070256, 181.453972) rotate(50.000000) translate(-1831.070256, -181.453972) translate(1792.570256, 137.953972)">
		<path id="Fill-933" style="fill:#8A1538;" d="M-466.8,752.7l3.4,5.7l-5.8-2.7L-466.8,752.7z M-470.3,756.9l10.3,4.2l-5.9-9.3
			l-10.3-4.2L-470.3,756.9z M-466.8,752.7l3.4,5.7l-5.8-2.7L-466.8,752.7z M-470.3,756.9l10.3,4.2l-5.9-9.3l-10.3-4.2L-470.3,756.9z
			 M-466.8,752.7l3.4,5.7l-5.8-2.7L-466.8,752.7z M-460,761.1l-5.9-9.3l-10.3-4.2l5.9,9.3L-460,761.1z M-472.4,742.9
			c6.2-2.2,13.1,1,15.3,7.3c2.2,6.2-1,13.1-7.2,15.3c-6.2,2.2-13.1-1-15.3-7.2C-481.8,752.1-478.5,745.2-472.4,742.9z M-463.4,768
			c7.6-2.8,11.6-11.1,8.8-18.7c-2.7-7.6-11-11.5-18.7-8.7c-7.6,2.7-11.5,11-8.8,18.6C-479.3,766.8-471,770.7-463.4,768z
			 M-466.8,752.7l3.4,5.7l-5.8-2.7L-466.8,752.7z M-470.3,756.9l10.3,4.2l-5.9-9.3l-10.3-4.2L-470.3,756.9z M-466.8,752.7l3.4,5.7
			l-5.8-2.7L-466.8,752.7z M-470.3,756.9l10.3,4.2l-5.9-9.3l-10.3-4.2L-470.3,756.9z M-466.8,752.7l3.4,5.7l-5.8-2.7L-466.8,752.7z
			 M-470.3,756.9l10.3,4.2l-5.9-9.3l-10.3-4.2L-470.3,756.9z M-466.8,752.7l3.4,5.7l-5.8-2.7L-466.8,752.7z M-470.3,756.9l10.3,4.2
			l-5.9-9.3l-10.3-4.2L-470.3,756.9z"/>
		<g id="Back-Copy-5_1_" transform="translate(34.000000, 0.000000)">
			
				<text transform="matrix(0.6467 -0.7628 0.7628 0.6467 -516.6061 745.097)" style="fill:#8A1538; font-family:'ArialMT'; font-size:7.435px;">N</text>
		</g>
	</g>
	<path style="fill:#B4985A;fill-opacity:0.75;" d="M149.2,249.9c-1.5,3.9-5.2,7.1-7.7,10.5c-0.8,1.1-3.4,5.5-2,6.6
		c5,3.7,9.8,7.5,14.6,11.3c0,0,20.2,12,20.2,12.1c2.1,1.3,4.6,2.1,6.9,3.2c3.3,1.6,6.5,3.1,9.8,4.6c15.7,7.1,32.2,12.6,48.4,18.5
		c4.5,1.7,9,3.3,13.5,4.9l46.4,14.9l36.1,14.1c6.3,2.5,12.9,4.3,19.3,6.5c1.5,0.5,3.1,1,4.7,1.3c2.6,0.4,5.2-0.4,7.7-0.1
		c6,0.9,12,4.5,16.1,5.8c1.3-4.5,2.6-9.1,3.9-13.5c0.2-0.8,1-2.2,0.9-3c-0.2-1.7-4.6-2-6.3-2.3c-5-1.2-10.1-2.1-15.1-3.2
		c-3.5-0.7-5.3-5.4-9.2-5.4c-3.2,0-8.2-0.1-10.2-3.3c-0.2-0.3-0.3-0.5-0.4-0.9c-0.3-1-0.6-1.9-1-2.8c-1.2-3.5-4.2-3.4-7.4-4.3
		c-2.8-0.7-5.7-1.8-8.5-0.7c-3.4,1.2-6.8,2.4-10.3,3.5c-0.4,0.1-0.8,0.3-1.2,0.3c-1.3,0.1-2.8-1-3.9-1.4c-1.8-0.6-3.6-1.3-5.4-1.8
		c-5.1-1.5-10.1-3.3-15.1-5.1c-10-3.7-29.2-12.3-38.7-17.1c-4.4-2.2,0.7,0.1-3.6-2c-7.3-3.5-14.8-7-22-10.7
		c-3.7-1.9-7.5-3.8-11.1-5.9c-1.7-0.9-3.6-1.8-5.1-3c-1.4-1.2-2.7-2.8-3.9-4.3c-1.5-1.8-3-3.6-4.5-5.3c-0.4-0.4-0.7-0.9-1-1.4
		c-0.2-0.6-0.2-1.2-0.2-1.9c-0.2-3.3-2.4-5.3-4.4-7.7v-3.4c0-3.8,0.2-7.7-1.5-11.3c-1.8-3.6-4.6-7.1-7.9-9.4
		c-2.1-1.4-2.1,2.6-2.2,3.7c-0.1,2.6,1.4,5.8,2,8.4c0.4,1.6-4.8,3.8-6,4.5c-0.2,0.1-2.8-1.5-3.4-1.5c-2.7,0.1-5.7,1.1-8.4,1.6
		c0.3-0.1-1.3-2.4-1.7-2.6c-0.7-0.3-1.6-0.4-2.3-0.9c0.1-2,0.7-2.2,2.5-2.8c1.3-0.5,2.8-1,3.8-2c1.5-1.3,0.6-1.9-0.4-3.2
		c-1-1.3-2.6,0-3.8,0.2c-2.1,0.2-3.6-0.6-5.5-1c0.4-2.8,3.1-3.2,4.2-4.4c1-1.1,3.8,0.3,5.1,0.6c1.5,0.4,3.1,0.9,4.4,1.9
		c1.1,0.9,2,3,3.6,2.5c1-0.4,2-2.5,2.1-3.4c0-1.2,0-2.7-0.6-3.6c-0.7-1-2.4-1.8-3.4-2.3c-2.3-1.4-4.9-2.3-7.4-3.3
		c-2.2-0.8-5.7,1-7.9,1.6c-3,0.9-6,1.7-9,2.9c-2,0.9-3.4,3.5-4.7,5.1l-0.9,6C149.9,246.4,149.9,248.3,149.2,249.9
		C149.3,249.7,149.2,249.8,149.2,249.9z"/>
	<g>
		<path id="Rectangle-Copy-2_10_" style="fill:#FFFFFF;" d="M49.3,337.5h52.6c1.4,0,2.7,1.2,2.7,2.7V354c0,1.4-1.2,2.7-2.7,2.7H49.3
			c-1.4,0-2.7-1.2-2.7-2.7v-13.8C46.7,338.7,47.9,337.5,49.3,337.5z"/>
		<text transform="matrix(1 0 0 1 62.6196 345.7081)" style="fill:#8A1538; font-family:'MarselisPro-Bold'; font-size:7.4322px;">City Cent</text>
		<text transform="matrix(1 0 0 1 92.6997 345.7081)" style="fill:#8A1538; font-family:'MarselisPro-Bold'; font-size:7.4322px;">r</text>
		<text transform="matrix(1 0 0 1 95.4199 345.7081)" style="fill:#8A1538; font-family:'MarselisPro-Bold'; font-size:7.4322px;">e</text>
		<text transform="matrix(1 0 0 1 62.6196 353.1393)" style="fill:#8A1538; font-family:'MarselisPro-Light'; font-size:7.4322px;">Muscat</text>
	</g>
	<g>
		<path id="Rectangle-Copy-2_29_" style="fill:#8A1739;" d="M255.2,253.5h45.6c1.4,0,2.7,1.2,2.7,2.7V270c0,1.4-1.2,2.7-2.7,2.7
			h-45.6c-1.4,0-2.7-1.2-2.7-2.7v-13.8C252.5,254.7,253.7,253.5,255.2,253.5z"/>
		<text transform="matrix(1 0 0 1 270.2163 261.7316)" style="fill:#FFFFFF; font-family:'MarselisPro-Bold'; font-size:7.4322px;">Al Mouj</text>
		
			<text transform="matrix(1 0 0 1 270.2163 269.1625)" style="fill:#FFFFFF; font-family:'MarselisPro-Light'; font-size:7.4322px;">Muscat</text>
		<g id="Group_12_" transform="translate(5.000000, 5.000000)">
			<path id="Path_24_" style="fill:#FFFFFF;" d="M256.9,254.1c-2.3,0-3.9,1.6-3.9,3.6v4.1h1.3c0,0,0-2.2,0-4.1s1.4-3.3,2.9-3.6
				c0.1,0,0.1-0.1,0.1-0.1h-0.4L256.9,254.1L256.9,254.1z"/>
			<path id="Path_25_" style="fill:#FFFFFF;" d="M257.2,254.2c-0.2,0.1-0.4,0.1-0.6,0.3c-1,0.7-1.4,1.8-1.5,3c0,0.1,0,0.1,0,0.2l0,0
				v0.1v4.1h1.3v-4.1c0-0.3,0.1-0.5,0.3-0.6l0.5,0.6l0.5-0.6c0.2,0.1,0.3,0.4,0.3,0.6v4.1h1.3v-4.1c0-1.2-1-2.2-2.1-2.2
				c-0.3,0-0.5,0.1-0.8,0.2l0,0c0.3-0.3,0.7-0.5,1.2-0.5l0,0c0.1,0,0.3,0,0.4,0.1c1.2,0.2,2.1,1.2,2.1,2.3c0,0.1,0,0.1,0,0.1v4h1.2
				v-4c0-1.8-1-3.1-2.8-3.6c-0.1,0-0.2-0.1-0.3-0.1s-0.3-0.1-0.4-0.1C257.6,254.1,257.4,254.2,257.2,254.2z"/>
		</g>
	</g>
	<g>
		<line style="fill:none;stroke:#8A1739;stroke-width:0.5333;stroke-miterlimit:10;" x1="70.8" y1="310.9" x2="60.2" y2="304"/>
		<circle style="fill:#8A1739;" cx="70.8" cy="310.9" r="2.4"/>
	</g>
	<g>
		<line style="fill:none;stroke:#8A1739;stroke-width:0.5333;stroke-miterlimit:10;" x1="120.8" y1="273.6" x2="110.1" y2="266.7"/>
		<circle style="fill:#8A1739;" cx="120.8" cy="273.6" r="2.4"/>
	</g>
	<g>
		<text transform="matrix(1 0 0 1 96.6855 289.9706)" style="fill:#8A1538; font-family:'MarselisPro'; font-size:7.4028px;">The Marsa Plaza</text>
	</g>
	<g>
		<line style="fill:none;stroke:#8A1739;stroke-width:0.5333;stroke-miterlimit:10;" x1="160.5" y1="270.4" x2="150.7" y2="287.1"/>
		<circle style="fill:#8A1739;" cx="160.5" cy="270.4" r="2.4"/>
	</g>
	<g>
		<line style="fill:none;stroke:#8A1739;stroke-width:0.5333;stroke-miterlimit:10;" x1="203.9" y1="275.5" x2="216.2" y2="260.4"/>
		<circle style="fill:#8A1739;" cx="203.9" cy="275.5" r="2.4"/>
	</g>
	<g>
		<text transform="matrix(1 0 0 1 29.0264 209.399)" style="fill:#8A1538; font-family:'MarselisPro'; font-size:7.4028px;">Oman Oil Petrol Stations</text>
	</g>
	<g>
		<line style="fill:none;stroke:#8A1739;stroke-width:0.5333;stroke-miterlimit:10;" x1="13.4" y1="207.3" x2="26" y2="207.2"/>
		<circle style="fill:#8A1739;" cx="13.4" cy="207.3" r="2.4"/>
	</g>
	<text transform="matrix(1 0 0 1 32.3613 301.9028)" style="fill:#8A1739; font-family:'MarselisPro'; font-size:7.4347px;">Markaz Al Bahja</text>
	<text transform="matrix(1 0 0 1 218.6802 288.1114)" style="fill:#8A1739; font-family:'MarselisPro'; font-size:7.4347px;">Dog Park</text>
	<g>
		<g>
			<circle style="fill:#8A1538;" cx="80.9" cy="481.1" r="2.5"/>
		</g>
		<line style="fill:none;stroke:#8A1739;stroke-width:0.5333;stroke-miterlimit:10;" x1="80.9" y1="478.7" x2="80.9" y2="508"/>
	</g>
	<g>
		<g>
			<ellipse style="fill:#8A1538;" cx="158.9" cy="241.6" rx="2.5" ry="2.5"/>
		</g>
		<line style="fill:none;stroke:#8A1739;stroke-width:0.5333;stroke-miterlimit:10;" x1="161.4" y1="241.6" x2="132.1" y2="241.5"/>
	</g>
	<g>
		<g>
			<ellipse style="fill:#8A1538;" cx="204" cy="291.1" rx="2.5" ry="2.5"/>
		</g>
		<line style="fill:none;stroke:#8A1739;stroke-width:0.5333;stroke-miterlimit:10;" x1="206" y1="290" x2="216.2" y2="286.3"/>
	</g>
	<g id="Group_1_" transform="translate(5.000000, 5.000000)">
		<path id="Path_2_" style="fill:#8A1538;" d="M49.3,338.2c-2.3,0-3.9,1.6-3.9,3.6v4.1h1.3c0,0,0-2.2,0-4.1c0-1.9,1.4-3.3,2.9-3.6
			c0.1,0,0.1-0.1,0.1-0.1L49.3,338.2L49.3,338.2z"/>
		<path id="Path_1_" style="fill:#8A1538;" d="M49.6,338.3c-0.2,0.1-0.4,0.1-0.6,0.3c-1,0.7-1.4,1.8-1.5,3c0,0.1,0,0.1,0,0.2l0,0
			v0.1v4.1h1.3v-4.1c0-0.3,0.1-0.5,0.3-0.6l0.5,0.6l0.5-0.6c0.2,0.1,0.3,0.4,0.3,0.6v4.1h1.3v-4.1c0-1.2-1-2.2-2.1-2.2
			c-0.3,0-0.5,0.1-0.8,0.2l0,0c0.3-0.3,0.7-0.5,1.2-0.5l0,0c0.1,0,0.3,0,0.4,0.1c1.2,0.2,2.1,1.2,2.1,2.3c0,0.1,0,0.1,0,0.1v4h1.2
			v-4c0-1.8-1-3.1-2.8-3.6c-0.1,0-0.2-0.1-0.3-0.1s-0.3-0.1-0.4-0.1C50,338.2,49.8,338.3,49.6,338.3z"/>
	</g>
	<g>
		<line style="fill:none;stroke:#8A1739;stroke-width:0.5333;stroke-miterlimit:10;" x1="677.2" y1="377.2" x2="677.2" y2="347.9"/>
		<circle style="fill:#8A1739;" cx="677.2" cy="377.2" r="2.4"/>
	</g>
	<text transform="matrix(1 0 0 1 657.7002 346.2003)" style="fill:#8A1739; font-family:'MarselisPro'; font-size:7.4347px;">Azaiba Beach</text>
	<g>
		<line style="fill:none;stroke:#8A1739;stroke-width:0.5333;stroke-miterlimit:10;" x1="479.7" y1="372.8" x2="479.7" y2="343.5"/>
		<circle style="fill:#8A1739;" cx="479.7" cy="372.8" r="2.4"/>
	</g>
	<text transform="matrix(1 0 0 1 457.0732 341.8522)" style="fill:#8A1739; font-family:'MarselisPro'; font-size:7.4347px;">Al Shafaq Club</text>
	<g>
		<text transform="matrix(1 0 0 1 172.1294 224.0463)" style="fill:#8A1538; font-family:'MarselisPro'; font-size:7.4028px;">The Walk</text>
	</g>
	<g>
		<text transform="matrix(1 0 0 1 218.6802 234.8146)" style="fill:#8A1538; font-family:'MarselisPro'; font-size:7.4028px;">Kempinski Hotel </text>
	</g>
	<g>
		<g>
			<text transform="matrix(1 0 0 1 210.7603 250.0655)" style="fill:#8A1538; font-family:'MarselisPro'; font-size:7.4028px;">Al Mouj Muscat</text>
			<text transform="matrix(1 0 0 1 210.7603 258.9722)" style="fill:#8A1538; font-family:'MarselisPro'; font-size:7.4028px;">Beach Park</text>
		</g>
	</g>
	<g>
		<text transform="matrix(1 0 0 1 122.0293 305.0524)" style="fill:#8A1538; font-family:'MarselisPro'; font-size:7.4028px;">Mysk by Shaza Al Mouj Hotel</text>
	</g>
	<g>
		<text transform="matrix(1 0 0 1 34.8936 268.5986)" style="fill:#8A1538; font-family:'MarselisPro'; font-size:7.4028px;">Al Maha Petrol Station</text>
	</g>
	<g>
		<text transform="matrix(1 0 0 1 288.2549 396.9653)" style="fill:#8A1538; font-family:'MarselisPro'; font-size:7.4028px;">Muscat International Airport</text>
	</g>
	<g>
		<text transform="matrix(1 0 0 1 337.5605 297.7609)" style="fill:#8A1538; font-family:'MarselisPro'; font-size:7.4028px;">Al Mouj Golf</text>
	</g>
	<g>
		<line style="fill:none;stroke:#8A1739;stroke-width:0.5333;stroke-miterlimit:10;" x1="75.5" y1="403.3" x2="75.5" y2="355.3"/>
	</g>
	<g>
		<g>
			<line style="fill:none;stroke:#8A1538;stroke-width:0.6803;stroke-miterlimit:10;" x1="166.9" y1="211.6" x2="166.9" y2="246"/>
			<g>
				<circle style="fill:#8A1538;" cx="166.9" cy="245.9" r="2.5"/>
			</g>
		</g>
	</g>
	<g>
		<g>
			<line style="fill:none;stroke:#8A1538;stroke-width:0.6803;stroke-miterlimit:10;" x1="184" y1="227.1" x2="172.8" y2="259.6"/>
			<g>
				<circle style="fill:#8A1538;" cx="172.8" cy="259.5" r="2.5"/>
			</g>
			<g>
				<circle style="fill:#8A1538;" cx="184.4" cy="261.5" r="2.5"/>
			</g>
		</g>
	</g>
	<line style="fill:none;stroke:#8A1538;stroke-width:0.6803;stroke-miterlimit:10;" x1="216.8" y1="233.3" x2="196.3" y2="261"/>
	<g>
		<circle style="fill:#8A1538;" cx="196.4" cy="260.9" r="2.5"/>
	</g>
	<g>
		<circle style="fill:#8A1538;" cx="277.4" cy="317.2" r="2.5"/>
	</g>
	<g>
		<circle style="fill:#8A1538;" cx="264.5" cy="394.2" r="2.5"/>
	</g>
	<g>
		<circle style="fill:#8A1538;" cx="389.3" cy="477.6" r="2.5"/>
	</g>
	<g>
		<circle style="fill:#8A1538;" cx="352.9" cy="563.1" r="2.5"/>
	</g>
	<g>
		<ellipse style="fill:#8A1538;" cx="75.5" cy="401.9" rx="2.5" ry="2.5"/>
	</g>
	<g>
		<circle style="fill:#8A1538;" cx="369.5" cy="347.1" r="2.5"/>
	</g>
	
		<text transform="matrix(0.9935 0.1137 -0.1137 0.9935 439.8884 384.655)" style="fill:#3C3C3D; font-family:'MarselisPro-Bold'; font-size:5.3065px;">18th November St.</text>
	
		<text transform="matrix(0.855 -0.5186 0.5186 0.855 937.5035 521.679)" style="fill:#3C3C3D; font-family:'MarselisPro-Bold'; font-size:5.3065px;">Muscat Expressway</text>
	<text transform="matrix(1 0 0 1 469.7163 443.6636)" style="fill:#3C3C3D; font-family:'MarselisPro-Bold'; font-size:5.3067px;">Sultan Qaboos St.</text>
	
		<text transform="matrix(0.9582 -0.286 0.286 0.9582 216.195 500.6544)" style="fill:#3C3C3D; font-family:'MarselisPro-Bold'; font-size:5.3064px;">Sultan Qaboos St.</text>
	
		<text transform="matrix(0.9995 -3.029628e-02 3.029626e-02 0.9995 894.2696 422.4704)" style="fill:#3C3C3D; font-family:'MarselisPro-Bold'; font-size:5.3041px;">Sultan Qaboos St.</text>
	<line style="fill:none;stroke:#8A1739;stroke-width:0.5333;stroke-miterlimit:10;" x1="389.3" y1="476.5" x2="389.3" y2="505.7"/>
	<g>
		<g>
			<text transform="matrix(1 0 0 1 360.3511 518.3268)" style="fill:#8A1538; font-family:'MarselisPro'; font-size:7.4028px;">Oman International</text>
			<text transform="matrix(1 0 0 1 360.3511 527.6069)" style="fill:#8A1538; font-family:'MarselisPro'; font-size:7.4028px;">Exhibition Centre</text>
		</g>
	</g>
	<g>
		<line style="fill:none;stroke:#8A1739;stroke-width:0.5333;stroke-miterlimit:10;" x1="262.9" y1="394.2" x2="283.6" y2="394.2"/>
	</g>
	<line style="fill:none;stroke:#8A1739;stroke-width:0.5333;stroke-miterlimit:10;" x1="352.9" y1="561.2" x2="352.9" y2="590.5"/>
	<g>
		<line style="fill:none;stroke:#8A1739;stroke-width:0.5333;stroke-miterlimit:10;" x1="184.6" y1="261.5" x2="162.4" y2="297.5"/>
	</g>
	<g>
		<g>
			<text transform="matrix(1 0 0 1 63.3145 517.0386)" style="fill:#8A1538; font-family:'MarselisPro'; font-size:7.4028px;">As Sahwah</text>
			<text transform="matrix(1 0 0 1 63.3145 526.319)" style="fill:#8A1538; font-family:'MarselisPro'; font-size:7.4028px;">Public Garden</text>
		</g>
	</g>
	<g>
		<text transform="matrix(1 0 0 1 141.1763 207.2471)" style="fill:#8A1538; font-family:'MarselisPro'; font-size:7.4028px;"> Al Mouj Marina</text>
	</g>
	<g>
		<text transform="matrix(1 0 0 1 59.8003 235.2652)" style="fill:#8A1538; font-family:'MarselisPro'; font-size:7.4028px;">Horizon Kids</text>
		<text transform="matrix(1 0 0 1 59.8003 244.1724)" style="fill:#8A1538; font-family:'MarselisPro'; font-size:7.4028px;">International Nursery</text>
	</g>
	<g>
		<line style="fill:none;stroke:#8A1739;stroke-width:0.5333;stroke-miterlimit:10;" x1="369.5" y1="348.5" x2="369.5" y2="300.5"/>
	</g>
	<g>
		<line style="fill:none;stroke:#8A1739;stroke-width:0.5333;stroke-miterlimit:10;" x1="277.4" y1="319.8" x2="277.4" y2="271.8"/>
	</g>
	<g>
		<path style="fill:#676767;" d="M233.3,404.3l-1.7-0.3l-0.7,0.7l2.1,1.3l1.1,2.2l0.7-0.7l-0.2-1.7l2.7-2.5l2.3,5.1l1-0.9l-1.2-6.2
			l2.7-2.5c0.4-0.4,0.4-1.1,0.1-1.4c-0.4-0.4-1.1-0.4-1.4-0.1l-2.7,2.5l-6.1-1.7l-1,0.9l4.8,2.8L233.3,404.3z"/>
		<path style="fill:#676767;" d="M228.2,410.2c4.6,5.1,12.4,5.5,17.5,1c5.1-4.6,5.5-12.4,1-17.5c-4.6-5.1-12.4-5.5-17.5-1
			C224.1,397.3,223.6,405.1,228.2,410.2z M245.8,394.5c4.1,4.6,3.7,11.7-0.9,15.8c-4.6,4.1-11.7,3.7-15.8-0.9
			c-4.1-4.6-3.7-11.7,0.9-15.8C234.6,389.5,241.6,389.8,245.8,394.5z"/>
	</g>
</g>
</svg>
