<?xml version="1.0" encoding="utf-8"?>
<!-- Generator: Adobe Illustrator 19.1.0, SVG Export Plug-In . SVG Version: 6.00 Build 0)  -->
<svg version="1.1" id="app_x5F_Muscat--parent" xmlns="http://www.w3.org/2000/svg" xmlns:xlink="http://www.w3.org/1999/xlink"
	 x="0px" y="0px" width="1024px" height="576px" viewBox="0 0 1024 576" style="enable-background:new 0 0 1024 576;"
	 xml:space="preserve" preserveAspectRatio="none">
	 
	 <image xlink:href="Muscat-city-ipad.png" width="100%" height="100%" x="0" y="0" />


<g id="map-data" style="display:none;">
	<rect x="-50.6" y="-30" style="display:inline;fill:#FFFFFF;" width="1102.9" height="772.9"/>
	<g style="display:inline;">
		<g>
			<g>
				<path style="fill:#E0DAD5;" d="M59.5,394.9l12.3,3.2l6,1.3l6.3,0.2L90,399l5.1-0.6l6.2-0.4l2.6-0.5l7.7-6l7.8-1.1l2.9-3.7
					l3.7-0.1l0.9-1.7l-2-13.3v-0.1c0.5-5.1-5.7-24.2-5.9-25.1l-1.5-3.6l-2.1-5.9l-1.4-5.1l1.5-2l0.1-0.1c2.1-1.2,4.4-2.6,4.7-2.8
					l-0.1,0.1c0.2-0.2,1.1-1,8.6-6.1l9.2-5.9l5.8-3.1l2.8-3l2-2.7l0.5-2.5l-0.6-1.2l-3.3-3.4l-1-2.6l-0.2-7.2l0.4-3.6l0.2,0.1
					l-31.3-20.2l-46.8-37.8l-7-7.2L59.5,394.9L59.5,394.9z"/>
			</g>
			<g>
				<polygon style="fill:#E0DAD5;" points="969.1,444.6 971,445 973.7,444.7 974.6,445.1 975.3,445.9 976.6,444.4 976.6,443.4
					974.5,442 972.6,440.9 971.1,440.3 969.9,440.7 969,441.6 969.1,442.8 				"/>
				<polygon style="fill:#E0DAD5;" points="1017.9,486.8 1015.8,487.4 1015.2,488.1 1015.2,488.6 1016.4,488.6 1017.9,488.6
					1018.6,487.8 1019.6,487.2 1020.4,486.8 1020.4,486.1 1018.8,486.1 				"/>
				<path style="fill:#E0DAD5;" d="M965.3,458.5l1.7,0.3l1.7-0.9h1.1l0.6-0.4l1.6-0.9v-0.8h-0.8c0,0-2,0.5-2.2,0.6s-2.1,0.9-2.1,0.9
					l-1.5-0.2L965.3,458.5L965.3,458.5z"/>
				<path style="fill:#E0DAD5;" d="M1051.4,509.1l-9.9-6.9l-2-0.9l-1.5-1.9c0,0-1.8-0.5-2.1-0.9c-0.3-0.4-1.8-2.2-1.8-2.2l-2.1-2.2
					l-1.3-2c0,0-0.8-1.9-0.8-2.3s0.2-2.1,0.2-2.1v-1.5l0.9-0.9l0.1-0.6l-1.2,0.2l-0.8-0.3l-0.2-1.3l0.2-0.5v-0.7l-0.3-0.9
					c0,0-0.5-0.5-0.6-0.9c-0.2-0.3-0.5-0.9-0.5-0.9h-1.3l-1.9-0.2l-2,0.5l-0.4,0.7l0.6,0.5l1.7,0.6l1.2,0.5l1.1,0.4l0.9,0.5v0.9v1
					c0,0-0.4,0.2-0.6,0.3c-0.3,0.2-0.7,0.5-0.7,0.5l-0.9,0.5l-0.9,0.2c0,0-0.7,0.2-0.9,0.3s-1.4,0.9-1.4,0.9l-0.5,0.5l-1.5,0.5
					l-0.6,0.3l-1.7,0.5l-0.9,0.1l-1.2,0.5l-0.5,0.4l-2.4,0.4l-0.8,0.2c0,0,0.5-0.1-0.9,0.4c-1.5,0.5-0.6-0.1-0.6-0.1l-0.9,0.5
					l-1.1,1.5l-0.9,1.4l-0.2,1.9c0,0,0.2,0.2-0.2,0.6c-0.4,0.4-1.1,1.5-1.1,1.5l-1.3,1.5l-0.7,0.9l-0.6,0.4l-0.8,1.5l-0.7,2.9
					c0,0,0,1,0,1.3s-0.2,0.3,0.2,0.9c0.4,0.6,1.3,2.6,1.8,3c0.4,0.4,1.2,1.2,1.2,1.2l1.1,2.9c0,0,0.4,1.9,0.5,2.2
					c0.1,0.2-2.9,1.3-2.9,1.3s-1.8-5.5-1.8-5.8c0-0.2-0.1-2.5-0.1-2.5l-0.9-2.9l-0.5-1l-0.5-1.4l-0.6-0.6l-0.9-0.2
					c0,0-0.3-0.2-0.7,0.5s-1.4,2.2-1.4,2.2s0.2,1.2,0.2,1.4s0.1,2.7,0.1,2.7l0.2,1.5l1.7,4.2c0,0-0.5,0.9-0.6,1.4s-0.2,1-0.2,1
					l-0.1,2.8l0.2,3.3c0,0-0.1,1.9-0.1,2.2c-0.1,0.2-0.6,2.9-0.6,2.9l-2.3-2.6c0,0-0.5-2.4-0.5-2.8c0-0.4-0.6-2.9-0.6-2.9l-0.6-5.9
					l0.2-3.9c0,0,0.3-2,0.4-2.2s0.9-2.7,0.9-2.7l0.7-2.3l0.8-1.9l2.3-1.5l0.8-0.9l0.7-0.8l2.2-1.1l1.1-1.1l0.4-1.8l0.7-0.7l0.9-1.2
					c0,0,0-0.4,0.2-0.7s0.5-1,0.5-1l0.5-0.9l-0.1-0.7l0.5-0.9l1.8-1.1l1.5-0.5l1.9-0.8l1.1-1.4l0.7-1.5l0.6-1.7l0.2-0.8l0.6-0.8
					l0.9-0.8l0.8-1.2l3-2.3l-0.4-0.7l-3.1,2.5l-1.8-1.5l-0.9-0.5l-0.4-0.9l0.4-0.8l2-1.8l0.6-2.9l-0.5,0.3l-0.8,2.4l-2,1.9
					c0,0-0.9,0.5-1.1,0.5s-1.7-0.5-1.7-0.5s-0.3,0.1-0.6-0.5s-0.6-1.3-0.6-1.3l0.5-1.2l0.9-0.9l1.9,0.3l0.5,0.6l0.6,0.7l0.6-0.6
					l0.3-1.5l-0.6-0.9l-1.3-0.2c0,0-1.9,0.1-2.1,0.1c-0.2,0.1-1.9-0.3-1.9-0.3s-0.4,0.3-0.8-0.1c-0.4-0.4-0.6-0.5-0.7-0.8
					s-0.2-1.2-0.2-1.2l-0.4-1.2l-0.7-0.9l-0.7-0.5l-1.1-0.3l-1.1-0.2l-0.1-2l-1.2-0.5l-2.2,1c0,0-0.9,0.6-1.5,0.2
					c-0.5-0.4-1.2-0.9-1.2-0.9l-1-1.5l-0.6-1.5l-0.1-2.8l0.9-1.4l-1.4-0.7l-1.4-0.7c0,0-1.7,0.1-1.9-0.2s-0.1,0.5-0.2-0.2
					c-0.1-0.8,0.1-2,0.2-2.4c0.1-0.4,0.5-1.2,0.5-1.2l0.8-0.7l0.9-0.8l1-1.3v-1.1h0.5l0.1-1.5l-0.6-0.3l-0.6,0.4l-1.2,0.3l-0.9-0.2
					l-0.6,3.1l-0.7,3.2l-1,2.2l-0.8,1.7l-0.5,1.5l-0.4,0.6l0.6,2.2c0,0-0.1,1.9-0.1,2.1c-0.1,0.2-1.1,2.5-1.1,2.5H986h-0.7h-0.8
					l-1.2,0.8c0,0-0.5,0.6-0.5,1.2c0,0.6-0.4,2.1-0.4,2.4s-1.1,1.9-1.2,2.2c-0.2,0.4-1.1,1.2-1.1,1.2h-1.2l-0.9-1.2l-0.7-0.9
					c0,0-2,0.9-2.2,1.5s-0.9,1.2-0.9,1.2l-1.2,1l-1.7,0.1c0,0-0.5,0.5-0.8,0c-0.2-0.5-1.5-1.2-1.7-1.8c-0.1-0.5-0.4-2.9-0.4-2.9
					l1.2-1.2l0.9-0.5l2.7-0.4l0.2-1l1.2-0.3l1.7-0.4l0.9-0.9l-0.4-1.5l-0.9-0.9c0,0,0.2-0.7-0.9,0.3l-1.1,0.7l-3.4,0.6l-2-0.1V461
					l-1.2-0.7l-1.7-0.5l-1.4,0.2l-1.7-1.1l-0.4,0.2l-1.5,0.5l-0.9-0.7l-1-1.1l-0.9-0.9l-1.1-2.2l-0.4-1.9l1.2-0.7l0.7-0.5h0.6
					l0.5-0.5l0.6-1.8l0.8-0.6l2.2-1.1l1.2-0.9l1.3-0.9c0,0,0.8-0.2,0.8-0.7s-0.5-1.3-0.5-1.3l-0.8-1.5h-1.2h-0.6
					c0,0-0.9,1.5-1.6,2.2c-0.7,0.7-0.6,1-1.3,1.4s-0.1-0.1-0.7,0.4s-1,0.4-1,0.4l-1.1-1.9l-0.7,0.4h-0.9l-0.9,0.5l-0.5-2.3l-0.1-2.7
					h-0.6h-1.2l-1.2,1.7l-0.9,0.4l-0.5-0.4c0,0,0.1-0.4,0-1.1c-0.1-0.6,0.4-1.8,0.4-1.8s0.1-0.2,0.2-0.6c0.1-0.4,0.1-1.1,0.1-1.1
					l0.6-0.8l0.9-0.9l1.3-0.9l0.7-0.6l1-0.5l0.9-0.7l1.1-1.1l-0.3-0.7l-1.8-0.7h-0.7l-0.7,1.2l-2.2,0.9c0,0-0.1,0.4-0.8,0.6
					c-0.7,0.2-1.4,0.5-1.4,0.5l-2.5,0.4l-1.2,0.1l-0.5,0.3l-0.9-0.9c0,0,0-0.6,0-0.9s0.4-0.9,0.4-0.9l0.6-0.3l1.8-0.7l0.8-0.5
					c0,0,0.4-0.7,0.1-1.1s-0.3-0.4-0.3-0.4s-0.2,0-1,0.6s-0.8,0.6-0.8,0.6l-1.5,0.1l-1.8-0.6l-0.7-0.1l-1.5,0.6l-0.8,1.2
					c0,0-0.3,0.4-0.5,0.8s0.1,0.6-0.8,1.2c-0.9,0.6-1.4,1.2-1.4,1.2l-1.4,0.3l-0.9-0.1l-1.7-0.1c0,0-0.7-0.3-1.1-0.5
					c-0.4-0.2-1.1-0.7-1.1-0.7s-0.5-0.2-0.9-0.7c-0.3-0.5-0.7-0.6-0.7-1.3s-0.7,0.3,0-0.7c0.7-1.1,1.1-1.5,1-1.8
					c-0.1-0.3-0.5-0.7-0.9-0.7c-0.3,0-1.7,0.4-1.7,0.4l-0.5,0.3l-1.5,0.6L907,440.7l-9.3,3.2c-0.9-3.6-0.1-7.2,1.6-10.6l0.4-2.4
					l-4.2-0.5l-2-2.3l-1.7-2.5l-4.2-0.8l-2.5-2l-2.7-1.1c-9.7,5.2-12.6-1.4-12.6-1.4l-1.7-2l0.1-0.1l-3.8-4.4l-1.7-4.4v-6.3
					l-7.7-5.3v-2.3l-2.3-0.9l-0.9-3.8l2.1-1.9l-3.2-2.7h-2.5l-1.2-2.9l1.1-3.8l2.7-1.7l1.2-3.6h-2.2l-1.7-2l-0.3-3.2l2-1.4l-0.9-1.9
					l-1.6-2.9c0,0-2.3-1.4-2,0c0.4,1.4-1.1,2.9-1.1,2.9c-3.8-0.3-3.6-2.5-3.6-2.5l0.1-1.7l1.1-1.1l1.6-1.7l0.5-3.2l-2.1-1.7
					l-1.2,3.3l-3.2-1.2c0,0-0.5,1.6-2.9,1.1c-2.4-0.5-1.1-4.2-1.1-4.2l1.3-2.2l1.3,2.2l3.9-0.9v-1.7l1.7-2.9c0,0,0-1.2,0-1.9
					c0-0.6,2-2.9,2-2.9l3.3-4.2l2.7-0.6l-3.3-5.8l-2.2,1.7l-1.9-0.8l-2.7,1.9l-2.1-1.2l1.6-2.3l-3-1.2l0.8-1.6l4.4,0.1v-1.3
					l-5.3-4.8v-7.5l-2.9-0.3h-9.8l-4.1-2.9l-0.1-4.1l2.3-0.6v-0.8h-5l-1.3-2.3l-1.7-4.4l-3.8-2l-2.7,1.6l0.8,2.3l-0.9,5.8l-2.5,0.6
					l-3.6-5.4l-2.7-1.3l-2.8-5.3l-2.2,1.2v3.6l-1.4,3.3l-5.2,2.5l-3.2-2l-3.2-0.5l-6.9,4.5l-2.7-0.6l-5.2,1.4l-2.2-2.5l-1.7-3.7l2-2
					l1.9,1.3l0.5,2.5l2.2-0.4l0.5-1.7l-3-5.2l1.9-2.3l4.4,4.3l3.6-1.6l-4.5-7l2.5-1.9l7.3,5.8l1.6-1.2l-8.6-7.8h-2.8l-3.8-4.4
					l-1.2-3.3l2.2-1.7l-1.3-2.1l-3.5-0.9l-2.2,1.6H759l-2,1.2l-2.2,1.7l-3.6,0.3l-3,2.3l-2.9-2.3l-2.2-0.6l-1.6,0.9l-2.5,3.7
					l-6.3,1.1l-3-5l-7.1,6.3l-3-0.5l-3.6,1.1l-7.1-2.7l-2.5-2l-3.5,1.6l-3.8,0.6l-3.7-0.8l-5,2.9v2.2l-6.6,1.6l-13.8-1.2l-7.9-2.3
					l-7.6-4.6l-1.6-3l-3.2-2l-1.6-2.3l0.4-1.9l5-2.5l-3-0.3l-0.8-2.9l-2.5-1.7l-9.2-8.4l-2.5,1.7l-2.5-1.4v6.1l-3.6,2.1l-2.9,0.9
					l-2-3.9l-2.9-2l-2.9-0.5v3.9l-2.5,0.1l-0.8,3l1.9,2.3l-2.8,3.3l-1.2,3l-4.9,1.3l-1.9-1.6l-2.3,2.2l-0.3,2l2.7,2.7l-7.3,3.5
					l-3.7,2.9l1.4,0.6l-0.9,5.8l2.5,3.9l-27,16.2l-14.4,7l-43.3,17.3l-32,6.8l-30.3,3.2l-39.3,3.7l-46.6-4.9l-39.4,1.3H316l-9.4-2
					h-8.2l-20.2-4.4l-19.3-5.8l-9.4-2l-2.8-2.2H244l-2.5-1.3l-1.1-2.9l-5.5-1.3l-6.1,2l-15.1-5.2l-14.7-7l-7-3.3l-9-4.6l-0.9-0.5
					l-3.1-3.6l-1.1-1.3l-0.3-2.3l-1.8-2.2v-5l-2.2-3.9l-2.7-2.2l-0.4,2.2l1,3.7l-2.8,1.8l-1.1-0.8l-4.1,0.8l-0.3-0.9l-1.5-0.6v-0.9
					l1.9-0.6l1.5-1l-1-1.3l-1.9,0.4l-2-0.5l2-2.2l3.4,0.9l1.9,1.7l1.1-1v-2.2l-2.3-1.7l-3.2-1.1l-7.4,2.3l-1.8,2.2l-0.4,2.7
					l-6.7-3.5l-5.4-3.6l-0.1,0.1l-29.5-19.1L65,227l-21.6-22.5l-9.7-6.3l-14.2-12.3l-15.9-6.2l-11.7-9.5V166l-2.6-3.9v-1H-12
					l0.9,2.4l1.8,2.7l-0.4,3.9l0.9,1.8l-0.5,1.9l-8.3-4.1c0-1,0.1-2.3,0-2.7c-0.1-0.6-3-2.8-3-2.8s1.1-1.1,1.1-2.3
					c0-1.1-1.1-0.9-1.1-0.9l6.8-2.3l6.6,0.6v-0.6l-6.6-0.8l-7.7,2.4l-5.6,4.6l-42.6-16l-40.3-14.8l-25.9-7.4l-8.4-7.4v623.4h1115
					v-0.1h80.8L1051.4,509.1z"/>
			</g>
			<path style="fill:#E0DAD5;" d="M896.7,435c0,0,17.1,9.4,30.1,5.8l-3.2,11.6l-13.5,5.9l-13.5-2.9l-4.2-12.7L896.7,435z"/>
		</g>
		<g>
			<path style="fill:#E0DAD5;" d="M154.7,274.8L154.7,274.8c0.1-0.3,0.3-0.5,0.6-0.5c0.1,0.1,10.6,2,19.4,7.9s11.6,13.3,11.7,13.7
				c0.1,0.3-0.1,0.5-0.3,0.6c-0.3,0.1-0.5-0.1-0.6-0.3c-0.1-0.1-2.8-7.4-11.3-13.1c-8.6-5.8-18.9-7.7-19-7.7
				C154.8,275.3,154.7,275.1,154.7,274.8z"/>
		</g>
		<g>
			<path style="fill:#E0DAD5;" d="M460.6,348.4c-0.3,0-0.5-0.2-0.6-0.5l-1.7-10.8l-2.3-1.2c-0.3-0.2-0.5-0.5-0.3-0.9
				c0.2-0.3,0.5-0.5,0.9-0.3l2.8,1.5l1.8,11.5C461.2,348,461,348.3,460.6,348.4L460.6,348.4z"/>
		</g>
		<g>
			<path style="fill:#E0DAD5;" d="M457.1,348.3c-0.4,0-0.6-0.3-0.6-0.6l-0.8-9.7c-0.1-0.4,0.2-0.7,0.6-0.7c0.4-0.1,0.6,0.2,0.7,0.6
				l0.8,9.7C457.8,347.9,457.5,348.2,457.1,348.3L457.1,348.3z"/>
		</g>
		<g>
			<path style="fill:#E0DAD5;" d="M383.5,355.5c-0.4-0.1-0.6-0.3-0.6-0.6l0.1-9.7c0-0.4,0.3-0.6,0.6-0.7c0.4,0,0.6,0.3,0.6,0.7
				l-0.1,9.7C384.2,355.2,383.9,355.5,383.5,355.5C383.6,355.5,383.5,355.5,383.5,355.5z"/>
		</g>
		<g>
			<path style="fill:#E0DAD5;" d="M338.8,352.2c-0.4-0.1-0.6-0.2-0.6-0.4l-0.3-5.9c0-0.2,0.3-0.4,0.6-0.4c0.4,0,0.6,0.2,0.6,0.4
				l0.3,5.9C339.5,352.1,339.3,352.2,338.8,352.2L338.8,352.2z"/>
		</g>
		<path style="fill:#E0DAD5;" d="M640.4,217.8l-0.5,1.3v1.2l1.2,0.4c0,0,0.5-0.2,0.8-0.6c0.4-0.5,1-0.6,0.5-1.2
			c-0.5-0.5,0,0.2-0.5-0.5c-0.5-0.6,0.8-2.2,0.8-2.2s-0.4-1.7-0.8-2.2c-0.5-0.5-1.3-0.2-1.3-0.2l-1.5,1.3c0,0,0,1.2-0.4,1.7
			c-0.4,0.5-0.6,1.7-0.6,1.7l0.6,1L640.4,217.8z"/>
		<circle style="fill:#E0DAD5;" cx="957.3" cy="492.2" r="0.9"/>
		<circle style="fill:#E0DAD5;" cx="962.9" cy="476.3" r="0.9"/>
		<circle style="fill:#E0DAD5;" cx="928.6" cy="535.9" r="0.9"/>
		<circle style="fill:#E0DAD5;" cx="921.1" cy="491.6" r="0.9"/>
		<circle style="fill:#E0DAD5;" cx="480.4" cy="359.9" r="0.9"/>
		<circle style="fill:#E0DAD5;" cx="468.3" cy="401.6" r="0.9"/>
		<circle style="fill:#E0DAD5;" cx="438.2" cy="431.1" r="0.9"/>
		<circle style="fill:#E0DAD5;" cx="438.2" cy="425.6" r="0.9"/>
		<circle style="fill:#E0DAD5;" cx="435.9" cy="431.8" r="0.9"/>
		<circle style="fill:#E0DAD5;" cx="435.9" cy="426" r="0.9"/>
		<circle style="fill:#E0DAD5;" cx="515.6" cy="357.3" r="0.9"/>
		<circle style="fill:#E0DAD5;" cx="727.8" cy="394.9" r="0.9"/>
		<circle style="fill:#E0DAD5;" cx="963.5" cy="511.1" r="0.9"/>
		<path style="fill:#E0DAD5;" d="M833.7,290.1c-0.6,1.1-2.7,4.4,1.2,3.6c3.9-0.8,6.7,6.3,3.9-0.8C836.2,285.8,834.3,289,833.7,290.1
			z"/>
		<path style="fill:#E0DAD5;" d="M825.9,272.1c0.9,0.9,1.8,3.1,1.8,3.1l3.6,2.3c0,0,0.6-0.9,5,1.8c4.4,2.7,6.5,5.5,6.5,5.5h4.2
			c0,0-1.8,4.1,3,0.9c4.8-3.1,1.8-1.9,4.8-3.1s0,0,0,0l3-1.2c-3-6.3-1.2-4.5-1.2-4.5l-1.9-1.8c0,0-0.3-0.5-4.5-1.2
			c-4.2-0.6-4.2-0.6-4.2-0.6l0,0l-0.5-3.9c4.7-4.2,2.6-0.9,4.7-4.2c2.1-3.3,6.3,2.7,2.1-3.3c-4.2-6-1.5-4.1-1.5-4.1l-5.3-3.7
			l7.6-7.7c0,0-0.6-0.5,0-3.9c0.6-3.4,1.5-8.5,0-11.3c-1.5-2.7-4.5-5.1-4.5-5.1l-6.9-1.5v-7.4l2.1-7.1l1.7-2.7c0,0-2.6-6-3.8-4.2
			s-1.9,6-1.9,6s-2-0.8-3.6,4.6c-1.7,5.4-3.6,6.9-3.6,6.9h-3.1l-3.6-4.6l-1.8-9.1l-3.3-6l-3.1-4.5v-3.3l-7.2,2.1l-6.5-8.7l-6.9-7.9
			l2.4,17.2c0,0-12.1,2.1-6.9,6.9c5.1,4.8,5.1,4.8,5.1,4.8l2.1,6.1c0,0-0.9,0.1,4.1,3.5s11.9-6.2,5,3.4c-6.9,9.7-5,10.2-5,10.2
			s5.6-7.5,6.5,0c0.9,7.5,4.8,3.3,0.9,7.5c-3.9,4.2-3.6,1.8-3.9,4.2c-0.3,2.4-12.4,1.8-0.3,2.4c12.1,0.6,12.1,0.6,12.1,0.6l6.9-1.5
			l0.9,4.2l-1.5,4.1l5.7,3.6c6.9,4.8,6.9,4.8,6.9,4.8s5.2,1.8,1.7,3.9c-3.5,2.1,1.7,2.4-3.5,2.1s-0.6-2.7-5.1-0.3s-4.5,2.4-4.5,2.4
			L825.9,272.1z"/>
	</g>
	<path style="display:inline;fill:none;stroke:#FFFFFF;stroke-width:1.0667;stroke-miterlimit:10;" d="M116.7,328.9
		c0,0,26.5-22.7,35.5-25.7c0,0-33.4-21.9-45-29"/>
	<path style="display:inline;fill:#FFFFFF;" d="M270,342.2l-1.1,3.1l-0.6,2.2v2l-0.4,3l-0.8,3.5l-0.6,1.8l-1.9,0.4h-2.3l-1.2,1.4
		l-1.2,1.4v1.1v1.6v1.9v2.4v2.8l-2,4l-2.2,2.9l-2.8,3l-4.4,2c0,0-2.1,0.8-2.8,1c-0.6,0.2-4.5,1-4.5,1l-4,0.8l-6.2,1.2l-4.5,1.4
		l-5.5,1.1l-1.7,2.1l-1.6,1.5l-1.1,2.5v1.5l-0.6,2.1l-0.5,1.8l-3.1,1.8h-2.2h-0.6v1.6l-0.8,1.2l-2.1,4.2l-1.7,1.7l-2.4,3.5l-2.3,3.1
		l-2,2.2l-1.8,1.1l-2.2,1.4l-0.8,1.3v3.1l0.8,1.9l1.9,3.6l0.9,3.1v2l0.6,2.5l0.6,2.2v6.2l-0.5,1.5l3.2,4l-1.4,1.4l-2.5,3.2l-2.5,1.8
		l-2.2,1.9l-0.4,1.3l0.7,1l1.9,1.2l1.5,1.2l2.1,1.1l2,2.2l1.1,1.1l-0.4,2.2l-2.7,2.3l-2.5,1.4l-1.9,1.5l-0.4,1.3l1.5,1.1l2,0.9
		l3.2,1.2c0,0-0.2,0.7,0,1c0.2,0.2-0.7,3.2-0.7,3.2l-1.3,1.4l-1.2,1.7l-0.5,1.8l0.5,0.6l0.4-0.7l0.9-1.5l1.3-2.2l0.7-1.7l1.2-2.2
		l0.1-1.8l-1.3-1l-1.5-0.7l-2.6-0.6l-1.1-1.2c0,0,0.5-0.5,0.6-0.7c0.2-0.2,1.8-1.7,1.8-1.7l1.8-0.8l1.1-0.9c0,0,1.2-1.1,1.4-1.3
		s1.1-1.5,1.1-1.5l-1.8-2.3l-1.8-2.8l-1.5-0.7l-1.6-1.2l-1.9-0.7l-0.5-1.4l1.2-1.4c0,0,2.6-2.5,2.8-2.8c0.2-0.2,1.6-1.3,1.7-1.6
		c0.1-0.2,0.5-0.8,0.7-1.1c0.2-0.2,1.2-1.5,1.2-1.5l0.6-2.2l-1.2-1.6l-1.8-1.5l-0.6-1.2c0,0,0.8-1.6,0.9-2.1s-0.1-1.1,0-1.9
		c0.1-0.9-0.3-3.6-0.3-3.6l-1-4.6l-0.7-3.3c0,0-0.9-1-1-1.3c-0.1-0.4-0.9-1.9-1.1-2.3c-0.2-0.4-1.3-2.5-1.2-2.9s0.3-2.8,0.3-2.8
		s0.8-0.8,0.9-1.2c0.2-0.4,2.8-1.9,2.8-1.9l2-2.2l2.2-2.8l3.2-3.5c0,0,1.8-1.8,1.8-2.1c-0.1-0.4,1.6-3.1,1.6-3.1l1.3-3.1l1.2-0.8
		l2.8-0.7c0,0,1.2-1,1.5-1.2c0.4-0.2,1.9-3,2-3.4s0.9-2.5,0.9-2.8s0-1.7,0-1.7l2.3-3.6l5.7-1.2l5.3-1.2l2.7-0.2l5.7-1.5l2.9-0.8
		l4-0.4c0,0,4.2-1.7,4.8-1.9s2.9-1.1,2.9-1.1l1.8-1.7c0,0,4.2-3.1,4.5-3.6c0.2-0.6,2.8-3.1,2.8-3.1s0.2-3.4,0.2-3.8
		s-0.4-3.5-0.4-3.5s0.5-1.7,0.6-1.9s0.9-0.7,1-1c0.1-0.2,1.3-1.2,1.3-1.2l1.3-0.5l1.4-1l0.6-1.4l0.4-3.7l0.2-2.6l-0.2-1.9l0.7-2.7
		l1.6-3.3l0.8-2.2l0.7-1.8l0.4-1.5l-3.1-1"/>
	<g style="display:inline;">
		<polygon style="fill:none;stroke:#FFFFFF;stroke-width:1.0667;stroke-miterlimit:10;" points="151.3,307.3 146.5,313.5
			132.4,322.3 131,325.8 134.1,325.6 136.9,328.3 140.6,328.3 148.9,327.4 156.3,326.7 166.3,326 171.3,325 173.3,322.9 175.8,324
			184.5,323.9 183,321.1 		"/>
		<polyline style="fill:none;stroke:#FFFFFF;stroke-width:1.0667;stroke-miterlimit:10;" points="173.3,322.9 157.1,315.7
			148.7,316.4 134.1,325.6 		"/>
		<polyline style="fill:none;stroke:#FFFFFF;stroke-width:1.0667;stroke-miterlimit:10;" points="141.5,320.9 142.5,321.9
			163.6,320.1 164.3,318.9 		"/>
	</g>
	<path style="display:inline;fill:#FFFFFF;" d="M222.3,332.6l3,1.2l-3.6,2.9l-16.8,0.5l-3.4-0.5l-7.2-3.6l-32.3,2.3l-11.9,0.6
		c0,0-5.8,0.4-9.9,3.4c0,0-9.5,7.5-3.8,21.5c0,0,4.8,9.7,6.2,11.9c0,0,1.1,2.6-1.6,1.2l-2.7-1.8l-0.9-0.8h-1l-0.7,0.6
		c0,0-0.2,4.8,2.7,7.5l3.6,3l3,2.3l7.8,5.1l11.8,7.5l2.6,2.4l2.8,2.7l4.1,4l3.7,3.8c0,0,1.5,0.9,1.1,2.6l-2.3,11.4l-2.8,2.4
		l-2.8,2.2c0,0-6.1,7.5-6.4,9.9c0,0,3.3-8.1,5.6-9.9l5.5-4.6l2.8-11c0,0-1.1-2.7-3.6-4.6l-7.3-7.4l-7.6-6.1l-7.1-4l-6.5-3.7
		l-5.2-3.2l-4.1-3.1c0,0-2.8-2.2-3.6-4.4v-5.1v-2.3c0,0,0.2-1.8,0-2s0.5-3,0.5-3l-0.5-2.7l-1.1-2.7l-0.5-5.7v-3.8l0.6-4.6
		c0,0,4.1-8.1,9.3-9.7l5.1-1l3.1-0.4l2.4-0.2l0.5-0.9l0.8-1.2l10.9-0.8c0,0,10.8-1.1,11.3-1.1c0.4-0.1,6.9-0.8,7.3-0.8
		s5.4-0.4,5.5-0.4c0.2,0,3.2,0.8,3.2,0.8l2.7,1.5l2.7,1.4l3.2,1.5l3.9,1.3l2.7,0.5l7.1-0.1l4.8-0.1l1.3-0.6L222.3,332.6z"/>
	<path style="display:inline;fill:#FFFFFF;" d="M574.2,312.6l-1.1,0.6v1.2v1.7l0.5,0.9l0.7,0.6l0.8,0.3h1.1h0.8l0.7-0.6l1.2-0.7
		l0.9-0.5l1.1-0.1l0.9,0.3l0.8,0.3l0.9,0.3l1.2,0.2c0,0,0.5-0.4,0.5-0.6c0.1-0.3,0.3-0.7,0.4-1s0.5-1,0.5-1l0.8-0.4l0.8-0.1l0.7-0.1
		l0.6,0.4l0.5,0.6c0,0,0.4,0.4,0.6,0.5s0.6,0,0.6,0l0.4-0.3c0,0-0.1,0,0.3-0.2c0.4-0.2,0.9-0.6,0.9-0.6l0.6-0.2l0.7,0.1l0.6,0.5
		c0,0,0.3,0.1,0.4,0.6c0.1,0.6,0.8,1.9,0.8,1.9l0.9,0.8l1.4,0.4l1.9,0.7l2.2,1.1l1.3,1.3l0.5,0.7l0.3,0.6l0.6,0.5l2.2,1.7
		c0,0,0.4,0.8,0.5,1.1c0.2,0.3,1.8,2,1.8,2l0.5,1l0.4,1.7v2.6v1.8l-0.5,1.5v1.4v1.4l1,1.2l1.5,1.3l-1.3-2.1l-0.4-1.5l0.2-2.1
		l0.4-1.4l0.1-2.2l-0.1-2.5c0,0-0.4-1.1-0.5-1.4c-0.1-0.3-0.2-0.7-0.4-1s-1-1.4-1-1.4s-0.4-0.5-0.4-0.7s0.3-0.5,0.3-0.5l0.9-0.4
		l1.3-0.2l1-0.6l1.9-0.8l1.9-0.4l1.7,0.2l2.2,0.3l2.3,1.2l2.5,1.5l1.2,1.6l1.7,1.7l0.9,1.9l0.7,2v2.2l-0.5,2.3l-0.5,2.7l0.2,2.2
		l-0.1,3.1l0.1,1.8l0.5,1.4c0,0,0,0.9,0.4,1.3c0.4,0.4,2.5,1.7,2.5,1.7h1.7l1.3,0.3h1.4l1.1,0.4c0,0,0.9,0.1,1.5,0.2
		c0.6,0.1,1.9,0.8,1.9,0.8l1.6,1.1l1.4,1.3l1.4,1.4c0,0,1.4,1.2,1.6,1.4s2.2,2,2.2,2s1.3,1.3,1.5,1.4c0.2,0.2,1.4,1.2,1.6,1.5
		s1,1.1,1.3,1.3s2.2,1.2,2.6,1.5c0.4,0.3,1.7,1.2,1.9,1.2c0.3,0,2,1.1,2,1.1l1.9,0.4c0,0,1.9,0.1,2.3,0.2c0.4,0.1,4.2,1.2,4.8,3.2
		l0.2,1.7l0.4,2v1.9l0.4,0.2l0.4-0.4v-1.4v-2.1l0.3-1.1c0,0,0.1-0.2,0.5,0.4c0.4,0.5,1.3,0.9,1.3,0.9l0.9,0.4l1.4,0.5
		c0,0,1.1,0.4,1.2,0.5c0.1,0.2,1.4,1.1,1.4,1.1l1.3,0.9l1.8,1.2l0.7,0.9l0.8,0.7l-0.4,1.4c0,0,0.1,3.3,0.1,3.5s0.1,3.5,0.1,3.5
		s-0.2,3.1-0.2,3.4c0,0.3-0.4,3.4-0.4,3.4s0.1,1.2,0.2,1.4c0.1,0.2,0.4,1.4,0.6,1.7s0.9,0.4,0.9,0.4s0.4-1.4,0.4-1.7s-0.4-3-0.4-3.2
		s-0.1-3.9-0.1-3.9s0.6-2.1,0.4-2.3c-0.2-0.4-0.1-1,0.1-2.2c0.2-1.3,0.2-2.3,0.2-2.3s0.6-1.8,0.5-2c-0.1-0.2-0.6-1.2-0.7-1.3
		c-0.1-0.2-0.5-0.8-0.8-1.1s-0.9-0.8-0.9-0.8s-0.8-0.5-1-0.7c-0.2-0.2-1.1-0.8-1.2-1.1c-0.2-0.3-0.6-0.4-0.8-0.5
		c-0.2-0.1-0.6-0.3-0.8-0.4c-0.2-0.2-1-0.8-1.2-0.8c-0.2,0-1.3-0.7-1.3-0.7s-0.5-0.1-0.8-0.2c-0.3-0.1-1.2-0.6-1.5-0.7
		s-0.6-0.2-0.8-0.5c-0.2-0.3-0.4-0.4-0.5-0.7c-0.2-0.4-0.5-0.4-0.8-0.9c-0.2-0.4-0.4-0.4-0.6-0.9c-0.4-0.5-0.6-0.8-0.6-0.8
		s-0.4-0.2-0.6-0.3s-1.1-0.4-1.1-0.4l0.6-1.3l0.5-0.8l0.5-0.9l0.6-0.5c0,0,0.4-0.1,0.5-0.2c0.1-0.1,0.6-0.2,0.7-0.2s1.2-0.4,1.2-0.4
		l0.9-0.2l0.6-0.2l-0.2-0.5c0,0-1.3,0.3-1.7,0.4c-0.2,0.1-0.5,0.1-0.9,0.3c-0.4,0.2-1.6,0.5-1.6,0.5l-1.1,0.5l-0.5,0.4l-1.9,1.3
		c0,0-0.3,0.1-0.6,0c-0.4-0.1-0.5-0.1-0.8-0.2c-0.4-0.1-1.8-0.1-2.1-0.3s-1.3-0.4-1.7-0.6c-0.3-0.2-1.4-0.6-1.7-0.8
		c-0.2-0.2-0.9-0.6-1.1-0.8s-1.9-1.1-1.9-1.1s-1.3-1.7-1.5-1.8c-0.2-0.1-0.3-1.3-1.9-1.7c-1.7-0.4-3.5-2.3-3.6-2.4
		c-0.1-0.1-2.2-1.6-2.2-1.6s-1.4-1.1-1.6-1.2c-0.2-0.2-1.7-0.9-2.1-1.2c-0.4-0.4-1.1-0.7-1.7-1.1s-2.8-0.8-3.1-0.9
		c-0.4-0.1-2.3-0.6-2.8-0.7c-0.5-0.1-2.2-0.5-2.3-0.7c-0.1-0.2-1.2-1.1-1.2-1.1l-1.4-2.6l-0.6-2.8l0.2-2.2c0,0,0.1-1.3,0.1-1.5
		c0.1-0.2,0.6-1.5,0.6-1.5l0.5-1.6l-0.4-4.1c0,0-1.3-3.1-1.5-3.5c-0.2-0.4-1.1-1.5-1.3-1.9c-0.3-0.4-1.7-1.6-1.8-1.8
		c-0.1-0.2-1.8-1.5-1.8-1.5s-3.4-2.3-6.3-3c0,0-3.6,0.7-3.8,0.6c-0.2-0.1-2.5,0.7-2.8,0.8s-2.8,0.9-2.8,0.9s-1.4,0.4-1.7,0.2
		s-1.5-0.8-1.7-1c-0.2-0.2-0.9-0.8-1.1-1.1s-1.1-1.3-1.1-1.5c-0.1-0.2-1.3-1.1-1.3-1.1l-1.4-0.7l-1.1-0.5l-2-0.7l-1.2-0.8l-0.5-1.3
		v-0.8l0.2-1.3l0.5-0.5l0.5-0.6c0,0,0.1-0.3-0.1-0.6c-0.1-0.4-0.1-0.3-0.3-0.6c-0.2-0.3-0.5-0.4-0.6-0.6c-0.1-0.2-0.5-0.3-0.5-0.5
		s0-0.4,0-0.7s0-0.8,0-0.8l0.4-0.5l-0.4-2.5l0.2-1.3l0.2-1.1l0.5-0.8l0.7-0.6l0.2-1l-0.6,0.2L596,301l-0.5,0.5c0,0-0.5,0.6-0.5,0.8
		c-0.1,0.2,0,0.7-0.2,0.9s-0.6,0.5-0.6,0.5l-1.1-0.2c0,0-0.2-0.5-0.2-0.7c-0.1-0.2-0.3-0.4-0.3-0.4s-0.5,0.2-1,0.4s-2.1,0.8-2.1,0.8
		s-0.5,0.4-0.9,0.6c-0.4,0.3-1,0.6-1.4,0.9c-0.5,0.4-1.3,0.7-1.5,0.9c-0.3,0.2-1.4,0.7-1.4,0.7s-0.2,0.6-0.5,0.8
		c-0.2,0.2-0.2,0.3-0.6,0.7c-0.4,0.5-0.1,0.7-0.8,0.8c-0.7,0.1-1.4,0.1-1.4,0.1l-1,0.4l-0.6,0.2l-0.7,0.5l-0.9,0.5l-0.7,0.6
		l-0.8,0.4l-1,0.2L574.2,312.6z"/>
	<g style="display:inline;">
		<polygon style="fill:none;stroke:#FFFFFF;stroke-width:1.0667;stroke-miterlimit:10;" points="227,357.8 217.1,351.6 210.2,353.6
			210.8,363.8 212.3,365.6 219.7,364.8 		"/>
		<path style="fill:none;stroke:#FFFFFF;stroke-width:1.0667;stroke-miterlimit:10;" d="M227,357.8l5.3-0.6l22.9-2.3l11.6-0.5
			l7.9,1.2l10.7,4.5c0,0,13,6.5,11.3,27.3l1.7,38.2l7.9,8.6l2.8,5l2.2,15.5l0.4,5.7l-2.2,2.2"/>
	</g>
	<path style="display:inline;fill:#FFFFFF;" d="M400.4,352.4v-0.7h1l0.8,0.4c0,0,0.4-0.2,0.4,0.4c0.1,0.6,0.6,1.9,0.6,1.9v1.9
		l-0.4,1.5l-0.2,1.5c0,0-0.9,0.6-0.8,0.9c0.1,0.2,0,1.1,0,1.1v2.8l-0.6,1.8v1.2c0,0,0.2,1.1,0.2,1.3c0.1,0.2,0.4,1.6,0.4,1.6l2,2.1
		c0,0,0.9,0.9,1.3,1.3c0.4,0.4,2,1.8,2,1.8l1.2,1.2l1.2,1.3l0.7,1.1v2.2l-0.7,4.1l-0.4,2.3l-0.4,2.5L408,394l-0.9,3l-1.3,2.6
		l-1.2,3.4l-1.5,3l-1.2,2.2l-0.6,1.4l0.5,5.6l0.1,0.9l0.1,1.4l0.4,2.2l0.4,1.8l1.2,1.3l1.4,1.3l0.4,0.6l0.6,0.6l0.4,0.6l-0.8,1.5
		l-1,2.2l-2.7,3.4l-1.2,1.3l-2.4,2.8c0,0-2.5,1.9-2.5,2.2s-1.3,2.1-1.3,2.1l-0.8,1.8l-0.8,2.3l-1.4,2.6l-2.8,6.9l-1.4,3.4l-1.3,3
		l-0.8,0.8l-1.7,0.4l-2.5,0.4l-2.3,0.8l-1.9,0.5l-1.6,0.7l-1.8,0.8l-8.5,4.8l-3.3,2.5l-2.2,1.5c0,0-2.1,1.2-2.2,1.4
		s-1.9,1.7-1.9,1.7l-1.1,0.9l-0.9,0.5h-1.9l-2-0.7l-1.4-0.4l-1.6-0.4l-1.8-0.4l-2.6-0.3l-3.1,0.3c0,0-4.3,0.8-6.2,1.4l-3-0.4
		l-2.1-0.4l-2.3-0.2l-2.5-0.4H321l-0.5,0.4l-0.5,1.8v1.7c0,0-0.1,1,0,1.6c0.1,0.6-0.1,2.6-0.1,2.8c0.1,0.2-0.2,1.3-0.3,1.5
		s-0.4,0.9-0.5,1.4c-0.1,0.5-0.4,1.5-0.4,1.8s-0.5,1.6-0.4,2.1c0.2,0.4,0.2,1.3,0.2,1.3l0.4,0.8l0.4,1.6l0.6,2.8l0.5,1.4l-0.2,1.8
		l-0.6,2.1l-0.8,2.5l-0.6,1.5v1.8l-0.2,2.3l0.4,2l0.7,1.9l1.1,3.4l0.6,1.2l0.9,1.4l0.7,1.4l0.4,0.8l0.4,1.3l0.3,1.1l0.2,2.2l0.6,8.2
		l-0.2,2.5l0.1,1.6l-0.2,1.2c0,0-0.6,0.9-0.8,1.3c-0.2,0.4-1.2,1.9-1.2,1.9l-1.1,1.3l-2.8,3.9l-0.3,0.4l-1,0.5l-0.4-0.5l0.4-0.6
		l1-1.2l0.6-0.8l0.6-0.7l0.8-0.8l0.7-0.9l0.8-1.4l0.4-0.5l0.4-0.7l0.4-1.5l-0.2-2.5l0.1-1.7l-0.3-2.1l-0.4-2l-0.5-2.6l-0.6-2.5
		c0,0-0.6-0.6-0.6-1.1c0-0.4-0.7-2.8-0.7-2.8s-0.4-1.5-0.5-1.7c-0.1-0.2-0.6-1.8-0.6-1.8s-0.5-1.4-0.5-1.7c-0.1-0.4-0.9-2.8-0.9-2.8
		l-0.3-2c0,0,0.6-2.1-3.1,0.2l-2.5,1l-1.3,0.7l-1.6,1l-0.8,1.2l-1.7,2.2l-1.1,1.8l-1.7,2.6l-1.5,2.3l-2.3,2.3l-0.7,2l-0.4,1.8
		c0,0-0.8,1.3-0.8,1.6c-0.1,0.4-0.8,1.9-0.8,1.9l-0.8,1.3l-0.6,1.2l-0.6,0.9v2.1l-0.4,3.4v2.9l-0.6,1.4l-1.2,0.6l0.3-1.6l0.3-2.7
		l-0.2-1.6l0.3-2.8c0,0,0.3-2.3,0.4-2.7c0.1-0.4,0.8-3,0.8-3s0.6-0.6,0.9-1.3c0.3-0.6,0.8-1.9,0.8-1.9l1.1-1.3l0.5-1.4
		c0,0,1.2-1.1,1.2-1.2c0.1-0.2,0.8-1.3,1-1.6c0.2-0.4,2.2-2.6,2.2-2.6l2.5-3.6l0.8-1.8c0,0,0.4-0.4,0.7-1.1c0.4-0.7,0.8-1,1-1.3
		c0.2-0.4,0.6-1.2,1-1.3s1.7-0.9,1.7-0.9l3.5-1.9c0,0,1.5-1.4,1.7-1.5c0.2-0.1,1.4-0.9,1.6-1.1s1.2-2.8,1.2-2.8l0.6-4.2
		c0,0,0.5-4.1,0.5-4.3s-0.2-1.5-0.4-2.1c-0.1-0.5-0.8-3.1-1.2-3.7c-0.4-0.6-0.4-0.2-0.4-0.9c-0.1-0.7,0.4-3.6,0.4-3.8
		s0.5-5.5,0.5-5.5l0.3-5c0,0-0.3-1.6-0.3-1.8c-0.1-0.2-0.2-2-0.3-2.6c-0.1-0.5-0.5-2.2-0.5-2.2s-0.8-3.1-0.8-3.5s-0.4-3-0.4-3
		l-0.4-1.7l-0.4-3.1l0.5-2.2c0,0,0.6-1,0.8-1.2c0.2-0.2,1.8-2.8,1.8-2.8l1.5-1.3l2.6-1.7l1.2-0.7l2.1-1.4l1.2-1l0.9-0.4l0.5-0.6
		l0.4-0.4l1.1-0.2l1.7,0.2l1.4-0.1l1.8,0.1l0.7-0.3l0.5-0.4l0.5-1l0.6-0.2l1.9,0.5c0,0,1.1,0.3,1.3,0.3c0.3,0,1.3,0,1.3,0l1.3-0.2
		l1.2-0.8l1.3-0.9l1.2-0.6l1.8-0.4l1.9-0.1l1.5-0.6l1.1-0.7l0.8-1.2l1.1-2.5c0,0-0.2,0.1,0.5-0.5c0.7-0.5,2-1.4,2.2-1.5
		c0.2-0.1,1.3-1.5,1.7-1.9c0.4-0.5,1.8-1.7,1.8-1.7s0.4-1,0.7-1.5c0.4-0.5,1.3-1.7,1.3-1.7s1.3-2.2,1.3-2.3s0.9-1.9,0.9-1.9l0.8-1.1
		l0.6-1.4l0.9-1.2l0.5-0.7c0,0,0.6-0.6,1.3-0.6c0.7,0,5.2-0.6,5.2-0.6l3.8-0.9l2.1-0.8c0,0,2.1-1,2.3-1.1c0.2-0.1,0.5-0.4,0.9-0.6
		c0.4-0.2,1.5-0.9,1.5-0.9l2.2-0.2c0,0,1.3,0.4,1.8,0.4c0.4,0,1.8-0.1,1.8-0.1s0.4-0.3,0.5-0.5c0.2-0.2,0.8-0.9,0.8-0.9l1.2-0.1
		c0,0,0.9-0.1,1.1-0.1c0.2,0,2.2-0.6,2.2-0.6l0.8-0.4l2.1-2.9l2.2-4.1c0,0,1-2.8,1.1-3c0.1-0.2,1.2-2.7,1.2-2.7l1.3-2.6l0.6-2.5
		l1-4.8l0.9-2.5l0.6-3.1c0,0,0.5-1.9,0.5-2.2s0.2-1.9,0.2-2.1c0-0.2-0.5-1.2-0.7-1.6s-0.8-1.4-1-1.6c-0.2-0.2-0.9-1.1-0.9-1.1
		l-1.5-1.9l-1.4-1.4l-1.9-1.9l-0.6-1.4l-0.3-2.5c0,0,0.2-1.1,0.2-1.5c0.1-0.4,0.3-1.6,0.3-1.6s-0.3-0.9-0.3-1.2
		c0-0.2,0.3-1.7,0.3-1.7l0.5-2.2l-0.2-1.5c0,0-0.1-1.1-0.2-1.4c-0.1-0.4-0.1-0.8-0.1-1.1c-0.1-0.2-0.4-0.8-0.4-0.8L400.4,352.4z
		 M400.2,409.8c0,0-0.2,0.1-0.5,0.2c-0.4,0.2-0.2,0.4-0.4,0.5c-0.2,0.2-0.7,0.8-0.8,0.9c-0.1,0.2-0.4,0.4-0.4,0.6
		c-0.1,0.2-0.5,0.5-0.6,0.7c-0.2,0.2-0.6,0.6-1.1,1.1c-0.4,0.4,0,0-0.4,0.2c-0.4,0.2-1,0.5-1.1,0.6c-0.2,0.2-0.7,0.4-1.1,0.5
		c-0.3,0.1-0.8,0.5-0.8,0.5s-0.8,0.4-2.2,0.7s-0.7,0.2-0.7,0.2s-0.7-0.2-0.9-0.2c-0.1-0.1-1.3-0.5-1.3-0.5s-1.4-0.4-1.9-0.5
		c-0.5-0.2-0.9,0.2-1.4,0.4s-0.6,0.5-0.9,0.7c-0.4,0.2-1.4,0.6-1.7,0.7c-0.2,0.1-1,0.5-1.5,0.7s-1.7,0.4-1.8,0.5
		c-0.2,0.1-1.7,0.5-1.7,0.5l-2.2,0.5l-1.9,0.4l-1.3,0.4c0,0-2.2,0.3-2.8,0.4c-0.5,0.1-1.1,0.4-1.2,0.4c-0.1,0-1.1,1.4-1.1,1.7
		c-0.1,0.2-0.9,1.8-0.9,1.8l-0.6,1.7l-0.5,1.6l-0.8,1.7l-0.7,1.8c0,0-2,2.9-2.1,3.1c-0.1,0.1-1.3,1.9-1.3,2.1s-0.4,1.3-0.4,1.3
		s-2.5,2.3-2.7,2.7c-0.2,0.4-1.4,0.6-1.8,0.8s-1.4,1-1.4,1l-2.1,1c0,0-1.2,0.7-1.3,0.9s-1.1,0.9-1.1,0.9s-2.9,1.3-3.2,1.7
		c-0.3,0.3-2.2,0.6-2.2,0.6s-2.6,0.1-3.1,0.2c-0.5,0.1-1.9,0.3-2.2,0.4c-0.4,0.1-2.7,0.4-2.7,0.4l-2.8,0.6l-1.8-0.2l-2.5,0.6
		c0,0-2.8,0.7-3.1,0.8c-0.3,0.1-1.2,0.7-1.2,0.7l-1.8,1.8c0,0-0.6,0.8-0.8,1.2s-0.5,1-0.5,1l-1.5,1c0,0-0.8,0.7-0.9,1
		c-0.1,0.2-0.8,1.8-0.9,2.1c-0.1,0.3-0.8,1.8-1,2c-0.2,0.2,0,2.9,0,2.9s0.1,2.3,0.2,2.5c0.1,0.2,0.6,1.3,0.8,1.7
		c0.2,0.4,1.3,2.3,1.3,2.3s0.8,2.2,0.9,2.4c0.1,0.2,1.8,1.8,1.9,1.9c0.1,0.1,2.8,1.1,2.8,1.1l3.2,0.8l4.1,0.3l2.9-0.6l1.8-1.2
		l1.4-0.7c0,0,1.1-0.6,1.2-0.6c0.2,0,1.4,0,1.4,0s0.4,0.4,0.6,0.6c0.2,0.3,0.9,0.2,0.9,0.2l0.8-0.5l1.9-0.5l1,0.3l0.6,0.6l1,0.6
		l1.3,0.8l1.8,0.6l1.1,0.6l1.9,0.5h1.7l1-0.5l1.7-1.2l1.8-1l2.4-1.8l2.5-1.5l1.9-1.5l3.6-2.5l1.3-0.8c0,0,1.8-1.3,2.3-1.5
		s2.1-0.6,2.1-0.6l2.5-0.5l2.3-0.5l1.9-0.5l1-1.2l1.2-1.3l1.7-2.8l1.3-2.3c0,0,1.3-4.2,1.4-4.4c0.1-0.2,0.4-1,0.4-1.1
		c0.1-0.2,0.4-1.1,0.4-1.1s-1.7,0.5-1.8,0.5s-1,0.3-1.2,0.4c-0.3,0.1-0.8,0.3-0.8,0.3s-1,0.3-1.2,0.4c-0.2,0.1-1,0-1,0l1.1-0.5
		l1.7-0.5l1.4-0.7l0.6-0.6c0,0,0.4-0.7,0.2-0.8c-0.1-0.1,0-1,0-1l0.9-1.8c0,0,1.3-1.8,1.5-2c0.2-0.2,1.5-1,1.5-1l1.9-1.7l2.2-2.8
		l1-0.8l1.2-1.7l2.3-1.7l1-1.9l0.2-1.3v-1.8c0,0-0.3-1.3-0.3-1.5s0-1.6,0-1.6l-0.5-1.7c0,0-0.4-3.1-0.4-3.3
		c-0.1-0.2-0.2-1.2-0.2-1.2v-1.3l-0.2-2l-0.2-1.3l-0.2-1.4l-0.4-1.2L400.2,409.8z"/>
	<g style="display:inline;">
		<path style="fill:#FFFFFF;" d="M288.3,418.3l6.1,5.1l0.6,0.5l0.2,2.2v1.1l-0.9,1.4l-0.5,1.5l-0.8,2.2v2.2c0,0,0.3,0.5,0.5,2.2
			c0.2,1.6,0.6,2.3,0.6,2.3l0.3,1.4l0.1,2.1l0.2,1.9l-0.8,1.3l-3,1.2H290h-0.4v-0.8l-0.4-0.3c0,0-0.6,0.1-1.1,0.4
			c-0.4,0.3-2.3,1.2-2.3,1.2l-0.4,0.5l-1.2-1.7l-1.4-1.2l-0.8-0.2l-2.5-0.1h-0.6V444l1.3-0.4l2.5-0.2l0.9-0.8l1.4-0.7l1.9-1.3
			l1.5-1.5l1.3-1.2l1.4-0.7l0.7-0.8v-0.6v-2.7l-0.3-1.6c0,0,0.2-0.5,0.3-0.8c0.2-0.3,0.4-0.5,0.6-0.9s0.7-1.7,0.7-1.7
			s0.8-1.4,0.8-1.7s0.2-0.9,0.2-1.5s-0.9-1.9-0.9-1.9l-0.7-0.4l-0.7-0.1l-1.1,0.2c0,0,0-1.1-0.1-1.3s-0.4-0.5-0.4-0.5h-0.6l-1.7-0.4
			c0,0,0-0.1-0.2-0.4c-0.2-0.3-0.4-0.9-0.4-0.9v-0.6L288.3,418.3z"/>
		<path style="fill:#FFFFFF;" d="M295.7,437.7l0.2,2.1l0.5,0.5l0.7-0.4l1.5-0.4l0.4-0.6l0.6-1c0,0-0.2-1.1,0-1.3
			c0.2-0.2,0-0.2,0-0.2l-1.7,0.4c0,0,0.1,0-0.3,0.2c-0.4,0.2-0.4,0.4-0.6,0.4s-0.9,0.1-0.9,0.1L295.7,437.7z"/>
	</g>

		<circle style="display:inline;fill:none;stroke:#FFFFFF;stroke-width:1.0667;stroke-miterlimit:10;" cx="106.1" cy="273.6" r="1.7"/>
	<polyline style="display:inline;fill:none;stroke:#FFFFFF;stroke-width:1.0667;stroke-miterlimit:10;" points="404.2,353.1
		404.4,355.7 402.6,362.7 402.9,374.8 396.1,398.8 399.6,415.5 416.7,419.9 457.5,409.1 467.2,402.3 472.5,399.3 477.7,393.2
		489.4,392.3 520.4,380 523.8,379.5 530.8,379.4 538.9,381.5 557.2,381.8 	"/>
	<path style="display:inline;fill:none;stroke:#FFFFFF;stroke-width:1.0667;stroke-miterlimit:10;" d="M457.1,368.8
		c-6.2-1.2-12.6-2.2-18.9-3.1c-3.2-0.5-6.5-0.9-9.7-1.3c-2.7-0.4-6.7-0.1-9-1.7c-0.9-0.6-1.7-1.3-2.6-1.7c-1.7-0.7-3.5-0.4-5.2,0.1
		c-1.9,0.5-3.2,0.7-5.2,0.5c-13-1.1-25.5-3.6-38.1-6.5c-3.5-0.8-7.5-0.2-11.1-0.2c-4.1,0-8.1-0.1-12.1-0.2
		c-8.1-0.3-16.2-0.7-24.3-1.2c-22.3-1.2-52.9-4.5-73-14.1"/>
	<g style="display:inline;">
		<polyline style="fill:none;stroke:#FFFFFF;stroke-width:1.0667;stroke-miterlimit:10;" points="399.3,415.5 393.1,428.4
			392,432.9 386.9,440 376.9,451.5 372.3,456.7 369.4,461.8 366.9,470.5 365.8,479.6 364.7,485.9 362.9,489.2 352.1,498.4 		"/>
		<circle style="fill:none;stroke:#FFFFFF;stroke-width:1.0667;stroke-miterlimit:10;" cx="351.3" cy="499.2" r="0.8"/>
		<circle style="fill:none;stroke:#FFFFFF;stroke-width:1.0667;stroke-miterlimit:10;" cx="328.1" cy="537.6" r="0.8"/>
		<polyline style="fill:none;stroke:#FFFFFF;stroke-width:1.0667;stroke-miterlimit:10;" points="350.4,499.9 332.6,524
			328.5,536.3 		"/>
		<polyline style="fill:none;stroke:#FFFFFF;stroke-width:1.0667;stroke-miterlimit:10;" points="328.1,536.7 326.9,522.1
			327.7,513 329.5,503.8 349,484.8 360.4,474.7 365.8,479.6 		"/>
	</g>
	<g style="display:inline;">
		<g>
			<g>
				<path style="fill:none;stroke:#FFFFFF;stroke-width:1.0667;stroke-linecap:round;stroke-miterlimit:10;" d="M601,299.4
					c0,0,0.8-0.6,1.8-1.4s1.8-2.3,1.8-3.4c0-1.1-0.6-2.5-1.4-3.1s-0.8-1.8,0-2.5s1.7-0.9,2.1-0.4c0.4,0.5,1.3,0.8,2.2,0.6
					c0.9-0.2,2.2,0.3,3.1,1c0.9,0.7,2.6,1.3,3.8,1.4c1.2,0.1,2.9-0.2,3.6-0.7s1.7-1.3,2.1-1.8s1.9-0.2,3.4,0.6
					c1.5,0.9,3.2,1.5,3.8,1.5c0.6,0,1.7-0.1,2.6-0.2s1.9-0.6,2.2-1.2c0.3-0.5,0.3-1.4,0.1-2c-0.3-0.6-1.2-2.2-2-3.5
					c-0.8-1.3-3.2-2.5-5.4-2.5h-1.7c-2.1-0.1-3.9-0.9-3.9-1.9s-0.7-1.8-1.6-1.7s-1.2-0.4-0.8-0.9c0.4-0.6,0.9-2.1,1.2-3.3
					c0.2-1.2,1.2-2.9,2.2-3.7c1-0.9,3.1-1.8,4.6-2.1s3.6,0.2,4.8,1.2c1.1,1,2.7,3.4,3.6,5.3l2.5,5.8"/>
			</g>
			<g>
				<path style="fill:none;stroke:#FFFFFF;stroke-width:1.0667;stroke-linecap:round;stroke-miterlimit:10;" d="M619.3,306.3
					c0,0,0.5-1.2,1-2.7s2.7-2.6,4.9-2.3l4.5,0.4c2.1,0.2,4.5,0.1,5.2-0.2c0.7-0.3,2.2-0.6,3.3-0.7c1.1-0.1,1.2-1.8,0.3-3.7l-9.4-21
					c-0.9-1.9-3-2.6-4.8-1.4l-5.3,3.5"/>
			</g>
			<g>
				<path style="fill:none;stroke:#FFFFFF;stroke-width:1.0667;stroke-linecap:round;stroke-miterlimit:10;" d="M606.4,301
					c0,0,0.2-0.6,0.5-1.3c0.2-0.7,1.3-1.3,2.3-1.2s2.5-0.3,3.4-0.6c0.8-0.4,2.7-1.5,4.1-2.4c1.4-0.9,2.5-1.7,2.5-1.7"/>
			</g>
			<g>
				<path style="fill:none;stroke:#FFFFFF;stroke-width:1.0667;stroke-linecap:round;stroke-miterlimit:10;" d="M611.1,298.6
					c0,0,0.3,0.6,0.6,1.3c0.4,0.7,0.2,1.7-0.4,2.2c-0.6,0.5-1,1.2-1,1.7c0.1,0.4,1.4,0.4,3,0.1c1.6-0.3,3.1-0.1,3.2,0.7
					s0.2,1.4,0.2,1.4"/>
			</g>
		</g>
	</g>
	<path style="display:inline;fill:#FFFFFF;" d="M609.6,318l-0.3,1.1l0.2,0.7l0.9,0.2l1-0.1l1.5-0.5l0.2-0.6L613,318l-0.7-0.4
		l-0.6,0.4c0,0-0.7,0-0.9,0C610.8,318,609.6,318,609.6,318z"/>

		<polyline style="display:inline;fill:none;stroke:#FFFFFF;stroke-width:1.0667;stroke-linecap:round;stroke-miterlimit:10;" points="
		125.5,401.3 129.4,407.9 136,409.1 146.1,409 154.6,408.1 161.6,408.6 171,410.3 175.1,410 174,405.4 172.9,400.9 	"/>

		<line style="display:inline;fill:none;stroke:#FFFFFF;stroke-width:2.6667;stroke-linecap:round;stroke-miterlimit:10;" x1="155.6" y1="399.6" x2="135.3" y2="403.4"/>

		<line style="display:inline;fill:none;stroke:#FFFFFF;stroke-width:2.6667;stroke-linecap:round;stroke-miterlimit:10;" x1="133.4" y1="401.4" x2="131.7" y2="375.8"/>

		<polyline style="display:inline;fill:none;stroke:#FFFFFF;stroke-width:1.0667;stroke-linecap:round;stroke-miterlimit:10;" points="
		133,404.8 134.4,414.6 137.1,425.6 135.9,432.3 130.4,439.4 127,436.7 	"/>
	<g style="display:inline;">
		<polyline style="fill:none;stroke:#FFFFFF;stroke-width:1.0667;stroke-linecap:round;stroke-miterlimit:10;" points="174.1,406.1
			175.5,410.4 183.6,416.7 189.5,425.3 195.4,427.5 206.2,426.4 222,417.2 		"/>

			<circle style="fill:none;stroke:#FFFFFF;stroke-width:1.0667;stroke-linecap:round;stroke-miterlimit:10;" cx="223.4" cy="416.7" r="1.5"/>

			<circle style="fill:none;stroke:#FFFFFF;stroke-width:1.0667;stroke-linecap:round;stroke-miterlimit:10;" cx="213.5" cy="465.1" r="1.5"/>

			<circle style="fill:none;stroke:#FFFFFF;stroke-width:1.0667;stroke-linecap:round;stroke-miterlimit:10;" cx="214.9" cy="470.9" r="1.5"/>

			<circle style="fill:none;stroke:#FFFFFF;stroke-width:1.0667;stroke-linecap:round;stroke-miterlimit:10;" cx="216.6" cy="463.5" r="1.5"/>

			<ellipse style="fill:none;stroke:#FFFFFF;stroke-width:1.0667;stroke-linecap:round;stroke-miterlimit:10;" cx="217.9" cy="468.7" rx="1.5" ry="1.5"/>
		<polyline style="fill:none;stroke:#FFFFFF;stroke-width:1.0667;stroke-linecap:round;stroke-miterlimit:10;" points="222.7,415.2
			218.4,408.4 214.1,401.8 214.2,400 215.3,390.8 		"/>
		<polyline style="fill:none;stroke:#FFFFFF;stroke-width:1.0667;stroke-linecap:round;stroke-miterlimit:10;" points="221.2,412.5
			221.4,405.8 223.4,401.6 223.8,397.9 225.4,388.8 		"/>
		<path style="fill:none;stroke:#FFFFFF;stroke-width:1.0667;stroke-linecap:round;stroke-miterlimit:10;" d="M224,418.1l2.2,6.1
			l-0.6,6l-11.8,17.7c0,0-2.5,4.1-1,10.1l9.7,30.7"/>
		<path style="fill:none;stroke:#FFFFFF;stroke-width:1.0667;stroke-linecap:round;stroke-miterlimit:10;" d="M213.1,458.5
			c0,0,2.6,4,10,5.3l0.2,0.9c0,0-6,3.1-4.6,11.1c0,0-4.8-5.7-10.6-5.1C208.1,470.7,213.7,466,213.1,458.5z"/>
	</g>
	<path style="display:inline;fill:none;stroke:#FFFFFF;stroke-width:1.0667;stroke-miterlimit:10;" d="M225.1,415.7l4.8-1.5
		l41.9-3.6l22.9-3.9l49.7-0.3l42.7,1.1l20.1,0.6l5.6,3.4l23.5-1.7l1.1-5.4l6.3-5.9l15.8-14.1c0,0,15.1-0.2,16.2-0.4s5.3-0.9,5.3-0.9
		l5.4-3.6L499,380c0,0,7.8,3.6,7.3,8.7l-0.3,5.8l-0.2,7.6l2.2,4.4"/>
	<polyline style="display:inline;fill:none;stroke:#FFFFFF;stroke-width:1.0667;stroke-miterlimit:10;" points="309.4,375.6
		298.9,366.6 285.1,359.7 	"/>
	<path style="display:inline;fill:none;stroke:#FFFFFF;stroke-width:1.0667;stroke-miterlimit:10;" d="M308.4,375.5
		c0,0-9.9,1.6-11.6,10.7"/>

		<circle style="display:inline;fill:none;stroke:#FFFFFF;stroke-width:2.6667;stroke-miterlimit:10;" cx="133.4" cy="403.1" r="1.7"/>
	<polyline style="display:inline;fill:none;stroke:#FFFFFF;stroke-width:1.0667;stroke-miterlimit:10;" points="557.9,379.5
		551.5,376.9 548.3,368.7 546,363.9 537.7,363.9 526.1,365.1 521.1,364.2 515.3,357.6 517.7,348.8 522.3,344.3 533.9,339.9
		540.9,339.9 544.5,338.5 545.4,339.9 	"/>
	<polyline style="display:inline;fill:none;stroke:#FFFFFF;stroke-width:1.0667;stroke-miterlimit:10;" points="479.7,366.2
		480,363.6 480.4,360.1 481.4,359.3 489.3,358.9 493.5,357.6 504.2,357.3 522.9,357 528.4,357 	"/>
	<polyline style="display:inline;fill:none;stroke:#FFFFFF;stroke-width:1.0667;stroke-miterlimit:10;" points="480.5,359.9
		485.4,364 487.4,366 	"/>

		<polyline style="display:inline;fill:none;stroke:#FFFFFF;stroke-width:1.0667;stroke-linecap:round;stroke-miterlimit:10;" points="
		480.4,360.1 475.5,363.3 459.8,363.8 455.4,366.7 435.8,365.3 	"/>
	<polyline style="display:inline;fill:none;stroke:#FFFFFF;stroke-width:1.0667;stroke-miterlimit:10;" points="714.1,387
		721.9,394.6 728.1,394.9 728.7,381.3 727.3,378.2 726.2,368.4 722.8,369.2 	"/>
	<polyline style="display:inline;fill:none;stroke:#FFFFFF;stroke-width:1.0667;stroke-miterlimit:10;" points="734.1,348.2
		725.5,347.9 719.9,350.8 711.1,349.6 	"/>
	<polyline style="display:inline;fill:none;stroke:#FFFFFF;stroke-width:1.0667;stroke-miterlimit:10;" points="726.4,368.7
		718.4,359.8 715.8,355.6 715.5,351.8 715.4,348.1 716.2,343.5 716.6,338.1 720.6,335.1 722.6,333.7 725.8,330.6 732.7,330.3 	"/>
	<path style="display:inline;fill:none;stroke:#FFFFFF;stroke-width:1.0667;stroke-miterlimit:10;" d="M672.2,355.9h-13.9v-13.7
		l11.9-18.8c0,0,8.2-4.9,4.2-10.7l-6.4,2.9"/>

		<polyline style="display:inline;fill:none;stroke:#FFFFFF;stroke-width:1.0667;stroke-linecap:round;stroke-miterlimit:10;" points="
		623.6,318.6 623.3,312.3 618.1,306.8 610,306.4 605,301.4 603,302.8 600.2,302.7 599.4,300.2 596.5,300.4 576.1,312.7 561,320.7
		550.3,324.8 530.3,333.7 515.6,338.7 	"/>
	<g style="display:inline;">
		<polyline style="fill:none;stroke:#FFFFFF;stroke-width:1.0667;stroke-linecap:round;stroke-miterlimit:10;" points="400.4,382.4
			382.8,377.1 373.2,375.6 361.1,371.3 353.2,368.3 342.6,368 333.5,370.8 328.5,372.7 		"/>
		<polyline style="fill:none;stroke:#FFFFFF;stroke-width:1.0667;stroke-linecap:round;stroke-miterlimit:10;" points="401.7,376.9
			385.7,370.5 380.7,372.4 374.1,371.6 372.7,375.7 		"/>
		<polyline style="fill:none;stroke:#FFFFFF;stroke-width:1.0667;stroke-linecap:round;stroke-miterlimit:10;" points="387.6,359
			384.7,367.5 385.7,370.5 		"/>

			<line style="fill:none;stroke:#FFFFFF;stroke-width:1.0667;stroke-linecap:round;stroke-miterlimit:10;" x1="375.4" y1="356.7" x2="368.9" y2="374.1"/>
		<polyline style="fill:none;stroke:#FFFFFF;stroke-width:1.0667;stroke-linecap:round;stroke-miterlimit:10;" points="362,354.8
			362.6,363 364.7,369.4 361.4,371.6 360.4,383 		"/>
		<polyline style="fill:none;stroke:#FFFFFF;stroke-width:1.0667;stroke-linecap:round;stroke-miterlimit:10;" points="325.9,353.8
			326.7,365.1 328.9,373.9 328.9,377.9 		"/>
	</g>

		<line style="display:inline;fill:none;stroke:#FFFFFF;stroke-width:1.0667;stroke-miterlimit:10;" x1="726.2" y1="368.4" x2="741" y2="364.9"/>
	<polyline style="display:inline;fill:none;stroke:#FFFFFF;stroke-width:1.0667;stroke-miterlimit:10;" points="333.9,406.8
		334.2,419.7 318.7,419.6 311.9,432.4 307.4,435.4 	"/>
	<g style="display:inline;">
		<polyline style="fill:none;stroke:#FFFFFF;stroke-width:1.0667;stroke-linecap:round;stroke-miterlimit:10;" points="116.7,329.1
			106.6,334 97.1,331.1 86.8,328 33,323.2 41.3,349.7 41.6,374.9 35.8,383.7 35.4,392.2 		"/>
		<path style="fill:none;stroke:#FFFFFF;stroke-width:1.0667;stroke-linecap:round;stroke-miterlimit:10;" d="M109.7,396.1v-9
			l-6.4-20.5l-7.4-15.3c0,0-5.2-8.6-2.5-14.1l3.7-6.1"/>
		<polyline style="fill:none;stroke:#FFFFFF;stroke-width:1.0667;stroke-linecap:round;stroke-miterlimit:10;" points="41.3,362.1
			45.5,361.7 53.8,355.5 61.7,352.8 71.2,344.6 93.1,344.5 		"/>
	</g>

		<polyline style="display:inline;fill:none;stroke:#FFFFFF;stroke-width:1.0667;stroke-linecap:round;stroke-miterlimit:10;" points="
		425.6,394.4 426.8,383.4 426.2,378.8 	"/>
	<polyline style="display:inline;fill:none;stroke:#FFFFFF;stroke-width:1.0667;stroke-miterlimit:10;" points="734.1,342.2
		752.1,330.4 760.3,326.1 762.6,318.5 765.9,318.6 774.7,314.7 780.3,310.4 786.6,313.3 791.3,314.4 799.4,314.3 803.1,316.8
		806.5,324.3 808.2,321.6 814.6,320.4 	"/>

		<line style="display:inline;fill:none;stroke:#FFFFFF;stroke-width:1.0667;stroke-linecap:round;stroke-miterlimit:10;" x1="439.5" y1="396.5" x2="426" y2="391.6"/>
	<g style="display:inline;">
		<polyline style="fill:none;stroke:#FFFFFF;stroke-width:1.0667;stroke-linecap:round;stroke-miterlimit:10;" points="109.5,392.8
			101,399.3 98.3,401.2 90.9,402.7 85.4,403.5 81.7,406.7 80.5,411.5 80.8,425.9 81.2,431.7 86,433.7 91.1,433.4 94.7,435.6
			97.4,439.2 97.4,448.5 98.2,471.9 		"/>
		<path style="fill:none;stroke:#FFFFFF;stroke-width:1.0667;stroke-linecap:round;stroke-miterlimit:10;" d="M98.3,401.2l3.5,5.2
			l0.4,17.7l2.8,4.5l-3,10.8l4.5,3.2l0.6,3.9l-1.2,9.9l-4.2,1.9l3,4.6l5.3,5.3l6.1,0.2l1.9,1.9l3.9,1l-0.8,8.5c0,0,0.5,3.9,7.8,6.4
			c0,0,6.9,2.7,7.3,2.7"/>
	</g>
	<g style="display:inline;">
		<g>
			<g>
				<path style="fill:none;stroke:#FFFFFF;stroke-width:1.0667;stroke-linecap:round;stroke-miterlimit:10;" d="M623.6,317.1
					l4.1,0.1c2.1,0.1,5.4-0.9,7.1-2.1l9.7-6.2c1.8-1.2,1.9-3.3,0.4-4.6c-1.7-1.4-3.4-4.2-3.8-6.3l-0.6-2.6c-0.5-2.1-1.7-5.3-2.7-7.2
					l-1.5-2.8c-1-1.9-0.7-3.9,0.6-4.5c1.3-0.6,2.8-1.9,3.2-2.9c0.4-1,1.8-2.1,2.9-2.3c1.2-0.4,2.9-0.3,3.8,0.2
					c0.9,0.4,2.8,2.1,4.2,3.8l0.2,0.2c1.3,1.7,2.8,3.5,3.1,4.1s2.2,1.7,4.2,2.5l12.9,4.6"/>
			</g>
			<g>
				<path style="fill:none;stroke:#FFFFFF;stroke-width:1.0667;stroke-linecap:round;stroke-miterlimit:10;" d="M654.7,284.9
					c0,0-0.6,1.6-1.4,3.5c-0.7,1.9-1.3,5.1-1.2,6.9c0.1,1.8-0.8,4.7-2.1,6.5l-4.6,6.5"/>
			</g>
			<g>
				<path style="fill:none;stroke:#FFFFFF;stroke-width:1.0667;stroke-linecap:round;stroke-miterlimit:10;" d="M630.6,317.2
					l-0.5,4.8c-0.2,2.1,0.3,5.5,1.1,7.4l1.3,2.9c0.9,1.9,2.1,4.2,2.7,5c0.6,0.7,1.1,1.4,1.1,1.4"/>
			</g>
		</g>
	</g>

		<polyline style="display:inline;fill:none;stroke:#FFFFFF;stroke-width:1.0667;stroke-linecap:round;stroke-miterlimit:10;" points="
		435.9,409.8 437.4,419 437,431.4 435.3,438.3 429.3,446.3 425.1,458 420.5,477.3 419.2,486.3 421.5,496.5 415.2,498.2 411.4,500.5
		410.6,505.3 	"/>

		<polyline style="display:inline;fill:none;stroke:#FFFFFF;stroke-width:1.0667;stroke-linecap:round;stroke-miterlimit:10;" points="
		440.5,376.1 426.2,378.8 419.7,378.5 418.3,376.4 403,370.7 	"/>

		<polyline style="display:inline;fill:none;stroke:#FFFFFF;stroke-width:2.6667;stroke-linecap:round;stroke-miterlimit:10;" points="
		131.6,403.3 127.9,402.6 117.1,398.4 111.8,397.1 98.8,397.2 85.7,398.8 76.4,398.8 56.5,394.7 40.5,392.2 21.9,391.3 4.9,391.7
		"/>

		<line style="display:inline;fill:none;stroke:#FFFFFF;stroke-width:2.6667;stroke-linecap:round;stroke-miterlimit:10;" x1="621.5" y1="320.7" x2="602.7" y2="324"/>
	<path style="display:inline;fill:none;stroke:#FFFFFF;stroke-width:2.6667;stroke-miterlimit:10;" d="M731.7,308.9
		c0,0-7.2,3.5-13.6,2.7"/>
	<path style="display:inline;fill:none;stroke:#FFFFFF;stroke-width:2.6667;stroke-linecap:round;stroke-miterlimit:10;" d="
		M853.9,424.1l-5.9-13.9l-0.2-7.9l-3.3-9.3l-8.9-18.8l-3.5-9.9l-1.8-11.7l2-8.2c0,0-1.5-7.1-2-8.2c-0.4-1.1-4-6.9-4-6.9l-6.4-3.3
		l-4.6-5.7l-2.5-2.2l-3.5-3.6l-3.6-2.5l-3.1-1.5l-3.6-3.6l-3.5-1.5l-4.8,3.6l-3.8,1.7l-6.5-2.8l-3.1,2.2l-2.5,1.8l-2.5,1.2l-6.1,0.8
		l-6-3l-2-4.2l-1.7-1.2l-2.2-1.2"/>

		<polyline style="display:inline;fill:none;stroke:#FFFFFF;stroke-width:1.0667;stroke-linecap:round;stroke-miterlimit:10;" points="
		376.3,452 377.5,458.3 379,476.3 390.6,479.1 394.1,496.9 399.2,501.8 405.4,501.3 417.1,485.6 423.3,465.9 	"/>

		<polyline style="display:inline;fill:none;stroke:#FFFFFF;stroke-width:1.0667;stroke-linecap:round;stroke-miterlimit:10;" points="
		377.3,458.6 371.3,458.3 365.3,458.2 362.6,456.2 362.8,451.8 360.1,451 357.5,451.4 355.3,452.6 355.5,454.7 353.5,458.3
		346,462.7 345.8,464.3 347,468.1 353.9,469.1 365.8,479.5 	"/>

		<polyline style="display:inline;fill:none;stroke:#FFFFFF;stroke-width:1.0667;stroke-linecap:round;stroke-miterlimit:10;" points="
		376.8,454.9 367.6,453.7 364.6,457.9 	"/>
	<g style="display:inline;">

			<polyline style="fill:none;stroke:#FFFFFF;stroke-width:1.0667;stroke-linecap:round;stroke-linejoin:round;stroke-miterlimit:10;" points="
			128.4,289.1 128.1,290.8 145.3,303.3 136.4,309.5 135.4,307.7 133.7,307.5 131.7,308.9 129.8,306.6 125,309.3 		"/>

			<polyline style="fill:none;stroke:#FFFFFF;stroke-width:1.0667;stroke-linecap:round;stroke-linejoin:round;stroke-miterlimit:10;" points="
			120.6,288.4 117.9,296.8 117.4,298.2 115,301.7 109.6,306.1 106.4,307.6 		"/>

			<line style="fill:none;stroke:#FFFFFF;stroke-width:1.0667;stroke-linecap:round;stroke-linejoin:round;stroke-miterlimit:10;" x1="128.7" y1="315.3" x2="117.9" y2="296.8"/>

			<polyline style="fill:none;stroke:#FFFFFF;stroke-width:1.0667;stroke-linecap:round;stroke-linejoin:round;stroke-miterlimit:10;" points="
			132.6,294.3 129.9,297.9 121.3,302.8 		"/>

			<polyline style="fill:none;stroke:#FFFFFF;stroke-width:1.0667;stroke-linecap:round;stroke-linejoin:round;stroke-miterlimit:10;" points="
			124.7,300.7 122.8,297 124.5,287.4 		"/>

			<polyline style="fill:none;stroke:#FFFFFF;stroke-width:1.0667;stroke-linecap:round;stroke-linejoin:round;stroke-miterlimit:10;" points="
			115,301.7 116.7,304.9 119.9,303.6 122.5,308.1 114.3,313.3 110,305.8 		"/>

			<polyline style="fill:none;stroke:#FFFFFF;stroke-width:1.0667;stroke-linecap:round;stroke-linejoin:round;stroke-miterlimit:10;" points="
			117.3,298.5 108.4,291.1 101.8,298.8 		"/>

			<polyline style="fill:none;stroke:#FFFFFF;stroke-width:1.0667;stroke-linecap:round;stroke-linejoin:round;stroke-miterlimit:10;" points="
			119.9,287.2 115.1,286 112,285.3 108.7,282.4 107.1,283.1 108.4,291.1 112.9,289.1 115,286.4 		"/>
	</g>
	<path style="display:inline;fill:#FFFFFF;" d="M158.2,339.9l0.1,3.4l-1,1.2l0.7,5.1l66.1-8l0.4,1.3l-1.7,0.3l0.5,4.4l-1.2,1.2
		l-15.8,1.9l0.1,6.8l-2.5,0.1c0,0-0.5-5.4-0.5-5.9c0-0.4-5.1,0.8-5.1,0.8l0.1,1.5l1.5,0.1l0.7,4.4l-1.3,1.7l-5,0.8l-0.3,2.3l6.7-0.2
		l1.1,6.7l3-0.1l-0.3-6.3l2.6,0.1l0.8,3.5l3.8,1.3l14.7-1.9l0.4-2.1l8.5-0.7l0.7,2.9l1.6,1.7l4.9-0.3l0.7,1.2l-50.1,6.3l0.2,3.3
		l40.7-5.4l0.1,5.3l-5.9,0.5l-0.1,2.9l-2.2,0.2l0.4,2.9l-64,7.9l-0.6-2.9l2.1-0.7l-1.8-11.8l-6,0.4l0.2-1.4l17.8-1.9l-2.2-18.9
		l-29.7,2.7l-0.6-6.7l14.8-2.1l-0.6-9.2L158.2,339.9z M145.3,357.2l11.7-1.1l-0.4-3.9l-11.7,1.3L145.3,357.2z M158.5,351.7l0.3,4.2
		l3.9-0.5l4.1-4.8L158.5,351.7z M170.3,354.2l1.2-1.9l26-3.2l-4.1-1.9l-23.5,2.7l-4.6,4.9L170.3,354.2z M205.7,349.5l2.6-0.3
		l-0.4-3.6l-10.1,1.3L205.7,349.5z M209.4,345.2l0.5,3.8l10.2-1.1l-0.5-4.1L209.4,345.2z M184.1,352.1l0.1,1l9.6-1.1l-0.1-1.4
		L184.1,352.1z M194.8,372.3l-0.2-2.8l-5.2,0.6l-1.4,2.6L194.8,372.3z M175.9,377.8c-0.2,0-1.9-1.6-1.9-1.6l-10.2,1.3l0.8,5.1
		l27.3-3.7l-0.4-3.1C191.4,375.9,176.2,377.8,175.9,377.8z M183.1,382.1l-18.3,2.5l0.4,2.5l18.3-2.5L183.1,382.1z M210.3,378.1
		l-16.9,2.3l0.4,2.5l16.9-2.3L210.3,378.1z M191.8,380.9l-7,0.9l0.4,2.5l7-0.9L191.8,380.9z M222.2,376.6L212,378l0.4,2.5l10.2-1.4
		L222.2,376.6z M232.2,375.2l-8.1,1.1l0.4,2.5l8.1-1.1L232.2,375.2z M174.6,355.7l2.7,18.3l5.3-0.6c0,0-2.9-2-2.8-2.2
		c0.2-0.3,6.8-6.5,6.3-7.4c-0.4-0.9-5.9-4.9-5.9-4.9l1.2-4.4L174.6,355.7z M187.1,356.8l5.9-0.9l-0.2-2.1l-7.6,0.9L187.1,356.8z
		 M170.4,388l-3,0.4l0.2,1.8l3-0.4L170.4,388z M175,387.2l-3,0.4l0.2,1.8l3-0.4L175,387.2z M180,386.7l-3,0.4l0.2,1.8l3-0.4
		L180,386.7z"/>
	<g style="display:inline;">
		<line style="fill:none;stroke:#FFFFFF;stroke-width:1.0667;stroke-miterlimit:10;" x1="347.4" y1="387.4" x2="338.6" y2="406.3"/>
		<path style="fill:none;stroke:#FFFFFF;stroke-width:1.0667;stroke-miterlimit:10;" d="M344.9,393.2l13.9-0.7c0,0,12.6-1,13.1-0.9
			c0.4,0.1,24.1,6.8,24.1,6.8"/>
		<line style="fill:none;stroke:#FFFFFF;stroke-width:1.0667;stroke-miterlimit:10;" x1="358.9" y1="386.3" x2="359.3" y2="406.7"/>
		<line style="fill:none;stroke:#FFFFFF;stroke-width:1.0667;stroke-miterlimit:10;" x1="368" y1="391.7" x2="368.3" y2="406.9"/>
		<line style="fill:none;stroke:#FFFFFF;stroke-width:1.0667;stroke-miterlimit:10;" x1="372.6" y1="382.9" x2="371.8" y2="391.5"/>
	</g>
	<g style="display:inline;">
		<line style="fill:none;stroke:#FFFFFF;stroke-width:1.0667;stroke-miterlimit:10;" x1="255.7" y1="389.5" x2="257.9" y2="411.1"/>
		<line style="fill:none;stroke:#FFFFFF;stroke-width:1.0667;stroke-miterlimit:10;" x1="262.6" y1="388" x2="263.1" y2="410.8"/>
		<polyline style="fill:none;stroke:#FFFFFF;stroke-width:1.0667;stroke-miterlimit:10;" points="282.6,382.2 282.1,386.5
			280.2,386.8 280.7,391.2 283.7,391.5 283.9,396.7 281.5,397.2 282,408.4 		"/>
		<polyline style="fill:none;stroke:#FFFFFF;stroke-width:1.0667;stroke-miterlimit:10;" points="288.4,380.7 289.1,396.2
			283.9,396.7 284.4,405 281.8,405 		"/>
	</g>
	<path style="display:inline;fill:none;stroke:#FFFFFF;stroke-width:1.0667;stroke-miterlimit:10;" d="M214.4,399.6l11.8-4.9
		l7.9-2.9l25.4-3.4l14.2-4.2l11.6-3.4l9.4,0.6l3.5,0.3l6.3-1.4l15.7-0.3l13.1,3.7c0,0,9.5,4.9,20,3.4l19.7-4.7l18.4,5.3l7.1,2.3"/>
	<path style="display:inline;fill:none;stroke:#FFFFFF;stroke-width:2.6667;stroke-linecap:round;stroke-miterlimit:10;" d="
		M688.5,372.2l-6.4,13.1c0,0-5.1,9.5,0.2,16.4c0,0,11.5,9.3,0.4,18.1c0,0-8.6,7.5-3.5,16.6l10.2,15.7l11.1,9.1l2.7,13.5l-2.2,5.8
		l-10,7.1l-25.9,0.9l-4.6,8.2l-18.6,49.4l-29.8,78"/>
	<g style="display:inline;">

			<polyline style="fill:none;stroke:#FFFFFF;stroke-width:0.5333;stroke-linecap:round;stroke-linejoin:round;stroke-miterlimit:10;" points="
			543.4,495.6 543.7,494.2 543.9,493.1 544.3,484.2 553.2,493.5 569.9,497.5 567,494.8 560.2,480.8 		"/>

			<polyline style="fill:none;stroke:#FFFFFF;stroke-width:0.5333;stroke-linecap:round;stroke-linejoin:round;stroke-miterlimit:10;" points="
			543.7,494.2 545.6,495.5 544.7,499.6 546.5,502.3 550,502.4 552.3,499.4 558.3,500.2 562.6,498.1 563.1,495.9 		"/>

			<polyline style="fill:none;stroke:#FFFFFF;stroke-width:0.5333;stroke-linecap:round;stroke-linejoin:round;stroke-miterlimit:10;" points="
			552.4,512.4 566.8,503.1 569.9,497.5 		"/>

			<polyline style="fill:none;stroke:#FFFFFF;stroke-width:0.5333;stroke-linecap:round;stroke-linejoin:round;stroke-miterlimit:10;" points="
			550,502.4 548.6,508 548.3,509.1 		"/>

			<polyline style="fill:none;stroke:#FFFFFF;stroke-width:0.5333;stroke-linecap:round;stroke-linejoin:round;stroke-miterlimit:10;" points="
			557.7,508.9 551.3,507.7 548.9,506.1 		"/>

			<line style="fill:none;stroke:#FFFFFF;stroke-width:0.5333;stroke-linecap:round;stroke-linejoin:round;stroke-miterlimit:10;" x1="551.3" y1="507.7" x2="550.9" y2="510.7"/>
	</g>

		<path style="display:inline;fill:none;stroke:#FFFFFF;stroke-width:1.0667;stroke-linecap:round;stroke-linejoin:round;stroke-miterlimit:10;" d="
		M437.3,365.2l2.7,8.9l3.1,5.8l3.8,1.5l4.9,2.5l5.5,0.9l3.8-0.2l3.5,3.5l2,4.6c0,0,0.6,6,0.9,6.7c0.2,0.6,1.8,4.2,2.9,5.1
		c1.1,0.9,9.5,7.1,9.5,7.1l3.3,4l2,5.8l5.3,7.9l2.3,4.6l1.9,2.9l-0.9,2.6l-1.9,0.5h-2.6l-2.2,1.5l0.4,1.2l3.6-1.2h2.2l0.9,0.8
		l-1.1,1.2l-3.2,0.2l-1.9,1.1l0.1,1.1l3,0.2l1.2-0.5l0.9,0.8v0.9l-1.1,3l-1.3,2.3l4.3,17.6l-1.3,10.2l1.1,7.1l-2.6,6.8l0.1,5.8
		l1.1,0.8l2.6-1l2.5-1l4.1,0.6l5.9,2.1l6.8,1.7l5,0.4l7.5-2.8l6.1-2.6l4.8-3.9l4.5,1.7l1.7,7.2v2.2l3.2,3.8l56.7,40.8l27.4,18.9"/>
	<g style="display:inline;">
		<path style="fill:none;stroke:#FFFFFF;stroke-width:2.6667;stroke-miterlimit:10;" d="M624.7,320.8c9.8,1.1,20.3,2.1,28.8-2.8
			c1.2-0.7,2.5-1.5,3.9-1.8c2.1-0.4,4.1,0.5,6.2,0.6c2.2,0.1,4.4-1,6.7-1.3c3.9-0.5,7.7,1,11.3,2.7c3.5,1.7,7.1,3.6,11,3.8
			c3.9,0.2,8.3-1.8,9.4-5.5c0.3-1.1,0.4-2.2,0.9-3.1c1-1.9,3.4-2.5,5.4-2.8c3.4-0.5,7-0.7,9.9,0.9c2.7,1.5,4.4,4.2,5.9,6.9
			c2.3,4.1,6.9,9.6,9.3,13.7l0.1,2.2c-0.3,10.2,2.8,20.3,7.6,29.4c4.7,9.1,10.9,17.2,17.2,25.3c2.9,3.7,5.8,7.6,6.9,12.2
			c0.4,1.9,0.5,3.8,1.4,5.6c1,2.1,2.9,3.6,4.8,5c10.7,7.9,21.2,15.8,31.9,23.7c3.8,2.8,7.6,5.7,11.9,7.3c4.4,1.7,9.4,2.1,13.7,0.1
			c1.7-0.8,3.1-1.9,4.6-3.1c2.4-1.9,4.9-3.8,7.3-5.7c2.2-1.7,4.4-3.4,6.9-4.4c2.2-0.9,4.6-1.3,6.3-2.8"/>
		<path style="fill:none;stroke:#FFFFFF;stroke-width:2.6667;stroke-miterlimit:10;" d="M751.4,304c-4.2,4.5-12.6-0.9-17.7,2.6
			c-2.9,2-3.4,6-4.5,9.4c-3.3,10-14,16.1-17.6,26c-3.3,9.1,1,21.5,9.5,26.2"/>
		<path style="fill:none;stroke:#FFFFFF;stroke-width:2.6667;stroke-miterlimit:10;" d="M722.4,371.6c-0.7,5.2-4.7,9.9-7.5,14.4"/>
		<path style="fill:none;stroke:#FFFFFF;stroke-width:2.6667;stroke-miterlimit:10;" d="M711.4,386.4c-4.5-5.1-12.2-9.8-18.5-12.3
			c-4.6-1.8-9.9-3.4-12.8-7.4c-2.1-2.9-2.7-6.7-5-9.3c-3.8-4.1-11.5-4.7-12.5-10.2c-0.3-1.5,0.1-3.3-0.6-4.6
			c-1.4-2.8-5.5-2.2-8.7-1.7c-5.8,1.1-11.9,0.4-17.4-2.1c-6.6-3-11.9-8.3-18.5-11.3c-6.2-2.9-13.3-3.5-20.2-3.4
			c-20.6,0.4-43.9,5-57,21c-7.2,8.8-16.7,17.6-28.3,19.8c-4.7,0.9-9.7,0.7-14.5,1c-8.9,0.6-17.8,0.4-26.6-0.5
			c-8.5-0.9-14.5,1.3-18.4,9.3c-2.7,5.4-3.8,11.4-7,16.6c-1.5,2.3-3.4,5-6.2,5.8c-4,1.3-9.5-1.2-13.5-1.9c-5-0.8-9.8-2.5-14.4-4.5
			c-9.4-4.1-16.6-6.3-26.2-10c-3.1-1.2-7.9-2.4-11.2-1.8c-2.5,0.5-6.6,1.5-8.9,2.5c-2.9,1.2-10,1.9-13.2,2.3
			c-4.5,0.6-9.4,0.7-13.8-0.9c-2.7-0.9-4.5-3.2-7-4.4s-5.6-1.7-8.3-2.1c-6.2-1.1-12.5-1.2-18.8-0.9c-9.9,0.5-21.8,1.6-30.5,6.8
			c-4.1,2.4-15.4,2.7-20,3.6c-6,1.2-12.2,0.7-18.3,1.1c-11.4,0.7-22.4,4.2-33.3,7.4c-8.4,2.5-17,5-25.6,6.1
			c-4.8,0.6-9.8-0.8-14.7-0.7c-5.4,0.1-10.5-2.2-14.9-5.1c-3.9-2.6-7.6-5.7-10.6-9.3c-3.4-4.2-4.1-9.1-4.9-14.2
			c-5-32.5-23.8-61.2-44.3-87c-13.3-16.9-28.3-33.7-48.2-41.8c-6.6-2.7-13.5-4.4-20.4-6c-16.5-3.9-33-7.9-49.4-11.9"/>
		<path style="fill:none;stroke:#FFFFFF;stroke-width:2.6667;stroke-miterlimit:10;" d="M-143.9,368.4c6.7,5.8,12.5,12.5,17.2,19.9
			c1.5,2.5,3,5.1,5.2,7.1c6.5,6.1,17.3,4.9,24.4,10.3c5,3.8,7.2,10.1,11.7,14.4c7.8,7.6,20.1,7.4,31,7.2c11.7-0.1,23.3,0.5,34.8,1.7
			c8.3,0.9,16.5,2.2,24.7,3.8c7.9,1.6,15.7,3.6,23.4,6.1c14,4.6,27.9,9.3,41.3,15.5c13.2,6.1,25.9,13.5,36.9,23.1
			c4.6,4.1,9.2,8.7,15,10.8c3.8,1.4,8.1,1.7,12.2,1.5c13.3-0.5,26.4-5.3,36.9-13.5c2.2-1.8,4.4-3.6,6.9-4.9
			c5.4-2.5,11.8-1.4,17.8-1.1c3.2,0.2,6.3,0.1,9.5-0.3c1.7-0.2,3.2-0.4,4.8-0.6c1.4-0.2,2.8-0.2,4-1.1c0.7-0.6,1.3-1.3,2.1-1.8
			s1.8-0.8,2.8-1c5.3-1.3,10.7-2.6,16-3.7c6.9-1.5,13.9-2.8,21-3.9c11.1-1.8,15.7-5.1,26.9-6.1c4.8-0.4,12.4-2.1,17-3.2
			c6.3-1.7,11.7-1.8,17.5-4.9c9.4-5,21.9-3.6,32.1-6.5c10.3-2.8,22.7-9.4,33-6.3c8.1,2.4,15.3,7.1,23.3,9.5
			c6.1,1.9,13.8,1.9,17.5-3.3c7.4-10.2,25.2-10.8,37.8-12.4c7.2-0.9,13.5-1.2,20.3-3.9c6.7-2.7,13-6.3,19.1-10
			c5.2-3,10.3-6,15.3-9.3c3.8-2.5,7.6-5.2,11.8-6.9c7.8-3.2,17.4,1.5,24-5c1.9-1.8,3-4.3,4.3-6.6c2.2-3.8,5.1-5.5,9-7.4
			c8.9-4.4,18.5-7.1,27.1-12.1c4.1-2.4,8.1-5.3,12.7-6.3c1.8-0.4,3.8-0.5,5.5-1.3c2.7-1.4,4.1-4.4,5.2-7.3c3.5-9,6.7-17.1,7.5-26.7"
			/>
		<circle style="fill:none;stroke:#FFFFFF;stroke-width:2.6667;stroke-miterlimit:10;" cx="752.3" cy="303.4" r="1.7"/>
		<circle style="fill:none;stroke:#FFFFFF;stroke-width:2.6667;stroke-miterlimit:10;" cx="721.8" cy="369.8" r="1.7"/>
		<circle style="fill:none;stroke:#FFFFFF;stroke-width:2.6667;stroke-miterlimit:10;" cx="713.1" cy="386.4" r="1.7"/>
		<circle style="fill:none;stroke:#FFFFFF;stroke-width:2.6667;stroke-miterlimit:10;" cx="623.2" cy="320.7" r="1.7"/>
		<circle style="fill:none;stroke:#FFFFFF;stroke-width:2.6667;stroke-miterlimit:10;" cx="855" cy="425.8" r="1.7"/>
	</g>
	<g style="display:inline;">
		<g>
			<g>
				<path style="fill:none;stroke:#FFFFFF;stroke-width:1.0667;stroke-linecap:round;stroke-miterlimit:10;" d="M986.8,465.7
					l-2.2,3.4c-1.2,1.8-2.3,3.5-2.6,3.9c-0.2,0.4-1.1,2.3-2,4.3l-0.4,0.8c-0.9,2-2.2,3.9-3.1,4.4s-1.8,1.4-2.1,2.1
					c-0.3,0.7-1.5,1.2-2.8,1.3c-1.3,0-2.9,0.8-3.6,1.7c-0.7,0.9-2.2,1.9-3.3,2.2s-2.6,0.4-3.4,0.1c-0.7-0.2-1.9,0.3-2.7,1.2
					c-0.7,0.9-2.2,1.9-3.5,2.4c-1.2,0.5-3.1,0.5-4.3,0.1c-1.2-0.4-2.6-0.8-3.1-0.9c-0.5-0.1-2.2,0.1-3.5,0.4s-3.4,0.9-4.5,1.3
					c-1.2,0.4-3.5,0.9-5.3,1.1s-4.1,0.4-5.2,0.5c-1.1,0-2.9-0.5-4.1-1.2s-3.5-2.4-5.1-3.8l-2.2-1.9c-1.7-1.3-2.5-3.6-1.8-5.1
					c0.6-1.4,1.1-3.6,1-4.9c-0.1-1.3-1.3-3.7-2.7-5.4l-0.7-0.9c-1.3-1.7-2.9-4.6-3.5-6.6c-0.5-1.9-1.8-4.8-2.8-6.3s-2.1-3.5-2.5-4.4
					c-0.4-0.9,3.2-5.1,4.6-6.5c1.5-1.4,2.7-2.5,2.7-2.5"/>
			</g>
			<g>
				<path style="fill:none;stroke:#FFFFFF;stroke-width:1.0667;stroke-linecap:round;stroke-miterlimit:10;" d="M957.9,493.1
					l3.6,7.1c1,1.9,1.8,5.2,1.8,7.4l0.1,6.8c0.1,2.1-1.4,4.9-3.1,6.1l-6.2,4.4c-1.8,1.2-4.5,3.4-6,4.9l-3.5,3.3
					c-1.5,1.4-4.6,2.7-6.7,2.7l-5.2,0.1c-2.1,0.1-4.6-0.1-5.5-0.2c-0.9-0.1-2.5-0.1-3.5,0.1s-3.1-1-4.5-2.6l-1.1-1.2
					c-1.5-1.5-3.4-3.2-4.2-3.7c-0.8-0.5-3.2-1.4-5.2-2.1l-5.3-1.7c-2-0.6-4.4-2.3-5.2-3.7c-0.8-1.4-5.4-4.2-6.8-4.6
					c-1.3-0.4-2.7-1-2.9-1.3c-0.2-0.3-2.8-2.3-3.6-2.8c-0.8-0.5,0.9-5.1,1.7-6.1c0.8-1.1-5.9-2.4-7-2.1c-1.1,0.4-2.8,0.2-3.8-0.2
					c-1.1-0.5-1.9-1.7-1.9-2.5c0-0.9-1.1-2.5-2.5-3.5c-1.3-1-3.6-2.2-5.1-2.8s-2.9-0.6-3.1-0.2c-0.2,0.5-1.2,0.9-2.2,1.1
					c-1,0.1-2.7,0.2-3.9,0.1c-1.2-0.1-2.5,0.1-2.9,0.5c-0.4,0.4-2.3-0.2-4.2-1.2l-3.9-2.1c-1.9-1-4.5-2.5-5.8-3.3
					c-1.3-0.9-2.7-2-3-2.5c-0.4-0.5-1.5-1.6-2.7-2.3c-1.1-0.8-2.1-1.8-2.1-2.2c0-0.5-1.7-1.3-3.8-1.8l-13-3.4c-2.1-0.5-4.7-1-5.9-1
					s-3.6-1-5.3-2.2l-3.1-2.1c-1.8-1.2-4.4-2.2-5.8-2.1c-1.4,0-4-1.1-5.7-2.3l-8.4-6.7c-1.7-1.3-4.3-2.7-5.8-2.9
					c-1.5-0.3-3.8-2-5.1-3.7l-0.7-1c-1.2-1.7-3.4-4.5-4.6-6.2l-5.5-7.5c-1.3-1.7-3.6-4.3-5.3-5.7l-3.6-3c-1.7-1.3-3.9-3.9-5.1-5.8
					l-2.1-3.3c-1.1-1.8-2.9-3.9-3.9-4.7s-1.7-1.8-1.5-2.2c0.2-0.5,0.2-1.2,0-1.5c-0.2-0.4-0.4-1.3-0.5-2c0-0.7-1-1.1-2.2-0.7
					s-3.1-0.5-4.2-1.8c-1.1-1.3-2.2-4.2-2.4-6.3l-0.9-7.6"/>
			</g>
			<g>
				<path style="fill:none;stroke:#FFFFFF;stroke-width:1.0667;stroke-linecap:round;stroke-miterlimit:10;" d="M915.9,486.5
					c0,0-1.7-0.2-3.6-0.3c-2-0.2-5.2-1-7.2-1.8l-9-3.7c-2-0.8-5.1-2.3-6.9-3.4l-1.8-1c-1.9-1.1-4.9-2.8-6.7-3.9l-0.2-0.1
					c-1.8-1.1-5-2.5-7.1-3l-12.2-3.2c-2.1-0.5-4.7-1.7-6-2.7c-1.2-0.9-2.7-2.7-3.3-3.8c-0.6-1.2-1.4-2.6-1.9-3.1s-2.1-0.7-3.6-0.5
					c-1.5,0.3-4.1-0.4-5.8-1.5c-1.7-1.1-3.9-3.4-5.2-5.2l-4.2-6.1"/>
			</g>
			<g>
				<path style="fill:none;stroke:#FFFFFF;stroke-width:1.0667;stroke-linecap:round;stroke-miterlimit:10;" d="M928.7,535.7l-1,6.7
					c-0.3,2.1-0.4,5.6-0.2,7.7l0.2,1.4c0.2,2.1,0.9,5.5,1.4,7.6l1.1,3.9c0.5,2.1,1.1,5,1.3,6.3c0.2,1.4,13.8,1,15.8,0.4l7.7-2.2
					c2.1-0.6,4.5-1.6,5.4-2.2c0.9-0.6,4.6,5.9,5.9,7.6l0.7,1.1c1.2,1.8,3.6,3.4,5.5,3.6c1.8,0.2,5-0.2,6.9-1l4-1.5
					c2-0.8,4.6-2.8,5.9-4.5c1.3-1.7,2.9-2.5,3.7-1.8c0.8,0.7,3.1,1.4,5.2,1.5l18.6,1.1c2.1,0.1,4.6,0.1,5.5-0.1s3.7-4.1,4.8-5.9
					l0.9-1.5c1.1-1.8,3.1-4.4,4.5-5.7c1.4-1.3,10.5,1.2,12.1,1.7s9-4.5,10.7-4.6c1.7-0.1,3.1-0.2,5.5,2.5"/>
			</g>
		</g>
	</g>
	<path style="display:inline;fill:none;stroke:#FFFFFF;stroke-width:1.0667;stroke-linecap:round;stroke-miterlimit:10;" d="
		M956.8,491.3c0,0-7.2-9.9,5.2-14.8"/>
	<path style="display:inline;fill:none;stroke:#FFFFFF;stroke-width:1.0667;stroke-miterlimit:10;" d="M751.4,300.9v-5.2
		c0,0,3.7-2.5,5.2,1.9l1.5,7.7"/>
	<path style="display:inline;fill:#FFFFFF;" d="M439.2,438.1c-0.5,0.4-1.2,1-1.4,1.3c-0.2,0.4-0.8,0.9-1.3,1.2s-1.1,1.1-1.4,1.8
		c-0.3,0.6-0.9,2.1-1.2,3.1c-0.4,1.1,0.1,2.5,1.1,3c0.9,0.6,2.9,0.6,4.3,0.2c0,0,0,0-0.1-0.5s-0.4-0.9-0.4-1.2
		c0.1-0.4,2.1-0.7,2.1-0.7c2.1-0.4,3.6-1.1,3.4-1.6c-0.3-0.5-1.1-1.5-1.9-2.2c0,0,0,0,0.1-0.1c0.1-0.1,0.5-0.9,0-2.1
		s-1.1-1.7-1.3-1.9c-0.2-0.2-0.2-0.3-0.2-0.3C440.5,437.7,439.7,437.7,439.2,438.1z"/>
</g>
<rect id="app_x5F_Muscat-road--zoom" x="90" y="200" style="fill:none;" width="454.4" height="258.4"/>
<path style="fill:#B4985A;fill-opacity:0.75;stroke:#B4985A;stroke-width:0.1669;" d="M153.3,293.9c-0.7,1.8-2.3,3.2-3.4,4.7
	c-0.4,0.5-1.5,2.5-0.9,3c2.2,1.7,4.3,3.4,6.5,5l9,5.4c0.9,0.6,2.1,0.9,3.1,1.5c1.4,0.7,2.9,1.4,4.4,2.1c7,3.2,14.3,5.7,21.5,8.3
	c2,0.7,4,1.5,6,2.2l20.6,6.7c0,0,16.1,6.3,16.1,6.4c2.8,1.1,5.8,1.9,8.6,2.9c0.7,0.2,1.4,0.5,2.1,0.6c1.1,0.2,2.3-0.2,3.4,0
	c2.7,0.4,5.3,2.1,7.1,2.6c0.6-2.1,1.2-4.1,1.8-6.1c0.1-0.4,0.4-1,0.4-1.4c-0.1-0.8-2.1-0.9-2.8-1.1c-2.2-0.5-4.5-0.9-6.7-1.4
	c-1.5-0.4-2.3-2.4-4.1-2.4c-1.4,0-3.6-0.1-4.5-1.5c-0.1-0.1-0.1-0.2-0.2-0.4c-0.2-0.4-0.3-0.9-0.4-1.2c-0.5-1.6-1.9-1.5-3.3-1.9
	c-1.2-0.4-2.5-0.8-3.8-0.3c-1.5,0.5-3,1.1-4.6,1.6c-0.2,0.1-0.4,0.1-0.5,0.1c-0.6,0.1-1.2-0.4-1.8-0.6c-0.8-0.3-1.6-0.6-2.4-0.8
	c-2.2-0.7-4.5-1.5-6.7-2.3c-4.4-1.7-8.8-3.5-13-5.7c-1.9-1-3.8-1.9-5.8-2.9c-3.2-1.6-6.6-3.1-9.8-4.8c-1.7-0.9-3.3-1.7-5-2.6
	c-0.7-0.4-1.6-0.8-2.2-1.4c-0.6-0.6-1.2-1.3-1.7-1.9c-0.6-0.8-1.3-1.6-2-2.4c-0.2-0.2-0.4-0.4-0.4-0.6s-0.1-0.5-0.1-0.8
	c-0.1-1.5-1.1-2.4-1.9-3.4v-1.5c0-1.7,0.1-3.4-0.7-5.1c-0.8-1.6-2-3.2-3.5-4.3c-0.9-0.6-0.9,1.1-1,1.7c-0.1,1.2,0.6,2.6,0.9,3.8
	c0.2,0.7-2.1,1.7-2.7,2.1c-0.1,0.1-1.2-0.7-1.5-0.7c-1.2,0-2.5,0.5-3.7,0.7c0.2-0.1-0.6-1.1-0.7-1.1c-0.4-0.2-0.7-0.2-1-0.4
	c0-0.9,0.3-1,1.1-1.2c0.6-0.2,1.2-0.5,1.7-0.9c0.6-0.6,0.3-0.8-0.2-1.4c-0.5-0.6-1.1,0-1.7,0.1c-0.9,0.1-1.6-0.2-2.5-0.5
	c0.2-1.2,1.4-1.5,1.9-1.9c0.4-0.5,1.7,0.1,2.3,0.3c0.7,0.2,1.4,0.4,1.9,0.8s0.9,1.4,1.6,1.1c0.4-0.2,0.9-1.1,0.9-1.5
	c0-0.5,0-1.2-0.3-1.6c-0.3-0.4-1.1-0.8-1.5-1.1c-1.1-0.6-2.1-1.1-3.3-1.5c-1-0.4-2.5,0.4-3.5,0.7c-1.3,0.4-2.7,0.8-3.9,1.4
	c-0.9,0.4-1.5,1.6-2.1,2.3l-0.4,2.7c-0.1,0.7-0.2,1.6-0.4,2.3C153.3,293.9,153.3,293.9,153.3,293.9z"/>
<g>
	<path style="fill:#676767;" d="M191.8,364.7l-0.9-0.2l-0.4,0.4l1.1,0.6l0.5,1.1l0.4-0.4l-0.1-0.9l1.4-1.3l1.2,2.7l0.5-0.5l-0.6-3.3
		l1.4-1.3c0.2-0.2,0.2-0.5,0.1-0.7c-0.2-0.2-0.5-0.2-0.7-0.1l-1.4,1.3l-3.2-0.9l-0.5,0.5l2.5,1.5L191.8,364.7z"/>
	<path style="fill:#676767;" d="M189.1,367.9c2.4,2.7,6.5,2.9,9.2,0.5s2.9-6.6,0.5-9.3s-6.5-2.9-9.2-0.5
		C186.9,361.1,186.7,365.2,189.1,367.9z M198.3,359.5c2.2,2.4,2,6.2-0.4,8.3c-2.4,2.2-6.1,2-8.3-0.4c-2.2-2.4-2-6.2,0.4-8.3
		C192.4,356.9,196.1,357.1,198.3,359.5z"/>
</g>
<text transform="matrix(0.983 0.1137 -0.1125 0.9937 282.9163 355.7155)" style="fill:#3C3C3D; font-family:'MarselisPro-Bold'; font-size:3.8912px;">18th November St.</text>
<text transform="matrix(0.9695 -0.2012 0.199 0.98 280.6473 457.4716)" style="fill:#3C3C3D; font-family:'MarselisPro'; font-size:5.4719px;">Muscat Expressway</text>
<text transform="matrix(0.8716 -0.5148 0.5287 0.8488 504.08 416.5115)" style="fill:#3C3C3D; font-family:'MarselisPro-Bold'; font-size:3.7783px;">Muscat Expressway</text>
<text transform="matrix(0.9893 0 0 1 296.1748 382.2232)" style="fill:#3C3C3D; font-family:'MarselisPro-Bold'; font-size:3.8913px;">Sultan Qaboos St.</text>
<text transform="matrix(0.9488 -0.2863 0.2832 0.9591 183.499 407.8255)" style="fill:#3C3C3D; font-family:'MarselisPro-Bold'; font-size:3.888px;">Sultan Qaboos St.</text>
<text transform="matrix(0.9889 -3.029204e-02 2.996803e-02 0.9996 484.8633 372.7001)" style="fill:#3C3C3D; font-family:'MarselisPro-Bold'; font-size:3.8902px;">Sultan Qaboos St.</text>
<text transform="matrix(0.9893 0 0 1 115.5537 498.3853)" style="fill:#3C3C3D; font-family:'MarselisPro-Bold'; font-size:3.8913px;">Muscat Expressway</text>
<line style="fill:none;stroke:#8A1739;stroke-width:0.5362;stroke-miterlimit:10;" x1="232.1" y1="398.3" x2="232.1" y2="411.5"/>
<ellipse style="fill:#8A1739;" cx="232.1" cy="398.3" rx="1.8" ry="1.8"/>
<g>
	<text transform="matrix(0.9893 0 0 1 208.6113 417.1207)" style="fill:#8A1538; font-family:'MarselisPro'; font-size:5.4738px;">Oman International</text>
	<text transform="matrix(0.9893 0 0 1 208.6113 423.6783)" style="fill:#8A1538; font-family:'MarselisPro'; font-size:5.4738px;">Exhibition Centre</text>
</g>
<g>
	<line style="fill:none;stroke:#8A1739;stroke-width:0.5362;stroke-miterlimit:10;" x1="283.9" y1="439.5" x2="283.9" y2="426.3"/>
	<ellipse style="fill:#8A1739;" cx="283.9" cy="439.5" rx="1.8" ry="1.8"/>
</g>
<g>
	<text transform="matrix(0.9893 0 0 1 267.5977 419.1129)" style="fill:#8A1538; font-family:'MarselisPro'; font-size:5.4738px;">Oman Convention</text>
	<text transform="matrix(0.9893 0 0 1 267.5977 425.6715)" style="fill:#8A1538; font-family:'MarselisPro'; font-size:5.4738px;">&amp; Exhibition Centre</text>
</g>
<g>
	<line style="fill:none;stroke:#8A1739;stroke-width:0.5362;stroke-miterlimit:10;" x1="204.3" y1="360" x2="213.5" y2="360"/>
	<ellipse style="fill:#8A1739;" cx="204.3" cy="360" rx="1.8" ry="1.8"/>
</g>
<g>
	<line style="fill:none;stroke:#8A1739;stroke-width:0.5362;stroke-miterlimit:10;" x1="119.3" y1="322.4" x2="111.5" y2="317.3"/>
	<ellipse style="fill:#8A1739;" cx="119.3" cy="322.4" rx="1.8" ry="1.8"/>
</g>
<line style="fill:none;stroke:#8A1739;stroke-width:0.5362;stroke-miterlimit:10;" x1="244.3" y1="435" x2="244.3" y2="448.2"/>
<ellipse style="fill:#8A1739;" cx="244.3" cy="435" rx="1.8" ry="1.8"/>
<g>
	<text transform="matrix(0.9893 0 0 1 227.1123 453.8531)" style="fill:#8A1538; font-family:'MarselisPro'; font-size:5.4738px;">Muscat Hills</text>
	<text transform="matrix(0.9893 0 0 1 227.1123 460.4117)" style="fill:#8A1538; font-family:'MarselisPro'; font-size:5.4738px;">Golf &amp; Country Club</text>
</g>
<g>
	<line style="fill:none;stroke:#8A1739;stroke-width:0.5362;stroke-miterlimit:10;" x1="161.6" y1="292.8" x2="161.6" y2="271.3"/>
	<ellipse style="fill:#8A1739;" cx="161.6" cy="292.8" rx="1.8" ry="1.8"/>
</g>
<g>
	<line style="fill:none;stroke:#8A1739;stroke-width:0.5362;stroke-miterlimit:10;" x1="164.4" y1="299" x2="171" y2="278.3"/>
	<ellipse style="fill:#8A1739;" cx="164.4" cy="299" rx="1.8" ry="1.8"/>
</g>
<g>
	<line style="fill:none;stroke:#8A1739;stroke-width:0.5362;stroke-miterlimit:10;" x1="174.7" y1="299.3" x2="185.9" y2="286.2"/>
	<ellipse style="fill:#8A1739;" cx="174.7" cy="299.3" rx="1.8" ry="1.8"/>
</g>
<g>
	<line style="fill:none;stroke:#8A1739;stroke-width:0.5362;stroke-miterlimit:10;" x1="169.5" y1="300.4" x2="159.9" y2="314.7"/>
	<ellipse style="fill:#8A1739;" cx="169.5" cy="300.4" rx="1.8" ry="1.8"/>
</g>
<line style="fill:none;stroke:#8A1739;stroke-width:0.5362;stroke-miterlimit:10;" x1="397.9" y1="433.8" x2="384.9" y2="433.8"/>
<ellipse style="fill:#8A1739;" cx="397.9" cy="433.7" rx="1.8" ry="1.8"/>
<line style="fill:none;stroke:#8A1739;stroke-width:0.5362;stroke-miterlimit:10;" x1="123.4" y1="398" x2="123.4" y2="411.1"/>
<ellipse style="fill:#8A1739;" cx="123.4" cy="398" rx="1.8" ry="1.8"/>
<g>
	<text transform="matrix(0.9893 0 0 1 107.0029 417.0445)" style="fill:#8A1538; font-family:'MarselisPro'; font-size:5.4738px;">As Sahwah</text>
	<text transform="matrix(0.9893 0 0 1 107.0029 423.6021)" style="fill:#8A1538; font-family:'MarselisPro'; font-size:5.4738px;">Public Garden</text>
</g>
<g>
	<text transform="matrix(0.9893 0 0 1 48.3447 299.9684)" style="fill:#8A1538; font-family:'MarselisPro'; font-size:5.4738px;">The International</text>
	<text transform="matrix(0.9893 0 0 1 48.3447 306.5269)" style="fill:#8A1538; font-family:'MarselisPro'; font-size:5.4738px;">School of</text>
	<text transform="matrix(0.9893 0 0 1 48.3447 313.1227)" style="fill:#8A1538; font-family:'MarselisPro'; font-size:5.4738px;">Choueifat</text>
</g>
<g>
	<text transform="matrix(0.9893 0 0 1 392.2617 474.2457)" style="fill:#8A1538; font-family:'MarselisPro'; font-size:5.4738px;">Ghala Valley</text>
	<text transform="matrix(1.0461 0 0 1 392.2617 480.8023)" style="fill:#8A1538; font-family:'MarselisPro'; font-size:5.4738px;">Golf Club</text>
</g>
<line style="fill:none;stroke:#8A1739;stroke-width:0.5362;stroke-miterlimit:10;" x1="460.4" y1="422.4" x2="460.4" y2="435.5"/>
<ellipse style="fill:#8A1739;" cx="460.4" cy="422.4" rx="1.8" ry="1.8"/>
<g>
	<text transform="matrix(0.9893 0 0 1 444.666 440.8297)" style="fill:#8A1538; font-family:'MarselisPro'; font-size:5.4738px;">Mall of Oman</text>
</g>
<line style="fill:none;stroke:#8A1739;stroke-width:0.5362;stroke-miterlimit:10;" x1="896.8" y1="437.3" x2="896.8" y2="450.4"/>
<ellipse style="fill:#8A1739;" cx="896.7" cy="437.3" rx="1.8" ry="1.8"/>
<g>
	<text transform="matrix(0.9893 0 0 1 879.8467 456.2945)" style="fill:#8A1538; font-family:'MarselisPro'; font-size:5.4738px;">Qantab Beach</text>
</g>
<line style="fill:none;stroke:#8A1739;stroke-width:0.5362;stroke-miterlimit:10;" x1="992.8" y1="461.5" x2="992.8" y2="474.6"/>
<ellipse style="fill:#8A1739;" cx="992.7" cy="461.4" rx="1.8" ry="1.8"/>
<g>
	<text transform="matrix(0.9893 0 0 1 973.9648 479.9078)" style="fill:#8A1538; font-family:'MarselisPro'; font-size:5.4738px;">Bandar Khiran</text>
</g>
<line style="fill:none;stroke:#8A1739;stroke-width:0.5362;stroke-miterlimit:10;" x1="948.1" y1="460.2" x2="948.1" y2="473.3"/>
<ellipse style="fill:#8A1739;" cx="948" cy="460.2" rx="1.8" ry="1.8"/>
<g>
	<text transform="matrix(0.9893 0 0 1 944.3008 478.6422)" style="fill:#8A1538; font-family:'MarselisPro'; font-size:5.4738px;">Yiti</text>
</g>
<line style="fill:none;stroke:#8A1739;stroke-width:0.5362;stroke-miterlimit:10;" x1="856.2" y1="415.3" x2="856.2" y2="428.4"/>
<ellipse style="fill:#8A1739;" cx="856.1" cy="415.3" rx="1.8" ry="1.8"/>
<g>
	<text transform="matrix(0.9893 0 0 1 845.0791 433.7242)" style="fill:#8A1538; font-family:'MarselisPro'; font-size:5.4738px;">Al Bustan</text>
</g>
<line style="fill:none;stroke:#8A1739;stroke-width:0.5362;stroke-miterlimit:10;" x1="514.6" y1="399.5" x2="514.6" y2="423.1"/>
<ellipse style="fill:#8A1739;" cx="514.5" cy="399.5" rx="1.8" ry="1.8"/>
<g>
	<text transform="matrix(0.9893 0 0 1 487.9414 428.2144)" style="fill:#8A1538; font-family:'MarselisPro'; font-size:5.4738px;">ABA International school</text>
</g>
<line style="fill:none;stroke:#8A1739;stroke-width:0.5362;stroke-miterlimit:10;" x1="584.9" y1="323.1" x2="584.9" y2="336.3"/>
<ellipse style="fill:#8A1739;" cx="584.8" cy="323.1" rx="1.8" ry="1.8"/>
<g>
	<line style="fill:none;stroke:#8A1739;stroke-width:0.5362;stroke-miterlimit:10;" x1="755.2" y1="311.3" x2="755.2" y2="324.4"/>
	<ellipse style="fill:#8A1739;" cx="755.1" cy="311.2" rx="1.8" ry="1.8"/>
</g>
<g>
	<text transform="matrix(0.9893 0 0 1 562.4863 341.5816)" style="fill:#8A1538; font-family:'MarselisPro'; font-size:5.4738px;">Royal Opera House</text>
</g>
<g>
	<text transform="matrix(0.9893 0 0 1 533.7402 367.5475)" style="fill:#8A1538; font-family:'MarselisPro'; font-size:5.4738px;">British International School</text>
</g>
<g>
	<text transform="matrix(0.9893 0 0 1 645.0693 318.5064)" style="fill:#8A1538; font-family:'MarselisPro'; font-size:5.4738px;">Qurum Natural Park</text>
</g>
<line style="fill:none;stroke:#8A1739;stroke-width:0.5362;stroke-miterlimit:10;" x1="413.5" y1="402.7" x2="413.5" y2="415.8"/>
<ellipse style="fill:#8A1739;" cx="413.4" cy="402.7" rx="1.8" ry="1.8"/>
<g>
	<text transform="matrix(0.9893 0 0 1 397.7969 421.1373)" style="fill:#8A1538; font-family:'MarselisPro'; font-size:5.4738px;">Sultan Qaboos </text>
	<text transform="matrix(0.9893 0 0 1 397.7969 427.6939)" style="fill:#8A1538; font-family:'MarselisPro'; font-size:5.4738px;">Grand Mosque</text>
</g>
<g>
	<text transform="matrix(0.9893 0 0 1 351.543 428.8814)" style="fill:#8A1538; font-family:'MarselisPro'; font-size:5.4738px;">Taisam</text>
	<text transform="matrix(0.9893 0 0 1 351.543 435.44)" style="fill:#8A1538; font-family:'MarselisPro'; font-size:5.4738px;">International </text>
	<text transform="matrix(0.9893 0 0 1 351.543 442.0367)" style="fill:#8A1538; font-family:'MarselisPro'; font-size:5.4738px;">School</text>
</g>
<text transform="matrix(0.9893 0 0 1 142.2764 268.7599)" style="fill:#8A1739; font-family:'MarselisPro'; font-size:5.4738px;"> Al Mouj Marina</text>
<g>
	<line style="fill:none;stroke:#8A1739;stroke-width:0.5362;stroke-miterlimit:10;" x1="251.6" y1="339.5" x2="251.6" y2="317.9"/>
	<ellipse style="fill:#8A1739;" cx="251.6" cy="339.5" rx="1.8" ry="1.8"/>
</g>
<g>
	<line style="fill:none;stroke:#8A1739;stroke-width:0.5362;stroke-miterlimit:10;" x1="210.7" y1="326.5" x2="210.7" y2="305"/>
	<ellipse style="fill:#8A1739;" cx="210.7" cy="326.6" rx="1.8" ry="1.8"/>
</g>
<text transform="matrix(0.9893 0 0 1 165.2783 276.9713)" style="fill:#8A1739; font-family:'MarselisPro'; font-size:5.4738px;">The Walk</text>
<text transform="matrix(0.9893 0 0 1 177.9697 284.2418)" style="fill:#8A1739; font-family:'MarselisPro'; font-size:5.4738px;">Kempinski Hotel </text>
<text transform="matrix(0.9893 0 0 1 142.2764 322.5855)" style="fill:#8A1739; font-family:'MarselisPro'; font-size:5.4738px;">Mysk by Shaza </text>
<text transform="matrix(0.9893 0 0 1 142.2764 329.1441)" style="fill:#8A1739; font-family:'MarselisPro'; font-size:5.4738px;">Al Mouj Hotel</text>
<text transform="matrix(0.9893 0 0 1 215.5254 361.2437)" style="fill:#8A1739; font-family:'MarselisPro'; font-size:5.4738px;">Muscat International Airport</text>
<text transform="matrix(0.9893 0 0 1 91.2559 315.773)" style="fill:#8A1739; font-family:'MarselisPro'; font-size:5.4738px;">Markaz Al Bahja</text>
<text transform="matrix(0.9893 0 0 1 237.4395 316.6773)" style="fill:#8A1739; font-family:'MarselisPro'; font-size:5.4738px;">Al Mouj Golf</text>
<g>
	<line style="fill:none;stroke:#8A1739;stroke-width:0.5362;stroke-miterlimit:10;" x1="381.1" y1="355.7" x2="381.1" y2="334.2"/>
	<ellipse style="fill:#8A1739;" cx="381.1" cy="355.7" rx="1.8" ry="1.8"/>
</g>
<g>
	<line style="fill:none;stroke:#8A1739;stroke-width:0.5362;stroke-miterlimit:10;" x1="620.7" y1="316.9" x2="642" y2="316.9"/>
	<ellipse style="fill:#8A1739;" cx="620.7" cy="316.9" rx="1.8" ry="1.8"/>
</g>
<text transform="matrix(0.9893 0 0 1 366.96 332.941)" style="fill:#8A1739; font-family:'MarselisPro'; font-size:5.4738px;">Azaiba Beach</text>
<g>
	<line style="fill:none;stroke:#8A1739;stroke-width:0.5362;stroke-miterlimit:10;" x1="568.5" y1="314.8" x2="568.5" y2="293.2"/>
	<ellipse style="fill:#8A1739;" cx="568.5" cy="314.8" rx="1.8" ry="1.8"/>
</g>
<text transform="matrix(0.9893 0 0 1 554.3174 291.9684)" style="fill:#8A1739; font-family:'MarselisPro'; font-size:5.4738px;">Qurum Beach</text>
<g>
	<line style="fill:none;stroke:#8A1739;stroke-width:0.5362;stroke-miterlimit:10;" x1="770" y1="310.5" x2="760.4" y2="299.5"/>
	<ellipse style="fill:#8A1739;" cx="770" cy="310.5" rx="1.8" ry="1.8"/>
</g>
<text transform="matrix(0.9893 0 0 1 738.6504 330.2633)" style="fill:#8A1739; font-family:'MarselisPro'; font-size:5.4738px;">Bait Al Baranda</text>
<text transform="matrix(0.9893 0 0 1 777.9941 344.6539)" style="fill:#8A1739; font-family:'MarselisPro'; font-size:5.4738px;">Bait Al Zubair </text>
<text transform="matrix(0.9893 0 0 1 777.9941 351.2125)" style="fill:#8A1739; font-family:'MarselisPro'; font-size:5.4738px;">Museum</text>
<text transform="matrix(0.9893 0 0 1 815.7617 393.2164)" style="fill:#8A1739; font-family:'MarselisPro'; font-size:5.4738px;">Muscat Gate </text>
<text transform="matrix(0.9893 0 0 1 815.7617 399.775)" style="fill:#8A1739; font-family:'MarselisPro'; font-size:5.4738px;">Museum</text>
<g>
	<line style="fill:none;stroke:#8A1739;stroke-width:0.5362;stroke-miterlimit:10;" x1="822" y1="321.5" x2="822" y2="299.9"/>
	<ellipse style="fill:#8A1739;" cx="822" cy="321.5" rx="1.8" ry="1.8"/>
</g>
<g>
	<line style="fill:none;stroke:#8A1739;stroke-width:0.5362;stroke-miterlimit:10;" x1="812.2" y1="304.2" x2="833.5" y2="304.2"/>
	<ellipse style="fill:#8A1739;" cx="812.2" cy="304.2" rx="1.8" ry="1.8"/>
</g>
<g>
	<line style="fill:none;stroke:#8A1739;stroke-width:0.5362;stroke-miterlimit:10;" x1="791.6" y1="329.3" x2="791.6" y2="338.5"/>
	<ellipse style="fill:#8A1739;" cx="791.6" cy="329.3" rx="1.8" ry="1.8"/>
</g>
<g>
	<line style="fill:none;stroke:#8A1739;stroke-width:0.5362;stroke-miterlimit:10;" x1="842.9" y1="381.1" x2="837.4" y2="386.9"/>
	<ellipse style="fill:#8A1739;" cx="842.9" cy="381.1" rx="1.8" ry="1.8"/>
</g>
<text transform="matrix(0.9893 0 0 1 821.1035 342.985)" style="fill:#8A1739; font-family:'MarselisPro'; font-size:5.4738px;">The National Museum</text>
<text transform="matrix(0.9893 0 0 1 821.1035 349.5435)" style="fill:#8A1739; font-family:'MarselisPro'; font-size:5.4738px;">Of Oman</text>
<g>
	<line style="fill:none;stroke:#8A1739;stroke-width:0.5362;stroke-miterlimit:10;" x1="818.2" y1="332" x2="824" y2="337.5"/>
	<ellipse style="fill:#8A1739;" cx="818.2" cy="332" rx="1.8" ry="1.8"/>
</g>
<g>
	<line style="fill:none;stroke:#8A1739;stroke-width:0.5362;stroke-miterlimit:10;" x1="121" y1="364.1" x2="121" y2="342.5"/>
	<ellipse style="fill:#8A1739;" cx="121" cy="364.1" rx="1.8" ry="1.8"/>
</g>
<g>
	<line style="fill:none;stroke:#8A1739;stroke-width:0.5362;stroke-miterlimit:10;" x1="78.8" y1="319.7" x2="69.9" y2="315.5"/>
	<ellipse style="fill:#8A1739;" cx="78.8" cy="319.7" rx="1.8" ry="1.8"/>
</g>
<g>
	<path id="Rectangle-Copy-2_10_" style="fill:#FFFFFF;" d="M101.9,336.9h38.3c1.1,0,1.9,0.9,1.9,1.9V349c0,1.1-0.9,1.9-1.9,1.9
		h-38.3c-1.1,0-1.9-0.9-1.9-1.9v-10.2C100,337.8,100.9,336.9,101.9,336.9z"/>

		<text transform="matrix(0.9893 0 0 1 111.582 342.9859)" style="fill:#8A1538; font-family:'MarselisPro-Bold'; font-size:5.4719px;">City Cent</text>

		<text transform="matrix(0.9893 0 0 1 133.4912 342.9859)" style="fill:#8A1538; font-family:'MarselisPro-Bold'; font-size:5.4719px;">r</text>

		<text transform="matrix(0.9893 0 0 1 135.4727 342.9859)" style="fill:#8A1538; font-family:'MarselisPro-Bold'; font-size:5.4719px;">e</text>

		<text transform="matrix(0.9893 0 0 1 111.582 348.4586)" style="fill:#8A1538; font-family:'MarselisPro-Light'; font-size:5.4719px;">Muscat</text>
	<g>
		<path id="Path_6_" style="fill:#8A1538;" d="M105.8,341.3c-1.8,0-3.1,1.1-3.1,2.6v2.9h1.1c0,0,0-1.6,0-2.9c0-1.4,1.2-2.4,2.3-2.5
			c0.1,0,0.1,0,0.1,0L105.8,341.3L105.8,341.3z"/>
		<path id="Path_3_" style="fill:#8A1538;" d="M106,341.3c-0.1,0.1-0.2,0.1-0.4,0.2c-0.6,0.4-1,1.4-1,2.1c0,0.1,0,0.1,0,0.2l0,0v0.1
			v2.9h0.9v-2.9c0-0.2,0.1-0.4,0.2-0.4l0.4,0.4l0.4-0.4c0.2,0.1,0.2,0.3,0.2,0.4v2.9h0.9v-2.9c0-0.8-0.6-1.6-1.4-1.6
			c-0.2,0-0.4,0.1-0.5,0.1l0,0c0.2-0.2,0.4-0.4,0.8-0.4l0,0c0.1,0,0.2,0,0.3,0.1c0.8,0.2,1.4,0.8,1.4,1.7c0,0.1,0,0.1,0,0.1v2.8h0.9
			c0,0,0-2.8,0-2.9c0-1.2-0.6-2.3-1.9-2.5c-0.1,0-0.1-0.1-0.2-0.1s-0.2,0-0.3,0C106.3,341.3,106.2,341.3,106,341.3z"/>
	</g>
</g>
<g>
	<line style="fill:none;stroke:#8A1739;stroke-width:0.5362;stroke-miterlimit:10;" x1="616.4" y1="335.7" x2="616.4" y2="314.1"/>
	<ellipse style="fill:#8A1739;" cx="616.4" cy="335.7" rx="1.8" ry="1.8"/>
</g>
<g>
	<path id="Rectangle-Copy-2_1_" style="fill:#FFFFFF;" d="M597.4,300h38.3c1.1,0,1.9,0.9,1.9,1.9v10.2c0,1.1-0.9,1.9-1.9,1.9h-38.3
		c-1.1,0-1.9-0.9-1.9-1.9v-10.2C595.5,300.9,596.4,300,597.4,300z"/>

		<text transform="matrix(0.9893 0 0 1 607.0713 306.0269)" style="fill:#8A1538; font-family:'MarselisPro-Bold'; font-size:5.4719px;">City Cent</text>

		<text transform="matrix(0.9893 0 0 1 628.9814 306.0269)" style="fill:#8A1538; font-family:'MarselisPro-Bold'; font-size:5.4719px;">r</text>

		<text transform="matrix(0.9893 0 0 1 630.9619 306.0269)" style="fill:#8A1538; font-family:'MarselisPro-Bold'; font-size:5.4719px;">e</text>

		<text transform="matrix(0.9893 0 0 1 607.0713 311.4996)" style="fill:#8A1538; font-family:'MarselisPro-Light'; font-size:5.4719px;">Qurum</text>
	<g>
		<path id="Path_2_" style="fill:#8A1538;" d="M601.3,304.3c-1.8,0-3.1,1.1-3.1,2.6v2.9h1.1c0,0,0-1.6,0-2.9c0-1.4,1.2-2.4,2.3-2.5
			c0.1,0,0.1,0,0.1,0L601.3,304.3L601.3,304.3z"/>
		<path id="Path_1_" style="fill:#8A1538;" d="M601.5,304.4c-0.1,0.1-0.2,0.1-0.4,0.2c-0.6,0.4-1,1.4-1,2.1c0,0.1,0,0.1,0,0.2l0,0
			v0.1v2.9h0.9V307c0-0.2,0.1-0.4,0.2-0.4l0.4,0.4l0.4-0.4c0.2,0.1,0.2,0.3,0.2,0.4v2.9h0.9V307c0-0.8-0.6-1.6-1.4-1.6
			c-0.2,0-0.4,0.1-0.5,0.1l0,0c0.2-0.2,0.4-0.4,0.8-0.4l0,0c0.1,0,0.2,0,0.3,0.1c0.8,0.2,1.4,0.8,1.4,1.7c0,0.1,0,0.1,0,0.1v2.8h0.9
			c0,0,0-2.8,0-2.9c0-1.2-0.6-2.3-1.9-2.5c-0.1,0-0.1-0.1-0.2-0.1c-0.1,0-0.2,0-0.3,0C601.8,304.3,601.7,304.3,601.5,304.4z"/>
	</g>
</g>
<g>
	<path id="Rectangle-Copy-2_29_" style="fill:#8A1739;" d="M191.6,290.9h38.3c1.1,0,1.9,0.9,1.9,1.9V303c0,1.1-0.9,1.9-1.9,1.9
		h-38.3c-1.1,0-1.9-0.9-1.9-1.9v-10.2C189.8,291.8,190.6,290.9,191.6,290.9z"/>

		<text transform="matrix(0.9893 0 0 1 201.3203 297.0035)" style="fill:#FFFFFF; font-family:'MarselisPro-Bold'; font-size:5.4719px;">Al Mouj</text>

		<text transform="matrix(0.9893 0 0 1 201.3203 302.4752)" style="fill:#FFFFFF; font-family:'MarselisPro-Light'; font-size:5.4719px;">Muscat</text>
	<g>
		<path id="Path_10_" style="fill:#FFFFFF;" d="M195.6,295.3c-1.8,0-3.1,1.1-3.1,2.6v2.9h1.1c0,0,0-1.6,0-2.9c0-1.4,1.2-2.4,2.3-2.5
			c0.1,0,0.1,0,0.1,0L195.6,295.3L195.6,295.3z"/>
		<path id="Path_11_" style="fill:#FFFFFF;" d="M195.8,295.4c-0.1,0.1-0.2,0.1-0.4,0.2c-0.6,0.4-1,1.4-1,2.1c0,0.1,0,0.1,0,0.2l0,0
			v0.1v2.9h0.9V298c0-0.2,0.1-0.4,0.2-0.4l0.4,0.4l0.4-0.4c0.2,0.1,0.2,0.3,0.2,0.4v2.9h0.9V298c0-0.8-0.6-1.6-1.4-1.6
			c-0.2,0-0.4,0.1-0.5,0.1l0,0c0.2-0.2,0.4-0.4,0.8-0.4l0,0c0.1,0,0.2,0,0.3,0.1c0.8,0.2,1.4,0.8,1.4,1.7c0,0.1,0,0.1,0,0.1v2.8h0.9
			c0,0,0-2.8,0-2.9c0-1.2-0.6-2.3-1.9-2.5c-0.1,0-0.1-0.1-0.2-0.1s-0.2,0-0.3,0C196.1,295.3,195.9,295.3,195.8,295.4z"/>
	</g>
</g>
<text transform="matrix(0.9893 0 0 1 807.793 298.6441)" style="fill:#8A1739; font-family:'MarselisPro'; font-size:5.4738px;">Al Alam Palace</text>
<text transform="matrix(0.9893 0 0 1 834.7256 306.1685)" style="fill:#8A1739; font-family:'MarselisPro'; font-size:5.4738px;">Jalali Fort</text>
<text transform="matrix(0.9893 0 0 1 765.2178 284.2418)" style="fill:#8A1739; font-family:'MarselisPro'; font-size:5.4738px;">Corniche Mutrah</text>
<g>
	<line style="fill:none;stroke:#8A1739;stroke-width:0.5362;stroke-miterlimit:10;" x1="784.2" y1="307.3" x2="784.2" y2="285.8"/>
	<ellipse style="fill:#8A1739;" cx="784.2" cy="307.3" rx="1.8" ry="1.8"/>
</g>
<text transform="matrix(0.9893 0 0 1 783.4033 270.7286)" style="fill:#8A1739; font-family:'MarselisPro'; font-size:5.4738px;">Riyam Park Monument</text>
<g>
	<line style="fill:none;stroke:#8A1739;stroke-width:0.5362;stroke-miterlimit:10;" x1="795.5" y1="301" x2="813.5" y2="272.8"/>
	<ellipse style="fill:#8A1739;" cx="795.5" cy="301" rx="1.8" ry="1.8"/>
</g>
<text transform="matrix(0.9893 0 0 1 742.1475 296.5504)" style="fill:#8A1739; font-family:'MarselisPro'; font-size:5.4738px;">Mutrah Souq</text>
<g id="North_Point_1_" transform="translate(1789.000000, 136.000000)">
	<path id="Fill-933_1_" style="fill:#8A1538;" d="M-822.5,9.8l-2,5.9l-1.7-5.8L-822.5,9.8z M-827.8,9.9l3.3,10l3.2-10l-3.3-10
		L-827.8,9.9z M-822.5,9.8l-2,5.9l-1.7-5.8L-822.5,9.8z M-827.8,9.9l3.3,10l3.2-10l-3.3-10L-827.8,9.9z M-822.5,9.8l-2,5.9l-1.7-5.8
		L-822.5,9.8z M-824.5,19.9l3.2-10l-3.3-10l-3.2,10L-824.5,19.9z M-819-0.1c5.4,3.1,7.3,10.1,4.1,15.5c-3.2,5.4-10.1,7.3-15.5,4.1
		c-5.4-3.2-7.3-10.1-4.1-15.5C-831.3-1.5-824.4-3.3-819-0.1z M-831.6,21.7c6.7,3.8,15.1,1.6,19-5.1c3.8-6.6,1.5-15.1-5.1-18.9
		c-6.6-3.8-15.1-1.5-18.9,5.1C-840.5,9.3-838.2,17.8-831.6,21.7z M-822.5,9.8l-2,5.9l-1.7-5.8L-822.5,9.8z M-827.8,9.9l3.3,10
		l3.2-10l-3.3-10L-827.8,9.9z M-822.5,9.8l-2,5.9l-1.7-5.8L-822.5,9.8z M-827.8,9.9l3.3,10l3.2-10l-3.3-10L-827.8,9.9z M-822.5,9.8
		l-2,5.9l-1.7-5.8L-822.5,9.8z M-827.8,9.9l3.3,10l3.2-10l-3.3-10L-827.8,9.9z M-822.5,9.8l-2,5.9l-1.7-5.8L-822.5,9.8z M-827.8,9.9
		l3.3,10l3.2-10l-3.3-10L-827.8,9.9z"/>
	<g id="Back-Copy-5_1_" transform="translate(34.000000, 0.000000)">
		<text transform="matrix(1 0 0 1 -860.9233 -6.223)" style="fill:#8A1538; font-family:'ArialMT'; font-size:7.0514px;">N</text>
	</g>
</g>
</svg>
