<?xml version="1.0" encoding="utf-8"?>
<!-- Generator: Adobe Illustrator 19.1.0, SVG Export Plug-In . SVG Version: 6.00 Build 0)  -->
<svg version="1.1" id="app_x5F_Oman--parent" xmlns="http://www.w3.org/2000/svg" xmlns:xlink="http://www.w3.org/1999/xlink"
	 x="0px" y="0px" width="1024px" height="576px" viewBox="0 0 1024 576" style="enable-background:new 0 0 1024 576;"
	 xml:space="preserve">
 <g id="app_x5_Dummy--marker">
 	<rect x="0" y="0" width="1" height="1"/>
 </g>
<rect id="app_x5F_Muscat--zoom" x="523.3" y="292.7" style="fill:none;" width="72" height="40.5"/>
<g id="app_x5F_region--data" style="display:none;">
	<polygon style="display:inline;fill:#E0DAD5;stroke:#FFFFFF;stroke-miterlimit:10;" points="-494.5,-2126.9 -147.6,-2096
		-71.5,-2089.3 -43.8,-2100.5 -32.6,-2097.4 17.9,-2091.9 67.2,-2087.4 182.3,-2072.2 185.1,-2066.8 194.8,-2049.7 207.3,-2027.2
		212.8,-2011.9 217.3,-2004.8 217.3,-1993.5 217.3,-1984.9 227.2,-1965.6 231.4,-1958.5 251.1,-1938.7 402.6,-1938.7 429,-1940.6
		430.8,-1938.7 453.3,-1924.8 457.2,-1902.3 460,-1878.6 486.4,-1816.9 499.6,-1794.4 555.2,-1741.1 561,-1733.8 563.8,-1714.4
		557,-1705.8 557,-1725.6 548.5,-1732.5 544.6,-1727 541.4,-1707.4 557,-1672.4 577.7,-1668.2 587.7,-1673.6 592,-1672.4
		602,-1663.8 613.3,-1652.5 620,-1649.9 643.7,-1652.5 656.4,-1649.9 674.7,-1634.4 678.9,-1623.2 659.5,-1623.2 643.7,-1625.8
		632.6,-1620 666.2,-1592.4 708.4,-1538.8 710,-1530.7 719.6,-1532 725.1,-1534.6 730.9,-1542 735,-1547.4 743.4,-1543.2
		765.9,-1510.9 778.7,-1488.4 788.4,-1478.7 810.9,-1465.9 816.3,-1462 830.7,-1453.4 838.8,-1453.4 851.3,-1450.7 900.7,-1404.5
		907.5,-1397.2 907.5,-1390.1 888.2,-1404.5 865.7,-1419.7 864.4,-1408.4 864.4,-1401.4 872.6,-1367.6 885.1,-1339.7 895.1,-1335.1
		900.7,-1332.7 916.1,-1328.4 927.4,-1313.3 931.3,-1293.4 931.3,-1266.4 931.3,-1257.1 921.9,-1236 911.9,-1233.3 896.3,-1257.1
		888.2,-1262.5 876.9,-1244.6 883.8,-1210.8 914.6,-1182.5 916.1,-1168.5 923.2,-1153.3 934.4,-1137.6 942.5,-1130.8 956.9,-1108.4
		956.9,-1099.8 952.5,-1106.5 949.9,-1113.8 931.3,-1125.1 925.8,-1126.3 930,-1119.6 972.4,-1066 983.6,-1056.3 988.8,-1049
		1011.3,-1045.1 1018.6,-1037.8 1032.5,-1000.1 1036.9,-976.4 1045,-931.4 1049.5,-929.8 1049.5,-934 1059.4,-929.8 1067.5,-915.9
		1091.2,-882.3 1095.8,-858.4 1095.8,-851.4 1105.6,-838.6 1118.3,-845.9 1129.5,-828.9 1158.7,-795.2 1193.7,-789.7 1209.5,-797.8
		1213.5,-805.2 1218.1,-809.1 1227.4,-807.7 1240.6,-801 1238.7,-793.9 1240.6,-778.5 1251.8,-785.3 1262.4,-801 1265.5,-807.7
		1273.7,-807.7 1284.9,-797.8 1267,-774.1 1248.7,-756 1247.3,-751.6 1244.5,-744.7 1238.7,-727.7 1240.6,-716.6 1247.3,-714
		1258.5,-714 1265.5,-721 1271,-721 1281,-721 1288,-717.9 1296.2,-714 1303.5,-705.4 1307.4,-702.7 1313.2,-702.7 1316,-705.4
		1317.4,-663.5 1591.1,-323.8 2235.2,-235.4 2247.9,-255.1 2378.3,-52.9 2331.9,157.4 2251.9,523.6 1519.4,811.4 1327.2,863.5
		1027,943.4 723.7,1023.4 548.5,1255 395.2,1460 148.6,1788.1 147.2,1728 135.9,1483.7 -82.7,1386.9 -206.4,1333.3 -333.9,1275.8
		-337,1273.2 -345.1,1269.1 -365,1266.3 -414.5,1271.9 -439.5,1288.8 -474.6,1300 -520.9,1285.8 -524.9,1283.1 -543.3,1266.3
		-547.4,1260.7 -551.9,1253.3 -555.8,1249.4 -585.7,1238.2 -603.6,1235.4 -612.1,1239.4 -617.5,1246.6 -627.4,1250.7 -634.6,1255
		-647.1,1269.1 -662.5,1288.8 -669.6,1353.1 -673.8,1410.6 -665.6,1435.7 -654.4,1471.2 -651.3,1482.5 -669.6,1479.5 -676.9,1482.5
		-682.4,1504.5 -682.4,1514.5 -686.3,1520.3 -720,1555.2 -742.5,1566.5 -751.1,1568 -753.7,1544 -766.2,1525.7 -770.8,1513.1
		-770.8,1504.5 -769.4,1497.8 -769.4,1486.5 -787.3,1451.5 -793.1,1441.5 -798.6,1440.3 -808.6,1435.7 -821.1,1424.5 -821.1,1406.5
		-821.1,1388.3 -829.5,1380 -857.5,1353.1 -867.3,1355.8 -864.5,1377 -871.8,1364.4 -875.7,1335 -879.9,1315.3 -879.9,1295.6
		-883.1,1273.2 -887,1260.7 -914.9,1230.8 -942,1200.4 -999.4,1153.8 -1006.2,1155.4 -1021.9,1149.6 -1033.2,1134.1 -1038.5,1128.8
		-1051.1,1113.2 -1073.6,1073.8 -1073.6,1065.4 -1090.7,1044.5 -1094.7,1033.2 -1106,1016.4 -1111.7,1006.7 -1116,993.9
		-1116,985.4 -1117.2,967.2 -1127.2,954.7 -1139.7,936.4 -1148.1,932.2 -1164.8,922.2 -1179.2,898.4 -1177.3,883 -1170.6,860.8
		-1181.9,852.2 -1188.6,849.5 -1199.8,827.1 -1197.2,815.8 -1193.1,791.8 -1197.2,784.7 -1205.6,783.3 -1215.5,780.5 -1222.3,772.2
		-1226.7,758.3 -1253.4,681 -1281.7,658.5 -1301,639 -1296.8,634.6 -1292.9,620.6 -1295.6,616.5 -1296.8,605.3 -1306.7,592.8
		-1313.5,584.3 -1326,584.3 -1330.6,584.3 -1369.8,529.4 -1388.1,520.9 -1417.3,501.5 -1430.4,491.6 -1461,466.1 -1470.8,454.8
		-1479.3,446.6 -1487.9,440.9 -1511.6,440.9 -1525.5,440.9 -1532.8,440.9 -1552.2,428.4 -1590.3,397.4 -1597,387.8 -1605.5,374.9
		-1614.1,359.7 -1620.9,345.7 -1636.6,317.4 -1650.5,309.1 -1652,302.2 -1654.7,293.7 -1647.8,294.9 -1644.7,294.9 -1647.8,286.6
		-1655.9,279.8 -1665.8,279.8 -1671.5,272.4 -1694,250.4 -1719.2,206.7 -1724.7,192.4 -1739,154.8 -1727.8,126.7 -1724.7,118.2
		-1724.7,108.6 -1724.7,102.9 -1727.8,91.7 -1732,83.3 -1747.1,58 -1750.1,46.7 -1754.2,27 -1762.6,6.1 -1768.2,1.7 -1773.9,-6.7
		-1772.6,-87.9 -1769.6,-116.2 -1754.2,-161.2 -1768.2,-221.3 -1793.4,-267.6 -1796.3,-274.9 -1812,-296.9 -1824.5,-319.4
		-1815.9,-316.6 -1812,-305.4 -1807.6,-296.9 -1800.7,-296.9 -1796.3,-301.3 -1803.4,-312.5 -1814.6,-330.7 -1820.4,-335
		-1850.9,-389.9 -1865.1,-410.6 -1869.4,-426.3 -1869.4,-436.1 -1872.1,-454.1 -1873.3,-461.2 -1876.3,-462.5 -1883.3,-473.7
		-1898.8,-490.4 -1907.1,-492.3 -1926.9,-541.2 -1936.6,-567.8 -1988.8,-617.3 -2018.1,-641 -2030.6,-649.1 -2049.1,-654.9
		-2082.8,-678.7 -2116.2,-702.7 -2135.8,-716.6 -2147,-706.6 -2148.7,-701.2 -2152.8,-701.2 -2171.2,-709.7 -2182.5,-721
		-2193.2,-739 -2190.6,-748.9 -2193.2,-760.2 -2211.8,-785.3 -2213.1,-791.1 -2215.7,-795.2 -2225.7,-813.5 -2231.5,-818.9
		-2242.7,-831.6 -2248.2,-836 -2273.2,-871.1 -2266.5,-871.1 -2262.4,-871.1 -2255.2,-871.1 -2251.2,-875.2 -2246.8,-880.9
		-2242.7,-911.5 -2251.2,-955.1 -2254,-960.9 -2258.1,-970.9 -2263.7,-977.6 -2270.7,-982.1 -2284.5,-1000.1 -2293,-1015.3
		-2297.4,-1022.6 -2300.2,-1031 -2300.2,-1042.3 -2339.4,-1103.8 -2366.1,-1130.8 -2375.7,-1134.8 -2375.7,-1125.1 -2392.7,-1133.5
		-2399.9,-1144.7 -2406.8,-1156 -2411.1,-1165.8 -2406.8,-1177.1 -2399.9,-1193.8 -2399.9,-1199.6 -2402.7,-1210.8 -2406.8,-1214.7
		-2411.1,-1220.2 -2422.4,-1222.1 -2426.4,-1222.1 -2430.7,-1224.7 -2441.9,-1228.8 -2450.2,-1237.2 -2454.4,-1244.6
		-2460.2,-1259.7 -2508,-1348.3 -2533.1,-1393.3 -2551.4,-1412.6 -2556.9,-1417 -2563.9,-1421.2 -2577.9,-1447.6 -2579.3,-1457.4
		-2582.3,-1464.6 -2591.8,-1473.2 -2607.6,-1485.7 -2614.3,-1495.7 -2636.8,-1523.4 -2643.9,-1538.8 -2641,-1547.4 -2643.9,-1554.4
		-2663.5,-1583.8 -2687.6,-1596.3 -2694.3,-1604.9 -2705.6,-1620 -2714.1,-1637.1 -2719.8,-1642.5 -2721,-1649.9 -2723.8,-1656.9
		-2723.8,-1668.2 -2725.4,-1676.3 -2754.8,-1718.6 -2770.4,-1741.1 -2774.3,-1748.1 -2781.6,-1753.6 -2796.8,-1772 -2801.3,-1776.1
		-2808,-1780 -2816.6,-1798.6 -2843,-1813.7 -2857.2,-1813.7 -2862.8,-1812.5 -2872.8,-1805.6 -2879.7,-1805.6 -2895,-1802.5
		-2930.3,-1823.7 -2937.2,-1818.3 -2944.2,-1809.8 -2944.2,-1801.2 -2944.2,-1794.4 -2947.2,-1790 -2961.2,-1809.8 -2958.4,-1818.3
		-2947.2,-1832.3 -2937.2,-1864.5 -2925.9,-1893.7 -2925.9,-1902.3 -2919.1,-1920.7 -2916.3,-1924.8 -2911.7,-1938.7
		-2914.7,-1962.4 -2916.3,-1971 -2910.5,-2028.7 -2910.5,-2038.5 -2903.5,-2104.4 -2903.5,-2108.6 -2900.5,-2126.9 -2899.2,-2135.5
		-2889.2,-2171.9 -2888,-2173.1 -2831.8,-2164.7 -2746.3,-2149.4 -2613.1,-2124.2 -2565.4,-2166.1 -2514.8,-2215.5 -2461.4,-2319.2
		-2391.4,-2334.6 -2301.5,-2355.6 -2280.5,-2359.8 -2246.8,-2455.4 -2169.5,-2504.3 -2286.2,-2632 -2304.3,-2654.5 -2354.9,-2710.8
		-2433.6,-2792 -2386.9,-2807.8 -2321.2,-2828.4 -2266.5,-2844 -2207.4,-2863.4 -2200.6,-2865.2 -2082.8,-2901.6 -1957.8,-2936.6
		-1945,-2951.9 -1915.7,-2981.6 -1845.4,-2965.8 -1698.3,-2936.6 -1616.7,-2921.5 -1350.4,-2754.2 -1185.9,-2679.7 -966.9,-2508.5
		-930.7,-2479.3 -734.4,-2319.2 	"/>
</g>
<g id="app_x5F_Muscat--button">
	<polygon id="tap_x5F_area" style="fill:#FFFFFF;fill-opacity:0;" points="667,275.4 666.1,397.7 577.7,397 502.7,353.4
		502.9,316.4 578.6,272.7 	"/>
	<rect id="app_x5F_Muscat--tap" x="549.4" y="322" style="fill:#FFFFFF;fill-opacity:0;" width="20" height="20"/>
	<g id="Logo_AlMouj">
		<path style="fill:#002D74;" d="M615,320.2c0-0.5-0.3-0.9-0.9-0.9c-0.6,0-0.9,0.3-0.9,0.9c0,0.5,0.3,0.9,0.9,0.9
			C614.7,321.1,615,320.7,615,320.2 M659.6,325.4c0-0.5-0.3-0.9-0.9-0.9c-0.5,0-0.9,0.3-0.9,0.9c0,0.5,0.3,0.9,0.9,0.9
			C659.2,326.2,659.6,325.9,659.6,325.4 M613.8,313.2h-3.1v1.7h3.4c0.5,0,1,0.2,1.3,0.6c0.3,0.3,0.4,0.7,0.5,1.1h-2.2l0,0h-1.1
			c-1.1,0-1.9,0.3-2.7,1c-0.7,0.7-1.1,1.6-1.1,2.6c0,1.1,0.3,1.9,1.1,2.6c0.7,0.7,1.6,1.1,2.7,1.1h4.8v-1.7h-5.1
			c-0.5,0-1-0.2-1.3-0.6c-0.3-0.3-0.5-1-0.5-1.4c0-0.5,0.2-1.1,0.5-1.4c0.3-0.3,0.9-0.6,1.3-0.6h1.2l0,0h3.8v-1.7
			c-0.1-0.9-0.4-1.6-1.1-2.2C615.8,313.5,614.9,313.2,613.8,313.2 M657.9,323.6h1.7v-10.5h-1.7V323.6z M638.5,321.1
			c0.2,0.5,0.5,1,0.9,1.3c0.9,0.9,1.8,1.3,2.9,1.3c0.1,0,0.1,0,0.2,0c1.1,0,2.1-0.4,2.9-1.2c0.4-0.4,0.7-0.9,1-1.4h5.9l0,0
			c1.1,0,1.9-0.3,2.6-1.1c0.7-0.7,1.1-1.7,1.1-2.7v-4.2h-1.7v4.2c0,0.5-0.2,1.1-0.6,1.5c-0.4,0.3-0.9,0.6-1.3,0.6h-5.7v-0.1
			c0-1.2-0.4-2.2-1.2-3c-0.7-0.9-1.8-1.3-2.9-1.3c-1.2-0.1-2.2,0.3-3.1,1.2c-0.9,0.9-1.3,1.9-1.3,3.1v0.1h-11v-2.3l0,0
			c0-1.1-0.3-1.9-1.1-2.7c-0.7-0.7-1.7-1.2-2.7-1.2c-1.1-0.1-2.1,0.3-2.8,1.1c-0.7,0.7-1.2,1.7-1.2,2.8s0.3,2,1.1,2.8
			c0.7,0.7,1.7,1.2,2.7,1.2c0.1,0,0.1,0,0.2,0s0.3,0,0.3,0h1.8c-0.1,0.1-0.2,0.3-0.3,0.4c-0.3,0.3-0.7,0.6-1.1,0.6h-4.6v1.7h4.5
			c0.9,0,1.7-0.3,2.3-1c0.5-0.5,0.7-1,1-1.7L638.5,321.1L638.5,321.1z M640.5,317.3c0.5-0.5,1.1-0.7,1.8-0.7h0.1l0,0
			c0.7,0,1.3,0.3,1.8,0.7c0.5,0.5,0.7,1.2,0.9,1.9c0,0.7-0.3,1.5-0.9,2c-0.5,0.6-1.2,0.9-1.9,0.7l0,0c-0.7,0-1.3-0.3-1.8-0.9
			c-0.5-0.5-0.7-1.2-0.7-1.9C639.8,318.5,640.1,317.9,640.5,317.3 M623.3,319.4L623.3,319.4C623.2,319.4,623.2,319.4,623.3,319.4
			L623.3,319.4c-0.7,0-1.2-0.3-1.6-0.7c-0.4-0.5-0.6-1-0.6-1.7c0-0.6,0.3-1.2,0.6-1.6c0.5-0.5,1-0.6,1.6-0.6c0,0,0,0,0.1,0l0,0
			c0.6,0,1.1,0.3,1.5,0.6c0.4,0.5,0.6,1,0.7,1.6v0.1v2v0.3l0,0h-1.9L623.3,319.4L623.3,319.4z M657.9,334.5c0,0.5-0.2,1-0.6,1.3
			s-1,0.6-1.5,0.6v1.7c1.1,0,1.9-0.3,2.7-1.1c0.7-0.7,1.1-1.7,1.1-2.7v-7h-1.7V334.5z M655.9,327.2h-1.7v5.1c0,0.5-0.2,1-0.6,1.3
			c-0.4,0.3-1,0.6-1.5,0.6s-1.1-0.3-1.5-0.6c-0.4-0.4-0.6-0.9-0.6-1.3v-5.1h-1.7v4.9c0,1.1,0.3,2,1.1,2.7c0.7,0.7,1.6,1.1,2.7,1.1
			s1.9-0.3,2.7-1.1c0.7-0.7,1.1-1.7,1.1-2.7V327.2z M642.5,327.2c-1.2-0.1-2.2,0.3-3.1,1.2c-0.9,0.9-1.3,1.9-1.3,3.1s0.4,2.2,1.2,3
			c0.9,0.9,1.8,1.3,2.9,1.3c0.1,0,0.1,0,0.2,0c1.1,0,2.1-0.4,2.9-1.2c0.9-0.9,1.3-1.9,1.3-3.1s-0.4-2.2-1.2-3
			C644.7,327.7,643.7,327.3,642.5,327.2 M644.3,333.5c-0.5,0.6-1.2,0.9-1.9,0.9l0,0c-0.7,0-1.3-0.3-1.8-0.9
			c-0.5-0.5-0.7-1.2-0.7-1.9s0.3-1.4,0.9-1.9c0.5-0.5,1.1-0.7,1.9-0.7h0.1l0,0c0.7,0,1.3,0.3,1.8,0.7c0.5,0.5,0.7,1.2,0.9,1.9
			C645.1,332.3,644.7,333,644.3,333.5 M619.4,335.9h1.7v-10.5h-1.7V335.9z M613.4,327.2c-1.2-0.1-2.2,0.3-3.1,1.2s-1.3,1.9-1.3,3.1
			s0.4,2.2,1.2,3c0.9,0.9,1.8,1.3,2.9,1.3c0.1,0,0.1,0,0.2,0c0.9,0,1.9-0.5,2.7-1v1h1.7v-4.3c0.1-1.2-0.3-2.2-1.2-3
			C615.6,327.7,614.6,327.3,613.4,327.2 M615.1,333.5c-0.5,0.5-1.1,0.9-1.8,0.9c-0.1,0-0.1,0-0.1,0c-0.7-0.1-1.3-0.3-1.8-0.9
			c-0.5-0.5-0.7-1.2-0.7-1.9s0.3-1.4,0.9-1.9c0.5-0.5,1.2-0.7,1.9-0.7c0.7,0,1.3,0.3,1.8,0.7c0.5,0.5,0.7,1.2,0.7,1.9
			C615.9,332.3,615.7,333,615.1,333.5 M632.4,325.5c-0.1,0-0.3-0.1-0.3-0.1c-0.2,0-0.3-0.1-0.6-0.1c-0.4,0-0.7,0.1-1.1,0.2
			c-0.3,0.1-0.5,0.2-0.9,0.4c-1.5,1-2.2,2.7-2.2,4.3v5.5h1.9v-5.5c0-0.3,0.2-0.6,0.4-0.9l0.7,0.9l0.7-0.9c0.3,0.3,0.4,0.5,0.4,0.9
			v5.5h1.9v-5.3c0-3.3-3.1-3.4-4.1-2.9c1.3-1.6,5.1-0.6,5.1,2.9v5.3h1.9c0,0,0-5.3,0-5.4C636.4,328.1,635,326.1,632.4,325.5
			 M642.6,338.5c0.1,0,0.3-0.1,0.3-0.3c0-0.1-0.1-0.3-0.3-0.3c-0.2,0-0.3,0.1-0.3,0.3S642.5,338.5,642.6,338.5 M643.2,338.5
			c0.1,0,0.3-0.1,0.3-0.3c0-0.1-0.1-0.3-0.3-0.3c-0.2,0-0.3,0.1-0.3,0.3S643.1,338.5,643.2,338.5 M651.2,338.9
			c-0.7,0.1-1.3,0.7-1.3,1.5c0,0.1,0,0.3,0.1,0.3h-1.5c0.1-0.1,0.1-0.3,0.1-0.4V339h-0.5v1.2c0,0.5-0.1,0.6-0.4,0.6h-0.5
			c0.1-0.1,0.1-0.3,0.1-0.4v-1.3h-0.5v1.2c0,0.5-0.1,0.6-0.3,0.6H646c0.1-0.1,0.1-0.3,0.1-0.4v-1.3h-0.5v1.2c0,0.3-0.2,0.5-0.4,0.5
			h-1h-0.4c-0.1,0-0.3,0-0.3-0.1c0.2-0.1,0.3-0.3,0.4-0.4c0.1-0.2,0.2-0.4,0.2-0.6c0-0.3-0.1-0.5-0.3-0.7c-0.2-0.3-0.5-0.3-0.9-0.3
			c-0.3,0-0.6,0.1-0.9,0.3c-0.2,0.2-0.3,0.4-0.3,0.7s0.1,0.4,0.2,0.6c0.1,0.2,0.3,0.3,0.4,0.4c-0.1,0.1-0.2,0.1-0.3,0.1h-1.2h-2
			c0-0.1,0-0.1,0-0.1c0-1.1-0.4-1.7-1.2-1.7c-0.5,0-1.1,0.3-1.4,1v-1.8h-0.5v1.5l0,0v1.2h-0.3v0.5h5.4h1c0.3,0,0.5,0,0.5,0
			c0.2-0.1,0.3-0.1,0.5-0.3c0.2,0.1,0.3,0.2,0.5,0.3c0.1,0,0.3,0,0.5,0h0.1h1.5h4.6c0.3,0.3,0.7,0.6,1.2,0.5
			c0.7-0.1,1.3-0.7,1.3-1.5C652.6,339.5,652,338.8,651.2,338.9 M638.3,340.6h-2.1c0.3-0.7,0.9-1.3,1.4-1.3s0.7,0.4,0.7,1.1
			C638.3,340.5,638.3,340.6,638.3,340.6 M642.8,340.4c-0.2-0.1-0.3-0.2-0.4-0.3c-0.1-0.1-0.1-0.3-0.1-0.5c0-0.3,0.3-0.6,0.6-0.6
			c0.2,0,0.3,0.1,0.4,0.2c0.1,0.1,0.2,0.3,0.2,0.4s-0.1,0.3-0.2,0.5S643,340.3,642.8,340.4 M651.3,341.2c-0.5,0-1-0.4-1-0.9
			s0.4-1,0.9-1s1,0.4,1,0.9C652.2,340.8,651.8,341.2,651.3,341.2"/>
		<path style="fill:#00A6D6;" d="M630.7,325.4C630.8,325.4,630.7,325.4,630.7,325.4c-2.1,0.5-4.1,2.3-4.1,5.1v5.5h-1.9v-5.5
			c0-2.9,2.2-5,5.4-5L630.7,325.4L630.7,325.4z M632.3,338.9v0.9c0,0.3,0.1,0.5,0.3,0.6c0.2,0.2,0.4,0.3,0.6,0.3v0.5
			c-0.4,0-0.7-0.1-1-0.4s-0.4-0.6-0.4-1V338h0.5v0.5h1v0.5L632.3,338.9L632.3,338.9z M624.1,341.1c-0.3,0-0.7-0.1-1-0.3l0.3-0.3
			c0.3,0.2,0.5,0.3,0.7,0.3c0.3,0,0.5-0.1,0.5-0.3c0-0.3-0.3-0.3-0.6-0.4h-0.1c-0.3-0.1-0.7-0.3-0.7-0.7c0-0.5,0.4-0.7,1-0.7
			c0.3,0,0.6,0.1,0.9,0.3l-0.3,0.3c-0.2-0.1-0.3-0.2-0.5-0.2c-0.3,0-0.5,0.1-0.5,0.3c0,0.3,0.3,0.3,0.6,0.4h0.1
			c0.4,0.2,0.7,0.3,0.7,0.7C625.1,340.9,624.7,341.1,624.1,341.1 M625.6,339.8c0-0.4,0.1-0.7,0.4-1s0.6-0.4,1-0.4
			c0.4,0,0.7,0.1,1,0.4l-0.3,0.3c-0.2-0.2-0.4-0.3-0.6-0.3s-0.5,0.1-0.7,0.3c-0.2,0.2-0.3,0.4-0.3,0.6c0,0.3,0.1,0.5,0.3,0.6
			c0.2,0.2,0.4,0.3,0.7,0.3s0.5-0.1,0.6-0.3l0.3,0.3c-0.3,0.3-0.6,0.4-1,0.4c-0.4,0-0.7-0.1-1-0.4
			C625.7,340.5,625.6,340.2,625.6,339.8L625.6,339.8z M622.5,340c0,0.3-0.1,0.6-0.3,0.9c-0.2,0.3-0.5,0.3-0.9,0.3
			c-0.3,0-0.6-0.1-0.9-0.3c-0.3-0.3-0.3-0.5-0.3-0.9v-1.6h0.5v1.6c0,0.2,0.1,0.3,0.3,0.5c0.1,0.1,0.3,0.3,0.5,0.3
			c0.2,0,0.3-0.1,0.5-0.3c0.1-0.1,0.3-0.3,0.3-0.5v-1.6h0.5v1.6H622.5z M619.2,339.5c0-0.2-0.1-0.3-0.2-0.5
			c-0.1-0.1-0.3-0.2-0.4-0.2c-0.1,0-0.3,0.1-0.4,0.2s-0.2,0.3-0.2,0.5v1.7h-0.5v-1.7c0-0.2-0.1-0.3-0.2-0.5
			c-0.1-0.1-0.3-0.2-0.4-0.2s-0.3,0.1-0.4,0.2c-0.1,0.1-0.2,0.3-0.2,0.5v1.7h-0.5v-1.7c0-0.3,0.1-0.5,0.3-0.7
			c0.3-0.3,0.5-0.3,0.7-0.3c0.3,0,0.6,0.1,0.9,0.4c0.2-0.3,0.5-0.4,0.9-0.4c0.3,0,0.5,0.1,0.7,0.3c0.2,0.3,0.3,0.5,0.3,0.7v1.7h-0.5
			L619.2,339.5L619.2,339.5z M630.8,340.7c-0.3,0.3-0.6,0.5-1,0.5c-0.3,0-0.7-0.1-1-0.4s-0.4-0.6-0.4-1s0.1-0.7,0.4-1s0.6-0.4,1-0.4
			c0.4,0,0.7,0.1,1,0.4s0.4,0.6,0.4,1v1.3h-0.5L630.8,340.7L630.8,340.7z M630.8,339.8c0-0.3-0.1-0.5-0.3-0.6
			c-0.2-0.2-0.4-0.3-0.6-0.3s-0.5,0.1-0.6,0.3c-0.2,0.2-0.3,0.4-0.3,0.6c0,0.3,0.1,0.5,0.3,0.6c0.2,0.2,0.4,0.3,0.6,0.3
			s0.5-0.1,0.6-0.3C630.7,340.3,630.8,340,630.8,339.8"/>
	</g>
	<g id="Oman-marker">
		<g transform="translate(1032.000000, 577.000000)">
			<polygon id="Fill-124_5_" style="fill:#8A1538;" points="-479,-251.5 -479,-238.9 -474.8,-238.9 -472.7,-236.6 -470.5,-238.9
				-466.3,-238.9 -466.3,-251.5 			"/>
			<g id="Group_5_" transform="translate(5.000000, 5.000000)">
				<path id="Path_11_" style="fill:#FFFFFF;" d="M-478-253.6c-2,0-3.5,1.3-3.5,3.2v3.6h1.2c0,0,0-2,0-3.6c0-1.7,1.3-2.9,2.6-3.1
					c0.1,0,0.1,0,0.1,0L-478-253.6L-478-253.6z"/>
				<path id="Path_10_" style="fill:#FFFFFF;" d="M-477.7-253.4c-0.1,0.1-0.3,0.1-0.5,0.3c-0.9,0.5-1.3,1.6-1.4,2.6
					c0,0.1,0,0.1,0,0.2l0,0v0.1v3.6h1.2v-3.6c0-0.3,0.1-0.4,0.3-0.5l0.4,0.5l0.4-0.5c0.2,0.1,0.3,0.3,0.3,0.5v3.6h1.2v-3.6
					c0-1.1-0.9-1.9-1.9-1.9c-0.3,0-0.5,0.1-0.7,0.1l0,0c0.3-0.3,0.6-0.4,1-0.4l0,0c0.1,0,0.3,0,0.4,0c1.1,0.2,1.9,1.1,1.9,2.1
					c0,0.1,0,0.1,0,0.1v3.5h1.2v-3.5c0-1.5-0.9-2.8-2.5-3.1c-0.1,0-0.1-0.1-0.3-0.1c-0.1,0-0.3,0-0.4,0
					C-477.3-253.6-477.5-253.5-477.7-253.4z"/>
			</g>
		</g>
		<path id="Line-4-Copy-3" style="fill:none;stroke:#8A1538;stroke-width:1.1784;" d="M604.3,332.2h-38.9"/>
		<text transform="matrix(1 0 0 1 512.0001 335.005)" style="fill:#8A1538; font-family:'MarselisPro'; font-size:9.066px;">MUSCAT</text>
	</g>
</g>
<g id="North_Point_1_" transform="translate(1789.000000, 136.000000)">
	<path id="Fill-933_1_" style="fill:#8A1538;" d="M-822.5,9.8l-2,5.9l-1.7-5.8L-822.5,9.8z M-827.8,9.9l3.3,10l3.2-10l-3.3-10
		L-827.8,9.9z M-822.5,9.8l-2,5.9l-1.7-5.8L-822.5,9.8z M-827.8,9.9l3.3,10l3.2-10l-3.3-10L-827.8,9.9z M-822.5,9.8l-2,5.9l-1.7-5.8
		L-822.5,9.8z M-824.5,19.9l3.2-10l-3.3-10l-3.2,10L-824.5,19.9z M-819-0.1c5.4,3.1,7.3,10.1,4.1,15.5c-3.2,5.4-10.1,7.3-15.5,4.1
		c-5.4-3.2-7.3-10.1-4.1-15.5C-831.3-1.5-824.4-3.3-819-0.1z M-831.6,21.7c6.7,3.8,15.1,1.6,19-5.1c3.8-6.6,1.5-15.1-5.1-18.9
		c-6.6-3.8-15.1-1.5-18.9,5.1C-840.5,9.3-838.2,17.8-831.6,21.7z M-822.5,9.8l-2,5.9l-1.7-5.8L-822.5,9.8z M-827.8,9.9l3.3,10
		l3.2-10l-3.3-10L-827.8,9.9z M-822.5,9.8l-2,5.9l-1.7-5.8L-822.5,9.8z M-827.8,9.9l3.3,10l3.2-10l-3.3-10L-827.8,9.9z M-822.5,9.8
		l-2,5.9l-1.7-5.8L-822.5,9.8z M-827.8,9.9l3.3,10l3.2-10l-3.3-10L-827.8,9.9z M-822.5,9.8l-2,5.9l-1.7-5.8L-822.5,9.8z M-827.8,9.9
		l3.3,10l3.2-10l-3.3-10L-827.8,9.9z"/>
	<g id="Back-Copy-5_1_" transform="translate(34.000000, 0.000000)">
		<text transform="matrix(1 0 0 1 -860.9233 -6.223)" style="fill:#8A1538; font-family:'ArialMT'; font-size:7.0514px;">N</text>
	</g>
</g>
</svg>
