<?xml version="1.0" encoding="utf-8"?>
<!-- Generator: Adobe Illustrator 19.1.0, SVG Export Plug-In . SVG Version: 6.00 Build 0)  -->
<svg version="1.1" id="app_x5F_Sharjah-road--parent"
	 xmlns="http://www.w3.org/2000/svg" xmlns:xlink="http://www.w3.org/1999/xlink" x="0px" y="0px" width="1024px" height="576px"
	 viewBox="0 0 1024 576" style="enable-background:new 0 0 1024 576;" xml:space="preserve">
<g id="Map_labels">
	
		<text transform="matrix(0.1045 0.9945 -0.9945 0.1045 711.278 254.8531)" style="fill:#3C3C3D; font-family:'MarselisPro-Bold'; font-size:5.2874px;">Al Dhaid Road</text>
	<text transform="matrix(0 1 -1 0 443.1992 418.7966)" style="fill:#3C3C3D; font-family:'MarselisPro-Bold'; font-size:5.2877px;">Uni</text>
	<text transform="matrix(0 1 -1 0 443.1992 427.155)" style="fill:#3C3C3D; font-family:'MarselisPro-Bold'; font-size:5.2877px;">v</text>
	<text transform="matrix(0 1 -1 0 443.1992 429.6823)" style="fill:#3C3C3D; font-family:'MarselisPro-Bold'; font-size:5.2877px;">ersity City Road</text>
	<text transform="matrix(1 0 0 1 501.9844 98.3591)" style="fill:#8A1538; font-family:'MarselisPro'; font-size:7.4028px;">T</text>
	<text transform="matrix(1 0 0 1 505.2891 98.3591)" style="fill:#8A1538; font-family:'MarselisPro'; font-size:7.4028px;">ar</text>
	<text transform="matrix(1 0 0 1 511.8984 98.3591)" style="fill:#8A1538; font-family:'MarselisPro'; font-size:7.4028px;">f</text>
	<text transform="matrix(1 0 0 1 514.4258 98.3591)" style="fill:#8A1538; font-family:'MarselisPro'; font-size:7.4028px;">aa Park</text>
	<text transform="matrix(1 0 0 1 287.876 208.8727)" style="fill:#8A1538; font-family:'MarselisPro'; font-size:7.4028px;">Al Thiqah Club </text>
	<text transform="matrix(1 0 0 1 336.666 208.8727)" style="fill:#8A1538; font-family:'MarselisPro'; font-size:7.4028px;">f</text>
	<text transform="matrix(1 0 0 1 338.998 208.8727)" style="fill:#8A1538; font-family:'MarselisPro'; font-size:7.4028px;">or Handicapped</text>
	<text transform="matrix(1 0 0 1 304.9219 271.2681)" style="fill:#8A1538; font-family:'MarselisPro'; font-size:7.4028px;">Sharjah Blood </text>
	<text transform="matrix(1 0 0 1 352.5449 271.2681)" style="fill:#8A1538; font-family:'MarselisPro'; font-size:7.4028px;">T</text>
	<text transform="matrix(1 0 0 1 356.0439 271.2681)" style="fill:#8A1538; font-family:'MarselisPro'; font-size:7.4028px;">r</text>
	<text transform="matrix(1 0 0 1 358.5713 271.2681)" style="fill:#8A1538; font-family:'MarselisPro'; font-size:7.4028px;">ansfusion </text>
	<text transform="matrix(1 0 0 1 304.9219 278.6716)" style="fill:#8A1538; font-family:'MarselisPro'; font-size:7.4028px;">and Resea</text>
	<text transform="matrix(1 0 0 1 338.9385 278.6716)" style="fill:#8A1538; font-family:'MarselisPro'; font-size:7.4028px;">r</text>
	<text transform="matrix(1 0 0 1 341.4648 278.6716)" style="fill:#8A1538; font-family:'MarselisPro'; font-size:7.4028px;">ch Cent</text>
	<text transform="matrix(1 0 0 1 365.5693 278.6716)" style="fill:#8A1538; font-family:'MarselisPro'; font-size:7.4028px;">r</text>
	<text transform="matrix(1 0 0 1 368.0967 278.6716)" style="fill:#8A1538; font-family:'MarselisPro'; font-size:7.4028px;">e</text>
	<text transform="matrix(1 0 0 1 341.1094 327.6613)" style="fill:#8A1538; font-family:'MarselisPro'; font-size:7.4028px;">ADNOC Station</text>
	<text transform="matrix(1 0 0 1 337.9697 379.2341)" style="fill:#8A1538; font-family:'MarselisPro'; font-size:7.4028px;">F</text>
	<text transform="matrix(1 0 0 1 341.6641 379.2341)" style="fill:#8A1538; font-family:'MarselisPro'; font-size:7.4028px;">amilies Market</text>
	<text transform="matrix(1 0 0 1 336.4756 399.7625)" style="fill:#8A1538; font-family:'MarselisPro'; font-size:7.4028px;">Al </text>
	<text transform="matrix(1 0 0 1 345.0283 399.7625)" style="fill:#8A1538; font-family:'MarselisPro'; font-size:7.4028px;">F</text>
	<text transform="matrix(1 0 0 1 348.5273 399.7625)" style="fill:#8A1538; font-family:'MarselisPro'; font-size:7.4028px;">alah Mosque</text>
	<text transform="matrix(1 0 0 1 323.29 448.4089)" style="fill:#8A1538; font-family:'MarselisPro'; font-size:7.4028px;">Mu</text>
	<text transform="matrix(1 0 0 1 333.7861 448.4089)" style="fill:#8A1538; font-family:'MarselisPro'; font-size:7.4028px;">w</text>
	<text transform="matrix(1 0 0 1 339.423 448.4089)" style="fill:#8A1538; font-family:'MarselisPro'; font-size:7.4028px;">eilah Hypermarket</text>
	<text transform="matrix(1 0 0 1 781.4121 375.9666)" style="fill:#8A1538; font-family:'MarselisPro'; font-size:7.4028px;">Sharjah International Airport</text>
	<text transform="matrix(1 0 0 1 72.9746 165.2625)" style="fill:#8A1538; font-family:'MarselisPro'; font-size:7.4028px;">F</text>
	<text transform="matrix(1 0 0 1 76.667 165.2625)" style="fill:#8A1538; font-family:'MarselisPro'; font-size:7.4028px;">r</text>
	<text transform="matrix(1 0 0 1 79.1943 165.2625)" style="fill:#8A1538; font-family:'MarselisPro'; font-size:7.4028px;">om Dubai and Abu Dhabi</text>
	<text transform="matrix(1 0 0 1 72.9746 313.572)" style="fill:#8A1538; font-family:'MarselisPro'; font-size:7.4028px;">10 minutes to Mi</text>
	<text transform="matrix(1 0 0 1 127.2061 313.572)" style="fill:#8A1538; font-family:'MarselisPro'; font-size:7.4028px;">r</text>
	<text transform="matrix(1 0 0 1 129.9277 313.572)" style="fill:#8A1538; font-family:'MarselisPro'; font-size:7.4028px;">dif City Cent</text>
	<text transform="matrix(1 0 0 1 169.1934 313.572)" style="fill:#8A1538; font-family:'MarselisPro'; font-size:7.4028px;">r</text>
	<text transform="matrix(1 0 0 1 171.7189 313.572)" style="fill:#8A1538; font-family:'MarselisPro'; font-size:7.4028px;">e</text>
	<text transform="matrix(1 0 0 1 278.2189 508.4498)" style="fill:#8A1538; font-family:'MarselisPro'; font-size:7.4028px;">Uni</text>
	<text transform="matrix(1 0 0 1 289.4932 508.4498)" style="fill:#8A1538; font-family:'MarselisPro'; font-size:7.4028px;">v</text>
	<text transform="matrix(1 0 0 1 292.9922 508.4498)" style="fill:#8A1538; font-family:'MarselisPro'; font-size:7.4028px;">ersity </text>
	<text transform="matrix(1 0 0 1 313.208 508.4498)" style="fill:#8A1538; font-family:'MarselisPro'; font-size:7.4028px;">o</text>
	<text transform="matrix(1 0 0 1 317.0947 508.4498)" style="fill:#8A1538; font-family:'MarselisPro'; font-size:7.4028px;">f Sharjah</text>
	<text transform="matrix(1 0 0 1 621.7588 499.95)" style="fill:#8A1538; font-family:'MarselisPro'; font-size:7.4028px;">American Uni</text>
	<text transform="matrix(1 0 0 1 665.8838 499.95)" style="fill:#8A1538; font-family:'MarselisPro'; font-size:7.4028px;">v</text>
	<text transform="matrix(1 0 0 1 669.3828 499.95)" style="fill:#8A1538; font-family:'MarselisPro'; font-size:7.4028px;">ersity </text>
	<text transform="matrix(1 0 0 1 689.5978 499.95)" style="fill:#8A1538; font-family:'MarselisPro'; font-size:7.4028px;">o</text>
	<text transform="matrix(1 0 0 1 693.4855 499.95)" style="fill:#8A1538; font-family:'MarselisPro'; font-size:7.4028px;">f Sharjah</text>
	<text transform="matrix(1 0 0 1 645.1846 508.4489)" style="fill:#8A1538; font-family:'MarselisPro'; font-size:7.4028px;">&amp; Uni</text>
	<text transform="matrix(1 0 0 1 663.4562 508.4489)" style="fill:#8A1538; font-family:'MarselisPro'; font-size:7.4028px;">v</text>
	<text transform="matrix(1 0 0 1 667.1494 508.4489)" style="fill:#8A1538; font-family:'MarselisPro'; font-size:7.4028px;">ersity City</text>
	<text transform="matrix(1 0 0 1 579.5537 84.7126)" style="fill:#8A1538; font-family:'MarselisPro'; font-size:7.4028px;">Al Re</text>
	<text transform="matrix(1 0 0 1 596.4648 84.7126)" style="fill:#8A1538; font-family:'MarselisPro'; font-size:7.4028px;">f</text>
	<text transform="matrix(1 0 0 1 598.7969 84.7126)" style="fill:#8A1538; font-family:'MarselisPro'; font-size:7.4028px;">aa Park</text>
	<text transform="matrix(1 0 0 1 72.9746 294.0059)" style="fill:#8A1538; font-family:'MarselisPro'; font-size:7.4028px;">20 minutes to Dubai International Airport</text>
	<polygon id="Path-7" style="fill:#B4985A;fill-opacity:0.75;" points="444.3,190.2 445.3,328.2 587.1,328.2 584.6,237.7 
		534.7,237.7 533.7,190.8 	"/>
	<text transform="matrix(1 0 0 1 457.1416 355.7429)" style="fill:#8A1538; font-family:'MarselisPro'; font-size:7.4028px;">Al Zahia Sales Cent</text>
	<text transform="matrix(1 0 0 1 519.7324 355.7429)" style="fill:#8A1538; font-family:'MarselisPro'; font-size:7.4028px;">r</text>
	<text transform="matrix(1 0 0 1 522.4541 355.7429)" style="fill:#8A1538; font-family:'MarselisPro'; font-size:7.4028px;">e</text>
	<g>
		<g>
			
				<line style="fill:none;stroke:#8A1538;stroke-width:0.6803;stroke-miterlimit:10;" x1="392.6" y1="397.8" x2="412.2" y2="397.8"/>
			<g>
				<path style="fill:#8A1538;" d="M412.2,400.3c1.4,0,2.5-1.2,2.5-2.5c0-1.4-1.2-2.5-2.5-2.5c-1.4,0-2.5,1.2-2.5,2.5
					S410.7,400.3,412.2,400.3z"/>
			</g>
		</g>
	</g>
	<g>
		<g>
			
				<line style="fill:none;stroke:#8A1538;stroke-width:0.6803;stroke-miterlimit:10;" x1="361.9" y1="441.8" x2="361.9" y2="422.1"/>
			<g>
				<circle style="fill:#8A1538;" cx="361.9" cy="422.3" r="2.5"/>
			</g>
		</g>
	</g>
	<g>
		<g>
			
				<line style="fill:none;stroke:#8A1538;stroke-width:0.6803;stroke-miterlimit:10;" x1="392.6" y1="377.4" x2="424.6" y2="377.4"/>
			<g>
				<circle style="fill:#8A1538;" cx="424.6" cy="377.4" r="2.5"/>
			</g>
		</g>
	</g>
	<g>
		<g>
			
				<line style="fill:none;stroke:#8A1538;stroke-width:0.6803;stroke-miterlimit:10;" x1="392.6" y1="325.7" x2="431.3" y2="325.7"/>
			<g>
				<circle style="fill:#8A1538;" cx="431.3" cy="325.7" r="2.5"/>
			</g>
		</g>
	</g>
	<g>
		<g>
			
				<line style="fill:none;stroke:#8A1538;stroke-width:0.6803;stroke-miterlimit:10;" x1="392.6" y1="269.7" x2="431.3" y2="269.7"/>
			<g>
				<circle style="fill:#8A1538;" cx="431.3" cy="269.7" r="2.5"/>
			</g>
		</g>
	</g>
	<g>
		<g>
			<line style="fill:none;stroke:#8A1538;stroke-width:0.6803;stroke-miterlimit:10;" x1="598.5" y1="274" x2="553.3" y2="274"/>
			<g>
				<circle style="fill:#8A1538;" cx="553.3" cy="274" r="2.5"/>
			</g>
		</g>
	</g>
	<g>
		<g>
			<line style="fill:none;stroke:#8A1538;stroke-width:0.6803;stroke-miterlimit:10;" x1="392.6" y1="207.3" x2="427" y2="207.3"/>
			<g>
				<circle style="fill:#8A1538;" cx="426.8" cy="207.3" r="2.5"/>
			</g>
		</g>
	</g>
	<g>
		<g>
			
				<line style="fill:none;stroke:#8A1538;stroke-width:0.6803;stroke-miterlimit:10;" x1="491.7" y1="346.7" x2="491.7" y2="312.3"/>
			<g>
				<circle style="fill:#8A1538;" cx="491.7" cy="312.5" r="2.5"/>
			</g>
		</g>
	</g>
	<g>
		<g>
			
				<line style="fill:none;stroke:#8A1538;stroke-width:0.6803;stroke-miterlimit:10;" x1="828.6" y1="379.1" x2="828.6" y2="399.7"/>
			<g>
				<circle style="fill:#8A1538;" cx="828.6" cy="399.6" r="2.5"/>
			</g>
		</g>
	</g>
	<g>
		<g>
			
				<line style="fill:none;stroke:#8A1538;stroke-width:0.6803;stroke-miterlimit:10;" x1="672.1" y1="512.1" x2="672.1" y2="540.9"/>
			<g>
				<path style="fill:#8A1538;" d="M669.6,540.7c0,1.4,1.2,2.5,2.5,2.5c1.4,0,2.5-1.2,2.5-2.5c0-1.4-1.2-2.5-2.5-2.5
					C670.8,538.1,669.6,539.3,669.6,540.7z"/>
			</g>
		</g>
	</g>
	<g>
		<g>
			
				<line style="fill:none;stroke:#8A1538;stroke-width:0.6803;stroke-miterlimit:10;" x1="313.3" y1="512.1" x2="313.3" y2="540.9"/>
			<g>
				<circle style="fill:#8A1538;" cx="313.3" cy="540.7" r="2.5"/>
			</g>
		</g>
	</g>
	<g>
		<g>
			<line style="fill:none;stroke:#8A1538;stroke-width:0.6803;stroke-miterlimit:10;" x1="69.1" y1="311.7" x2="50.9" y2="311.7"/>
			<g>
				<polygon style="fill:#8A1538;" points="51.8,308.4 45.8,311.7 51.8,315 				"/>
			</g>
		</g>
	</g>
	<g>
		<g>
			<line style="fill:none;stroke:#8A1538;stroke-width:0.6803;stroke-miterlimit:10;" x1="69.1" y1="291.5" x2="50.9" y2="291.5"/>
			<g>
				<polygon style="fill:#8A1538;" points="51.8,288.2 45.8,291.5 51.8,295 				"/>
			</g>
		</g>
	</g>
	<g>
		<g>
			<line style="fill:none;stroke:#8A1538;stroke-width:0.6803;stroke-miterlimit:10;" x1="45.8" y1="163.9" x2="64.3" y2="163.9"/>
			<g>
				<polygon style="fill:#8A1538;" points="63.3,167.5 69.1,163.9 63.3,160.6 				"/>
			</g>
		</g>
	</g>
	<g>
		<g>
			<line style="fill:none;stroke:#8A1538;stroke-width:0.6803;stroke-miterlimit:10;" x1="467.6" y1="171" x2="467.6" y2="206.6"/>
			<g>
				<path style="fill:#8A1538;" d="M465.1,206.3c0,1.4,1.2,2.5,2.5,2.5c1.3,0,2.5-1.2,2.5-2.5s-1.2-2.5-2.5-2.5
					C466.2,203.8,465.1,205,465.1,206.3z"/>
			</g>
		</g>
	</g>
	<g>
		<g>
			
				<line style="fill:none;stroke:#8A1538;stroke-width:0.6803;stroke-miterlimit:10;" x1="520.5" y1="100.4" x2="520.5" y2="125.1"/>
			<g>
				<circle style="fill:#8A1538;" cx="520.5" cy="124.9" r="2.5"/>
			</g>
		</g>
	</g>
	<g>
		<g>
			<line style="fill:none;stroke:#8A1538;stroke-width:0.6803;stroke-miterlimit:10;" x1="601.5" y1="87.8" x2="601.5" y2="106.2"/>
			<g>
				<circle style="fill:#8A1538;" cx="601.5" cy="106" r="2.5"/>
			</g>
		</g>
	</g>
	<text transform="matrix(1 0 0 1 518.7168 189.6248)" style="fill:#3C3C3D; font-family:'MarselisPro-Bold'; font-size:5.2877px;">Sheikh Mohammed Bin Zayed Road</text>
	<g>
		<path id="Rectangle-Copy-2_1_" style="fill:#FFFFFF;" d="M600.7,264.1h52.5c1.4,0,2.7,1.2,2.7,2.7v13.8c0,1.4-1.2,2.7-2.7,2.7
			h-52.5c-1.4,0-2.7-1.2-2.7-2.7v-13.8C598.1,265.3,599.3,264.1,600.7,264.1z"/>
		<text transform="matrix(1 0 0 1 614.0254 272.2996)" style="fill:#8A1538; font-family:'MarselisPro-Bold'; font-size:7.4164px;">Al Zahia</text>
		
			<text transform="matrix(1 0 0 1 614.0254 279.7155)" style="fill:#8A1538; font-family:'MarselisPro-Light'; font-size:7.4164px;">Sharjah</text>
		<g>
			<path id="Path_4_" style="fill:#8A1538;" d="M606.1,269.9c-2.5,0-4.3,1.5-4.3,3.5v3.9h1.4c0,0,0-2.2,0-3.9c0-1.9,1.6-3.2,3.2-3.5
				c0.1,0,0.1,0,0.1,0H606.1L606.1,269.9z"/>
			<path id="Path_3_" style="fill:#8A1538;" d="M606.5,270c-0.1,0.1-0.3,0.1-0.5,0.3c-0.9,0.6-1.4,1.8-1.4,2.8c0,0.1,0,0.1,0,0.2
				l0,0v0.1v3.9h1.2v-3.9c0-0.3,0.1-0.5,0.3-0.6l0.5,0.6l0.5-0.6c0.2,0.1,0.3,0.4,0.3,0.6v3.9h1.2v-3.9c0-1.1-0.9-2.1-2-2.1
				c-0.3,0-0.5,0.1-0.7,0.1l0,0c0.3-0.3,0.6-0.5,1.1-0.5l0,0c0.1,0,0.3,0,0.4,0.1c1.1,0.2,1.9,1.1,1.9,2.3c0,0.1,0,0.1,0,0.1v3.8
				h1.2c0,0,0-3.8,0-3.9c0-1.7-0.9-3-2.6-3.5c-0.1,0-0.1-0.1-0.3-0.1c-0.1,0-0.3,0-0.4,0C606.9,269.9,606.7,270,606.5,270z"/>
		</g>
	</g>
	<g>
		<path id="Rectangle-Copy-2_3_" style="fill:#FFFFFF;" d="M441.4,151.9h52.5c1.4,0,2.7,1.2,2.7,2.7v13.8c0,1.4-1.2,2.7-2.7,2.7
			h-52.5c-1.4,0-2.7-1.2-2.7-2.7v-13.8C438.7,153.1,439.9,151.9,441.4,151.9z"/>
		<text transform="matrix(1 0 0 1 454.6523 160.1414)" style="fill:#8A1538; font-family:'MarselisPro-Bold'; font-size:7.4164px;">City Cent</text>
		<text transform="matrix(1 0 0 1 484.626 160.1414)" style="fill:#8A1538; font-family:'MarselisPro-Bold'; font-size:7.4164px;">r</text>
		<text transform="matrix(1 0 0 1 487.3994 160.1414)" style="fill:#8A1538; font-family:'MarselisPro-Bold'; font-size:7.4164px;">e</text>
		
			<text transform="matrix(1 0 0 1 454.6523 167.5579)" style="fill:#8A1538; font-family:'MarselisPro-Light'; font-size:7.4164px;">AL Zahia</text>
		<g>
			<path id="Path_6_" style="fill:#8A1538;" d="M446.8,157.8c-2.5,0-4.3,1.5-4.3,3.5v3.9h1.4c0,0,0-2.2,0-3.9c0-1.9,1.6-3.2,3.2-3.5
				c0.1,0,0.1,0,0.1,0H446.8L446.8,157.8z"/>
			<path id="Path_5_" style="fill:#8A1538;" d="M447.1,157.9c-0.1,0.1-0.3,0.1-0.5,0.3c-0.9,0.6-1.4,1.8-1.4,2.8c0,0.1,0,0.1,0,0.2
				l0,0v0.1v3.9h1.2v-3.9c0-0.3,0.1-0.5,0.3-0.6l0.5,0.6l0.5-0.6c0.2,0.1,0.3,0.4,0.3,0.6v3.9h1.2v-3.9c0-1.1-0.9-2.1-2-2.1
				c-0.3,0-0.5,0.1-0.7,0.1l0,0c0.3-0.3,0.6-0.5,1.1-0.5l0,0c0.1,0,0.3,0,0.4,0.1c1.1,0.2,1.9,1.1,1.9,2.3c0,0.1,0,0.1,0,0.1v3.8
				h1.2c0,0,0-3.8,0-3.9c0-1.7-0.9-3-2.6-3.5c-0.1,0-0.1-0.1-0.3-0.1c-0.1,0-0.3,0-0.4,0C447.5,157.8,447.3,157.8,447.1,157.9z"/>
		</g>
	</g>
	
		<g id="NorthPoint" transform="translate(1831.070256, 181.453972) rotate(50.000000) translate(-1831.070256, -181.453972) translate(1792.570256, 137.953972)">
		<path id="Fill-933" style="fill:#8A1538;" d="M-587.1,665.4l-2.1,6.2l-1.7-6.1L-587.1,665.4z M-592.6,665.5l3.5,10.6l3.4-10.5
			l-3.5-10.6L-592.6,665.5z M-587.1,665.4l-2.1,6.2l-1.7-6.1L-587.1,665.4z M-592.6,665.5l3.5,10.6l3.4-10.5l-3.5-10.6L-592.6,665.5
			z M-587.1,665.4l-2.1,6.2l-1.7-6.1L-587.1,665.4z M-589.2,676.1l3.4-10.5l-3.5-10.6l-3.4,10.5L-589.2,676.1z M-583.3,654.9
			c5.7,3.3,7.7,10.6,4.4,16.3c-3.3,5.7-10.6,7.7-16.3,4.4s-7.7-10.6-4.4-16.3C-596.4,653.6-589,651.7-583.3,654.9z M-596.6,677.9
			c7,4.1,15.9,1.7,20-5.4c4.1-7,1.6-15.8-5.4-19.9s-15.8-1.7-19.9,5.3C-606,665-603.6,673.9-596.6,677.9z M-587.1,665.4l-2.1,6.2
			l-1.7-6.1L-587.1,665.4z M-592.6,665.5l3.5,10.6l3.4-10.5l-3.5-10.6L-592.6,665.5z M-587.1,665.4l-2.1,6.2l-1.7-6.1L-587.1,665.4z
			 M-592.6,665.5l3.5,10.6l3.4-10.5l-3.5-10.6L-592.6,665.5z M-587.1,665.4l-2.1,6.2l-1.7-6.1L-587.1,665.4z M-592.6,665.5l3.5,10.6
			l3.4-10.5l-3.5-10.6L-592.6,665.5z M-587.1,665.4l-2.1,6.2l-1.7-6.1L-587.1,665.4z M-592.6,665.5l3.5,10.6l3.4-10.5l-3.5-10.6
			L-592.6,665.5z"/>
		<g id="Back-Copy-5_1_" transform="translate(34.000000, 0.000000)">
			<text transform="matrix(1 0 0 1 -625.6776 648.4607)" style="fill:#8A1538; font-family:'ArialMT'; font-size:7.4322px;">N</text>
		</g>
	</g>
</g>
</svg>
