<?xml version="1.0" encoding="utf-8"?>
<!-- Generator: Adobe Illustrator 19.1.0, SVG Export Plug-In . SVG Version: 6.00 Build 0)  -->
<svg version="1.1" id="app_x5F_UAE--parent" xmlns="http://www.w3.org/2000/svg" xmlns:xlink="http://www.w3.org/1999/xlink"
	 x="0px" y="0px" width="1024px" height="576px" viewBox="0 0 1024 576" style="enable-background:new 0 0 1024 576;"
	 xml:space="preserve" preserveAspectRatio="none">
	 
	 <image xlink:href="UAE-region-ipad.png" width="100%" height="100%" x="0" y="0" />


 <g id="app_x5_Dummy--marker">
 	<rect x="0" y="0" width="1" height="1"/>
 </g>
<g id="NorthPoint" transform="translate(1831.070256, 181.453972) rotate(56.000000) translate(-1831.070256, -181.453972) translate(1792.570256, 137.953972)">
	<path id="Fill-933_1_" style="fill:#8A1538;" d="M-461.9,760.5l4.1,5.2l-6-1.9L-461.9,760.5z M-464.8,765.2l10.7,2.8l-6.9-8.5
		l-10.7-2.8L-464.8,765.2z M-461.9,760.5l4.1,5.2l-6-1.9L-461.9,760.5z M-464.8,765.2l10.7,2.8l-6.9-8.5l-10.7-2.8L-464.8,765.2z
		 M-461.9,760.5l4.1,5.2l-6-1.9L-461.9,760.5z M-454.1,768l-6.9-8.5l-10.7-2.8l6.9,8.5L-454.1,768z M-468.6,751.5
		c5.9-2.9,13-0.5,15.9,5.4s0.5,13-5.4,15.9s-13,0.5-15.9-5.4C-476.9,761.6-474.5,754.5-468.6,751.5z M-456.8,775.3
		c7.3-3.6,10.1-12.5,6.6-19.5c-3.6-7.3-12.3-10-19.6-6.4c-7.3,3.6-10,12.4-6.6,19.5C-472.6,775.9-464,778.7-456.8,775.3z
		 M-461.9,760.5l4.1,5.2l-6-1.9L-461.9,760.5z M-464.8,765.2l10.7,2.8l-6.9-8.5l-10.7-2.8L-464.8,765.2z M-461.9,760.5l4.1,5.2
		l-6-1.9L-461.9,760.5z M-464.8,765.2l10.7,2.8l-6.9-8.5l-10.7-2.8L-464.8,765.2z M-461.9,760.5l4.1,5.2l-6-1.9L-461.9,760.5z
		 M-464.8,765.2l10.7,2.8l-6.9-8.5l-10.7-2.8L-464.8,765.2z M-461.9,760.5l4.1,5.2l-6-1.9L-461.9,760.5z M-464.8,765.2l10.7,2.8
		l-6.9-8.5l-10.7-2.8L-464.8,765.2z"/>
	<g id="Back-Copy-5_1_" transform="translate(34.000000, 0.000000)">

			<text transform="matrix(0.5505 -0.8348 0.8348 0.5505 -512.3218 755.0852)" style="fill:#8A1538; font-family:'ArialMT'; font-size:7.4026px;">N</text>
	</g>
</g>
<g>
	<g id="Map-ID-Grey" transform="translate(908.000000, 742.000000)">
		<polygon id="Fill-124" style="fill:#989898;" points="-420.1,-361.1 -420.1,-348.5 -415.8,-348.5 -413.8,-346.2 -411.6,-348.5
			-407.4,-348.5 -407.4,-361.1 		"/>
		<g id="Group" transform="translate(5.000000, 5.000000)">
			<path id="Path" style="fill:#FFFFFF;" d="M-419-363.2c-2,0-3.5,1.3-3.5,3.2v3.6h1.2c0,0,0-2,0-3.6c0-1.7,1.3-2.9,2.6-3.1
				c0.1,0,0.1,0,0.1,0L-419-363.2L-419-363.2z"/>
			<path id="Path_1_" style="fill:#FFFFFF;" d="M-418.8-363c-0.1,0.1-0.3,0.1-0.5,0.3c-0.9,0.5-1.3,1.6-1.4,2.6c0,0.1,0,0.1,0,0.2
				l0,0v0.1v3.6h1.2v-3.6c0-0.3,0.1-0.4,0.3-0.5l0.4,0.5l0.4-0.5c0.2,0.1,0.3,0.3,0.3,0.5v3.6h1.2v-3.6c0-1.1-0.9-1.9-1.9-1.9
				c-0.3,0-0.5,0.1-0.7,0.1l0,0c0.3-0.3,0.6-0.4,1-0.4l0,0c0.1,0,0.3,0,0.4,0c1.1,0.2,1.9,1.1,1.9,2.1c0,0.1,0,0.1,0,0.1v3.5h1.2
				v-3.5c0-1.5-0.9-2.8-2.5-3.1c-0.1,0-0.1-0.1-0.3-0.1c-0.1,0-0.3,0-0.4,0C-418.4-363.1-418.6-363.1-418.8-363z"/>
		</g>
	</g>
	<text transform="matrix(1 0 0 1 504.4438 390.0325)" style="fill:#989898; font-family:'MarselisPro'; font-size:9.0662px;">ABU DHABI</text>
</g>
<g>
	<g id="Map-ID-Grey_1_" transform="translate(1173.000000, 812.000000)">
		<polygon id="Fill-124_2_" style="fill:#989898;" points="-551.6,-395.8 -551.6,-383.2 -547.4,-383.2 -545.3,-380.9 -543.1,-383.2
			-538.9,-383.2 -538.9,-395.8 		"/>
		<g id="Group_2_" transform="translate(5.000000, 5.000000)">
			<path id="Path_4_" style="fill:#FFFFFF;" d="M-550.5-397.9c-2,0-3.5,1.3-3.5,3.2v3.6h1.2c0,0,0-2,0-3.6c0-1.7,1.3-2.9,2.6-3.1
				c0.1,0,0.1,0,0.1,0L-550.5-397.9L-550.5-397.9z"/>
			<path id="Path_5_" style="fill:#FFFFFF;" d="M-550.3-397.7c-0.1,0.1-0.3,0.1-0.5,0.3c-0.9,0.5-1.3,1.6-1.4,2.6c0,0.1,0,0.1,0,0.2
				l0,0v0.1v3.6h1.2v-3.6c0-0.3,0.1-0.4,0.3-0.5l0.4,0.5l0.4-0.5c0.2,0.1,0.3,0.3,0.3,0.5v3.6h1.2v-3.6c0-1.1-0.9-1.9-1.9-1.9
				c-0.3,0-0.5,0.1-0.7,0.1l0,0c0.3-0.3,0.6-0.4,1-0.4l0,0c0.1,0,0.3,0,0.4,0c1.1,0.2,1.9,1.1,1.9,2.1c0,0.1,0,0.1,0,0.1v3.5h1.2
				v-3.5c0-1.5-1-2.7-2.5-3.1c-0.1,0-0.1-0.1-0.3-0.1c-0.1,0-0.3,0-0.4,0C-549.9-397.9-550.1-397.8-550.3-397.7z"/>
		</g>
	</g>
	<text transform="matrix(1 0 0 1 638.5044 425.2898)" style="fill:#989898; font-family:'MarselisPro'; font-size:9.0662px;">AL AIN</text>
</g>
<g>
	<g id="Map-ID-Grey_2_" transform="translate(1232.000000, 373.000000)">
		<polygon id="Fill-124_4_" style="fill:#989898;" points="-580.9,-178 -580.9,-165.3 -576.7,-165.3 -574.6,-163 -572.5,-165.3
			-568.2,-165.3 -568.2,-178 		"/>
		<g id="Group_4_" transform="translate(5.000000, 5.000000)">
			<path id="Path_8_" style="fill:#FFFFFF;" d="M-579.8-180c-2,0-3.5,1.3-3.5,3.2v3.6h1.2c0,0,0-2,0-3.6c0-1.7,1.3-2.9,2.5-3.1
				c0.1,0,0.1,0,0.1,0L-579.8-180L-579.8-180L-579.8-180z"/>
			<path id="Path_9_" style="fill:#FFFFFF;" d="M-579.7-179.9c-0.1,0.1-0.3,0.1-0.5,0.2c-0.9,0.5-1.3,1.6-1.3,2.6c0,0.1,0,0.1,0,0.2
				l0,0v0.1v3.6h1.2v-3.6c0-0.3,0.1-0.4,0.3-0.5l0.4,0.5l0.4-0.5c0.2,0.1,0.3,0.3,0.3,0.5v3.6h1.1v-3.6c0-1.1-0.9-1.9-1.9-1.9
				c-0.3,0-0.5,0.1-0.7,0.1l0,0c0.3-0.3,0.6-0.4,1-0.4l0,0c0.1,0,0.3,0,0.4,0c1.1,0.2,1.9,1.1,1.9,2.1c0,0.1,0,0.1,0,0.1v3.5h1.2
				v-3.5c0-1.5-0.9-2.8-2.5-3.1c-0.1,0-0.1-0.1-0.3-0.1c-0.1,0-0.3,0-0.4,0C-579.2-180-579.4-179.9-579.7-179.9z"/>
		</g>
	</g>
	<text transform="matrix(1 0 0 1 667.042 204.1744)" style="fill:#989898; font-family:'MarselisPro'; font-size:9.0662px;">RAS AL-KHAIMAH</text>
</g>
<g id="app_x5F_Dubai--button">
	<g transform="translate(1032.000000, 577.000000)">
		<polygon id="Fill-124_1_" style="fill:#8A1538;" points="-481.6,-279.2 -481.6,-266.5 -477.4,-266.5 -475.3,-264.3 -473.1,-266.5
			-468.9,-266.5 -468.9,-279.2 		"/>
		<g id="Group_1_" transform="translate(5.000000, 5.000000)">
			<path id="Path_2_" style="fill:#FFFFFF;" d="M-480.6-281.3c-2,0-3.5,1.3-3.5,3.2v3.6h1.2c0,0,0-2,0-3.6c0-1.7,1.3-2.9,2.6-3.1
				c0.1,0,0.1,0,0.1,0L-480.6-281.3L-480.6-281.3z"/>
			<path id="Path_3_" style="fill:#FFFFFF;" d="M-480.3-281.1c-0.1,0.1-0.3,0.1-0.5,0.3c-0.9,0.5-1.3,1.6-1.4,2.6c0,0.1,0,0.1,0,0.2
				l0,0v0.1v3.6h1.2v-3.6c0-0.3,0.1-0.4,0.3-0.5l0.4,0.5l0.4-0.5c0.2,0.1,0.3,0.3,0.3,0.5v3.6h1.2v-3.6c0-1.1-0.9-1.9-1.9-1.9
				c-0.3,0-0.5,0.1-0.7,0.1l0,0c0.3-0.3,0.6-0.4,1-0.4l0,0c0.1,0,0.3,0,0.4,0c1.1,0.2,1.9,1.1,1.9,2.1c0,0.1,0,0.1,0,0.1v3.5h1.2
				v-3.5c0-1.5-0.9-2.8-2.5-3.1c-0.1,0-0.1-0.1-0.3-0.1c-0.1,0-0.3,0-0.4,0C-479.9-281.3-480.1-281.2-480.3-281.1z"/>
		</g>
	</g>
	<rect id="app_x5F_Dubai--tap" x="546.9" y="294.9" style="fill:#FFFFFF;fill-opacity:0;" width="20" height="20"/>
	<text transform="matrix(1 0 0 1 567.4868 306.9254)" style="fill:#8A1538; font-family:'MarselisPro'; font-size:9.0662px;">DUBAI</text>
	<path id="Line-4-Copy-3" style="fill:none;stroke:#8A1538;stroke-width:1.1784;" d="M550.4,304.3h-38.9"/>
	<g>
		<g>
			<path d="M472.1,295c0.1,0.2,0.2,0.3,0.5,0.3h2.1l-0.8,1.3h-2.6l-0.1-5.3c0,0,0.1-0.2,0.4-0.6c0.2-0.3,0.4-0.5,0.5-0.6
				C472,290.9,471.9,294.7,472.1,295 M481.1,292l0.1,4.7c0.4-0.2,0.9-0.2,1-1.1c0.1-0.8,0.1-3-0.1-4.8
				C481.5,291.5,481.4,291.5,481.1,292 M500.1,292.3l-0.8,1.4c0.4,0.5,0.7,0.9,0.8,1.4l0,0c0.1,0.4,0.2,0.7,0.2,1.3
				c-0.1-0.5-0.3-0.9-0.4-1h-2.2c-0.2,0-0.3-0.1-0.3-0.2c-0.1-0.5-0.2-1.1-0.3-1.9c-0.1-0.6-0.1-1.3-0.1-1.9
				c-0.1-0.5-0.1-0.9-0.2-1.2c-0.2,0.2-0.3,0.3-0.5,0.5c-0.2,0.3-0.2,0.5-0.2,0.7c0,0.7,0,1.2-0.1,1.5c-0.1,0.5-0.3,1-0.5,1.4
				c-0.1,0.1-0.1,0.2-0.2,0.3v0.1v0.1c0,0.2,0,0.6-0.2,0.9l-0.1,0.1v-0.1c0.1-0.8-0.5-2.7-1.1-3.5c-0.5-0.7-1.4-1.4-2.1-1.7
				c-0.2,0.7-0.3,1.2-0.3,1.8c0,0.2,1.4,1.1,1.5,1.1l0.3-0.1h0.1c1,0.9,1.2,1.8,1.2,1.9c0,0.3-0.6,0.7-1.8,1.3l-2.3,0.9
				c0,0-0.1,0-0.1,0.1s0.1,0,0.1,0h0.5c2.4,0,3.9-0.4,4.5-1.7c0.3-0.6,0.4-1.2,0.5-1.5l0.1-0.1l0.1,0.1c0.1,0.3,0.2,0.8,0.2,1.3
				c0,0.4,0.1,0.7,0.1,1.1h4.1c0.3-1,0.5-1.5,0.5-2C501.2,293.8,500.8,293,500.1,292.3 M479.4,290.6c-0.1-0.2-0.2-0.4-0.2-0.5
				c-0.3,0.3-0.5,0.7-0.8,1.3c-0.1,0.2-0.1,0.3,0.1,0.4c0.1,0.1,0.3,0.2,0.3,0.2l0,0c0.1,0.2,0.2,2.8,0.2,3l0,0c0,0.4,0,0.6-0.2,1.2
				c0-0.4-0.1-0.7-0.2-1h-2.2v-0.1c0-0.1,0.1-0.1,0.3-0.4c0.1-0.2,0.2-0.5,0.2-0.6c0-0.4-0.2-0.6-0.5-0.9c-0.4-0.3-0.6-0.4-1-0.3
				c-0.5,0-0.7,0.2-1.1,0.5c-0.2,0.2-0.4,0.6-0.7,1.2c0.4-0.1,0.4-0.1,0.4-0.1c0.5,0,0.9,0.2,1.2,0.6c0.1,0.1,0.9,1.1,1,1.4h3.1
				c0.1,0,0.2-0.1,0.2-0.1c0.1-0.1,0.1-0.1,0.3-0.7c0.1-0.5,0.1-0.7,0.1-0.9l0.1-2.4l0.5-1C480.1,291.4,479.4,290.7,479.4,290.6
				 M490.4,291.4c-0.3-0.2-0.9-0.8-1-1c-0.1-0.2-0.2-0.4-0.2-0.5c-0.3,0.3-0.5,0.7-0.8,1.3c-0.1,0.2-0.1,0.3,0.1,0.4
				c0.1,0.1,0.3,0.2,0.3,0.2l0,0c0.1,0.2,0.4,2.6,0.5,2.9c0,0.1,0.1,0.3,0.1,0.5c0.1,0.4,0.1,0.8-0.3,1.5c0.1-0.3,0.1-0.6,0.1-0.8
				c-0.2,0.1-0.4,0.2-0.6,0.2c-0.5,0.1-0.9,0.2-1.2,0.2c-0.4,0-0.7-0.1-1.1-0.3c-0.4-0.3-0.5-0.6-0.5-1c0-0.2,0.1-0.4,0.3-0.9
				c0.1-0.1,0.1-0.1,0-0.1l0,0l0,0c-0.1,0-0.4,0.3-0.6,0.7c-0.3,0.6-0.3,1-0.3,1.4c0,0.5,0.2,0.8,0.6,1.1c0.3,0.3,0.8,0.4,1.3,0.4
				c0.7,0,1.4-0.2,2-0.6c0.6-0.4,0.9-0.9,1.1-1.5c0.1-0.1,0.2-0.4,0.2-0.9l-0.3-2.5L490.4,291.4z M468.7,293.8c0,0-0.4-0.5-0.6-0.7
				c-0.2-0.2-0.3-0.2-0.4-0.2c-0.2,0-0.3,0.1-0.5,0.3c0,0,0,0,0,0.1c0,0.7,0.9,0.9,1.3,0.6L468.7,293.8z M469.5,293
				c0.3,0.8,0.4,1.2,0.4,2l-0.3,1.7h-6.3c-0.4,0-0.8,0-1.1-0.3c-0.3-0.3-0.5-0.7-0.5-1.2c0-0.3,0.1-0.7,0.2-1.2
				c0.2-0.5,0.3-0.9,0.5-1c0.1,0,0.1,0.1,0.1,0.1c0,0.1-0.1,0.3-0.1,0.5s-0.1,0.4-0.1,0.5c0,0.3,0.1,0.6,0.3,0.9
				c0.2,0.3,0.5,0.4,0.9,0.4h5.2c0.1,0.3,0.2,0.7,0.3,1.1c0.1-0.4,0.1-0.9,0-1.2l0,0c0-0.1-0.1-0.3-0.1-0.5
				c-0.1-0.4-0.2-0.7-0.2-0.7l-0.1,0.1c-0.3,0.4-0.8,0.9-1.3,0.9c-0.3,0-0.5-0.1-0.7-0.2c-0.3-0.2-0.4-0.4-0.4-0.6
				c0-0.4,0.3-0.9,0.7-1.5c0.5-0.5,1-0.9,1.4-0.9C468.7,291.7,469.2,292.2,469.5,293 M465.9,291.1l0.8,0.8l0.8-0.8l-0.8-0.8
				L465.9,291.1z M474.6,291.4l0.8,0.8l0.8-0.8l-0.8-0.8L474.6,291.4z M497.4,290.9l0.8,0.8l0.8-0.8l-0.8-0.8L497.4,290.9z
				 M498.9,290.9l0.8,0.8l0.8-0.8l-0.8-0.8L498.9,290.9z M496.2,301.9c-0.7,0-1.2,0.4-1.5,0.9l0,0v-2.7l-1.3,0.2v6.4h1.3v-3.6l0,0
				c0.2-0.1,0.4-0.2,0.6-0.2c0.6,0,0.9,0.4,0.9,1.1l0,0v2.7h1.3v-3.2C497.5,302.4,497,301.9,496.2,301.9 M480.3,306.6h1.5l-2.5-6.6
				l-0.9,0.1l-2.6,6.5h0.8l0.6-1.5h1.4l-0.1-0.6h-1.1l1.1-2.7L480.3,306.6z M464.9,306.6h1.3V300l-1.3,0.2V306.6z M472.3,306.6h1.3
				V300l-1.3,0.2V306.6z M456.4,301h1.8l0,0v5.6h1.4V301l0,0h1.8v-0.7h-5V301L456.4,301z M462.1,300.6l0.8,0.8l0.8-0.8l-0.8-0.8
				L462.1,300.6z M462.2,306.6h1.3V302l-1.3,0.2V306.6z M482.7,306.6h1.3V300l-1.3,0.2V306.6z M490.7,305.5c-0.3,0.2-0.5,0.3-1,0.3
				c-1.1,0-2.1-1.1-2.1-2.9c0-1.3,0.7-2.1,1.7-2.1c0.7,0,1.4,0.5,1.4,1.3l1.4-0.2c-0.1-1.2-1.3-1.8-2.6-1.8c-1.7,0-3.3,1.2-3.3,3.4
				c0,2,1.3,3.2,2.7,3.2c0.9,0,1.4-0.4,1.8-1v0.9h1.4v-2.9l-1.4,0.2V305.5L490.7,305.5z M500.6,301.9c-0.5,0-0.9,0.1-1.2,0.3
				c-0.4,0.3-0.6,0.6-0.7,1.2c0.3-0.3,0.9-0.6,1.3-0.6c0.6,0,1.1,0.3,1.1,1v0.7v1c-0.2,0.2-0.5,0.2-0.7,0.2c-0.5,0-0.7-0.3-0.7-0.7
				s0.2-0.7,0.2-0.7c-0.9,0.3-1.3,0.8-1.3,1.4c0,0.5,0.4,1,1.1,1c0.6,0,1.2-0.4,1.5-1v0.9h1.2v-2.9
				C502.3,302.7,501.8,301.9,500.6,301.9 M469.3,301.9c-0.5,0-0.9,0.1-1.2,0.3c-0.4,0.3-0.6,0.6-0.7,1.2c0.3-0.3,0.9-0.6,1.3-0.6
				c0.6,0,1.1,0.3,1.1,1v0.7v1c-0.2,0.2-0.5,0.2-0.7,0.2c-0.5,0-0.7-0.3-0.7-0.7s0.2-0.7,0.2-0.7c-0.9,0.3-1.3,0.8-1.3,1.4
				c0,0.5,0.4,1,1.1,1c0.6,0,1.2-0.4,1.5-1v0.9h1.2v-2.9C471.1,302.7,470.5,301.9,469.3,301.9 M505.2,302v-0.2c0-0.7,0.3-1,0.8-1
				c0.2,0,0.3,0,0.5,0.1c-0.1-0.5-0.5-0.8-1.1-0.8c-1,0-1.4,0.7-1.4,1.5v0.3h-0.7v0.7h0.7v3.9h1.3v-3.9h1.4v-0.7L505.2,302
				L505.2,302z M463.6,312.3c0.7,0,1.2-0.6,1.2-1.2c0-0.6-0.4-1.2-1.1-1.2h-0.5v2.3L463.6,312.3 M463.7,309.6c1,0,1.5,0.7,1.5,1.5
				s-0.5,1.6-1.5,1.6h-0.9v-3.1H463.7 M469,309.6h-0.4v1.9c0,0.4-0.2,0.9-0.7,0.9s-0.7-0.4-0.7-0.9v-1.9h-0.4v2
				c0,0.7,0.4,1.2,1.2,1.2c0.7,0,1.2-0.5,1.2-1.2L469,309.6L469,309.6z M472,312.3c0.4,0,0.5-0.3,0.5-0.5c0-0.3-0.2-0.5-0.6-0.5H471
				v1.1L472,312.3 M471.1,310.9h0.7c0.3,0,0.5-0.2,0.5-0.5c0-0.2-0.2-0.5-0.5-0.5h-0.7V310.9L471.1,310.9z M472.4,311
				c0.4,0.1,0.6,0.4,0.6,0.7c0,0.4-0.3,0.9-1.1,0.9h-1.2v-3.1h1.1c0.6,0,0.9,0.4,0.9,0.7C472.8,310.6,472.7,310.9,472.4,311
				 M478.8,312.7h0.4v-3.1h-0.4C478.8,309.6,478.8,312.7,478.8,312.7z M476.5,311.6l-0.6-1.5l-0.6,1.5H476.5z M477.4,312.7H477
				l-0.3-0.8h-1.6l-0.3,0.8h-0.4l1.4-3.1h0.4L477.4,312.7z M498.4,310.3c1.2,0,1.8,0.6,1.8,2.3h-2.7l0.2-0.4h2.1
				c-0.1-1.1-0.5-1.5-1.4-1.5h-0.3l0.2-0.4L498.4,310.3L498.4,310.3z M495.8,312.3v-1.9l0.4-0.1v2.3h-5l-0.1-0.4
				C491.1,312.3,495.8,312.3,495.8,312.3z M488.7,312.7v-2h-1.5c-0.7,0-1,0.2-1,0.5c0,0.2,0.1,0.3,0.3,0.4l0.4,0.2
				c0.3,0.2,0.5,0.4,0.5,0.7c0,0.5-0.6,1-1.8,1c-1.3,0-1.9-0.5-1.9-1.9v-0.4h0.4v0.3c0,1.2,0.4,1.5,1.5,1.5c1,0,1.4-0.2,1.4-0.5
				c0-0.2-0.1-0.3-0.4-0.4l-0.3-0.2c-0.3-0.2-0.5-0.4-0.5-0.7c0-0.5,0.4-0.9,1.3-0.9h1.9v2h2.2v0.4L488.7,312.7L488.7,312.7z
				 M496,312.9l0.3,0.3l-0.3,0.3l-0.3-0.3L496,312.9z M485.3,313.6l0.3,0.3l-0.3,0.3l-0.3-0.3L485.3,313.6z M485.8,313.6l0.3,0.3
				l-0.3,0.3l-0.3-0.3L485.8,313.6z"/>
		</g>
		<g>
			<path d="M483.7,282.7v3.5h3.6v-3.7c-0.7,0.2-1.4,0.3-2.1,0.3L483.7,282.7L483.7,282.7z"/>
			<path d="M485.1,270.5c-1-0.8-2.3-1.3-3.7-1.3c-0.7,0-1.5,0.2-2.2,0.4l0,0c0.7-0.9,1.9-1.3,3.1-1.3l0,0c0.4,0,0.8,0,1.2,0.1
				c1.5,0.3,2.9,1,3.9,2.1c1.7,0,3.1,0,4.3,0c-1.2-2.5-3.5-4.3-6.6-5c-0.2-0.1-0.5-0.1-0.7-0.1c-0.4-0.1-0.7-0.1-1.1-0.1
				c-0.8,0-1.3,0.2-2,0.4c-0.5,0.2-1,0.4-1.6,0.7c-1.6,1-2.7,2.5-3.4,4.2c0.4-0.1,0.9-0.1,1.3-0.1
				C479.5,270.5,482.3,270.5,485.1,270.5z"/>
			<path d="M491.5,279.9c-0.7,0.7-1.4,1.2-2.2,1.7v4.5h3.6c0,0,0-4.7,0-7.9C492.5,278.8,492,279.4,491.5,279.9z"/>
			<path d="M486.5,272.2c-3.2,0-6.7,0-8.9,0c-0.6,0-1.2,0.1-1.8,0.3c-0.2,0.7-0.2,1.4-0.3,2.1c0,0.2,0,0.4,0,0.5l0,0
				c0,0,0,0.1,0,0.2v5.9h3.6v-5.9c0-0.7,0.3-1.3,0.8-1.7l1.4,1.7l1.4-1.7c0.5,0.4,0.8,1,0.8,1.7v5.9h1.5c0.7,0,1.4-0.1,2.1-0.4v-5.5
				C487.3,274,487,273,486.5,272.2z"/>
			<path d="M488.6,272.2c0.4,0.9,0.6,1.8,0.6,2.8c0,0.1,0,0.3,0,0.4v4.4c0.4-0.3,0.7-0.5,1.1-0.9c1.2-1.2,2.1-2.8,2.6-4.6
				c-0.1-0.7-0.2-1.4-0.4-2C491.5,272.2,490.1,272.2,488.6,272.2z"/>
			<path d="M470,286.1h3.6c0,0,0-1.4,0-3.5H470V286.1z"/>
			<path d="M473.8,273.3c-1.8,1.2-3.1,3.1-3.8,5.6v2.1h3.6c0-1.9,0-4.1,0-6C473.7,274.4,473.7,273.9,473.8,273.3z"/>
			<rect x="475.6" y="282.7" width="3.6" height="3.5"/>
			<path d="M474.4,271.1c1.3-3.1,4.3-5.3,7.1-5.9c0.2-0.1,0.4-0.1,0.2-0.1h-1.1c-6.2,0-10.6,4.2-10.7,9.7
				C471.1,273.2,472.6,271.8,474.4,271.1z"/>
			<path style="fill:#5E6738;" d="M485.2,281h-1.5v1.7h1.5c0.7,0,1.4-0.1,2.1-0.3v-1.7C486.6,280.9,485.9,281,485.2,281z"/>
			<path style="fill:#5E6738;" d="M492.9,278.2c0-1.7,0-3,0-3c0-0.3,0-0.7-0.1-1c-0.4,1.8-1.3,3.4-2.6,4.6c-0.3,0.3-0.7,0.6-1.1,0.9
				v1.9c0.8-0.4,1.5-1,2.2-1.7C492,279.4,492.5,278.8,492.9,278.2z"/>
			<path style="fill:#5E6738;" d="M470,281v1.7h3.6c0-0.5,0-1.1,0-1.7H470z"/>
			<rect x="475.6" y="281" style="fill:#5E6738;" width="3.6" height="1.7"/>
			<path style="fill:#5E6738;" d="M470,278.9c0.6-2.4,2-4.4,3.8-5.6c0.1-0.7,0.4-1.5,0.6-2.2c-1.8,0.7-3.3,2-4.4,3.7
				c0,0.1,0,0.1,0,0.2V278.9L470,278.9z"/>
			<path style="fill:#5E6738;" d="M477.7,272.2c2.2,0,5.7,0,8.9,0c-0.4-0.6-0.9-1.2-1.4-1.7c-2.8,0-5.6,0-7.5,0
				c-0.4,0-0.9,0.1-1.3,0.1c-0.2,0.6-0.4,1.2-0.5,1.8C476.4,272.2,477,272.2,477.7,272.2z"/>
			<path style="fill:#5E6738;" d="M488.6,272.2c1.5,0,2.9,0,3.8,0c-0.2-0.6-0.4-1.1-0.6-1.7c-1.2,0-2.7,0-4.3,0
				C487.9,271,488.3,271.5,488.6,272.2z"/>
		</g>
	</g>
	<polygon style="fill:#FFFFFF;fill-opacity:0;" points="563.1,297.8 563,313.2 456.4,313.2 456.4,265.2 503.2,265.2 550.4,297.8
		"/>
</g>
<g id="app_x5F_Sharjah--button">
	<g transform="translate(1066.000000, 527.000000)">
		<polygon id="Fill-124_3_" style="fill:#8A1538;" points="-496.7,-257.1 -496.7,-244.4 -492.5,-244.4 -490.4,-242.2 -488.3,-244.4
			-484,-244.4 -484,-257.1 		"/>
		<g id="Group_3_" transform="translate(5.000000, 5.000000)">
			<path id="Path_6_" style="fill:#FFFFFF;" d="M-495.6-259.2c-2,0-3.5,1.3-3.5,3.2v3.6h1.2c0,0,0-2,0-3.6c0-1.7,1.3-2.9,2.5-3.1
				c0.1,0,0.1,0,0.1,0L-495.6-259.2L-495.6-259.2z"/>
			<path id="Path_7_" style="fill:#FFFFFF;" d="M-495.4-258.9c-0.1,0.1-0.3,0.1-0.5,0.3c-0.9,0.5-1.3,1.6-1.3,2.6c0,0.1,0,0.1,0,0.2
				l0,0v0.1v3.6h1.2v-3.6c0-0.3,0.1-0.4,0.3-0.5l0.4,0.5l0.4-0.5c0.2,0.1,0.3,0.3,0.3,0.5v3.6h1.2v-3.6c0-1.1-0.9-1.9-1.9-1.9
				c-0.3,0-0.5,0.1-0.7,0.1l0,0c0.3-0.3,0.6-0.4,1-0.4l0,0c0.1,0,0.3,0,0.4,0c1.1,0.2,1.9,1.1,1.9,2.1c0,0.1,0,0.1,0,0.1v3.5h1.2
				v-3.5c0-1.5-0.9-2.8-2.5-3.1c-0.1,0-0.1-0.1-0.3-0.1c-0.1,0-0.3,0-0.4,0C-495-259-495.2-259-495.4-258.9z"/>
		</g>
	</g>
	<rect id="app_x5F_Sharjah--tap" x="565.8" y="266.7" style="fill:#FFFFFF;fill-opacity:0;" width="20" height="20"/>
	<text transform="matrix(1 0 0 1 586.479 279.0749)" style="fill:#8A1538; font-family:'MarselisPro'; font-size:9.0662px;">SHARJAH</text>
	<path id="Line-4-Copy-5" style="fill:none;stroke:#8A1538;stroke-width:1.1784;" d="M575.4,270.2V237"/>
	<g>
		<g id="XMLID_211_">
			<path id="XMLID_224_" style="fill:#001C71;" d="M562.9,224.6c-0.5,0.5-1.1,0.8-1.8,0.8c-0.6,0-1.2-0.3-1.7-0.7s-0.7-1.1-0.7-1.7
				c0-0.7,0.3-1.3,0.7-1.8c0.5-0.5,1.1-0.7,1.8-0.7s1.3,0.3,1.8,0.7c0.5,0.5,0.7,1.1,0.7,1.8v2.4h-0.8V224.6L562.9,224.6
				L562.9,224.6z M562.9,222.9c0-0.5-0.2-0.9-0.5-1.2c-0.3-0.3-0.7-0.5-1.2-0.5s-0.9,0.2-1.2,0.5s-0.5,0.7-0.5,1.2s0.2,0.9,0.5,1.2
				s0.7,0.5,1.2,0.5s0.9-0.2,1.2-0.5C562.8,223.8,562.9,223.4,562.9,222.9"/>
			<rect id="XMLID_223_" x="564.9" y="218.5" style="fill:#001C71;" width="0.8" height="6.8"/>
			<polygon id="XMLID_222_" style="fill:#001C71;" points="571.7,221.3 569.2,221.3 569.2,220.5 573.2,220.5 570.6,224.5
				573.2,224.5 573.2,225.3 569.2,225.3 			"/>
			<path id="XMLID_219_" style="fill:#001C71;" d="M577.9,224.6c-0.5,0.5-1.1,0.8-1.8,0.8c-0.6,0-1.2-0.3-1.7-0.7
				c-0.5-0.5-0.7-1.1-0.7-1.7c0-0.7,0.3-1.3,0.7-1.8c0.5-0.5,1.1-0.7,1.8-0.7s1.3,0.3,1.8,0.7c0.5,0.5,0.7,1.1,0.7,1.8v2.4h-0.8
				V224.6L577.9,224.6L577.9,224.6z M577.9,222.9c0-0.5-0.2-0.9-0.5-1.2c-0.3-0.3-0.7-0.5-1.2-0.5s-0.9,0.2-1.2,0.5
				s-0.5,0.7-0.5,1.2s0.2,0.9,0.5,1.2c0.3,0.3,0.7,0.5,1.2,0.5c0.4,0,0.9-0.2,1.2-0.5C577.8,223.8,577.9,223.4,577.9,222.9"/>
			<path id="XMLID_218_" style="fill:#001C71;" d="M583.2,222.6c0-0.4-0.1-0.6-0.4-0.9s-0.5-0.4-0.9-0.4c-0.3,0-0.6,0.1-0.9,0.4
				s-0.4,0.5-0.4,0.9v2.8h-0.8v-6.8h0.8v2.6c0.4-0.4,0.9-0.6,1.4-0.6s1,0.2,1.4,0.6c0.4,0.4,0.5,0.9,0.5,1.4v2.8h-0.8L583.2,222.6
				L583.2,222.6z"/>
			<path id="XMLID_215_" style="fill:#001C71;" d="M585.4,218.9h0.8v0.8h-0.8V218.9z M585.4,220.5h0.8v4.8h-0.8V220.5z"/>
			<path id="XMLID_212_" style="fill:#001C71;" d="M591.3,224.6c-0.5,0.5-1.1,0.8-1.8,0.8c-0.6,0-1.2-0.3-1.7-0.7s-0.7-1.1-0.7-1.7
				c0-0.7,0.3-1.3,0.7-1.8c0.5-0.5,1.1-0.7,1.8-0.7c0.7,0,1.3,0.3,1.8,0.7c0.5,0.5,0.7,1.1,0.7,1.8v2.4h-0.8V224.6L591.3,224.6
				L591.3,224.6z M591.3,222.9c0-0.5-0.2-0.9-0.5-1.2c-0.3-0.3-0.7-0.5-1.2-0.5s-0.9,0.2-1.2,0.5s-0.5,0.7-0.5,1.2s0.2,0.9,0.5,1.2
				c0.3,0.3,0.7,0.5,1.2,0.5s0.9-0.2,1.2-0.5C591.1,223.8,591.3,223.4,591.3,222.9"/>
		</g>
		<path id="XMLID_198_" style="fill:#001C71;" d="M561,209.7h-0.8v0.8h0.8V209.7z M589.2,214.2c0,0.3-0.1,0.6-0.4,0.9
			s-0.5,0.4-0.9,0.4h-3.1v-2.7H584v3.7c0,0.4-0.1,0.6-0.4,0.9s-0.5,0.4-0.9,0.4v0.8c0.5,0,1.1-0.2,1.5-0.6c0.4-0.4,0.6-0.9,0.6-1.4
			v-0.2h3.3l0,0c0.5,0,0.9-0.3,1.3-0.6c0.4-0.4,0.6-0.9,0.6-1.4v-4.7h-0.8V214.2L589.2,214.2L589.2,214.2z M567.6,217.8h0.8V217
			h-0.8V217.8z M562.2,209.7h-0.8v0.8h0.8V209.7z M584.8,211.1H584v0.8h0.8V211.1z M568.7,217.8h0.8V217h-0.8V217.8z M576.6,211.4
			c-0.1,0-0.2-0.1-0.4-0.1c-0.1-0.1-0.2-0.1-0.4-0.1c-0.2,0-0.3-0.1-0.5-0.1c-0.1,0-0.1,0-0.2,0c-0.3,0-0.6,0.1-0.9,0.1
			c-0.3,0.1-0.5,0.2-0.8,0.4v0.9c0.2-0.2,0.5-0.4,0.8-0.5s0.6-0.2,0.9-0.2h0.1l0,0c0.8-0.1,1.4,0.4,1.4,0.4c0.7,0.4,1.3,1.3,1.3,2.6
			c0,0.2,0,0.4-0.1,0.6h-1.5c0.2-0.3,0.4-0.6,0.4-1c0-0.5-0.2-0.9-0.5-1.2c-0.3-0.3-0.7-0.5-1.2-0.5c-0.4,0-0.9,0.2-1.2,0.5
			c-0.3,0.3-0.5,0.7-0.5,1.2c0,0.4,0.2,0.7,0.4,1.1h-3.8c-0.3,0-0.4-0.1-0.7-0.3c-0.2-0.2-0.4-0.5-0.4-0.7c0,0,0,0.1,0,0v-2.8H568
			c0,0,0,2.7,0,2.8c0,0.3-0.2,0.5-0.4,0.7c-0.3,0.3-0.5,0.3-0.9,0.3h-2.1l0,0c-0.3,0-0.5-0.1-0.7-0.3c-0.2-0.2-0.3-0.4-0.3-0.7v-0.1
			c0,0,0-0.3,0-0.4v-0.2c0-0.7-0.3-1.3-0.7-1.8c-0.4-0.5-1.1-0.7-1.8-0.7c-0.7,0-1.3,0.3-1.8,0.7c-0.5,0.5-0.7,1.1-0.7,1.8
			c0,0.6,0.2,1.2,0.7,1.7s1,0.7,1.7,0.7s1.3-0.3,1.8-0.8c0,0,0.2-0.2,0.2-0.3l0.1,0.2c0.1,0.1,0.2,0.2,0.3,0.3
			c0.4,0.4,0.9,0.6,1.3,0.6l0,0h2.2l0,0c0.5-0.1,0.9-0.2,1.3-0.6c0.1-0.1,0.2-0.2,0.2-0.3c0.1,0.1,0.2,0.2,0.2,0.3
			c0.4,0.4,0.7,0.6,1.1,0.6h8.7c0.1-0.4,0.2-0.9,0.2-1.3c0-0.9-0.2-1.7-0.6-2.3C577.8,212.1,577.2,211.6,576.6,211.4z M562.4,214.9
			c-0.3,0.3-0.7,0.5-1.2,0.5s-0.9-0.2-1.2-0.5s-0.5-0.7-0.5-1.2s0.2-0.9,0.5-1.2c0.3-0.3,0.7-0.5,1.2-0.5s0.9,0.2,1.2,0.5
			s0.5,0.7,0.5,1.2C562.9,214.2,562.7,214.6,562.4,214.9z M575.7,215c-0.2,0.2-0.4,0.3-0.6,0.3c-0.3,0-0.4-0.1-0.6-0.3
			c-0.2-0.2-0.3-0.4-0.3-0.6s0.1-0.4,0.3-0.6s0.4-0.3,0.6-0.3c0.3,0,0.4,0.1,0.6,0.3c0.2,0.2,0.3,0.4,0.3,0.6
			C575.9,214.6,575.9,214.8,575.7,215z M580.9,216.2h0.8v-6.8h-0.8V216.2z M591.3,209.4v6.8h0.8v-6.8H591.3L591.3,209.4z"/>
		<g id="XMLID_74_">
			<g id="XMLID_91_">
				<path id="XMLID_197_" style="fill:#0075C9;" d="M558.9,231.4c0-0.2-0.1-0.4-0.2-0.5s-0.3-0.2-0.5-0.2s-0.4,0.1-0.5,0.2
					s-0.2,0.3-0.2,0.5v1.7H557v-3.7h0.5v1.3c0.2-0.3,0.5-0.4,0.9-0.4c0.3,0,0.6,0.1,0.8,0.4c0.2,0.2,0.3,0.5,0.3,0.9v1.7H559
					L558.9,231.4L558.9,231.4z"/>
				<path id="XMLID_194_" style="fill:#0075C9;" d="M562.6,232.6c-0.3,0.3-0.6,0.5-1,0.5c-0.4,0-0.7-0.2-1-0.4
					c-0.3-0.3-0.4-0.6-0.4-1s0.2-0.7,0.4-1c0.3-0.3,0.6-0.4,1-0.4c0.4,0,0.7,0.2,1,0.4c0.3,0.3,0.4,0.6,0.4,1v1.4h-0.5L562.6,232.6
					L562.6,232.6z M562.6,231.7c0-0.3-0.1-0.5-0.3-0.7s-0.4-0.3-0.7-0.3c-0.3,0-0.5,0.1-0.7,0.3c-0.2,0.2-0.3,0.4-0.3,0.7
					c0,0.3,0.1,0.5,0.3,0.7c0.2,0.2,0.4,0.3,0.7,0.3c0.3,0,0.5-0.1,0.7-0.3C562.5,232.2,562.6,231.9,562.6,231.7"/>
				<path id="XMLID_193_" style="fill:#0075C9;" d="M565,230.7c-0.2,0-0.4,0.1-0.5,0.2s-0.2,0.3-0.2,0.5v1.7h-0.5v-1.7
					c0-0.3,0.1-0.6,0.4-0.9s0.5-0.4,0.9-0.4v0.6L565,230.7L565,230.7z"/>
				<path id="XMLID_97_" style="fill:#0075C9;" d="M566.3,232.8c0,0.3-0.1,0.6-0.4,0.9c-0.3,0.3-0.5,0.4-0.9,0.4v-0.5
					c0.2,0,0.4-0.1,0.5-0.2s0.2-0.3,0.2-0.5v-2.5h0.5L566.3,232.8L566.3,232.8z M565.8,229.3h0.5v0.5h-0.5V229.3z"/>
				<path id="XMLID_94_" style="fill:#0075C9;" d="M569.4,232.6c-0.3,0.3-0.6,0.5-1,0.5c-0.4,0-0.7-0.2-1-0.4
					c-0.3-0.3-0.4-0.6-0.4-1s0.2-0.7,0.4-1c0.3-0.3,0.6-0.4,1-0.4c0.4,0,0.7,0.2,1,0.4c0.3,0.3,0.4,0.6,0.4,1v1.4h-0.5L569.4,232.6
					L569.4,232.6z M569.4,231.7c0-0.3-0.1-0.5-0.3-0.7c-0.2-0.2-0.4-0.3-0.7-0.3c-0.3,0-0.5,0.1-0.7,0.3c-0.2,0.2-0.3,0.4-0.3,0.7
					c0,0.3,0.1,0.5,0.3,0.7s0.4,0.3,0.7,0.3s0.5-0.1,0.7-0.3C569.3,232.2,569.4,231.9,569.4,231.7"/>
				<path id="XMLID_93_" style="fill:#0075C9;" d="M572.7,231.4c0-0.2-0.1-0.4-0.2-0.5s-0.3-0.2-0.5-0.2s-0.4,0.1-0.5,0.2
					s-0.2,0.3-0.2,0.5v1.7h-0.5v-3.7h0.5v1.3c0.2-0.3,0.5-0.4,0.9-0.4c0.3,0,0.6,0.1,0.8,0.4c0.2,0.2,0.3,0.5,0.3,0.9v1.7h-0.5
					L572.7,231.4L572.7,231.4z"/>
				<path id="XMLID_92_" style="fill:#0075C9;" d="M555.2,233.1c-0.3,0-0.7-0.2-1-0.4l0.3-0.4c0.3,0.2,0.5,0.3,0.7,0.3
					c0.3,0,0.5-0.2,0.5-0.4c0-0.2-0.3-0.3-0.6-0.4H555c-0.4-0.2-0.7-0.3-0.7-0.8s0.4-0.8,1-0.8c0.3,0,0.6,0.1,0.9,0.3l-0.3,0.3
					c-0.2-0.1-0.4-0.2-0.5-0.2c-0.3,0-0.5,0.2-0.5,0.3c0,0.2,0.3,0.3,0.6,0.4h0.1c0.4,0.2,0.8,0.3,0.8,0.8
					C556.2,232.7,555.8,233.1,555.2,233.1"/>
			</g>
			<g id="XMLID_75_">
				<path id="XMLID_90_" style="fill:#0075C9;" d="M578.7,230c0.2,0,0.3-0.1,0.3-0.3s-0.1-0.3-0.3-0.3s-0.3,0.1-0.3,0.3
					S578.6,230,578.7,230z"/>
				<path id="XMLID_89_" style="fill:#0075C9;" d="M579.5,230c0.2,0,0.3-0.1,0.3-0.3s-0.1-0.3-0.3-0.3s-0.3,0.1-0.3,0.3
					C579.1,229.9,579.3,230,579.5,230z"/>
				<path id="XMLID_85_" style="fill:#0075C9;" d="M582.3,231.4c0,0.4,0.3,0.7,0.8,0.7c0.3,0,0.5-0.1,0.7-0.3v0.1
					c0,0.3-0.1,0.7-0.5,0.7h-2.9c-0.3,0-0.5-0.3-0.5-0.7v-1.4l0,0c-0.2,0-0.4-0.1-0.7-0.1c-1,0-1.5,0.4-1.5,1.2
					c0,0.9,0.7,1.1,1.3,1.1c0.2,0,0.4,0,0.6-0.1c0.2,0.3,0.6,0.4,0.7,0.4h3.2c0.4,0,0.9-0.3,0.9-1.1v-1.5h-0.5
					C582.9,230.4,582.3,230.8,582.3,231.4z M583.3,231.7c-0.2,0-0.4-0.1-0.4-0.4c0-0.4,0.3-0.5,1-0.5v0.4c0,0.1,0,0.1,0,0.2
					C583.8,231.5,583.6,231.7,583.3,231.7z M579.1,230.8c0.1,0,0.2,0,0.3,0v1.4c-0.1,0-0.2,0-0.3,0c-0.4,0-0.9-0.2-0.9-0.7
					C578.2,231.1,578.6,230.8,579.1,230.8z"/>
				<path id="XMLID_84_" style="fill:#0075C9;" d="M584,229.9L584,229.9c0.2,0,0.3-0.1,0.3-0.3c0-0.2-0.1-0.3-0.3-0.3
					s-0.3,0.1-0.3,0.3S583.8,229.9,584,229.9z"/>
				<path id="XMLID_83_" style="fill:#0075C9;" d="M583.3,229.9L583.3,229.9c0.2,0,0.3-0.1,0.3-0.3c0-0.2-0.1-0.3-0.3-0.3
					c-0.2,0-0.3,0.1-0.3,0.3S583.1,229.9,583.3,229.9z"/>
				<path id="XMLID_82_" style="fill:#0075C9;" d="M585.5,231.1v1.5c0.1,0.9-0.3,1-0.6,1.1h-0.1l0.1,0.4l0,0c0.7,0,1.1-0.4,1.1-1.3
					v-1.9L585.5,231.1L585.5,231.1z"/>
				<path id="XMLID_81_" style="fill:#0075C9;" d="M591.3,229.6c0,0.2,0.1,0.3,0.3,0.3l0,0c0.2,0,0.3-0.1,0.3-0.3
					c0-0.2-0.1-0.3-0.3-0.3C591.4,229.3,591.3,229.5,591.3,229.6z"/>
				<path id="XMLID_80_" style="fill:#0075C9;" d="M590.9,229.9L590.9,229.9c0.2,0,0.3-0.1,0.3-0.3c0-0.2-0.1-0.3-0.3-0.3
					c-0.2,0-0.3,0.1-0.3,0.3S590.7,229.9,590.9,229.9z"/>
				<path id="XMLID_79_" style="fill:#0075C9;" d="M591.2,229.3L591.2,229.3c0.2,0,0.3-0.1,0.3-0.3c0-0.2-0.1-0.3-0.3-0.3
					s-0.3,0.1-0.3,0.3S591,229.3,591.2,229.3z"/>
				<path id="XMLID_78_" style="fill:#0075C9;" d="M594.8,231.9c0,0.3-0.1,0.7-0.5,0.7h-0.6c-0.2,0-0.3-0.1-0.4-0.2
					c-0.1-0.1-0.2-0.3-0.2-0.4v-1.6l-0.5,0.2v1.3c0,0.3-0.1,0.7-0.5,0.7c-0.3,0-0.5-0.3-0.5-0.6v-1.3l-0.5,0.2v1.1
					c0,0.4-0.2,0.6-0.5,0.6c-0.3,0-0.5-0.3-0.5-0.6v-1.1l-0.5,0.2v0.9c0,0.4-0.2,0.6-0.5,0.6h-1.2c-0.3,0-0.5-0.2-0.5-0.7v-2.5
					l-0.5,0.2v2.4c0,0.9,0.5,1.1,0.9,1.1h1.4l0,0c0.3,0,0.6-0.2,0.7-0.5c0.2,0.3,0.5,0.5,0.9,0.5c0.3,0,0.6-0.2,0.7-0.5
					c0.2,0.3,0.5,0.5,0.9,0.5c0.1,0,0.5-0.1,0.7-0.5c0.2,0.3,0.5,0.5,0.8,0.5h0.7l0,0l0,0l0,0c0.4,0,0.9-0.3,0.9-1.1v-2.6l-0.5,0.2
					L594.8,231.9L594.8,231.9z"/>
				<polygon id="XMLID_77_" style="fill:#0075C9;" points="596.2,229.5 596.2,233.1 596.7,233.1 596.7,229.3 				"/>
			</g>
		</g>
		<g id="XMLID_16_">
			<g id="XMLID_70_">
				<g>

						<linearGradient id="SVGID_188_" gradientUnits="userSpaceOnUse" x1="574.077" y1="192.0258" x2="563.2253" y2="204.3483" gradientTransform="matrix(1 0 0 1 0 4)">
						<stop  offset="0" style="stop-color:#E34126"/>
						<stop  offset="1" style="stop-color:#FFC333"/>
					</linearGradient>
					<path id="SVGID_16009988_" style="fill:url(#SVGID_188_);" d="M564.1,199.9v6.2h3.6v-6.7c-0.3,0.1-0.5,0.1-0.8,0.1
						c-0.6,0-1.3-0.1-1.9-0.4C564.6,199.4,564.3,199.6,564.1,199.9 M571.6,196.1c-0.5,0.5-1,1.1-1.4,1.9c-0.2,0.2-0.4,0.4-0.6,0.6
						v7.6h2.1c0-0.4-0.1-0.7-0.1-1.1c-0.1-0.4-0.4-0.7-0.3-1.1c0.3-1.7,1.2-1.2,1.5-2.8c0.1-0.5,0.2-1.1,0.4-1.5v-3.8
						C572.7,195.8,572.2,195.9,571.6,196.1"/>
				</g>
			</g>
			<g id="XMLID_66_">
				<g>

						<linearGradient id="SVGID_288_" gradientUnits="userSpaceOnUse" x1="573.8084" y1="191.4572" x2="590.3878" y2="191.9157" gradientTransform="matrix(1 0 0 1 0 4)">
						<stop  offset="0" style="stop-color:#007496"/>
						<stop  offset="0.417" style="stop-color:#007496"/>
						<stop  offset="1" style="stop-color:#5BCAF4"/>
					</linearGradient>
					<path id="SVGID_15009988_" style="fill:url(#SVGID_288_);" d="M580.2,192.5c-0.3,0.3-0.7,0.2-1.1,0.2c-0.6-0.1-1.4-0.1-2.2,0.9
						c0.4,0.4,0.7,1,0.7,1.7v1.2c0.2,0,0.4,0,0.5,0c0.5,0,1-0.1,1.4,0c0.5,0.1,1.1,0.2,1.7,0.4v-1.4c0-1.2-0.2-2.2-0.6-3
						C580.5,192.4,580.4,192.5,580.2,192.5 M582.3,191.8c0.5,1,0.9,2.2,0.9,3.7v2.7c0.3,0.3,0.5,0.5,0.9,0.9c1,0.6,2,1.4,2.8,2.3
						c0-2.9,0-6,0-6c0-1.9-0.5-3.7-1.4-5.2C584.5,190.8,583.4,191.3,582.3,191.8"/>
				</g>
			</g>
			<g id="XMLID_62_">
				<g>

						<linearGradient id="SVGID_388_" gradientUnits="userSpaceOnUse" x1="574.7642" y1="189.7982" x2="552.3015" y2="192.5486" gradientTransform="matrix(1 0 0 1 0 4)">
						<stop  offset="0" style="stop-color:#D83C73"/>
						<stop  offset="0.1992" style="stop-color:#CE3869"/>
						<stop  offset="0.5406" style="stop-color:#B32E4D"/>
						<stop  offset="0.9803" style="stop-color:#871D21"/>
						<stop  offset="1" style="stop-color:#851C1F"/>
					</linearGradient>
					<path id="SVGID_14009988_" style="fill:url(#SVGID_388_);" d="M569.5,195.1v1.7c0.8-0.3,1.5-0.5,2.2-0.7c0.5-0.1,1-0.2,1.4-0.3
						v-0.6c0-0.7,0.3-1.3,0.8-1.8l1.2,1.4c-0.3-0.5-0.7-1.1-1.2-1.7c-0.9-0.2-2.6-0.6-4.1-1.2C569.7,193.1,569.5,194.1,569.5,195.1
						 M564.1,195.1v5.1c0.2-0.2,0.4-0.2,0.4-0.2c0.7-0.6,2.1-1.8,3.2-2.3v-2.5c0-1.3,0.3-2.6,0.7-3.7c-0.6-0.3-1.1-0.6-1.5-0.9
						c-0.2-0.1-0.3-0.2-0.4-0.3c-0.1,0-0.4-0.3-0.7-0.5C564.6,191.2,564.1,193.1,564.1,195.1"/>
				</g>
			</g>
			<g id="XMLID_59_">
				<g>

						<linearGradient id="SVGID_488_" gradientUnits="userSpaceOnUse" x1="564.0533" y1="193.9998" x2="573.1733" y2="193.9998" gradientTransform="matrix(1 0 0 1 0 4)">
						<stop  offset="0" style="stop-color:#EF5136"/>
						<stop  offset="0.4045" style="stop-color:#CB3740"/>
						<stop  offset="0.7805" style="stop-color:#AF2447"/>
						<stop  offset="1" style="stop-color:#A51D4A"/>
					</linearGradient>
					<path id="SVGID_13009988_" style="fill:url(#SVGID_488_);" d="M564.1,200v0.3c0.8,0,2.2-0.7,2.8-0.7c0.3,0,0.5,0,0.8-0.1v-2
						C566.7,198,565,199.2,564.1,200 M569.5,196.8v1.8c0.2-0.2,0.4-0.4,0.6-0.6c0.9-1.4,2.3-1.8,3-2.1v-0.2
						C572.3,195.9,570.9,196.4,569.5,196.8"/>
				</g>
			</g>
			<g id="XMLID_53_">
				<g>

						<linearGradient id="SVGID_588_" gradientUnits="userSpaceOnUse" x1="577.3555" y1="191.3524" x2="588.7641" y2="203.5811" gradientTransform="matrix(1 0 0 1 0 4)">
						<stop  offset="0" style="stop-color:#698735"/>
						<stop  offset="1" style="stop-color:#D1D747"/>
					</linearGradient>
					<path id="SVGID_12009988_" style="fill:url(#SVGID_588_);" d="M583.1,203.9c0.1,0.2,0.1,0.4,0.1,0.6c0.9,0.5,1.7,1.1,2.5,1.7h1.1
						c0,0,0-1.4,0-3.2c-0.4-0.5-0.8-1.1-1.2-1.9c-0.5-0.9-1.1-1.5-1.5-2.1c-0.4-0.5-0.6-0.8-0.9-1L583.1,203.9L583.1,203.9z
						 M577.7,196.4v3c0.1,0.1,0.2,0.1,0.3,0.1c1.1,0.6,2,1.4,2.8,2.2c0.2,0.2,0.3,0.3,0.5,0.5v-5.3c-1.1-0.4-2.3-0.5-3-0.5
						C578,196.4,577.8,196.4,577.7,196.4"/>
				</g>
			</g>
			<g id="XMLID_52_">
				<g>

						<linearGradient id="SVGID_688_" gradientUnits="userSpaceOnUse" x1="584.1687" y1="197.0499" x2="589.2675" y2="197.0499" gradientTransform="matrix(1 0 0 1 0 4)">
						<stop  offset="0" style="stop-color:#698735"/>
						<stop  offset="1" style="stop-color:#095B83"/>
					</linearGradient>
					<path id="SVGID_11009988_" style="fill:url(#SVGID_688_);" d="M585.5,201.1c0.5,0.7,0.9,1.3,1.2,1.9c0-0.5,0-1.1,0-1.6
						c-0.8-0.9-1.8-1.7-2.8-2.3C584.5,199.6,585,200.3,585.5,201.1"/>
				</g>
			</g>
			<g id="XMLID_46_">
				<g>

						<linearGradient id="SVGID_788_" gradientUnits="userSpaceOnUse" x1="578.2495" y1="192.0838" x2="579.3192" y2="209.1223" gradientTransform="matrix(1 0 0 1 0 4)">
						<stop  offset="0" style="stop-color:#698735"/>
						<stop  offset="1" style="stop-color:#D1D747"/>
					</linearGradient>
					<path id="SVGID_10009988_" style="fill:url(#SVGID_788_);" d="M583.1,206.2h3c-1-0.6-2-1.1-3-1.6v-0.1c0,0-0.1,0-0.1-0.1
						L583.1,206.2L583.1,206.2z M571.6,205.1c0.1,0.1,0.1,0.5,0.1,1.1h1.5v-3.9C572.7,203.3,572.2,204.3,571.6,205.1 M577.7,206.2
						h3.6v-3.6c-1.4-1-2.9-2.2-3.6-3V206.2L577.7,206.2z"/>
				</g>
			</g>

				<linearGradient id="SVGID_888_" gradientUnits="userSpaceOnUse" x1="571.2252" y1="198.8499" x2="574.6572" y2="198.8499" gradientTransform="matrix(1 0 0 1 0 4)">
				<stop  offset="0" style="stop-color:#AD5F28"/>
				<stop  offset="1" style="stop-color:#215A4A"/>
			</linearGradient>
			<path id="SVGID_9009988_" style="fill:url(#SVGID_888_);" d="M572.7,201.1c-0.3,1.7-1.2,1.2-1.5,2.8c-0.1,0.2,0.1,1.3,0.2,2.2h0.4
				c0.4-1.2,0.9-2.5,1.3-3.8v-2.7C573,200.1,572.9,200.6,572.7,201.1"/>
			<g id="XMLID_42_">
				<g>

						<linearGradient id="SVGID_988_" gradientUnits="userSpaceOnUse" x1="577.6533" y1="198.8499" x2="586.56" y2="198.8499" gradientTransform="matrix(1 0 0 1 0 4)">
						<stop  offset="0" style="stop-color:#698735"/>
						<stop  offset="1" style="stop-color:#215A4A"/>
					</linearGradient>
					<path id="SVGID_8009988_" style="fill:url(#SVGID_988_);" d="M583.1,204.7c0.9,0.5,1.9,1.1,2.6,1.5h0.8c-0.5-0.7-2-1.7-3.4-2.7
						V204.7L583.1,204.7z M577.7,199.5c0.9,1,2.4,2.1,3.6,3.6v-0.9c-0.2-0.2-0.4-0.3-0.5-0.4c-0.9-0.8-1.7-1.6-2.8-2.2
						C577.9,199.5,577.8,199.5,577.7,199.5L577.7,199.5L577.7,199.5z"/>
				</g>
			</g>
			<g id="XMLID_40_">
				<g>

						<linearGradient id="SVGID_1088_" gradientUnits="userSpaceOnUse" x1="574.8401" y1="192.7658" x2="574.7191" y2="179.7237" gradientTransform="matrix(1 0 0 1 0 4)">
						<stop  offset="0" style="stop-color:#B12850"/>
						<stop  offset="1" style="stop-color:#007497"/>
					</linearGradient>
					<path id="SVGID_7009988_" style="fill:url(#SVGID_1088_);" d="M576.9,188.3c0.2-0.9,0.5-1.9,1-2.8c-0.2,0-0.4,0-0.5,0
						c-0.8,0-1.3,0.2-2,0.4c-0.5,0.2-0.9,0.4-1.6,0.7c-0.9,0.5-1.6,1.2-2.2,2c1.4,1.6,3,4.9,3.7,6.5l0.2,0.2l0.7-0.9
						c0.2-1.1,0.2-2.5,0.6-3c-0.1-0.2-0.1-0.4-0.1-0.5c0-0.2,0-0.7,0.1-1.4c-1.4-0.3-2.7-0.1-3.5,0.2
						C574.1,188.7,575.5,188.3,576.9,188.3z"/>
				</g>
			</g>

				<linearGradient id="SVGID_1188_" gradientUnits="userSpaceOnUse" x1="576.3325" y1="189.9654" x2="570.5911" y2="178.7809" gradientTransform="matrix(1 0 0 1 0 4)">
				<stop  offset="0" style="stop-color:#B12850"/>
				<stop  offset="1" style="stop-color:#007497"/>
			</linearGradient>
			<path id="SVGID_6009988_" style="fill:url(#SVGID_1188_);" d="M575.3,185.5c0.1,0,0.1-0.1,0.2-0.1c0.2-0.1,0.3-0.1,0.2-0.1h-0.3l0,0
				c-0.1,0-0.1,0-0.1,0h-0.7c-0.4,0-0.9,0-1.3,0.1l0,0c-1.7,0.2-3.2,0.6-4.5,1.4c0.1,0.1,0.2,0.2,0.3,0.3c0.5,0.2,1,0.5,1.5,0.7
				c0.1,0,0.1,0.1,0.1,0.1C572.2,186.8,573.7,185.9,575.3,185.5L575.3,185.5z M575.3,185.5L575.3,185.5L575.3,185.5L575.3,185.5z"/>

				<linearGradient id="SVGID_1288_" gradientUnits="userSpaceOnUse" x1="574.6902" y1="193.1273" x2="585.6161" y2="178.9923" gradientTransform="matrix(1 0 0 1 0 4)">
				<stop  offset="0" style="stop-color:#007496"/>
				<stop  offset="1" style="stop-color:#5BCAF4"/>
			</linearGradient>
			<path id="SVGID_5009988_" style="fill:url(#SVGID_1288_);" d="M576.9,191.2c-0.1,0.1-0.6,0.4-1,3.4l0.9-1.1c0.1,0.1,0.2,0.2,0.3,0.3
				c0.3-0.6,0.6-1,0.9-1c0.1,0,0.2,0.1,0.3,0.1c0.4,0,0.6,0.2,1.4-0.1c0.1-0.1,0.5-0.4,0.9-0.6c-0.7-1.3-1.9-2.1-3-2.5
				C577.2,190.4,577,191.2,576.9,191.2 M578.6,186.6c-0.2,0.5-0.3,1.1-0.5,1.5c0,0-0.1,0.2-0.1,0.4c1.5,0.3,3,1.2,3.9,2.7
				c1-0.7,2.1-1.1,3.2-1.4c-1.3-1.9-3.4-3.4-6-3.9c-0.1,0-0.3-0.1-0.4-0.1C578.7,186,578.7,186.3,578.6,186.6"/>

				<linearGradient id="SVGID_1388_" gradientUnits="userSpaceOnUse" x1="579.7" y1="187.2499" x2="585.3868" y2="187.2499" gradientTransform="matrix(1 0 0 1 0 4)">
				<stop  offset="0" style="stop-color:#00678C"/>
				<stop  offset="1" style="stop-color:#1461AD"/>
			</linearGradient>
			<path id="SVGID_4009988_" style="fill:url(#SVGID_1388_);" d="M579.7,192.8c0.3-0.1,0.6-0.2,1-0.3c-0.1-0.1-0.1-0.2-0.2-0.3
				C580.2,192.4,579.8,192.7,579.7,192.8 M581.9,191.1c0.2,0.2,0.3,0.4,0.4,0.7c1.1-0.5,2.2-1.1,3-1.7c-0.1-0.2-0.2-0.3-0.3-0.4
				C584,190,582.9,190.5,581.9,191.1"/>

				<linearGradient id="XMLID_288_" gradientUnits="userSpaceOnUse" x1="576.1692" y1="187.3499" x2="577.5097" y2="187.3499" gradientTransform="matrix(1 0 0 1 0 4)">
				<stop  offset="0" style="stop-color:#00678C"/>
				<stop  offset="1" style="stop-color:#19469C"/>
			</linearGradient>
			<path id="XMLID_31009988_" style="fill:url(#XMLID_288_);" d="M576.7,191c0,0.1-0.5,2-0.5,2.2c0.1-0.1,0.7-1.9,0.7-2
				c0.1-0.1,0.3-0.8,0.6-1.5c-0.3-0.1-0.5-0.2-0.8-0.2C576.6,190.2,576.6,190.8,576.7,191"/>

				<linearGradient id="XMLID_388_" gradientUnits="userSpaceOnUse" x1="576.9066" y1="182.8999" x2="578.7254" y2="182.8999" gradientTransform="matrix(1 0 0 1 0 4)">
				<stop  offset="0" style="stop-color:#00678C"/>
				<stop  offset="1" style="stop-color:#19469C"/>
			</linearGradient>
			<path id="XMLID_30009988_" style="fill:url(#XMLID_388_);" d="M576.9,188.3c0.4,0,0.7,0.1,1.1,0.1c0.1-0.2,0.1-0.4,0.1-0.4
				c0.2-0.5,0.4-1,0.5-1.5c0.1-0.3,0.1-0.6,0.1-0.9c-0.1,0-0.2-0.1-0.3-0.1c-0.2,0-0.4-0.1-0.5-0.1
				C577.4,186.4,577.1,187.4,576.9,188.3"/>

				<linearGradient id="SVGID_1488_" gradientUnits="userSpaceOnUse" x1="576.7551" y1="193.3657" x2="564.9241" y2="181.7368" gradientTransform="matrix(1 0 0 1 0 4)">
				<stop  offset="0" style="stop-color:#B12850"/>
				<stop  offset="1" style="stop-color:#604B9E"/>
			</linearGradient>
			<path id="SVGID_3009988_" style="fill:url(#SVGID_1488_);" d="M570,192c0.9,0.3,1.5,0.5,2.1,0.9c0.4,0.3,1.7,0.9,1.7,0.9
				s0.1-0.2,0.3-0.3l1.4,1.8c-0.3-0.5-0.7-1.4-1.3-2.6c-0.2-0.3-0.6-0.9-0.7-1c-0.3-0.2-1-1.4-2-2.7
				C570.7,189.9,570.2,190.9,570,192 M565.7,189.7c0.2,0.2,0.4,0.3,0.6,0.5c0.9,0.1,1.5,0.7,2.1,1.2c0.5-1.2,1.3-2.3,2.2-3.2
				c-0.4-0.3-0.8-0.6-1.3-1c0,0-0.2-0.2-0.5-0.4C567.6,187.6,566.5,188.5,565.7,189.7"/>

				<linearGradient id="SVGID_1588_" gradientUnits="userSpaceOnUse" x1="565.7" y1="187.6999" x2="573.7143" y2="187.6999" gradientTransform="matrix(1 0 0 1 0 4)">
				<stop  offset="0" style="stop-color:#521A57"/>
				<stop  offset="0.4741" style="stop-color:#5C2250"/>
				<stop  offset="1" style="stop-color:#6D3044"/>
			</linearGradient>
			<path id="SVGID_2009988_" style="fill:url(#SVGID_1588_);" d="M569.9,192.2c1.3,0.5,2.7,1,3.8,1.6l0,0c-0.6-0.3-2.2-1.3-3.7-2.1
				C570,191.8,570,192,569.9,192.2 M565.7,189.7c0.5,0.4,1,0.7,1,0.8c0.5,0.4,1,0.7,1.7,1c0.1-0.2,0.2-0.4,0.3-0.6
				c-0.1-0.1-0.2-0.1-0.3-0.1c-0.7-0.3-1.6-1.1-2.5-1.2C565.8,189.6,565.8,189.6,565.7,189.7"/>

				<linearGradient id="SVGID_1688_" gradientUnits="userSpaceOnUse" x1="568.8105" y1="187.0777" x2="575.4238" y2="187.0777" gradientTransform="matrix(1 0 0 1 0 4)">
				<stop  offset="0" style="stop-color:#842447"/>
				<stop  offset="1" style="stop-color:#392663"/>
			</linearGradient>
			<path id="SVGID_1009988_" style="fill:url(#SVGID_1688_);" d="M571.2,189.2c0.8,1,1.5,2.1,2,3.3c0.2,0.4,0.4,0.9,0.6,1.2
				c0.1-0.1,0.1-0.1,0.2-0.2l1.4,1.8c-0.4-1-2.2-4.8-3.8-6.6C571.5,188.8,571.3,189,571.2,189.2 M570.5,188.4
				c0.1-0.2,0.3-0.3,0.4-0.4c-0.1,0-0.1-0.1-0.1-0.1c-0.4-0.3-1.2-0.7-1.7-1C569.5,187.4,570,187.8,570.5,188.4 M568.8,186.9
				L568.8,186.9c0.1,0,0.1,0.1,0.2,0.1C568.9,186.9,568.9,186.9,568.8,186.9C568.9,186.8,568.9,186.9,568.8,186.9"/>
		</g>
	</g>
	<polygon id="tap_x5F_area" style="fill:#FFFFFF;fill-opacity:0;" points="554.8,183.6 596.7,183.6 596.7,237.1 582,282.6
		569.3,282.6 554.1,237.1 	"/>
</g>

<rect id="app_x5F_Sharjah--zoom" x="555.5" y="268.4" transform="rotate(-56deg 0 0)" style="fill:none;" width="36.48" height="20.48"/>
<rect id="app_x5F_Dubai--zoom" x="552.64" y="280.53" transform="rotate(-9deg 0 0)" style="fill:none;" width="40.32" height="22.68"/>

</svg>
